M48
; DRILL file {KiCad 5.1.9} date 05/26/21 15:49:53
; FORMAT={-:-/ absolute / inch / decimal}
; #@! TF.CreationDate,2021-05-26T15:49:53-04:00
; #@! TF.GenerationSoftware,Kicad,Pcbnew,5.1.9
; #@! TF.FileFunction,Plated,1,2,PTH
FMAT,2
INCH
T1C0.0157
T2C0.0276
T3C0.0409
T4C0.0579
%
G90
G05
T1
X0.5938Y0.0938
X10.7188Y-0.4688
X11.0Y-0.4688
X11.5Y0.1875
X11.5625Y0.6875
X11.75Y0.875
X11.75Y0.75
X11.75Y-0.0625
X11.875Y-0.9375
X11.875Y-1.7188
X11.9062Y-0.9062
X11.9062Y-2.4688
X11.9375Y-0.0625
X11.9375Y-0.875
X11.9375Y-3.0312
X11.9688Y-0.8438
X11.9688Y-3.7812
X12.1875Y0.875
X12.1875Y0.75
X12.4688Y0.75
T3
X0.2312Y-2.45
X0.3312Y-2.45
T4
X-0.15Y0.1
X-0.15Y-0.65
X0.0375Y-1.4
X0.1Y0.2
X0.1Y-0.55
X0.1313Y-2.15
X0.2875Y-1.3
X0.3187Y-2.9
X0.3812Y-2.05
X0.5687Y-2.8
X0.6Y-0.65
X0.85Y-0.55
X0.8812Y-3.65
X0.975Y0.1
X0.975Y-1.4
X1.1312Y-3.55
X1.1625Y-2.15
X1.225Y0.2
X1.225Y-1.3
X1.35Y-0.65
X1.4125Y-2.05
X1.5375Y-2.9
X1.6Y-0.55
X1.725Y0.1
X1.725Y-1.4
X1.7875Y-2.8
X1.8187Y-3.65
X1.9125Y-2.15
X1.975Y0.2
X1.975Y-1.3
X2.0688Y-3.55
X2.1Y-0.65
X2.1625Y-2.05
X2.2875Y-2.9
X2.35Y-0.55
X2.475Y0.1
X2.475Y-1.4
X2.5375Y-2.8
X2.6625Y-2.15
X2.725Y0.2
X2.725Y-1.3
X2.85Y-0.65
X2.9125Y-2.05
X3.0375Y-2.9
X3.1Y-0.55
X3.225Y0.1
X3.225Y-1.4
X3.2875Y-2.8
X3.4125Y-2.15
X3.475Y0.2
X3.475Y-1.3
X3.6Y-0.65
X3.6625Y-2.05
X3.7875Y-2.9
X3.85Y-0.55
X3.975Y0.1
X3.975Y-1.4
X4.0375Y-2.8
X4.1625Y-2.15
X4.225Y0.2
X4.225Y-1.3
X4.35Y-0.65
X4.4125Y-2.05
X4.5375Y-2.9
X4.6Y-0.55
X4.725Y0.1
X4.725Y-1.4
X4.7875Y-2.8
X4.9125Y-2.15
X4.9125Y-3.65
X4.975Y0.2
X4.975Y-1.3
X5.1Y-0.65
X5.1625Y-2.05
X5.1625Y-3.55
X5.2875Y-2.9
X5.35Y-0.55
X5.475Y-1.4
X5.5375Y-2.8
X5.6625Y-2.15
X5.725Y-1.3
X5.85Y0.1
X5.85Y-0.65
X5.9125Y-2.05
X6.0375Y-2.9
X6.1Y0.2
X6.1Y-0.55
X6.225Y-1.4
X6.2875Y-2.8
X6.4125Y-2.15
X6.475Y-1.3
X6.6Y0.1
X6.6Y-0.65
X6.6625Y-2.05
X6.7875Y-2.9
X6.85Y0.2
X6.85Y-0.55
X6.975Y-1.4
X7.0375Y-2.8
X7.1625Y-2.15
X7.225Y-1.3
X7.35Y0.1
X7.35Y-0.65
X7.4125Y-2.05
X7.5375Y-2.9
X7.6Y0.2
X7.6Y-0.55
X7.725Y-1.4
X7.7875Y-2.8
X7.9125Y-2.15
X7.975Y-1.3
X8.0062Y-3.65
X8.1Y0.1
X8.1Y-0.65
X8.1625Y-2.05
X8.2562Y-3.55
X8.2875Y-2.9
X8.35Y0.2
X8.35Y-0.55
X8.475Y-1.4
X8.5375Y-2.8
X8.6625Y-2.15
X8.725Y-1.3
X8.85Y0.1
X8.85Y-0.65
X8.9125Y-2.05
X8.9437Y-3.65
X9.1Y0.2
X9.1Y-0.55
X9.1937Y-3.55
X9.225Y-1.4
X9.3187Y-2.9
X9.475Y-1.3
X9.5687Y-2.8
X9.6Y0.1
X9.6Y-0.65
X9.85Y0.2
X9.85Y-0.55
X9.975Y-1.775
X10.225Y-1.675
X10.35Y-2.9
X10.5375Y-0.65
X10.6Y-2.8
X10.725Y0.1
X10.725Y-1.4
X10.725Y-2.15
X10.725Y-3.65
X10.7875Y-0.55
X10.975Y0.2
X10.975Y-1.3
X10.975Y-2.05
X10.975Y-3.55
X11.1Y-2.9
X11.35Y-2.8
X12.225Y-0.65
X12.225Y-1.4
X12.225Y-2.15
X12.225Y-3.65
X12.475Y-0.55
X12.475Y-1.3
X12.475Y-2.05
X12.475Y-3.55
X12.6Y-2.9
X12.85Y-2.8
X12.975Y-0.65
X12.975Y-1.4
X12.975Y-2.15
X13.225Y-0.55
X13.225Y-1.3
X13.225Y-2.05
X13.35Y-3.65
X13.6Y-3.55
X13.725Y-0.65
X13.725Y-1.4
X13.725Y-2.15
X13.725Y-2.9
X13.975Y-0.55
X13.975Y-1.3
X13.975Y-2.05
X13.975Y-2.8
T2
G00X6.7938Y1.2986
M15
G01X6.7938Y1.2514
M16
G05
G00X6.7938Y1.1215
M15
G01X6.7938Y1.0742
M16
G05
G00X7.0812Y1.2986
M15
G01X7.0812Y1.2514
M16
G05
G00X7.0812Y1.1215
M15
G01X7.0812Y1.0742
M16
G05
T0
M30
