M48
; DRILL file {KiCad 5.1.9} date 05/26/21 15:49:53
; FORMAT={-:-/ absolute / inch / decimal}
; #@! TF.CreationDate,2021-05-26T15:49:53-04:00
; #@! TF.GenerationSoftware,Kicad,Pcbnew,5.1.9
; #@! TF.FileFunction,NonPlated,1,2,NPTH
FMAT,2
INCH
T1C0.0689
T2C0.1200
T3C0.1260
T4C0.1570
%
G90
G05
T1
X-0.2Y0.0
X-0.2Y-0.75
X-0.0125Y-1.5
X0.0813Y-2.25
X0.2Y0.0
X0.2Y-0.75
X0.2687Y-3.0
X0.3875Y-1.5
X0.4813Y-2.25
X0.55Y-0.75
X0.6687Y-3.0
X0.8312Y-3.75
X0.925Y0.0
X0.925Y-1.5
X0.95Y-0.75
X1.1125Y-2.25
X1.2312Y-3.75
X1.3Y-0.75
X1.325Y0.0
X1.325Y-1.5
X1.4875Y-3.0
X1.5125Y-2.25
X1.675Y0.0
X1.675Y-1.5
X1.7Y-0.75
X1.7688Y-3.75
X1.8625Y-2.25
X1.8875Y-3.0
X2.05Y-0.75
X2.075Y0.0
X2.075Y-1.5
X2.1687Y-3.75
X2.2375Y-3.0
X2.2625Y-2.25
X2.425Y0.0
X2.425Y-1.5
X2.45Y-0.75
X2.6125Y-2.25
X2.6375Y-3.0
X2.8Y-0.75
X2.825Y0.0
X2.825Y-1.5
X2.9875Y-3.0
X3.0125Y-2.25
X3.175Y0.0
X3.175Y-1.5
X3.2Y-0.75
X3.3625Y-2.25
X3.3875Y-3.0
X3.55Y-0.75
X3.575Y0.0
X3.575Y-1.5
X3.7375Y-3.0
X3.7625Y-2.25
X3.925Y0.0
X3.925Y-1.5
X3.95Y-0.75
X4.1125Y-2.25
X4.1375Y-3.0
X4.3Y-0.75
X4.325Y0.0
X4.325Y-1.5
X4.4875Y-3.0
X4.5125Y-2.25
X4.675Y0.0
X4.675Y-1.5
X4.7Y-0.75
X4.8625Y-2.25
X4.8625Y-3.75
X4.8875Y-3.0
X5.05Y-0.75
X5.075Y0.0
X5.075Y-1.5
X5.2375Y-3.0
X5.2625Y-2.25
X5.2625Y-3.75
X5.425Y-1.5
X5.45Y-0.75
X5.6125Y-2.25
X5.6375Y-3.0
X5.8Y0.0
X5.8Y-0.75
X5.825Y-1.5
X5.9875Y-3.0
X6.0125Y-2.25
X6.175Y-1.5
X6.2Y0.0
X6.2Y-0.75
X6.3625Y-2.25
X6.3875Y-3.0
X6.55Y0.0
X6.55Y-0.75
X6.575Y-1.5
X6.7375Y-3.0
X6.7625Y-2.25
X6.925Y-1.5
X6.95Y0.0
X6.95Y-0.75
X7.1125Y-2.25
X7.1375Y-3.0
X7.3Y0.0
X7.3Y-0.75
X7.325Y-1.5
X7.4875Y-3.0
X7.5125Y-2.25
X7.675Y-1.5
X7.7Y0.0
X7.7Y-0.75
X7.8625Y-2.25
X7.8875Y-3.0
X7.9562Y-3.75
X8.05Y0.0
X8.05Y-0.75
X8.075Y-1.5
X8.2375Y-3.0
X8.2625Y-2.25
X8.3562Y-3.75
X8.425Y-1.5
X8.45Y0.0
X8.45Y-0.75
X8.6125Y-2.25
X8.6375Y-3.0
X8.8Y0.0
X8.8Y-0.75
X8.825Y-1.5
X8.8937Y-3.75
X9.0125Y-2.25
X9.175Y-1.5
X9.2Y0.0
X9.2Y-0.75
X9.2687Y-3.0
X9.2937Y-3.75
X9.55Y0.0
X9.55Y-0.75
X9.575Y-1.5
X9.6687Y-3.0
X9.925Y-1.875
X9.95Y0.0
X9.95Y-0.75
X10.3Y-3.0
X10.325Y-1.875
X10.4875Y-0.75
X10.675Y0.0
X10.675Y-1.5
X10.675Y-2.25
X10.675Y-3.75
X10.7Y-3.0
X10.8875Y-0.75
X11.05Y-3.0
X11.075Y0.0
X11.075Y-1.5
X11.075Y-2.25
X11.075Y-3.75
X11.45Y-3.0
X12.175Y-0.75
X12.175Y-1.5
X12.175Y-2.25
X12.175Y-3.75
X12.55Y-3.0
X12.575Y-0.75
X12.575Y-1.5
X12.575Y-2.25
X12.575Y-3.75
X12.925Y-0.75
X12.925Y-1.5
X12.925Y-2.25
X12.95Y-3.0
X13.3Y-3.75
X13.325Y-0.75
X13.325Y-1.5
X13.325Y-2.25
X13.675Y-0.75
X13.675Y-1.5
X13.675Y-2.25
X13.675Y-3.0
X13.7Y-3.75
X14.075Y-0.75
X14.075Y-1.5
X14.075Y-2.25
X14.075Y-3.0
T2
X0.0Y-2.725
X0.9375Y-2.725
X2.8125Y-3.475
X7.3125Y-3.475
X10.4Y-1.4062
X10.4Y-2.3438
X12.2812Y-2.725
X13.0312Y-3.475
X13.2188Y-2.725
X13.9688Y-3.475
T3
X0.0625Y0.6875
X0.0625Y-3.6875
X3.3125Y0.6875
X3.3125Y-3.6875
X6.9375Y0.6875
X6.9375Y-3.6875
X10.0625Y0.6875
X10.0625Y-3.6875
X11.5938Y-1.9062
X13.8125Y0.6875
T4
X0.0Y0.0
X0.0Y-0.75
X0.0Y-3.325
X0.1875Y-1.5
X0.2812Y-2.25
X0.4688Y-3.0
X0.75Y-0.75
X0.9375Y-3.325
X1.0312Y-3.75
X1.125Y0.0
X1.125Y-1.5
X1.3125Y-2.25
X1.5Y-0.75
X1.6875Y-3.0
X1.875Y0.0
X1.875Y-1.5
X1.9688Y-3.75
X2.0625Y-2.25
X2.25Y-0.75
X2.4375Y-3.0
X2.625Y0.0
X2.625Y-1.5
X2.8125Y-2.25
X2.8125Y-4.075
X3.0Y-0.75
X3.1875Y-3.0
X3.375Y0.0
X3.375Y-1.5
X3.5625Y-2.25
X3.75Y-0.75
X3.9375Y-3.0
X4.125Y0.0
X4.125Y-1.5
X4.3125Y-2.25
X4.5Y-0.75
X4.6875Y-3.0
X4.875Y0.0
X4.875Y-1.5
X5.0625Y-2.25
X5.0625Y-3.75
X5.25Y-0.75
X5.4375Y-3.0
X5.625Y-1.5
X5.8125Y-2.25
X6.0Y0.0
X6.0Y-0.75
X6.1875Y-3.0
X6.375Y-1.5
X6.5625Y-2.25
X6.75Y0.0
X6.75Y-0.75
X6.9375Y-3.0
X7.125Y-1.5
X7.3125Y-2.25
X7.3125Y-4.075
X7.5Y0.0
X7.5Y-0.75
X7.6875Y-3.0
X7.875Y-1.5
X8.0625Y-2.25
X8.1562Y-3.75
X8.25Y0.0
X8.25Y-0.75
X8.4375Y-3.0
X8.625Y-1.5
X8.8125Y-2.25
X9.0Y0.0
X9.0Y-0.75
X9.0938Y-3.75
X9.375Y-1.5
X9.4688Y-3.0
X9.75Y0.0
X9.75Y-0.75
X9.8Y-1.4062
X9.8Y-2.3438
X10.125Y-1.875
X10.5Y-3.0
X10.6875Y-0.75
X10.875Y0.0
X10.875Y-1.5
X10.875Y-2.25
X10.875Y-3.75
X11.25Y-3.0
X12.2812Y-3.325
X12.375Y-0.75
X12.375Y-1.5
X12.375Y-2.25
X12.375Y-3.75
X12.75Y-3.0
X13.0312Y-4.075
X13.125Y-0.75
X13.125Y-1.5
X13.125Y-2.25
X13.2188Y-3.325
X13.5Y-3.75
X13.875Y-0.75
X13.875Y-1.5
X13.875Y-2.25
X13.875Y-3.0
X13.9688Y-4.075
T0
M30
