%TF.GenerationSoftware,KiCad,Pcbnew,5.1.9*%
%TF.CreationDate,2021-05-19T15:57:03-04:00*%
%TF.ProjectId,EKS-Mk2,454b532d-4d6b-4322-9e6b-696361645f70,2.1*%
%TF.SameCoordinates,Original*%
%TF.FileFunction,Copper,L1,Top*%
%TF.FilePolarity,Positive*%
%FSLAX46Y46*%
G04 Gerber Fmt 4.6, Leading zero omitted, Abs format (unit mm)*
G04 Created by KiCad (PCBNEW 5.1.9) date 2021-05-19 15:57:03*
%MOMM*%
%LPD*%
G01*
G04 APERTURE LIST*
%TA.AperFunction,ComponentPad*%
%ADD10O,1.700000X2.700000*%
%TD*%
%TA.AperFunction,ComponentPad*%
%ADD11R,1.905000X1.905000*%
%TD*%
%TA.AperFunction,ComponentPad*%
%ADD12C,1.905000*%
%TD*%
%TA.AperFunction,ComponentPad*%
%ADD13C,2.250000*%
%TD*%
%TA.AperFunction,ViaPad*%
%ADD14C,0.800000*%
%TD*%
%TA.AperFunction,Conductor*%
%ADD15C,0.381000*%
%TD*%
%TA.AperFunction,Conductor*%
%ADD16C,0.250000*%
%TD*%
G04 APERTURE END LIST*
D10*
%TO.P,USB1,6*%
%TO.N,GND*%
X172562500Y32385000D03*
X179862500Y32385000D03*
X179862500Y27885000D03*
X172562500Y27885000D03*
%TD*%
D11*
%TO.P,MX4,4*%
%TO.N,CAPSGND*%
X12223750Y-55880000D03*
D12*
%TO.P,MX4,3*%
%TO.N,CAPSLED*%
X12223750Y-58420000D03*
D13*
%TO.P,MX4,1*%
%TO.N,COL0*%
X4603750Y-60960000D03*
%TO.P,MX4,2*%
%TO.N,Net-(D4-Pad2)*%
X2063750Y-54610000D03*
%TD*%
%TO.P,R6,2*%
%TO.N,GND*%
%TA.AperFunction,SMDPad,CuDef*%
G36*
G01*
X312127621Y-8278722D02*
X311491222Y-8915121D01*
G75*
G02*
X311137672Y-8915121I-176775J176775D01*
G01*
X310766439Y-8543888D01*
G75*
G02*
X310766439Y-8190338I176775J176775D01*
G01*
X311402838Y-7553939D01*
G75*
G02*
X311756388Y-7553939I176775J-176775D01*
G01*
X312127621Y-7925172D01*
G75*
G02*
X312127621Y-8278722I-176775J-176775D01*
G01*
G37*
%TD.AperFunction*%
%TO.P,R6,1*%
%TO.N,NUMGND*%
%TA.AperFunction,SMDPad,CuDef*%
G36*
G01*
X313418091Y-9569192D02*
X312781692Y-10205591D01*
G75*
G02*
X312428142Y-10205591I-176775J176775D01*
G01*
X312056909Y-9834358D01*
G75*
G02*
X312056909Y-9480808I176775J176775D01*
G01*
X312693308Y-8844409D01*
G75*
G02*
X313046858Y-8844409I176775J-176775D01*
G01*
X313418091Y-9215642D01*
G75*
G02*
X313418091Y-9569192I-176775J-176775D01*
G01*
G37*
%TD.AperFunction*%
%TD*%
%TO.P,MX90,2*%
%TO.N,Net-(D90-Pad2)*%
X345440000Y-90170000D03*
%TO.P,MX90,1*%
%TO.N,COL18*%
X339090000Y-92710000D03*
%TD*%
%TO.P,MX89,2*%
%TO.N,Net-(D89-Pad2)*%
X354965000Y-71120000D03*
%TO.P,MX89,1*%
%TO.N,COL18*%
X348615000Y-73660000D03*
%TD*%
%TO.P,MX88,2*%
%TO.N,Net-(D88-Pad2)*%
X354965000Y-52070000D03*
%TO.P,MX88,1*%
%TO.N,COL18*%
X348615000Y-54610000D03*
%TD*%
%TO.P,MX87,2*%
%TO.N,Net-(D87-Pad2)*%
X354965000Y-33020000D03*
%TO.P,MX87,1*%
%TO.N,COL18*%
X348615000Y-35560000D03*
%TD*%
%TO.P,MX86,2*%
%TO.N,Net-(D86-Pad2)*%
X354965000Y-13970000D03*
%TO.P,MX86,1*%
%TO.N,COL18*%
X348615000Y-16510000D03*
%TD*%
%TO.P,MX85,2*%
%TO.N,Net-(D85-Pad2)*%
X335915000Y-52070000D03*
%TO.P,MX85,1*%
%TO.N,COL17*%
X329565000Y-54610000D03*
%TD*%
%TO.P,MX84,2*%
%TO.N,Net-(D84-Pad2)*%
X335915000Y-33020000D03*
%TO.P,MX84,1*%
%TO.N,COL17*%
X329565000Y-35560000D03*
%TD*%
%TO.P,MX83,2*%
%TO.N,Net-(D83-Pad2)*%
X335915000Y-13970000D03*
%TO.P,MX83,1*%
%TO.N,COL17*%
X329565000Y-16510000D03*
%TD*%
%TO.P,MX82,2*%
%TO.N,Net-(D82-Pad2)*%
X316865000Y-90170000D03*
%TO.P,MX82,1*%
%TO.N,COL16*%
X310515000Y-92710000D03*
%TD*%
%TO.P,MX81,2*%
%TO.N,Net-(D81-Pad2)*%
X326390000Y-71120000D03*
%TO.P,MX81,1*%
%TO.N,COL16*%
X320040000Y-73660000D03*
%TD*%
%TO.P,MX80,2*%
%TO.N,Net-(D80-Pad2)*%
X316865000Y-52070000D03*
%TO.P,MX80,1*%
%TO.N,COL16*%
X310515000Y-54610000D03*
%TD*%
%TO.P,MX79,2*%
%TO.N,Net-(D79-Pad2)*%
X316865000Y-33020000D03*
%TO.P,MX79,1*%
%TO.N,COL16*%
X310515000Y-35560000D03*
%TD*%
D11*
%TO.P,MX78,4*%
%TO.N,NUMGND*%
X319405000Y-17780000D03*
D12*
%TO.P,MX78,3*%
%TO.N,NUMLED*%
X319405000Y-20320000D03*
D13*
%TO.P,MX78,1*%
%TO.N,COL16*%
X311785000Y-22860000D03*
%TO.P,MX78,2*%
%TO.N,Net-(D78-Pad2)*%
X309245000Y-16510000D03*
%TD*%
%TO.P,MX77,2*%
%TO.N,Net-(D77-Pad2)*%
X278765000Y-90170000D03*
%TO.P,MX77,1*%
%TO.N,COL15*%
X272415000Y-92710000D03*
%TD*%
%TO.P,MX76,2*%
%TO.N,Net-(D76-Pad2)*%
X288290000Y-71120000D03*
%TO.P,MX76,1*%
%TO.N,COL15*%
X281940000Y-73660000D03*
%TD*%
%TO.P,MX75,2*%
%TO.N,Net-(D75-Pad2)*%
X269240000Y-71120000D03*
%TO.P,MX75,1*%
%TO.N,COL15*%
X262890000Y-73660000D03*
%TD*%
%TO.P,MX74,2*%
%TO.N,Net-(D74-Pad2)*%
X278765000Y-52070000D03*
%TO.P,MX74,1*%
%TO.N,COL15*%
X272415000Y-54610000D03*
%TD*%
%TO.P,MX73,2*%
%TO.N,Net-(D73-Pad2)*%
X278765000Y-33020000D03*
%TO.P,MX73,1*%
%TO.N,COL15*%
X272415000Y-35560000D03*
%TD*%
%TO.P,MX72,2*%
%TO.N,Net-(D72-Pad2)*%
X233521250Y-90170000D03*
%TO.P,MX72,1*%
%TO.N,COL14*%
X227171250Y-92710000D03*
%TD*%
%TO.P,MX71,2*%
%TO.N,Net-(D71-Pad2)*%
X243046250Y-71120000D03*
%TO.P,MX71,1*%
%TO.N,COL14*%
X236696250Y-73660000D03*
%TD*%
%TO.P,MX70,1*%
%TO.N,COL14*%
X253365000Y-45085000D03*
%TO.P,MX70,2*%
%TO.N,Net-(D70-Pad2)*%
X259715000Y-42545000D03*
%TD*%
%TO.P,MX69,2*%
%TO.N,Net-(D69-Pad2)*%
X274002500Y-13970000D03*
%TO.P,MX69,1*%
%TO.N,COL14*%
X267652500Y-16510000D03*
%TD*%
%TO.P,MX68,2*%
%TO.N,Net-(D68-Pad2)*%
X278765000Y5080000D03*
%TO.P,MX68,1*%
%TO.N,COL14*%
X272415000Y2540000D03*
%TD*%
%TO.P,MX67,2*%
%TO.N,Net-(D67-Pad2)*%
X209708750Y-90170000D03*
%TO.P,MX67,1*%
%TO.N,COL13*%
X203358750Y-92710000D03*
%TD*%
%TO.P,MX66,2*%
%TO.N,Net-(D66-Pad2)*%
X216852500Y-71120000D03*
%TO.P,MX66,1*%
%TO.N,COL13*%
X210502500Y-73660000D03*
%TD*%
%TO.P,MX65,2*%
%TO.N,Net-(D65-Pad2)*%
X226377500Y-52070000D03*
%TO.P,MX65,1*%
%TO.N,COL13*%
X220027500Y-54610000D03*
%TD*%
%TO.P,MX64,2*%
%TO.N,Net-(D64-Pad2)*%
X240665000Y-33020000D03*
%TO.P,MX64,1*%
%TO.N,COL13*%
X234315000Y-35560000D03*
%TD*%
%TO.P,MX63,2*%
%TO.N,Net-(D63-Pad2)*%
X250190000Y-13970000D03*
%TO.P,MX63,1*%
%TO.N,COL13*%
X243840000Y-16510000D03*
%TD*%
%TO.P,MX62,2*%
%TO.N,Net-(D62-Pad2)*%
X250190000Y5080000D03*
%TO.P,MX62,1*%
%TO.N,COL13*%
X243840000Y2540000D03*
%TD*%
%TO.P,MX61,2*%
%TO.N,Net-(D61-Pad2)*%
X197802500Y-71120000D03*
%TO.P,MX61,1*%
%TO.N,COL12*%
X191452500Y-73660000D03*
%TD*%
%TO.P,MX60,2*%
%TO.N,Net-(D60-Pad2)*%
X207327500Y-52070000D03*
%TO.P,MX60,1*%
%TO.N,COL12*%
X200977500Y-54610000D03*
%TD*%
%TO.P,MX59,2*%
%TO.N,Net-(D59-Pad2)*%
X221615000Y-33020000D03*
%TO.P,MX59,1*%
%TO.N,COL12*%
X215265000Y-35560000D03*
%TD*%
%TO.P,MX58,2*%
%TO.N,Net-(D58-Pad2)*%
X231140000Y-13970000D03*
%TO.P,MX58,1*%
%TO.N,COL12*%
X224790000Y-16510000D03*
%TD*%
%TO.P,MX57,2*%
%TO.N,Net-(D57-Pad2)*%
X231140000Y5080000D03*
%TO.P,MX57,1*%
%TO.N,COL12*%
X224790000Y2540000D03*
%TD*%
%TO.P,MX56,2*%
%TO.N,Net-(D56-Pad2)*%
X178752500Y-71120000D03*
%TO.P,MX56,1*%
%TO.N,COL11*%
X172402500Y-73660000D03*
%TD*%
%TO.P,MX55,2*%
%TO.N,Net-(D55-Pad2)*%
X188277500Y-52070000D03*
%TO.P,MX55,1*%
%TO.N,COL11*%
X181927500Y-54610000D03*
%TD*%
%TO.P,MX54,2*%
%TO.N,Net-(D54-Pad2)*%
X202565000Y-33020000D03*
%TO.P,MX54,1*%
%TO.N,COL11*%
X196215000Y-35560000D03*
%TD*%
%TO.P,MX53,2*%
%TO.N,Net-(D53-Pad2)*%
X212090000Y-13970000D03*
%TO.P,MX53,1*%
%TO.N,COL11*%
X205740000Y-16510000D03*
%TD*%
%TO.P,MX52,2*%
%TO.N,Net-(D52-Pad2)*%
X212090000Y5080000D03*
%TO.P,MX52,1*%
%TO.N,COL11*%
X205740000Y2540000D03*
%TD*%
%TO.P,MX51,2*%
%TO.N,Net-(D51-Pad2)*%
X159702500Y-71120000D03*
%TO.P,MX51,1*%
%TO.N,COL10*%
X153352500Y-73660000D03*
%TD*%
%TO.P,MX50,2*%
%TO.N,Net-(D50-Pad2)*%
X169227500Y-52070000D03*
%TO.P,MX50,1*%
%TO.N,COL10*%
X162877500Y-54610000D03*
%TD*%
%TO.P,MX49,2*%
%TO.N,Net-(D49-Pad2)*%
X183515000Y-33020000D03*
%TO.P,MX49,1*%
%TO.N,COL10*%
X177165000Y-35560000D03*
%TD*%
%TO.P,MX48,2*%
%TO.N,Net-(D48-Pad2)*%
X193040000Y-13970000D03*
%TO.P,MX48,1*%
%TO.N,COL10*%
X186690000Y-16510000D03*
%TD*%
%TO.P,MX47,2*%
%TO.N,Net-(D47-Pad2)*%
X193040000Y5080000D03*
%TO.P,MX47,1*%
%TO.N,COL10*%
X186690000Y2540000D03*
%TD*%
%TO.P,MX46,2*%
%TO.N,Net-(D46-Pad2)*%
X164465000Y-33020000D03*
%TO.P,MX46,1*%
%TO.N,COL9*%
X158115000Y-35560000D03*
%TD*%
%TO.P,MX45,2*%
%TO.N,Net-(D45-Pad2)*%
X173990000Y-13970000D03*
%TO.P,MX45,1*%
%TO.N,COL9*%
X167640000Y-16510000D03*
%TD*%
%TO.P,MX44,2*%
%TO.N,Net-(D44-Pad2)*%
X173990000Y5080000D03*
%TO.P,MX44,1*%
%TO.N,COL9*%
X167640000Y2540000D03*
%TD*%
%TO.P,MX43,2*%
%TO.N,Net-(D43-Pad2)*%
X154940000Y-13970000D03*
%TO.P,MX43,1*%
%TO.N,COL8*%
X148590000Y-16510000D03*
%TD*%
%TO.P,MX42,2*%
%TO.N,Net-(D42-Pad2)*%
X154940000Y5080000D03*
%TO.P,MX42,1*%
%TO.N,COL8*%
X148590000Y2540000D03*
%TD*%
%TO.P,MX41,2*%
%TO.N,Net-(D41-Pad2)*%
X150177500Y-52070000D03*
%TO.P,MX41,1*%
%TO.N,COL7*%
X143827500Y-54610000D03*
%TD*%
%TO.P,MX40,2*%
%TO.N,Net-(D40-Pad2)*%
X145415000Y-33020000D03*
%TO.P,MX40,1*%
%TO.N,COL7*%
X139065000Y-35560000D03*
%TD*%
%TO.P,MX39,2*%
%TO.N,Net-(D39-Pad2)*%
X135890000Y-13970000D03*
%TO.P,MX39,1*%
%TO.N,COL7*%
X129540000Y-16510000D03*
%TD*%
%TO.P,MX38,2*%
%TO.N,Net-(D38-Pad2)*%
X126365000Y5080000D03*
%TO.P,MX38,1*%
%TO.N,COL7*%
X120015000Y2540000D03*
%TD*%
%TO.P,MX37,2*%
%TO.N,Net-(D37-Pad2)*%
X140652500Y-71120000D03*
%TO.P,MX37,1*%
%TO.N,COL6*%
X134302500Y-73660000D03*
%TD*%
%TO.P,MX36,2*%
%TO.N,Net-(D36-Pad2)*%
X131127500Y-52070000D03*
%TO.P,MX36,1*%
%TO.N,COL6*%
X124777500Y-54610000D03*
%TD*%
%TO.P,MX35,2*%
%TO.N,Net-(D35-Pad2)*%
X126365000Y-33020000D03*
%TO.P,MX35,1*%
%TO.N,COL6*%
X120015000Y-35560000D03*
%TD*%
%TO.P,MX34,2*%
%TO.N,Net-(D34-Pad2)*%
X116840000Y-13970000D03*
%TO.P,MX34,1*%
%TO.N,COL6*%
X110490000Y-16510000D03*
%TD*%
%TO.P,MX33,2*%
%TO.N,Net-(D33-Pad2)*%
X107315000Y5080000D03*
%TO.P,MX33,1*%
%TO.N,COL6*%
X100965000Y2540000D03*
%TD*%
%TO.P,MX32,2*%
%TO.N,Net-(D32-Pad2)*%
X131127500Y-90170000D03*
%TO.P,MX32,1*%
%TO.N,COL5*%
X124777500Y-92710000D03*
%TD*%
%TO.P,MX31,2*%
%TO.N,Net-(D31-Pad2)*%
X121602500Y-71120000D03*
%TO.P,MX31,1*%
%TO.N,COL5*%
X115252500Y-73660000D03*
%TD*%
%TO.P,MX30,2*%
%TO.N,Net-(D30-Pad2)*%
X112077500Y-52070000D03*
%TO.P,MX30,1*%
%TO.N,COL5*%
X105727500Y-54610000D03*
%TD*%
%TO.P,MX29,2*%
%TO.N,Net-(D29-Pad2)*%
X107315000Y-33020000D03*
%TO.P,MX29,1*%
%TO.N,COL5*%
X100965000Y-35560000D03*
%TD*%
%TO.P,MX28,2*%
%TO.N,Net-(D28-Pad2)*%
X97790000Y-13970000D03*
%TO.P,MX28,1*%
%TO.N,COL5*%
X91440000Y-16510000D03*
%TD*%
%TO.P,MX27,2*%
%TO.N,Net-(D27-Pad2)*%
X88265000Y5080000D03*
%TO.P,MX27,1*%
%TO.N,COL5*%
X81915000Y2540000D03*
%TD*%
%TO.P,MX26,2*%
%TO.N,Net-(D26-Pad2)*%
X102552500Y-71120000D03*
%TO.P,MX26,1*%
%TO.N,COL4*%
X96202500Y-73660000D03*
%TD*%
%TO.P,MX25,2*%
%TO.N,Net-(D25-Pad2)*%
X93027500Y-52070000D03*
%TO.P,MX25,1*%
%TO.N,COL4*%
X86677500Y-54610000D03*
%TD*%
%TO.P,MX24,2*%
%TO.N,Net-(D24-Pad2)*%
X88265000Y-33020000D03*
%TO.P,MX24,1*%
%TO.N,COL4*%
X81915000Y-35560000D03*
%TD*%
%TO.P,MX23,2*%
%TO.N,Net-(D23-Pad2)*%
X78740000Y-13970000D03*
%TO.P,MX23,1*%
%TO.N,COL4*%
X72390000Y-16510000D03*
%TD*%
%TO.P,MX22,2*%
%TO.N,Net-(D22-Pad2)*%
X69215000Y5080000D03*
%TO.P,MX22,1*%
%TO.N,COL4*%
X62865000Y2540000D03*
%TD*%
%TO.P,MX21,2*%
%TO.N,Net-(D21-Pad2)*%
X83502500Y-71120000D03*
%TO.P,MX21,1*%
%TO.N,COL3*%
X77152500Y-73660000D03*
%TD*%
%TO.P,MX20,2*%
%TO.N,Net-(D20-Pad2)*%
X73977500Y-52070000D03*
%TO.P,MX20,1*%
%TO.N,COL3*%
X67627500Y-54610000D03*
%TD*%
%TO.P,MX19,2*%
%TO.N,Net-(D19-Pad2)*%
X69215000Y-33020000D03*
%TO.P,MX19,1*%
%TO.N,COL3*%
X62865000Y-35560000D03*
%TD*%
%TO.P,MX18,2*%
%TO.N,Net-(D18-Pad2)*%
X59690000Y-13970000D03*
%TO.P,MX18,1*%
%TO.N,COL3*%
X53340000Y-16510000D03*
%TD*%
%TO.P,MX17,2*%
%TO.N,Net-(D17-Pad2)*%
X50165000Y5080000D03*
%TO.P,MX17,1*%
%TO.N,COL3*%
X43815000Y2540000D03*
%TD*%
%TO.P,MX16,2*%
%TO.N,Net-(D16-Pad2)*%
X64452500Y-71120000D03*
%TO.P,MX16,1*%
%TO.N,COL2*%
X58102500Y-73660000D03*
%TD*%
%TO.P,MX15,2*%
%TO.N,Net-(D15-Pad2)*%
X54927500Y-52070000D03*
%TO.P,MX15,1*%
%TO.N,COL2*%
X48577500Y-54610000D03*
%TD*%
%TO.P,MX14,2*%
%TO.N,Net-(D14-Pad2)*%
X50165000Y-33020000D03*
%TO.P,MX14,1*%
%TO.N,COL2*%
X43815000Y-35560000D03*
%TD*%
%TO.P,MX13,2*%
%TO.N,Net-(D13-Pad2)*%
X40640000Y-13970000D03*
%TO.P,MX13,1*%
%TO.N,COL2*%
X34290000Y-16510000D03*
%TD*%
%TO.P,MX12,2*%
%TO.N,Net-(D12-Pad2)*%
X31115000Y5080000D03*
%TO.P,MX12,1*%
%TO.N,COL2*%
X24765000Y2540000D03*
%TD*%
%TO.P,MX11,2*%
%TO.N,Net-(D11-Pad2)*%
X52546250Y-90170000D03*
%TO.P,MX11,1*%
%TO.N,COL1*%
X46196250Y-92710000D03*
%TD*%
%TO.P,MX10,2*%
%TO.N,Net-(D10-Pad2)*%
X45402500Y-71120000D03*
%TO.P,MX10,1*%
%TO.N,COL1*%
X39052500Y-73660000D03*
%TD*%
%TO.P,MX9,2*%
%TO.N,Net-(D9-Pad2)*%
X35877500Y-52070000D03*
%TO.P,MX9,1*%
%TO.N,COL1*%
X29527500Y-54610000D03*
%TD*%
%TO.P,MX8,2*%
%TO.N,Net-(D8-Pad2)*%
X31115000Y-33020000D03*
%TO.P,MX8,1*%
%TO.N,COL1*%
X24765000Y-35560000D03*
%TD*%
%TO.P,MX7,2*%
%TO.N,Net-(D7-Pad2)*%
X21590000Y-13970000D03*
%TO.P,MX7,1*%
%TO.N,COL1*%
X15240000Y-16510000D03*
%TD*%
%TO.P,MX6,2*%
%TO.N,Net-(D6-Pad2)*%
X28733750Y-90170000D03*
%TO.P,MX6,1*%
%TO.N,COL0*%
X22383750Y-92710000D03*
%TD*%
%TO.P,MX5,2*%
%TO.N,Net-(D5-Pad2)*%
X14446250Y-71120000D03*
%TO.P,MX5,1*%
%TO.N,COL0*%
X8096250Y-73660000D03*
%TD*%
%TO.P,MX3,2*%
%TO.N,Net-(D3-Pad2)*%
X7302500Y-33020000D03*
%TO.P,MX3,1*%
%TO.N,COL0*%
X952500Y-35560000D03*
%TD*%
%TO.P,MX2,2*%
%TO.N,Net-(D2-Pad2)*%
X2540000Y-13970000D03*
%TO.P,MX2,1*%
%TO.N,COL0*%
X-3810000Y-16510000D03*
%TD*%
%TO.P,MX1,2*%
%TO.N,Net-(D1-Pad2)*%
X2540000Y5080000D03*
%TO.P,MX1,1*%
%TO.N,COL0*%
X-3810000Y2540000D03*
%TD*%
D14*
%TO.N,+5V*%
X323056250Y25400000D03*
X297656250Y11112500D03*
X304006250Y28575000D03*
X315118750Y28575000D03*
X299243750Y23812500D03*
X304006250Y25400000D03*
X315118750Y25400000D03*
%TO.N,ROW2*%
X301625000Y-43656250D03*
X301625000Y-26193750D03*
%TO.N,ROW3*%
X302418750Y-62706250D03*
X302418750Y-25400000D03*
%TO.N,ROW4*%
X303212500Y-79375000D03*
X303212500Y-24606250D03*
%TO.N,ROW5*%
X304006250Y-98425000D03*
X304006250Y-23812500D03*
%TO.N,COL1*%
X15081250Y2381250D03*
%TO.N,COL15*%
X282575000Y6350000D03*
%TO.N,Net-(R4-Pad1)*%
X304800000Y4762500D03*
X308768750Y4762500D03*
%TO.N,GND*%
X280987500Y22225000D03*
%TD*%
D15*
%TO.N,+5V*%
X297656250Y11112500D02*
X297656250Y11112500D01*
X323056250Y25400000D02*
X300831250Y25400000D01*
X296862500Y21431250D02*
X299243750Y23812500D01*
X296862500Y11906250D02*
X296862500Y21431250D01*
X297656250Y11112500D02*
X296862500Y11906250D01*
X299243750Y23812500D02*
X300831250Y25400000D01*
X315118750Y28575000D02*
X304006250Y28575000D01*
D16*
%TO.N,ROW2*%
X301625000Y-43656250D02*
X301625000Y-26193750D01*
%TO.N,ROW3*%
X302418750Y-62706250D02*
X302418750Y-25400000D01*
%TO.N,ROW4*%
X303212500Y-79375000D02*
X303212500Y-24606250D01*
%TO.N,ROW5*%
X304006250Y-98425000D02*
X304006250Y-23812500D01*
%TO.N,COL0*%
X-3810000Y2540000D02*
X-3810000Y-16510000D01*
X-3810000Y-30797500D02*
X952500Y-35560000D01*
X-3810000Y-16510000D02*
X-3810000Y-30797500D01*
X8096250Y-73660000D02*
X8096250Y-78740000D01*
X22066250Y-92710000D02*
X22383750Y-92710000D01*
X8096250Y-78740000D02*
X22066250Y-92710000D01*
X8096250Y-73660000D02*
X4762500Y-70326250D01*
X4762500Y-61118750D02*
X4603750Y-60960000D01*
X4762500Y-70326250D02*
X4762500Y-61118750D01*
X4603750Y-60960000D02*
X4603750Y-60166250D01*
X4603750Y-60166250D02*
X3968750Y-59531250D01*
X3968750Y-59531250D02*
X3968750Y-53181250D01*
X3968750Y-53181250D02*
X952500Y-50165000D01*
X952500Y-35560000D02*
X952500Y-50165000D01*
%TO.N,COL1*%
X15240000Y-26035000D02*
X24765000Y-35560000D01*
X15240000Y-16510000D02*
X15240000Y-26035000D01*
X24765000Y-49847500D02*
X29527500Y-54610000D01*
X24765000Y-35560000D02*
X24765000Y-49847500D01*
X29527500Y-64135000D02*
X39052500Y-73660000D01*
X29527500Y-54610000D02*
X29527500Y-64135000D01*
X39052500Y-85566250D02*
X46196250Y-92710000D01*
X39052500Y-73660000D02*
X39052500Y-85566250D01*
X15240000Y-16510000D02*
X15240000Y-15240000D01*
X15240000Y-15240000D02*
X15081250Y-15081250D01*
X15081250Y-15081250D02*
X15081250Y2381250D01*
%TO.N,COL2*%
X24765000Y-6985000D02*
X34290000Y-16510000D01*
X24765000Y2540000D02*
X24765000Y-6985000D01*
X34290000Y-26035000D02*
X43815000Y-35560000D01*
X34290000Y-16510000D02*
X34290000Y-26035000D01*
X43815000Y-49847500D02*
X48577500Y-54610000D01*
X43815000Y-35560000D02*
X43815000Y-49847500D01*
X48577500Y-64135000D02*
X58102500Y-73660000D01*
X48577500Y-54610000D02*
X48577500Y-64135000D01*
%TO.N,COL3*%
X43815000Y-6985000D02*
X53340000Y-16510000D01*
X43815000Y2540000D02*
X43815000Y-6985000D01*
X53340000Y-26035000D02*
X62865000Y-35560000D01*
X53340000Y-16510000D02*
X53340000Y-26035000D01*
X62865000Y-49847500D02*
X67627500Y-54610000D01*
X62865000Y-35560000D02*
X62865000Y-49847500D01*
X67627500Y-64135000D02*
X77152500Y-73660000D01*
X67627500Y-54610000D02*
X67627500Y-64135000D01*
%TO.N,COL4*%
X62865000Y-6985000D02*
X72390000Y-16510000D01*
X62865000Y2540000D02*
X62865000Y-6985000D01*
X72390000Y-26035000D02*
X81915000Y-35560000D01*
X72390000Y-16510000D02*
X72390000Y-26035000D01*
X81915000Y-49847500D02*
X86677500Y-54610000D01*
X81915000Y-35560000D02*
X81915000Y-49847500D01*
X86677500Y-64135000D02*
X96202500Y-73660000D01*
X86677500Y-54610000D02*
X86677500Y-64135000D01*
%TO.N,COL5*%
X81915000Y-6985000D02*
X91440000Y-16510000D01*
X81915000Y2540000D02*
X81915000Y-6985000D01*
X91440000Y-26035000D02*
X100965000Y-35560000D01*
X91440000Y-16510000D02*
X91440000Y-26035000D01*
X100965000Y-49847500D02*
X105727500Y-54610000D01*
X100965000Y-35560000D02*
X100965000Y-49847500D01*
X105727500Y-64135000D02*
X115252500Y-73660000D01*
X105727500Y-54610000D02*
X105727500Y-64135000D01*
X115252500Y-83185000D02*
X124777500Y-92710000D01*
X115252500Y-73660000D02*
X115252500Y-83185000D01*
%TO.N,COL6*%
X100965000Y-6985000D02*
X110490000Y-16510000D01*
X100965000Y2540000D02*
X100965000Y-6985000D01*
X110490000Y-26035000D02*
X120015000Y-35560000D01*
X110490000Y-16510000D02*
X110490000Y-26035000D01*
X120015000Y-49847500D02*
X124777500Y-54610000D01*
X120015000Y-35560000D02*
X120015000Y-49847500D01*
X124777500Y-64135000D02*
X134302500Y-73660000D01*
X124777500Y-54610000D02*
X124777500Y-64135000D01*
%TO.N,COL7*%
X120015000Y-6985000D02*
X129540000Y-16510000D01*
X120015000Y2540000D02*
X120015000Y-6985000D01*
X129540000Y-26035000D02*
X139065000Y-35560000D01*
X129540000Y-16510000D02*
X129540000Y-26035000D01*
X139065000Y-49847500D02*
X143827500Y-54610000D01*
X139065000Y-35560000D02*
X139065000Y-49847500D01*
%TO.N,COL8*%
X148590000Y2540000D02*
X148590000Y-16510000D01*
%TO.N,COL9*%
X167640000Y2540000D02*
X167640000Y-16510000D01*
X167570001Y-26104999D02*
X167570001Y-16579999D01*
X167570001Y-16579999D02*
X167640000Y-16510000D01*
X158115000Y-35560000D02*
X167570001Y-26104999D01*
%TO.N,COL10*%
X186690000Y2540000D02*
X186690000Y-16510000D01*
X186690000Y-26035000D02*
X177165000Y-35560000D01*
X186690000Y-16510000D02*
X186690000Y-26035000D01*
X162877500Y-64135000D02*
X153352500Y-73660000D01*
X162877500Y-54610000D02*
X162877500Y-64135000D01*
X177165000Y-35560000D02*
X177165000Y-40322500D01*
X177165000Y-40322500D02*
X162877500Y-54610000D01*
%TO.N,COL11*%
X205740000Y2540000D02*
X205740000Y-16510000D01*
X205740000Y-26035000D02*
X196215000Y-35560000D01*
X205740000Y-16510000D02*
X205740000Y-26035000D01*
X196215000Y-40322500D02*
X181927500Y-54610000D01*
X196215000Y-35560000D02*
X196215000Y-40322500D01*
X181927500Y-64135000D02*
X172402500Y-73660000D01*
X181927500Y-54610000D02*
X181927500Y-64135000D01*
%TO.N,COL12*%
X224790000Y2540000D02*
X224790000Y-16510000D01*
X224790000Y-26035000D02*
X215265000Y-35560000D01*
X224790000Y-16510000D02*
X224790000Y-26035000D01*
X215265000Y-35560000D02*
X215265000Y-40322500D01*
X200907501Y-54679999D02*
X200977500Y-54610000D01*
X215265000Y-40322500D02*
X200907501Y-54679999D01*
X200977500Y-64135000D02*
X191452500Y-73660000D01*
X200977500Y-54610000D02*
X200977500Y-64135000D01*
%TO.N,COL13*%
X243840000Y2540000D02*
X243840000Y-16510000D01*
X243840000Y-26035000D02*
X234315000Y-35560000D01*
X243840000Y-16510000D02*
X243840000Y-26035000D01*
X234315000Y-35560000D02*
X234315000Y-40322500D01*
X234315000Y-40322500D02*
X220027500Y-54610000D01*
X220027500Y-64135000D02*
X210502500Y-73660000D01*
X220027500Y-54610000D02*
X220027500Y-64135000D01*
X210502500Y-85566250D02*
X203358750Y-92710000D01*
X210502500Y-73660000D02*
X210502500Y-85566250D01*
%TO.N,COL14*%
X272415000Y-11747500D02*
X267652500Y-16510000D01*
X272415000Y2540000D02*
X272415000Y-11747500D01*
X267652500Y-16510000D02*
X267652500Y-28416250D01*
X253365000Y-42703750D02*
X253365000Y-45085000D01*
X267652500Y-28416250D02*
X253365000Y-42703750D01*
X253365000Y-45085000D02*
X253365000Y-49053750D01*
X236696250Y-65722500D02*
X236696250Y-73660000D01*
X253365000Y-49053750D02*
X236696250Y-65722500D01*
X236696250Y-83185000D02*
X227171250Y-92710000D01*
X236696250Y-73660000D02*
X236696250Y-83185000D01*
%TO.N,COL15*%
X272415000Y-35560000D02*
X272415000Y-54610000D01*
X272415000Y-64135000D02*
X262890000Y-73660000D01*
X272415000Y-54610000D02*
X272415000Y-64135000D01*
X281940000Y-83185000D02*
X272415000Y-92710000D01*
X281940000Y-73660000D02*
X281940000Y-83185000D01*
X281940000Y-72390000D02*
X281940000Y-73660000D01*
X280987500Y-71437500D02*
X281940000Y-72390000D01*
X278606250Y-71437500D02*
X280987500Y-71437500D01*
X269081250Y-80962500D02*
X278606250Y-71437500D01*
X265112500Y-80962500D02*
X269081250Y-80962500D01*
X262890000Y-78740000D02*
X265112500Y-80962500D01*
X262890000Y-73660000D02*
X262890000Y-78740000D01*
X274637500Y-33337500D02*
X272415000Y-35560000D01*
X274637500Y-16668750D02*
X274637500Y-33337500D01*
X279400000Y-11906250D02*
X274637500Y-16668750D01*
X279400000Y3175000D02*
X279400000Y-11906250D01*
X282575000Y6350000D02*
X282575000Y6350000D01*
X282575000Y6350000D02*
X279400000Y3175000D01*
D15*
%TO.N,NUMGND*%
X319405000Y-16192500D02*
X319405000Y-17780000D01*
X312737500Y-9525000D02*
X319405000Y-16192500D01*
D16*
%TO.N,COL16*%
X310515000Y-64135000D02*
X320040000Y-73660000D01*
X310515000Y-54610000D02*
X310515000Y-64135000D01*
X320040000Y-83185000D02*
X310515000Y-92710000D01*
X320040000Y-73660000D02*
X320040000Y-83185000D01*
X310515000Y-38258750D02*
X310515000Y-35560000D01*
X310515000Y-54610000D02*
X310515000Y-38258750D01*
X311785000Y-34290000D02*
X310515000Y-35560000D01*
X311785000Y-22860000D02*
X311785000Y-34290000D01*
%TO.N,COL17*%
X329565000Y-19208750D02*
X329565000Y-16510000D01*
X329565000Y-19556002D02*
X329565000Y-19685000D01*
X329565000Y-19685000D02*
X329565000Y-19208750D01*
X329565000Y-19685000D02*
X329565000Y-54610000D01*
%TO.N,COL18*%
X348615000Y-57656002D02*
X348615000Y-73660000D01*
X348615000Y-16510000D02*
X348615000Y-57656002D01*
X348615000Y-83185000D02*
X339090000Y-92710000D01*
X348615000Y-73660000D02*
X348615000Y-83185000D01*
%TO.N,Net-(R4-Pad1)*%
X308768750Y4762500D02*
X304800000Y4762500D01*
D15*
%TO.N,GND*%
X311447030Y-8234530D02*
X280987500Y22225000D01*
%TD*%
M02*
