%TF.GenerationSoftware,KiCad,Pcbnew,5.1.9*%
%TF.CreationDate,2021-05-19T15:57:03-04:00*%
%TF.ProjectId,EKS-Mk2,454b532d-4d6b-4322-9e6b-696361645f70,2.1*%
%TF.SameCoordinates,Original*%
%TF.FileFunction,Legend,Bot*%
%TF.FilePolarity,Positive*%
%FSLAX46Y46*%
G04 Gerber Fmt 4.6, Leading zero omitted, Abs format (unit mm)*
G04 Created by KiCad (PCBNEW 5.1.9) date 2021-05-19 15:57:03*
%MOMM*%
%LPD*%
G01*
G04 APERTURE LIST*
%ADD10C,0.150000*%
%ADD11C,0.120000*%
%ADD12C,3.200000*%
%ADD13O,1.700000X2.700000*%
%ADD14R,0.500000X2.250000*%
%ADD15C,1.750000*%
%ADD16R,1.905000X1.905000*%
%ADD17C,1.905000*%
%ADD18C,2.250000*%
%ADD19C,3.987800*%
%ADD20R,1.200000X1.400000*%
%ADD21R,1.500000X0.550000*%
%ADD22R,0.550000X1.500000*%
%ADD23R,1.800000X1.100000*%
%ADD24C,3.048000*%
%ADD25R,1.200000X0.900000*%
%ADD26C,0.020000*%
%ADD27R,0.900000X1.200000*%
G04 APERTURE END LIST*
D10*
%TO.C,USB1*%
X172362500Y32385000D02*
X172362500Y26935000D01*
X180062500Y32385000D02*
X180062500Y26935000D01*
X172362500Y26935000D02*
X180062500Y26935000D01*
D11*
%TO.C,Y1*%
X324295500Y14510000D02*
X324295500Y18510000D01*
X327595500Y14510000D02*
X324295500Y14510000D01*
D10*
%TO.C,U1*%
X305058000Y22605500D02*
X305058000Y23880500D01*
X304483000Y8255500D02*
X304483000Y8930500D01*
X318833000Y8255500D02*
X318833000Y8930500D01*
X318833000Y22605500D02*
X318833000Y21930500D01*
X304483000Y22605500D02*
X304483000Y21930500D01*
X318833000Y22605500D02*
X318158000Y22605500D01*
X318833000Y8255500D02*
X318158000Y8255500D01*
X304483000Y8255500D02*
X305158000Y8255500D01*
X304483000Y22605500D02*
X305058000Y22605500D01*
%TO.C,SW1*%
X340801000Y18729000D02*
X335601000Y18729000D01*
X335601000Y18729000D02*
X335601000Y13529000D01*
X335601000Y13529000D02*
X340801000Y13529000D01*
X340801000Y13529000D02*
X340801000Y18729000D01*
X339201000Y16129000D02*
G75*
G03*
X339201000Y16129000I-1000000J0D01*
G01*
D11*
%TO.C,R5*%
X-2518165Y-60370282D02*
X-2839282Y-60049165D01*
X-1478718Y-59330835D02*
X-1799835Y-59009718D01*
%TO.C,R4*%
X299678335Y5415718D02*
X299357218Y5736835D01*
X300717782Y6455165D02*
X300396665Y6776282D01*
%TO.C,R3*%
X197235814Y19108750D02*
X196781686Y19108750D01*
X197235814Y20578750D02*
X196781686Y20578750D01*
%TO.C,R2*%
X197235814Y21490000D02*
X196781686Y21490000D01*
X197235814Y22960000D02*
X196781686Y22960000D01*
%TO.C,R1*%
X323845186Y27786000D02*
X324299314Y27786000D01*
X323845186Y26316000D02*
X324299314Y26316000D01*
%TO.C,F1*%
X188720814Y17346250D02*
X187516686Y17346250D01*
X188720814Y19166250D02*
X187516686Y19166250D01*
%TO.C,D90*%
X352631250Y-97500000D02*
X352631250Y-93600000D01*
X350631250Y-97500000D02*
X350631250Y-93600000D01*
X352631250Y-97500000D02*
X350631250Y-97500000D01*
%TO.C,D89*%
X362156250Y-78450000D02*
X362156250Y-74550000D01*
X360156250Y-78450000D02*
X360156250Y-74550000D01*
X362156250Y-78450000D02*
X360156250Y-78450000D01*
%TO.C,D88*%
X362156250Y-59400000D02*
X362156250Y-55500000D01*
X360156250Y-59400000D02*
X360156250Y-55500000D01*
X362156250Y-59400000D02*
X360156250Y-59400000D01*
%TO.C,D87*%
X362156250Y-40350000D02*
X362156250Y-36450000D01*
X360156250Y-40350000D02*
X360156250Y-36450000D01*
X362156250Y-40350000D02*
X360156250Y-40350000D01*
%TO.C,D86*%
X362156250Y-21300000D02*
X362156250Y-17400000D01*
X360156250Y-21300000D02*
X360156250Y-17400000D01*
X362156250Y-21300000D02*
X360156250Y-21300000D01*
%TO.C,D85*%
X343106250Y-59400000D02*
X343106250Y-55500000D01*
X341106250Y-59400000D02*
X341106250Y-55500000D01*
X343106250Y-59400000D02*
X341106250Y-59400000D01*
%TO.C,D84*%
X343106250Y-40350000D02*
X343106250Y-36450000D01*
X341106250Y-40350000D02*
X341106250Y-36450000D01*
X343106250Y-40350000D02*
X341106250Y-40350000D01*
%TO.C,D83*%
X343106250Y-21300000D02*
X343106250Y-17400000D01*
X341106250Y-21300000D02*
X341106250Y-17400000D01*
X343106250Y-21300000D02*
X341106250Y-21300000D01*
%TO.C,D82*%
X324056250Y-97500000D02*
X324056250Y-93600000D01*
X322056250Y-97500000D02*
X322056250Y-93600000D01*
X324056250Y-97500000D02*
X322056250Y-97500000D01*
%TO.C,D81*%
X333581250Y-78450000D02*
X333581250Y-74550000D01*
X331581250Y-78450000D02*
X331581250Y-74550000D01*
X333581250Y-78450000D02*
X331581250Y-78450000D01*
%TO.C,D80*%
X324056250Y-59400000D02*
X324056250Y-55500000D01*
X322056250Y-59400000D02*
X322056250Y-55500000D01*
X324056250Y-59400000D02*
X322056250Y-59400000D01*
%TO.C,D79*%
X324056250Y-40350000D02*
X324056250Y-36450000D01*
X322056250Y-40350000D02*
X322056250Y-36450000D01*
X324056250Y-40350000D02*
X322056250Y-40350000D01*
%TO.C,D78*%
X323961000Y-21300000D02*
X323961000Y-17400000D01*
X321961000Y-21300000D02*
X321961000Y-17400000D01*
X323961000Y-21300000D02*
X321961000Y-21300000D01*
%TO.C,D77*%
X285956250Y-97500000D02*
X285956250Y-93600000D01*
X283956250Y-97500000D02*
X283956250Y-93600000D01*
X285956250Y-97500000D02*
X283956250Y-97500000D01*
%TO.C,D76*%
X295481250Y-78450000D02*
X295481250Y-74550000D01*
X293481250Y-78450000D02*
X293481250Y-74550000D01*
X295481250Y-78450000D02*
X293481250Y-78450000D01*
%TO.C,D75*%
X277108883Y-61995653D02*
X274351167Y-64753369D01*
X278523097Y-63409867D02*
X275765381Y-66167583D01*
X277108883Y-61995653D02*
X278523097Y-63409867D01*
%TO.C,D74*%
X286633883Y-42945653D02*
X283876167Y-45703369D01*
X288048097Y-44359867D02*
X285290381Y-47117583D01*
X286633883Y-42945653D02*
X288048097Y-44359867D01*
%TO.C,D73*%
X286633883Y-23895653D02*
X283876167Y-26653369D01*
X288048097Y-25309867D02*
X285290381Y-28067583D01*
X286633883Y-23895653D02*
X288048097Y-25309867D01*
%TO.C,D72*%
X240712500Y-97500000D02*
X240712500Y-93600000D01*
X238712500Y-97500000D02*
X238712500Y-93600000D01*
X240712500Y-97500000D02*
X238712500Y-97500000D01*
%TO.C,D71*%
X250237500Y-78450000D02*
X250237500Y-74550000D01*
X248237500Y-78450000D02*
X248237500Y-74550000D01*
X250237500Y-78450000D02*
X248237500Y-78450000D01*
%TO.C,D70*%
X260556250Y-63368750D02*
X260556250Y-59468750D01*
X258556250Y-63368750D02*
X258556250Y-59468750D01*
X260556250Y-63368750D02*
X258556250Y-63368750D01*
%TO.C,D69*%
X284873097Y-21521383D02*
X282115381Y-18763667D01*
X283458883Y-22935597D02*
X280701167Y-20177881D01*
X284873097Y-21521383D02*
X283458883Y-22935597D01*
%TO.C,D68*%
X288793750Y5762500D02*
X284893750Y5762500D01*
X288793750Y3762500D02*
X284893750Y3762500D01*
X288793750Y5762500D02*
X288793750Y3762500D01*
%TO.C,D67*%
X216900000Y-97500000D02*
X216900000Y-93600000D01*
X214900000Y-97500000D02*
X214900000Y-93600000D01*
X216900000Y-97500000D02*
X214900000Y-97500000D01*
%TO.C,D66*%
X224043750Y-78450000D02*
X224043750Y-74550000D01*
X222043750Y-78450000D02*
X222043750Y-74550000D01*
X224043750Y-78450000D02*
X222043750Y-78450000D01*
%TO.C,D65*%
X233568750Y-59400000D02*
X233568750Y-55500000D01*
X231568750Y-59400000D02*
X231568750Y-55500000D01*
X233568750Y-59400000D02*
X231568750Y-59400000D01*
%TO.C,D64*%
X247062500Y-42731250D02*
X247062500Y-38831250D01*
X245062500Y-42731250D02*
X245062500Y-38831250D01*
X247062500Y-42731250D02*
X245062500Y-42731250D01*
%TO.C,D63*%
X257381250Y-21300000D02*
X257381250Y-17400000D01*
X255381250Y-21300000D02*
X255381250Y-17400000D01*
X257381250Y-21300000D02*
X255381250Y-21300000D01*
%TO.C,D62*%
X257381250Y-2250000D02*
X257381250Y1650000D01*
X255381250Y-2250000D02*
X255381250Y1650000D01*
X257381250Y-2250000D02*
X255381250Y-2250000D01*
%TO.C,D61*%
X204993750Y-78450000D02*
X204993750Y-74550000D01*
X202993750Y-78450000D02*
X202993750Y-74550000D01*
X204993750Y-78450000D02*
X202993750Y-78450000D01*
%TO.C,D60*%
X214518750Y-59400000D02*
X214518750Y-55500000D01*
X212518750Y-59400000D02*
X212518750Y-55500000D01*
X214518750Y-59400000D02*
X212518750Y-59400000D01*
%TO.C,D59*%
X228806250Y-40350000D02*
X228806250Y-36450000D01*
X226806250Y-40350000D02*
X226806250Y-36450000D01*
X228806250Y-40350000D02*
X226806250Y-40350000D01*
%TO.C,D58*%
X238331250Y-21300000D02*
X238331250Y-17400000D01*
X236331250Y-21300000D02*
X236331250Y-17400000D01*
X238331250Y-21300000D02*
X236331250Y-21300000D01*
%TO.C,D57*%
X238331250Y-2250000D02*
X238331250Y1650000D01*
X236331250Y-2250000D02*
X236331250Y1650000D01*
X238331250Y-2250000D02*
X236331250Y-2250000D01*
%TO.C,D56*%
X185943750Y-78450000D02*
X185943750Y-74550000D01*
X183943750Y-78450000D02*
X183943750Y-74550000D01*
X185943750Y-78450000D02*
X183943750Y-78450000D01*
%TO.C,D55*%
X195468750Y-59400000D02*
X195468750Y-55500000D01*
X193468750Y-59400000D02*
X193468750Y-55500000D01*
X195468750Y-59400000D02*
X193468750Y-59400000D01*
%TO.C,D54*%
X209756250Y-40350000D02*
X209756250Y-36450000D01*
X207756250Y-40350000D02*
X207756250Y-36450000D01*
X209756250Y-40350000D02*
X207756250Y-40350000D01*
%TO.C,D53*%
X219281250Y-21300000D02*
X219281250Y-17400000D01*
X217281250Y-21300000D02*
X217281250Y-17400000D01*
X219281250Y-21300000D02*
X217281250Y-21300000D01*
%TO.C,D52*%
X219281250Y-2250000D02*
X219281250Y1650000D01*
X217281250Y-2250000D02*
X217281250Y1650000D01*
X219281250Y-2250000D02*
X217281250Y-2250000D01*
%TO.C,D51*%
X166893750Y-78450000D02*
X166893750Y-74550000D01*
X164893750Y-78450000D02*
X164893750Y-74550000D01*
X166893750Y-78450000D02*
X164893750Y-78450000D01*
%TO.C,D50*%
X176418750Y-59400000D02*
X176418750Y-55500000D01*
X174418750Y-59400000D02*
X174418750Y-55500000D01*
X176418750Y-59400000D02*
X174418750Y-59400000D01*
%TO.C,D49*%
X190706250Y-40350000D02*
X190706250Y-36450000D01*
X188706250Y-40350000D02*
X188706250Y-36450000D01*
X190706250Y-40350000D02*
X188706250Y-40350000D01*
%TO.C,D48*%
X200231250Y-21300000D02*
X200231250Y-17400000D01*
X198231250Y-21300000D02*
X198231250Y-17400000D01*
X200231250Y-21300000D02*
X198231250Y-21300000D01*
%TO.C,D47*%
X200231250Y-2250000D02*
X200231250Y1650000D01*
X198231250Y-2250000D02*
X198231250Y1650000D01*
X200231250Y-2250000D02*
X198231250Y-2250000D01*
%TO.C,D46*%
X171656250Y-40350000D02*
X171656250Y-36450000D01*
X169656250Y-40350000D02*
X169656250Y-36450000D01*
X171656250Y-40350000D02*
X169656250Y-40350000D01*
%TO.C,D45*%
X181181250Y-21300000D02*
X181181250Y-17400000D01*
X179181250Y-21300000D02*
X179181250Y-17400000D01*
X181181250Y-21300000D02*
X179181250Y-21300000D01*
%TO.C,D44*%
X181181250Y-2250000D02*
X181181250Y1650000D01*
X179181250Y-2250000D02*
X179181250Y1650000D01*
X181181250Y-2250000D02*
X179181250Y-2250000D01*
%TO.C,D43*%
X162131250Y-21300000D02*
X162131250Y-17400000D01*
X160131250Y-21300000D02*
X160131250Y-17400000D01*
X162131250Y-21300000D02*
X160131250Y-21300000D01*
%TO.C,D42*%
X162131250Y-2250000D02*
X162131250Y1650000D01*
X160131250Y-2250000D02*
X160131250Y1650000D01*
X162131250Y-2250000D02*
X160131250Y-2250000D01*
%TO.C,D41*%
X157368750Y-59400000D02*
X157368750Y-55500000D01*
X155368750Y-59400000D02*
X155368750Y-55500000D01*
X157368750Y-59400000D02*
X155368750Y-59400000D01*
%TO.C,D40*%
X152606250Y-40350000D02*
X152606250Y-36450000D01*
X150606250Y-40350000D02*
X150606250Y-36450000D01*
X152606250Y-40350000D02*
X150606250Y-40350000D01*
%TO.C,D39*%
X143081250Y-21300000D02*
X143081250Y-17400000D01*
X141081250Y-21300000D02*
X141081250Y-17400000D01*
X143081250Y-21300000D02*
X141081250Y-21300000D01*
%TO.C,D38*%
X133556250Y-2250000D02*
X133556250Y1650000D01*
X131556250Y-2250000D02*
X131556250Y1650000D01*
X133556250Y-2250000D02*
X131556250Y-2250000D01*
%TO.C,D37*%
X147843750Y-78450000D02*
X147843750Y-74550000D01*
X145843750Y-78450000D02*
X145843750Y-74550000D01*
X147843750Y-78450000D02*
X145843750Y-78450000D01*
%TO.C,D36*%
X138318750Y-59400000D02*
X138318750Y-55500000D01*
X136318750Y-59400000D02*
X136318750Y-55500000D01*
X138318750Y-59400000D02*
X136318750Y-59400000D01*
%TO.C,D35*%
X133556250Y-40350000D02*
X133556250Y-36450000D01*
X131556250Y-40350000D02*
X131556250Y-36450000D01*
X133556250Y-40350000D02*
X131556250Y-40350000D01*
%TO.C,D34*%
X124031250Y-21300000D02*
X124031250Y-17400000D01*
X122031250Y-21300000D02*
X122031250Y-17400000D01*
X124031250Y-21300000D02*
X122031250Y-21300000D01*
%TO.C,D33*%
X114506250Y-2250000D02*
X114506250Y1650000D01*
X112506250Y-2250000D02*
X112506250Y1650000D01*
X114506250Y-2250000D02*
X112506250Y-2250000D01*
%TO.C,D32*%
X138318750Y-97500000D02*
X138318750Y-93600000D01*
X136318750Y-97500000D02*
X136318750Y-93600000D01*
X138318750Y-97500000D02*
X136318750Y-97500000D01*
%TO.C,D31*%
X128793750Y-78450000D02*
X128793750Y-74550000D01*
X126793750Y-78450000D02*
X126793750Y-74550000D01*
X128793750Y-78450000D02*
X126793750Y-78450000D01*
%TO.C,D30*%
X119268750Y-59400000D02*
X119268750Y-55500000D01*
X117268750Y-59400000D02*
X117268750Y-55500000D01*
X119268750Y-59400000D02*
X117268750Y-59400000D01*
%TO.C,D29*%
X114506250Y-40350000D02*
X114506250Y-36450000D01*
X112506250Y-40350000D02*
X112506250Y-36450000D01*
X114506250Y-40350000D02*
X112506250Y-40350000D01*
%TO.C,D28*%
X104981250Y-21300000D02*
X104981250Y-17400000D01*
X102981250Y-21300000D02*
X102981250Y-17400000D01*
X104981250Y-21300000D02*
X102981250Y-21300000D01*
%TO.C,D27*%
X95456250Y-2250000D02*
X95456250Y1650000D01*
X93456250Y-2250000D02*
X93456250Y1650000D01*
X95456250Y-2250000D02*
X93456250Y-2250000D01*
%TO.C,D26*%
X109743750Y-78450000D02*
X109743750Y-74550000D01*
X107743750Y-78450000D02*
X107743750Y-74550000D01*
X109743750Y-78450000D02*
X107743750Y-78450000D01*
%TO.C,D25*%
X100218750Y-59400000D02*
X100218750Y-55500000D01*
X98218750Y-59400000D02*
X98218750Y-55500000D01*
X100218750Y-59400000D02*
X98218750Y-59400000D01*
%TO.C,D24*%
X95456250Y-40350000D02*
X95456250Y-36450000D01*
X93456250Y-40350000D02*
X93456250Y-36450000D01*
X95456250Y-40350000D02*
X93456250Y-40350000D01*
%TO.C,D23*%
X85931250Y-21300000D02*
X85931250Y-17400000D01*
X83931250Y-21300000D02*
X83931250Y-17400000D01*
X85931250Y-21300000D02*
X83931250Y-21300000D01*
%TO.C,D22*%
X76406250Y-2250000D02*
X76406250Y1650000D01*
X74406250Y-2250000D02*
X74406250Y1650000D01*
X76406250Y-2250000D02*
X74406250Y-2250000D01*
%TO.C,D21*%
X90693750Y-78450000D02*
X90693750Y-74550000D01*
X88693750Y-78450000D02*
X88693750Y-74550000D01*
X90693750Y-78450000D02*
X88693750Y-78450000D01*
%TO.C,D20*%
X81168750Y-59400000D02*
X81168750Y-55500000D01*
X79168750Y-59400000D02*
X79168750Y-55500000D01*
X81168750Y-59400000D02*
X79168750Y-59400000D01*
%TO.C,D19*%
X76406250Y-40350000D02*
X76406250Y-36450000D01*
X74406250Y-40350000D02*
X74406250Y-36450000D01*
X76406250Y-40350000D02*
X74406250Y-40350000D01*
%TO.C,D18*%
X66881250Y-21300000D02*
X66881250Y-17400000D01*
X64881250Y-21300000D02*
X64881250Y-17400000D01*
X66881250Y-21300000D02*
X64881250Y-21300000D01*
%TO.C,D17*%
X57356250Y-2250000D02*
X57356250Y1650000D01*
X55356250Y-2250000D02*
X55356250Y1650000D01*
X57356250Y-2250000D02*
X55356250Y-2250000D01*
%TO.C,D16*%
X71643750Y-78450000D02*
X71643750Y-74550000D01*
X69643750Y-78450000D02*
X69643750Y-74550000D01*
X71643750Y-78450000D02*
X69643750Y-78450000D01*
%TO.C,D15*%
X62118750Y-59400000D02*
X62118750Y-55500000D01*
X60118750Y-59400000D02*
X60118750Y-55500000D01*
X62118750Y-59400000D02*
X60118750Y-59400000D01*
%TO.C,D14*%
X57356250Y-40350000D02*
X57356250Y-36450000D01*
X55356250Y-40350000D02*
X55356250Y-36450000D01*
X57356250Y-40350000D02*
X55356250Y-40350000D01*
%TO.C,D13*%
X47831250Y-21300000D02*
X47831250Y-17400000D01*
X45831250Y-21300000D02*
X45831250Y-17400000D01*
X47831250Y-21300000D02*
X45831250Y-21300000D01*
%TO.C,D12*%
X38306250Y-2250000D02*
X38306250Y1650000D01*
X36306250Y-2250000D02*
X36306250Y1650000D01*
X38306250Y-2250000D02*
X36306250Y-2250000D01*
%TO.C,D11*%
X59737500Y-97500000D02*
X59737500Y-93600000D01*
X57737500Y-97500000D02*
X57737500Y-93600000D01*
X59737500Y-97500000D02*
X57737500Y-97500000D01*
%TO.C,D10*%
X52593750Y-78450000D02*
X52593750Y-74550000D01*
X50593750Y-78450000D02*
X50593750Y-74550000D01*
X52593750Y-78450000D02*
X50593750Y-78450000D01*
%TO.C,D9*%
X43068750Y-59400000D02*
X43068750Y-55500000D01*
X41068750Y-59400000D02*
X41068750Y-55500000D01*
X43068750Y-59400000D02*
X41068750Y-59400000D01*
%TO.C,D8*%
X38306250Y-40350000D02*
X38306250Y-36450000D01*
X36306250Y-40350000D02*
X36306250Y-36450000D01*
X38306250Y-40350000D02*
X36306250Y-40350000D01*
%TO.C,D7*%
X28781250Y-21300000D02*
X28781250Y-17400000D01*
X26781250Y-21300000D02*
X26781250Y-17400000D01*
X28781250Y-21300000D02*
X26781250Y-21300000D01*
%TO.C,D6*%
X35925000Y-97500000D02*
X35925000Y-93600000D01*
X33925000Y-97500000D02*
X33925000Y-93600000D01*
X35925000Y-97500000D02*
X33925000Y-97500000D01*
%TO.C,D5*%
X21637500Y-78450000D02*
X21637500Y-74550000D01*
X19637500Y-78450000D02*
X19637500Y-74550000D01*
X21637500Y-78450000D02*
X19637500Y-78450000D01*
%TO.C,D4*%
X23987000Y-59400000D02*
X23987000Y-55500000D01*
X21987000Y-59400000D02*
X21987000Y-55500000D01*
X23987000Y-59400000D02*
X21987000Y-59400000D01*
%TO.C,D3*%
X14493750Y-40350000D02*
X14493750Y-36450000D01*
X12493750Y-40350000D02*
X12493750Y-36450000D01*
X14493750Y-40350000D02*
X12493750Y-40350000D01*
%TO.C,D2*%
X9731250Y-21300000D02*
X9731250Y-17400000D01*
X7731250Y-21300000D02*
X7731250Y-17400000D01*
X9731250Y-21300000D02*
X7731250Y-21300000D01*
%TO.C,D1*%
X9731250Y-2250000D02*
X9731250Y1650000D01*
X7731250Y-2250000D02*
X7731250Y1650000D01*
X9731250Y-2250000D02*
X7731250Y-2250000D01*
%TO.C,C8*%
X318032498Y27722500D02*
X318555002Y27722500D01*
X318032498Y26252500D02*
X318555002Y26252500D01*
%TO.C,C7*%
X300741957Y26208010D02*
X300372490Y25838543D01*
X299702510Y27247457D02*
X299333043Y26877990D01*
%TO.C,C6*%
X323810998Y22760000D02*
X324333502Y22760000D01*
X323810998Y24230000D02*
X324333502Y24230000D01*
%TO.C,C5*%
X298731000Y11105248D02*
X298731000Y11627752D01*
X300201000Y11105248D02*
X300201000Y11627752D01*
%TO.C,C4*%
X300201000Y21470252D02*
X300201000Y20947748D01*
X298731000Y21470252D02*
X298731000Y20947748D01*
%TO.C,C3*%
X326238502Y19839000D02*
X325715998Y19839000D01*
X326238502Y21309000D02*
X325715998Y21309000D01*
%TO.C,C2*%
X325715998Y13181000D02*
X326238502Y13181000D01*
X325715998Y11711000D02*
X326238502Y11711000D01*
%TO.C,C1*%
X311745998Y27722500D02*
X312268502Y27722500D01*
X311745998Y26252500D02*
X312268502Y26252500D01*
%TO.C,USB1*%
D10*
X177950595Y30900619D02*
X177950595Y30091095D01*
X177902976Y29995857D01*
X177855357Y29948238D01*
X177760119Y29900619D01*
X177569642Y29900619D01*
X177474404Y29948238D01*
X177426785Y29995857D01*
X177379166Y30091095D01*
X177379166Y30900619D01*
X176950595Y29948238D02*
X176807738Y29900619D01*
X176569642Y29900619D01*
X176474404Y29948238D01*
X176426785Y29995857D01*
X176379166Y30091095D01*
X176379166Y30186333D01*
X176426785Y30281571D01*
X176474404Y30329190D01*
X176569642Y30376809D01*
X176760119Y30424428D01*
X176855357Y30472047D01*
X176902976Y30519666D01*
X176950595Y30614904D01*
X176950595Y30710142D01*
X176902976Y30805380D01*
X176855357Y30853000D01*
X176760119Y30900619D01*
X176522023Y30900619D01*
X176379166Y30853000D01*
X175617261Y30424428D02*
X175474404Y30376809D01*
X175426785Y30329190D01*
X175379166Y30233952D01*
X175379166Y30091095D01*
X175426785Y29995857D01*
X175474404Y29948238D01*
X175569642Y29900619D01*
X175950595Y29900619D01*
X175950595Y30900619D01*
X175617261Y30900619D01*
X175522023Y30853000D01*
X175474404Y30805380D01*
X175426785Y30710142D01*
X175426785Y30614904D01*
X175474404Y30519666D01*
X175522023Y30472047D01*
X175617261Y30424428D01*
X175950595Y30424428D01*
X174426785Y29900619D02*
X174998214Y29900619D01*
X174712500Y29900619D02*
X174712500Y30900619D01*
X174807738Y30757761D01*
X174902976Y30662523D01*
X174998214Y30614904D01*
%TO.C,Y1*%
X329247440Y16533809D02*
X329247440Y16057619D01*
X329580773Y17057619D02*
X329247440Y16533809D01*
X328914107Y17057619D01*
X328056964Y16057619D02*
X328628392Y16057619D01*
X328342678Y16057619D02*
X328342678Y17057619D01*
X328437916Y16914761D01*
X328533154Y16819523D01*
X328628392Y16771904D01*
%TO.C,U1*%
X312388154Y6389619D02*
X312388154Y5580095D01*
X312340535Y5484857D01*
X312292916Y5437238D01*
X312197678Y5389619D01*
X312007202Y5389619D01*
X311911964Y5437238D01*
X311864345Y5484857D01*
X311816726Y5580095D01*
X311816726Y6389619D01*
X310816726Y5389619D02*
X311388154Y5389619D01*
X311102440Y5389619D02*
X311102440Y6389619D01*
X311197678Y6246761D01*
X311292916Y6151523D01*
X311388154Y6103904D01*
%TO.C,SW1*%
X339534333Y11660238D02*
X339391476Y11612619D01*
X339153380Y11612619D01*
X339058142Y11660238D01*
X339010523Y11707857D01*
X338962904Y11803095D01*
X338962904Y11898333D01*
X339010523Y11993571D01*
X339058142Y12041190D01*
X339153380Y12088809D01*
X339343857Y12136428D01*
X339439095Y12184047D01*
X339486714Y12231666D01*
X339534333Y12326904D01*
X339534333Y12422142D01*
X339486714Y12517380D01*
X339439095Y12565000D01*
X339343857Y12612619D01*
X339105761Y12612619D01*
X338962904Y12565000D01*
X338629571Y12612619D02*
X338391476Y11612619D01*
X338201000Y12326904D01*
X338010523Y11612619D01*
X337772428Y12612619D01*
X336867666Y11612619D02*
X337439095Y11612619D01*
X337153380Y11612619D02*
X337153380Y12612619D01*
X337248619Y12469761D01*
X337343857Y12374523D01*
X337439095Y12326904D01*
%TO.C,R5*%
X-1194304Y-58961006D02*
X-621884Y-58859991D01*
X-790243Y-59365067D02*
X-83136Y-58657961D01*
X-352510Y-58388586D01*
X-453525Y-58354915D01*
X-520869Y-58354915D01*
X-621884Y-58388586D01*
X-722899Y-58489602D01*
X-756571Y-58590617D01*
X-756571Y-58657961D01*
X-722899Y-58758976D01*
X-453525Y-59028350D01*
X-1126961Y-57614136D02*
X-790243Y-57950854D01*
X-1093289Y-58321243D01*
X-1093289Y-58253899D01*
X-1126961Y-58152884D01*
X-1295319Y-57984525D01*
X-1396335Y-57950854D01*
X-1463678Y-57950854D01*
X-1564693Y-57984525D01*
X-1733052Y-58152884D01*
X-1766724Y-58253899D01*
X-1766724Y-58321243D01*
X-1733052Y-58422258D01*
X-1564693Y-58590617D01*
X-1463678Y-58624289D01*
X-1396335Y-58624289D01*
%TO.C,R4*%
X298767325Y4476186D02*
X299100659Y4952376D01*
X299338754Y4476186D02*
X299338754Y5476186D01*
X298957801Y5476186D01*
X298862563Y5428567D01*
X298814944Y5380947D01*
X298767325Y5285709D01*
X298767325Y5142852D01*
X298814944Y5047614D01*
X298862563Y4999995D01*
X298957801Y4952376D01*
X299338754Y4952376D01*
X297910182Y5142852D02*
X297910182Y4476186D01*
X298148278Y5523805D02*
X298386373Y4809519D01*
X297767325Y4809519D01*
%TO.C,R3*%
X197175416Y17708619D02*
X197508750Y18184809D01*
X197746845Y17708619D02*
X197746845Y18708619D01*
X197365892Y18708619D01*
X197270654Y18661000D01*
X197223035Y18613380D01*
X197175416Y18518142D01*
X197175416Y18375285D01*
X197223035Y18280047D01*
X197270654Y18232428D01*
X197365892Y18184809D01*
X197746845Y18184809D01*
X196842083Y18708619D02*
X196223035Y18708619D01*
X196556369Y18327666D01*
X196413511Y18327666D01*
X196318273Y18280047D01*
X196270654Y18232428D01*
X196223035Y18137190D01*
X196223035Y17899095D01*
X196270654Y17803857D01*
X196318273Y17756238D01*
X196413511Y17708619D01*
X196699226Y17708619D01*
X196794464Y17756238D01*
X196842083Y17803857D01*
%TO.C,R2*%
X197175416Y23422619D02*
X197508750Y23898809D01*
X197746845Y23422619D02*
X197746845Y24422619D01*
X197365892Y24422619D01*
X197270654Y24375000D01*
X197223035Y24327380D01*
X197175416Y24232142D01*
X197175416Y24089285D01*
X197223035Y23994047D01*
X197270654Y23946428D01*
X197365892Y23898809D01*
X197746845Y23898809D01*
X196794464Y24327380D02*
X196746845Y24375000D01*
X196651607Y24422619D01*
X196413511Y24422619D01*
X196318273Y24375000D01*
X196270654Y24327380D01*
X196223035Y24232142D01*
X196223035Y24136904D01*
X196270654Y23994047D01*
X196842083Y23422619D01*
X196223035Y23422619D01*
%TO.C,R1*%
X324175416Y28281369D02*
X324508750Y28757559D01*
X324746845Y28281369D02*
X324746845Y29281369D01*
X324365892Y29281369D01*
X324270654Y29233750D01*
X324223035Y29186130D01*
X324175416Y29090892D01*
X324175416Y28948035D01*
X324223035Y28852797D01*
X324270654Y28805178D01*
X324365892Y28757559D01*
X324746845Y28757559D01*
X323223035Y28281369D02*
X323794464Y28281369D01*
X323508750Y28281369D02*
X323508750Y29281369D01*
X323603988Y29138511D01*
X323699226Y29043273D01*
X323794464Y28995654D01*
%TO.C,F1*%
X188452083Y20147678D02*
X188785416Y20147678D01*
X188785416Y19623869D02*
X188785416Y20623869D01*
X188309226Y20623869D01*
X187404464Y19623869D02*
X187975892Y19623869D01*
X187690178Y19623869D02*
X187690178Y20623869D01*
X187785416Y20481011D01*
X187880654Y20385773D01*
X187975892Y20338154D01*
%TO.C,D90*%
X354083630Y-94035714D02*
X353083630Y-94035714D01*
X353083630Y-94273809D01*
X353131250Y-94416666D01*
X353226488Y-94511904D01*
X353321726Y-94559523D01*
X353512202Y-94607142D01*
X353655059Y-94607142D01*
X353845535Y-94559523D01*
X353940773Y-94511904D01*
X354036011Y-94416666D01*
X354083630Y-94273809D01*
X354083630Y-94035714D01*
X354083630Y-95083333D02*
X354083630Y-95273809D01*
X354036011Y-95369047D01*
X353988392Y-95416666D01*
X353845535Y-95511904D01*
X353655059Y-95559523D01*
X353274107Y-95559523D01*
X353178869Y-95511904D01*
X353131250Y-95464285D01*
X353083630Y-95369047D01*
X353083630Y-95178571D01*
X353131250Y-95083333D01*
X353178869Y-95035714D01*
X353274107Y-94988095D01*
X353512202Y-94988095D01*
X353607440Y-95035714D01*
X353655059Y-95083333D01*
X353702678Y-95178571D01*
X353702678Y-95369047D01*
X353655059Y-95464285D01*
X353607440Y-95511904D01*
X353512202Y-95559523D01*
X353083630Y-96178571D02*
X353083630Y-96273809D01*
X353131250Y-96369047D01*
X353178869Y-96416666D01*
X353274107Y-96464285D01*
X353464583Y-96511904D01*
X353702678Y-96511904D01*
X353893154Y-96464285D01*
X353988392Y-96416666D01*
X354036011Y-96369047D01*
X354083630Y-96273809D01*
X354083630Y-96178571D01*
X354036011Y-96083333D01*
X353988392Y-96035714D01*
X353893154Y-95988095D01*
X353702678Y-95940476D01*
X353464583Y-95940476D01*
X353274107Y-95988095D01*
X353178869Y-96035714D01*
X353131250Y-96083333D01*
X353083630Y-96178571D01*
%TO.C,D89*%
X361640380Y-79176714D02*
X360640380Y-79176714D01*
X360640380Y-79414809D01*
X360688000Y-79557666D01*
X360783238Y-79652904D01*
X360878476Y-79700523D01*
X361068952Y-79748142D01*
X361211809Y-79748142D01*
X361402285Y-79700523D01*
X361497523Y-79652904D01*
X361592761Y-79557666D01*
X361640380Y-79414809D01*
X361640380Y-79176714D01*
X361068952Y-80319571D02*
X361021333Y-80224333D01*
X360973714Y-80176714D01*
X360878476Y-80129095D01*
X360830857Y-80129095D01*
X360735619Y-80176714D01*
X360688000Y-80224333D01*
X360640380Y-80319571D01*
X360640380Y-80510047D01*
X360688000Y-80605285D01*
X360735619Y-80652904D01*
X360830857Y-80700523D01*
X360878476Y-80700523D01*
X360973714Y-80652904D01*
X361021333Y-80605285D01*
X361068952Y-80510047D01*
X361068952Y-80319571D01*
X361116571Y-80224333D01*
X361164190Y-80176714D01*
X361259428Y-80129095D01*
X361449904Y-80129095D01*
X361545142Y-80176714D01*
X361592761Y-80224333D01*
X361640380Y-80319571D01*
X361640380Y-80510047D01*
X361592761Y-80605285D01*
X361545142Y-80652904D01*
X361449904Y-80700523D01*
X361259428Y-80700523D01*
X361164190Y-80652904D01*
X361116571Y-80605285D01*
X361068952Y-80510047D01*
X361640380Y-81176714D02*
X361640380Y-81367190D01*
X361592761Y-81462428D01*
X361545142Y-81510047D01*
X361402285Y-81605285D01*
X361211809Y-81652904D01*
X360830857Y-81652904D01*
X360735619Y-81605285D01*
X360688000Y-81557666D01*
X360640380Y-81462428D01*
X360640380Y-81271952D01*
X360688000Y-81176714D01*
X360735619Y-81129095D01*
X360830857Y-81081476D01*
X361068952Y-81081476D01*
X361164190Y-81129095D01*
X361211809Y-81176714D01*
X361259428Y-81271952D01*
X361259428Y-81462428D01*
X361211809Y-81557666D01*
X361164190Y-81605285D01*
X361068952Y-81652904D01*
%TO.C,D88*%
X361640380Y-59872714D02*
X360640380Y-59872714D01*
X360640380Y-60110809D01*
X360688000Y-60253666D01*
X360783238Y-60348904D01*
X360878476Y-60396523D01*
X361068952Y-60444142D01*
X361211809Y-60444142D01*
X361402285Y-60396523D01*
X361497523Y-60348904D01*
X361592761Y-60253666D01*
X361640380Y-60110809D01*
X361640380Y-59872714D01*
X361068952Y-61015571D02*
X361021333Y-60920333D01*
X360973714Y-60872714D01*
X360878476Y-60825095D01*
X360830857Y-60825095D01*
X360735619Y-60872714D01*
X360688000Y-60920333D01*
X360640380Y-61015571D01*
X360640380Y-61206047D01*
X360688000Y-61301285D01*
X360735619Y-61348904D01*
X360830857Y-61396523D01*
X360878476Y-61396523D01*
X360973714Y-61348904D01*
X361021333Y-61301285D01*
X361068952Y-61206047D01*
X361068952Y-61015571D01*
X361116571Y-60920333D01*
X361164190Y-60872714D01*
X361259428Y-60825095D01*
X361449904Y-60825095D01*
X361545142Y-60872714D01*
X361592761Y-60920333D01*
X361640380Y-61015571D01*
X361640380Y-61206047D01*
X361592761Y-61301285D01*
X361545142Y-61348904D01*
X361449904Y-61396523D01*
X361259428Y-61396523D01*
X361164190Y-61348904D01*
X361116571Y-61301285D01*
X361068952Y-61206047D01*
X361068952Y-61967952D02*
X361021333Y-61872714D01*
X360973714Y-61825095D01*
X360878476Y-61777476D01*
X360830857Y-61777476D01*
X360735619Y-61825095D01*
X360688000Y-61872714D01*
X360640380Y-61967952D01*
X360640380Y-62158428D01*
X360688000Y-62253666D01*
X360735619Y-62301285D01*
X360830857Y-62348904D01*
X360878476Y-62348904D01*
X360973714Y-62301285D01*
X361021333Y-62253666D01*
X361068952Y-62158428D01*
X361068952Y-61967952D01*
X361116571Y-61872714D01*
X361164190Y-61825095D01*
X361259428Y-61777476D01*
X361449904Y-61777476D01*
X361545142Y-61825095D01*
X361592761Y-61872714D01*
X361640380Y-61967952D01*
X361640380Y-62158428D01*
X361592761Y-62253666D01*
X361545142Y-62301285D01*
X361449904Y-62348904D01*
X361259428Y-62348904D01*
X361164190Y-62301285D01*
X361116571Y-62253666D01*
X361068952Y-62158428D01*
%TO.C,D87*%
X361640380Y-40822714D02*
X360640380Y-40822714D01*
X360640380Y-41060809D01*
X360688000Y-41203666D01*
X360783238Y-41298904D01*
X360878476Y-41346523D01*
X361068952Y-41394142D01*
X361211809Y-41394142D01*
X361402285Y-41346523D01*
X361497523Y-41298904D01*
X361592761Y-41203666D01*
X361640380Y-41060809D01*
X361640380Y-40822714D01*
X361068952Y-41965571D02*
X361021333Y-41870333D01*
X360973714Y-41822714D01*
X360878476Y-41775095D01*
X360830857Y-41775095D01*
X360735619Y-41822714D01*
X360688000Y-41870333D01*
X360640380Y-41965571D01*
X360640380Y-42156047D01*
X360688000Y-42251285D01*
X360735619Y-42298904D01*
X360830857Y-42346523D01*
X360878476Y-42346523D01*
X360973714Y-42298904D01*
X361021333Y-42251285D01*
X361068952Y-42156047D01*
X361068952Y-41965571D01*
X361116571Y-41870333D01*
X361164190Y-41822714D01*
X361259428Y-41775095D01*
X361449904Y-41775095D01*
X361545142Y-41822714D01*
X361592761Y-41870333D01*
X361640380Y-41965571D01*
X361640380Y-42156047D01*
X361592761Y-42251285D01*
X361545142Y-42298904D01*
X361449904Y-42346523D01*
X361259428Y-42346523D01*
X361164190Y-42298904D01*
X361116571Y-42251285D01*
X361068952Y-42156047D01*
X360640380Y-42679857D02*
X360640380Y-43346523D01*
X361640380Y-42917952D01*
%TO.C,D86*%
X361640380Y-21772714D02*
X360640380Y-21772714D01*
X360640380Y-22010809D01*
X360688000Y-22153666D01*
X360783238Y-22248904D01*
X360878476Y-22296523D01*
X361068952Y-22344142D01*
X361211809Y-22344142D01*
X361402285Y-22296523D01*
X361497523Y-22248904D01*
X361592761Y-22153666D01*
X361640380Y-22010809D01*
X361640380Y-21772714D01*
X361068952Y-22915571D02*
X361021333Y-22820333D01*
X360973714Y-22772714D01*
X360878476Y-22725095D01*
X360830857Y-22725095D01*
X360735619Y-22772714D01*
X360688000Y-22820333D01*
X360640380Y-22915571D01*
X360640380Y-23106047D01*
X360688000Y-23201285D01*
X360735619Y-23248904D01*
X360830857Y-23296523D01*
X360878476Y-23296523D01*
X360973714Y-23248904D01*
X361021333Y-23201285D01*
X361068952Y-23106047D01*
X361068952Y-22915571D01*
X361116571Y-22820333D01*
X361164190Y-22772714D01*
X361259428Y-22725095D01*
X361449904Y-22725095D01*
X361545142Y-22772714D01*
X361592761Y-22820333D01*
X361640380Y-22915571D01*
X361640380Y-23106047D01*
X361592761Y-23201285D01*
X361545142Y-23248904D01*
X361449904Y-23296523D01*
X361259428Y-23296523D01*
X361164190Y-23248904D01*
X361116571Y-23201285D01*
X361068952Y-23106047D01*
X360640380Y-24153666D02*
X360640380Y-23963190D01*
X360688000Y-23867952D01*
X360735619Y-23820333D01*
X360878476Y-23725095D01*
X361068952Y-23677476D01*
X361449904Y-23677476D01*
X361545142Y-23725095D01*
X361592761Y-23772714D01*
X361640380Y-23867952D01*
X361640380Y-24058428D01*
X361592761Y-24153666D01*
X361545142Y-24201285D01*
X361449904Y-24248904D01*
X361211809Y-24248904D01*
X361116571Y-24201285D01*
X361068952Y-24153666D01*
X361021333Y-24058428D01*
X361021333Y-23867952D01*
X361068952Y-23772714D01*
X361116571Y-23725095D01*
X361211809Y-23677476D01*
%TO.C,D85*%
X344558630Y-55935714D02*
X343558630Y-55935714D01*
X343558630Y-56173809D01*
X343606250Y-56316666D01*
X343701488Y-56411904D01*
X343796726Y-56459523D01*
X343987202Y-56507142D01*
X344130059Y-56507142D01*
X344320535Y-56459523D01*
X344415773Y-56411904D01*
X344511011Y-56316666D01*
X344558630Y-56173809D01*
X344558630Y-55935714D01*
X343987202Y-57078571D02*
X343939583Y-56983333D01*
X343891964Y-56935714D01*
X343796726Y-56888095D01*
X343749107Y-56888095D01*
X343653869Y-56935714D01*
X343606250Y-56983333D01*
X343558630Y-57078571D01*
X343558630Y-57269047D01*
X343606250Y-57364285D01*
X343653869Y-57411904D01*
X343749107Y-57459523D01*
X343796726Y-57459523D01*
X343891964Y-57411904D01*
X343939583Y-57364285D01*
X343987202Y-57269047D01*
X343987202Y-57078571D01*
X344034821Y-56983333D01*
X344082440Y-56935714D01*
X344177678Y-56888095D01*
X344368154Y-56888095D01*
X344463392Y-56935714D01*
X344511011Y-56983333D01*
X344558630Y-57078571D01*
X344558630Y-57269047D01*
X344511011Y-57364285D01*
X344463392Y-57411904D01*
X344368154Y-57459523D01*
X344177678Y-57459523D01*
X344082440Y-57411904D01*
X344034821Y-57364285D01*
X343987202Y-57269047D01*
X343558630Y-58364285D02*
X343558630Y-57888095D01*
X344034821Y-57840476D01*
X343987202Y-57888095D01*
X343939583Y-57983333D01*
X343939583Y-58221428D01*
X343987202Y-58316666D01*
X344034821Y-58364285D01*
X344130059Y-58411904D01*
X344368154Y-58411904D01*
X344463392Y-58364285D01*
X344511011Y-58316666D01*
X344558630Y-58221428D01*
X344558630Y-57983333D01*
X344511011Y-57888095D01*
X344463392Y-57840476D01*
%TO.C,D84*%
X344558631Y-36885714D02*
X343558631Y-36885714D01*
X343558631Y-37123809D01*
X343606251Y-37266666D01*
X343701489Y-37361904D01*
X343796727Y-37409523D01*
X343987203Y-37457142D01*
X344130060Y-37457142D01*
X344320536Y-37409523D01*
X344415774Y-37361904D01*
X344511012Y-37266666D01*
X344558631Y-37123809D01*
X344558631Y-36885714D01*
X343987203Y-38028571D02*
X343939584Y-37933333D01*
X343891965Y-37885714D01*
X343796727Y-37838095D01*
X343749108Y-37838095D01*
X343653870Y-37885714D01*
X343606251Y-37933333D01*
X343558631Y-38028571D01*
X343558631Y-38219047D01*
X343606251Y-38314285D01*
X343653870Y-38361904D01*
X343749108Y-38409523D01*
X343796727Y-38409523D01*
X343891965Y-38361904D01*
X343939584Y-38314285D01*
X343987203Y-38219047D01*
X343987203Y-38028571D01*
X344034822Y-37933333D01*
X344082441Y-37885714D01*
X344177679Y-37838095D01*
X344368155Y-37838095D01*
X344463393Y-37885714D01*
X344511012Y-37933333D01*
X344558631Y-38028571D01*
X344558631Y-38219047D01*
X344511012Y-38314285D01*
X344463393Y-38361904D01*
X344368155Y-38409523D01*
X344177679Y-38409523D01*
X344082441Y-38361904D01*
X344034822Y-38314285D01*
X343987203Y-38219047D01*
X343891965Y-39266666D02*
X344558631Y-39266666D01*
X343511012Y-39028571D02*
X344225298Y-38790476D01*
X344225298Y-39409523D01*
%TO.C,D83*%
X344558631Y-17835714D02*
X343558631Y-17835714D01*
X343558631Y-18073809D01*
X343606251Y-18216666D01*
X343701489Y-18311904D01*
X343796727Y-18359523D01*
X343987203Y-18407142D01*
X344130060Y-18407142D01*
X344320536Y-18359523D01*
X344415774Y-18311904D01*
X344511012Y-18216666D01*
X344558631Y-18073809D01*
X344558631Y-17835714D01*
X343987203Y-18978571D02*
X343939584Y-18883333D01*
X343891965Y-18835714D01*
X343796727Y-18788095D01*
X343749108Y-18788095D01*
X343653870Y-18835714D01*
X343606251Y-18883333D01*
X343558631Y-18978571D01*
X343558631Y-19169047D01*
X343606251Y-19264285D01*
X343653870Y-19311904D01*
X343749108Y-19359523D01*
X343796727Y-19359523D01*
X343891965Y-19311904D01*
X343939584Y-19264285D01*
X343987203Y-19169047D01*
X343987203Y-18978571D01*
X344034822Y-18883333D01*
X344082441Y-18835714D01*
X344177679Y-18788095D01*
X344368155Y-18788095D01*
X344463393Y-18835714D01*
X344511012Y-18883333D01*
X344558631Y-18978571D01*
X344558631Y-19169047D01*
X344511012Y-19264285D01*
X344463393Y-19311904D01*
X344368155Y-19359523D01*
X344177679Y-19359523D01*
X344082441Y-19311904D01*
X344034822Y-19264285D01*
X343987203Y-19169047D01*
X343558631Y-19692857D02*
X343558631Y-20311904D01*
X343939584Y-19978571D01*
X343939584Y-20121428D01*
X343987203Y-20216666D01*
X344034822Y-20264285D01*
X344130060Y-20311904D01*
X344368155Y-20311904D01*
X344463393Y-20264285D01*
X344511012Y-20216666D01*
X344558631Y-20121428D01*
X344558631Y-19835714D01*
X344511012Y-19740476D01*
X344463393Y-19692857D01*
%TO.C,D82*%
X325508630Y-94035714D02*
X324508630Y-94035714D01*
X324508630Y-94273809D01*
X324556250Y-94416666D01*
X324651488Y-94511904D01*
X324746726Y-94559523D01*
X324937202Y-94607142D01*
X325080059Y-94607142D01*
X325270535Y-94559523D01*
X325365773Y-94511904D01*
X325461011Y-94416666D01*
X325508630Y-94273809D01*
X325508630Y-94035714D01*
X324937202Y-95178571D02*
X324889583Y-95083333D01*
X324841964Y-95035714D01*
X324746726Y-94988095D01*
X324699107Y-94988095D01*
X324603869Y-95035714D01*
X324556250Y-95083333D01*
X324508630Y-95178571D01*
X324508630Y-95369047D01*
X324556250Y-95464285D01*
X324603869Y-95511904D01*
X324699107Y-95559523D01*
X324746726Y-95559523D01*
X324841964Y-95511904D01*
X324889583Y-95464285D01*
X324937202Y-95369047D01*
X324937202Y-95178571D01*
X324984821Y-95083333D01*
X325032440Y-95035714D01*
X325127678Y-94988095D01*
X325318154Y-94988095D01*
X325413392Y-95035714D01*
X325461011Y-95083333D01*
X325508630Y-95178571D01*
X325508630Y-95369047D01*
X325461011Y-95464285D01*
X325413392Y-95511904D01*
X325318154Y-95559523D01*
X325127678Y-95559523D01*
X325032440Y-95511904D01*
X324984821Y-95464285D01*
X324937202Y-95369047D01*
X324603869Y-95940476D02*
X324556250Y-95988095D01*
X324508630Y-96083333D01*
X324508630Y-96321428D01*
X324556250Y-96416666D01*
X324603869Y-96464285D01*
X324699107Y-96511904D01*
X324794345Y-96511904D01*
X324937202Y-96464285D01*
X325508630Y-95892857D01*
X325508630Y-96511904D01*
%TO.C,D81*%
X335033630Y-74985714D02*
X334033630Y-74985714D01*
X334033630Y-75223809D01*
X334081250Y-75366666D01*
X334176488Y-75461904D01*
X334271726Y-75509523D01*
X334462202Y-75557142D01*
X334605059Y-75557142D01*
X334795535Y-75509523D01*
X334890773Y-75461904D01*
X334986011Y-75366666D01*
X335033630Y-75223809D01*
X335033630Y-74985714D01*
X334462202Y-76128571D02*
X334414583Y-76033333D01*
X334366964Y-75985714D01*
X334271726Y-75938095D01*
X334224107Y-75938095D01*
X334128869Y-75985714D01*
X334081250Y-76033333D01*
X334033630Y-76128571D01*
X334033630Y-76319047D01*
X334081250Y-76414285D01*
X334128869Y-76461904D01*
X334224107Y-76509523D01*
X334271726Y-76509523D01*
X334366964Y-76461904D01*
X334414583Y-76414285D01*
X334462202Y-76319047D01*
X334462202Y-76128571D01*
X334509821Y-76033333D01*
X334557440Y-75985714D01*
X334652678Y-75938095D01*
X334843154Y-75938095D01*
X334938392Y-75985714D01*
X334986011Y-76033333D01*
X335033630Y-76128571D01*
X335033630Y-76319047D01*
X334986011Y-76414285D01*
X334938392Y-76461904D01*
X334843154Y-76509523D01*
X334652678Y-76509523D01*
X334557440Y-76461904D01*
X334509821Y-76414285D01*
X334462202Y-76319047D01*
X335033630Y-77461904D02*
X335033630Y-76890476D01*
X335033630Y-77176190D02*
X334033630Y-77176190D01*
X334176488Y-77080952D01*
X334271726Y-76985714D01*
X334319345Y-76890476D01*
%TO.C,D80*%
X325508631Y-55935714D02*
X324508631Y-55935714D01*
X324508631Y-56173809D01*
X324556251Y-56316666D01*
X324651489Y-56411904D01*
X324746727Y-56459523D01*
X324937203Y-56507142D01*
X325080060Y-56507142D01*
X325270536Y-56459523D01*
X325365774Y-56411904D01*
X325461012Y-56316666D01*
X325508631Y-56173809D01*
X325508631Y-55935714D01*
X324937203Y-57078571D02*
X324889584Y-56983333D01*
X324841965Y-56935714D01*
X324746727Y-56888095D01*
X324699108Y-56888095D01*
X324603870Y-56935714D01*
X324556251Y-56983333D01*
X324508631Y-57078571D01*
X324508631Y-57269047D01*
X324556251Y-57364285D01*
X324603870Y-57411904D01*
X324699108Y-57459523D01*
X324746727Y-57459523D01*
X324841965Y-57411904D01*
X324889584Y-57364285D01*
X324937203Y-57269047D01*
X324937203Y-57078571D01*
X324984822Y-56983333D01*
X325032441Y-56935714D01*
X325127679Y-56888095D01*
X325318155Y-56888095D01*
X325413393Y-56935714D01*
X325461012Y-56983333D01*
X325508631Y-57078571D01*
X325508631Y-57269047D01*
X325461012Y-57364285D01*
X325413393Y-57411904D01*
X325318155Y-57459523D01*
X325127679Y-57459523D01*
X325032441Y-57411904D01*
X324984822Y-57364285D01*
X324937203Y-57269047D01*
X324508631Y-58078571D02*
X324508631Y-58173809D01*
X324556251Y-58269047D01*
X324603870Y-58316666D01*
X324699108Y-58364285D01*
X324889584Y-58411904D01*
X325127679Y-58411904D01*
X325318155Y-58364285D01*
X325413393Y-58316666D01*
X325461012Y-58269047D01*
X325508631Y-58173809D01*
X325508631Y-58078571D01*
X325461012Y-57983333D01*
X325413393Y-57935714D01*
X325318155Y-57888095D01*
X325127679Y-57840476D01*
X324889584Y-57840476D01*
X324699108Y-57888095D01*
X324603870Y-57935714D01*
X324556251Y-57983333D01*
X324508631Y-58078571D01*
%TO.C,D79*%
X325508631Y-36885714D02*
X324508631Y-36885714D01*
X324508631Y-37123809D01*
X324556251Y-37266666D01*
X324651489Y-37361904D01*
X324746727Y-37409523D01*
X324937203Y-37457142D01*
X325080060Y-37457142D01*
X325270536Y-37409523D01*
X325365774Y-37361904D01*
X325461012Y-37266666D01*
X325508631Y-37123809D01*
X325508631Y-36885714D01*
X324508631Y-37790476D02*
X324508631Y-38457142D01*
X325508631Y-38028571D01*
X325508631Y-38885714D02*
X325508631Y-39076190D01*
X325461012Y-39171428D01*
X325413393Y-39219047D01*
X325270536Y-39314285D01*
X325080060Y-39361904D01*
X324699108Y-39361904D01*
X324603870Y-39314285D01*
X324556251Y-39266666D01*
X324508631Y-39171428D01*
X324508631Y-38980952D01*
X324556251Y-38885714D01*
X324603870Y-38838095D01*
X324699108Y-38790476D01*
X324937203Y-38790476D01*
X325032441Y-38838095D01*
X325080060Y-38885714D01*
X325127679Y-38980952D01*
X325127679Y-39171428D01*
X325080060Y-39266666D01*
X325032441Y-39314285D01*
X324937203Y-39361904D01*
%TO.C,D78*%
X325413380Y-17835714D02*
X324413380Y-17835714D01*
X324413380Y-18073809D01*
X324461000Y-18216666D01*
X324556238Y-18311904D01*
X324651476Y-18359523D01*
X324841952Y-18407142D01*
X324984809Y-18407142D01*
X325175285Y-18359523D01*
X325270523Y-18311904D01*
X325365761Y-18216666D01*
X325413380Y-18073809D01*
X325413380Y-17835714D01*
X324413380Y-18740476D02*
X324413380Y-19407142D01*
X325413380Y-18978571D01*
X324841952Y-19930952D02*
X324794333Y-19835714D01*
X324746714Y-19788095D01*
X324651476Y-19740476D01*
X324603857Y-19740476D01*
X324508619Y-19788095D01*
X324461000Y-19835714D01*
X324413380Y-19930952D01*
X324413380Y-20121428D01*
X324461000Y-20216666D01*
X324508619Y-20264285D01*
X324603857Y-20311904D01*
X324651476Y-20311904D01*
X324746714Y-20264285D01*
X324794333Y-20216666D01*
X324841952Y-20121428D01*
X324841952Y-19930952D01*
X324889571Y-19835714D01*
X324937190Y-19788095D01*
X325032428Y-19740476D01*
X325222904Y-19740476D01*
X325318142Y-19788095D01*
X325365761Y-19835714D01*
X325413380Y-19930952D01*
X325413380Y-20121428D01*
X325365761Y-20216666D01*
X325318142Y-20264285D01*
X325222904Y-20311904D01*
X325032428Y-20311904D01*
X324937190Y-20264285D01*
X324889571Y-20216666D01*
X324841952Y-20121428D01*
%TO.C,D77*%
X287408630Y-94035714D02*
X286408630Y-94035714D01*
X286408630Y-94273809D01*
X286456250Y-94416666D01*
X286551488Y-94511904D01*
X286646726Y-94559523D01*
X286837202Y-94607142D01*
X286980059Y-94607142D01*
X287170535Y-94559523D01*
X287265773Y-94511904D01*
X287361011Y-94416666D01*
X287408630Y-94273809D01*
X287408630Y-94035714D01*
X286408630Y-94940476D02*
X286408630Y-95607142D01*
X287408630Y-95178571D01*
X286408630Y-95892857D02*
X286408630Y-96559523D01*
X287408630Y-96130952D01*
%TO.C,D76*%
X296933630Y-74985714D02*
X295933630Y-74985714D01*
X295933630Y-75223809D01*
X295981250Y-75366666D01*
X296076488Y-75461904D01*
X296171726Y-75509523D01*
X296362202Y-75557142D01*
X296505059Y-75557142D01*
X296695535Y-75509523D01*
X296790773Y-75461904D01*
X296886011Y-75366666D01*
X296933630Y-75223809D01*
X296933630Y-74985714D01*
X295933630Y-75890476D02*
X295933630Y-76557142D01*
X296933630Y-76128571D01*
X295933630Y-77366666D02*
X295933630Y-77176190D01*
X295981250Y-77080952D01*
X296028869Y-77033333D01*
X296171726Y-76938095D01*
X296362202Y-76890476D01*
X296743154Y-76890476D01*
X296838392Y-76938095D01*
X296886011Y-76985714D01*
X296933630Y-77080952D01*
X296933630Y-77271428D01*
X296886011Y-77366666D01*
X296838392Y-77414285D01*
X296743154Y-77461904D01*
X296505059Y-77461904D01*
X296409821Y-77414285D01*
X296362202Y-77366666D01*
X296314583Y-77271428D01*
X296314583Y-77080952D01*
X296362202Y-76985714D01*
X296409821Y-76938095D01*
X296505059Y-76890476D01*
%TO.C,D75*%
X275989297Y-62340787D02*
X275282190Y-61633681D01*
X275113831Y-61802039D01*
X275046488Y-61936726D01*
X275046488Y-62071413D01*
X275080160Y-62172429D01*
X275181175Y-62340787D01*
X275282190Y-62441803D01*
X275450549Y-62542818D01*
X275551564Y-62576490D01*
X275686251Y-62576490D01*
X275820938Y-62509146D01*
X275989297Y-62340787D01*
X274642427Y-62273444D02*
X274171022Y-62744848D01*
X275181175Y-63148910D01*
X273564931Y-63350940D02*
X273901648Y-63014223D01*
X274272037Y-63317268D01*
X274204694Y-63317268D01*
X274103679Y-63350940D01*
X273935320Y-63519299D01*
X273901648Y-63620314D01*
X273901648Y-63687658D01*
X273935320Y-63788673D01*
X274103679Y-63957032D01*
X274204694Y-63990703D01*
X274272037Y-63990703D01*
X274373053Y-63957032D01*
X274541411Y-63788673D01*
X274575083Y-63687658D01*
X274575083Y-63620314D01*
%TO.C,D74*%
X285514297Y-43290787D02*
X284807190Y-42583681D01*
X284638831Y-42752039D01*
X284571488Y-42886726D01*
X284571488Y-43021413D01*
X284605160Y-43122429D01*
X284706175Y-43290787D01*
X284807190Y-43391803D01*
X284975549Y-43492818D01*
X285076564Y-43526490D01*
X285211251Y-43526490D01*
X285345938Y-43459146D01*
X285514297Y-43290787D01*
X284167427Y-43223444D02*
X283696022Y-43694848D01*
X284706175Y-44098910D01*
X283359305Y-44502971D02*
X283830709Y-44974375D01*
X283258289Y-44065238D02*
X283931724Y-44401955D01*
X283493992Y-44839688D01*
%TO.C,D73*%
X285514297Y-24240787D02*
X284807190Y-23533681D01*
X284638831Y-23702039D01*
X284571488Y-23836726D01*
X284571488Y-23971413D01*
X284605160Y-24072429D01*
X284706175Y-24240787D01*
X284807190Y-24341803D01*
X284975549Y-24442818D01*
X285076564Y-24476490D01*
X285211251Y-24476490D01*
X285345938Y-24409146D01*
X285514297Y-24240787D01*
X284167427Y-24173444D02*
X283696022Y-24644848D01*
X284706175Y-25048910D01*
X283493992Y-24846879D02*
X283056259Y-25284612D01*
X283561335Y-25318284D01*
X283460320Y-25419299D01*
X283426648Y-25520314D01*
X283426648Y-25587658D01*
X283460320Y-25688673D01*
X283628679Y-25857032D01*
X283729694Y-25890703D01*
X283797037Y-25890703D01*
X283898053Y-25857032D01*
X284100083Y-25655001D01*
X284133755Y-25553986D01*
X284133755Y-25486642D01*
%TO.C,D72*%
X242164880Y-94035714D02*
X241164880Y-94035714D01*
X241164880Y-94273809D01*
X241212500Y-94416666D01*
X241307738Y-94511904D01*
X241402976Y-94559523D01*
X241593452Y-94607142D01*
X241736309Y-94607142D01*
X241926785Y-94559523D01*
X242022023Y-94511904D01*
X242117261Y-94416666D01*
X242164880Y-94273809D01*
X242164880Y-94035714D01*
X241164880Y-94940476D02*
X241164880Y-95607142D01*
X242164880Y-95178571D01*
X241260119Y-95940476D02*
X241212500Y-95988095D01*
X241164880Y-96083333D01*
X241164880Y-96321428D01*
X241212500Y-96416666D01*
X241260119Y-96464285D01*
X241355357Y-96511904D01*
X241450595Y-96511904D01*
X241593452Y-96464285D01*
X242164880Y-95892857D01*
X242164880Y-96511904D01*
%TO.C,D71*%
X251689880Y-74985714D02*
X250689880Y-74985714D01*
X250689880Y-75223809D01*
X250737500Y-75366666D01*
X250832738Y-75461904D01*
X250927976Y-75509523D01*
X251118452Y-75557142D01*
X251261309Y-75557142D01*
X251451785Y-75509523D01*
X251547023Y-75461904D01*
X251642261Y-75366666D01*
X251689880Y-75223809D01*
X251689880Y-74985714D01*
X250689880Y-75890476D02*
X250689880Y-76557142D01*
X251689880Y-76128571D01*
X251689880Y-77461904D02*
X251689880Y-76890476D01*
X251689880Y-77176190D02*
X250689880Y-77176190D01*
X250832738Y-77080952D01*
X250927976Y-76985714D01*
X250975595Y-76890476D01*
%TO.C,D70*%
X262008630Y-59904464D02*
X261008630Y-59904464D01*
X261008630Y-60142559D01*
X261056250Y-60285416D01*
X261151488Y-60380654D01*
X261246726Y-60428273D01*
X261437202Y-60475892D01*
X261580059Y-60475892D01*
X261770535Y-60428273D01*
X261865773Y-60380654D01*
X261961011Y-60285416D01*
X262008630Y-60142559D01*
X262008630Y-59904464D01*
X261008630Y-60809226D02*
X261008630Y-61475892D01*
X262008630Y-61047321D01*
X261008630Y-62047321D02*
X261008630Y-62142559D01*
X261056250Y-62237797D01*
X261103869Y-62285416D01*
X261199107Y-62333035D01*
X261389583Y-62380654D01*
X261627678Y-62380654D01*
X261818154Y-62333035D01*
X261913392Y-62285416D01*
X261961011Y-62237797D01*
X262008630Y-62142559D01*
X262008630Y-62047321D01*
X261961011Y-61952083D01*
X261913392Y-61904464D01*
X261818154Y-61856845D01*
X261627678Y-61809226D01*
X261389583Y-61809226D01*
X261199107Y-61856845D01*
X261103869Y-61904464D01*
X261056250Y-61952083D01*
X261008630Y-62047321D01*
%TO.C,D69*%
X284527962Y-20401797D02*
X285235068Y-19694690D01*
X285066710Y-19526331D01*
X284932023Y-19458988D01*
X284797336Y-19458988D01*
X284696320Y-19492660D01*
X284527962Y-19593675D01*
X284426946Y-19694690D01*
X284325931Y-19863049D01*
X284292259Y-19964064D01*
X284292259Y-20098751D01*
X284359603Y-20233438D01*
X284527962Y-20401797D01*
X284224916Y-18684537D02*
X284359603Y-18819224D01*
X284393275Y-18920240D01*
X284393275Y-18987583D01*
X284359603Y-19155942D01*
X284258588Y-19324301D01*
X283989214Y-19593675D01*
X283888198Y-19627347D01*
X283820855Y-19627347D01*
X283719839Y-19593675D01*
X283585152Y-19458988D01*
X283551481Y-19357973D01*
X283551481Y-19290629D01*
X283585152Y-19189614D01*
X283753511Y-19021255D01*
X283854526Y-18987583D01*
X283921870Y-18987583D01*
X284022885Y-19021255D01*
X284157572Y-19155942D01*
X284191244Y-19256957D01*
X284191244Y-19324301D01*
X284157572Y-19425316D01*
X283113748Y-18987583D02*
X282979061Y-18852896D01*
X282945389Y-18751881D01*
X282945389Y-18684537D01*
X282979061Y-18516179D01*
X283080076Y-18347820D01*
X283349450Y-18078446D01*
X283450465Y-18044774D01*
X283517809Y-18044774D01*
X283618824Y-18078446D01*
X283753511Y-18213133D01*
X283787183Y-18314148D01*
X283787183Y-18381492D01*
X283753511Y-18482507D01*
X283585152Y-18650866D01*
X283484137Y-18684537D01*
X283416794Y-18684537D01*
X283315778Y-18650866D01*
X283181091Y-18516179D01*
X283147420Y-18415163D01*
X283147420Y-18347820D01*
X283181091Y-18246805D01*
%TO.C,D68*%
X287758035Y6310120D02*
X287758035Y7310120D01*
X287519940Y7310120D01*
X287377083Y7262501D01*
X287281845Y7167262D01*
X287234226Y7072024D01*
X287186607Y6881548D01*
X287186607Y6738691D01*
X287234226Y6548215D01*
X287281845Y6452977D01*
X287377083Y6357739D01*
X287519940Y6310120D01*
X287758035Y6310120D01*
X286329464Y7310120D02*
X286519940Y7310120D01*
X286615178Y7262501D01*
X286662797Y7214881D01*
X286758035Y7072024D01*
X286805654Y6881548D01*
X286805654Y6500596D01*
X286758035Y6405358D01*
X286710416Y6357739D01*
X286615178Y6310120D01*
X286424702Y6310120D01*
X286329464Y6357739D01*
X286281845Y6405358D01*
X286234226Y6500596D01*
X286234226Y6738691D01*
X286281845Y6833929D01*
X286329464Y6881548D01*
X286424702Y6929167D01*
X286615178Y6929167D01*
X286710416Y6881548D01*
X286758035Y6833929D01*
X286805654Y6738691D01*
X285662797Y6881548D02*
X285758035Y6929167D01*
X285805654Y6976786D01*
X285853273Y7072024D01*
X285853273Y7119643D01*
X285805654Y7214881D01*
X285758035Y7262501D01*
X285662797Y7310120D01*
X285472321Y7310120D01*
X285377083Y7262501D01*
X285329464Y7214881D01*
X285281845Y7119643D01*
X285281845Y7072024D01*
X285329464Y6976786D01*
X285377083Y6929167D01*
X285472321Y6881548D01*
X285662797Y6881548D01*
X285758035Y6833929D01*
X285805654Y6786310D01*
X285853273Y6691072D01*
X285853273Y6500596D01*
X285805654Y6405358D01*
X285758035Y6357739D01*
X285662797Y6310120D01*
X285472321Y6310120D01*
X285377083Y6357739D01*
X285329464Y6405358D01*
X285281845Y6500596D01*
X285281845Y6691072D01*
X285329464Y6786310D01*
X285377083Y6833929D01*
X285472321Y6881548D01*
%TO.C,D67*%
X218352380Y-94035714D02*
X217352380Y-94035714D01*
X217352380Y-94273809D01*
X217400000Y-94416666D01*
X217495238Y-94511904D01*
X217590476Y-94559523D01*
X217780952Y-94607142D01*
X217923809Y-94607142D01*
X218114285Y-94559523D01*
X218209523Y-94511904D01*
X218304761Y-94416666D01*
X218352380Y-94273809D01*
X218352380Y-94035714D01*
X217352380Y-95464285D02*
X217352380Y-95273809D01*
X217400000Y-95178571D01*
X217447619Y-95130952D01*
X217590476Y-95035714D01*
X217780952Y-94988095D01*
X218161904Y-94988095D01*
X218257142Y-95035714D01*
X218304761Y-95083333D01*
X218352380Y-95178571D01*
X218352380Y-95369047D01*
X218304761Y-95464285D01*
X218257142Y-95511904D01*
X218161904Y-95559523D01*
X217923809Y-95559523D01*
X217828571Y-95511904D01*
X217780952Y-95464285D01*
X217733333Y-95369047D01*
X217733333Y-95178571D01*
X217780952Y-95083333D01*
X217828571Y-95035714D01*
X217923809Y-94988095D01*
X217352380Y-95892857D02*
X217352380Y-96559523D01*
X218352380Y-96130952D01*
%TO.C,D66*%
X225496131Y-74985714D02*
X224496131Y-74985714D01*
X224496131Y-75223809D01*
X224543751Y-75366666D01*
X224638989Y-75461904D01*
X224734227Y-75509523D01*
X224924703Y-75557142D01*
X225067560Y-75557142D01*
X225258036Y-75509523D01*
X225353274Y-75461904D01*
X225448512Y-75366666D01*
X225496131Y-75223809D01*
X225496131Y-74985714D01*
X224496131Y-76414285D02*
X224496131Y-76223809D01*
X224543751Y-76128571D01*
X224591370Y-76080952D01*
X224734227Y-75985714D01*
X224924703Y-75938095D01*
X225305655Y-75938095D01*
X225400893Y-75985714D01*
X225448512Y-76033333D01*
X225496131Y-76128571D01*
X225496131Y-76319047D01*
X225448512Y-76414285D01*
X225400893Y-76461904D01*
X225305655Y-76509523D01*
X225067560Y-76509523D01*
X224972322Y-76461904D01*
X224924703Y-76414285D01*
X224877084Y-76319047D01*
X224877084Y-76128571D01*
X224924703Y-76033333D01*
X224972322Y-75985714D01*
X225067560Y-75938095D01*
X224496131Y-77366666D02*
X224496131Y-77176190D01*
X224543751Y-77080952D01*
X224591370Y-77033333D01*
X224734227Y-76938095D01*
X224924703Y-76890476D01*
X225305655Y-76890476D01*
X225400893Y-76938095D01*
X225448512Y-76985714D01*
X225496131Y-77080952D01*
X225496131Y-77271428D01*
X225448512Y-77366666D01*
X225400893Y-77414285D01*
X225305655Y-77461904D01*
X225067560Y-77461904D01*
X224972322Y-77414285D01*
X224924703Y-77366666D01*
X224877084Y-77271428D01*
X224877084Y-77080952D01*
X224924703Y-76985714D01*
X224972322Y-76938095D01*
X225067560Y-76890476D01*
%TO.C,D65*%
X235021131Y-55935714D02*
X234021131Y-55935714D01*
X234021131Y-56173809D01*
X234068751Y-56316666D01*
X234163989Y-56411904D01*
X234259227Y-56459523D01*
X234449703Y-56507142D01*
X234592560Y-56507142D01*
X234783036Y-56459523D01*
X234878274Y-56411904D01*
X234973512Y-56316666D01*
X235021131Y-56173809D01*
X235021131Y-55935714D01*
X234021131Y-57364285D02*
X234021131Y-57173809D01*
X234068751Y-57078571D01*
X234116370Y-57030952D01*
X234259227Y-56935714D01*
X234449703Y-56888095D01*
X234830655Y-56888095D01*
X234925893Y-56935714D01*
X234973512Y-56983333D01*
X235021131Y-57078571D01*
X235021131Y-57269047D01*
X234973512Y-57364285D01*
X234925893Y-57411904D01*
X234830655Y-57459523D01*
X234592560Y-57459523D01*
X234497322Y-57411904D01*
X234449703Y-57364285D01*
X234402084Y-57269047D01*
X234402084Y-57078571D01*
X234449703Y-56983333D01*
X234497322Y-56935714D01*
X234592560Y-56888095D01*
X234021131Y-58364285D02*
X234021131Y-57888095D01*
X234497322Y-57840476D01*
X234449703Y-57888095D01*
X234402084Y-57983333D01*
X234402084Y-58221428D01*
X234449703Y-58316666D01*
X234497322Y-58364285D01*
X234592560Y-58411904D01*
X234830655Y-58411904D01*
X234925893Y-58364285D01*
X234973512Y-58316666D01*
X235021131Y-58221428D01*
X235021131Y-57983333D01*
X234973512Y-57888095D01*
X234925893Y-57840476D01*
%TO.C,D64*%
X248514880Y-39266964D02*
X247514880Y-39266964D01*
X247514880Y-39505059D01*
X247562500Y-39647916D01*
X247657738Y-39743154D01*
X247752976Y-39790773D01*
X247943452Y-39838392D01*
X248086309Y-39838392D01*
X248276785Y-39790773D01*
X248372023Y-39743154D01*
X248467261Y-39647916D01*
X248514880Y-39505059D01*
X248514880Y-39266964D01*
X247514880Y-40695535D02*
X247514880Y-40505059D01*
X247562500Y-40409821D01*
X247610119Y-40362202D01*
X247752976Y-40266964D01*
X247943452Y-40219345D01*
X248324404Y-40219345D01*
X248419642Y-40266964D01*
X248467261Y-40314583D01*
X248514880Y-40409821D01*
X248514880Y-40600297D01*
X248467261Y-40695535D01*
X248419642Y-40743154D01*
X248324404Y-40790773D01*
X248086309Y-40790773D01*
X247991071Y-40743154D01*
X247943452Y-40695535D01*
X247895833Y-40600297D01*
X247895833Y-40409821D01*
X247943452Y-40314583D01*
X247991071Y-40266964D01*
X248086309Y-40219345D01*
X247848214Y-41647916D02*
X248514880Y-41647916D01*
X247467261Y-41409821D02*
X248181547Y-41171726D01*
X248181547Y-41790773D01*
%TO.C,D63*%
X258833630Y-17835714D02*
X257833630Y-17835714D01*
X257833630Y-18073809D01*
X257881250Y-18216666D01*
X257976488Y-18311904D01*
X258071726Y-18359523D01*
X258262202Y-18407142D01*
X258405059Y-18407142D01*
X258595535Y-18359523D01*
X258690773Y-18311904D01*
X258786011Y-18216666D01*
X258833630Y-18073809D01*
X258833630Y-17835714D01*
X257833630Y-19264285D02*
X257833630Y-19073809D01*
X257881250Y-18978571D01*
X257928869Y-18930952D01*
X258071726Y-18835714D01*
X258262202Y-18788095D01*
X258643154Y-18788095D01*
X258738392Y-18835714D01*
X258786011Y-18883333D01*
X258833630Y-18978571D01*
X258833630Y-19169047D01*
X258786011Y-19264285D01*
X258738392Y-19311904D01*
X258643154Y-19359523D01*
X258405059Y-19359523D01*
X258309821Y-19311904D01*
X258262202Y-19264285D01*
X258214583Y-19169047D01*
X258214583Y-18978571D01*
X258262202Y-18883333D01*
X258309821Y-18835714D01*
X258405059Y-18788095D01*
X257833630Y-19692857D02*
X257833630Y-20311904D01*
X258214583Y-19978571D01*
X258214583Y-20121428D01*
X258262202Y-20216666D01*
X258309821Y-20264285D01*
X258405059Y-20311904D01*
X258643154Y-20311904D01*
X258738392Y-20264285D01*
X258786011Y-20216666D01*
X258833630Y-20121428D01*
X258833630Y-19835714D01*
X258786011Y-19740476D01*
X258738392Y-19692857D01*
%TO.C,D62*%
X258833630Y1214285D02*
X257833630Y1214285D01*
X257833630Y976190D01*
X257881250Y833333D01*
X257976488Y738095D01*
X258071726Y690476D01*
X258262202Y642857D01*
X258405059Y642857D01*
X258595535Y690476D01*
X258690773Y738095D01*
X258786011Y833333D01*
X258833630Y976190D01*
X258833630Y1214285D01*
X257833630Y-214285D02*
X257833630Y-23809D01*
X257881250Y71428D01*
X257928869Y119047D01*
X258071726Y214285D01*
X258262202Y261904D01*
X258643154Y261904D01*
X258738392Y214285D01*
X258786011Y166666D01*
X258833630Y71428D01*
X258833630Y-119047D01*
X258786011Y-214285D01*
X258738392Y-261904D01*
X258643154Y-309523D01*
X258405059Y-309523D01*
X258309821Y-261904D01*
X258262202Y-214285D01*
X258214583Y-119047D01*
X258214583Y71428D01*
X258262202Y166666D01*
X258309821Y214285D01*
X258405059Y261904D01*
X257928869Y-690476D02*
X257881250Y-738095D01*
X257833630Y-833333D01*
X257833630Y-1071428D01*
X257881250Y-1166666D01*
X257928869Y-1214285D01*
X258024107Y-1261904D01*
X258119345Y-1261904D01*
X258262202Y-1214285D01*
X258833630Y-642857D01*
X258833630Y-1261904D01*
%TO.C,D61*%
X206446130Y-74985714D02*
X205446130Y-74985714D01*
X205446130Y-75223809D01*
X205493750Y-75366666D01*
X205588988Y-75461904D01*
X205684226Y-75509523D01*
X205874702Y-75557142D01*
X206017559Y-75557142D01*
X206208035Y-75509523D01*
X206303273Y-75461904D01*
X206398511Y-75366666D01*
X206446130Y-75223809D01*
X206446130Y-74985714D01*
X205446130Y-76414285D02*
X205446130Y-76223809D01*
X205493750Y-76128571D01*
X205541369Y-76080952D01*
X205684226Y-75985714D01*
X205874702Y-75938095D01*
X206255654Y-75938095D01*
X206350892Y-75985714D01*
X206398511Y-76033333D01*
X206446130Y-76128571D01*
X206446130Y-76319047D01*
X206398511Y-76414285D01*
X206350892Y-76461904D01*
X206255654Y-76509523D01*
X206017559Y-76509523D01*
X205922321Y-76461904D01*
X205874702Y-76414285D01*
X205827083Y-76319047D01*
X205827083Y-76128571D01*
X205874702Y-76033333D01*
X205922321Y-75985714D01*
X206017559Y-75938095D01*
X206446130Y-77461904D02*
X206446130Y-76890476D01*
X206446130Y-77176190D02*
X205446130Y-77176190D01*
X205588988Y-77080952D01*
X205684226Y-76985714D01*
X205731845Y-76890476D01*
%TO.C,D60*%
X215971131Y-55935714D02*
X214971131Y-55935714D01*
X214971131Y-56173809D01*
X215018751Y-56316666D01*
X215113989Y-56411904D01*
X215209227Y-56459523D01*
X215399703Y-56507142D01*
X215542560Y-56507142D01*
X215733036Y-56459523D01*
X215828274Y-56411904D01*
X215923512Y-56316666D01*
X215971131Y-56173809D01*
X215971131Y-55935714D01*
X214971131Y-57364285D02*
X214971131Y-57173809D01*
X215018751Y-57078571D01*
X215066370Y-57030952D01*
X215209227Y-56935714D01*
X215399703Y-56888095D01*
X215780655Y-56888095D01*
X215875893Y-56935714D01*
X215923512Y-56983333D01*
X215971131Y-57078571D01*
X215971131Y-57269047D01*
X215923512Y-57364285D01*
X215875893Y-57411904D01*
X215780655Y-57459523D01*
X215542560Y-57459523D01*
X215447322Y-57411904D01*
X215399703Y-57364285D01*
X215352084Y-57269047D01*
X215352084Y-57078571D01*
X215399703Y-56983333D01*
X215447322Y-56935714D01*
X215542560Y-56888095D01*
X214971131Y-58078571D02*
X214971131Y-58173809D01*
X215018751Y-58269047D01*
X215066370Y-58316666D01*
X215161608Y-58364285D01*
X215352084Y-58411904D01*
X215590179Y-58411904D01*
X215780655Y-58364285D01*
X215875893Y-58316666D01*
X215923512Y-58269047D01*
X215971131Y-58173809D01*
X215971131Y-58078571D01*
X215923512Y-57983333D01*
X215875893Y-57935714D01*
X215780655Y-57888095D01*
X215590179Y-57840476D01*
X215352084Y-57840476D01*
X215161608Y-57888095D01*
X215066370Y-57935714D01*
X215018751Y-57983333D01*
X214971131Y-58078571D01*
%TO.C,D59*%
X230258630Y-36885714D02*
X229258630Y-36885714D01*
X229258630Y-37123809D01*
X229306250Y-37266666D01*
X229401488Y-37361904D01*
X229496726Y-37409523D01*
X229687202Y-37457142D01*
X229830059Y-37457142D01*
X230020535Y-37409523D01*
X230115773Y-37361904D01*
X230211011Y-37266666D01*
X230258630Y-37123809D01*
X230258630Y-36885714D01*
X229258630Y-38361904D02*
X229258630Y-37885714D01*
X229734821Y-37838095D01*
X229687202Y-37885714D01*
X229639583Y-37980952D01*
X229639583Y-38219047D01*
X229687202Y-38314285D01*
X229734821Y-38361904D01*
X229830059Y-38409523D01*
X230068154Y-38409523D01*
X230163392Y-38361904D01*
X230211011Y-38314285D01*
X230258630Y-38219047D01*
X230258630Y-37980952D01*
X230211011Y-37885714D01*
X230163392Y-37838095D01*
X230258630Y-38885714D02*
X230258630Y-39076190D01*
X230211011Y-39171428D01*
X230163392Y-39219047D01*
X230020535Y-39314285D01*
X229830059Y-39361904D01*
X229449107Y-39361904D01*
X229353869Y-39314285D01*
X229306250Y-39266666D01*
X229258630Y-39171428D01*
X229258630Y-38980952D01*
X229306250Y-38885714D01*
X229353869Y-38838095D01*
X229449107Y-38790476D01*
X229687202Y-38790476D01*
X229782440Y-38838095D01*
X229830059Y-38885714D01*
X229877678Y-38980952D01*
X229877678Y-39171428D01*
X229830059Y-39266666D01*
X229782440Y-39314285D01*
X229687202Y-39361904D01*
%TO.C,D58*%
X239783630Y-17835714D02*
X238783630Y-17835714D01*
X238783630Y-18073809D01*
X238831250Y-18216666D01*
X238926488Y-18311904D01*
X239021726Y-18359523D01*
X239212202Y-18407142D01*
X239355059Y-18407142D01*
X239545535Y-18359523D01*
X239640773Y-18311904D01*
X239736011Y-18216666D01*
X239783630Y-18073809D01*
X239783630Y-17835714D01*
X238783630Y-19311904D02*
X238783630Y-18835714D01*
X239259821Y-18788095D01*
X239212202Y-18835714D01*
X239164583Y-18930952D01*
X239164583Y-19169047D01*
X239212202Y-19264285D01*
X239259821Y-19311904D01*
X239355059Y-19359523D01*
X239593154Y-19359523D01*
X239688392Y-19311904D01*
X239736011Y-19264285D01*
X239783630Y-19169047D01*
X239783630Y-18930952D01*
X239736011Y-18835714D01*
X239688392Y-18788095D01*
X239212202Y-19930952D02*
X239164583Y-19835714D01*
X239116964Y-19788095D01*
X239021726Y-19740476D01*
X238974107Y-19740476D01*
X238878869Y-19788095D01*
X238831250Y-19835714D01*
X238783630Y-19930952D01*
X238783630Y-20121428D01*
X238831250Y-20216666D01*
X238878869Y-20264285D01*
X238974107Y-20311904D01*
X239021726Y-20311904D01*
X239116964Y-20264285D01*
X239164583Y-20216666D01*
X239212202Y-20121428D01*
X239212202Y-19930952D01*
X239259821Y-19835714D01*
X239307440Y-19788095D01*
X239402678Y-19740476D01*
X239593154Y-19740476D01*
X239688392Y-19788095D01*
X239736011Y-19835714D01*
X239783630Y-19930952D01*
X239783630Y-20121428D01*
X239736011Y-20216666D01*
X239688392Y-20264285D01*
X239593154Y-20311904D01*
X239402678Y-20311904D01*
X239307440Y-20264285D01*
X239259821Y-20216666D01*
X239212202Y-20121428D01*
%TO.C,D57*%
X239783630Y1214285D02*
X238783630Y1214285D01*
X238783630Y976190D01*
X238831250Y833333D01*
X238926488Y738095D01*
X239021726Y690476D01*
X239212202Y642857D01*
X239355059Y642857D01*
X239545535Y690476D01*
X239640773Y738095D01*
X239736011Y833333D01*
X239783630Y976190D01*
X239783630Y1214285D01*
X238783630Y-261904D02*
X238783630Y214285D01*
X239259821Y261904D01*
X239212202Y214285D01*
X239164583Y119047D01*
X239164583Y-119047D01*
X239212202Y-214285D01*
X239259821Y-261904D01*
X239355059Y-309523D01*
X239593154Y-309523D01*
X239688392Y-261904D01*
X239736011Y-214285D01*
X239783630Y-119047D01*
X239783630Y119047D01*
X239736011Y214285D01*
X239688392Y261904D01*
X238783630Y-642857D02*
X238783630Y-1309523D01*
X239783630Y-880952D01*
%TO.C,D56*%
X187396130Y-74985714D02*
X186396130Y-74985714D01*
X186396130Y-75223809D01*
X186443750Y-75366666D01*
X186538988Y-75461904D01*
X186634226Y-75509523D01*
X186824702Y-75557142D01*
X186967559Y-75557142D01*
X187158035Y-75509523D01*
X187253273Y-75461904D01*
X187348511Y-75366666D01*
X187396130Y-75223809D01*
X187396130Y-74985714D01*
X186396130Y-76461904D02*
X186396130Y-75985714D01*
X186872321Y-75938095D01*
X186824702Y-75985714D01*
X186777083Y-76080952D01*
X186777083Y-76319047D01*
X186824702Y-76414285D01*
X186872321Y-76461904D01*
X186967559Y-76509523D01*
X187205654Y-76509523D01*
X187300892Y-76461904D01*
X187348511Y-76414285D01*
X187396130Y-76319047D01*
X187396130Y-76080952D01*
X187348511Y-75985714D01*
X187300892Y-75938095D01*
X186396130Y-77366666D02*
X186396130Y-77176190D01*
X186443750Y-77080952D01*
X186491369Y-77033333D01*
X186634226Y-76938095D01*
X186824702Y-76890476D01*
X187205654Y-76890476D01*
X187300892Y-76938095D01*
X187348511Y-76985714D01*
X187396130Y-77080952D01*
X187396130Y-77271428D01*
X187348511Y-77366666D01*
X187300892Y-77414285D01*
X187205654Y-77461904D01*
X186967559Y-77461904D01*
X186872321Y-77414285D01*
X186824702Y-77366666D01*
X186777083Y-77271428D01*
X186777083Y-77080952D01*
X186824702Y-76985714D01*
X186872321Y-76938095D01*
X186967559Y-76890476D01*
%TO.C,D55*%
X196921130Y-55935714D02*
X195921130Y-55935714D01*
X195921130Y-56173809D01*
X195968750Y-56316666D01*
X196063988Y-56411904D01*
X196159226Y-56459523D01*
X196349702Y-56507142D01*
X196492559Y-56507142D01*
X196683035Y-56459523D01*
X196778273Y-56411904D01*
X196873511Y-56316666D01*
X196921130Y-56173809D01*
X196921130Y-55935714D01*
X195921130Y-57411904D02*
X195921130Y-56935714D01*
X196397321Y-56888095D01*
X196349702Y-56935714D01*
X196302083Y-57030952D01*
X196302083Y-57269047D01*
X196349702Y-57364285D01*
X196397321Y-57411904D01*
X196492559Y-57459523D01*
X196730654Y-57459523D01*
X196825892Y-57411904D01*
X196873511Y-57364285D01*
X196921130Y-57269047D01*
X196921130Y-57030952D01*
X196873511Y-56935714D01*
X196825892Y-56888095D01*
X195921130Y-58364285D02*
X195921130Y-57888095D01*
X196397321Y-57840476D01*
X196349702Y-57888095D01*
X196302083Y-57983333D01*
X196302083Y-58221428D01*
X196349702Y-58316666D01*
X196397321Y-58364285D01*
X196492559Y-58411904D01*
X196730654Y-58411904D01*
X196825892Y-58364285D01*
X196873511Y-58316666D01*
X196921130Y-58221428D01*
X196921130Y-57983333D01*
X196873511Y-57888095D01*
X196825892Y-57840476D01*
%TO.C,D54*%
X211208630Y-36885714D02*
X210208630Y-36885714D01*
X210208630Y-37123809D01*
X210256250Y-37266666D01*
X210351488Y-37361904D01*
X210446726Y-37409523D01*
X210637202Y-37457142D01*
X210780059Y-37457142D01*
X210970535Y-37409523D01*
X211065773Y-37361904D01*
X211161011Y-37266666D01*
X211208630Y-37123809D01*
X211208630Y-36885714D01*
X210208630Y-38361904D02*
X210208630Y-37885714D01*
X210684821Y-37838095D01*
X210637202Y-37885714D01*
X210589583Y-37980952D01*
X210589583Y-38219047D01*
X210637202Y-38314285D01*
X210684821Y-38361904D01*
X210780059Y-38409523D01*
X211018154Y-38409523D01*
X211113392Y-38361904D01*
X211161011Y-38314285D01*
X211208630Y-38219047D01*
X211208630Y-37980952D01*
X211161011Y-37885714D01*
X211113392Y-37838095D01*
X210541964Y-39266666D02*
X211208630Y-39266666D01*
X210161011Y-39028571D02*
X210875297Y-38790476D01*
X210875297Y-39409523D01*
%TO.C,D53*%
X220733630Y-17835714D02*
X219733630Y-17835714D01*
X219733630Y-18073809D01*
X219781250Y-18216666D01*
X219876488Y-18311904D01*
X219971726Y-18359523D01*
X220162202Y-18407142D01*
X220305059Y-18407142D01*
X220495535Y-18359523D01*
X220590773Y-18311904D01*
X220686011Y-18216666D01*
X220733630Y-18073809D01*
X220733630Y-17835714D01*
X219733630Y-19311904D02*
X219733630Y-18835714D01*
X220209821Y-18788095D01*
X220162202Y-18835714D01*
X220114583Y-18930952D01*
X220114583Y-19169047D01*
X220162202Y-19264285D01*
X220209821Y-19311904D01*
X220305059Y-19359523D01*
X220543154Y-19359523D01*
X220638392Y-19311904D01*
X220686011Y-19264285D01*
X220733630Y-19169047D01*
X220733630Y-18930952D01*
X220686011Y-18835714D01*
X220638392Y-18788095D01*
X219733630Y-19692857D02*
X219733630Y-20311904D01*
X220114583Y-19978571D01*
X220114583Y-20121428D01*
X220162202Y-20216666D01*
X220209821Y-20264285D01*
X220305059Y-20311904D01*
X220543154Y-20311904D01*
X220638392Y-20264285D01*
X220686011Y-20216666D01*
X220733630Y-20121428D01*
X220733630Y-19835714D01*
X220686011Y-19740476D01*
X220638392Y-19692857D01*
%TO.C,D52*%
X220733630Y1214285D02*
X219733630Y1214285D01*
X219733630Y976190D01*
X219781250Y833333D01*
X219876488Y738095D01*
X219971726Y690476D01*
X220162202Y642857D01*
X220305059Y642857D01*
X220495535Y690476D01*
X220590773Y738095D01*
X220686011Y833333D01*
X220733630Y976190D01*
X220733630Y1214285D01*
X219733630Y-261904D02*
X219733630Y214285D01*
X220209821Y261904D01*
X220162202Y214285D01*
X220114583Y119047D01*
X220114583Y-119047D01*
X220162202Y-214285D01*
X220209821Y-261904D01*
X220305059Y-309523D01*
X220543154Y-309523D01*
X220638392Y-261904D01*
X220686011Y-214285D01*
X220733630Y-119047D01*
X220733630Y119047D01*
X220686011Y214285D01*
X220638392Y261904D01*
X219828869Y-690476D02*
X219781250Y-738095D01*
X219733630Y-833333D01*
X219733630Y-1071428D01*
X219781250Y-1166666D01*
X219828869Y-1214285D01*
X219924107Y-1261904D01*
X220019345Y-1261904D01*
X220162202Y-1214285D01*
X220733630Y-642857D01*
X220733630Y-1261904D01*
%TO.C,D51*%
X168346130Y-74985714D02*
X167346130Y-74985714D01*
X167346130Y-75223809D01*
X167393750Y-75366666D01*
X167488988Y-75461904D01*
X167584226Y-75509523D01*
X167774702Y-75557142D01*
X167917559Y-75557142D01*
X168108035Y-75509523D01*
X168203273Y-75461904D01*
X168298511Y-75366666D01*
X168346130Y-75223809D01*
X168346130Y-74985714D01*
X167346130Y-76461904D02*
X167346130Y-75985714D01*
X167822321Y-75938095D01*
X167774702Y-75985714D01*
X167727083Y-76080952D01*
X167727083Y-76319047D01*
X167774702Y-76414285D01*
X167822321Y-76461904D01*
X167917559Y-76509523D01*
X168155654Y-76509523D01*
X168250892Y-76461904D01*
X168298511Y-76414285D01*
X168346130Y-76319047D01*
X168346130Y-76080952D01*
X168298511Y-75985714D01*
X168250892Y-75938095D01*
X168346130Y-77461904D02*
X168346130Y-76890476D01*
X168346130Y-77176190D02*
X167346130Y-77176190D01*
X167488988Y-77080952D01*
X167584226Y-76985714D01*
X167631845Y-76890476D01*
%TO.C,D50*%
X177871130Y-55935714D02*
X176871130Y-55935714D01*
X176871130Y-56173809D01*
X176918750Y-56316666D01*
X177013988Y-56411904D01*
X177109226Y-56459523D01*
X177299702Y-56507142D01*
X177442559Y-56507142D01*
X177633035Y-56459523D01*
X177728273Y-56411904D01*
X177823511Y-56316666D01*
X177871130Y-56173809D01*
X177871130Y-55935714D01*
X176871130Y-57411904D02*
X176871130Y-56935714D01*
X177347321Y-56888095D01*
X177299702Y-56935714D01*
X177252083Y-57030952D01*
X177252083Y-57269047D01*
X177299702Y-57364285D01*
X177347321Y-57411904D01*
X177442559Y-57459523D01*
X177680654Y-57459523D01*
X177775892Y-57411904D01*
X177823511Y-57364285D01*
X177871130Y-57269047D01*
X177871130Y-57030952D01*
X177823511Y-56935714D01*
X177775892Y-56888095D01*
X176871130Y-58078571D02*
X176871130Y-58173809D01*
X176918750Y-58269047D01*
X176966369Y-58316666D01*
X177061607Y-58364285D01*
X177252083Y-58411904D01*
X177490178Y-58411904D01*
X177680654Y-58364285D01*
X177775892Y-58316666D01*
X177823511Y-58269047D01*
X177871130Y-58173809D01*
X177871130Y-58078571D01*
X177823511Y-57983333D01*
X177775892Y-57935714D01*
X177680654Y-57888095D01*
X177490178Y-57840476D01*
X177252083Y-57840476D01*
X177061607Y-57888095D01*
X176966369Y-57935714D01*
X176918750Y-57983333D01*
X176871130Y-58078571D01*
%TO.C,D49*%
X192158630Y-36885714D02*
X191158630Y-36885714D01*
X191158630Y-37123809D01*
X191206250Y-37266666D01*
X191301488Y-37361904D01*
X191396726Y-37409523D01*
X191587202Y-37457142D01*
X191730059Y-37457142D01*
X191920535Y-37409523D01*
X192015773Y-37361904D01*
X192111011Y-37266666D01*
X192158630Y-37123809D01*
X192158630Y-36885714D01*
X191491964Y-38314285D02*
X192158630Y-38314285D01*
X191111011Y-38076190D02*
X191825297Y-37838095D01*
X191825297Y-38457142D01*
X192158630Y-38885714D02*
X192158630Y-39076190D01*
X192111011Y-39171428D01*
X192063392Y-39219047D01*
X191920535Y-39314285D01*
X191730059Y-39361904D01*
X191349107Y-39361904D01*
X191253869Y-39314285D01*
X191206250Y-39266666D01*
X191158630Y-39171428D01*
X191158630Y-38980952D01*
X191206250Y-38885714D01*
X191253869Y-38838095D01*
X191349107Y-38790476D01*
X191587202Y-38790476D01*
X191682440Y-38838095D01*
X191730059Y-38885714D01*
X191777678Y-38980952D01*
X191777678Y-39171428D01*
X191730059Y-39266666D01*
X191682440Y-39314285D01*
X191587202Y-39361904D01*
%TO.C,D48*%
X201683630Y-17835714D02*
X200683630Y-17835714D01*
X200683630Y-18073809D01*
X200731250Y-18216666D01*
X200826488Y-18311904D01*
X200921726Y-18359523D01*
X201112202Y-18407142D01*
X201255059Y-18407142D01*
X201445535Y-18359523D01*
X201540773Y-18311904D01*
X201636011Y-18216666D01*
X201683630Y-18073809D01*
X201683630Y-17835714D01*
X201016964Y-19264285D02*
X201683630Y-19264285D01*
X200636011Y-19026190D02*
X201350297Y-18788095D01*
X201350297Y-19407142D01*
X201112202Y-19930952D02*
X201064583Y-19835714D01*
X201016964Y-19788095D01*
X200921726Y-19740476D01*
X200874107Y-19740476D01*
X200778869Y-19788095D01*
X200731250Y-19835714D01*
X200683630Y-19930952D01*
X200683630Y-20121428D01*
X200731250Y-20216666D01*
X200778869Y-20264285D01*
X200874107Y-20311904D01*
X200921726Y-20311904D01*
X201016964Y-20264285D01*
X201064583Y-20216666D01*
X201112202Y-20121428D01*
X201112202Y-19930952D01*
X201159821Y-19835714D01*
X201207440Y-19788095D01*
X201302678Y-19740476D01*
X201493154Y-19740476D01*
X201588392Y-19788095D01*
X201636011Y-19835714D01*
X201683630Y-19930952D01*
X201683630Y-20121428D01*
X201636011Y-20216666D01*
X201588392Y-20264285D01*
X201493154Y-20311904D01*
X201302678Y-20311904D01*
X201207440Y-20264285D01*
X201159821Y-20216666D01*
X201112202Y-20121428D01*
%TO.C,D47*%
X201683630Y1214285D02*
X200683630Y1214285D01*
X200683630Y976190D01*
X200731250Y833333D01*
X200826488Y738095D01*
X200921726Y690476D01*
X201112202Y642857D01*
X201255059Y642857D01*
X201445535Y690476D01*
X201540773Y738095D01*
X201636011Y833333D01*
X201683630Y976190D01*
X201683630Y1214285D01*
X201016964Y-214285D02*
X201683630Y-214285D01*
X200636011Y23809D02*
X201350297Y261904D01*
X201350297Y-357142D01*
X200683630Y-642857D02*
X200683630Y-1309523D01*
X201683630Y-880952D01*
%TO.C,D46*%
X173108630Y-36885714D02*
X172108630Y-36885714D01*
X172108630Y-37123809D01*
X172156250Y-37266666D01*
X172251488Y-37361904D01*
X172346726Y-37409523D01*
X172537202Y-37457142D01*
X172680059Y-37457142D01*
X172870535Y-37409523D01*
X172965773Y-37361904D01*
X173061011Y-37266666D01*
X173108630Y-37123809D01*
X173108630Y-36885714D01*
X172441964Y-38314285D02*
X173108630Y-38314285D01*
X172061011Y-38076190D02*
X172775297Y-37838095D01*
X172775297Y-38457142D01*
X172108630Y-39266666D02*
X172108630Y-39076190D01*
X172156250Y-38980952D01*
X172203869Y-38933333D01*
X172346726Y-38838095D01*
X172537202Y-38790476D01*
X172918154Y-38790476D01*
X173013392Y-38838095D01*
X173061011Y-38885714D01*
X173108630Y-38980952D01*
X173108630Y-39171428D01*
X173061011Y-39266666D01*
X173013392Y-39314285D01*
X172918154Y-39361904D01*
X172680059Y-39361904D01*
X172584821Y-39314285D01*
X172537202Y-39266666D01*
X172489583Y-39171428D01*
X172489583Y-38980952D01*
X172537202Y-38885714D01*
X172584821Y-38838095D01*
X172680059Y-38790476D01*
%TO.C,D45*%
X182633630Y-17835714D02*
X181633630Y-17835714D01*
X181633630Y-18073809D01*
X181681250Y-18216666D01*
X181776488Y-18311904D01*
X181871726Y-18359523D01*
X182062202Y-18407142D01*
X182205059Y-18407142D01*
X182395535Y-18359523D01*
X182490773Y-18311904D01*
X182586011Y-18216666D01*
X182633630Y-18073809D01*
X182633630Y-17835714D01*
X181966964Y-19264285D02*
X182633630Y-19264285D01*
X181586011Y-19026190D02*
X182300297Y-18788095D01*
X182300297Y-19407142D01*
X181633630Y-20264285D02*
X181633630Y-19788095D01*
X182109821Y-19740476D01*
X182062202Y-19788095D01*
X182014583Y-19883333D01*
X182014583Y-20121428D01*
X182062202Y-20216666D01*
X182109821Y-20264285D01*
X182205059Y-20311904D01*
X182443154Y-20311904D01*
X182538392Y-20264285D01*
X182586011Y-20216666D01*
X182633630Y-20121428D01*
X182633630Y-19883333D01*
X182586011Y-19788095D01*
X182538392Y-19740476D01*
%TO.C,D44*%
X182633630Y1214285D02*
X181633630Y1214285D01*
X181633630Y976190D01*
X181681250Y833333D01*
X181776488Y738095D01*
X181871726Y690476D01*
X182062202Y642857D01*
X182205059Y642857D01*
X182395535Y690476D01*
X182490773Y738095D01*
X182586011Y833333D01*
X182633630Y976190D01*
X182633630Y1214285D01*
X181966964Y-214285D02*
X182633630Y-214285D01*
X181586011Y23809D02*
X182300297Y261904D01*
X182300297Y-357142D01*
X181966964Y-1166666D02*
X182633630Y-1166666D01*
X181586011Y-928571D02*
X182300297Y-690476D01*
X182300297Y-1309523D01*
%TO.C,D43*%
X163583630Y-17835714D02*
X162583630Y-17835714D01*
X162583630Y-18073809D01*
X162631250Y-18216666D01*
X162726488Y-18311904D01*
X162821726Y-18359523D01*
X163012202Y-18407142D01*
X163155059Y-18407142D01*
X163345535Y-18359523D01*
X163440773Y-18311904D01*
X163536011Y-18216666D01*
X163583630Y-18073809D01*
X163583630Y-17835714D01*
X162916964Y-19264285D02*
X163583630Y-19264285D01*
X162536011Y-19026190D02*
X163250297Y-18788095D01*
X163250297Y-19407142D01*
X162583630Y-19692857D02*
X162583630Y-20311904D01*
X162964583Y-19978571D01*
X162964583Y-20121428D01*
X163012202Y-20216666D01*
X163059821Y-20264285D01*
X163155059Y-20311904D01*
X163393154Y-20311904D01*
X163488392Y-20264285D01*
X163536011Y-20216666D01*
X163583630Y-20121428D01*
X163583630Y-19835714D01*
X163536011Y-19740476D01*
X163488392Y-19692857D01*
%TO.C,D42*%
X163583630Y1214285D02*
X162583630Y1214285D01*
X162583630Y976190D01*
X162631250Y833333D01*
X162726488Y738095D01*
X162821726Y690476D01*
X163012202Y642857D01*
X163155059Y642857D01*
X163345535Y690476D01*
X163440773Y738095D01*
X163536011Y833333D01*
X163583630Y976190D01*
X163583630Y1214285D01*
X162916964Y-214285D02*
X163583630Y-214285D01*
X162536011Y23809D02*
X163250297Y261904D01*
X163250297Y-357142D01*
X162678869Y-690476D02*
X162631250Y-738095D01*
X162583630Y-833333D01*
X162583630Y-1071428D01*
X162631250Y-1166666D01*
X162678869Y-1214285D01*
X162774107Y-1261904D01*
X162869345Y-1261904D01*
X163012202Y-1214285D01*
X163583630Y-642857D01*
X163583630Y-1261904D01*
%TO.C,D41*%
X158821130Y-55935714D02*
X157821130Y-55935714D01*
X157821130Y-56173809D01*
X157868750Y-56316666D01*
X157963988Y-56411904D01*
X158059226Y-56459523D01*
X158249702Y-56507142D01*
X158392559Y-56507142D01*
X158583035Y-56459523D01*
X158678273Y-56411904D01*
X158773511Y-56316666D01*
X158821130Y-56173809D01*
X158821130Y-55935714D01*
X158154464Y-57364285D02*
X158821130Y-57364285D01*
X157773511Y-57126190D02*
X158487797Y-56888095D01*
X158487797Y-57507142D01*
X158821130Y-58411904D02*
X158821130Y-57840476D01*
X158821130Y-58126190D02*
X157821130Y-58126190D01*
X157963988Y-58030952D01*
X158059226Y-57935714D01*
X158106845Y-57840476D01*
%TO.C,D40*%
X154058630Y-36885714D02*
X153058630Y-36885714D01*
X153058630Y-37123809D01*
X153106250Y-37266666D01*
X153201488Y-37361904D01*
X153296726Y-37409523D01*
X153487202Y-37457142D01*
X153630059Y-37457142D01*
X153820535Y-37409523D01*
X153915773Y-37361904D01*
X154011011Y-37266666D01*
X154058630Y-37123809D01*
X154058630Y-36885714D01*
X153391964Y-38314285D02*
X154058630Y-38314285D01*
X153011011Y-38076190D02*
X153725297Y-37838095D01*
X153725297Y-38457142D01*
X153058630Y-39028571D02*
X153058630Y-39123809D01*
X153106250Y-39219047D01*
X153153869Y-39266666D01*
X153249107Y-39314285D01*
X153439583Y-39361904D01*
X153677678Y-39361904D01*
X153868154Y-39314285D01*
X153963392Y-39266666D01*
X154011011Y-39219047D01*
X154058630Y-39123809D01*
X154058630Y-39028571D01*
X154011011Y-38933333D01*
X153963392Y-38885714D01*
X153868154Y-38838095D01*
X153677678Y-38790476D01*
X153439583Y-38790476D01*
X153249107Y-38838095D01*
X153153869Y-38885714D01*
X153106250Y-38933333D01*
X153058630Y-39028571D01*
%TO.C,D39*%
X144533630Y-17835714D02*
X143533630Y-17835714D01*
X143533630Y-18073809D01*
X143581250Y-18216666D01*
X143676488Y-18311904D01*
X143771726Y-18359523D01*
X143962202Y-18407142D01*
X144105059Y-18407142D01*
X144295535Y-18359523D01*
X144390773Y-18311904D01*
X144486011Y-18216666D01*
X144533630Y-18073809D01*
X144533630Y-17835714D01*
X143533630Y-18740476D02*
X143533630Y-19359523D01*
X143914583Y-19026190D01*
X143914583Y-19169047D01*
X143962202Y-19264285D01*
X144009821Y-19311904D01*
X144105059Y-19359523D01*
X144343154Y-19359523D01*
X144438392Y-19311904D01*
X144486011Y-19264285D01*
X144533630Y-19169047D01*
X144533630Y-18883333D01*
X144486011Y-18788095D01*
X144438392Y-18740476D01*
X144533630Y-19835714D02*
X144533630Y-20026190D01*
X144486011Y-20121428D01*
X144438392Y-20169047D01*
X144295535Y-20264285D01*
X144105059Y-20311904D01*
X143724107Y-20311904D01*
X143628869Y-20264285D01*
X143581250Y-20216666D01*
X143533630Y-20121428D01*
X143533630Y-19930952D01*
X143581250Y-19835714D01*
X143628869Y-19788095D01*
X143724107Y-19740476D01*
X143962202Y-19740476D01*
X144057440Y-19788095D01*
X144105059Y-19835714D01*
X144152678Y-19930952D01*
X144152678Y-20121428D01*
X144105059Y-20216666D01*
X144057440Y-20264285D01*
X143962202Y-20311904D01*
%TO.C,D38*%
X135008630Y1214285D02*
X134008630Y1214285D01*
X134008630Y976190D01*
X134056250Y833333D01*
X134151488Y738095D01*
X134246726Y690476D01*
X134437202Y642857D01*
X134580059Y642857D01*
X134770535Y690476D01*
X134865773Y738095D01*
X134961011Y833333D01*
X135008630Y976190D01*
X135008630Y1214285D01*
X134008630Y309523D02*
X134008630Y-309523D01*
X134389583Y23809D01*
X134389583Y-119047D01*
X134437202Y-214285D01*
X134484821Y-261904D01*
X134580059Y-309523D01*
X134818154Y-309523D01*
X134913392Y-261904D01*
X134961011Y-214285D01*
X135008630Y-119047D01*
X135008630Y166666D01*
X134961011Y261904D01*
X134913392Y309523D01*
X134437202Y-880952D02*
X134389583Y-785714D01*
X134341964Y-738095D01*
X134246726Y-690476D01*
X134199107Y-690476D01*
X134103869Y-738095D01*
X134056250Y-785714D01*
X134008630Y-880952D01*
X134008630Y-1071428D01*
X134056250Y-1166666D01*
X134103869Y-1214285D01*
X134199107Y-1261904D01*
X134246726Y-1261904D01*
X134341964Y-1214285D01*
X134389583Y-1166666D01*
X134437202Y-1071428D01*
X134437202Y-880952D01*
X134484821Y-785714D01*
X134532440Y-738095D01*
X134627678Y-690476D01*
X134818154Y-690476D01*
X134913392Y-738095D01*
X134961011Y-785714D01*
X135008630Y-880952D01*
X135008630Y-1071428D01*
X134961011Y-1166666D01*
X134913392Y-1214285D01*
X134818154Y-1261904D01*
X134627678Y-1261904D01*
X134532440Y-1214285D01*
X134484821Y-1166666D01*
X134437202Y-1071428D01*
%TO.C,D37*%
X149296130Y-74985714D02*
X148296130Y-74985714D01*
X148296130Y-75223809D01*
X148343750Y-75366666D01*
X148438988Y-75461904D01*
X148534226Y-75509523D01*
X148724702Y-75557142D01*
X148867559Y-75557142D01*
X149058035Y-75509523D01*
X149153273Y-75461904D01*
X149248511Y-75366666D01*
X149296130Y-75223809D01*
X149296130Y-74985714D01*
X148296130Y-75890476D02*
X148296130Y-76509523D01*
X148677083Y-76176190D01*
X148677083Y-76319047D01*
X148724702Y-76414285D01*
X148772321Y-76461904D01*
X148867559Y-76509523D01*
X149105654Y-76509523D01*
X149200892Y-76461904D01*
X149248511Y-76414285D01*
X149296130Y-76319047D01*
X149296130Y-76033333D01*
X149248511Y-75938095D01*
X149200892Y-75890476D01*
X148296130Y-76842857D02*
X148296130Y-77509523D01*
X149296130Y-77080952D01*
%TO.C,D36*%
X139771130Y-55935714D02*
X138771130Y-55935714D01*
X138771130Y-56173809D01*
X138818750Y-56316666D01*
X138913988Y-56411904D01*
X139009226Y-56459523D01*
X139199702Y-56507142D01*
X139342559Y-56507142D01*
X139533035Y-56459523D01*
X139628273Y-56411904D01*
X139723511Y-56316666D01*
X139771130Y-56173809D01*
X139771130Y-55935714D01*
X138771130Y-56840476D02*
X138771130Y-57459523D01*
X139152083Y-57126190D01*
X139152083Y-57269047D01*
X139199702Y-57364285D01*
X139247321Y-57411904D01*
X139342559Y-57459523D01*
X139580654Y-57459523D01*
X139675892Y-57411904D01*
X139723511Y-57364285D01*
X139771130Y-57269047D01*
X139771130Y-56983333D01*
X139723511Y-56888095D01*
X139675892Y-56840476D01*
X138771130Y-58316666D02*
X138771130Y-58126190D01*
X138818750Y-58030952D01*
X138866369Y-57983333D01*
X139009226Y-57888095D01*
X139199702Y-57840476D01*
X139580654Y-57840476D01*
X139675892Y-57888095D01*
X139723511Y-57935714D01*
X139771130Y-58030952D01*
X139771130Y-58221428D01*
X139723511Y-58316666D01*
X139675892Y-58364285D01*
X139580654Y-58411904D01*
X139342559Y-58411904D01*
X139247321Y-58364285D01*
X139199702Y-58316666D01*
X139152083Y-58221428D01*
X139152083Y-58030952D01*
X139199702Y-57935714D01*
X139247321Y-57888095D01*
X139342559Y-57840476D01*
%TO.C,D35*%
X135008630Y-36885714D02*
X134008630Y-36885714D01*
X134008630Y-37123809D01*
X134056250Y-37266666D01*
X134151488Y-37361904D01*
X134246726Y-37409523D01*
X134437202Y-37457142D01*
X134580059Y-37457142D01*
X134770535Y-37409523D01*
X134865773Y-37361904D01*
X134961011Y-37266666D01*
X135008630Y-37123809D01*
X135008630Y-36885714D01*
X134008630Y-37790476D02*
X134008630Y-38409523D01*
X134389583Y-38076190D01*
X134389583Y-38219047D01*
X134437202Y-38314285D01*
X134484821Y-38361904D01*
X134580059Y-38409523D01*
X134818154Y-38409523D01*
X134913392Y-38361904D01*
X134961011Y-38314285D01*
X135008630Y-38219047D01*
X135008630Y-37933333D01*
X134961011Y-37838095D01*
X134913392Y-37790476D01*
X134008630Y-39314285D02*
X134008630Y-38838095D01*
X134484821Y-38790476D01*
X134437202Y-38838095D01*
X134389583Y-38933333D01*
X134389583Y-39171428D01*
X134437202Y-39266666D01*
X134484821Y-39314285D01*
X134580059Y-39361904D01*
X134818154Y-39361904D01*
X134913392Y-39314285D01*
X134961011Y-39266666D01*
X135008630Y-39171428D01*
X135008630Y-38933333D01*
X134961011Y-38838095D01*
X134913392Y-38790476D01*
%TO.C,D34*%
X125483630Y-17835714D02*
X124483630Y-17835714D01*
X124483630Y-18073809D01*
X124531250Y-18216666D01*
X124626488Y-18311904D01*
X124721726Y-18359523D01*
X124912202Y-18407142D01*
X125055059Y-18407142D01*
X125245535Y-18359523D01*
X125340773Y-18311904D01*
X125436011Y-18216666D01*
X125483630Y-18073809D01*
X125483630Y-17835714D01*
X124483630Y-18740476D02*
X124483630Y-19359523D01*
X124864583Y-19026190D01*
X124864583Y-19169047D01*
X124912202Y-19264285D01*
X124959821Y-19311904D01*
X125055059Y-19359523D01*
X125293154Y-19359523D01*
X125388392Y-19311904D01*
X125436011Y-19264285D01*
X125483630Y-19169047D01*
X125483630Y-18883333D01*
X125436011Y-18788095D01*
X125388392Y-18740476D01*
X124816964Y-20216666D02*
X125483630Y-20216666D01*
X124436011Y-19978571D02*
X125150297Y-19740476D01*
X125150297Y-20359523D01*
%TO.C,D33*%
X115958630Y1214285D02*
X114958630Y1214285D01*
X114958630Y976190D01*
X115006250Y833333D01*
X115101488Y738095D01*
X115196726Y690476D01*
X115387202Y642857D01*
X115530059Y642857D01*
X115720535Y690476D01*
X115815773Y738095D01*
X115911011Y833333D01*
X115958630Y976190D01*
X115958630Y1214285D01*
X114958630Y309523D02*
X114958630Y-309523D01*
X115339583Y23809D01*
X115339583Y-119047D01*
X115387202Y-214285D01*
X115434821Y-261904D01*
X115530059Y-309523D01*
X115768154Y-309523D01*
X115863392Y-261904D01*
X115911011Y-214285D01*
X115958630Y-119047D01*
X115958630Y166666D01*
X115911011Y261904D01*
X115863392Y309523D01*
X114958630Y-642857D02*
X114958630Y-1261904D01*
X115339583Y-928571D01*
X115339583Y-1071428D01*
X115387202Y-1166666D01*
X115434821Y-1214285D01*
X115530059Y-1261904D01*
X115768154Y-1261904D01*
X115863392Y-1214285D01*
X115911011Y-1166666D01*
X115958630Y-1071428D01*
X115958630Y-785714D01*
X115911011Y-690476D01*
X115863392Y-642857D01*
%TO.C,D32*%
X139771130Y-94035714D02*
X138771130Y-94035714D01*
X138771130Y-94273809D01*
X138818750Y-94416666D01*
X138913988Y-94511904D01*
X139009226Y-94559523D01*
X139199702Y-94607142D01*
X139342559Y-94607142D01*
X139533035Y-94559523D01*
X139628273Y-94511904D01*
X139723511Y-94416666D01*
X139771130Y-94273809D01*
X139771130Y-94035714D01*
X138771130Y-94940476D02*
X138771130Y-95559523D01*
X139152083Y-95226190D01*
X139152083Y-95369047D01*
X139199702Y-95464285D01*
X139247321Y-95511904D01*
X139342559Y-95559523D01*
X139580654Y-95559523D01*
X139675892Y-95511904D01*
X139723511Y-95464285D01*
X139771130Y-95369047D01*
X139771130Y-95083333D01*
X139723511Y-94988095D01*
X139675892Y-94940476D01*
X138866369Y-95940476D02*
X138818750Y-95988095D01*
X138771130Y-96083333D01*
X138771130Y-96321428D01*
X138818750Y-96416666D01*
X138866369Y-96464285D01*
X138961607Y-96511904D01*
X139056845Y-96511904D01*
X139199702Y-96464285D01*
X139771130Y-95892857D01*
X139771130Y-96511904D01*
%TO.C,D31*%
X130246130Y-74985714D02*
X129246130Y-74985714D01*
X129246130Y-75223809D01*
X129293750Y-75366666D01*
X129388988Y-75461904D01*
X129484226Y-75509523D01*
X129674702Y-75557142D01*
X129817559Y-75557142D01*
X130008035Y-75509523D01*
X130103273Y-75461904D01*
X130198511Y-75366666D01*
X130246130Y-75223809D01*
X130246130Y-74985714D01*
X129246130Y-75890476D02*
X129246130Y-76509523D01*
X129627083Y-76176190D01*
X129627083Y-76319047D01*
X129674702Y-76414285D01*
X129722321Y-76461904D01*
X129817559Y-76509523D01*
X130055654Y-76509523D01*
X130150892Y-76461904D01*
X130198511Y-76414285D01*
X130246130Y-76319047D01*
X130246130Y-76033333D01*
X130198511Y-75938095D01*
X130150892Y-75890476D01*
X130246130Y-77461904D02*
X130246130Y-76890476D01*
X130246130Y-77176190D02*
X129246130Y-77176190D01*
X129388988Y-77080952D01*
X129484226Y-76985714D01*
X129531845Y-76890476D01*
%TO.C,D30*%
X120721130Y-55935714D02*
X119721130Y-55935714D01*
X119721130Y-56173809D01*
X119768750Y-56316666D01*
X119863988Y-56411904D01*
X119959226Y-56459523D01*
X120149702Y-56507142D01*
X120292559Y-56507142D01*
X120483035Y-56459523D01*
X120578273Y-56411904D01*
X120673511Y-56316666D01*
X120721130Y-56173809D01*
X120721130Y-55935714D01*
X119721130Y-56840476D02*
X119721130Y-57459523D01*
X120102083Y-57126190D01*
X120102083Y-57269047D01*
X120149702Y-57364285D01*
X120197321Y-57411904D01*
X120292559Y-57459523D01*
X120530654Y-57459523D01*
X120625892Y-57411904D01*
X120673511Y-57364285D01*
X120721130Y-57269047D01*
X120721130Y-56983333D01*
X120673511Y-56888095D01*
X120625892Y-56840476D01*
X119721130Y-58078571D02*
X119721130Y-58173809D01*
X119768750Y-58269047D01*
X119816369Y-58316666D01*
X119911607Y-58364285D01*
X120102083Y-58411904D01*
X120340178Y-58411904D01*
X120530654Y-58364285D01*
X120625892Y-58316666D01*
X120673511Y-58269047D01*
X120721130Y-58173809D01*
X120721130Y-58078571D01*
X120673511Y-57983333D01*
X120625892Y-57935714D01*
X120530654Y-57888095D01*
X120340178Y-57840476D01*
X120102083Y-57840476D01*
X119911607Y-57888095D01*
X119816369Y-57935714D01*
X119768750Y-57983333D01*
X119721130Y-58078571D01*
%TO.C,D29*%
X115958630Y-36885714D02*
X114958630Y-36885714D01*
X114958630Y-37123809D01*
X115006250Y-37266666D01*
X115101488Y-37361904D01*
X115196726Y-37409523D01*
X115387202Y-37457142D01*
X115530059Y-37457142D01*
X115720535Y-37409523D01*
X115815773Y-37361904D01*
X115911011Y-37266666D01*
X115958630Y-37123809D01*
X115958630Y-36885714D01*
X115053869Y-37838095D02*
X115006250Y-37885714D01*
X114958630Y-37980952D01*
X114958630Y-38219047D01*
X115006250Y-38314285D01*
X115053869Y-38361904D01*
X115149107Y-38409523D01*
X115244345Y-38409523D01*
X115387202Y-38361904D01*
X115958630Y-37790476D01*
X115958630Y-38409523D01*
X115958630Y-38885714D02*
X115958630Y-39076190D01*
X115911011Y-39171428D01*
X115863392Y-39219047D01*
X115720535Y-39314285D01*
X115530059Y-39361904D01*
X115149107Y-39361904D01*
X115053869Y-39314285D01*
X115006250Y-39266666D01*
X114958630Y-39171428D01*
X114958630Y-38980952D01*
X115006250Y-38885714D01*
X115053869Y-38838095D01*
X115149107Y-38790476D01*
X115387202Y-38790476D01*
X115482440Y-38838095D01*
X115530059Y-38885714D01*
X115577678Y-38980952D01*
X115577678Y-39171428D01*
X115530059Y-39266666D01*
X115482440Y-39314285D01*
X115387202Y-39361904D01*
%TO.C,D28*%
X106433630Y-17835714D02*
X105433630Y-17835714D01*
X105433630Y-18073809D01*
X105481250Y-18216666D01*
X105576488Y-18311904D01*
X105671726Y-18359523D01*
X105862202Y-18407142D01*
X106005059Y-18407142D01*
X106195535Y-18359523D01*
X106290773Y-18311904D01*
X106386011Y-18216666D01*
X106433630Y-18073809D01*
X106433630Y-17835714D01*
X105528869Y-18788095D02*
X105481250Y-18835714D01*
X105433630Y-18930952D01*
X105433630Y-19169047D01*
X105481250Y-19264285D01*
X105528869Y-19311904D01*
X105624107Y-19359523D01*
X105719345Y-19359523D01*
X105862202Y-19311904D01*
X106433630Y-18740476D01*
X106433630Y-19359523D01*
X105862202Y-19930952D02*
X105814583Y-19835714D01*
X105766964Y-19788095D01*
X105671726Y-19740476D01*
X105624107Y-19740476D01*
X105528869Y-19788095D01*
X105481250Y-19835714D01*
X105433630Y-19930952D01*
X105433630Y-20121428D01*
X105481250Y-20216666D01*
X105528869Y-20264285D01*
X105624107Y-20311904D01*
X105671726Y-20311904D01*
X105766964Y-20264285D01*
X105814583Y-20216666D01*
X105862202Y-20121428D01*
X105862202Y-19930952D01*
X105909821Y-19835714D01*
X105957440Y-19788095D01*
X106052678Y-19740476D01*
X106243154Y-19740476D01*
X106338392Y-19788095D01*
X106386011Y-19835714D01*
X106433630Y-19930952D01*
X106433630Y-20121428D01*
X106386011Y-20216666D01*
X106338392Y-20264285D01*
X106243154Y-20311904D01*
X106052678Y-20311904D01*
X105957440Y-20264285D01*
X105909821Y-20216666D01*
X105862202Y-20121428D01*
%TO.C,D27*%
X96908630Y1214285D02*
X95908630Y1214285D01*
X95908630Y976190D01*
X95956250Y833333D01*
X96051488Y738095D01*
X96146726Y690476D01*
X96337202Y642857D01*
X96480059Y642857D01*
X96670535Y690476D01*
X96765773Y738095D01*
X96861011Y833333D01*
X96908630Y976190D01*
X96908630Y1214285D01*
X96003869Y261904D02*
X95956250Y214285D01*
X95908630Y119047D01*
X95908630Y-119047D01*
X95956250Y-214285D01*
X96003869Y-261904D01*
X96099107Y-309523D01*
X96194345Y-309523D01*
X96337202Y-261904D01*
X96908630Y309523D01*
X96908630Y-309523D01*
X95908630Y-642857D02*
X95908630Y-1309523D01*
X96908630Y-880952D01*
%TO.C,D26*%
X111196130Y-74985714D02*
X110196130Y-74985714D01*
X110196130Y-75223809D01*
X110243750Y-75366666D01*
X110338988Y-75461904D01*
X110434226Y-75509523D01*
X110624702Y-75557142D01*
X110767559Y-75557142D01*
X110958035Y-75509523D01*
X111053273Y-75461904D01*
X111148511Y-75366666D01*
X111196130Y-75223809D01*
X111196130Y-74985714D01*
X110291369Y-75938095D02*
X110243750Y-75985714D01*
X110196130Y-76080952D01*
X110196130Y-76319047D01*
X110243750Y-76414285D01*
X110291369Y-76461904D01*
X110386607Y-76509523D01*
X110481845Y-76509523D01*
X110624702Y-76461904D01*
X111196130Y-75890476D01*
X111196130Y-76509523D01*
X110196130Y-77366666D02*
X110196130Y-77176190D01*
X110243750Y-77080952D01*
X110291369Y-77033333D01*
X110434226Y-76938095D01*
X110624702Y-76890476D01*
X111005654Y-76890476D01*
X111100892Y-76938095D01*
X111148511Y-76985714D01*
X111196130Y-77080952D01*
X111196130Y-77271428D01*
X111148511Y-77366666D01*
X111100892Y-77414285D01*
X111005654Y-77461904D01*
X110767559Y-77461904D01*
X110672321Y-77414285D01*
X110624702Y-77366666D01*
X110577083Y-77271428D01*
X110577083Y-77080952D01*
X110624702Y-76985714D01*
X110672321Y-76938095D01*
X110767559Y-76890476D01*
%TO.C,D25*%
X101671130Y-55935714D02*
X100671130Y-55935714D01*
X100671130Y-56173809D01*
X100718750Y-56316666D01*
X100813988Y-56411904D01*
X100909226Y-56459523D01*
X101099702Y-56507142D01*
X101242559Y-56507142D01*
X101433035Y-56459523D01*
X101528273Y-56411904D01*
X101623511Y-56316666D01*
X101671130Y-56173809D01*
X101671130Y-55935714D01*
X100766369Y-56888095D02*
X100718750Y-56935714D01*
X100671130Y-57030952D01*
X100671130Y-57269047D01*
X100718750Y-57364285D01*
X100766369Y-57411904D01*
X100861607Y-57459523D01*
X100956845Y-57459523D01*
X101099702Y-57411904D01*
X101671130Y-56840476D01*
X101671130Y-57459523D01*
X100671130Y-58364285D02*
X100671130Y-57888095D01*
X101147321Y-57840476D01*
X101099702Y-57888095D01*
X101052083Y-57983333D01*
X101052083Y-58221428D01*
X101099702Y-58316666D01*
X101147321Y-58364285D01*
X101242559Y-58411904D01*
X101480654Y-58411904D01*
X101575892Y-58364285D01*
X101623511Y-58316666D01*
X101671130Y-58221428D01*
X101671130Y-57983333D01*
X101623511Y-57888095D01*
X101575892Y-57840476D01*
%TO.C,D24*%
X96908630Y-36885714D02*
X95908630Y-36885714D01*
X95908630Y-37123809D01*
X95956250Y-37266666D01*
X96051488Y-37361904D01*
X96146726Y-37409523D01*
X96337202Y-37457142D01*
X96480059Y-37457142D01*
X96670535Y-37409523D01*
X96765773Y-37361904D01*
X96861011Y-37266666D01*
X96908630Y-37123809D01*
X96908630Y-36885714D01*
X96003869Y-37838095D02*
X95956250Y-37885714D01*
X95908630Y-37980952D01*
X95908630Y-38219047D01*
X95956250Y-38314285D01*
X96003869Y-38361904D01*
X96099107Y-38409523D01*
X96194345Y-38409523D01*
X96337202Y-38361904D01*
X96908630Y-37790476D01*
X96908630Y-38409523D01*
X96241964Y-39266666D02*
X96908630Y-39266666D01*
X95861011Y-39028571D02*
X96575297Y-38790476D01*
X96575297Y-39409523D01*
%TO.C,D23*%
X87383630Y-17835714D02*
X86383630Y-17835714D01*
X86383630Y-18073809D01*
X86431250Y-18216666D01*
X86526488Y-18311904D01*
X86621726Y-18359523D01*
X86812202Y-18407142D01*
X86955059Y-18407142D01*
X87145535Y-18359523D01*
X87240773Y-18311904D01*
X87336011Y-18216666D01*
X87383630Y-18073809D01*
X87383630Y-17835714D01*
X86478869Y-18788095D02*
X86431250Y-18835714D01*
X86383630Y-18930952D01*
X86383630Y-19169047D01*
X86431250Y-19264285D01*
X86478869Y-19311904D01*
X86574107Y-19359523D01*
X86669345Y-19359523D01*
X86812202Y-19311904D01*
X87383630Y-18740476D01*
X87383630Y-19359523D01*
X86383630Y-19692857D02*
X86383630Y-20311904D01*
X86764583Y-19978571D01*
X86764583Y-20121428D01*
X86812202Y-20216666D01*
X86859821Y-20264285D01*
X86955059Y-20311904D01*
X87193154Y-20311904D01*
X87288392Y-20264285D01*
X87336011Y-20216666D01*
X87383630Y-20121428D01*
X87383630Y-19835714D01*
X87336011Y-19740476D01*
X87288392Y-19692857D01*
%TO.C,D22*%
X77858630Y1214285D02*
X76858630Y1214285D01*
X76858630Y976190D01*
X76906250Y833333D01*
X77001488Y738095D01*
X77096726Y690476D01*
X77287202Y642857D01*
X77430059Y642857D01*
X77620535Y690476D01*
X77715773Y738095D01*
X77811011Y833333D01*
X77858630Y976190D01*
X77858630Y1214285D01*
X76953869Y261904D02*
X76906250Y214285D01*
X76858630Y119047D01*
X76858630Y-119047D01*
X76906250Y-214285D01*
X76953869Y-261904D01*
X77049107Y-309523D01*
X77144345Y-309523D01*
X77287202Y-261904D01*
X77858630Y309523D01*
X77858630Y-309523D01*
X76953869Y-690476D02*
X76906250Y-738095D01*
X76858630Y-833333D01*
X76858630Y-1071428D01*
X76906250Y-1166666D01*
X76953869Y-1214285D01*
X77049107Y-1261904D01*
X77144345Y-1261904D01*
X77287202Y-1214285D01*
X77858630Y-642857D01*
X77858630Y-1261904D01*
%TO.C,D21*%
X92146130Y-74985714D02*
X91146130Y-74985714D01*
X91146130Y-75223809D01*
X91193750Y-75366666D01*
X91288988Y-75461904D01*
X91384226Y-75509523D01*
X91574702Y-75557142D01*
X91717559Y-75557142D01*
X91908035Y-75509523D01*
X92003273Y-75461904D01*
X92098511Y-75366666D01*
X92146130Y-75223809D01*
X92146130Y-74985714D01*
X91241369Y-75938095D02*
X91193750Y-75985714D01*
X91146130Y-76080952D01*
X91146130Y-76319047D01*
X91193750Y-76414285D01*
X91241369Y-76461904D01*
X91336607Y-76509523D01*
X91431845Y-76509523D01*
X91574702Y-76461904D01*
X92146130Y-75890476D01*
X92146130Y-76509523D01*
X92146130Y-77461904D02*
X92146130Y-76890476D01*
X92146130Y-77176190D02*
X91146130Y-77176190D01*
X91288988Y-77080952D01*
X91384226Y-76985714D01*
X91431845Y-76890476D01*
%TO.C,D20*%
X82621130Y-55935714D02*
X81621130Y-55935714D01*
X81621130Y-56173809D01*
X81668750Y-56316666D01*
X81763988Y-56411904D01*
X81859226Y-56459523D01*
X82049702Y-56507142D01*
X82192559Y-56507142D01*
X82383035Y-56459523D01*
X82478273Y-56411904D01*
X82573511Y-56316666D01*
X82621130Y-56173809D01*
X82621130Y-55935714D01*
X81716369Y-56888095D02*
X81668750Y-56935714D01*
X81621130Y-57030952D01*
X81621130Y-57269047D01*
X81668750Y-57364285D01*
X81716369Y-57411904D01*
X81811607Y-57459523D01*
X81906845Y-57459523D01*
X82049702Y-57411904D01*
X82621130Y-56840476D01*
X82621130Y-57459523D01*
X81621130Y-58078571D02*
X81621130Y-58173809D01*
X81668750Y-58269047D01*
X81716369Y-58316666D01*
X81811607Y-58364285D01*
X82002083Y-58411904D01*
X82240178Y-58411904D01*
X82430654Y-58364285D01*
X82525892Y-58316666D01*
X82573511Y-58269047D01*
X82621130Y-58173809D01*
X82621130Y-58078571D01*
X82573511Y-57983333D01*
X82525892Y-57935714D01*
X82430654Y-57888095D01*
X82240178Y-57840476D01*
X82002083Y-57840476D01*
X81811607Y-57888095D01*
X81716369Y-57935714D01*
X81668750Y-57983333D01*
X81621130Y-58078571D01*
%TO.C,D19*%
X77858630Y-36885714D02*
X76858630Y-36885714D01*
X76858630Y-37123809D01*
X76906250Y-37266666D01*
X77001488Y-37361904D01*
X77096726Y-37409523D01*
X77287202Y-37457142D01*
X77430059Y-37457142D01*
X77620535Y-37409523D01*
X77715773Y-37361904D01*
X77811011Y-37266666D01*
X77858630Y-37123809D01*
X77858630Y-36885714D01*
X77858630Y-38409523D02*
X77858630Y-37838095D01*
X77858630Y-38123809D02*
X76858630Y-38123809D01*
X77001488Y-38028571D01*
X77096726Y-37933333D01*
X77144345Y-37838095D01*
X77858630Y-38885714D02*
X77858630Y-39076190D01*
X77811011Y-39171428D01*
X77763392Y-39219047D01*
X77620535Y-39314285D01*
X77430059Y-39361904D01*
X77049107Y-39361904D01*
X76953869Y-39314285D01*
X76906250Y-39266666D01*
X76858630Y-39171428D01*
X76858630Y-38980952D01*
X76906250Y-38885714D01*
X76953869Y-38838095D01*
X77049107Y-38790476D01*
X77287202Y-38790476D01*
X77382440Y-38838095D01*
X77430059Y-38885714D01*
X77477678Y-38980952D01*
X77477678Y-39171428D01*
X77430059Y-39266666D01*
X77382440Y-39314285D01*
X77287202Y-39361904D01*
%TO.C,D18*%
X68333630Y-17835714D02*
X67333630Y-17835714D01*
X67333630Y-18073809D01*
X67381250Y-18216666D01*
X67476488Y-18311904D01*
X67571726Y-18359523D01*
X67762202Y-18407142D01*
X67905059Y-18407142D01*
X68095535Y-18359523D01*
X68190773Y-18311904D01*
X68286011Y-18216666D01*
X68333630Y-18073809D01*
X68333630Y-17835714D01*
X68333630Y-19359523D02*
X68333630Y-18788095D01*
X68333630Y-19073809D02*
X67333630Y-19073809D01*
X67476488Y-18978571D01*
X67571726Y-18883333D01*
X67619345Y-18788095D01*
X67762202Y-19930952D02*
X67714583Y-19835714D01*
X67666964Y-19788095D01*
X67571726Y-19740476D01*
X67524107Y-19740476D01*
X67428869Y-19788095D01*
X67381250Y-19835714D01*
X67333630Y-19930952D01*
X67333630Y-20121428D01*
X67381250Y-20216666D01*
X67428869Y-20264285D01*
X67524107Y-20311904D01*
X67571726Y-20311904D01*
X67666964Y-20264285D01*
X67714583Y-20216666D01*
X67762202Y-20121428D01*
X67762202Y-19930952D01*
X67809821Y-19835714D01*
X67857440Y-19788095D01*
X67952678Y-19740476D01*
X68143154Y-19740476D01*
X68238392Y-19788095D01*
X68286011Y-19835714D01*
X68333630Y-19930952D01*
X68333630Y-20121428D01*
X68286011Y-20216666D01*
X68238392Y-20264285D01*
X68143154Y-20311904D01*
X67952678Y-20311904D01*
X67857440Y-20264285D01*
X67809821Y-20216666D01*
X67762202Y-20121428D01*
%TO.C,D17*%
X58808630Y1214285D02*
X57808630Y1214285D01*
X57808630Y976190D01*
X57856250Y833333D01*
X57951488Y738095D01*
X58046726Y690476D01*
X58237202Y642857D01*
X58380059Y642857D01*
X58570535Y690476D01*
X58665773Y738095D01*
X58761011Y833333D01*
X58808630Y976190D01*
X58808630Y1214285D01*
X58808630Y-309523D02*
X58808630Y261904D01*
X58808630Y-23809D02*
X57808630Y-23809D01*
X57951488Y71428D01*
X58046726Y166666D01*
X58094345Y261904D01*
X57808630Y-642857D02*
X57808630Y-1309523D01*
X58808630Y-880952D01*
%TO.C,D16*%
X73096130Y-74985714D02*
X72096130Y-74985714D01*
X72096130Y-75223809D01*
X72143750Y-75366666D01*
X72238988Y-75461904D01*
X72334226Y-75509523D01*
X72524702Y-75557142D01*
X72667559Y-75557142D01*
X72858035Y-75509523D01*
X72953273Y-75461904D01*
X73048511Y-75366666D01*
X73096130Y-75223809D01*
X73096130Y-74985714D01*
X73096130Y-76509523D02*
X73096130Y-75938095D01*
X73096130Y-76223809D02*
X72096130Y-76223809D01*
X72238988Y-76128571D01*
X72334226Y-76033333D01*
X72381845Y-75938095D01*
X72096130Y-77366666D02*
X72096130Y-77176190D01*
X72143750Y-77080952D01*
X72191369Y-77033333D01*
X72334226Y-76938095D01*
X72524702Y-76890476D01*
X72905654Y-76890476D01*
X73000892Y-76938095D01*
X73048511Y-76985714D01*
X73096130Y-77080952D01*
X73096130Y-77271428D01*
X73048511Y-77366666D01*
X73000892Y-77414285D01*
X72905654Y-77461904D01*
X72667559Y-77461904D01*
X72572321Y-77414285D01*
X72524702Y-77366666D01*
X72477083Y-77271428D01*
X72477083Y-77080952D01*
X72524702Y-76985714D01*
X72572321Y-76938095D01*
X72667559Y-76890476D01*
%TO.C,D15*%
X63571130Y-55935714D02*
X62571130Y-55935714D01*
X62571130Y-56173809D01*
X62618750Y-56316666D01*
X62713988Y-56411904D01*
X62809226Y-56459523D01*
X62999702Y-56507142D01*
X63142559Y-56507142D01*
X63333035Y-56459523D01*
X63428273Y-56411904D01*
X63523511Y-56316666D01*
X63571130Y-56173809D01*
X63571130Y-55935714D01*
X63571130Y-57459523D02*
X63571130Y-56888095D01*
X63571130Y-57173809D02*
X62571130Y-57173809D01*
X62713988Y-57078571D01*
X62809226Y-56983333D01*
X62856845Y-56888095D01*
X62571130Y-58364285D02*
X62571130Y-57888095D01*
X63047321Y-57840476D01*
X62999702Y-57888095D01*
X62952083Y-57983333D01*
X62952083Y-58221428D01*
X62999702Y-58316666D01*
X63047321Y-58364285D01*
X63142559Y-58411904D01*
X63380654Y-58411904D01*
X63475892Y-58364285D01*
X63523511Y-58316666D01*
X63571130Y-58221428D01*
X63571130Y-57983333D01*
X63523511Y-57888095D01*
X63475892Y-57840476D01*
%TO.C,D14*%
X58808631Y-36885714D02*
X57808631Y-36885714D01*
X57808631Y-37123809D01*
X57856251Y-37266666D01*
X57951489Y-37361904D01*
X58046727Y-37409523D01*
X58237203Y-37457142D01*
X58380060Y-37457142D01*
X58570536Y-37409523D01*
X58665774Y-37361904D01*
X58761012Y-37266666D01*
X58808631Y-37123809D01*
X58808631Y-36885714D01*
X58808631Y-38409523D02*
X58808631Y-37838095D01*
X58808631Y-38123809D02*
X57808631Y-38123809D01*
X57951489Y-38028571D01*
X58046727Y-37933333D01*
X58094346Y-37838095D01*
X58141965Y-39266666D02*
X58808631Y-39266666D01*
X57761012Y-39028571D02*
X58475298Y-38790476D01*
X58475298Y-39409523D01*
%TO.C,D13*%
X49283631Y-17835714D02*
X48283631Y-17835714D01*
X48283631Y-18073809D01*
X48331251Y-18216666D01*
X48426489Y-18311904D01*
X48521727Y-18359523D01*
X48712203Y-18407142D01*
X48855060Y-18407142D01*
X49045536Y-18359523D01*
X49140774Y-18311904D01*
X49236012Y-18216666D01*
X49283631Y-18073809D01*
X49283631Y-17835714D01*
X49283631Y-19359523D02*
X49283631Y-18788095D01*
X49283631Y-19073809D02*
X48283631Y-19073809D01*
X48426489Y-18978571D01*
X48521727Y-18883333D01*
X48569346Y-18788095D01*
X48283631Y-19692857D02*
X48283631Y-20311904D01*
X48664584Y-19978571D01*
X48664584Y-20121428D01*
X48712203Y-20216666D01*
X48759822Y-20264285D01*
X48855060Y-20311904D01*
X49093155Y-20311904D01*
X49188393Y-20264285D01*
X49236012Y-20216666D01*
X49283631Y-20121428D01*
X49283631Y-19835714D01*
X49236012Y-19740476D01*
X49188393Y-19692857D01*
%TO.C,D12*%
X39758630Y1214285D02*
X38758630Y1214285D01*
X38758630Y976190D01*
X38806250Y833333D01*
X38901488Y738095D01*
X38996726Y690476D01*
X39187202Y642857D01*
X39330059Y642857D01*
X39520535Y690476D01*
X39615773Y738095D01*
X39711011Y833333D01*
X39758630Y976190D01*
X39758630Y1214285D01*
X39758630Y-309523D02*
X39758630Y261904D01*
X39758630Y-23809D02*
X38758630Y-23809D01*
X38901488Y71428D01*
X38996726Y166666D01*
X39044345Y261904D01*
X38853869Y-690476D02*
X38806250Y-738095D01*
X38758630Y-833333D01*
X38758630Y-1071428D01*
X38806250Y-1166666D01*
X38853869Y-1214285D01*
X38949107Y-1261904D01*
X39044345Y-1261904D01*
X39187202Y-1214285D01*
X39758630Y-642857D01*
X39758630Y-1261904D01*
%TO.C,D11*%
X61189880Y-94035714D02*
X60189880Y-94035714D01*
X60189880Y-94273809D01*
X60237500Y-94416666D01*
X60332738Y-94511904D01*
X60427976Y-94559523D01*
X60618452Y-94607142D01*
X60761309Y-94607142D01*
X60951785Y-94559523D01*
X61047023Y-94511904D01*
X61142261Y-94416666D01*
X61189880Y-94273809D01*
X61189880Y-94035714D01*
X61189880Y-95559523D02*
X61189880Y-94988095D01*
X61189880Y-95273809D02*
X60189880Y-95273809D01*
X60332738Y-95178571D01*
X60427976Y-95083333D01*
X60475595Y-94988095D01*
X61189880Y-96511904D02*
X61189880Y-95940476D01*
X61189880Y-96226190D02*
X60189880Y-96226190D01*
X60332738Y-96130952D01*
X60427976Y-96035714D01*
X60475595Y-95940476D01*
%TO.C,D10*%
X54046130Y-74985714D02*
X53046130Y-74985714D01*
X53046130Y-75223809D01*
X53093750Y-75366666D01*
X53188988Y-75461904D01*
X53284226Y-75509523D01*
X53474702Y-75557142D01*
X53617559Y-75557142D01*
X53808035Y-75509523D01*
X53903273Y-75461904D01*
X53998511Y-75366666D01*
X54046130Y-75223809D01*
X54046130Y-74985714D01*
X54046130Y-76509523D02*
X54046130Y-75938095D01*
X54046130Y-76223809D02*
X53046130Y-76223809D01*
X53188988Y-76128571D01*
X53284226Y-76033333D01*
X53331845Y-75938095D01*
X53046130Y-77128571D02*
X53046130Y-77223809D01*
X53093750Y-77319047D01*
X53141369Y-77366666D01*
X53236607Y-77414285D01*
X53427083Y-77461904D01*
X53665178Y-77461904D01*
X53855654Y-77414285D01*
X53950892Y-77366666D01*
X53998511Y-77319047D01*
X54046130Y-77223809D01*
X54046130Y-77128571D01*
X53998511Y-77033333D01*
X53950892Y-76985714D01*
X53855654Y-76938095D01*
X53665178Y-76890476D01*
X53427083Y-76890476D01*
X53236607Y-76938095D01*
X53141369Y-76985714D01*
X53093750Y-77033333D01*
X53046130Y-77128571D01*
%TO.C,D9*%
X44521130Y-56411904D02*
X43521130Y-56411904D01*
X43521130Y-56650000D01*
X43568750Y-56792857D01*
X43663988Y-56888095D01*
X43759226Y-56935714D01*
X43949702Y-56983333D01*
X44092559Y-56983333D01*
X44283035Y-56935714D01*
X44378273Y-56888095D01*
X44473511Y-56792857D01*
X44521130Y-56650000D01*
X44521130Y-56411904D01*
X44521130Y-57459523D02*
X44521130Y-57650000D01*
X44473511Y-57745238D01*
X44425892Y-57792857D01*
X44283035Y-57888095D01*
X44092559Y-57935714D01*
X43711607Y-57935714D01*
X43616369Y-57888095D01*
X43568750Y-57840476D01*
X43521130Y-57745238D01*
X43521130Y-57554761D01*
X43568750Y-57459523D01*
X43616369Y-57411904D01*
X43711607Y-57364285D01*
X43949702Y-57364285D01*
X44044940Y-57411904D01*
X44092559Y-57459523D01*
X44140178Y-57554761D01*
X44140178Y-57745238D01*
X44092559Y-57840476D01*
X44044940Y-57888095D01*
X43949702Y-57935714D01*
%TO.C,D8*%
X39758630Y-37361904D02*
X38758630Y-37361904D01*
X38758630Y-37600000D01*
X38806250Y-37742857D01*
X38901488Y-37838095D01*
X38996726Y-37885714D01*
X39187202Y-37933333D01*
X39330059Y-37933333D01*
X39520535Y-37885714D01*
X39615773Y-37838095D01*
X39711011Y-37742857D01*
X39758630Y-37600000D01*
X39758630Y-37361904D01*
X39187202Y-38504761D02*
X39139583Y-38409523D01*
X39091964Y-38361904D01*
X38996726Y-38314285D01*
X38949107Y-38314285D01*
X38853869Y-38361904D01*
X38806250Y-38409523D01*
X38758630Y-38504761D01*
X38758630Y-38695238D01*
X38806250Y-38790476D01*
X38853869Y-38838095D01*
X38949107Y-38885714D01*
X38996726Y-38885714D01*
X39091964Y-38838095D01*
X39139583Y-38790476D01*
X39187202Y-38695238D01*
X39187202Y-38504761D01*
X39234821Y-38409523D01*
X39282440Y-38361904D01*
X39377678Y-38314285D01*
X39568154Y-38314285D01*
X39663392Y-38361904D01*
X39711011Y-38409523D01*
X39758630Y-38504761D01*
X39758630Y-38695238D01*
X39711011Y-38790476D01*
X39663392Y-38838095D01*
X39568154Y-38885714D01*
X39377678Y-38885714D01*
X39282440Y-38838095D01*
X39234821Y-38790476D01*
X39187202Y-38695238D01*
%TO.C,D7*%
X30233630Y-18311904D02*
X29233630Y-18311904D01*
X29233630Y-18550000D01*
X29281250Y-18692857D01*
X29376488Y-18788095D01*
X29471726Y-18835714D01*
X29662202Y-18883333D01*
X29805059Y-18883333D01*
X29995535Y-18835714D01*
X30090773Y-18788095D01*
X30186011Y-18692857D01*
X30233630Y-18550000D01*
X30233630Y-18311904D01*
X29233630Y-19216666D02*
X29233630Y-19883333D01*
X30233630Y-19454761D01*
%TO.C,D6*%
X37377380Y-94511904D02*
X36377380Y-94511904D01*
X36377380Y-94750000D01*
X36425000Y-94892857D01*
X36520238Y-94988095D01*
X36615476Y-95035714D01*
X36805952Y-95083333D01*
X36948809Y-95083333D01*
X37139285Y-95035714D01*
X37234523Y-94988095D01*
X37329761Y-94892857D01*
X37377380Y-94750000D01*
X37377380Y-94511904D01*
X36377380Y-95940476D02*
X36377380Y-95750000D01*
X36425000Y-95654761D01*
X36472619Y-95607142D01*
X36615476Y-95511904D01*
X36805952Y-95464285D01*
X37186904Y-95464285D01*
X37282142Y-95511904D01*
X37329761Y-95559523D01*
X37377380Y-95654761D01*
X37377380Y-95845238D01*
X37329761Y-95940476D01*
X37282142Y-95988095D01*
X37186904Y-96035714D01*
X36948809Y-96035714D01*
X36853571Y-95988095D01*
X36805952Y-95940476D01*
X36758333Y-95845238D01*
X36758333Y-95654761D01*
X36805952Y-95559523D01*
X36853571Y-95511904D01*
X36948809Y-95464285D01*
%TO.C,D5*%
X23089880Y-75461904D02*
X22089880Y-75461904D01*
X22089880Y-75700000D01*
X22137500Y-75842857D01*
X22232738Y-75938095D01*
X22327976Y-75985714D01*
X22518452Y-76033333D01*
X22661309Y-76033333D01*
X22851785Y-75985714D01*
X22947023Y-75938095D01*
X23042261Y-75842857D01*
X23089880Y-75700000D01*
X23089880Y-75461904D01*
X22089880Y-76938095D02*
X22089880Y-76461904D01*
X22566071Y-76414285D01*
X22518452Y-76461904D01*
X22470833Y-76557142D01*
X22470833Y-76795238D01*
X22518452Y-76890476D01*
X22566071Y-76938095D01*
X22661309Y-76985714D01*
X22899404Y-76985714D01*
X22994642Y-76938095D01*
X23042261Y-76890476D01*
X23089880Y-76795238D01*
X23089880Y-76557142D01*
X23042261Y-76461904D01*
X22994642Y-76414285D01*
%TO.C,D4*%
X25439380Y-56411904D02*
X24439380Y-56411904D01*
X24439380Y-56650000D01*
X24487000Y-56792857D01*
X24582238Y-56888095D01*
X24677476Y-56935714D01*
X24867952Y-56983333D01*
X25010809Y-56983333D01*
X25201285Y-56935714D01*
X25296523Y-56888095D01*
X25391761Y-56792857D01*
X25439380Y-56650000D01*
X25439380Y-56411904D01*
X24772714Y-57840476D02*
X25439380Y-57840476D01*
X24391761Y-57602380D02*
X25106047Y-57364285D01*
X25106047Y-57983333D01*
%TO.C,D3*%
X15946130Y-37361904D02*
X14946130Y-37361904D01*
X14946130Y-37600000D01*
X14993750Y-37742857D01*
X15088988Y-37838095D01*
X15184226Y-37885714D01*
X15374702Y-37933333D01*
X15517559Y-37933333D01*
X15708035Y-37885714D01*
X15803273Y-37838095D01*
X15898511Y-37742857D01*
X15946130Y-37600000D01*
X15946130Y-37361904D01*
X14946130Y-38266666D02*
X14946130Y-38885714D01*
X15327083Y-38552380D01*
X15327083Y-38695238D01*
X15374702Y-38790476D01*
X15422321Y-38838095D01*
X15517559Y-38885714D01*
X15755654Y-38885714D01*
X15850892Y-38838095D01*
X15898511Y-38790476D01*
X15946130Y-38695238D01*
X15946130Y-38409523D01*
X15898511Y-38314285D01*
X15850892Y-38266666D01*
%TO.C,D2*%
X11183630Y-18311904D02*
X10183630Y-18311904D01*
X10183630Y-18550000D01*
X10231250Y-18692857D01*
X10326488Y-18788095D01*
X10421726Y-18835714D01*
X10612202Y-18883333D01*
X10755059Y-18883333D01*
X10945535Y-18835714D01*
X11040773Y-18788095D01*
X11136011Y-18692857D01*
X11183630Y-18550000D01*
X11183630Y-18311904D01*
X10278869Y-19264285D02*
X10231250Y-19311904D01*
X10183630Y-19407142D01*
X10183630Y-19645238D01*
X10231250Y-19740476D01*
X10278869Y-19788095D01*
X10374107Y-19835714D01*
X10469345Y-19835714D01*
X10612202Y-19788095D01*
X11183630Y-19216666D01*
X11183630Y-19835714D01*
%TO.C,D1*%
X11183630Y738095D02*
X10183630Y738095D01*
X10183630Y500000D01*
X10231250Y357142D01*
X10326488Y261904D01*
X10421726Y214285D01*
X10612202Y166666D01*
X10755059Y166666D01*
X10945535Y214285D01*
X11040773Y261904D01*
X11136011Y357142D01*
X11183630Y500000D01*
X11183630Y738095D01*
X11183630Y-785714D02*
X11183630Y-214285D01*
X11183630Y-500000D02*
X10183630Y-499999D01*
X10326488Y-404761D01*
X10421726Y-309523D01*
X10469345Y-214285D01*
%TO.C,C8*%
X318460416Y28344857D02*
X318508035Y28297238D01*
X318650892Y28249619D01*
X318746130Y28249619D01*
X318888988Y28297238D01*
X318984226Y28392476D01*
X319031845Y28487714D01*
X319079464Y28678190D01*
X319079464Y28821047D01*
X319031845Y29011523D01*
X318984226Y29106761D01*
X318888988Y29202000D01*
X318746130Y29249619D01*
X318650892Y29249619D01*
X318508035Y29202000D01*
X318460416Y29154380D01*
X317888988Y28821047D02*
X317984226Y28868666D01*
X318031845Y28916285D01*
X318079464Y29011523D01*
X318079464Y29059142D01*
X318031845Y29154380D01*
X317984226Y29202000D01*
X317888988Y29249619D01*
X317698511Y29249619D01*
X317603273Y29202000D01*
X317555654Y29154380D01*
X317508035Y29059142D01*
X317508035Y29011523D01*
X317555654Y28916285D01*
X317603273Y28868666D01*
X317698511Y28821047D01*
X317888988Y28821047D01*
X317984226Y28773428D01*
X318031845Y28725809D01*
X318079464Y28630571D01*
X318079464Y28440095D01*
X318031845Y28344857D01*
X317984226Y28297238D01*
X317888988Y28249619D01*
X317698511Y28249619D01*
X317603273Y28297238D01*
X317555654Y28344857D01*
X317508035Y28440095D01*
X317508035Y28630571D01*
X317555654Y28725809D01*
X317603273Y28773428D01*
X317698511Y28821047D01*
%TO.C,C7*%
X299016227Y27373796D02*
X299063846Y27326177D01*
X299206703Y27278558D01*
X299301941Y27278558D01*
X299444799Y27326177D01*
X299540037Y27421415D01*
X299587656Y27516653D01*
X299635275Y27707129D01*
X299635275Y27849986D01*
X299587656Y28040462D01*
X299540037Y28135700D01*
X299444799Y28230939D01*
X299301941Y28278558D01*
X299206703Y28278558D01*
X299063846Y28230939D01*
X299016227Y28183319D01*
X298682894Y28278558D02*
X298016227Y28278558D01*
X298444799Y27278558D01*
%TO.C,C6*%
X327032916Y23201357D02*
X327080535Y23153738D01*
X327223392Y23106119D01*
X327318630Y23106119D01*
X327461488Y23153738D01*
X327556726Y23248976D01*
X327604345Y23344214D01*
X327651964Y23534690D01*
X327651964Y23677547D01*
X327604345Y23868023D01*
X327556726Y23963261D01*
X327461488Y24058500D01*
X327318630Y24106119D01*
X327223392Y24106119D01*
X327080535Y24058500D01*
X327032916Y24010880D01*
X326175773Y24106119D02*
X326366250Y24106119D01*
X326461488Y24058500D01*
X326509107Y24010880D01*
X326604345Y23868023D01*
X326651964Y23677547D01*
X326651964Y23296595D01*
X326604345Y23201357D01*
X326556726Y23153738D01*
X326461488Y23106119D01*
X326271011Y23106119D01*
X326175773Y23153738D01*
X326128154Y23201357D01*
X326080535Y23296595D01*
X326080535Y23534690D01*
X326128154Y23629928D01*
X326175773Y23677547D01*
X326271011Y23725166D01*
X326461488Y23725166D01*
X326556726Y23677547D01*
X326604345Y23629928D01*
X326651964Y23534690D01*
%TO.C,C5*%
X297568916Y12088857D02*
X297616535Y12041238D01*
X297759392Y11993619D01*
X297854630Y11993619D01*
X297997488Y12041238D01*
X298092726Y12136476D01*
X298140345Y12231714D01*
X298187964Y12422190D01*
X298187964Y12565047D01*
X298140345Y12755523D01*
X298092726Y12850761D01*
X297997488Y12946000D01*
X297854630Y12993619D01*
X297759392Y12993619D01*
X297616535Y12946000D01*
X297568916Y12898380D01*
X296664154Y12993619D02*
X297140345Y12993619D01*
X297187964Y12517428D01*
X297140345Y12565047D01*
X297045107Y12612666D01*
X296807011Y12612666D01*
X296711773Y12565047D01*
X296664154Y12517428D01*
X296616535Y12422190D01*
X296616535Y12184095D01*
X296664154Y12088857D01*
X296711773Y12041238D01*
X296807011Y11993619D01*
X297045107Y11993619D01*
X297140345Y12041238D01*
X297187964Y12088857D01*
%TO.C,C4*%
X297441916Y19581857D02*
X297489535Y19534238D01*
X297632392Y19486619D01*
X297727630Y19486619D01*
X297870488Y19534238D01*
X297965726Y19629476D01*
X298013345Y19724714D01*
X298060964Y19915190D01*
X298060964Y20058047D01*
X298013345Y20248523D01*
X297965726Y20343761D01*
X297870488Y20439000D01*
X297727630Y20486619D01*
X297632392Y20486619D01*
X297489535Y20439000D01*
X297441916Y20391380D01*
X296584773Y20153285D02*
X296584773Y19486619D01*
X296822869Y20534238D02*
X297060964Y19819952D01*
X296441916Y19819952D01*
%TO.C,C3*%
X329001416Y20216857D02*
X329049035Y20169238D01*
X329191892Y20121619D01*
X329287130Y20121619D01*
X329429988Y20169238D01*
X329525226Y20264476D01*
X329572845Y20359714D01*
X329620464Y20550190D01*
X329620464Y20693047D01*
X329572845Y20883523D01*
X329525226Y20978761D01*
X329429988Y21074000D01*
X329287130Y21121619D01*
X329191892Y21121619D01*
X329049035Y21074000D01*
X329001416Y21026380D01*
X328668083Y21121619D02*
X328049035Y21121619D01*
X328382369Y20740666D01*
X328239511Y20740666D01*
X328144273Y20693047D01*
X328096654Y20645428D01*
X328049035Y20550190D01*
X328049035Y20312095D01*
X328096654Y20216857D01*
X328144273Y20169238D01*
X328239511Y20121619D01*
X328525226Y20121619D01*
X328620464Y20169238D01*
X328668083Y20216857D01*
%TO.C,C2*%
X329064916Y12088857D02*
X329112535Y12041238D01*
X329255392Y11993619D01*
X329350630Y11993619D01*
X329493488Y12041238D01*
X329588726Y12136476D01*
X329636345Y12231714D01*
X329683964Y12422190D01*
X329683964Y12565047D01*
X329636345Y12755523D01*
X329588726Y12850761D01*
X329493488Y12946000D01*
X329350630Y12993619D01*
X329255392Y12993619D01*
X329112535Y12946000D01*
X329064916Y12898380D01*
X328683964Y12898380D02*
X328636345Y12946000D01*
X328541107Y12993619D01*
X328303011Y12993619D01*
X328207773Y12946000D01*
X328160154Y12898380D01*
X328112535Y12803142D01*
X328112535Y12707904D01*
X328160154Y12565047D01*
X328731583Y11993619D01*
X328112535Y11993619D01*
%TO.C,C1*%
X312173916Y28344857D02*
X312221535Y28297238D01*
X312364392Y28249619D01*
X312459630Y28249619D01*
X312602488Y28297238D01*
X312697726Y28392476D01*
X312745345Y28487714D01*
X312792964Y28678190D01*
X312792964Y28821047D01*
X312745345Y29011523D01*
X312697726Y29106761D01*
X312602488Y29202000D01*
X312459630Y29249619D01*
X312364392Y29249619D01*
X312221535Y29202000D01*
X312173916Y29154380D01*
X311221535Y28249619D02*
X311792964Y28249619D01*
X311507250Y28249619D02*
X311507250Y29249619D01*
X311602488Y29106761D01*
X311697726Y29011523D01*
X311792964Y28963904D01*
%TD*%
%LPC*%
D12*
%TO.C,8*%
X295275000Y-93662500D03*
%TD*%
D13*
%TO.C,USB1*%
X172562500Y32385000D03*
X179862500Y32385000D03*
X179862500Y27885000D03*
X172562500Y27885000D03*
D14*
X174612500Y27885000D03*
X175412500Y27885000D03*
X176212500Y27885000D03*
X177012500Y27885000D03*
X177812500Y27885000D03*
%TD*%
D12*
%TO.C,6*%
X96837500Y-93662500D03*
%TD*%
%TO.C,4*%
X350837500Y19843750D03*
%TD*%
%TO.C,7*%
X255587500Y-93662500D03*
%TD*%
%TO.C,2*%
X96837500Y19843750D03*
%TD*%
D15*
%TO.C,MX4*%
X7143750Y-52070000D03*
X7143750Y-62230000D03*
D16*
X12223750Y-55880000D03*
D17*
X12223750Y-58420000D03*
D18*
X4603750Y-60960000D03*
D19*
X7143750Y-57150000D03*
D18*
X2063750Y-54610000D03*
%TD*%
D12*
%TO.C,5*%
X1587500Y-93662500D03*
%TD*%
%TO.C,1*%
X1587500Y19843750D03*
%TD*%
%TO.C,3*%
X255587500Y26193750D03*
%TD*%
D20*
%TO.C,Y1*%
X326795500Y15410000D03*
X326795500Y17610000D03*
X325095500Y17610000D03*
X325095500Y15410000D03*
%TD*%
D21*
%TO.C,U1*%
X303958000Y21430500D03*
X303958000Y20630500D03*
X303958000Y19830500D03*
X303958000Y19030500D03*
X303958000Y18230500D03*
X303958000Y17430500D03*
X303958000Y16630500D03*
X303958000Y15830500D03*
X303958000Y15030500D03*
X303958000Y14230500D03*
X303958000Y13430500D03*
X303958000Y12630500D03*
X303958000Y11830500D03*
X303958000Y11030500D03*
X303958000Y10230500D03*
X303958000Y9430500D03*
D22*
X305658000Y7730500D03*
X306458000Y7730500D03*
X307258000Y7730500D03*
X308058000Y7730500D03*
X308858000Y7730500D03*
X309658000Y7730500D03*
X310458000Y7730500D03*
X311258000Y7730500D03*
X312058000Y7730500D03*
X312858000Y7730500D03*
X313658000Y7730500D03*
X314458000Y7730500D03*
X315258000Y7730500D03*
X316058000Y7730500D03*
X316858000Y7730500D03*
X317658000Y7730500D03*
D21*
X319358000Y9430500D03*
X319358000Y10230500D03*
X319358000Y11030500D03*
X319358000Y11830500D03*
X319358000Y12630500D03*
X319358000Y13430500D03*
X319358000Y14230500D03*
X319358000Y15030500D03*
X319358000Y15830500D03*
X319358000Y16630500D03*
X319358000Y17430500D03*
X319358000Y18230500D03*
X319358000Y19030500D03*
X319358000Y19830500D03*
X319358000Y20630500D03*
X319358000Y21430500D03*
D22*
X317658000Y23130500D03*
X316858000Y23130500D03*
X316058000Y23130500D03*
X315258000Y23130500D03*
X314458000Y23130500D03*
X313658000Y23130500D03*
X312858000Y23130500D03*
X312058000Y23130500D03*
X311258000Y23130500D03*
X310458000Y23130500D03*
X309658000Y23130500D03*
X308858000Y23130500D03*
X308058000Y23130500D03*
X307258000Y23130500D03*
X306458000Y23130500D03*
X305658000Y23130500D03*
%TD*%
D23*
%TO.C,SW1*%
X341301000Y14279000D03*
X335101000Y17979000D03*
X341301000Y17979000D03*
X335101000Y14279000D03*
%TD*%
%TO.C,R5*%
G36*
G01*
X-2123644Y-59088957D02*
X-2760043Y-59725356D01*
G75*
G02*
X-3113593Y-59725356I-176775J176775D01*
G01*
X-3484826Y-59354123D01*
G75*
G02*
X-3484826Y-59000573I176775J176775D01*
G01*
X-2848427Y-58364174D01*
G75*
G02*
X-2494877Y-58364174I176775J-176775D01*
G01*
X-2123644Y-58735407D01*
G75*
G02*
X-2123644Y-59088957I-176775J-176775D01*
G01*
G37*
G36*
G01*
X-833174Y-60379427D02*
X-1469573Y-61015826D01*
G75*
G02*
X-1823123Y-61015826I-176775J176775D01*
G01*
X-2194356Y-60644593D01*
G75*
G02*
X-2194356Y-60291043I176775J176775D01*
G01*
X-1557957Y-59654644D01*
G75*
G02*
X-1204407Y-59654644I176775J-176775D01*
G01*
X-833174Y-60025877D01*
G75*
G02*
X-833174Y-60379427I-176775J-176775D01*
G01*
G37*
%TD*%
%TO.C,R4*%
G36*
G01*
X300072856Y6697043D02*
X299436457Y6060644D01*
G75*
G02*
X299082907Y6060644I-176775J176775D01*
G01*
X298711674Y6431877D01*
G75*
G02*
X298711674Y6785427I176775J176775D01*
G01*
X299348073Y7421826D01*
G75*
G02*
X299701623Y7421826I176775J-176775D01*
G01*
X300072856Y7050593D01*
G75*
G02*
X300072856Y6697043I-176775J-176775D01*
G01*
G37*
G36*
G01*
X301363326Y5406573D02*
X300726927Y4770174D01*
G75*
G02*
X300373377Y4770174I-176775J176775D01*
G01*
X300002144Y5141407D01*
G75*
G02*
X300002144Y5494957I176775J176775D01*
G01*
X300638543Y6131356D01*
G75*
G02*
X300992093Y6131356I176775J-176775D01*
G01*
X301363326Y5760123D01*
G75*
G02*
X301363326Y5406573I-176775J-176775D01*
G01*
G37*
%TD*%
%TO.C,R3*%
G36*
G01*
X196608750Y20293752D02*
X196608750Y19393748D01*
G75*
G02*
X196358752Y19143750I-249998J0D01*
G01*
X195833748Y19143750D01*
G75*
G02*
X195583750Y19393748I0J249998D01*
G01*
X195583750Y20293752D01*
G75*
G02*
X195833748Y20543750I249998J0D01*
G01*
X196358752Y20543750D01*
G75*
G02*
X196608750Y20293752I0J-249998D01*
G01*
G37*
G36*
G01*
X198433750Y20293752D02*
X198433750Y19393748D01*
G75*
G02*
X198183752Y19143750I-249998J0D01*
G01*
X197658748Y19143750D01*
G75*
G02*
X197408750Y19393748I0J249998D01*
G01*
X197408750Y20293752D01*
G75*
G02*
X197658748Y20543750I249998J0D01*
G01*
X198183752Y20543750D01*
G75*
G02*
X198433750Y20293752I0J-249998D01*
G01*
G37*
%TD*%
%TO.C,R2*%
G36*
G01*
X196608750Y22675002D02*
X196608750Y21774998D01*
G75*
G02*
X196358752Y21525000I-249998J0D01*
G01*
X195833748Y21525000D01*
G75*
G02*
X195583750Y21774998I0J249998D01*
G01*
X195583750Y22675002D01*
G75*
G02*
X195833748Y22925000I249998J0D01*
G01*
X196358752Y22925000D01*
G75*
G02*
X196608750Y22675002I0J-249998D01*
G01*
G37*
G36*
G01*
X198433750Y22675002D02*
X198433750Y21774998D01*
G75*
G02*
X198183752Y21525000I-249998J0D01*
G01*
X197658748Y21525000D01*
G75*
G02*
X197408750Y21774998I0J249998D01*
G01*
X197408750Y22675002D01*
G75*
G02*
X197658748Y22925000I249998J0D01*
G01*
X198183752Y22925000D01*
G75*
G02*
X198433750Y22675002I0J-249998D01*
G01*
G37*
%TD*%
%TO.C,R1*%
G36*
G01*
X324472250Y26600998D02*
X324472250Y27501002D01*
G75*
G02*
X324722248Y27751000I249998J0D01*
G01*
X325247252Y27751000D01*
G75*
G02*
X325497250Y27501002I0J-249998D01*
G01*
X325497250Y26600998D01*
G75*
G02*
X325247252Y26351000I-249998J0D01*
G01*
X324722248Y26351000D01*
G75*
G02*
X324472250Y26600998I0J249998D01*
G01*
G37*
G36*
G01*
X322647250Y26600998D02*
X322647250Y27501002D01*
G75*
G02*
X322897248Y27751000I249998J0D01*
G01*
X323422252Y27751000D01*
G75*
G02*
X323672250Y27501002I0J-249998D01*
G01*
X323672250Y26600998D01*
G75*
G02*
X323422252Y26351000I-249998J0D01*
G01*
X322897248Y26351000D01*
G75*
G02*
X322647250Y26600998I0J249998D01*
G01*
G37*
%TD*%
D18*
%TO.C,MX90*%
X345440000Y-90170000D03*
D19*
X342900000Y-95250000D03*
D18*
X339090000Y-92710000D03*
D15*
X337820000Y-95250000D03*
X347980000Y-95250000D03*
D24*
X330993750Y-88265000D03*
X354806250Y-88265000D03*
D19*
X330993750Y-103505000D03*
X354806250Y-103505000D03*
%TD*%
D18*
%TO.C,MX89*%
X354965000Y-71120000D03*
D19*
X352425000Y-76200000D03*
D18*
X348615000Y-73660000D03*
D15*
X347345000Y-76200000D03*
X357505000Y-76200000D03*
%TD*%
D18*
%TO.C,MX88*%
X354965000Y-52070000D03*
D19*
X352425000Y-57150000D03*
D18*
X348615000Y-54610000D03*
D15*
X347345000Y-57150000D03*
X357505000Y-57150000D03*
%TD*%
D18*
%TO.C,MX87*%
X354965000Y-33020000D03*
D19*
X352425000Y-38100000D03*
D18*
X348615000Y-35560000D03*
D15*
X347345000Y-38100000D03*
X357505000Y-38100000D03*
%TD*%
D18*
%TO.C,MX86*%
X354965000Y-13970000D03*
D19*
X352425000Y-19050000D03*
D18*
X348615000Y-16510000D03*
D15*
X347345000Y-19050000D03*
X357505000Y-19050000D03*
%TD*%
D18*
%TO.C,MX85*%
X335915000Y-52070000D03*
D19*
X333375000Y-57150000D03*
D18*
X329565000Y-54610000D03*
D15*
X328295000Y-57150000D03*
X338455000Y-57150000D03*
%TD*%
D18*
%TO.C,MX84*%
X335915000Y-33020000D03*
D19*
X333375000Y-38100000D03*
D18*
X329565000Y-35560000D03*
D15*
X328295000Y-38100000D03*
X338455000Y-38100000D03*
%TD*%
D18*
%TO.C,MX83*%
X335915000Y-13970000D03*
D19*
X333375000Y-19050000D03*
D18*
X329565000Y-16510000D03*
D15*
X328295000Y-19050000D03*
X338455000Y-19050000D03*
%TD*%
D18*
%TO.C,MX82*%
X316865000Y-90170000D03*
D19*
X314325000Y-95250000D03*
D18*
X310515000Y-92710000D03*
D15*
X309245000Y-95250000D03*
X319405000Y-95250000D03*
%TD*%
D18*
%TO.C,MX81*%
X326390000Y-71120000D03*
D19*
X323850000Y-76200000D03*
D18*
X320040000Y-73660000D03*
D15*
X318770000Y-76200000D03*
X328930000Y-76200000D03*
D24*
X311943750Y-69215000D03*
X335756250Y-69215000D03*
D19*
X311943750Y-84455000D03*
X335756250Y-84455000D03*
%TD*%
D18*
%TO.C,MX80*%
X316865000Y-52070000D03*
D19*
X314325000Y-57150000D03*
D18*
X310515000Y-54610000D03*
D15*
X309245000Y-57150000D03*
X319405000Y-57150000D03*
%TD*%
D18*
%TO.C,MX79*%
X316865000Y-33020000D03*
D19*
X314325000Y-38100000D03*
D18*
X310515000Y-35560000D03*
D15*
X309245000Y-38100000D03*
X319405000Y-38100000D03*
%TD*%
%TO.C,MX78*%
X314325000Y-13970000D03*
X314325000Y-24130000D03*
D16*
X319405000Y-17780000D03*
D17*
X319405000Y-20320000D03*
D18*
X311785000Y-22860000D03*
D19*
X314325000Y-19050000D03*
D18*
X309245000Y-16510000D03*
%TD*%
%TO.C,MX77*%
X278765000Y-90170000D03*
D19*
X276225000Y-95250000D03*
D18*
X272415000Y-92710000D03*
D15*
X271145000Y-95250000D03*
X281305000Y-95250000D03*
%TD*%
D18*
%TO.C,MX76*%
X288290000Y-71120000D03*
D19*
X285750000Y-76200000D03*
D18*
X281940000Y-73660000D03*
D15*
X280670000Y-76200000D03*
X290830000Y-76200000D03*
%TD*%
D18*
%TO.C,MX75*%
X269240000Y-71120000D03*
D19*
X266700000Y-76200000D03*
D18*
X262890000Y-73660000D03*
D15*
X261620000Y-76200000D03*
X271780000Y-76200000D03*
%TD*%
D18*
%TO.C,MX74*%
X278765000Y-52070000D03*
D19*
X276225000Y-57150000D03*
D18*
X272415000Y-54610000D03*
D15*
X271145000Y-57150000D03*
X281305000Y-57150000D03*
%TD*%
D18*
%TO.C,MX73*%
X278765000Y-33020000D03*
D19*
X276225000Y-38100000D03*
D18*
X272415000Y-35560000D03*
D15*
X271145000Y-38100000D03*
X281305000Y-38100000D03*
%TD*%
D18*
%TO.C,MX72*%
X233521250Y-90170000D03*
D19*
X230981250Y-95250000D03*
D18*
X227171250Y-92710000D03*
D15*
X225901250Y-95250000D03*
X236061250Y-95250000D03*
%TD*%
D18*
%TO.C,MX71*%
X243046250Y-71120000D03*
D19*
X240506250Y-76200000D03*
D18*
X236696250Y-73660000D03*
D15*
X235426250Y-76200000D03*
X245586250Y-76200000D03*
%TD*%
D19*
%TO.C,MX70*%
X248920000Y-59531250D03*
X248920000Y-35718750D03*
D24*
X264160000Y-59531250D03*
X264160000Y-35718750D03*
D15*
X262255000Y-47625000D03*
X252095000Y-47625000D03*
D18*
X253365000Y-45085000D03*
D19*
X257175000Y-47625000D03*
D18*
X259715000Y-42545000D03*
%TD*%
%TO.C,MX69*%
X274002500Y-13970000D03*
D19*
X271462500Y-19050000D03*
D18*
X267652500Y-16510000D03*
D15*
X266382500Y-19050000D03*
X276542500Y-19050000D03*
%TD*%
D18*
%TO.C,MX68*%
X278765000Y5080000D03*
D19*
X276225000Y0D03*
D18*
X272415000Y2540000D03*
D15*
X271145000Y0D03*
X281305000Y0D03*
%TD*%
D18*
%TO.C,MX67*%
X209708750Y-90170000D03*
D19*
X207168750Y-95250000D03*
D18*
X203358750Y-92710000D03*
D15*
X202088750Y-95250000D03*
X212248750Y-95250000D03*
%TD*%
D18*
%TO.C,MX66*%
X216852500Y-71120000D03*
D19*
X214312500Y-76200000D03*
D18*
X210502500Y-73660000D03*
D15*
X209232500Y-76200000D03*
X219392500Y-76200000D03*
%TD*%
D18*
%TO.C,MX65*%
X226377500Y-52070000D03*
D19*
X223837500Y-57150000D03*
D18*
X220027500Y-54610000D03*
D15*
X218757500Y-57150000D03*
X228917500Y-57150000D03*
%TD*%
D18*
%TO.C,MX64*%
X240665000Y-33020000D03*
D19*
X238125000Y-38100000D03*
D18*
X234315000Y-35560000D03*
D15*
X233045000Y-38100000D03*
X243205000Y-38100000D03*
%TD*%
D18*
%TO.C,MX63*%
X250190000Y-13970000D03*
D19*
X247650000Y-19050000D03*
D18*
X243840000Y-16510000D03*
D15*
X242570000Y-19050000D03*
X252730000Y-19050000D03*
%TD*%
D18*
%TO.C,MX62*%
X250190000Y5080000D03*
D19*
X247650000Y0D03*
D18*
X243840000Y2540000D03*
D15*
X242570000Y0D03*
X252730000Y0D03*
%TD*%
D18*
%TO.C,MX61*%
X197802500Y-71120000D03*
D19*
X195262500Y-76200000D03*
D18*
X191452500Y-73660000D03*
D15*
X190182500Y-76200000D03*
X200342500Y-76200000D03*
%TD*%
D18*
%TO.C,MX60*%
X207327500Y-52070000D03*
D19*
X204787500Y-57150000D03*
D18*
X200977500Y-54610000D03*
D15*
X199707500Y-57150000D03*
X209867500Y-57150000D03*
%TD*%
D18*
%TO.C,MX59*%
X221615000Y-33020000D03*
D19*
X219075000Y-38100000D03*
D18*
X215265000Y-35560000D03*
D15*
X213995000Y-38100000D03*
X224155000Y-38100000D03*
%TD*%
D18*
%TO.C,MX58*%
X231140000Y-13970000D03*
D19*
X228600000Y-19050000D03*
D18*
X224790000Y-16510000D03*
D15*
X223520000Y-19050000D03*
X233680000Y-19050000D03*
%TD*%
D18*
%TO.C,MX57*%
X231140000Y5080000D03*
D19*
X228600000Y0D03*
D18*
X224790000Y2540000D03*
D15*
X223520000Y0D03*
X233680000Y0D03*
%TD*%
D18*
%TO.C,MX56*%
X178752500Y-71120000D03*
D19*
X176212500Y-76200000D03*
D18*
X172402500Y-73660000D03*
D15*
X171132500Y-76200000D03*
X181292500Y-76200000D03*
%TD*%
D18*
%TO.C,MX55*%
X188277500Y-52070000D03*
D19*
X185737500Y-57150000D03*
D18*
X181927500Y-54610000D03*
D15*
X180657500Y-57150000D03*
X190817500Y-57150000D03*
%TD*%
D18*
%TO.C,MX54*%
X202565000Y-33020000D03*
D19*
X200025000Y-38100000D03*
D18*
X196215000Y-35560000D03*
D15*
X194945000Y-38100000D03*
X205105000Y-38100000D03*
%TD*%
D18*
%TO.C,MX53*%
X212090000Y-13970000D03*
D19*
X209550000Y-19050000D03*
D18*
X205740000Y-16510000D03*
D15*
X204470000Y-19050000D03*
X214630000Y-19050000D03*
%TD*%
D18*
%TO.C,MX52*%
X212090000Y5080000D03*
D19*
X209550000Y0D03*
D18*
X205740000Y2540000D03*
D15*
X204470000Y0D03*
X214630000Y0D03*
%TD*%
D18*
%TO.C,MX51*%
X159702500Y-71120000D03*
D19*
X157162500Y-76200000D03*
D18*
X153352500Y-73660000D03*
D15*
X152082500Y-76200000D03*
X162242500Y-76200000D03*
%TD*%
D18*
%TO.C,MX50*%
X169227500Y-52070000D03*
D19*
X166687500Y-57150000D03*
D18*
X162877500Y-54610000D03*
D15*
X161607500Y-57150000D03*
X171767500Y-57150000D03*
%TD*%
D18*
%TO.C,MX49*%
X183515000Y-33020000D03*
D19*
X180975000Y-38100000D03*
D18*
X177165000Y-35560000D03*
D15*
X175895000Y-38100000D03*
X186055000Y-38100000D03*
%TD*%
D18*
%TO.C,MX48*%
X193040000Y-13970000D03*
D19*
X190500000Y-19050000D03*
D18*
X186690000Y-16510000D03*
D15*
X185420000Y-19050000D03*
X195580000Y-19050000D03*
%TD*%
D18*
%TO.C,MX47*%
X193040000Y5080000D03*
D19*
X190500000Y0D03*
D18*
X186690000Y2540000D03*
D15*
X185420000Y0D03*
X195580000Y0D03*
%TD*%
D18*
%TO.C,MX46*%
X164465000Y-33020000D03*
D19*
X161925000Y-38100000D03*
D18*
X158115000Y-35560000D03*
D15*
X156845000Y-38100000D03*
X167005000Y-38100000D03*
%TD*%
D18*
%TO.C,MX45*%
X173990000Y-13970000D03*
D19*
X171450000Y-19050000D03*
D18*
X167640000Y-16510000D03*
D15*
X166370000Y-19050000D03*
X176530000Y-19050000D03*
%TD*%
D18*
%TO.C,MX44*%
X173990000Y5080000D03*
D19*
X171450000Y0D03*
D18*
X167640000Y2540000D03*
D15*
X166370000Y0D03*
X176530000Y0D03*
%TD*%
D18*
%TO.C,MX43*%
X154940000Y-13970000D03*
D19*
X152400000Y-19050000D03*
D18*
X148590000Y-16510000D03*
D15*
X147320000Y-19050000D03*
X157480000Y-19050000D03*
%TD*%
D18*
%TO.C,MX42*%
X154940000Y5080000D03*
D19*
X152400000Y0D03*
D18*
X148590000Y2540000D03*
D15*
X147320000Y0D03*
X157480000Y0D03*
%TD*%
D18*
%TO.C,MX41*%
X150177500Y-52070000D03*
D19*
X147637500Y-57150000D03*
D18*
X143827500Y-54610000D03*
D15*
X142557500Y-57150000D03*
X152717500Y-57150000D03*
%TD*%
D18*
%TO.C,MX40*%
X145415000Y-33020000D03*
D19*
X142875000Y-38100000D03*
D18*
X139065000Y-35560000D03*
D15*
X137795000Y-38100000D03*
X147955000Y-38100000D03*
%TD*%
D18*
%TO.C,MX39*%
X135890000Y-13970000D03*
D19*
X133350000Y-19050000D03*
D18*
X129540000Y-16510000D03*
D15*
X128270000Y-19050000D03*
X138430000Y-19050000D03*
%TD*%
D18*
%TO.C,MX38*%
X126365000Y5080000D03*
D19*
X123825000Y0D03*
D18*
X120015000Y2540000D03*
D15*
X118745000Y0D03*
X128905000Y0D03*
%TD*%
D18*
%TO.C,MX37*%
X140652500Y-71120000D03*
D19*
X138112500Y-76200000D03*
D18*
X134302500Y-73660000D03*
D15*
X133032500Y-76200000D03*
X143192500Y-76200000D03*
%TD*%
D18*
%TO.C,MX36*%
X131127500Y-52070000D03*
D19*
X128587500Y-57150000D03*
D18*
X124777500Y-54610000D03*
D15*
X123507500Y-57150000D03*
X133667500Y-57150000D03*
%TD*%
D18*
%TO.C,MX35*%
X126365000Y-33020000D03*
D19*
X123825000Y-38100000D03*
D18*
X120015000Y-35560000D03*
D15*
X118745000Y-38100000D03*
X128905000Y-38100000D03*
%TD*%
D18*
%TO.C,MX34*%
X116840000Y-13970000D03*
D19*
X114300000Y-19050000D03*
D18*
X110490000Y-16510000D03*
D15*
X109220000Y-19050000D03*
X119380000Y-19050000D03*
%TD*%
D18*
%TO.C,MX33*%
X107315000Y5080000D03*
D19*
X104775000Y0D03*
D18*
X100965000Y2540000D03*
D15*
X99695000Y0D03*
X109855000Y0D03*
%TD*%
D18*
%TO.C,MX32*%
X131127500Y-90170000D03*
D19*
X128587500Y-95250000D03*
D18*
X124777500Y-92710000D03*
D15*
X123507500Y-95250000D03*
X133667500Y-95250000D03*
D24*
X71437500Y-88265000D03*
X185737500Y-88265000D03*
D19*
X71437500Y-103505000D03*
X185737500Y-103505000D03*
%TD*%
D18*
%TO.C,MX31*%
X121602500Y-71120000D03*
D19*
X119062500Y-76200000D03*
D18*
X115252500Y-73660000D03*
D15*
X113982500Y-76200000D03*
X124142500Y-76200000D03*
%TD*%
D18*
%TO.C,MX30*%
X112077500Y-52070000D03*
D19*
X109537500Y-57150000D03*
D18*
X105727500Y-54610000D03*
D15*
X104457500Y-57150000D03*
X114617500Y-57150000D03*
%TD*%
D18*
%TO.C,MX29*%
X107315000Y-33020000D03*
D19*
X104775000Y-38100000D03*
D18*
X100965000Y-35560000D03*
D15*
X99695000Y-38100000D03*
X109855000Y-38100000D03*
%TD*%
D18*
%TO.C,MX28*%
X97790000Y-13970000D03*
D19*
X95250000Y-19050000D03*
D18*
X91440000Y-16510000D03*
D15*
X90170000Y-19050000D03*
X100330000Y-19050000D03*
%TD*%
D18*
%TO.C,MX27*%
X88265000Y5080000D03*
D19*
X85725000Y0D03*
D18*
X81915000Y2540000D03*
D15*
X80645000Y0D03*
X90805000Y0D03*
%TD*%
D18*
%TO.C,MX26*%
X102552500Y-71120000D03*
D19*
X100012500Y-76200000D03*
D18*
X96202500Y-73660000D03*
D15*
X94932500Y-76200000D03*
X105092500Y-76200000D03*
%TD*%
D18*
%TO.C,MX25*%
X93027500Y-52070000D03*
D19*
X90487500Y-57150000D03*
D18*
X86677500Y-54610000D03*
D15*
X85407500Y-57150000D03*
X95567500Y-57150000D03*
%TD*%
D18*
%TO.C,MX24*%
X88265000Y-33020000D03*
D19*
X85725000Y-38100000D03*
D18*
X81915000Y-35560000D03*
D15*
X80645000Y-38100000D03*
X90805000Y-38100000D03*
%TD*%
D18*
%TO.C,MX23*%
X78740000Y-13970000D03*
D19*
X76200000Y-19050000D03*
D18*
X72390000Y-16510000D03*
D15*
X71120000Y-19050000D03*
X81280000Y-19050000D03*
%TD*%
D18*
%TO.C,MX22*%
X69215000Y5080000D03*
D19*
X66675000Y0D03*
D18*
X62865000Y2540000D03*
D15*
X61595000Y0D03*
X71755000Y0D03*
%TD*%
D18*
%TO.C,MX21*%
X83502500Y-71120000D03*
D19*
X80962500Y-76200000D03*
D18*
X77152500Y-73660000D03*
D15*
X75882500Y-76200000D03*
X86042500Y-76200000D03*
%TD*%
D18*
%TO.C,MX20*%
X73977500Y-52070000D03*
D19*
X71437500Y-57150000D03*
D18*
X67627500Y-54610000D03*
D15*
X66357500Y-57150000D03*
X76517500Y-57150000D03*
%TD*%
D18*
%TO.C,MX19*%
X69215000Y-33020000D03*
D19*
X66675000Y-38100000D03*
D18*
X62865000Y-35560000D03*
D15*
X61595000Y-38100000D03*
X71755000Y-38100000D03*
%TD*%
D18*
%TO.C,MX18*%
X59690000Y-13970000D03*
D19*
X57150000Y-19050000D03*
D18*
X53340000Y-16510000D03*
D15*
X52070000Y-19050000D03*
X62230000Y-19050000D03*
%TD*%
D18*
%TO.C,MX17*%
X50165000Y5080000D03*
D19*
X47625000Y0D03*
D18*
X43815000Y2540000D03*
D15*
X42545000Y0D03*
X52705000Y0D03*
%TD*%
D18*
%TO.C,MX16*%
X64452500Y-71120000D03*
D19*
X61912500Y-76200000D03*
D18*
X58102500Y-73660000D03*
D15*
X56832500Y-76200000D03*
X66992500Y-76200000D03*
%TD*%
D18*
%TO.C,MX15*%
X54927500Y-52070000D03*
D19*
X52387500Y-57150000D03*
D18*
X48577500Y-54610000D03*
D15*
X47307500Y-57150000D03*
X57467500Y-57150000D03*
%TD*%
D18*
%TO.C,MX14*%
X50165000Y-33020000D03*
D19*
X47625000Y-38100000D03*
D18*
X43815000Y-35560000D03*
D15*
X42545000Y-38100000D03*
X52705000Y-38100000D03*
%TD*%
D18*
%TO.C,MX13*%
X40640000Y-13970000D03*
D19*
X38100000Y-19050000D03*
D18*
X34290000Y-16510000D03*
D15*
X33020000Y-19050000D03*
X43180000Y-19050000D03*
%TD*%
D18*
%TO.C,MX12*%
X31115000Y5080000D03*
D19*
X28575000Y0D03*
D18*
X24765000Y2540000D03*
D15*
X23495000Y0D03*
X33655000Y0D03*
%TD*%
D18*
%TO.C,MX11*%
X52546250Y-90170000D03*
D19*
X50006250Y-95250000D03*
D18*
X46196250Y-92710000D03*
D15*
X44926250Y-95250000D03*
X55086250Y-95250000D03*
%TD*%
D18*
%TO.C,MX10*%
X45402500Y-71120000D03*
D19*
X42862500Y-76200000D03*
D18*
X39052500Y-73660000D03*
D15*
X37782500Y-76200000D03*
X47942500Y-76200000D03*
%TD*%
D18*
%TO.C,MX9*%
X35877500Y-52070000D03*
D19*
X33337500Y-57150000D03*
D18*
X29527500Y-54610000D03*
D15*
X28257500Y-57150000D03*
X38417500Y-57150000D03*
%TD*%
D18*
%TO.C,MX8*%
X31115000Y-33020000D03*
D19*
X28575000Y-38100000D03*
D18*
X24765000Y-35560000D03*
D15*
X23495000Y-38100000D03*
X33655000Y-38100000D03*
%TD*%
D18*
%TO.C,MX7*%
X21590000Y-13970000D03*
D19*
X19050000Y-19050000D03*
D18*
X15240000Y-16510000D03*
D15*
X13970000Y-19050000D03*
X24130000Y-19050000D03*
%TD*%
D18*
%TO.C,MX6*%
X28733750Y-90170000D03*
D19*
X26193750Y-95250000D03*
D18*
X22383750Y-92710000D03*
D15*
X21113750Y-95250000D03*
X31273750Y-95250000D03*
%TD*%
D18*
%TO.C,MX5*%
X14446250Y-71120000D03*
D19*
X11906250Y-76200000D03*
D18*
X8096250Y-73660000D03*
D15*
X6826250Y-76200000D03*
X16986250Y-76200000D03*
D24*
X0Y-69215000D03*
X23812500Y-69215000D03*
D19*
X0Y-84455000D03*
X23812500Y-84455000D03*
%TD*%
D18*
%TO.C,MX3*%
X7302500Y-33020000D03*
D19*
X4762500Y-38100000D03*
D18*
X952500Y-35560000D03*
D15*
X-317500Y-38100000D03*
X9842500Y-38100000D03*
%TD*%
D18*
%TO.C,MX2*%
X2540000Y-13970000D03*
D19*
X0Y-19050000D03*
D18*
X-3810000Y-16510000D03*
D15*
X-5080000Y-19050000D03*
X5080000Y-19050000D03*
%TD*%
D18*
%TO.C,MX1*%
X2540000Y5080000D03*
D19*
X0Y0D03*
D18*
X-3810000Y2540000D03*
D15*
X-5080000Y0D03*
X5080000Y0D03*
%TD*%
%TO.C,F1*%
G36*
G01*
X187343750Y18881250D02*
X187343750Y17631250D01*
G75*
G02*
X187093750Y17381250I-250000J0D01*
G01*
X186343750Y17381250D01*
G75*
G02*
X186093750Y17631250I0J250000D01*
G01*
X186093750Y18881250D01*
G75*
G02*
X186343750Y19131250I250000J0D01*
G01*
X187093750Y19131250D01*
G75*
G02*
X187343750Y18881250I0J-250000D01*
G01*
G37*
G36*
G01*
X190143750Y18881250D02*
X190143750Y17631250D01*
G75*
G02*
X189893750Y17381250I-250000J0D01*
G01*
X189143750Y17381250D01*
G75*
G02*
X188893750Y17631250I0J250000D01*
G01*
X188893750Y18881250D01*
G75*
G02*
X189143750Y19131250I250000J0D01*
G01*
X189893750Y19131250D01*
G75*
G02*
X190143750Y18881250I0J-250000D01*
G01*
G37*
%TD*%
D25*
%TO.C,D90*%
X351631250Y-93600000D03*
X351631250Y-96900000D03*
%TD*%
%TO.C,D89*%
X361156250Y-74550000D03*
X361156250Y-77850000D03*
%TD*%
%TO.C,D88*%
X361156250Y-55500000D03*
X361156250Y-58800000D03*
%TD*%
%TO.C,D87*%
X361156250Y-36450000D03*
X361156250Y-39750000D03*
%TD*%
%TO.C,D86*%
X361156250Y-17400000D03*
X361156250Y-20700000D03*
%TD*%
%TO.C,D85*%
X342106250Y-55500000D03*
X342106250Y-58800000D03*
%TD*%
%TO.C,D84*%
X342106250Y-36450000D03*
X342106250Y-39750000D03*
%TD*%
%TO.C,D83*%
X342106250Y-17400000D03*
X342106250Y-20700000D03*
%TD*%
%TO.C,D82*%
X323056250Y-93600000D03*
X323056250Y-96900000D03*
%TD*%
%TO.C,D81*%
X332581250Y-74550000D03*
X332581250Y-77850000D03*
%TD*%
%TO.C,D80*%
X323056250Y-55500000D03*
X323056250Y-58800000D03*
%TD*%
%TO.C,D79*%
X323056250Y-36450000D03*
X323056250Y-39750000D03*
%TD*%
%TO.C,D78*%
X322961000Y-17400000D03*
X322961000Y-20700000D03*
%TD*%
%TO.C,D77*%
X284956250Y-93600000D03*
X284956250Y-96900000D03*
%TD*%
%TO.C,D76*%
X294481250Y-74550000D03*
X294481250Y-77850000D03*
%TD*%
D26*
%TO.C,D75*%
G36*
X274952208Y-64718014D02*
G01*
X275800736Y-65566542D01*
X275164340Y-66202938D01*
X274315812Y-65354410D01*
X274952208Y-64718014D01*
G37*
G36*
X277285660Y-62384562D02*
G01*
X278134188Y-63233090D01*
X277497792Y-63869486D01*
X276649264Y-63020958D01*
X277285660Y-62384562D01*
G37*
%TD*%
%TO.C,D74*%
G36*
X284477208Y-45668014D02*
G01*
X285325736Y-46516542D01*
X284689340Y-47152938D01*
X283840812Y-46304410D01*
X284477208Y-45668014D01*
G37*
G36*
X286810660Y-43334562D02*
G01*
X287659188Y-44183090D01*
X287022792Y-44819486D01*
X286174264Y-43970958D01*
X286810660Y-43334562D01*
G37*
%TD*%
%TO.C,D73*%
G36*
X284477208Y-26618014D02*
G01*
X285325736Y-27466542D01*
X284689340Y-28102938D01*
X283840812Y-27254410D01*
X284477208Y-26618014D01*
G37*
G36*
X286810660Y-24284562D02*
G01*
X287659188Y-25133090D01*
X287022792Y-25769486D01*
X286174264Y-24920958D01*
X286810660Y-24284562D01*
G37*
%TD*%
D25*
%TO.C,D72*%
X239712500Y-93600000D03*
X239712500Y-96900000D03*
%TD*%
%TO.C,D71*%
X249237500Y-74550000D03*
X249237500Y-77850000D03*
%TD*%
%TO.C,D70*%
X259556250Y-59468750D03*
X259556250Y-62768750D03*
%TD*%
D26*
%TO.C,D69*%
G36*
X282150736Y-19364708D02*
G01*
X281302208Y-20213236D01*
X280665812Y-19576840D01*
X281514340Y-18728312D01*
X282150736Y-19364708D01*
G37*
G36*
X284484188Y-21698160D02*
G01*
X283635660Y-22546688D01*
X282999264Y-21910292D01*
X283847792Y-21061764D01*
X284484188Y-21698160D01*
G37*
%TD*%
D27*
%TO.C,D68*%
X284893750Y4762500D03*
X288193750Y4762500D03*
%TD*%
D25*
%TO.C,D67*%
X215900000Y-93600000D03*
X215900000Y-96900000D03*
%TD*%
%TO.C,D66*%
X223043750Y-74550000D03*
X223043750Y-77850000D03*
%TD*%
%TO.C,D65*%
X232568750Y-55500000D03*
X232568750Y-58800000D03*
%TD*%
%TO.C,D64*%
X246062500Y-38831250D03*
X246062500Y-42131250D03*
%TD*%
%TO.C,D63*%
X256381250Y-17400000D03*
X256381250Y-20700000D03*
%TD*%
%TO.C,D62*%
X256381250Y1650000D03*
X256381250Y-1650000D03*
%TD*%
%TO.C,D61*%
X203993750Y-74550000D03*
X203993750Y-77850000D03*
%TD*%
%TO.C,D60*%
X213518750Y-55500000D03*
X213518750Y-58800000D03*
%TD*%
%TO.C,D59*%
X227806250Y-36450000D03*
X227806250Y-39750000D03*
%TD*%
%TO.C,D58*%
X237331250Y-17400000D03*
X237331250Y-20700000D03*
%TD*%
%TO.C,D57*%
X237331250Y1650000D03*
X237331250Y-1650000D03*
%TD*%
%TO.C,D56*%
X184943750Y-74550000D03*
X184943750Y-77850000D03*
%TD*%
%TO.C,D55*%
X194468750Y-55500000D03*
X194468750Y-58800000D03*
%TD*%
%TO.C,D54*%
X208756250Y-36450000D03*
X208756250Y-39750000D03*
%TD*%
%TO.C,D53*%
X218281250Y-17400000D03*
X218281250Y-20700000D03*
%TD*%
%TO.C,D52*%
X218281250Y1650000D03*
X218281250Y-1650000D03*
%TD*%
%TO.C,D51*%
X165893750Y-74550000D03*
X165893750Y-77850000D03*
%TD*%
%TO.C,D50*%
X175418750Y-55500000D03*
X175418750Y-58800000D03*
%TD*%
%TO.C,D49*%
X189706250Y-36450000D03*
X189706250Y-39750000D03*
%TD*%
%TO.C,D48*%
X199231250Y-17400000D03*
X199231250Y-20700000D03*
%TD*%
%TO.C,D47*%
X199231250Y1650000D03*
X199231250Y-1650000D03*
%TD*%
%TO.C,D46*%
X170656250Y-36450000D03*
X170656250Y-39750000D03*
%TD*%
%TO.C,D45*%
X180181250Y-17400000D03*
X180181250Y-20700000D03*
%TD*%
%TO.C,D44*%
X180181250Y1650000D03*
X180181250Y-1650000D03*
%TD*%
%TO.C,D43*%
X161131250Y-17400000D03*
X161131250Y-20700000D03*
%TD*%
%TO.C,D42*%
X161131250Y1650000D03*
X161131250Y-1650000D03*
%TD*%
%TO.C,D41*%
X156368750Y-55500000D03*
X156368750Y-58800000D03*
%TD*%
%TO.C,D40*%
X151606250Y-36450000D03*
X151606250Y-39750000D03*
%TD*%
%TO.C,D39*%
X142081250Y-17400000D03*
X142081250Y-20700000D03*
%TD*%
%TO.C,D38*%
X132556250Y1650000D03*
X132556250Y-1650000D03*
%TD*%
%TO.C,D37*%
X146843750Y-74550000D03*
X146843750Y-77850000D03*
%TD*%
%TO.C,D36*%
X137318750Y-55500000D03*
X137318750Y-58800000D03*
%TD*%
%TO.C,D35*%
X132556250Y-36450000D03*
X132556250Y-39750000D03*
%TD*%
%TO.C,D34*%
X123031250Y-17400000D03*
X123031250Y-20700000D03*
%TD*%
%TO.C,D33*%
X113506250Y1650000D03*
X113506250Y-1650000D03*
%TD*%
%TO.C,D32*%
X137318750Y-93600000D03*
X137318750Y-96900000D03*
%TD*%
%TO.C,D31*%
X127793750Y-74550000D03*
X127793750Y-77850000D03*
%TD*%
%TO.C,D30*%
X118268750Y-55500000D03*
X118268750Y-58800000D03*
%TD*%
%TO.C,D29*%
X113506250Y-36450000D03*
X113506250Y-39750000D03*
%TD*%
%TO.C,D28*%
X103981250Y-17400000D03*
X103981250Y-20700000D03*
%TD*%
%TO.C,D27*%
X94456250Y1650000D03*
X94456250Y-1650000D03*
%TD*%
%TO.C,D26*%
X108743750Y-74550000D03*
X108743750Y-77850000D03*
%TD*%
%TO.C,D25*%
X99218750Y-55500000D03*
X99218750Y-58800000D03*
%TD*%
%TO.C,D24*%
X94456250Y-36450000D03*
X94456250Y-39750000D03*
%TD*%
%TO.C,D23*%
X84931250Y-17400000D03*
X84931250Y-20700000D03*
%TD*%
%TO.C,D22*%
X75406250Y1650000D03*
X75406250Y-1650000D03*
%TD*%
%TO.C,D21*%
X89693750Y-74550000D03*
X89693750Y-77850000D03*
%TD*%
%TO.C,D20*%
X80168750Y-55500000D03*
X80168750Y-58800000D03*
%TD*%
%TO.C,D19*%
X75406250Y-36450000D03*
X75406250Y-39750000D03*
%TD*%
%TO.C,D18*%
X65881250Y-17400000D03*
X65881250Y-20700000D03*
%TD*%
%TO.C,D17*%
X56356250Y1650000D03*
X56356250Y-1650000D03*
%TD*%
%TO.C,D16*%
X70643750Y-74550000D03*
X70643750Y-77850000D03*
%TD*%
%TO.C,D15*%
X61118750Y-55500000D03*
X61118750Y-58800000D03*
%TD*%
%TO.C,D14*%
X56356250Y-36450000D03*
X56356250Y-39750000D03*
%TD*%
%TO.C,D13*%
X46831250Y-17400000D03*
X46831250Y-20700000D03*
%TD*%
%TO.C,D12*%
X37306250Y1650000D03*
X37306250Y-1650000D03*
%TD*%
%TO.C,D11*%
X58737500Y-93600000D03*
X58737500Y-96900000D03*
%TD*%
%TO.C,D10*%
X51593750Y-74550000D03*
X51593750Y-77850000D03*
%TD*%
%TO.C,D9*%
X42068750Y-55500000D03*
X42068750Y-58800000D03*
%TD*%
%TO.C,D8*%
X37306250Y-36450000D03*
X37306250Y-39750000D03*
%TD*%
%TO.C,D7*%
X27781250Y-17400000D03*
X27781250Y-20700000D03*
%TD*%
%TO.C,D6*%
X34925000Y-93600000D03*
X34925000Y-96900000D03*
%TD*%
%TO.C,D5*%
X20637500Y-74550000D03*
X20637500Y-77850000D03*
%TD*%
%TO.C,D4*%
X22987000Y-55500000D03*
X22987000Y-58800000D03*
%TD*%
%TO.C,D3*%
X13493750Y-36450000D03*
X13493750Y-39750000D03*
%TD*%
%TO.C,D2*%
X8731250Y-17400000D03*
X8731250Y-20700000D03*
%TD*%
%TO.C,D1*%
X8731250Y1650000D03*
X8731250Y-1650000D03*
%TD*%
%TO.C,C8*%
G36*
G01*
X318743750Y26512500D02*
X318743750Y27462500D01*
G75*
G02*
X318993750Y27712500I250000J0D01*
G01*
X319493750Y27712500D01*
G75*
G02*
X319743750Y27462500I0J-250000D01*
G01*
X319743750Y26512500D01*
G75*
G02*
X319493750Y26262500I-250000J0D01*
G01*
X318993750Y26262500D01*
G75*
G02*
X318743750Y26512500I0J250000D01*
G01*
G37*
G36*
G01*
X316843750Y26512500D02*
X316843750Y27462500D01*
G75*
G02*
X317093750Y27712500I250000J0D01*
G01*
X317593750Y27712500D01*
G75*
G02*
X317843750Y27462500I0J-250000D01*
G01*
X317843750Y26512500D01*
G75*
G02*
X317593750Y26262500I-250000J0D01*
G01*
X317093750Y26262500D01*
G75*
G02*
X316843750Y26512500I0J250000D01*
G01*
G37*
%TD*%
%TO.C,C7*%
G36*
G01*
X299383427Y26560678D02*
X300055178Y25888927D01*
G75*
G02*
X300055178Y25535373I-176777J-176777D01*
G01*
X299701625Y25181820D01*
G75*
G02*
X299348071Y25181820I-176777J176777D01*
G01*
X298676320Y25853571D01*
G75*
G02*
X298676320Y26207125I176777J176777D01*
G01*
X299029873Y26560678D01*
G75*
G02*
X299383427Y26560678I176777J-176777D01*
G01*
G37*
G36*
G01*
X300726929Y27904180D02*
X301398680Y27232429D01*
G75*
G02*
X301398680Y26878875I-176777J-176777D01*
G01*
X301045127Y26525322D01*
G75*
G02*
X300691573Y26525322I-176777J176777D01*
G01*
X300019822Y27197073D01*
G75*
G02*
X300019822Y27550627I176777J176777D01*
G01*
X300373375Y27904180D01*
G75*
G02*
X300726929Y27904180I176777J-176777D01*
G01*
G37*
%TD*%
%TO.C,C6*%
G36*
G01*
X322622250Y23020000D02*
X322622250Y23970000D01*
G75*
G02*
X322872250Y24220000I250000J0D01*
G01*
X323372250Y24220000D01*
G75*
G02*
X323622250Y23970000I0J-250000D01*
G01*
X323622250Y23020000D01*
G75*
G02*
X323372250Y22770000I-250000J0D01*
G01*
X322872250Y22770000D01*
G75*
G02*
X322622250Y23020000I0J250000D01*
G01*
G37*
G36*
G01*
X324522250Y23020000D02*
X324522250Y23970000D01*
G75*
G02*
X324772250Y24220000I250000J0D01*
G01*
X325272250Y24220000D01*
G75*
G02*
X325522250Y23970000I0J-250000D01*
G01*
X325522250Y23020000D01*
G75*
G02*
X325272250Y22770000I-250000J0D01*
G01*
X324772250Y22770000D01*
G75*
G02*
X324522250Y23020000I0J250000D01*
G01*
G37*
%TD*%
%TO.C,C5*%
G36*
G01*
X299941000Y11816500D02*
X298991000Y11816500D01*
G75*
G02*
X298741000Y12066500I0J250000D01*
G01*
X298741000Y12566500D01*
G75*
G02*
X298991000Y12816500I250000J0D01*
G01*
X299941000Y12816500D01*
G75*
G02*
X300191000Y12566500I0J-250000D01*
G01*
X300191000Y12066500D01*
G75*
G02*
X299941000Y11816500I-250000J0D01*
G01*
G37*
G36*
G01*
X299941000Y9916500D02*
X298991000Y9916500D01*
G75*
G02*
X298741000Y10166500I0J250000D01*
G01*
X298741000Y10666500D01*
G75*
G02*
X298991000Y10916500I250000J0D01*
G01*
X299941000Y10916500D01*
G75*
G02*
X300191000Y10666500I0J-250000D01*
G01*
X300191000Y10166500D01*
G75*
G02*
X299941000Y9916500I-250000J0D01*
G01*
G37*
%TD*%
%TO.C,C4*%
G36*
G01*
X298991000Y20759000D02*
X299941000Y20759000D01*
G75*
G02*
X300191000Y20509000I0J-250000D01*
G01*
X300191000Y20009000D01*
G75*
G02*
X299941000Y19759000I-250000J0D01*
G01*
X298991000Y19759000D01*
G75*
G02*
X298741000Y20009000I0J250000D01*
G01*
X298741000Y20509000D01*
G75*
G02*
X298991000Y20759000I250000J0D01*
G01*
G37*
G36*
G01*
X298991000Y22659000D02*
X299941000Y22659000D01*
G75*
G02*
X300191000Y22409000I0J-250000D01*
G01*
X300191000Y21909000D01*
G75*
G02*
X299941000Y21659000I-250000J0D01*
G01*
X298991000Y21659000D01*
G75*
G02*
X298741000Y21909000I0J250000D01*
G01*
X298741000Y22409000D01*
G75*
G02*
X298991000Y22659000I250000J0D01*
G01*
G37*
%TD*%
%TO.C,C3*%
G36*
G01*
X325527250Y21049000D02*
X325527250Y20099000D01*
G75*
G02*
X325277250Y19849000I-250000J0D01*
G01*
X324777250Y19849000D01*
G75*
G02*
X324527250Y20099000I0J250000D01*
G01*
X324527250Y21049000D01*
G75*
G02*
X324777250Y21299000I250000J0D01*
G01*
X325277250Y21299000D01*
G75*
G02*
X325527250Y21049000I0J-250000D01*
G01*
G37*
G36*
G01*
X327427250Y21049000D02*
X327427250Y20099000D01*
G75*
G02*
X327177250Y19849000I-250000J0D01*
G01*
X326677250Y19849000D01*
G75*
G02*
X326427250Y20099000I0J250000D01*
G01*
X326427250Y21049000D01*
G75*
G02*
X326677250Y21299000I250000J0D01*
G01*
X327177250Y21299000D01*
G75*
G02*
X327427250Y21049000I0J-250000D01*
G01*
G37*
%TD*%
%TO.C,C2*%
G36*
G01*
X326427250Y11971000D02*
X326427250Y12921000D01*
G75*
G02*
X326677250Y13171000I250000J0D01*
G01*
X327177250Y13171000D01*
G75*
G02*
X327427250Y12921000I0J-250000D01*
G01*
X327427250Y11971000D01*
G75*
G02*
X327177250Y11721000I-250000J0D01*
G01*
X326677250Y11721000D01*
G75*
G02*
X326427250Y11971000I0J250000D01*
G01*
G37*
G36*
G01*
X324527250Y11971000D02*
X324527250Y12921000D01*
G75*
G02*
X324777250Y13171000I250000J0D01*
G01*
X325277250Y13171000D01*
G75*
G02*
X325527250Y12921000I0J-250000D01*
G01*
X325527250Y11971000D01*
G75*
G02*
X325277250Y11721000I-250000J0D01*
G01*
X324777250Y11721000D01*
G75*
G02*
X324527250Y11971000I0J250000D01*
G01*
G37*
%TD*%
%TO.C,C1*%
G36*
G01*
X312457250Y26512500D02*
X312457250Y27462500D01*
G75*
G02*
X312707250Y27712500I250000J0D01*
G01*
X313207250Y27712500D01*
G75*
G02*
X313457250Y27462500I0J-250000D01*
G01*
X313457250Y26512500D01*
G75*
G02*
X313207250Y26262500I-250000J0D01*
G01*
X312707250Y26262500D01*
G75*
G02*
X312457250Y26512500I0J250000D01*
G01*
G37*
G36*
G01*
X310557250Y26512500D02*
X310557250Y27462500D01*
G75*
G02*
X310807250Y27712500I250000J0D01*
G01*
X311307250Y27712500D01*
G75*
G02*
X311557250Y27462500I0J-250000D01*
G01*
X311557250Y26512500D01*
G75*
G02*
X311307250Y26262500I-250000J0D01*
G01*
X310807250Y26262500D01*
G75*
G02*
X310557250Y26512500I0J250000D01*
G01*
G37*
%TD*%
M02*
