G04 #@! TF.GenerationSoftware,KiCad,Pcbnew,5.1.9*
G04 #@! TF.CreationDate,2021-03-26T15:39:31-04:00*
G04 #@! TF.ProjectId,EKS-1k,454b532d-316b-42e6-9b69-6361645f7063,rev?*
G04 #@! TF.SameCoordinates,Original*
G04 #@! TF.FileFunction,Soldermask,Bot*
G04 #@! TF.FilePolarity,Negative*
%FSLAX46Y46*%
G04 Gerber Fmt 4.6, Leading zero omitted, Abs format (unit mm)*
G04 Created by KiCad (PCBNEW 5.1.9) date 2021-03-26 15:39:31*
%MOMM*%
%LPD*%
G01*
G04 APERTURE LIST*
%ADD10O,2.700000X1.700000*%
%ADD11C,7.000000*%
%ADD12C,1.750000*%
%ADD13R,1.905000X1.905000*%
%ADD14C,1.905000*%
%ADD15C,2.250000*%
%ADD16C,3.987800*%
%ADD17R,1.200000X1.400000*%
%ADD18R,0.550000X1.500000*%
%ADD19R,1.500000X0.550000*%
%ADD20C,0.100000*%
%ADD21C,3.048000*%
%ADD22R,1.200000X0.900000*%
G04 APERTURE END LIST*
D10*
G04 #@! TO.C,J1*
X102700000Y-7387500D03*
X102700000Y-14687500D03*
X107200000Y-14687500D03*
X107200000Y-7387500D03*
G04 #@! TD*
D11*
G04 #@! TO.C,REF4*
X316250000Y-129300000D03*
G04 #@! TD*
G04 #@! TO.C,REF2*
X373450000Y-34600000D03*
G04 #@! TD*
G04 #@! TO.C,REF3*
X14500000Y-129300000D03*
G04 #@! TD*
G04 #@! TO.C,REF1*
X60900000Y-11600000D03*
G04 #@! TD*
G04 #@! TO.C,C8*
G36*
G01*
X328681250Y-10587500D02*
X327731250Y-10587500D01*
G75*
G02*
X327481250Y-10337500I0J250000D01*
G01*
X327481250Y-9837500D01*
G75*
G02*
X327731250Y-9587500I250000J0D01*
G01*
X328681250Y-9587500D01*
G75*
G02*
X328931250Y-9837500I0J-250000D01*
G01*
X328931250Y-10337500D01*
G75*
G02*
X328681250Y-10587500I-250000J0D01*
G01*
G37*
G36*
G01*
X328681250Y-12487500D02*
X327731250Y-12487500D01*
G75*
G02*
X327481250Y-12237500I0J250000D01*
G01*
X327481250Y-11737500D01*
G75*
G02*
X327731250Y-11487500I250000J0D01*
G01*
X328681250Y-11487500D01*
G75*
G02*
X328931250Y-11737500I0J-250000D01*
G01*
X328931250Y-12237500D01*
G75*
G02*
X328681250Y-12487500I-250000J0D01*
G01*
G37*
G04 #@! TD*
D12*
G04 #@! TO.C,MX12*
X45878900Y-34056250D03*
X35718900Y-34056250D03*
D13*
X42068900Y-39136250D03*
D14*
X39528900Y-39136250D03*
D15*
X36988900Y-31516250D03*
D16*
X40798900Y-34056250D03*
D15*
X43338900Y-28976250D03*
G04 #@! TD*
G04 #@! TO.C,MX1*
X14040000Y-28976250D03*
D16*
X11500000Y-34056250D03*
D15*
X7690000Y-31516250D03*
D12*
X6420000Y-34056250D03*
X16580000Y-34056250D03*
G04 #@! TD*
D17*
G04 #@! TO.C,Y1*
X340638485Y-27472750D03*
X340638485Y-25272750D03*
X338938485Y-25272750D03*
X338938485Y-27472750D03*
G04 #@! TD*
G04 #@! TO.C,R4*
G36*
G01*
X312128000Y-33522002D02*
X312128000Y-32621998D01*
G75*
G02*
X312377998Y-32372000I249998J0D01*
G01*
X312903002Y-32372000D01*
G75*
G02*
X313153000Y-32621998I0J-249998D01*
G01*
X313153000Y-33522002D01*
G75*
G02*
X312903002Y-33772000I-249998J0D01*
G01*
X312377998Y-33772000D01*
G75*
G02*
X312128000Y-33522002I0J249998D01*
G01*
G37*
G36*
G01*
X310303000Y-33522002D02*
X310303000Y-32621998D01*
G75*
G02*
X310552998Y-32372000I249998J0D01*
G01*
X311078002Y-32372000D01*
G75*
G02*
X311328000Y-32621998I0J-249998D01*
G01*
X311328000Y-33522002D01*
G75*
G02*
X311078002Y-33772000I-249998J0D01*
G01*
X310552998Y-33772000D01*
G75*
G02*
X310303000Y-33522002I0J249998D01*
G01*
G37*
G04 #@! TD*
G04 #@! TO.C,C7*
G36*
G01*
X337256250Y-21806250D02*
X338206250Y-21806250D01*
G75*
G02*
X338456250Y-22056250I0J-250000D01*
G01*
X338456250Y-22556250D01*
G75*
G02*
X338206250Y-22806250I-250000J0D01*
G01*
X337256250Y-22806250D01*
G75*
G02*
X337006250Y-22556250I0J250000D01*
G01*
X337006250Y-22056250D01*
G75*
G02*
X337256250Y-21806250I250000J0D01*
G01*
G37*
G36*
G01*
X337256250Y-19906250D02*
X338206250Y-19906250D01*
G75*
G02*
X338456250Y-20156250I0J-250000D01*
G01*
X338456250Y-20656250D01*
G75*
G02*
X338206250Y-20906250I-250000J0D01*
G01*
X337256250Y-20906250D01*
G75*
G02*
X337006250Y-20656250I0J250000D01*
G01*
X337006250Y-20156250D01*
G75*
G02*
X337256250Y-19906250I250000J0D01*
G01*
G37*
G04 #@! TD*
G04 #@! TO.C,C6*
G36*
G01*
X313793000Y-18631250D02*
X314743000Y-18631250D01*
G75*
G02*
X314993000Y-18881250I0J-250000D01*
G01*
X314993000Y-19381250D01*
G75*
G02*
X314743000Y-19631250I-250000J0D01*
G01*
X313793000Y-19631250D01*
G75*
G02*
X313543000Y-19381250I0J250000D01*
G01*
X313543000Y-18881250D01*
G75*
G02*
X313793000Y-18631250I250000J0D01*
G01*
G37*
G36*
G01*
X313793000Y-16731250D02*
X314743000Y-16731250D01*
G75*
G02*
X314993000Y-16981250I0J-250000D01*
G01*
X314993000Y-17481250D01*
G75*
G02*
X314743000Y-17731250I-250000J0D01*
G01*
X313793000Y-17731250D01*
G75*
G02*
X313543000Y-17481250I0J250000D01*
G01*
X313543000Y-16981250D01*
G75*
G02*
X313793000Y-16731250I250000J0D01*
G01*
G37*
G04 #@! TD*
G04 #@! TO.C,C5*
G36*
G01*
X314743000Y-28050000D02*
X313793000Y-28050000D01*
G75*
G02*
X313543000Y-27800000I0J250000D01*
G01*
X313543000Y-27300000D01*
G75*
G02*
X313793000Y-27050000I250000J0D01*
G01*
X314743000Y-27050000D01*
G75*
G02*
X314993000Y-27300000I0J-250000D01*
G01*
X314993000Y-27800000D01*
G75*
G02*
X314743000Y-28050000I-250000J0D01*
G01*
G37*
G36*
G01*
X314743000Y-29950000D02*
X313793000Y-29950000D01*
G75*
G02*
X313543000Y-29700000I0J250000D01*
G01*
X313543000Y-29200000D01*
G75*
G02*
X313793000Y-28950000I250000J0D01*
G01*
X314743000Y-28950000D01*
G75*
G02*
X314993000Y-29200000I0J-250000D01*
G01*
X314993000Y-29700000D01*
G75*
G02*
X314743000Y-29950000I-250000J0D01*
G01*
G37*
G04 #@! TD*
G04 #@! TO.C,C4*
G36*
G01*
X319000000Y-11487500D02*
X319950000Y-11487500D01*
G75*
G02*
X320200000Y-11737500I0J-250000D01*
G01*
X320200000Y-12237500D01*
G75*
G02*
X319950000Y-12487500I-250000J0D01*
G01*
X319000000Y-12487500D01*
G75*
G02*
X318750000Y-12237500I0J250000D01*
G01*
X318750000Y-11737500D01*
G75*
G02*
X319000000Y-11487500I250000J0D01*
G01*
G37*
G36*
G01*
X319000000Y-9587500D02*
X319950000Y-9587500D01*
G75*
G02*
X320200000Y-9837500I0J-250000D01*
G01*
X320200000Y-10337500D01*
G75*
G02*
X319950000Y-10587500I-250000J0D01*
G01*
X319000000Y-10587500D01*
G75*
G02*
X318750000Y-10337500I0J250000D01*
G01*
X318750000Y-9837500D01*
G75*
G02*
X319000000Y-9587500I250000J0D01*
G01*
G37*
G04 #@! TD*
G04 #@! TO.C,C3*
G36*
G01*
X325506250Y-10587500D02*
X324556250Y-10587500D01*
G75*
G02*
X324306250Y-10337500I0J250000D01*
G01*
X324306250Y-9837500D01*
G75*
G02*
X324556250Y-9587500I250000J0D01*
G01*
X325506250Y-9587500D01*
G75*
G02*
X325756250Y-9837500I0J-250000D01*
G01*
X325756250Y-10337500D01*
G75*
G02*
X325506250Y-10587500I-250000J0D01*
G01*
G37*
G36*
G01*
X325506250Y-12487500D02*
X324556250Y-12487500D01*
G75*
G02*
X324306250Y-12237500I0J250000D01*
G01*
X324306250Y-11737500D01*
G75*
G02*
X324556250Y-11487500I250000J0D01*
G01*
X325506250Y-11487500D01*
G75*
G02*
X325756250Y-11737500I0J-250000D01*
G01*
X325756250Y-12237500D01*
G75*
G02*
X325506250Y-12487500I-250000J0D01*
G01*
G37*
G04 #@! TD*
G04 #@! TO.C,C2*
G36*
G01*
X344728613Y-25260250D02*
X344728613Y-24310250D01*
G75*
G02*
X344978613Y-24060250I250000J0D01*
G01*
X345478613Y-24060250D01*
G75*
G02*
X345728613Y-24310250I0J-250000D01*
G01*
X345728613Y-25260250D01*
G75*
G02*
X345478613Y-25510250I-250000J0D01*
G01*
X344978613Y-25510250D01*
G75*
G02*
X344728613Y-25260250I0J250000D01*
G01*
G37*
G36*
G01*
X342828613Y-25260250D02*
X342828613Y-24310250D01*
G75*
G02*
X343078613Y-24060250I250000J0D01*
G01*
X343578613Y-24060250D01*
G75*
G02*
X343828613Y-24310250I0J-250000D01*
G01*
X343828613Y-25260250D01*
G75*
G02*
X343578613Y-25510250I-250000J0D01*
G01*
X343078613Y-25510250D01*
G75*
G02*
X342828613Y-25260250I0J250000D01*
G01*
G37*
G04 #@! TD*
G04 #@! TO.C,C1*
G36*
G01*
X344690000Y-28435250D02*
X344690000Y-27485250D01*
G75*
G02*
X344940000Y-27235250I250000J0D01*
G01*
X345440000Y-27235250D01*
G75*
G02*
X345690000Y-27485250I0J-250000D01*
G01*
X345690000Y-28435250D01*
G75*
G02*
X345440000Y-28685250I-250000J0D01*
G01*
X344940000Y-28685250D01*
G75*
G02*
X344690000Y-28435250I0J250000D01*
G01*
G37*
G36*
G01*
X342790000Y-28435250D02*
X342790000Y-27485250D01*
G75*
G02*
X343040000Y-27235250I250000J0D01*
G01*
X343540000Y-27235250D01*
G75*
G02*
X343790000Y-27485250I0J-250000D01*
G01*
X343790000Y-28435250D01*
G75*
G02*
X343540000Y-28685250I-250000J0D01*
G01*
X343040000Y-28685250D01*
G75*
G02*
X342790000Y-28435250I0J250000D01*
G01*
G37*
G04 #@! TD*
D18*
G04 #@! TO.C,U1*
X319872585Y-16529288D03*
X320672585Y-16529288D03*
X321472585Y-16529288D03*
X322272585Y-16529288D03*
X323072585Y-16529288D03*
X323872585Y-16529288D03*
X324672585Y-16529288D03*
X325472585Y-16529288D03*
X326272585Y-16529288D03*
X327072585Y-16529288D03*
X327872585Y-16529288D03*
X328672585Y-16529288D03*
X329472585Y-16529288D03*
X330272585Y-16529288D03*
X331072585Y-16529288D03*
X331872585Y-16529288D03*
D19*
X333572585Y-18229288D03*
X333572585Y-19029288D03*
X333572585Y-19829288D03*
X333572585Y-20629288D03*
X333572585Y-21429288D03*
X333572585Y-22229288D03*
X333572585Y-23029288D03*
X333572585Y-23829288D03*
X333572585Y-24629288D03*
X333572585Y-25429288D03*
X333572585Y-26229288D03*
X333572585Y-27029288D03*
X333572585Y-27829288D03*
X333572585Y-28629288D03*
X333572585Y-29429288D03*
X333572585Y-30229288D03*
D18*
X331872585Y-31929288D03*
X331072585Y-31929288D03*
X330272585Y-31929288D03*
X329472585Y-31929288D03*
X328672585Y-31929288D03*
X327872585Y-31929288D03*
X327072585Y-31929288D03*
X326272585Y-31929288D03*
X325472585Y-31929288D03*
X324672585Y-31929288D03*
X323872585Y-31929288D03*
X323072585Y-31929288D03*
X322272585Y-31929288D03*
X321472585Y-31929288D03*
X320672585Y-31929288D03*
X319872585Y-31929288D03*
D19*
X318172585Y-30229288D03*
X318172585Y-29429288D03*
X318172585Y-28629288D03*
X318172585Y-27829288D03*
X318172585Y-27029288D03*
X318172585Y-26229288D03*
X318172585Y-25429288D03*
X318172585Y-24629288D03*
X318172585Y-23829288D03*
X318172585Y-23029288D03*
X318172585Y-22229288D03*
X318172585Y-21429288D03*
X318172585Y-20629288D03*
X318172585Y-19829288D03*
X318172585Y-19029288D03*
X318172585Y-18229288D03*
G04 #@! TD*
D20*
G04 #@! TO.C,SW1*
G36*
X341310874Y-6605396D02*
G01*
X342088692Y-5827578D01*
X343361484Y-7100370D01*
X342583666Y-7878188D01*
X341310874Y-6605396D01*
G37*
G36*
X334310516Y-4837630D02*
G01*
X335088334Y-4059812D01*
X336361126Y-5332604D01*
X335583308Y-6110422D01*
X334310516Y-4837630D01*
G37*
G36*
X338694578Y-9221692D02*
G01*
X339472396Y-8443874D01*
X340745188Y-9716666D01*
X339967370Y-10494484D01*
X338694578Y-9221692D01*
G37*
G36*
X336926812Y-2221334D02*
G01*
X337704630Y-1443516D01*
X338977422Y-2716308D01*
X338199604Y-3494126D01*
X336926812Y-2221334D01*
G37*
G04 #@! TD*
G04 #@! TO.C,R6*
G36*
G01*
X260393752Y-26512500D02*
X259493748Y-26512500D01*
G75*
G02*
X259243750Y-26262502I0J249998D01*
G01*
X259243750Y-25737498D01*
G75*
G02*
X259493748Y-25487500I249998J0D01*
G01*
X260393752Y-25487500D01*
G75*
G02*
X260643750Y-25737498I0J-249998D01*
G01*
X260643750Y-26262502D01*
G75*
G02*
X260393752Y-26512500I-249998J0D01*
G01*
G37*
G36*
G01*
X260393752Y-28337500D02*
X259493748Y-28337500D01*
G75*
G02*
X259243750Y-28087502I0J249998D01*
G01*
X259243750Y-27562498D01*
G75*
G02*
X259493748Y-27312500I249998J0D01*
G01*
X260393752Y-27312500D01*
G75*
G02*
X260643750Y-27562498I0J-249998D01*
G01*
X260643750Y-28087502D01*
G75*
G02*
X260393752Y-28337500I-249998J0D01*
G01*
G37*
G04 #@! TD*
G04 #@! TO.C,R5*
G36*
G01*
X32587502Y-33656250D02*
X31687498Y-33656250D01*
G75*
G02*
X31437500Y-33406252I0J249998D01*
G01*
X31437500Y-32881248D01*
G75*
G02*
X31687498Y-32631250I249998J0D01*
G01*
X32587502Y-32631250D01*
G75*
G02*
X32837500Y-32881248I0J-249998D01*
G01*
X32837500Y-33406252D01*
G75*
G02*
X32587502Y-33656250I-249998J0D01*
G01*
G37*
G36*
G01*
X32587502Y-35481250D02*
X31687498Y-35481250D01*
G75*
G02*
X31437500Y-35231252I0J249998D01*
G01*
X31437500Y-34706248D01*
G75*
G02*
X31687498Y-34456250I249998J0D01*
G01*
X32587502Y-34456250D01*
G75*
G02*
X32837500Y-34706248I0J-249998D01*
G01*
X32837500Y-35231252D01*
G75*
G02*
X32587502Y-35481250I-249998J0D01*
G01*
G37*
G04 #@! TD*
G04 #@! TO.C,R2*
G36*
G01*
X123018750Y-13043748D02*
X123018750Y-13943752D01*
G75*
G02*
X122768752Y-14193750I-249998J0D01*
G01*
X122243748Y-14193750D01*
G75*
G02*
X121993750Y-13943752I0J249998D01*
G01*
X121993750Y-13043748D01*
G75*
G02*
X122243748Y-12793750I249998J0D01*
G01*
X122768752Y-12793750D01*
G75*
G02*
X123018750Y-13043748I0J-249998D01*
G01*
G37*
G36*
G01*
X124843750Y-13043748D02*
X124843750Y-13943752D01*
G75*
G02*
X124593752Y-14193750I-249998J0D01*
G01*
X124068748Y-14193750D01*
G75*
G02*
X123818750Y-13943752I0J249998D01*
G01*
X123818750Y-13043748D01*
G75*
G02*
X124068748Y-12793750I249998J0D01*
G01*
X124593752Y-12793750D01*
G75*
G02*
X124843750Y-13043748I0J-249998D01*
G01*
G37*
G04 #@! TD*
G04 #@! TO.C,R3*
G36*
G01*
X123018750Y-9074998D02*
X123018750Y-9975002D01*
G75*
G02*
X122768752Y-10225000I-249998J0D01*
G01*
X122243748Y-10225000D01*
G75*
G02*
X121993750Y-9975002I0J249998D01*
G01*
X121993750Y-9074998D01*
G75*
G02*
X122243748Y-8825000I249998J0D01*
G01*
X122768752Y-8825000D01*
G75*
G02*
X123018750Y-9074998I0J-249998D01*
G01*
G37*
G36*
G01*
X124843750Y-9074998D02*
X124843750Y-9975002D01*
G75*
G02*
X124593752Y-10225000I-249998J0D01*
G01*
X124068748Y-10225000D01*
G75*
G02*
X123818750Y-9975002I0J249998D01*
G01*
X123818750Y-9074998D01*
G75*
G02*
X124068748Y-8825000I249998J0D01*
G01*
X124593752Y-8825000D01*
G75*
G02*
X124843750Y-9074998I0J-249998D01*
G01*
G37*
G04 #@! TD*
G04 #@! TO.C,R1*
G36*
G01*
X340130591Y-14744192D02*
X339494192Y-15380591D01*
G75*
G02*
X339140642Y-15380591I-176775J176775D01*
G01*
X338769409Y-15009358D01*
G75*
G02*
X338769409Y-14655808I176775J176775D01*
G01*
X339405808Y-14019409D01*
G75*
G02*
X339759358Y-14019409I176775J-176775D01*
G01*
X340130591Y-14390642D01*
G75*
G02*
X340130591Y-14744192I-176775J-176775D01*
G01*
G37*
G36*
G01*
X338840121Y-13453722D02*
X338203722Y-14090121D01*
G75*
G02*
X337850172Y-14090121I-176775J176775D01*
G01*
X337478939Y-13718888D01*
G75*
G02*
X337478939Y-13365338I176775J176775D01*
G01*
X338115338Y-12728939D01*
G75*
G02*
X338468888Y-12728939I176775J-176775D01*
G01*
X338840121Y-13100172D01*
G75*
G02*
X338840121Y-13453722I-176775J-176775D01*
G01*
G37*
G04 #@! TD*
D15*
G04 #@! TO.C,MX91*
X366465000Y-124226250D03*
D16*
X363925000Y-129306250D03*
D15*
X360115000Y-126766250D03*
D12*
X358845000Y-129306250D03*
X369005000Y-129306250D03*
D21*
X352018750Y-122321250D03*
X375831250Y-122321250D03*
D16*
X352018750Y-137561250D03*
X375831250Y-137561250D03*
G04 #@! TD*
D15*
G04 #@! TO.C,MX90*
X375990000Y-105176250D03*
D16*
X373450000Y-110256250D03*
D15*
X369640000Y-107716250D03*
D12*
X368370000Y-110256250D03*
X378530000Y-110256250D03*
G04 #@! TD*
D15*
G04 #@! TO.C,MX89*
X375990000Y-86126250D03*
D16*
X373450000Y-91206250D03*
D15*
X369640000Y-88666250D03*
D12*
X368370000Y-91206250D03*
X378530000Y-91206250D03*
G04 #@! TD*
D15*
G04 #@! TO.C,MX88*
X375990000Y-67076250D03*
D16*
X373450000Y-72156250D03*
D15*
X369640000Y-69616250D03*
D12*
X368370000Y-72156250D03*
X378530000Y-72156250D03*
G04 #@! TD*
D15*
G04 #@! TO.C,MX87*
X375990000Y-48026250D03*
D16*
X373450000Y-53106250D03*
D15*
X369640000Y-50566250D03*
D12*
X368370000Y-53106250D03*
X378530000Y-53106250D03*
G04 #@! TD*
D15*
G04 #@! TO.C,MX86*
X356940000Y-86126250D03*
D16*
X354400000Y-91206250D03*
D15*
X350590000Y-88666250D03*
D12*
X349320000Y-91206250D03*
X359480000Y-91206250D03*
G04 #@! TD*
D15*
G04 #@! TO.C,MX85*
X356940000Y-67076250D03*
D16*
X354400000Y-72156250D03*
D15*
X350590000Y-69616250D03*
D12*
X349320000Y-72156250D03*
X359480000Y-72156250D03*
G04 #@! TD*
D15*
G04 #@! TO.C,MX84*
X356940000Y-48026250D03*
D16*
X354400000Y-53106250D03*
D15*
X350590000Y-50566250D03*
D12*
X349320000Y-53106250D03*
X359480000Y-53106250D03*
G04 #@! TD*
D15*
G04 #@! TO.C,MX83*
X337890000Y-124226250D03*
D16*
X335350000Y-129306250D03*
D15*
X331540000Y-126766250D03*
D12*
X330270000Y-129306250D03*
X340430000Y-129306250D03*
G04 #@! TD*
D15*
G04 #@! TO.C,MX82*
X347415000Y-105176250D03*
D16*
X344875000Y-110256250D03*
D15*
X341065000Y-107716250D03*
D12*
X339795000Y-110256250D03*
X349955000Y-110256250D03*
D21*
X332968750Y-103271250D03*
X356781250Y-103271250D03*
D16*
X332968750Y-118511250D03*
X356781250Y-118511250D03*
G04 #@! TD*
D15*
G04 #@! TO.C,MX81*
X337890000Y-86126250D03*
D16*
X335350000Y-91206250D03*
D15*
X331540000Y-88666250D03*
D12*
X330270000Y-91206250D03*
X340430000Y-91206250D03*
G04 #@! TD*
D15*
G04 #@! TO.C,MX80*
X337890000Y-67076250D03*
D16*
X335350000Y-72156250D03*
D15*
X331540000Y-69616250D03*
D12*
X330270000Y-72156250D03*
X340430000Y-72156250D03*
G04 #@! TD*
D15*
G04 #@! TO.C,MX79*
X337890000Y-48026250D03*
D16*
X335350000Y-53106250D03*
D15*
X331540000Y-50566250D03*
D12*
X330270000Y-53106250D03*
X340430000Y-53106250D03*
G04 #@! TD*
D15*
G04 #@! TO.C,MX78*
X299790000Y-124226250D03*
D16*
X297250000Y-129306250D03*
D15*
X293440000Y-126766250D03*
D12*
X292170000Y-129306250D03*
X302330000Y-129306250D03*
G04 #@! TD*
D15*
G04 #@! TO.C,MX77*
X309315000Y-105176250D03*
D16*
X306775000Y-110256250D03*
D15*
X302965000Y-107716250D03*
D12*
X301695000Y-110256250D03*
X311855000Y-110256250D03*
G04 #@! TD*
D15*
G04 #@! TO.C,MX76*
X299790000Y-86126250D03*
D16*
X297250000Y-91206250D03*
D15*
X293440000Y-88666250D03*
D12*
X292170000Y-91206250D03*
X302330000Y-91206250D03*
G04 #@! TD*
D15*
G04 #@! TO.C,MX75*
X299790000Y-67076250D03*
D16*
X297250000Y-72156250D03*
D15*
X293440000Y-69616250D03*
D12*
X292170000Y-72156250D03*
X302330000Y-72156250D03*
G04 #@! TD*
D15*
G04 #@! TO.C,MX74*
X290265000Y-48026250D03*
D16*
X287725000Y-53106250D03*
D15*
X283915000Y-50566250D03*
D12*
X282645000Y-53106250D03*
X292805000Y-53106250D03*
D21*
X275818750Y-46121250D03*
X299631250Y-46121250D03*
D16*
X275818750Y-61361250D03*
X299631250Y-61361250D03*
G04 #@! TD*
D15*
G04 #@! TO.C,MX73*
X299790000Y-28976250D03*
D16*
X297250000Y-34056250D03*
D15*
X293440000Y-31516250D03*
D12*
X292170000Y-34056250D03*
X302330000Y-34056250D03*
G04 #@! TD*
D15*
G04 #@! TO.C,MX72*
X290265000Y-105176250D03*
D16*
X287725000Y-110256250D03*
D15*
X283915000Y-107716250D03*
D12*
X282645000Y-110256250D03*
X292805000Y-110256250D03*
G04 #@! TD*
D15*
G04 #@! TO.C,MX71*
X268833750Y-86126250D03*
D16*
X266293750Y-91206250D03*
D15*
X262483750Y-88666250D03*
D12*
X261213750Y-91206250D03*
X271373750Y-91206250D03*
D21*
X254387500Y-84221250D03*
X278200000Y-84221250D03*
D16*
X254387500Y-99461250D03*
X278200000Y-99461250D03*
G04 #@! TD*
D15*
G04 #@! TO.C,MX70*
X275977500Y-67076250D03*
D16*
X273437500Y-72156250D03*
D15*
X269627500Y-69616250D03*
D12*
X268357500Y-72156250D03*
X278517500Y-72156250D03*
G04 #@! TD*
D15*
G04 #@! TO.C,MX69*
X261690000Y-48026250D03*
D16*
X259150000Y-53106250D03*
D15*
X255340000Y-50566250D03*
D12*
X254070000Y-53106250D03*
X264230000Y-53106250D03*
G04 #@! TD*
G04 #@! TO.C,MX68*
X273031100Y-34056250D03*
X262871100Y-34056250D03*
D13*
X269221100Y-39136250D03*
D14*
X266681100Y-39136250D03*
D15*
X264141100Y-31516250D03*
D16*
X267951100Y-34056250D03*
D15*
X270491100Y-28976250D03*
G04 #@! TD*
G04 #@! TO.C,MX67*
X259308750Y-105176250D03*
D16*
X256768750Y-110256250D03*
D15*
X252958750Y-107716250D03*
D12*
X251688750Y-110256250D03*
X261848750Y-110256250D03*
D21*
X244862500Y-103271250D03*
X268675000Y-103271250D03*
D16*
X244862500Y-118511250D03*
X268675000Y-118511250D03*
G04 #@! TD*
D15*
G04 #@! TO.C,MX66*
X252165000Y-67076250D03*
D16*
X249625000Y-72156250D03*
D15*
X245815000Y-69616250D03*
D12*
X244545000Y-72156250D03*
X254705000Y-72156250D03*
G04 #@! TD*
D15*
G04 #@! TO.C,MX65*
X242640000Y-48026250D03*
D16*
X240100000Y-53106250D03*
D15*
X236290000Y-50566250D03*
D12*
X235020000Y-53106250D03*
X245180000Y-53106250D03*
G04 #@! TD*
D15*
G04 #@! TO.C,MX64*
X250705770Y-28976250D03*
D16*
X248165770Y-34056250D03*
D15*
X244355770Y-31516250D03*
D12*
X243085770Y-34056250D03*
X253245770Y-34056250D03*
G04 #@! TD*
D15*
G04 #@! TO.C,MX63*
X252165000Y-124226250D03*
D16*
X249625000Y-129306250D03*
D15*
X245815000Y-126766250D03*
D12*
X244545000Y-129306250D03*
X254705000Y-129306250D03*
G04 #@! TD*
D15*
G04 #@! TO.C,MX62*
X237877500Y-86126250D03*
D16*
X235337500Y-91206250D03*
D15*
X231527500Y-88666250D03*
D12*
X230257500Y-91206250D03*
X240417500Y-91206250D03*
G04 #@! TD*
D15*
G04 #@! TO.C,MX61*
X233115000Y-67076250D03*
D16*
X230575000Y-72156250D03*
D15*
X226765000Y-69616250D03*
D12*
X225495000Y-72156250D03*
X235655000Y-72156250D03*
G04 #@! TD*
D15*
G04 #@! TO.C,MX60*
X223590000Y-48026250D03*
D16*
X221050000Y-53106250D03*
D15*
X217240000Y-50566250D03*
D12*
X215970000Y-53106250D03*
X226130000Y-53106250D03*
G04 #@! TD*
D15*
G04 #@! TO.C,MX59*
X230920440Y-28976250D03*
D16*
X228380440Y-34056250D03*
D15*
X224570440Y-31516250D03*
D12*
X223300440Y-34056250D03*
X233460440Y-34056250D03*
G04 #@! TD*
D15*
G04 #@! TO.C,MX58*
X225971250Y-124226250D03*
D16*
X223431250Y-129306250D03*
D15*
X219621250Y-126766250D03*
D12*
X218351250Y-129306250D03*
X228511250Y-129306250D03*
G04 #@! TD*
D15*
G04 #@! TO.C,MX57*
X228352500Y-105176250D03*
D16*
X225812500Y-110256250D03*
D15*
X222002500Y-107716250D03*
D12*
X220732500Y-110256250D03*
X230892500Y-110256250D03*
G04 #@! TD*
D15*
G04 #@! TO.C,MX56*
X218827500Y-86126250D03*
D16*
X216287500Y-91206250D03*
D15*
X212477500Y-88666250D03*
D12*
X211207500Y-91206250D03*
X221367500Y-91206250D03*
G04 #@! TD*
D15*
G04 #@! TO.C,MX55*
X214065000Y-67076250D03*
D16*
X211525000Y-72156250D03*
D15*
X207715000Y-69616250D03*
D12*
X206445000Y-72156250D03*
X216605000Y-72156250D03*
G04 #@! TD*
D15*
G04 #@! TO.C,MX54*
X204540000Y-48026250D03*
D16*
X202000000Y-53106250D03*
D15*
X198190000Y-50566250D03*
D12*
X196920000Y-53106250D03*
X207080000Y-53106250D03*
G04 #@! TD*
D15*
G04 #@! TO.C,MX53*
X211135110Y-28976250D03*
D16*
X208595110Y-34056250D03*
D15*
X204785110Y-31516250D03*
D12*
X203515110Y-34056250D03*
X213675110Y-34056250D03*
G04 #@! TD*
D15*
G04 #@! TO.C,MX52*
X209302500Y-105176250D03*
D16*
X206762500Y-110256250D03*
D15*
X202952500Y-107716250D03*
D12*
X201682500Y-110256250D03*
X211842500Y-110256250D03*
G04 #@! TD*
D15*
G04 #@! TO.C,MX51*
X199777500Y-86126250D03*
D16*
X197237500Y-91206250D03*
D15*
X193427500Y-88666250D03*
D12*
X192157500Y-91206250D03*
X202317500Y-91206250D03*
G04 #@! TD*
D15*
G04 #@! TO.C,MX50*
X195015000Y-67076250D03*
D16*
X192475000Y-72156250D03*
D15*
X188665000Y-69616250D03*
D12*
X187395000Y-72156250D03*
X197555000Y-72156250D03*
G04 #@! TD*
D15*
G04 #@! TO.C,MX49*
X185490000Y-48026250D03*
D16*
X182950000Y-53106250D03*
D15*
X179140000Y-50566250D03*
D12*
X177870000Y-53106250D03*
X188030000Y-53106250D03*
G04 #@! TD*
D15*
G04 #@! TO.C,MX48*
X191349780Y-28976250D03*
D16*
X188809780Y-34056250D03*
D15*
X184999780Y-31516250D03*
D12*
X183729780Y-34056250D03*
X193889780Y-34056250D03*
G04 #@! TD*
D15*
G04 #@! TO.C,MX47*
X190252500Y-105176250D03*
D16*
X187712500Y-110256250D03*
D15*
X183902500Y-107716250D03*
D12*
X182632500Y-110256250D03*
X192792500Y-110256250D03*
G04 #@! TD*
D15*
G04 #@! TO.C,MX46*
X180727500Y-86126250D03*
D16*
X178187500Y-91206250D03*
D15*
X174377500Y-88666250D03*
D12*
X173107500Y-91206250D03*
X183267500Y-91206250D03*
G04 #@! TD*
D15*
G04 #@! TO.C,MX45*
X175965000Y-67076250D03*
D16*
X173425000Y-72156250D03*
D15*
X169615000Y-69616250D03*
D12*
X168345000Y-72156250D03*
X178505000Y-72156250D03*
G04 #@! TD*
D15*
G04 #@! TO.C,MX44*
X166440000Y-48026250D03*
D16*
X163900000Y-53106250D03*
D15*
X160090000Y-50566250D03*
D12*
X158820000Y-53106250D03*
X168980000Y-53106250D03*
G04 #@! TD*
D15*
G04 #@! TO.C,MX43*
X171564450Y-28976250D03*
D16*
X169024450Y-34056250D03*
D15*
X165214450Y-31516250D03*
D12*
X163944450Y-34056250D03*
X174104450Y-34056250D03*
G04 #@! TD*
D15*
G04 #@! TO.C,MX42*
X171202500Y-105176250D03*
D16*
X168662500Y-110256250D03*
D15*
X164852500Y-107716250D03*
D12*
X163582500Y-110256250D03*
X173742500Y-110256250D03*
G04 #@! TD*
D15*
G04 #@! TO.C,MX41*
X161677500Y-86126250D03*
D16*
X159137500Y-91206250D03*
D15*
X155327500Y-88666250D03*
D12*
X154057500Y-91206250D03*
X164217500Y-91206250D03*
G04 #@! TD*
D15*
G04 #@! TO.C,MX40*
X156915000Y-67076250D03*
D16*
X154375000Y-72156250D03*
D15*
X150565000Y-69616250D03*
D12*
X149295000Y-72156250D03*
X159455000Y-72156250D03*
G04 #@! TD*
D15*
G04 #@! TO.C,MX39*
X147390000Y-48026250D03*
D16*
X144850000Y-53106250D03*
D15*
X141040000Y-50566250D03*
D12*
X139770000Y-53106250D03*
X149930000Y-53106250D03*
G04 #@! TD*
D15*
G04 #@! TO.C,MX38*
X142265550Y-28976250D03*
D16*
X139725550Y-34056250D03*
D15*
X135915550Y-31516250D03*
D12*
X134645550Y-34056250D03*
X144805550Y-34056250D03*
G04 #@! TD*
D15*
G04 #@! TO.C,MX37*
X147390000Y-124226250D03*
D16*
X144850000Y-129306250D03*
D15*
X141040000Y-126766250D03*
D12*
X139770000Y-129306250D03*
X149930000Y-129306250D03*
D21*
X87700000Y-122321250D03*
X202000000Y-122321250D03*
D16*
X87700000Y-137561250D03*
X202000000Y-137561250D03*
G04 #@! TD*
D15*
G04 #@! TO.C,MX36*
X152152500Y-105176250D03*
D16*
X149612500Y-110256250D03*
D15*
X145802500Y-107716250D03*
D12*
X144532500Y-110256250D03*
X154692500Y-110256250D03*
G04 #@! TD*
D15*
G04 #@! TO.C,MX35*
X142627500Y-86126250D03*
D16*
X140087500Y-91206250D03*
D15*
X136277500Y-88666250D03*
D12*
X135007500Y-91206250D03*
X145167500Y-91206250D03*
G04 #@! TD*
D15*
G04 #@! TO.C,MX34*
X137865000Y-67076250D03*
D16*
X135325000Y-72156250D03*
D15*
X131515000Y-69616250D03*
D12*
X130245000Y-72156250D03*
X140405000Y-72156250D03*
G04 #@! TD*
D15*
G04 #@! TO.C,MX33*
X128340000Y-48026250D03*
D16*
X125800000Y-53106250D03*
D15*
X121990000Y-50566250D03*
D12*
X120720000Y-53106250D03*
X130880000Y-53106250D03*
G04 #@! TD*
D15*
G04 #@! TO.C,MX32*
X122480220Y-28976250D03*
D16*
X119940220Y-34056250D03*
D15*
X116130220Y-31516250D03*
D12*
X114860220Y-34056250D03*
X125020220Y-34056250D03*
G04 #@! TD*
D15*
G04 #@! TO.C,MX31*
X133102500Y-105176250D03*
D16*
X130562500Y-110256250D03*
D15*
X126752500Y-107716250D03*
D12*
X125482500Y-110256250D03*
X135642500Y-110256250D03*
G04 #@! TD*
D15*
G04 #@! TO.C,MX30*
X123577500Y-86126250D03*
D16*
X121037500Y-91206250D03*
D15*
X117227500Y-88666250D03*
D12*
X115957500Y-91206250D03*
X126117500Y-91206250D03*
G04 #@! TD*
D15*
G04 #@! TO.C,MX29*
X118815000Y-67076250D03*
D16*
X116275000Y-72156250D03*
D15*
X112465000Y-69616250D03*
D12*
X111195000Y-72156250D03*
X121355000Y-72156250D03*
G04 #@! TD*
D15*
G04 #@! TO.C,MX28*
X109290000Y-48026250D03*
D16*
X106750000Y-53106250D03*
D15*
X102940000Y-50566250D03*
D12*
X101670000Y-53106250D03*
X111830000Y-53106250D03*
G04 #@! TD*
D15*
G04 #@! TO.C,MX27*
X102694890Y-28976250D03*
D16*
X100154890Y-34056250D03*
D15*
X96344890Y-31516250D03*
D12*
X95074890Y-34056250D03*
X105234890Y-34056250D03*
G04 #@! TD*
D15*
G04 #@! TO.C,MX26*
X114052500Y-105176250D03*
D16*
X111512500Y-110256250D03*
D15*
X107702500Y-107716250D03*
D12*
X106432500Y-110256250D03*
X116592500Y-110256250D03*
G04 #@! TD*
D15*
G04 #@! TO.C,MX25*
X104527500Y-86126250D03*
D16*
X101987500Y-91206250D03*
D15*
X98177500Y-88666250D03*
D12*
X96907500Y-91206250D03*
X107067500Y-91206250D03*
G04 #@! TD*
D15*
G04 #@! TO.C,MX24*
X99765000Y-67076250D03*
D16*
X97225000Y-72156250D03*
D15*
X93415000Y-69616250D03*
D12*
X92145000Y-72156250D03*
X102305000Y-72156250D03*
G04 #@! TD*
D15*
G04 #@! TO.C,MX23*
X90240000Y-48026250D03*
D16*
X87700000Y-53106250D03*
D15*
X83890000Y-50566250D03*
D12*
X82620000Y-53106250D03*
X92780000Y-53106250D03*
G04 #@! TD*
D15*
G04 #@! TO.C,MX22*
X82909560Y-28976250D03*
D16*
X80369560Y-34056250D03*
D15*
X76559560Y-31516250D03*
D12*
X75289560Y-34056250D03*
X85449560Y-34056250D03*
G04 #@! TD*
D15*
G04 #@! TO.C,MX21*
X95002500Y-105176250D03*
D16*
X92462500Y-110256250D03*
D15*
X88652500Y-107716250D03*
D12*
X87382500Y-110256250D03*
X97542500Y-110256250D03*
G04 #@! TD*
D15*
G04 #@! TO.C,MX20*
X85477500Y-86126250D03*
D16*
X82937500Y-91206250D03*
D15*
X79127500Y-88666250D03*
D12*
X77857500Y-91206250D03*
X88017500Y-91206250D03*
G04 #@! TD*
D15*
G04 #@! TO.C,MX19*
X80715000Y-67076250D03*
D16*
X78175000Y-72156250D03*
D15*
X74365000Y-69616250D03*
D12*
X73095000Y-72156250D03*
X83255000Y-72156250D03*
G04 #@! TD*
D15*
G04 #@! TO.C,MX18*
X71190000Y-48026250D03*
D16*
X68650000Y-53106250D03*
D15*
X64840000Y-50566250D03*
D12*
X63570000Y-53106250D03*
X73730000Y-53106250D03*
G04 #@! TD*
D15*
G04 #@! TO.C,MX17*
X63124230Y-28976250D03*
D16*
X60584230Y-34056250D03*
D15*
X56774230Y-31516250D03*
D12*
X55504230Y-34056250D03*
X65664230Y-34056250D03*
G04 #@! TD*
D15*
G04 #@! TO.C,MX16*
X75952500Y-105176250D03*
D16*
X73412500Y-110256250D03*
D15*
X69602500Y-107716250D03*
D12*
X68332500Y-110256250D03*
X78492500Y-110256250D03*
G04 #@! TD*
D15*
G04 #@! TO.C,MX15*
X66427500Y-86126250D03*
D16*
X63887500Y-91206250D03*
D15*
X60077500Y-88666250D03*
D12*
X58807500Y-91206250D03*
X68967500Y-91206250D03*
G04 #@! TD*
D15*
G04 #@! TO.C,MX14*
X61665000Y-67076250D03*
D16*
X59125000Y-72156250D03*
D15*
X55315000Y-69616250D03*
D12*
X54045000Y-72156250D03*
X64205000Y-72156250D03*
G04 #@! TD*
D15*
G04 #@! TO.C,MX13*
X52140000Y-48026250D03*
D16*
X49600000Y-53106250D03*
D15*
X45790000Y-50566250D03*
D12*
X44520000Y-53106250D03*
X54680000Y-53106250D03*
G04 #@! TD*
D15*
G04 #@! TO.C,MX11*
X68808750Y-124226250D03*
D16*
X66268750Y-129306250D03*
D15*
X62458750Y-126766250D03*
D12*
X61188750Y-129306250D03*
X71348750Y-129306250D03*
G04 #@! TD*
D15*
G04 #@! TO.C,MX10*
X56902500Y-105176250D03*
D16*
X54362500Y-110256250D03*
D15*
X50552500Y-107716250D03*
D12*
X49282500Y-110256250D03*
X59442500Y-110256250D03*
G04 #@! TD*
D15*
G04 #@! TO.C,MX9*
X47377500Y-86126250D03*
D16*
X44837500Y-91206250D03*
D15*
X41027500Y-88666250D03*
D12*
X39757500Y-91206250D03*
X49917500Y-91206250D03*
G04 #@! TD*
D15*
G04 #@! TO.C,MX8*
X42615000Y-67076250D03*
D16*
X40075000Y-72156250D03*
D15*
X36265000Y-69616250D03*
D12*
X34995000Y-72156250D03*
X45155000Y-72156250D03*
G04 #@! TD*
D15*
G04 #@! TO.C,MX7*
X33090000Y-48026250D03*
D16*
X30550000Y-53106250D03*
D15*
X26740000Y-50566250D03*
D12*
X25470000Y-53106250D03*
X35630000Y-53106250D03*
G04 #@! TD*
D15*
G04 #@! TO.C,MX6*
X42615000Y-124226250D03*
D16*
X40075000Y-129306250D03*
D15*
X36265000Y-126766250D03*
D12*
X34995000Y-129306250D03*
X45155000Y-129306250D03*
G04 #@! TD*
D15*
G04 #@! TO.C,MX5*
X25946250Y-105176250D03*
D16*
X23406250Y-110256250D03*
D15*
X19596250Y-107716250D03*
D12*
X18326250Y-110256250D03*
X28486250Y-110256250D03*
D21*
X11500000Y-103271250D03*
X35312500Y-103271250D03*
D16*
X11500000Y-118511250D03*
X35312500Y-118511250D03*
G04 #@! TD*
D15*
G04 #@! TO.C,MX4*
X21183750Y-86126250D03*
D16*
X18643750Y-91206250D03*
D15*
X14833750Y-88666250D03*
D12*
X13563750Y-91206250D03*
X23723750Y-91206250D03*
G04 #@! TD*
D15*
G04 #@! TO.C,MX3*
X18802500Y-67076250D03*
D16*
X16262500Y-72156250D03*
D15*
X12452500Y-69616250D03*
D12*
X11182500Y-72156250D03*
X21342500Y-72156250D03*
G04 #@! TD*
D15*
G04 #@! TO.C,MX2*
X14040000Y-48026250D03*
D16*
X11500000Y-53106250D03*
D15*
X7690000Y-50566250D03*
D12*
X6420000Y-53106250D03*
X16580000Y-53106250D03*
G04 #@! TD*
G04 #@! TO.C,F1*
G36*
G01*
X129400000Y-14456250D02*
X129400000Y-15706250D01*
G75*
G02*
X129150000Y-15956250I-250000J0D01*
G01*
X128400000Y-15956250D01*
G75*
G02*
X128150000Y-15706250I0J250000D01*
G01*
X128150000Y-14456250D01*
G75*
G02*
X128400000Y-14206250I250000J0D01*
G01*
X129150000Y-14206250D01*
G75*
G02*
X129400000Y-14456250I0J-250000D01*
G01*
G37*
G36*
G01*
X132200000Y-14456250D02*
X132200000Y-15706250D01*
G75*
G02*
X131950000Y-15956250I-250000J0D01*
G01*
X131200000Y-15956250D01*
G75*
G02*
X130950000Y-15706250I0J250000D01*
G01*
X130950000Y-14456250D01*
G75*
G02*
X131200000Y-14206250I250000J0D01*
G01*
X131950000Y-14206250D01*
G75*
G02*
X132200000Y-14456250I0J-250000D01*
G01*
G37*
G04 #@! TD*
D22*
G04 #@! TO.C,D91*
X372656250Y-127656250D03*
X372656250Y-130956250D03*
G04 #@! TD*
G04 #@! TO.C,D90*
X382181250Y-108606250D03*
X382181250Y-111906250D03*
G04 #@! TD*
G04 #@! TO.C,D89*
X382181250Y-89556250D03*
X382181250Y-92856250D03*
G04 #@! TD*
G04 #@! TO.C,D88*
X382181250Y-70506250D03*
X382181250Y-73806250D03*
G04 #@! TD*
G04 #@! TO.C,D87*
X382181250Y-51456250D03*
X382181250Y-54756250D03*
G04 #@! TD*
G04 #@! TO.C,D86*
X363131250Y-89556250D03*
X363131250Y-92856250D03*
G04 #@! TD*
G04 #@! TO.C,D85*
X363131250Y-70506250D03*
X363131250Y-73806250D03*
G04 #@! TD*
G04 #@! TO.C,D84*
X363131250Y-51456250D03*
X363131250Y-54756250D03*
G04 #@! TD*
G04 #@! TO.C,D83*
X344081250Y-127656250D03*
X344081250Y-130956250D03*
G04 #@! TD*
G04 #@! TO.C,D82*
X353606250Y-108606250D03*
X353606250Y-111906250D03*
G04 #@! TD*
G04 #@! TO.C,D81*
X344081250Y-89556250D03*
X344081250Y-92856250D03*
G04 #@! TD*
G04 #@! TO.C,D80*
X344081250Y-70506250D03*
X344081250Y-73806250D03*
G04 #@! TD*
G04 #@! TO.C,D79*
X344081250Y-51456250D03*
X344081250Y-54756250D03*
G04 #@! TD*
G04 #@! TO.C,D78*
X305981250Y-127656250D03*
X305981250Y-130956250D03*
G04 #@! TD*
G04 #@! TO.C,D77*
X315506250Y-108606250D03*
X315506250Y-111906250D03*
G04 #@! TD*
G04 #@! TO.C,D76*
X305187500Y-83331250D03*
X305187500Y-80031250D03*
G04 #@! TD*
G04 #@! TO.C,D75*
X305187500Y-64281250D03*
X305187500Y-60981250D03*
G04 #@! TD*
G04 #@! TO.C,D74*
X296456250Y-51456250D03*
X296456250Y-54756250D03*
G04 #@! TD*
G04 #@! TO.C,D73*
X305187500Y-32406250D03*
X305187500Y-35706250D03*
G04 #@! TD*
G04 #@! TO.C,D72*
X295662500Y-102381250D03*
X295662500Y-99081250D03*
G04 #@! TD*
G04 #@! TO.C,D71*
X275025000Y-89556250D03*
X275025000Y-92856250D03*
G04 #@! TD*
G04 #@! TO.C,D70*
X282168750Y-70506250D03*
X282168750Y-73806250D03*
G04 #@! TD*
G04 #@! TO.C,D69*
X267881250Y-51456250D03*
X267881250Y-54756250D03*
G04 #@! TD*
G04 #@! TO.C,D68*
X276612500Y-32406250D03*
X276612500Y-35706250D03*
G04 #@! TD*
G04 #@! TO.C,D67*
X265500000Y-108606250D03*
X265500000Y-111906250D03*
G04 #@! TD*
G04 #@! TO.C,D66*
X258356250Y-70506250D03*
X258356250Y-73806250D03*
G04 #@! TD*
G04 #@! TO.C,D65*
X248831250Y-51456250D03*
X248831250Y-54756250D03*
G04 #@! TD*
G04 #@! TO.C,D64*
X256768750Y-32406250D03*
X256768750Y-35706250D03*
G04 #@! TD*
G04 #@! TO.C,D63*
X258356250Y-127656250D03*
X258356250Y-130956250D03*
G04 #@! TD*
G04 #@! TO.C,D62*
X244068750Y-89556250D03*
X244068750Y-92856250D03*
G04 #@! TD*
G04 #@! TO.C,D61*
X239306250Y-70506250D03*
X239306250Y-73806250D03*
G04 #@! TD*
G04 #@! TO.C,D60*
X229781250Y-51456250D03*
X229781250Y-54756250D03*
G04 #@! TD*
G04 #@! TO.C,D59*
X236925000Y-32406250D03*
X236925000Y-35706250D03*
G04 #@! TD*
G04 #@! TO.C,D58*
X232162500Y-127656250D03*
X232162500Y-130956250D03*
G04 #@! TD*
G04 #@! TO.C,D57*
X234543750Y-108606250D03*
X234543750Y-111906250D03*
G04 #@! TD*
G04 #@! TO.C,D56*
X225018750Y-89556250D03*
X225018750Y-92856250D03*
G04 #@! TD*
G04 #@! TO.C,D55*
X220256250Y-70506250D03*
X220256250Y-73806250D03*
G04 #@! TD*
G04 #@! TO.C,D54*
X210731250Y-51456250D03*
X210731250Y-54756250D03*
G04 #@! TD*
G04 #@! TO.C,D53*
X217081250Y-32406250D03*
X217081250Y-35706250D03*
G04 #@! TD*
G04 #@! TO.C,D52*
X215493750Y-108606250D03*
X215493750Y-111906250D03*
G04 #@! TD*
G04 #@! TO.C,D51*
X205968750Y-89556250D03*
X205968750Y-92856250D03*
G04 #@! TD*
G04 #@! TO.C,D50*
X201206250Y-70506250D03*
X201206250Y-73806250D03*
G04 #@! TD*
G04 #@! TO.C,D49*
X191681250Y-51456250D03*
X191681250Y-54756250D03*
G04 #@! TD*
G04 #@! TO.C,D48*
X197237500Y-32406250D03*
X197237500Y-35706250D03*
G04 #@! TD*
G04 #@! TO.C,D47*
X196443750Y-108606250D03*
X196443750Y-111906250D03*
G04 #@! TD*
G04 #@! TO.C,D46*
X186918750Y-89556250D03*
X186918750Y-92856250D03*
G04 #@! TD*
G04 #@! TO.C,D45*
X182156250Y-70506250D03*
X182156250Y-73806250D03*
G04 #@! TD*
G04 #@! TO.C,D44*
X172631250Y-51456250D03*
X172631250Y-54756250D03*
G04 #@! TD*
G04 #@! TO.C,D43*
X178187500Y-32406250D03*
X178187500Y-35706250D03*
G04 #@! TD*
G04 #@! TO.C,D42*
X177393750Y-108606250D03*
X177393750Y-111906250D03*
G04 #@! TD*
G04 #@! TO.C,D41*
X167868750Y-89556250D03*
X167868750Y-92856250D03*
G04 #@! TD*
G04 #@! TO.C,D40*
X163106250Y-70506250D03*
X163106250Y-73806250D03*
G04 #@! TD*
G04 #@! TO.C,D39*
X153581250Y-51456250D03*
X153581250Y-54756250D03*
G04 #@! TD*
G04 #@! TO.C,D38*
X148818750Y-32406250D03*
X148818750Y-35706250D03*
G04 #@! TD*
G04 #@! TO.C,D37*
X153581250Y-127656250D03*
X153581250Y-130956250D03*
G04 #@! TD*
G04 #@! TO.C,D36*
X158343750Y-108606250D03*
X158343750Y-111906250D03*
G04 #@! TD*
G04 #@! TO.C,D35*
X148818750Y-89556250D03*
X148818750Y-92856250D03*
G04 #@! TD*
G04 #@! TO.C,D34*
X144056250Y-70506250D03*
X144056250Y-73806250D03*
G04 #@! TD*
G04 #@! TO.C,D33*
X134531250Y-51456250D03*
X134531250Y-54756250D03*
G04 #@! TD*
G04 #@! TO.C,D32*
X128975000Y-32406250D03*
X128975000Y-35706250D03*
G04 #@! TD*
G04 #@! TO.C,D31*
X139293750Y-108606250D03*
X139293750Y-111906250D03*
G04 #@! TD*
G04 #@! TO.C,D30*
X129768750Y-89556250D03*
X129768750Y-92856250D03*
G04 #@! TD*
G04 #@! TO.C,D29*
X125006250Y-70506250D03*
X125006250Y-73806250D03*
G04 #@! TD*
G04 #@! TO.C,D28*
X115481250Y-51456250D03*
X115481250Y-54756250D03*
G04 #@! TD*
G04 #@! TO.C,D27*
X109131250Y-32406250D03*
X109131250Y-35706250D03*
G04 #@! TD*
G04 #@! TO.C,D26*
X120243750Y-108606250D03*
X120243750Y-111906250D03*
G04 #@! TD*
G04 #@! TO.C,D25*
X110718750Y-89556250D03*
X110718750Y-92856250D03*
G04 #@! TD*
G04 #@! TO.C,D24*
X105956250Y-70506250D03*
X105956250Y-73806250D03*
G04 #@! TD*
G04 #@! TO.C,D23*
X96431250Y-51456250D03*
X96431250Y-54756250D03*
G04 #@! TD*
G04 #@! TO.C,D22*
X89287500Y-32406250D03*
X89287500Y-35706250D03*
G04 #@! TD*
G04 #@! TO.C,D21*
X101193750Y-108606250D03*
X101193750Y-111906250D03*
G04 #@! TD*
G04 #@! TO.C,D20*
X91668750Y-89556250D03*
X91668750Y-92856250D03*
G04 #@! TD*
G04 #@! TO.C,D19*
X86906250Y-70506250D03*
X86906250Y-73806250D03*
G04 #@! TD*
G04 #@! TO.C,D18*
X77381250Y-51456250D03*
X77381250Y-54756250D03*
G04 #@! TD*
G04 #@! TO.C,D17*
X69443750Y-32406250D03*
X69443750Y-35706250D03*
G04 #@! TD*
G04 #@! TO.C,D16*
X82143750Y-108606250D03*
X82143750Y-111906250D03*
G04 #@! TD*
G04 #@! TO.C,D15*
X72618750Y-89556250D03*
X72618750Y-92856250D03*
G04 #@! TD*
G04 #@! TO.C,D14*
X67856250Y-70506250D03*
X67856250Y-73806250D03*
G04 #@! TD*
G04 #@! TO.C,D13*
X58331250Y-51456250D03*
X58331250Y-54756250D03*
G04 #@! TD*
G04 #@! TO.C,D12*
X49600000Y-32406250D03*
X49600000Y-35706250D03*
G04 #@! TD*
G04 #@! TO.C,D11*
X75000000Y-127561000D03*
X75000000Y-130861000D03*
G04 #@! TD*
G04 #@! TO.C,D10*
X63093750Y-108606250D03*
X63093750Y-111906250D03*
G04 #@! TD*
G04 #@! TO.C,D9*
X53568750Y-89556250D03*
X53568750Y-92856250D03*
G04 #@! TD*
G04 #@! TO.C,D8*
X48806250Y-70506250D03*
X48806250Y-73806250D03*
G04 #@! TD*
G04 #@! TO.C,D7*
X39281250Y-51456250D03*
X39281250Y-54756250D03*
G04 #@! TD*
G04 #@! TO.C,D6*
X48806250Y-127656250D03*
X48806250Y-130956250D03*
G04 #@! TD*
G04 #@! TO.C,D5*
X32137500Y-108606250D03*
X32137500Y-111906250D03*
G04 #@! TD*
G04 #@! TO.C,D4*
X27375000Y-89556250D03*
X27375000Y-92856250D03*
G04 #@! TD*
G04 #@! TO.C,D3*
X24993750Y-70506250D03*
X24993750Y-73806250D03*
G04 #@! TD*
G04 #@! TO.C,D2*
X20231250Y-51456250D03*
X20231250Y-54756250D03*
G04 #@! TD*
G04 #@! TO.C,D1*
X20231250Y-32406250D03*
X20231250Y-35706250D03*
G04 #@! TD*
M02*
