G04 #@! TF.GenerationSoftware,KiCad,Pcbnew,5.1.9*
G04 #@! TF.CreationDate,2021-03-26T15:39:31-04:00*
G04 #@! TF.ProjectId,EKS-1k,454b532d-316b-42e6-9b69-6361645f7063,rev?*
G04 #@! TF.SameCoordinates,Original*
G04 #@! TF.FileFunction,Legend,Top*
G04 #@! TF.FilePolarity,Positive*
%FSLAX46Y46*%
G04 Gerber Fmt 4.6, Leading zero omitted, Abs format (unit mm)*
G04 Created by KiCad (PCBNEW 5.1.9) date 2021-03-26 15:39:31*
%MOMM*%
%LPD*%
G01*
G04 APERTURE LIST*
%ADD10C,0.150000*%
%ADD11O,2.700000X1.700000*%
%ADD12R,2.250000X0.500000*%
%ADD13C,7.000000*%
%ADD14C,1.750000*%
%ADD15C,3.987800*%
%ADD16C,3.048000*%
G04 APERTURE END LIST*
D10*
G04 #@! TO.C,J1*
X108150000Y-7187500D02*
X108150000Y-14887500D01*
X102700000Y-14887500D02*
X108150000Y-14887500D01*
X102700000Y-7187500D02*
X108150000Y-7187500D01*
X105279619Y-10704166D02*
X104565333Y-10704166D01*
X104422476Y-10656547D01*
X104327238Y-10561309D01*
X104279619Y-10418452D01*
X104279619Y-10323214D01*
X104279619Y-11704166D02*
X104279619Y-11132738D01*
X104279619Y-11418452D02*
X105279619Y-11418452D01*
X105136761Y-11323214D01*
X105041523Y-11227976D01*
X104993904Y-11132738D01*
G04 #@! TO.C,REF4*
X315202380Y-122252380D02*
X314869047Y-121776190D01*
X314630952Y-122252380D02*
X314630952Y-121252380D01*
X315011904Y-121252380D01*
X315107142Y-121300000D01*
X315154761Y-121347619D01*
X315202380Y-121442857D01*
X315202380Y-121585714D01*
X315154761Y-121680952D01*
X315107142Y-121728571D01*
X315011904Y-121776190D01*
X314630952Y-121776190D01*
X315630952Y-121728571D02*
X315964285Y-121728571D01*
X316107142Y-122252380D02*
X315630952Y-122252380D01*
X315630952Y-121252380D01*
X316107142Y-121252380D01*
X316869047Y-121728571D02*
X316535714Y-121728571D01*
X316535714Y-122252380D02*
X316535714Y-121252380D01*
X317011904Y-121252380D01*
X317821428Y-121585714D02*
X317821428Y-122252380D01*
X317583333Y-121204761D02*
X317345238Y-121919047D01*
X317964285Y-121919047D01*
G04 #@! TO.C,REF2*
X372402380Y-27552380D02*
X372069047Y-27076190D01*
X371830952Y-27552380D02*
X371830952Y-26552380D01*
X372211904Y-26552380D01*
X372307142Y-26600000D01*
X372354761Y-26647619D01*
X372402380Y-26742857D01*
X372402380Y-26885714D01*
X372354761Y-26980952D01*
X372307142Y-27028571D01*
X372211904Y-27076190D01*
X371830952Y-27076190D01*
X372830952Y-27028571D02*
X373164285Y-27028571D01*
X373307142Y-27552380D02*
X372830952Y-27552380D01*
X372830952Y-26552380D01*
X373307142Y-26552380D01*
X374069047Y-27028571D02*
X373735714Y-27028571D01*
X373735714Y-27552380D02*
X373735714Y-26552380D01*
X374211904Y-26552380D01*
X374545238Y-26647619D02*
X374592857Y-26600000D01*
X374688095Y-26552380D01*
X374926190Y-26552380D01*
X375021428Y-26600000D01*
X375069047Y-26647619D01*
X375116666Y-26742857D01*
X375116666Y-26838095D01*
X375069047Y-26980952D01*
X374497619Y-27552380D01*
X375116666Y-27552380D01*
G04 #@! TO.C,REF3*
X13452380Y-122252380D02*
X13119047Y-121776190D01*
X12880952Y-122252380D02*
X12880952Y-121252380D01*
X13261904Y-121252380D01*
X13357142Y-121300000D01*
X13404761Y-121347619D01*
X13452380Y-121442857D01*
X13452380Y-121585714D01*
X13404761Y-121680952D01*
X13357142Y-121728571D01*
X13261904Y-121776190D01*
X12880952Y-121776190D01*
X13880952Y-121728571D02*
X14214285Y-121728571D01*
X14357142Y-122252380D02*
X13880952Y-122252380D01*
X13880952Y-121252380D01*
X14357142Y-121252380D01*
X15119047Y-121728571D02*
X14785714Y-121728571D01*
X14785714Y-122252380D02*
X14785714Y-121252380D01*
X15261904Y-121252380D01*
X15547619Y-121252380D02*
X16166666Y-121252380D01*
X15833333Y-121633333D01*
X15976190Y-121633333D01*
X16071428Y-121680952D01*
X16119047Y-121728571D01*
X16166666Y-121823809D01*
X16166666Y-122061904D01*
X16119047Y-122157142D01*
X16071428Y-122204761D01*
X15976190Y-122252380D01*
X15690476Y-122252380D01*
X15595238Y-122204761D01*
X15547619Y-122157142D01*
G04 #@! TO.C,REF1*
X59852380Y-4552380D02*
X59519047Y-4076190D01*
X59280952Y-4552380D02*
X59280952Y-3552380D01*
X59661904Y-3552380D01*
X59757142Y-3600000D01*
X59804761Y-3647619D01*
X59852380Y-3742857D01*
X59852380Y-3885714D01*
X59804761Y-3980952D01*
X59757142Y-4028571D01*
X59661904Y-4076190D01*
X59280952Y-4076190D01*
X60280952Y-4028571D02*
X60614285Y-4028571D01*
X60757142Y-4552380D02*
X60280952Y-4552380D01*
X60280952Y-3552380D01*
X60757142Y-3552380D01*
X61519047Y-4028571D02*
X61185714Y-4028571D01*
X61185714Y-4552380D02*
X61185714Y-3552380D01*
X61661904Y-3552380D01*
X62566666Y-4552380D02*
X61995238Y-4552380D01*
X62280952Y-4552380D02*
X62280952Y-3552380D01*
X62185714Y-3695238D01*
X62090476Y-3790476D01*
X61995238Y-3838095D01*
G04 #@! TD*
%LPC*%
D11*
G04 #@! TO.C,J1*
X102700000Y-7387500D03*
X102700000Y-14687500D03*
X107200000Y-14687500D03*
X107200000Y-7387500D03*
D12*
X107200000Y-9437500D03*
X107200000Y-10237500D03*
X107200000Y-11037500D03*
X107200000Y-11837500D03*
X107200000Y-12637500D03*
G04 #@! TD*
D13*
G04 #@! TO.C,REF4*
X316250000Y-129300000D03*
G04 #@! TD*
G04 #@! TO.C,REF2*
X373450000Y-34600000D03*
G04 #@! TD*
G04 #@! TO.C,REF3*
X14500000Y-129300000D03*
G04 #@! TD*
G04 #@! TO.C,REF1*
X60900000Y-11600000D03*
G04 #@! TD*
D14*
G04 #@! TO.C,MX12*
X45878900Y-34056250D03*
X35718900Y-34056250D03*
D15*
X40798900Y-34056250D03*
G04 #@! TD*
G04 #@! TO.C,MX1*
X11500000Y-34056250D03*
D14*
X6420000Y-34056250D03*
X16580000Y-34056250D03*
G04 #@! TD*
D15*
G04 #@! TO.C,MX91*
X363925000Y-129306250D03*
D14*
X358845000Y-129306250D03*
X369005000Y-129306250D03*
D16*
X352018750Y-122321250D03*
X375831250Y-122321250D03*
D15*
X352018750Y-137561250D03*
X375831250Y-137561250D03*
G04 #@! TD*
G04 #@! TO.C,MX90*
X373450000Y-110256250D03*
D14*
X368370000Y-110256250D03*
X378530000Y-110256250D03*
G04 #@! TD*
D15*
G04 #@! TO.C,MX89*
X373450000Y-91206250D03*
D14*
X368370000Y-91206250D03*
X378530000Y-91206250D03*
G04 #@! TD*
D15*
G04 #@! TO.C,MX88*
X373450000Y-72156250D03*
D14*
X368370000Y-72156250D03*
X378530000Y-72156250D03*
G04 #@! TD*
D15*
G04 #@! TO.C,MX87*
X373450000Y-53106250D03*
D14*
X368370000Y-53106250D03*
X378530000Y-53106250D03*
G04 #@! TD*
D15*
G04 #@! TO.C,MX86*
X354400000Y-91206250D03*
D14*
X349320000Y-91206250D03*
X359480000Y-91206250D03*
G04 #@! TD*
D15*
G04 #@! TO.C,MX85*
X354400000Y-72156250D03*
D14*
X349320000Y-72156250D03*
X359480000Y-72156250D03*
G04 #@! TD*
D15*
G04 #@! TO.C,MX84*
X354400000Y-53106250D03*
D14*
X349320000Y-53106250D03*
X359480000Y-53106250D03*
G04 #@! TD*
D15*
G04 #@! TO.C,MX83*
X335350000Y-129306250D03*
D14*
X330270000Y-129306250D03*
X340430000Y-129306250D03*
G04 #@! TD*
D15*
G04 #@! TO.C,MX82*
X344875000Y-110256250D03*
D14*
X339795000Y-110256250D03*
X349955000Y-110256250D03*
D16*
X332968750Y-103271250D03*
X356781250Y-103271250D03*
D15*
X332968750Y-118511250D03*
X356781250Y-118511250D03*
G04 #@! TD*
G04 #@! TO.C,MX81*
X335350000Y-91206250D03*
D14*
X330270000Y-91206250D03*
X340430000Y-91206250D03*
G04 #@! TD*
D15*
G04 #@! TO.C,MX80*
X335350000Y-72156250D03*
D14*
X330270000Y-72156250D03*
X340430000Y-72156250D03*
G04 #@! TD*
D15*
G04 #@! TO.C,MX79*
X335350000Y-53106250D03*
D14*
X330270000Y-53106250D03*
X340430000Y-53106250D03*
G04 #@! TD*
D15*
G04 #@! TO.C,MX78*
X297250000Y-129306250D03*
D14*
X292170000Y-129306250D03*
X302330000Y-129306250D03*
G04 #@! TD*
D15*
G04 #@! TO.C,MX77*
X306775000Y-110256250D03*
D14*
X301695000Y-110256250D03*
X311855000Y-110256250D03*
G04 #@! TD*
D15*
G04 #@! TO.C,MX76*
X297250000Y-91206250D03*
D14*
X292170000Y-91206250D03*
X302330000Y-91206250D03*
G04 #@! TD*
D15*
G04 #@! TO.C,MX75*
X297250000Y-72156250D03*
D14*
X292170000Y-72156250D03*
X302330000Y-72156250D03*
G04 #@! TD*
D15*
G04 #@! TO.C,MX74*
X287725000Y-53106250D03*
D14*
X282645000Y-53106250D03*
X292805000Y-53106250D03*
D16*
X275818750Y-46121250D03*
X299631250Y-46121250D03*
D15*
X275818750Y-61361250D03*
X299631250Y-61361250D03*
G04 #@! TD*
G04 #@! TO.C,MX73*
X297250000Y-34056250D03*
D14*
X292170000Y-34056250D03*
X302330000Y-34056250D03*
G04 #@! TD*
D15*
G04 #@! TO.C,MX72*
X287725000Y-110256250D03*
D14*
X282645000Y-110256250D03*
X292805000Y-110256250D03*
G04 #@! TD*
D15*
G04 #@! TO.C,MX71*
X266293750Y-91206250D03*
D14*
X261213750Y-91206250D03*
X271373750Y-91206250D03*
D16*
X254387500Y-84221250D03*
X278200000Y-84221250D03*
D15*
X254387500Y-99461250D03*
X278200000Y-99461250D03*
G04 #@! TD*
G04 #@! TO.C,MX70*
X273437500Y-72156250D03*
D14*
X268357500Y-72156250D03*
X278517500Y-72156250D03*
G04 #@! TD*
D15*
G04 #@! TO.C,MX69*
X259150000Y-53106250D03*
D14*
X254070000Y-53106250D03*
X264230000Y-53106250D03*
G04 #@! TD*
G04 #@! TO.C,MX68*
X273031100Y-34056250D03*
X262871100Y-34056250D03*
D15*
X267951100Y-34056250D03*
G04 #@! TD*
G04 #@! TO.C,MX67*
X256768750Y-110256250D03*
D14*
X251688750Y-110256250D03*
X261848750Y-110256250D03*
D16*
X244862500Y-103271250D03*
X268675000Y-103271250D03*
D15*
X244862500Y-118511250D03*
X268675000Y-118511250D03*
G04 #@! TD*
G04 #@! TO.C,MX66*
X249625000Y-72156250D03*
D14*
X244545000Y-72156250D03*
X254705000Y-72156250D03*
G04 #@! TD*
D15*
G04 #@! TO.C,MX65*
X240100000Y-53106250D03*
D14*
X235020000Y-53106250D03*
X245180000Y-53106250D03*
G04 #@! TD*
D15*
G04 #@! TO.C,MX64*
X248165770Y-34056250D03*
D14*
X243085770Y-34056250D03*
X253245770Y-34056250D03*
G04 #@! TD*
D15*
G04 #@! TO.C,MX63*
X249625000Y-129306250D03*
D14*
X244545000Y-129306250D03*
X254705000Y-129306250D03*
G04 #@! TD*
D15*
G04 #@! TO.C,MX62*
X235337500Y-91206250D03*
D14*
X230257500Y-91206250D03*
X240417500Y-91206250D03*
G04 #@! TD*
D15*
G04 #@! TO.C,MX61*
X230575000Y-72156250D03*
D14*
X225495000Y-72156250D03*
X235655000Y-72156250D03*
G04 #@! TD*
D15*
G04 #@! TO.C,MX60*
X221050000Y-53106250D03*
D14*
X215970000Y-53106250D03*
X226130000Y-53106250D03*
G04 #@! TD*
D15*
G04 #@! TO.C,MX59*
X228380440Y-34056250D03*
D14*
X223300440Y-34056250D03*
X233460440Y-34056250D03*
G04 #@! TD*
D15*
G04 #@! TO.C,MX58*
X223431250Y-129306250D03*
D14*
X218351250Y-129306250D03*
X228511250Y-129306250D03*
G04 #@! TD*
D15*
G04 #@! TO.C,MX57*
X225812500Y-110256250D03*
D14*
X220732500Y-110256250D03*
X230892500Y-110256250D03*
G04 #@! TD*
D15*
G04 #@! TO.C,MX56*
X216287500Y-91206250D03*
D14*
X211207500Y-91206250D03*
X221367500Y-91206250D03*
G04 #@! TD*
D15*
G04 #@! TO.C,MX55*
X211525000Y-72156250D03*
D14*
X206445000Y-72156250D03*
X216605000Y-72156250D03*
G04 #@! TD*
D15*
G04 #@! TO.C,MX54*
X202000000Y-53106250D03*
D14*
X196920000Y-53106250D03*
X207080000Y-53106250D03*
G04 #@! TD*
D15*
G04 #@! TO.C,MX53*
X208595110Y-34056250D03*
D14*
X203515110Y-34056250D03*
X213675110Y-34056250D03*
G04 #@! TD*
D15*
G04 #@! TO.C,MX52*
X206762500Y-110256250D03*
D14*
X201682500Y-110256250D03*
X211842500Y-110256250D03*
G04 #@! TD*
D15*
G04 #@! TO.C,MX51*
X197237500Y-91206250D03*
D14*
X192157500Y-91206250D03*
X202317500Y-91206250D03*
G04 #@! TD*
D15*
G04 #@! TO.C,MX50*
X192475000Y-72156250D03*
D14*
X187395000Y-72156250D03*
X197555000Y-72156250D03*
G04 #@! TD*
D15*
G04 #@! TO.C,MX49*
X182950000Y-53106250D03*
D14*
X177870000Y-53106250D03*
X188030000Y-53106250D03*
G04 #@! TD*
D15*
G04 #@! TO.C,MX48*
X188809780Y-34056250D03*
D14*
X183729780Y-34056250D03*
X193889780Y-34056250D03*
G04 #@! TD*
D15*
G04 #@! TO.C,MX47*
X187712500Y-110256250D03*
D14*
X182632500Y-110256250D03*
X192792500Y-110256250D03*
G04 #@! TD*
D15*
G04 #@! TO.C,MX46*
X178187500Y-91206250D03*
D14*
X173107500Y-91206250D03*
X183267500Y-91206250D03*
G04 #@! TD*
D15*
G04 #@! TO.C,MX45*
X173425000Y-72156250D03*
D14*
X168345000Y-72156250D03*
X178505000Y-72156250D03*
G04 #@! TD*
D15*
G04 #@! TO.C,MX44*
X163900000Y-53106250D03*
D14*
X158820000Y-53106250D03*
X168980000Y-53106250D03*
G04 #@! TD*
D15*
G04 #@! TO.C,MX43*
X169024450Y-34056250D03*
D14*
X163944450Y-34056250D03*
X174104450Y-34056250D03*
G04 #@! TD*
D15*
G04 #@! TO.C,MX42*
X168662500Y-110256250D03*
D14*
X163582500Y-110256250D03*
X173742500Y-110256250D03*
G04 #@! TD*
D15*
G04 #@! TO.C,MX41*
X159137500Y-91206250D03*
D14*
X154057500Y-91206250D03*
X164217500Y-91206250D03*
G04 #@! TD*
D15*
G04 #@! TO.C,MX40*
X154375000Y-72156250D03*
D14*
X149295000Y-72156250D03*
X159455000Y-72156250D03*
G04 #@! TD*
D15*
G04 #@! TO.C,MX39*
X144850000Y-53106250D03*
D14*
X139770000Y-53106250D03*
X149930000Y-53106250D03*
G04 #@! TD*
D15*
G04 #@! TO.C,MX38*
X139725550Y-34056250D03*
D14*
X134645550Y-34056250D03*
X144805550Y-34056250D03*
G04 #@! TD*
D15*
G04 #@! TO.C,MX37*
X144850000Y-129306250D03*
D14*
X139770000Y-129306250D03*
X149930000Y-129306250D03*
D16*
X87700000Y-122321250D03*
X202000000Y-122321250D03*
D15*
X87700000Y-137561250D03*
X202000000Y-137561250D03*
G04 #@! TD*
G04 #@! TO.C,MX36*
X149612500Y-110256250D03*
D14*
X144532500Y-110256250D03*
X154692500Y-110256250D03*
G04 #@! TD*
D15*
G04 #@! TO.C,MX35*
X140087500Y-91206250D03*
D14*
X135007500Y-91206250D03*
X145167500Y-91206250D03*
G04 #@! TD*
D15*
G04 #@! TO.C,MX34*
X135325000Y-72156250D03*
D14*
X130245000Y-72156250D03*
X140405000Y-72156250D03*
G04 #@! TD*
D15*
G04 #@! TO.C,MX33*
X125800000Y-53106250D03*
D14*
X120720000Y-53106250D03*
X130880000Y-53106250D03*
G04 #@! TD*
D15*
G04 #@! TO.C,MX32*
X119940220Y-34056250D03*
D14*
X114860220Y-34056250D03*
X125020220Y-34056250D03*
G04 #@! TD*
D15*
G04 #@! TO.C,MX31*
X130562500Y-110256250D03*
D14*
X125482500Y-110256250D03*
X135642500Y-110256250D03*
G04 #@! TD*
D15*
G04 #@! TO.C,MX30*
X121037500Y-91206250D03*
D14*
X115957500Y-91206250D03*
X126117500Y-91206250D03*
G04 #@! TD*
D15*
G04 #@! TO.C,MX29*
X116275000Y-72156250D03*
D14*
X111195000Y-72156250D03*
X121355000Y-72156250D03*
G04 #@! TD*
D15*
G04 #@! TO.C,MX28*
X106750000Y-53106250D03*
D14*
X101670000Y-53106250D03*
X111830000Y-53106250D03*
G04 #@! TD*
D15*
G04 #@! TO.C,MX27*
X100154890Y-34056250D03*
D14*
X95074890Y-34056250D03*
X105234890Y-34056250D03*
G04 #@! TD*
D15*
G04 #@! TO.C,MX26*
X111512500Y-110256250D03*
D14*
X106432500Y-110256250D03*
X116592500Y-110256250D03*
G04 #@! TD*
D15*
G04 #@! TO.C,MX25*
X101987500Y-91206250D03*
D14*
X96907500Y-91206250D03*
X107067500Y-91206250D03*
G04 #@! TD*
D15*
G04 #@! TO.C,MX24*
X97225000Y-72156250D03*
D14*
X92145000Y-72156250D03*
X102305000Y-72156250D03*
G04 #@! TD*
D15*
G04 #@! TO.C,MX23*
X87700000Y-53106250D03*
D14*
X82620000Y-53106250D03*
X92780000Y-53106250D03*
G04 #@! TD*
D15*
G04 #@! TO.C,MX22*
X80369560Y-34056250D03*
D14*
X75289560Y-34056250D03*
X85449560Y-34056250D03*
G04 #@! TD*
D15*
G04 #@! TO.C,MX21*
X92462500Y-110256250D03*
D14*
X87382500Y-110256250D03*
X97542500Y-110256250D03*
G04 #@! TD*
D15*
G04 #@! TO.C,MX20*
X82937500Y-91206250D03*
D14*
X77857500Y-91206250D03*
X88017500Y-91206250D03*
G04 #@! TD*
D15*
G04 #@! TO.C,MX19*
X78175000Y-72156250D03*
D14*
X73095000Y-72156250D03*
X83255000Y-72156250D03*
G04 #@! TD*
D15*
G04 #@! TO.C,MX18*
X68650000Y-53106250D03*
D14*
X63570000Y-53106250D03*
X73730000Y-53106250D03*
G04 #@! TD*
D15*
G04 #@! TO.C,MX17*
X60584230Y-34056250D03*
D14*
X55504230Y-34056250D03*
X65664230Y-34056250D03*
G04 #@! TD*
D15*
G04 #@! TO.C,MX16*
X73412500Y-110256250D03*
D14*
X68332500Y-110256250D03*
X78492500Y-110256250D03*
G04 #@! TD*
D15*
G04 #@! TO.C,MX15*
X63887500Y-91206250D03*
D14*
X58807500Y-91206250D03*
X68967500Y-91206250D03*
G04 #@! TD*
D15*
G04 #@! TO.C,MX14*
X59125000Y-72156250D03*
D14*
X54045000Y-72156250D03*
X64205000Y-72156250D03*
G04 #@! TD*
D15*
G04 #@! TO.C,MX13*
X49600000Y-53106250D03*
D14*
X44520000Y-53106250D03*
X54680000Y-53106250D03*
G04 #@! TD*
D15*
G04 #@! TO.C,MX11*
X66268750Y-129306250D03*
D14*
X61188750Y-129306250D03*
X71348750Y-129306250D03*
G04 #@! TD*
D15*
G04 #@! TO.C,MX10*
X54362500Y-110256250D03*
D14*
X49282500Y-110256250D03*
X59442500Y-110256250D03*
G04 #@! TD*
D15*
G04 #@! TO.C,MX9*
X44837500Y-91206250D03*
D14*
X39757500Y-91206250D03*
X49917500Y-91206250D03*
G04 #@! TD*
D15*
G04 #@! TO.C,MX8*
X40075000Y-72156250D03*
D14*
X34995000Y-72156250D03*
X45155000Y-72156250D03*
G04 #@! TD*
D15*
G04 #@! TO.C,MX7*
X30550000Y-53106250D03*
D14*
X25470000Y-53106250D03*
X35630000Y-53106250D03*
G04 #@! TD*
D15*
G04 #@! TO.C,MX6*
X40075000Y-129306250D03*
D14*
X34995000Y-129306250D03*
X45155000Y-129306250D03*
G04 #@! TD*
D15*
G04 #@! TO.C,MX5*
X23406250Y-110256250D03*
D14*
X18326250Y-110256250D03*
X28486250Y-110256250D03*
D16*
X11500000Y-103271250D03*
X35312500Y-103271250D03*
D15*
X11500000Y-118511250D03*
X35312500Y-118511250D03*
G04 #@! TD*
G04 #@! TO.C,MX4*
X18643750Y-91206250D03*
D14*
X13563750Y-91206250D03*
X23723750Y-91206250D03*
G04 #@! TD*
D15*
G04 #@! TO.C,MX3*
X16262500Y-72156250D03*
D14*
X11182500Y-72156250D03*
X21342500Y-72156250D03*
G04 #@! TD*
D15*
G04 #@! TO.C,MX2*
X11500000Y-53106250D03*
D14*
X6420000Y-53106250D03*
X16580000Y-53106250D03*
G04 #@! TD*
M02*
