M48
; DRILL file {KiCad 5.1.9} date 03/26/21 15:39:37
; FORMAT={-:-/ absolute / inch / decimal}
; #@! TF.CreationDate,2021-03-26T15:39:37-04:00
; #@! TF.GenerationSoftware,Kicad,Pcbnew,5.1.9
; #@! TF.FileFunction,NonPlated,1,2,NPTH
FMAT,2
INCH
T1C0.0689
T2C0.1200
T3C0.1570
T4C0.2756
%
G90
G05
T1
X0.2528Y-1.3408
X0.2528Y-2.0908
X0.4403Y-2.8408
X0.534Y-3.5908
X0.6528Y-1.3408
X0.6528Y-2.0908
X0.7215Y-4.3408
X0.8403Y-2.8408
X0.934Y-3.5908
X1.0028Y-2.0908
X1.1215Y-4.3408
X1.3778Y-2.8408
X1.3778Y-5.0908
X1.4028Y-2.0908
X1.4063Y-1.3408
X1.5653Y-3.5908
X1.7528Y-2.0908
X1.7778Y-2.8408
X1.7778Y-5.0908
X1.8063Y-1.3408
X1.9403Y-4.3408
X1.9653Y-3.5908
X2.1278Y-2.8408
X2.1528Y-2.0908
X2.1852Y-1.3408
X2.3153Y-3.5908
X2.3403Y-4.3408
X2.409Y-5.0908
X2.5028Y-2.0908
X2.5278Y-2.8408
X2.5852Y-1.3408
X2.6903Y-4.3408
X2.7153Y-3.5908
X2.809Y-5.0908
X2.8778Y-2.8408
X2.9028Y-2.0908
X2.9642Y-1.3408
X3.0653Y-3.5908
X3.0903Y-4.3408
X3.2528Y-2.0908
X3.2778Y-2.8408
X3.3642Y-1.3408
X3.4403Y-4.3408
X3.4653Y-3.5908
X3.6278Y-2.8408
X3.6528Y-2.0908
X3.7431Y-1.3408
X3.8153Y-3.5908
X3.8403Y-4.3408
X4.0028Y-2.0908
X4.0278Y-2.8408
X4.1431Y-1.3408
X4.1903Y-4.3408
X4.2153Y-3.5908
X4.3778Y-2.8408
X4.4028Y-2.0908
X4.5221Y-1.3408
X4.5653Y-3.5908
X4.5903Y-4.3408
X4.7528Y-2.0908
X4.7778Y-2.8408
X4.9221Y-1.3408
X4.9403Y-4.3408
X4.9653Y-3.5908
X5.1278Y-2.8408
X5.1528Y-2.0908
X5.301Y-1.3408
X5.3153Y-3.5908
X5.3403Y-4.3408
X5.5028Y-2.0908
X5.5028Y-5.0908
X5.5278Y-2.8408
X5.6903Y-4.3408
X5.701Y-1.3408
X5.7153Y-3.5908
X5.8778Y-2.8408
X5.9028Y-2.0908
X5.9028Y-5.0908
X6.0653Y-3.5908
X6.0903Y-4.3408
X6.2528Y-2.0908
X6.2778Y-2.8408
X6.4403Y-4.3408
X6.4545Y-1.3408
X6.4653Y-3.5908
X6.6278Y-2.8408
X6.6528Y-2.0908
X6.8153Y-3.5908
X6.8403Y-4.3408
X6.8545Y-1.3408
X7.0028Y-2.0908
X7.0278Y-2.8408
X7.1903Y-4.3408
X7.2153Y-3.5908
X7.2335Y-1.3408
X7.3778Y-2.8408
X7.4028Y-2.0908
X7.5653Y-3.5908
X7.5903Y-4.3408
X7.6335Y-1.3408
X7.7528Y-2.0908
X7.7778Y-2.8408
X7.9403Y-4.3408
X7.9653Y-3.5908
X8.0124Y-1.3408
X8.1278Y-2.8408
X8.1528Y-2.0908
X8.3153Y-3.5908
X8.3403Y-4.3408
X8.4124Y-1.3408
X8.5028Y-2.0908
X8.5278Y-2.8408
X8.5965Y-5.0908
X8.6903Y-4.3408
X8.7153Y-3.5908
X8.7914Y-1.3408
X8.8778Y-2.8408
X8.9028Y-2.0908
X8.9965Y-5.0908
X9.0653Y-3.5908
X9.0903Y-4.3408
X9.1914Y-1.3408
X9.2528Y-2.0908
X9.2778Y-2.8408
X9.4653Y-3.5908
X9.5703Y-1.3408
X9.6278Y-2.8408
X9.6278Y-5.0908
X9.6528Y-2.0908
X9.909Y-4.3408
X9.9703Y-1.3408
X10.0028Y-2.0908
X10.0278Y-2.8408
X10.0278Y-5.0908
X10.284Y-3.5908
X10.309Y-4.3408
X10.3493Y-1.3408
X10.4028Y-2.0908
X10.5653Y-2.8408
X10.684Y-3.5908
X10.7493Y-1.3408
X10.9653Y-2.8408
X11.1278Y-2.0908
X11.1278Y-4.3408
X11.5028Y-1.3408
X11.5028Y-2.8408
X11.5028Y-3.5908
X11.5028Y-5.0908
X11.5278Y-2.0908
X11.5278Y-4.3408
X11.8778Y-4.3408
X11.9028Y-1.3408
X11.9028Y-2.8408
X11.9028Y-3.5908
X11.9028Y-5.0908
X12.2778Y-4.3408
X13.0028Y-2.0908
X13.0028Y-2.8408
X13.0028Y-3.5908
X13.0028Y-5.0908
X13.3778Y-4.3408
X13.4028Y-2.0908
X13.4028Y-2.8408
X13.4028Y-3.5908
X13.4028Y-5.0908
X13.7528Y-2.0908
X13.7528Y-2.8408
X13.7528Y-3.5908
X13.7778Y-4.3408
X14.1278Y-5.0908
X14.1528Y-2.0908
X14.1528Y-2.8408
X14.1528Y-3.5908
X14.5028Y-2.0908
X14.5028Y-2.8408
X14.5028Y-3.5908
X14.5028Y-4.3408
X14.5278Y-5.0908
X14.9028Y-2.0908
X14.9028Y-2.8408
X14.9028Y-3.5908
X14.9028Y-4.3408
T2
X0.4528Y-4.0658
X1.3903Y-4.0658
X3.4528Y-4.8158
X7.9528Y-4.8158
X9.6403Y-4.0658
X10.0153Y-3.3158
X10.5778Y-4.0658
X10.859Y-1.8158
X10.9528Y-3.3158
X11.7965Y-1.8158
X13.109Y-4.0658
X13.859Y-4.8158
X14.0465Y-4.0658
X14.7965Y-4.8158
T3
X0.4528Y-1.3408
X0.4528Y-2.0908
X0.4528Y-4.6658
X0.6403Y-2.8408
X0.734Y-3.5908
X0.9215Y-4.3408
X1.2028Y-2.0908
X1.3903Y-4.6658
X1.5778Y-2.8408
X1.5778Y-5.0908
X1.6063Y-1.3408
X1.7653Y-3.5908
X1.9528Y-2.0908
X2.1403Y-4.3408
X2.3278Y-2.8408
X2.3852Y-1.3408
X2.5153Y-3.5908
X2.609Y-5.0908
X2.7028Y-2.0908
X2.8903Y-4.3408
X3.0778Y-2.8408
X3.1642Y-1.3408
X3.2653Y-3.5908
X3.4528Y-2.0908
X3.4528Y-5.4158
X3.6403Y-4.3408
X3.8278Y-2.8408
X3.9431Y-1.3408
X4.0153Y-3.5908
X4.2028Y-2.0908
X4.3903Y-4.3408
X4.5778Y-2.8408
X4.7221Y-1.3408
X4.7653Y-3.5908
X4.9528Y-2.0908
X5.1403Y-4.3408
X5.3278Y-2.8408
X5.501Y-1.3408
X5.5153Y-3.5908
X5.7028Y-2.0908
X5.7028Y-5.0908
X5.8903Y-4.3408
X6.0778Y-2.8408
X6.2653Y-3.5908
X6.4528Y-2.0908
X6.6403Y-4.3408
X6.6545Y-1.3408
X6.8278Y-2.8408
X7.0153Y-3.5908
X7.2028Y-2.0908
X7.3903Y-4.3408
X7.4335Y-1.3408
X7.5778Y-2.8408
X7.7653Y-3.5908
X7.9528Y-2.0908
X7.9528Y-5.4158
X8.1403Y-4.3408
X8.2124Y-1.3408
X8.3278Y-2.8408
X8.5153Y-3.5908
X8.7028Y-2.0908
X8.7965Y-5.0908
X8.8903Y-4.3408
X8.9914Y-1.3408
X9.0778Y-2.8408
X9.2653Y-3.5908
X9.4528Y-2.0908
X9.6403Y-4.6658
X9.7703Y-1.3408
X9.8278Y-2.8408
X9.8278Y-5.0908
X10.0153Y-3.9158
X10.109Y-4.3408
X10.2028Y-2.0908
X10.484Y-3.5908
X10.5493Y-1.3408
X10.5778Y-4.6658
X10.7653Y-2.8408
X10.859Y-2.4158
X10.9528Y-3.9158
X11.3278Y-2.0908
X11.3278Y-4.3408
X11.7028Y-1.3408
X11.7028Y-2.8408
X11.7028Y-3.5908
X11.7028Y-5.0908
X11.7965Y-2.4158
X12.0778Y-4.3408
X13.109Y-4.6658
X13.2028Y-2.0908
X13.2028Y-2.8408
X13.2028Y-3.5908
X13.2028Y-5.0908
X13.5778Y-4.3408
X13.859Y-5.4158
X13.9528Y-2.0908
X13.9528Y-2.8408
X13.9528Y-3.5908
X14.0465Y-4.6658
X14.3278Y-5.0908
X14.7028Y-2.0908
X14.7028Y-2.8408
X14.7028Y-3.5908
X14.7028Y-4.3408
X14.7965Y-5.4158
T4
X0.5709Y-5.0906
X2.3976Y-0.4567
X12.4508Y-5.0906
X14.7028Y-1.3622
T0
M30
