G04 #@! TF.GenerationSoftware,KiCad,Pcbnew,5.1.9*
G04 #@! TF.CreationDate,2021-03-26T15:39:31-04:00*
G04 #@! TF.ProjectId,EKS-1k,454b532d-316b-42e6-9b69-6361645f7063,rev?*
G04 #@! TF.SameCoordinates,Original*
G04 #@! TF.FileFunction,Profile,NP*
%FSLAX46Y46*%
G04 Gerber Fmt 4.6, Leading zero omitted, Abs format (unit mm)*
G04 Created by KiCad (PCBNEW 5.1.9) date 2021-03-26 15:39:31*
%MOMM*%
%LPD*%
G01*
G04 APERTURE LIST*
G04 #@! TA.AperFunction,Profile*
%ADD10C,0.050000*%
G04 #@! TD*
G04 APERTURE END LIST*
D10*
X99450000Y-22050000D02*
X100950000Y-20550000D01*
X52950000Y-22050000D02*
X51950000Y-23100000D01*
X344850000Y-22650000D02*
X345300000Y-23100000D01*
X383850000Y-23100000D02*
G75*
G02*
X385000000Y-24250000I0J-1150000D01*
G01*
X343700000Y-50000D02*
G75*
G02*
X344850000Y-1200000I0J-1150000D01*
G01*
X100950000Y-700000D02*
G75*
G02*
X101600000Y-50000I650000J0D01*
G01*
X67800000Y-50000D02*
G75*
G02*
X68950000Y-1200000I0J-1150000D01*
G01*
X52950000Y-1200000D02*
G75*
G02*
X54100000Y-50000I1150000J0D01*
G01*
X0Y-24150000D02*
G75*
G02*
X1050000Y-23100000I1050000J0D01*
G01*
X1000000Y-143300000D02*
G75*
G02*
X0Y-142300000I0J1000000D01*
G01*
X385000000Y-142250000D02*
G75*
G02*
X383950000Y-143300000I-1050000J0D01*
G01*
X1000000Y-143300000D02*
X383950000Y-143300000D01*
X344850000Y-22650000D02*
X344850000Y-1200000D01*
X383850000Y-23100000D02*
X345300000Y-23100000D01*
X385000000Y-142250000D02*
X385000000Y-24250000D01*
X100950000Y-20550000D02*
X100950000Y-700000D01*
X101600000Y-50000D02*
X343700000Y-50000D01*
X68950000Y-22050000D02*
X99450000Y-22050000D01*
X1050000Y-23100000D02*
X51950000Y-23100000D01*
X0Y-142300000D02*
X0Y-24150000D01*
X68950000Y-1200000D02*
X68950000Y-22050000D01*
X54100000Y-50000D02*
X67800000Y-50000D01*
X52950000Y-22050000D02*
X52950000Y-1200000D01*
M02*
