M48
; DRILL file {KiCad 5.1.9} date 03/26/21 15:39:37
; FORMAT={-:-/ absolute / inch / decimal}
; #@! TF.CreationDate,2021-03-26T15:39:37-04:00
; #@! TF.GenerationSoftware,Kicad,Pcbnew,5.1.9
; #@! TF.FileFunction,Plated,1,2,PTH
FMAT,2
INCH
T1C0.0157
T2C0.0276
T3C0.0409
T4C0.0579
%
G90
G05
T1
X1.0778Y-1.247
X1.3278Y-1.2158
X4.4062Y-0.4688
X4.4062Y-0.5938
X4.4375Y-0.4375
X10.1403Y-0.997
X11.9375Y-0.4375
X11.9688Y-0.4686
X12.0Y-0.4997
X12.1403Y-0.7783
X12.1403Y-1.0613
X12.234Y-0.6845
X12.2965Y-0.6845
X12.2965Y-1.1533
X12.3903Y-0.5283
X12.4375Y-0.4062
X12.5153Y-0.3408
X12.5778Y-1.497
X12.609Y-3.0595
X12.6562Y-0.5312
X12.6715Y-2.0283
X12.6715Y-2.622
X12.7028Y-0.3408
X12.7028Y-1.997
X12.734Y-1.9658
X12.734Y-4.2158
X12.7653Y-4.5595
X12.7654Y-1.9347
X12.859Y-1.372
X12.9215Y-0.3408
X12.984Y-0.4345
X13.0153Y-1.4658
X13.1715Y-1.4658
X13.234Y-1.4658
X13.2965Y-0.747
X13.4215Y-0.747
X13.4215Y-1.2158
T3
X1.5563Y-1.5408
X1.6563Y-1.5408
X10.4993Y-1.5408
X10.5993Y-1.5408
T4
X0.3028Y-1.2408
X0.3028Y-1.9908
X0.4903Y-2.7408
X0.5528Y-1.1408
X0.5528Y-1.8908
X0.584Y-3.4908
X0.7403Y-2.6408
X0.7715Y-4.2408
X0.834Y-3.3908
X1.0215Y-4.1408
X1.0528Y-1.9908
X1.3028Y-1.8908
X1.4278Y-2.7408
X1.4278Y-4.9908
X1.4563Y-1.2408
X1.6153Y-3.4908
X1.6778Y-2.6408
X1.6778Y-4.8908
X1.7063Y-1.1408
X1.8028Y-1.9908
X1.8653Y-3.3908
X1.9903Y-4.2408
X2.0528Y-1.8908
X2.1778Y-2.7408
X2.2352Y-1.2408
X2.2403Y-4.1408
X2.3653Y-3.4908
X2.4278Y-2.6408
X2.459Y-4.9908
X2.4852Y-1.1408
X2.5528Y-1.9908
X2.6153Y-3.3908
X2.709Y-4.8908
X2.7403Y-4.2408
X2.8028Y-1.8908
X2.9278Y-2.7408
X2.9903Y-4.1408
X3.0142Y-1.2408
X3.1153Y-3.4908
X3.1778Y-2.6408
X3.2642Y-1.1408
X3.3028Y-1.9908
X3.3653Y-3.3908
X3.4903Y-4.2408
X3.5528Y-1.8908
X3.6778Y-2.7408
X3.7403Y-4.1408
X3.7931Y-1.2408
X3.8653Y-3.4908
X3.9278Y-2.6408
X4.0431Y-1.1408
X4.0528Y-1.9908
X4.1153Y-3.3908
X4.2403Y-4.2408
X4.3028Y-1.8908
X4.4278Y-2.7408
X4.4903Y-4.1408
X4.5721Y-1.2408
X4.6153Y-3.4908
X4.6778Y-2.6408
X4.8028Y-1.9908
X4.8221Y-1.1408
X4.8653Y-3.3908
X4.9903Y-4.2408
X5.0528Y-1.8908
X5.1778Y-2.7408
X5.2403Y-4.1408
X5.351Y-1.2408
X5.3653Y-3.4908
X5.4278Y-2.6408
X5.5528Y-1.9908
X5.5528Y-4.9908
X5.601Y-1.1408
X5.6153Y-3.3908
X5.7403Y-4.2408
X5.8028Y-1.8908
X5.8028Y-4.8908
X5.9278Y-2.7408
X5.9903Y-4.1408
X6.1153Y-3.4908
X6.1778Y-2.6408
X6.3028Y-1.9908
X6.3653Y-3.3908
X6.4903Y-4.2408
X6.5045Y-1.2408
X6.5528Y-1.8908
X6.6778Y-2.7408
X6.7403Y-4.1408
X6.7545Y-1.1408
X6.8653Y-3.4908
X6.9278Y-2.6408
X7.0528Y-1.9908
X7.1153Y-3.3908
X7.2403Y-4.2408
X7.2835Y-1.2408
X7.3028Y-1.8908
X7.4278Y-2.7408
X7.4903Y-4.1408
X7.5335Y-1.1408
X7.6153Y-3.4908
X7.6778Y-2.6408
X7.8028Y-1.9908
X7.8653Y-3.3908
X7.9903Y-4.2408
X8.0528Y-1.8908
X8.0624Y-1.2408
X8.1778Y-2.7408
X8.2403Y-4.1408
X8.3124Y-1.1408
X8.3653Y-3.4908
X8.4278Y-2.6408
X8.5528Y-1.9908
X8.6153Y-3.3908
X8.6465Y-4.9908
X8.7403Y-4.2408
X8.8028Y-1.8908
X8.8414Y-1.2408
X8.8965Y-4.8908
X8.9278Y-2.7408
X8.9903Y-4.1408
X9.0914Y-1.1408
X9.1153Y-3.4908
X9.1778Y-2.6408
X9.3028Y-1.9908
X9.3653Y-3.3908
X9.5528Y-1.8908
X9.6203Y-1.2408
X9.6778Y-2.7408
X9.6778Y-4.9908
X9.8703Y-1.1408
X9.9278Y-2.6408
X9.9278Y-4.8908
X9.959Y-4.2408
X10.0528Y-1.9908
X10.209Y-4.1408
X10.3028Y-1.8908
X10.334Y-3.4908
X10.3993Y-1.2408
X10.584Y-3.3908
X10.6153Y-2.7408
X10.6493Y-1.1408
X10.8653Y-2.6408
X11.1778Y-1.9908
X11.1778Y-4.2408
X11.4278Y-1.8908
X11.4278Y-4.1408
X11.5528Y-1.2408
X11.5528Y-2.7408
X11.5528Y-3.4908
X11.5528Y-4.9908
X11.8028Y-1.1408
X11.8028Y-2.6408
X11.8028Y-3.3908
X11.8028Y-4.8908
X11.9278Y-4.2408
X12.1778Y-4.1408
X13.0528Y-1.9908
X13.0528Y-2.7408
X13.0528Y-3.4908
X13.0528Y-4.9908
X13.3028Y-1.8908
X13.3028Y-2.6408
X13.3028Y-3.3908
X13.3028Y-4.8908
X13.4278Y-4.2408
X13.6778Y-4.1408
X13.8028Y-1.9908
X13.8028Y-2.7408
X13.8028Y-3.4908
X14.0528Y-1.8908
X14.0528Y-2.6408
X14.0528Y-3.3908
X14.1778Y-4.9908
X14.4278Y-4.8908
X14.5528Y-1.9908
X14.5528Y-2.7408
X14.5528Y-3.4908
X14.5528Y-4.2408
X14.8028Y-1.8908
X14.8028Y-2.6408
X14.8028Y-3.3908
X14.8028Y-4.1408
T2
G00X4.0197Y-0.2908
M15
G01X4.0669Y-0.2908
M16
G05
G00X4.0197Y-0.5782
M15
G01X4.0669Y-0.5782
M16
G05
G00X4.1969Y-0.2908
M15
G01X4.2441Y-0.2908
M16
G05
G00X4.1969Y-0.5782
M15
G01X4.2441Y-0.5782
M16
G05
T0
M30
