M48
; DRILL file {KiCad 5.1.9} date 11/23/22 09:59:31
; FORMAT={-:-/ absolute / inch / decimal}
; #@! TF.CreationDate,2022-11-23T09:59:31-05:00
; #@! TF.GenerationSoftware,Kicad,Pcbnew,5.1.9
; #@! TF.FileFunction,Plated,1,2,PTH
FMAT,2
INCH
T1C0.0157
T2C0.0236
T3C0.0409
T4C0.0579
%
G90
G05
T1
X1.5938Y0.1562
X1.625Y0.125
X11.9375Y0.0625
X11.9375Y-0.5
X12.125Y0.5
X12.125Y-1.125
X12.125Y-1.25
X12.1562Y-1.0938
X12.1562Y-1.9062
X12.1875Y-1.125
X12.1875Y-2.0
X12.2188Y-1.0938
X12.2188Y-2.5938
X12.25Y-1.125
X12.25Y-2.6875
X12.2812Y0.5
X12.2812Y-1.0938
X12.2812Y-2.7812
X12.3125Y-1.125
X12.3125Y-3.3438
X12.3438Y-1.0938
X12.3438Y-3.4375
X12.375Y-0.6562
X12.375Y-1.125
X12.375Y-4.1562
X12.75Y-0.0625
X12.8438Y-0.125
X12.9688Y0.1875
T3
X0.8562Y-2.575
X0.8562Y-2.675
T4
X0.225Y-0.275
X0.225Y-1.025
X0.4125Y-1.775
X0.4562Y-2.525
X0.475Y-0.175
X0.475Y-0.925
X0.5563Y-2.775
X0.6625Y-1.675
X0.6937Y-3.275
X0.9437Y-3.175
X0.975Y-1.025
X1.225Y-0.925
X1.2562Y-4.025
X1.35Y-0.275
X1.35Y-1.775
X1.5062Y-3.925
X1.5375Y-2.525
X1.6Y-0.175
X1.6Y-1.675
X1.725Y-1.025
X1.7875Y-2.425
X1.9125Y-3.275
X1.975Y-0.925
X2.1Y-0.275
X2.1Y-1.775
X2.1625Y-3.175
X2.1938Y-4.025
X2.2875Y-2.525
X2.35Y-0.175
X2.35Y-1.675
X2.4438Y-3.925
X2.475Y-1.025
X2.5375Y-2.425
X2.6625Y-3.275
X2.725Y-0.925
X2.85Y-0.275
X2.85Y-1.775
X2.9125Y-3.175
X3.0375Y-2.525
X3.1Y-0.175
X3.1Y-1.675
X3.225Y-1.025
X3.2875Y-2.425
X3.4125Y-3.275
X3.475Y-0.925
X3.6Y-0.275
X3.6Y-1.775
X3.6625Y-3.175
X3.7875Y-2.525
X3.85Y-0.175
X3.85Y-1.675
X3.975Y-1.025
X4.0375Y-2.425
X4.1625Y-3.275
X4.225Y-0.925
X4.35Y-0.275
X4.35Y-1.775
X4.4125Y-3.175
X4.5375Y-2.525
X4.6Y-0.175
X4.6Y-1.675
X4.725Y-1.025
X4.7875Y-2.425
X4.9125Y-3.275
X4.975Y-0.925
X5.1Y-0.275
X5.1Y-1.775
X5.1625Y-3.175
X5.2875Y-2.525
X5.2875Y-4.025
X5.35Y-0.175
X5.35Y-1.675
X5.475Y-1.025
X5.5375Y-2.425
X5.5375Y-3.925
X5.6625Y-3.275
X5.725Y-0.925
X5.85Y-1.775
X5.9125Y-3.175
X6.0375Y-2.525
X6.1Y-1.675
X6.225Y-0.275
X6.225Y-1.025
X6.2875Y-2.425
X6.4125Y-3.275
X6.475Y-0.175
X6.475Y-0.925
X6.6Y-1.775
X6.6625Y-3.175
X6.7875Y-2.525
X6.85Y-1.675
X6.975Y-0.275
X6.975Y-1.025
X7.0375Y-2.425
X7.1625Y-3.275
X7.225Y-0.175
X7.225Y-0.925
X7.35Y-1.775
X7.4125Y-3.175
X7.5375Y-2.525
X7.6Y-1.675
X7.725Y-0.275
X7.725Y-1.025
X7.7875Y-2.425
X7.9125Y-3.275
X7.975Y-0.175
X7.975Y-0.925
X8.1Y-1.775
X8.1625Y-3.175
X8.2875Y-2.525
X8.35Y-1.675
X8.3812Y-4.025
X8.475Y-0.275
X8.475Y-1.025
X8.5375Y-2.425
X8.6312Y-3.925
X8.6625Y-3.275
X8.725Y-0.175
X8.725Y-0.925
X8.85Y-1.775
X8.9125Y-3.175
X9.0375Y-2.525
X9.1Y-1.675
X9.225Y-0.275
X9.225Y-1.025
X9.2875Y-2.425
X9.3187Y-4.025
X9.475Y-0.175
X9.475Y-0.925
X9.5687Y-3.925
X9.6Y-1.775
X9.6937Y-3.275
X9.85Y-1.675
X9.9437Y-3.175
X9.975Y-0.275
X9.975Y-1.025
X10.225Y-0.175
X10.225Y-0.925
X10.35Y-2.15
X10.6Y-2.05
X10.725Y-3.275
X10.9125Y-1.025
X10.975Y-3.175
X11.1Y-0.275
X11.1Y-1.775
X11.1Y-2.525
X11.1Y-4.025
X11.1625Y-0.925
X11.35Y-0.175
X11.35Y-1.675
X11.35Y-2.425
X11.35Y-3.925
X11.475Y-3.275
X11.725Y-3.175
X12.6Y-1.025
X12.6Y-1.775
X12.6Y-2.525
X12.6Y-4.025
X12.85Y-0.925
X12.85Y-1.675
X12.85Y-2.425
X12.85Y-3.925
X12.975Y-3.275
X13.225Y-3.175
X13.35Y-1.025
X13.35Y-1.775
X13.35Y-2.525
X13.6Y-0.925
X13.6Y-1.675
X13.6Y-2.425
X13.725Y-4.025
X13.975Y-3.925
X14.1Y-1.025
X14.1Y-1.775
X14.1Y-2.525
X14.1Y-3.275
X14.35Y-0.925
X14.35Y-1.675
X14.35Y-2.425
X14.35Y-3.175
T2
G00X12.0323Y0.8156
M15
G01X12.0323Y0.792
M16
G05
G00X12.0323Y0.6609
M15
G01X12.0323Y0.6176
M16
G05
G00X12.3724Y0.8156
M15
G01X12.3724Y0.792
M16
G05
G00X12.3724Y0.6609
M15
G01X12.3724Y0.6176
M16
G05
T0
M30
