%TF.GenerationSoftware,KiCad,Pcbnew,5.1.9*%
%TF.CreationDate,2022-11-22T14:36:08-05:00*%
%TF.ProjectId,EKS1000-V4,454b5331-3030-4302-9d56-342e6b696361,rev?*%
%TF.SameCoordinates,Original*%
%TF.FileFunction,Soldermask,Top*%
%TF.FilePolarity,Negative*%
%FSLAX46Y46*%
G04 Gerber Fmt 4.6, Leading zero omitted, Abs format (unit mm)*
G04 Created by KiCad (PCBNEW 5.1.9) date 2022-11-22 14:36:08*
%MOMM*%
%LPD*%
G01*
G04 APERTURE LIST*
%ADD10C,3.987800*%
%ADD11C,1.750000*%
%ADD12C,3.200000*%
%ADD13O,1.000000X1.600000*%
%ADD14C,0.650000*%
%ADD15O,1.000000X2.100000*%
%ADD16C,3.048000*%
G04 APERTURE END LIST*
D10*
%TO.C,MX78*%
X323850000Y-28575000D03*
D11*
X318770000Y-28575000D03*
X328930000Y-28575000D03*
%TD*%
D12*
%TO.C,M10*%
X352425000Y-112712500D03*
%TD*%
%TO.C,M3*%
X85725000Y-57150000D03*
%TD*%
%TO.C,M5*%
X352425000Y-38100000D03*
%TD*%
%TO.C,M2*%
X147637500Y-7143750D03*
%TD*%
%TO.C,M8*%
X210343750Y-57150000D03*
%TD*%
%TO.C,M7*%
X127793750Y-102393750D03*
%TD*%
%TO.C,M9*%
X271462500Y-102393750D03*
%TD*%
%TO.C,M6*%
X23812500Y-102393750D03*
%TD*%
D13*
%TO.C,J1*%
X314260198Y20417500D03*
D14*
X312830198Y16767500D03*
D13*
X305620198Y20417500D03*
D14*
X307050198Y16767500D03*
D15*
X305620198Y16237500D03*
X314260198Y16237500D03*
%TD*%
D11*
%TO.C,MX4*%
X16668750Y-61595000D03*
X16668750Y-71755000D03*
D10*
X16668750Y-66675000D03*
%TD*%
D12*
%TO.C,M4*%
X271462500Y-7143750D03*
%TD*%
%TO.C,M1*%
X23812500Y-7143750D03*
%TD*%
D10*
%TO.C,MX73*%
X285750000Y-47625000D03*
D11*
X280670000Y-47625000D03*
X290830000Y-47625000D03*
%TD*%
D10*
%TO.C,MX70*%
X258445000Y-69056250D03*
X258445000Y-45243750D03*
D16*
X273685000Y-69056250D03*
X273685000Y-45243750D03*
D11*
X271780000Y-57150000D03*
X261620000Y-57150000D03*
D10*
X266700000Y-57150000D03*
%TD*%
%TO.C,MX41*%
X157162500Y-66675000D03*
D11*
X152082500Y-66675000D03*
X162242500Y-66675000D03*
%TD*%
D10*
%TO.C,MX6*%
X35718750Y-104775000D03*
D11*
X30638750Y-104775000D03*
X40798750Y-104775000D03*
%TD*%
%TO.C,R8*%
G36*
G01*
X21266998Y-57550000D02*
X22167002Y-57550000D01*
G75*
G02*
X22417000Y-57799998I0J-249998D01*
G01*
X22417000Y-58325002D01*
G75*
G02*
X22167002Y-58575000I-249998J0D01*
G01*
X21266998Y-58575000D01*
G75*
G02*
X21017000Y-58325002I0J249998D01*
G01*
X21017000Y-57799998D01*
G75*
G02*
X21266998Y-57550000I249998J0D01*
G01*
G37*
G36*
G01*
X21266998Y-55725000D02*
X22167002Y-55725000D01*
G75*
G02*
X22417000Y-55974998I0J-249998D01*
G01*
X22417000Y-56500002D01*
G75*
G02*
X22167002Y-56750000I-249998J0D01*
G01*
X21266998Y-56750000D01*
G75*
G02*
X21017000Y-56500002I0J249998D01*
G01*
X21017000Y-55974998D01*
G75*
G02*
X21266998Y-55725000I249998J0D01*
G01*
G37*
%TD*%
D10*
%TO.C,MX90*%
X352425000Y-104775000D03*
D11*
X347345000Y-104775000D03*
X357505000Y-104775000D03*
D16*
X340518750Y-97790000D03*
X364331250Y-97790000D03*
D10*
X340518750Y-113030000D03*
X364331250Y-113030000D03*
%TD*%
%TO.C,MX89*%
X361950000Y-85725000D03*
D11*
X356870000Y-85725000D03*
X367030000Y-85725000D03*
%TD*%
D10*
%TO.C,MX88*%
X361950000Y-66675000D03*
D11*
X356870000Y-66675000D03*
X367030000Y-66675000D03*
%TD*%
D10*
%TO.C,MX87*%
X361950000Y-47625000D03*
D11*
X356870000Y-47625000D03*
X367030000Y-47625000D03*
%TD*%
D10*
%TO.C,MX86*%
X361950000Y-28575000D03*
D11*
X356870000Y-28575000D03*
X367030000Y-28575000D03*
%TD*%
D10*
%TO.C,MX85*%
X342900000Y-66675000D03*
D11*
X337820000Y-66675000D03*
X347980000Y-66675000D03*
%TD*%
D10*
%TO.C,MX84*%
X342900000Y-47625000D03*
D11*
X337820000Y-47625000D03*
X347980000Y-47625000D03*
%TD*%
D10*
%TO.C,MX83*%
X342900000Y-28575000D03*
D11*
X337820000Y-28575000D03*
X347980000Y-28575000D03*
%TD*%
D10*
%TO.C,MX82*%
X323850000Y-104775000D03*
D11*
X318770000Y-104775000D03*
X328930000Y-104775000D03*
%TD*%
D10*
%TO.C,MX81*%
X333375000Y-85725000D03*
D11*
X328295000Y-85725000D03*
X338455000Y-85725000D03*
D16*
X321468750Y-78740000D03*
X345281250Y-78740000D03*
D10*
X321468750Y-93980000D03*
X345281250Y-93980000D03*
%TD*%
%TO.C,MX80*%
X323850000Y-66675000D03*
D11*
X318770000Y-66675000D03*
X328930000Y-66675000D03*
%TD*%
D10*
%TO.C,MX79*%
X323850000Y-47625000D03*
D11*
X318770000Y-47625000D03*
X328930000Y-47625000D03*
%TD*%
D10*
%TO.C,MX77*%
X285750000Y-104775000D03*
D11*
X280670000Y-104775000D03*
X290830000Y-104775000D03*
%TD*%
D10*
%TO.C,MX76*%
X295275000Y-85725000D03*
D11*
X290195000Y-85725000D03*
X300355000Y-85725000D03*
%TD*%
D10*
%TO.C,MX75*%
X276225000Y-85725000D03*
D11*
X271145000Y-85725000D03*
X281305000Y-85725000D03*
%TD*%
D10*
%TO.C,MX74*%
X285750000Y-66675000D03*
D11*
X280670000Y-66675000D03*
X290830000Y-66675000D03*
%TD*%
D10*
%TO.C,MX59*%
X240506250Y-104775000D03*
D11*
X235426250Y-104775000D03*
X245586250Y-104775000D03*
%TD*%
D10*
%TO.C,MX64*%
X250031250Y-85725000D03*
D11*
X244951250Y-85725000D03*
X255111250Y-85725000D03*
%TD*%
D10*
%TO.C,MX72*%
X280987500Y-28575000D03*
D11*
X275907500Y-28575000D03*
X286067500Y-28575000D03*
%TD*%
D10*
%TO.C,MX71*%
X285750000Y-9525000D03*
D11*
X280670000Y-9525000D03*
X290830000Y-9525000D03*
%TD*%
D10*
%TO.C,MX53*%
X216693750Y-104775000D03*
D11*
X211613750Y-104775000D03*
X221773750Y-104775000D03*
%TD*%
D10*
%TO.C,MX58*%
X223837500Y-85725000D03*
D11*
X218757500Y-85725000D03*
X228917500Y-85725000D03*
%TD*%
D10*
%TO.C,MX63*%
X233362500Y-66675000D03*
D11*
X228282500Y-66675000D03*
X238442500Y-66675000D03*
%TD*%
D10*
%TO.C,MX67*%
X247650000Y-47625000D03*
D11*
X242570000Y-47625000D03*
X252730000Y-47625000D03*
%TD*%
D10*
%TO.C,MX69*%
X257175000Y-28575000D03*
D11*
X252095000Y-28575000D03*
X262255000Y-28575000D03*
%TD*%
D10*
%TO.C,MX68*%
X257175000Y-9525000D03*
D11*
X252095000Y-9525000D03*
X262255000Y-9525000D03*
%TD*%
D10*
%TO.C,MX52*%
X204787500Y-85725000D03*
D11*
X199707500Y-85725000D03*
X209867500Y-85725000D03*
%TD*%
D10*
%TO.C,MX57*%
X214312500Y-66675000D03*
D11*
X209232500Y-66675000D03*
X219392500Y-66675000D03*
%TD*%
D10*
%TO.C,MX62*%
X228600000Y-47625000D03*
D11*
X223520000Y-47625000D03*
X233680000Y-47625000D03*
%TD*%
D10*
%TO.C,MX66*%
X238125000Y-28575000D03*
D11*
X233045000Y-28575000D03*
X243205000Y-28575000D03*
%TD*%
D10*
%TO.C,MX65*%
X238125000Y-9525000D03*
D11*
X233045000Y-9525000D03*
X243205000Y-9525000D03*
%TD*%
D10*
%TO.C,MX47*%
X185737500Y-85725000D03*
D11*
X180657500Y-85725000D03*
X190817500Y-85725000D03*
%TD*%
D10*
%TO.C,MX51*%
X195262500Y-66675000D03*
D11*
X190182500Y-66675000D03*
X200342500Y-66675000D03*
%TD*%
D10*
%TO.C,MX56*%
X209550000Y-47625000D03*
D11*
X204470000Y-47625000D03*
X214630000Y-47625000D03*
%TD*%
D10*
%TO.C,MX61*%
X219075000Y-28575000D03*
D11*
X213995000Y-28575000D03*
X224155000Y-28575000D03*
%TD*%
D10*
%TO.C,MX60*%
X219075000Y-9525000D03*
D11*
X213995000Y-9525000D03*
X224155000Y-9525000D03*
%TD*%
D10*
%TO.C,MX42*%
X166687500Y-85725000D03*
D11*
X161607500Y-85725000D03*
X171767500Y-85725000D03*
%TD*%
D10*
%TO.C,MX46*%
X176212500Y-66675000D03*
D11*
X171132500Y-66675000D03*
X181292500Y-66675000D03*
%TD*%
D10*
%TO.C,MX50*%
X190500000Y-47625000D03*
D11*
X185420000Y-47625000D03*
X195580000Y-47625000D03*
%TD*%
D10*
%TO.C,MX55*%
X200025000Y-28575000D03*
D11*
X194945000Y-28575000D03*
X205105000Y-28575000D03*
%TD*%
D10*
%TO.C,MX54*%
X200025000Y-9525000D03*
D11*
X194945000Y-9525000D03*
X205105000Y-9525000D03*
%TD*%
D10*
%TO.C,MX45*%
X171450000Y-47625000D03*
D11*
X166370000Y-47625000D03*
X176530000Y-47625000D03*
%TD*%
D10*
%TO.C,MX49*%
X180975000Y-28575000D03*
D11*
X175895000Y-28575000D03*
X186055000Y-28575000D03*
%TD*%
D10*
%TO.C,MX48*%
X180975000Y-9525000D03*
D11*
X175895000Y-9525000D03*
X186055000Y-9525000D03*
%TD*%
D10*
%TO.C,MX44*%
X161925000Y-28575000D03*
D11*
X156845000Y-28575000D03*
X167005000Y-28575000D03*
%TD*%
D10*
%TO.C,MX43*%
X161925000Y-9525000D03*
D11*
X156845000Y-9525000D03*
X167005000Y-9525000D03*
%TD*%
D10*
%TO.C,MX40*%
X152400000Y-47625000D03*
D11*
X147320000Y-47625000D03*
X157480000Y-47625000D03*
%TD*%
D10*
%TO.C,MX39*%
X142875000Y-28575000D03*
D11*
X137795000Y-28575000D03*
X147955000Y-28575000D03*
%TD*%
D10*
%TO.C,MX38*%
X133350000Y-9525000D03*
D11*
X128270000Y-9525000D03*
X138430000Y-9525000D03*
%TD*%
D10*
%TO.C,MX37*%
X147637500Y-85725000D03*
D11*
X142557500Y-85725000D03*
X152717500Y-85725000D03*
%TD*%
D10*
%TO.C,MX36*%
X138112500Y-66675000D03*
D11*
X133032500Y-66675000D03*
X143192500Y-66675000D03*
%TD*%
D10*
%TO.C,MX35*%
X133350000Y-47625000D03*
D11*
X128270000Y-47625000D03*
X138430000Y-47625000D03*
%TD*%
D10*
%TO.C,MX34*%
X123825000Y-28575000D03*
D11*
X118745000Y-28575000D03*
X128905000Y-28575000D03*
%TD*%
D10*
%TO.C,MX33*%
X114300000Y-9525000D03*
D11*
X109220000Y-9525000D03*
X119380000Y-9525000D03*
%TD*%
D10*
%TO.C,MX32*%
X138112500Y-104775000D03*
D11*
X133032500Y-104775000D03*
X143192500Y-104775000D03*
D16*
X80962500Y-97790000D03*
X195262500Y-97790000D03*
D10*
X80962500Y-113030000D03*
X195262500Y-113030000D03*
%TD*%
%TO.C,MX31*%
X128587500Y-85725000D03*
D11*
X123507500Y-85725000D03*
X133667500Y-85725000D03*
%TD*%
D10*
%TO.C,MX30*%
X119062500Y-66675000D03*
D11*
X113982500Y-66675000D03*
X124142500Y-66675000D03*
%TD*%
D10*
%TO.C,MX29*%
X114300000Y-47625000D03*
D11*
X109220000Y-47625000D03*
X119380000Y-47625000D03*
%TD*%
D10*
%TO.C,MX28*%
X104775000Y-28575000D03*
D11*
X99695000Y-28575000D03*
X109855000Y-28575000D03*
%TD*%
D10*
%TO.C,MX27*%
X95250000Y-9525000D03*
D11*
X90170000Y-9525000D03*
X100330000Y-9525000D03*
%TD*%
D10*
%TO.C,MX26*%
X109537500Y-85725000D03*
D11*
X104457500Y-85725000D03*
X114617500Y-85725000D03*
%TD*%
D10*
%TO.C,MX25*%
X100012500Y-66675000D03*
D11*
X94932500Y-66675000D03*
X105092500Y-66675000D03*
%TD*%
D10*
%TO.C,MX24*%
X95250000Y-47625000D03*
D11*
X90170000Y-47625000D03*
X100330000Y-47625000D03*
%TD*%
D10*
%TO.C,MX23*%
X85725000Y-28575000D03*
D11*
X80645000Y-28575000D03*
X90805000Y-28575000D03*
%TD*%
D10*
%TO.C,MX22*%
X76200000Y-9525000D03*
D11*
X71120000Y-9525000D03*
X81280000Y-9525000D03*
%TD*%
D10*
%TO.C,MX21*%
X90487500Y-85725000D03*
D11*
X85407500Y-85725000D03*
X95567500Y-85725000D03*
%TD*%
D10*
%TO.C,MX20*%
X80962500Y-66675000D03*
D11*
X75882500Y-66675000D03*
X86042500Y-66675000D03*
%TD*%
D10*
%TO.C,MX19*%
X76200000Y-47625000D03*
D11*
X71120000Y-47625000D03*
X81280000Y-47625000D03*
%TD*%
D10*
%TO.C,MX18*%
X66675000Y-28575000D03*
D11*
X61595000Y-28575000D03*
X71755000Y-28575000D03*
%TD*%
D10*
%TO.C,MX17*%
X57150000Y-9525000D03*
D11*
X52070000Y-9525000D03*
X62230000Y-9525000D03*
%TD*%
D10*
%TO.C,MX16*%
X71437500Y-85725000D03*
D11*
X66357500Y-85725000D03*
X76517500Y-85725000D03*
%TD*%
D10*
%TO.C,MX15*%
X61912500Y-66675000D03*
D11*
X56832500Y-66675000D03*
X66992500Y-66675000D03*
%TD*%
D10*
%TO.C,MX14*%
X57150000Y-47625000D03*
D11*
X52070000Y-47625000D03*
X62230000Y-47625000D03*
%TD*%
D10*
%TO.C,MX13*%
X47625000Y-28575000D03*
D11*
X42545000Y-28575000D03*
X52705000Y-28575000D03*
%TD*%
D10*
%TO.C,MX12*%
X38100000Y-9525000D03*
D11*
X33020000Y-9525000D03*
X43180000Y-9525000D03*
%TD*%
D10*
%TO.C,MX11*%
X59531250Y-104775000D03*
D11*
X54451250Y-104775000D03*
X64611250Y-104775000D03*
%TD*%
D10*
%TO.C,MX10*%
X52387500Y-85725000D03*
D11*
X47307500Y-85725000D03*
X57467500Y-85725000D03*
%TD*%
D10*
%TO.C,MX9*%
X42862500Y-66675000D03*
D11*
X37782500Y-66675000D03*
X47942500Y-66675000D03*
%TD*%
D10*
%TO.C,MX8*%
X38100000Y-47625000D03*
D11*
X33020000Y-47625000D03*
X43180000Y-47625000D03*
%TD*%
D10*
%TO.C,MX7*%
X28575000Y-28575000D03*
D11*
X23495000Y-28575000D03*
X33655000Y-28575000D03*
%TD*%
D10*
%TO.C,MX5*%
X21431250Y-85725000D03*
D11*
X16351250Y-85725000D03*
X26511250Y-85725000D03*
D16*
X9525000Y-78740000D03*
X33337500Y-78740000D03*
D10*
X9525000Y-93980000D03*
X33337500Y-93980000D03*
%TD*%
%TO.C,MX3*%
X14287500Y-47625000D03*
D11*
X9207500Y-47625000D03*
X19367500Y-47625000D03*
%TD*%
D10*
%TO.C,MX2*%
X9525000Y-28575000D03*
D11*
X4445000Y-28575000D03*
X14605000Y-28575000D03*
%TD*%
D10*
%TO.C,MX1*%
X9525000Y-9525000D03*
D11*
X4445000Y-9525000D03*
X14605000Y-9525000D03*
%TD*%
M02*
