%TF.GenerationSoftware,KiCad,Pcbnew,5.1.9*%
%TF.CreationDate,2022-11-23T09:59:22-05:00*%
%TF.ProjectId,EKS1000-V4,454b5331-3030-4302-9d56-342e6b696361,rev?*%
%TF.SameCoordinates,Original*%
%TF.FileFunction,Legend,Bot*%
%TF.FilePolarity,Positive*%
%FSLAX46Y46*%
G04 Gerber Fmt 4.6, Leading zero omitted, Abs format (unit mm)*
G04 Created by KiCad (PCBNEW 5.1.9) date 2022-11-23 09:59:22*
%MOMM*%
%LPD*%
G01*
G04 APERTURE LIST*
%ADD10C,0.120000*%
%ADD11C,0.150000*%
G04 APERTURE END LIST*
D10*
%TO.C,J1*%
X305240198Y23267500D02*
X314640198Y23267500D01*
X314640198Y17467500D02*
X314640198Y19467500D01*
X314640198Y21367500D02*
X314640198Y23267500D01*
X305240198Y17467500D02*
X305240198Y19467500D01*
X305240198Y21367500D02*
X305240198Y23267500D01*
%TO.C,R1*%
X321527500Y-893814D02*
X321527500Y-439686D01*
X322997500Y-893814D02*
X322997500Y-439686D01*
D11*
%TO.C,U2*%
X310595250Y8964000D02*
X309295250Y8964000D01*
X310595250Y11864000D02*
X310595250Y8964000D01*
X309295250Y11864000D02*
X310595250Y11864000D01*
X309295250Y11864000D02*
X309295250Y8964000D01*
D10*
%TO.C,Y1*%
X321406250Y-8350000D02*
X321406250Y-4350000D01*
X324706250Y-8350000D02*
X321406250Y-8350000D01*
D11*
%TO.C,U1*%
X307343750Y-381250D02*
X307343750Y893750D01*
X306768750Y-10731250D02*
X306768750Y-10056250D01*
X317118750Y-10731250D02*
X317118750Y-10056250D01*
X317118750Y-381250D02*
X317118750Y-1056250D01*
X306768750Y-381250D02*
X306768750Y-1056250D01*
X317118750Y-381250D02*
X316443750Y-381250D01*
X317118750Y-10731250D02*
X316443750Y-10731250D01*
X306768750Y-10731250D02*
X307443750Y-10731250D01*
X306768750Y-381250D02*
X307343750Y-381250D01*
%TO.C,SW1*%
X329339250Y575000D02*
X329339250Y5775000D01*
X329339250Y5775000D02*
X324139250Y5775000D01*
X324139250Y5775000D02*
X324139250Y575000D01*
X324139250Y575000D02*
X329339250Y575000D01*
X327739250Y3175000D02*
G75*
G03*
X327739250Y3175000I-1000000J0D01*
G01*
D10*
%TO.C,R6*%
X303439500Y14959064D02*
X303439500Y14504936D01*
X301969500Y14959064D02*
X301969500Y14504936D01*
%TO.C,R5*%
X317885750Y14959064D02*
X317885750Y14504936D01*
X316415750Y14959064D02*
X316415750Y14504936D01*
%TO.C,R4*%
X303571665Y-14591468D02*
X303892782Y-14912585D01*
X302532218Y-15630915D02*
X302853335Y-15952032D01*
%TO.C,R3*%
X307910250Y5626902D02*
X307910250Y6081030D01*
X309380250Y5626902D02*
X309380250Y6081030D01*
%TO.C,R2*%
X310442500Y5626902D02*
X310442500Y6081030D01*
X311912500Y5626902D02*
X311912500Y6081030D01*
%TO.C,F1*%
X306503750Y7335436D02*
X306503750Y8539564D01*
X304683750Y7335436D02*
X304683750Y8539564D01*
%TO.C,D90*%
X362156250Y-107025000D02*
X362156250Y-103125000D01*
X360156250Y-107025000D02*
X360156250Y-103125000D01*
X362156250Y-107025000D02*
X360156250Y-107025000D01*
%TO.C,D89*%
X371681250Y-87975000D02*
X371681250Y-84075000D01*
X369681250Y-87975000D02*
X369681250Y-84075000D01*
X371681250Y-87975000D02*
X369681250Y-87975000D01*
%TO.C,D88*%
X371681250Y-68925000D02*
X371681250Y-65025000D01*
X369681250Y-68925000D02*
X369681250Y-65025000D01*
X371681250Y-68925000D02*
X369681250Y-68925000D01*
%TO.C,D87*%
X371681250Y-49875000D02*
X371681250Y-45975000D01*
X369681250Y-49875000D02*
X369681250Y-45975000D01*
X371681250Y-49875000D02*
X369681250Y-49875000D01*
%TO.C,D86*%
X371681250Y-30825000D02*
X371681250Y-26925000D01*
X369681250Y-30825000D02*
X369681250Y-26925000D01*
X371681250Y-30825000D02*
X369681250Y-30825000D01*
%TO.C,D85*%
X352631250Y-68925000D02*
X352631250Y-65025000D01*
X350631250Y-68925000D02*
X350631250Y-65025000D01*
X352631250Y-68925000D02*
X350631250Y-68925000D01*
%TO.C,D84*%
X352631250Y-49875000D02*
X352631250Y-45975000D01*
X350631250Y-49875000D02*
X350631250Y-45975000D01*
X352631250Y-49875000D02*
X350631250Y-49875000D01*
%TO.C,D83*%
X352631250Y-30825000D02*
X352631250Y-26925000D01*
X350631250Y-30825000D02*
X350631250Y-26925000D01*
X352631250Y-30825000D02*
X350631250Y-30825000D01*
%TO.C,D82*%
X333581250Y-107025000D02*
X333581250Y-103125000D01*
X331581250Y-107025000D02*
X331581250Y-103125000D01*
X333581250Y-107025000D02*
X331581250Y-107025000D01*
%TO.C,D81*%
X343900000Y-87975000D02*
X343900000Y-84075000D01*
X341900000Y-87975000D02*
X341900000Y-84075000D01*
X343900000Y-87975000D02*
X341900000Y-87975000D01*
%TO.C,D80*%
X333581250Y-68925000D02*
X333581250Y-65025000D01*
X331581250Y-68925000D02*
X331581250Y-65025000D01*
X333581250Y-68925000D02*
X331581250Y-68925000D01*
%TO.C,D79*%
X333581250Y-49875000D02*
X333581250Y-45975000D01*
X331581250Y-49875000D02*
X331581250Y-45975000D01*
X333581250Y-49875000D02*
X331581250Y-49875000D01*
%TO.C,D78*%
X333581250Y-30825000D02*
X333581250Y-26925000D01*
X331581250Y-30825000D02*
X331581250Y-26925000D01*
X333581250Y-30825000D02*
X331581250Y-30825000D01*
%TO.C,D77*%
X295481250Y-107025000D02*
X295481250Y-103125000D01*
X293481250Y-107025000D02*
X293481250Y-103125000D01*
X295481250Y-107025000D02*
X293481250Y-107025000D01*
%TO.C,D76*%
X305006250Y-87975000D02*
X305006250Y-84075000D01*
X303006250Y-87975000D02*
X303006250Y-84075000D01*
X305006250Y-87975000D02*
X303006250Y-87975000D01*
%TO.C,D75*%
X285956250Y-87975000D02*
X285956250Y-84075000D01*
X283956250Y-87975000D02*
X283956250Y-84075000D01*
X285956250Y-87975000D02*
X283956250Y-87975000D01*
%TO.C,D74*%
X295481250Y-68925000D02*
X295481250Y-65025000D01*
X293481250Y-68925000D02*
X293481250Y-65025000D01*
X295481250Y-68925000D02*
X293481250Y-68925000D01*
%TO.C,D73*%
X295481250Y-49875000D02*
X295481250Y-45975000D01*
X293481250Y-49875000D02*
X293481250Y-45975000D01*
X295481250Y-49875000D02*
X293481250Y-49875000D01*
%TO.C,D59*%
X250237500Y-107025000D02*
X250237500Y-103125000D01*
X248237500Y-107025000D02*
X248237500Y-103125000D01*
X250237500Y-107025000D02*
X248237500Y-107025000D01*
%TO.C,D64*%
X259762500Y-87975000D02*
X259762500Y-84075000D01*
X257762500Y-87975000D02*
X257762500Y-84075000D01*
X259762500Y-87975000D02*
X257762500Y-87975000D01*
%TO.C,D70*%
X276431250Y-59400000D02*
X276431250Y-55500000D01*
X274431250Y-59400000D02*
X274431250Y-55500000D01*
X276431250Y-59400000D02*
X274431250Y-59400000D01*
%TO.C,D72*%
X290718750Y-30825000D02*
X290718750Y-26925000D01*
X288718750Y-30825000D02*
X288718750Y-26925000D01*
X290718750Y-30825000D02*
X288718750Y-30825000D01*
%TO.C,D71*%
X295481250Y-11775000D02*
X295481250Y-7875000D01*
X293481250Y-11775000D02*
X293481250Y-7875000D01*
X295481250Y-11775000D02*
X293481250Y-11775000D01*
%TO.C,D53*%
X226425000Y-107025000D02*
X226425000Y-103125000D01*
X224425000Y-107025000D02*
X224425000Y-103125000D01*
X226425000Y-107025000D02*
X224425000Y-107025000D01*
%TO.C,D58*%
X233568750Y-87975000D02*
X233568750Y-84075000D01*
X231568750Y-87975000D02*
X231568750Y-84075000D01*
X233568750Y-87975000D02*
X231568750Y-87975000D01*
%TO.C,D63*%
X243093750Y-68925000D02*
X243093750Y-65025000D01*
X241093750Y-68925000D02*
X241093750Y-65025000D01*
X243093750Y-68925000D02*
X241093750Y-68925000D01*
%TO.C,D67*%
X257381250Y-59400000D02*
X257381250Y-55500000D01*
X255381250Y-59400000D02*
X255381250Y-55500000D01*
X257381250Y-59400000D02*
X255381250Y-59400000D01*
%TO.C,D69*%
X266906250Y-30825000D02*
X266906250Y-26925000D01*
X264906250Y-30825000D02*
X264906250Y-26925000D01*
X266906250Y-30825000D02*
X264906250Y-30825000D01*
%TO.C,D68*%
X266906250Y-11775000D02*
X266906250Y-7875000D01*
X264906250Y-11775000D02*
X264906250Y-7875000D01*
X266906250Y-11775000D02*
X264906250Y-11775000D01*
%TO.C,D52*%
X214518750Y-87975000D02*
X214518750Y-84075000D01*
X212518750Y-87975000D02*
X212518750Y-84075000D01*
X214518750Y-87975000D02*
X212518750Y-87975000D01*
%TO.C,D57*%
X224043750Y-68925000D02*
X224043750Y-65025000D01*
X222043750Y-68925000D02*
X222043750Y-65025000D01*
X224043750Y-68925000D02*
X222043750Y-68925000D01*
%TO.C,D62*%
X238331250Y-49875000D02*
X238331250Y-45975000D01*
X236331250Y-49875000D02*
X236331250Y-45975000D01*
X238331250Y-49875000D02*
X236331250Y-49875000D01*
%TO.C,D66*%
X247856250Y-30825000D02*
X247856250Y-26925000D01*
X245856250Y-30825000D02*
X245856250Y-26925000D01*
X247856250Y-30825000D02*
X245856250Y-30825000D01*
%TO.C,D65*%
X247856250Y-11775000D02*
X247856250Y-7875000D01*
X245856250Y-11775000D02*
X245856250Y-7875000D01*
X247856250Y-11775000D02*
X245856250Y-11775000D01*
%TO.C,D47*%
X195468750Y-87975000D02*
X195468750Y-84075000D01*
X193468750Y-87975000D02*
X193468750Y-84075000D01*
X195468750Y-87975000D02*
X193468750Y-87975000D01*
%TO.C,D51*%
X204993750Y-68925000D02*
X204993750Y-65025000D01*
X202993750Y-68925000D02*
X202993750Y-65025000D01*
X204993750Y-68925000D02*
X202993750Y-68925000D01*
%TO.C,D56*%
X219281250Y-49875000D02*
X219281250Y-45975000D01*
X217281250Y-49875000D02*
X217281250Y-45975000D01*
X219281250Y-49875000D02*
X217281250Y-49875000D01*
%TO.C,D61*%
X228806250Y-30825000D02*
X228806250Y-26925000D01*
X226806250Y-30825000D02*
X226806250Y-26925000D01*
X228806250Y-30825000D02*
X226806250Y-30825000D01*
%TO.C,D60*%
X228806250Y-11775000D02*
X228806250Y-7875000D01*
X226806250Y-11775000D02*
X226806250Y-7875000D01*
X228806250Y-11775000D02*
X226806250Y-11775000D01*
%TO.C,D42*%
X176418750Y-87975000D02*
X176418750Y-84075000D01*
X174418750Y-87975000D02*
X174418750Y-84075000D01*
X176418750Y-87975000D02*
X174418750Y-87975000D01*
%TO.C,D46*%
X185943750Y-68925000D02*
X185943750Y-65025000D01*
X183943750Y-68925000D02*
X183943750Y-65025000D01*
X185943750Y-68925000D02*
X183943750Y-68925000D01*
%TO.C,D50*%
X200231250Y-49875000D02*
X200231250Y-45975000D01*
X198231250Y-49875000D02*
X198231250Y-45975000D01*
X200231250Y-49875000D02*
X198231250Y-49875000D01*
%TO.C,D55*%
X209756250Y-30825000D02*
X209756250Y-26925000D01*
X207756250Y-30825000D02*
X207756250Y-26925000D01*
X209756250Y-30825000D02*
X207756250Y-30825000D01*
%TO.C,D54*%
X209756250Y-11775000D02*
X209756250Y-7875000D01*
X207756250Y-11775000D02*
X207756250Y-7875000D01*
X209756250Y-11775000D02*
X207756250Y-11775000D01*
%TO.C,D45*%
X181181250Y-49875000D02*
X181181250Y-45975000D01*
X179181250Y-49875000D02*
X179181250Y-45975000D01*
X181181250Y-49875000D02*
X179181250Y-49875000D01*
%TO.C,D49*%
X190706250Y-30825000D02*
X190706250Y-26925000D01*
X188706250Y-30825000D02*
X188706250Y-26925000D01*
X190706250Y-30825000D02*
X188706250Y-30825000D01*
%TO.C,D48*%
X190706250Y-11775000D02*
X190706250Y-7875000D01*
X188706250Y-11775000D02*
X188706250Y-7875000D01*
X190706250Y-11775000D02*
X188706250Y-11775000D01*
%TO.C,D44*%
X171656250Y-30825000D02*
X171656250Y-26925000D01*
X169656250Y-30825000D02*
X169656250Y-26925000D01*
X171656250Y-30825000D02*
X169656250Y-30825000D01*
%TO.C,D43*%
X171656250Y-11775000D02*
X171656250Y-7875000D01*
X169656250Y-11775000D02*
X169656250Y-7875000D01*
X171656250Y-11775000D02*
X169656250Y-11775000D01*
%TO.C,D41*%
X166893750Y-68987500D02*
X166893750Y-65087500D01*
X164893750Y-68987500D02*
X164893750Y-65087500D01*
X166893750Y-68987500D02*
X164893750Y-68987500D01*
%TO.C,D40*%
X162131250Y-49875000D02*
X162131250Y-45975000D01*
X160131250Y-49875000D02*
X160131250Y-45975000D01*
X162131250Y-49875000D02*
X160131250Y-49875000D01*
%TO.C,D39*%
X152606250Y-30825000D02*
X152606250Y-26925000D01*
X150606250Y-30825000D02*
X150606250Y-26925000D01*
X152606250Y-30825000D02*
X150606250Y-30825000D01*
%TO.C,D38*%
X143081250Y-11775000D02*
X143081250Y-7875000D01*
X141081250Y-11775000D02*
X141081250Y-7875000D01*
X143081250Y-11775000D02*
X141081250Y-11775000D01*
%TO.C,D37*%
X157368750Y-87975000D02*
X157368750Y-84075000D01*
X155368750Y-87975000D02*
X155368750Y-84075000D01*
X157368750Y-87975000D02*
X155368750Y-87975000D01*
%TO.C,D36*%
X147843750Y-68925000D02*
X147843750Y-65025000D01*
X145843750Y-68925000D02*
X145843750Y-65025000D01*
X147843750Y-68925000D02*
X145843750Y-68925000D01*
%TO.C,D35*%
X143081250Y-49875000D02*
X143081250Y-45975000D01*
X141081250Y-49875000D02*
X141081250Y-45975000D01*
X143081250Y-49875000D02*
X141081250Y-49875000D01*
%TO.C,D34*%
X133556250Y-30825000D02*
X133556250Y-26925000D01*
X131556250Y-30825000D02*
X131556250Y-26925000D01*
X133556250Y-30825000D02*
X131556250Y-30825000D01*
%TO.C,D33*%
X124031250Y-11775000D02*
X124031250Y-7875000D01*
X122031250Y-11775000D02*
X122031250Y-7875000D01*
X124031250Y-11775000D02*
X122031250Y-11775000D01*
%TO.C,D32*%
X148637500Y-107025000D02*
X148637500Y-103125000D01*
X146637500Y-107025000D02*
X146637500Y-103125000D01*
X148637500Y-107025000D02*
X146637500Y-107025000D01*
%TO.C,D31*%
X138318750Y-87975000D02*
X138318750Y-84075000D01*
X136318750Y-87975000D02*
X136318750Y-84075000D01*
X138318750Y-87975000D02*
X136318750Y-87975000D01*
%TO.C,D30*%
X128793750Y-68925000D02*
X128793750Y-65025000D01*
X126793750Y-68925000D02*
X126793750Y-65025000D01*
X128793750Y-68925000D02*
X126793750Y-68925000D01*
%TO.C,D29*%
X124031250Y-49875000D02*
X124031250Y-45975000D01*
X122031250Y-49875000D02*
X122031250Y-45975000D01*
X124031250Y-49875000D02*
X122031250Y-49875000D01*
%TO.C,D28*%
X114506250Y-30825000D02*
X114506250Y-26925000D01*
X112506250Y-30825000D02*
X112506250Y-26925000D01*
X114506250Y-30825000D02*
X112506250Y-30825000D01*
%TO.C,D27*%
X104981250Y-11775000D02*
X104981250Y-7875000D01*
X102981250Y-11775000D02*
X102981250Y-7875000D01*
X104981250Y-11775000D02*
X102981250Y-11775000D01*
%TO.C,D26*%
X119268750Y-87975000D02*
X119268750Y-84075000D01*
X117268750Y-87975000D02*
X117268750Y-84075000D01*
X119268750Y-87975000D02*
X117268750Y-87975000D01*
%TO.C,D25*%
X109743750Y-68925000D02*
X109743750Y-65025000D01*
X107743750Y-68925000D02*
X107743750Y-65025000D01*
X109743750Y-68925000D02*
X107743750Y-68925000D01*
%TO.C,D24*%
X104981250Y-49875000D02*
X104981250Y-45975000D01*
X102981250Y-49875000D02*
X102981250Y-45975000D01*
X104981250Y-49875000D02*
X102981250Y-49875000D01*
%TO.C,D23*%
X95456250Y-30825000D02*
X95456250Y-26925000D01*
X93456250Y-30825000D02*
X93456250Y-26925000D01*
X95456250Y-30825000D02*
X93456250Y-30825000D01*
%TO.C,D22*%
X85931250Y-11775000D02*
X85931250Y-7875000D01*
X83931250Y-11775000D02*
X83931250Y-7875000D01*
X85931250Y-11775000D02*
X83931250Y-11775000D01*
%TO.C,D21*%
X100218750Y-87975000D02*
X100218750Y-84075000D01*
X98218750Y-87975000D02*
X98218750Y-84075000D01*
X100218750Y-87975000D02*
X98218750Y-87975000D01*
%TO.C,D20*%
X90693750Y-68925000D02*
X90693750Y-65025000D01*
X88693750Y-68925000D02*
X88693750Y-65025000D01*
X90693750Y-68925000D02*
X88693750Y-68925000D01*
%TO.C,D19*%
X85931250Y-49875000D02*
X85931250Y-45975000D01*
X83931250Y-49875000D02*
X83931250Y-45975000D01*
X85931250Y-49875000D02*
X83931250Y-49875000D01*
%TO.C,D18*%
X76406250Y-30825000D02*
X76406250Y-26925000D01*
X74406250Y-30825000D02*
X74406250Y-26925000D01*
X76406250Y-30825000D02*
X74406250Y-30825000D01*
%TO.C,D17*%
X66881250Y-11775000D02*
X66881250Y-7875000D01*
X64881250Y-11775000D02*
X64881250Y-7875000D01*
X66881250Y-11775000D02*
X64881250Y-11775000D01*
%TO.C,D16*%
X81168750Y-87975000D02*
X81168750Y-84075000D01*
X79168750Y-87975000D02*
X79168750Y-84075000D01*
X81168750Y-87975000D02*
X79168750Y-87975000D01*
%TO.C,D15*%
X71643750Y-68925000D02*
X71643750Y-65025000D01*
X69643750Y-68925000D02*
X69643750Y-65025000D01*
X71643750Y-68925000D02*
X69643750Y-68925000D01*
%TO.C,D14*%
X66881250Y-49875000D02*
X66881250Y-45975000D01*
X64881250Y-49875000D02*
X64881250Y-45975000D01*
X66881250Y-49875000D02*
X64881250Y-49875000D01*
%TO.C,D13*%
X57356250Y-30825000D02*
X57356250Y-26925000D01*
X55356250Y-30825000D02*
X55356250Y-26925000D01*
X57356250Y-30825000D02*
X55356250Y-30825000D01*
%TO.C,D12*%
X47831250Y-11775000D02*
X47831250Y-7875000D01*
X45831250Y-11775000D02*
X45831250Y-7875000D01*
X47831250Y-11775000D02*
X45831250Y-11775000D01*
%TO.C,D11*%
X69262500Y-107025000D02*
X69262500Y-103125000D01*
X67262500Y-107025000D02*
X67262500Y-103125000D01*
X69262500Y-107025000D02*
X67262500Y-107025000D01*
%TO.C,D10*%
X62118750Y-87975000D02*
X62118750Y-84075000D01*
X60118750Y-87975000D02*
X60118750Y-84075000D01*
X62118750Y-87975000D02*
X60118750Y-87975000D01*
%TO.C,D9*%
X52593750Y-68925000D02*
X52593750Y-65025000D01*
X50593750Y-68925000D02*
X50593750Y-65025000D01*
X52593750Y-68925000D02*
X50593750Y-68925000D01*
%TO.C,D8*%
X47831250Y-49875000D02*
X47831250Y-45975000D01*
X45831250Y-49875000D02*
X45831250Y-45975000D01*
X47831250Y-49875000D02*
X45831250Y-49875000D01*
%TO.C,D7*%
X38306250Y-30825000D02*
X38306250Y-26925000D01*
X36306250Y-30825000D02*
X36306250Y-26925000D01*
X38306250Y-30825000D02*
X36306250Y-30825000D01*
%TO.C,D6*%
X45450000Y-107025000D02*
X45450000Y-103125000D01*
X43450000Y-107025000D02*
X43450000Y-103125000D01*
X45450000Y-107025000D02*
X43450000Y-107025000D01*
%TO.C,D5*%
X31162500Y-87975000D02*
X31162500Y-84075000D01*
X29162500Y-87975000D02*
X29162500Y-84075000D01*
X31162500Y-87975000D02*
X29162500Y-87975000D01*
%TO.C,D4*%
X26400000Y-68925000D02*
X26400000Y-65025000D01*
X24400000Y-68925000D02*
X24400000Y-65025000D01*
X26400000Y-68925000D02*
X24400000Y-68925000D01*
%TO.C,D3*%
X24018750Y-49875000D02*
X24018750Y-45975000D01*
X22018750Y-49875000D02*
X22018750Y-45975000D01*
X24018750Y-49875000D02*
X22018750Y-49875000D01*
%TO.C,D2*%
X19256250Y-30825000D02*
X19256250Y-26925000D01*
X17256250Y-30825000D02*
X17256250Y-26925000D01*
X19256250Y-30825000D02*
X17256250Y-30825000D01*
%TO.C,D1*%
X19256250Y-11775000D02*
X19256250Y-7875000D01*
X17256250Y-11775000D02*
X17256250Y-7875000D01*
X19256250Y-11775000D02*
X17256250Y-11775000D01*
%TO.C,C8*%
X304902502Y3233750D02*
X304379998Y3233750D01*
X304902502Y4703750D02*
X304379998Y4703750D01*
%TO.C,C7*%
X302477500Y-1167498D02*
X302477500Y-1690002D01*
X303947500Y-1167498D02*
X303947500Y-1690002D01*
%TO.C,C6*%
X302477500Y-10072002D02*
X302477500Y-9549498D01*
X303947500Y-10072002D02*
X303947500Y-9549498D01*
%TO.C,C5*%
X315936998Y-13647750D02*
X316459502Y-13647750D01*
X315936998Y-15117750D02*
X316459502Y-15117750D01*
%TO.C,C4*%
X315622000Y5580748D02*
X315622000Y6103252D01*
X317092000Y5580748D02*
X317092000Y6103252D01*
%TO.C,C3*%
X326763748Y-4535500D02*
X327286252Y-4535500D01*
X326763748Y-6005500D02*
X327286252Y-6005500D01*
%TO.C,C2*%
X327286252Y-8164500D02*
X326763748Y-8164500D01*
X327286252Y-6694500D02*
X326763748Y-6694500D01*
%TO.C,C1*%
X313463000Y5580748D02*
X313463000Y6103252D01*
X314933000Y5580748D02*
X314933000Y6103252D01*
%TO.C,J1*%
D11*
X310273531Y14270119D02*
X310273531Y13555833D01*
X310321150Y13412976D01*
X310416388Y13317738D01*
X310559245Y13270119D01*
X310654483Y13270119D01*
X309273531Y13270119D02*
X309844959Y13270119D01*
X309559245Y13270119D02*
X309559245Y14270119D01*
X309654483Y14127261D01*
X309749721Y14032023D01*
X309844959Y13984404D01*
%TO.C,R1*%
X322429166Y1135119D02*
X322762500Y1611309D01*
X323000595Y1135119D02*
X323000595Y2135119D01*
X322619642Y2135119D01*
X322524404Y2087500D01*
X322476785Y2039880D01*
X322429166Y1944642D01*
X322429166Y1801785D01*
X322476785Y1706547D01*
X322524404Y1658928D01*
X322619642Y1611309D01*
X323000595Y1611309D01*
X321476785Y1135119D02*
X322048214Y1135119D01*
X321762500Y1135119D02*
X321762500Y2135119D01*
X321857738Y1992261D01*
X321952976Y1897023D01*
X322048214Y1849404D01*
%TO.C,U2*%
X311778880Y11048904D02*
X312588404Y11048904D01*
X312683642Y11001285D01*
X312731261Y10953666D01*
X312778880Y10858428D01*
X312778880Y10667952D01*
X312731261Y10572714D01*
X312683642Y10525095D01*
X312588404Y10477476D01*
X311778880Y10477476D01*
X311874119Y10048904D02*
X311826500Y10001285D01*
X311778880Y9906047D01*
X311778880Y9667952D01*
X311826500Y9572714D01*
X311874119Y9525095D01*
X311969357Y9477476D01*
X312064595Y9477476D01*
X312207452Y9525095D01*
X312778880Y10096523D01*
X312778880Y9477476D01*
%TO.C,Y1*%
X323691190Y-3214690D02*
X323691190Y-3690880D01*
X324024523Y-2690880D02*
X323691190Y-3214690D01*
X323357857Y-2690880D01*
X322500714Y-3690880D02*
X323072142Y-3690880D01*
X322786428Y-3690880D02*
X322786428Y-2690880D01*
X322881666Y-2833738D01*
X322976904Y-2928976D01*
X323072142Y-2976595D01*
%TO.C,U1*%
X305255654Y-5008630D02*
X305255654Y-5818154D01*
X305208035Y-5913392D01*
X305160416Y-5961011D01*
X305065178Y-6008630D01*
X304874702Y-6008630D01*
X304779464Y-5961011D01*
X304731845Y-5913392D01*
X304684226Y-5818154D01*
X304684226Y-5008630D01*
X303684226Y-6008630D02*
X304255654Y-6008630D01*
X303969940Y-6008630D02*
X303969940Y-5008630D01*
X304065178Y-5151488D01*
X304160416Y-5246726D01*
X304255654Y-5294345D01*
%TO.C,SW1*%
X328358333Y7532738D02*
X328215476Y7485119D01*
X327977380Y7485119D01*
X327882142Y7532738D01*
X327834523Y7580357D01*
X327786904Y7675595D01*
X327786904Y7770833D01*
X327834523Y7866071D01*
X327882142Y7913690D01*
X327977380Y7961309D01*
X328167857Y8008928D01*
X328263095Y8056547D01*
X328310714Y8104166D01*
X328358333Y8199404D01*
X328358333Y8294642D01*
X328310714Y8389880D01*
X328263095Y8437500D01*
X328167857Y8485119D01*
X327929761Y8485119D01*
X327786904Y8437500D01*
X327453571Y8485119D02*
X327215476Y7485119D01*
X327025000Y8199404D01*
X326834523Y7485119D01*
X326596428Y8485119D01*
X325691666Y7485119D02*
X326263095Y7485119D01*
X325977380Y7485119D02*
X325977380Y8485119D01*
X326072619Y8342261D01*
X326167857Y8247023D01*
X326263095Y8199404D01*
%TO.C,R6*%
X302902916Y11834869D02*
X303236250Y12311059D01*
X303474345Y11834869D02*
X303474345Y12834869D01*
X303093392Y12834869D01*
X302998154Y12787250D01*
X302950535Y12739630D01*
X302902916Y12644392D01*
X302902916Y12501535D01*
X302950535Y12406297D01*
X302998154Y12358678D01*
X303093392Y12311059D01*
X303474345Y12311059D01*
X302045773Y12834869D02*
X302236250Y12834869D01*
X302331488Y12787250D01*
X302379107Y12739630D01*
X302474345Y12596773D01*
X302521964Y12406297D01*
X302521964Y12025345D01*
X302474345Y11930107D01*
X302426726Y11882488D01*
X302331488Y11834869D01*
X302141011Y11834869D01*
X302045773Y11882488D01*
X301998154Y11930107D01*
X301950535Y12025345D01*
X301950535Y12263440D01*
X301998154Y12358678D01*
X302045773Y12406297D01*
X302141011Y12453916D01*
X302331488Y12453916D01*
X302426726Y12406297D01*
X302474345Y12358678D01*
X302521964Y12263440D01*
%TO.C,R5*%
X317380916Y11707869D02*
X317714250Y12184059D01*
X317952345Y11707869D02*
X317952345Y12707869D01*
X317571392Y12707869D01*
X317476154Y12660250D01*
X317428535Y12612630D01*
X317380916Y12517392D01*
X317380916Y12374535D01*
X317428535Y12279297D01*
X317476154Y12231678D01*
X317571392Y12184059D01*
X317952345Y12184059D01*
X316476154Y12707869D02*
X316952345Y12707869D01*
X316999964Y12231678D01*
X316952345Y12279297D01*
X316857107Y12326916D01*
X316619011Y12326916D01*
X316523773Y12279297D01*
X316476154Y12231678D01*
X316428535Y12136440D01*
X316428535Y11898345D01*
X316476154Y11803107D01*
X316523773Y11755488D01*
X316619011Y11707869D01*
X316857107Y11707869D01*
X316952345Y11755488D01*
X316999964Y11803107D01*
%TO.C,R4*%
X300616916Y-15724130D02*
X300950250Y-15247940D01*
X301188345Y-15724130D02*
X301188345Y-14724130D01*
X300807392Y-14724130D01*
X300712154Y-14771750D01*
X300664535Y-14819369D01*
X300616916Y-14914607D01*
X300616916Y-15057464D01*
X300664535Y-15152702D01*
X300712154Y-15200321D01*
X300807392Y-15247940D01*
X301188345Y-15247940D01*
X299759773Y-15057464D02*
X299759773Y-15724130D01*
X299997869Y-14676511D02*
X300235964Y-15390797D01*
X299616916Y-15390797D01*
%TO.C,R3*%
X309126130Y8769916D02*
X308649940Y9103250D01*
X309126130Y9341345D02*
X308126130Y9341345D01*
X308126130Y8960392D01*
X308173750Y8865154D01*
X308221369Y8817535D01*
X308316607Y8769916D01*
X308459464Y8769916D01*
X308554702Y8817535D01*
X308602321Y8865154D01*
X308649940Y8960392D01*
X308649940Y9341345D01*
X308126130Y8436583D02*
X308126130Y7817535D01*
X308507083Y8150869D01*
X308507083Y8008011D01*
X308554702Y7912773D01*
X308602321Y7865154D01*
X308697559Y7817535D01*
X308935654Y7817535D01*
X309030892Y7865154D01*
X309078511Y7912773D01*
X309126130Y8008011D01*
X309126130Y8293726D01*
X309078511Y8388964D01*
X309030892Y8436583D01*
%TO.C,R2*%
X311602380Y8769916D02*
X311126190Y9103250D01*
X311602380Y9341345D02*
X310602380Y9341345D01*
X310602380Y8960392D01*
X310650000Y8865154D01*
X310697619Y8817535D01*
X310792857Y8769916D01*
X310935714Y8769916D01*
X311030952Y8817535D01*
X311078571Y8865154D01*
X311126190Y8960392D01*
X311126190Y9341345D01*
X310697619Y8388964D02*
X310650000Y8341345D01*
X310602380Y8246107D01*
X310602380Y8008011D01*
X310650000Y7912773D01*
X310697619Y7865154D01*
X310792857Y7817535D01*
X310888095Y7817535D01*
X311030952Y7865154D01*
X311602380Y8436583D01*
X311602380Y7817535D01*
%TO.C,F1*%
X307109821Y8208333D02*
X307109821Y8541666D01*
X307633630Y8541666D02*
X306633630Y8541666D01*
X306633630Y8065476D01*
X307633630Y7160714D02*
X307633630Y7732142D01*
X307633630Y7446428D02*
X306633630Y7446428D01*
X306776488Y7541666D01*
X306871726Y7636904D01*
X306919345Y7732142D01*
%TO.C,D90*%
X363608630Y-103560714D02*
X362608630Y-103560714D01*
X362608630Y-103798809D01*
X362656250Y-103941666D01*
X362751488Y-104036904D01*
X362846726Y-104084523D01*
X363037202Y-104132142D01*
X363180059Y-104132142D01*
X363370535Y-104084523D01*
X363465773Y-104036904D01*
X363561011Y-103941666D01*
X363608630Y-103798809D01*
X363608630Y-103560714D01*
X363608630Y-104608333D02*
X363608630Y-104798809D01*
X363561011Y-104894047D01*
X363513392Y-104941666D01*
X363370535Y-105036904D01*
X363180059Y-105084523D01*
X362799107Y-105084523D01*
X362703869Y-105036904D01*
X362656250Y-104989285D01*
X362608630Y-104894047D01*
X362608630Y-104703571D01*
X362656250Y-104608333D01*
X362703869Y-104560714D01*
X362799107Y-104513095D01*
X363037202Y-104513095D01*
X363132440Y-104560714D01*
X363180059Y-104608333D01*
X363227678Y-104703571D01*
X363227678Y-104894047D01*
X363180059Y-104989285D01*
X363132440Y-105036904D01*
X363037202Y-105084523D01*
X362608630Y-105703571D02*
X362608630Y-105798809D01*
X362656250Y-105894047D01*
X362703869Y-105941666D01*
X362799107Y-105989285D01*
X362989583Y-106036904D01*
X363227678Y-106036904D01*
X363418154Y-105989285D01*
X363513392Y-105941666D01*
X363561011Y-105894047D01*
X363608630Y-105798809D01*
X363608630Y-105703571D01*
X363561011Y-105608333D01*
X363513392Y-105560714D01*
X363418154Y-105513095D01*
X363227678Y-105465476D01*
X362989583Y-105465476D01*
X362799107Y-105513095D01*
X362703869Y-105560714D01*
X362656250Y-105608333D01*
X362608630Y-105703571D01*
%TO.C,D89*%
X371895535Y-83002380D02*
X371895535Y-82002380D01*
X371657440Y-82002380D01*
X371514583Y-82050000D01*
X371419345Y-82145238D01*
X371371726Y-82240476D01*
X371324107Y-82430952D01*
X371324107Y-82573809D01*
X371371726Y-82764285D01*
X371419345Y-82859523D01*
X371514583Y-82954761D01*
X371657440Y-83002380D01*
X371895535Y-83002380D01*
X370752678Y-82430952D02*
X370847916Y-82383333D01*
X370895535Y-82335714D01*
X370943154Y-82240476D01*
X370943154Y-82192857D01*
X370895535Y-82097619D01*
X370847916Y-82050000D01*
X370752678Y-82002380D01*
X370562202Y-82002380D01*
X370466964Y-82050000D01*
X370419345Y-82097619D01*
X370371726Y-82192857D01*
X370371726Y-82240476D01*
X370419345Y-82335714D01*
X370466964Y-82383333D01*
X370562202Y-82430952D01*
X370752678Y-82430952D01*
X370847916Y-82478571D01*
X370895535Y-82526190D01*
X370943154Y-82621428D01*
X370943154Y-82811904D01*
X370895535Y-82907142D01*
X370847916Y-82954761D01*
X370752678Y-83002380D01*
X370562202Y-83002380D01*
X370466964Y-82954761D01*
X370419345Y-82907142D01*
X370371726Y-82811904D01*
X370371726Y-82621428D01*
X370419345Y-82526190D01*
X370466964Y-82478571D01*
X370562202Y-82430952D01*
X369895535Y-83002380D02*
X369705059Y-83002380D01*
X369609821Y-82954761D01*
X369562202Y-82907142D01*
X369466964Y-82764285D01*
X369419345Y-82573809D01*
X369419345Y-82192857D01*
X369466964Y-82097619D01*
X369514583Y-82050000D01*
X369609821Y-82002380D01*
X369800297Y-82002380D01*
X369895535Y-82050000D01*
X369943154Y-82097619D01*
X369990773Y-82192857D01*
X369990773Y-82430952D01*
X369943154Y-82526190D01*
X369895535Y-82573809D01*
X369800297Y-82621428D01*
X369609821Y-82621428D01*
X369514583Y-82573809D01*
X369466964Y-82526190D01*
X369419345Y-82430952D01*
%TO.C,D88*%
X371895535Y-63952380D02*
X371895535Y-62952380D01*
X371657440Y-62952380D01*
X371514583Y-63000000D01*
X371419345Y-63095238D01*
X371371726Y-63190476D01*
X371324107Y-63380952D01*
X371324107Y-63523809D01*
X371371726Y-63714285D01*
X371419345Y-63809523D01*
X371514583Y-63904761D01*
X371657440Y-63952380D01*
X371895535Y-63952380D01*
X370752678Y-63380952D02*
X370847916Y-63333333D01*
X370895535Y-63285714D01*
X370943154Y-63190476D01*
X370943154Y-63142857D01*
X370895535Y-63047619D01*
X370847916Y-63000000D01*
X370752678Y-62952380D01*
X370562202Y-62952380D01*
X370466964Y-63000000D01*
X370419345Y-63047619D01*
X370371726Y-63142857D01*
X370371726Y-63190476D01*
X370419345Y-63285714D01*
X370466964Y-63333333D01*
X370562202Y-63380952D01*
X370752678Y-63380952D01*
X370847916Y-63428571D01*
X370895535Y-63476190D01*
X370943154Y-63571428D01*
X370943154Y-63761904D01*
X370895535Y-63857142D01*
X370847916Y-63904761D01*
X370752678Y-63952380D01*
X370562202Y-63952380D01*
X370466964Y-63904761D01*
X370419345Y-63857142D01*
X370371726Y-63761904D01*
X370371726Y-63571428D01*
X370419345Y-63476190D01*
X370466964Y-63428571D01*
X370562202Y-63380952D01*
X369800297Y-63380952D02*
X369895535Y-63333333D01*
X369943154Y-63285714D01*
X369990773Y-63190476D01*
X369990773Y-63142857D01*
X369943154Y-63047619D01*
X369895535Y-63000000D01*
X369800297Y-62952380D01*
X369609821Y-62952380D01*
X369514583Y-63000000D01*
X369466964Y-63047619D01*
X369419345Y-63142857D01*
X369419345Y-63190476D01*
X369466964Y-63285714D01*
X369514583Y-63333333D01*
X369609821Y-63380952D01*
X369800297Y-63380952D01*
X369895535Y-63428571D01*
X369943154Y-63476190D01*
X369990773Y-63571428D01*
X369990773Y-63761904D01*
X369943154Y-63857142D01*
X369895535Y-63904761D01*
X369800297Y-63952380D01*
X369609821Y-63952380D01*
X369514583Y-63904761D01*
X369466964Y-63857142D01*
X369419345Y-63761904D01*
X369419345Y-63571428D01*
X369466964Y-63476190D01*
X369514583Y-63428571D01*
X369609821Y-63380952D01*
%TO.C,D87*%
X371895535Y-44902380D02*
X371895535Y-43902380D01*
X371657440Y-43902380D01*
X371514583Y-43950000D01*
X371419345Y-44045238D01*
X371371726Y-44140476D01*
X371324107Y-44330952D01*
X371324107Y-44473809D01*
X371371726Y-44664285D01*
X371419345Y-44759523D01*
X371514583Y-44854761D01*
X371657440Y-44902380D01*
X371895535Y-44902380D01*
X370752678Y-44330952D02*
X370847916Y-44283333D01*
X370895535Y-44235714D01*
X370943154Y-44140476D01*
X370943154Y-44092857D01*
X370895535Y-43997619D01*
X370847916Y-43950000D01*
X370752678Y-43902380D01*
X370562202Y-43902380D01*
X370466964Y-43950000D01*
X370419345Y-43997619D01*
X370371726Y-44092857D01*
X370371726Y-44140476D01*
X370419345Y-44235714D01*
X370466964Y-44283333D01*
X370562202Y-44330952D01*
X370752678Y-44330952D01*
X370847916Y-44378571D01*
X370895535Y-44426190D01*
X370943154Y-44521428D01*
X370943154Y-44711904D01*
X370895535Y-44807142D01*
X370847916Y-44854761D01*
X370752678Y-44902380D01*
X370562202Y-44902380D01*
X370466964Y-44854761D01*
X370419345Y-44807142D01*
X370371726Y-44711904D01*
X370371726Y-44521428D01*
X370419345Y-44426190D01*
X370466964Y-44378571D01*
X370562202Y-44330952D01*
X370038392Y-43902380D02*
X369371726Y-43902380D01*
X369800297Y-44902380D01*
%TO.C,D86*%
X371895535Y-25852380D02*
X371895535Y-24852380D01*
X371657440Y-24852380D01*
X371514583Y-24900000D01*
X371419345Y-24995238D01*
X371371726Y-25090476D01*
X371324107Y-25280952D01*
X371324107Y-25423809D01*
X371371726Y-25614285D01*
X371419345Y-25709523D01*
X371514583Y-25804761D01*
X371657440Y-25852380D01*
X371895535Y-25852380D01*
X370752678Y-25280952D02*
X370847916Y-25233333D01*
X370895535Y-25185714D01*
X370943154Y-25090476D01*
X370943154Y-25042857D01*
X370895535Y-24947619D01*
X370847916Y-24900000D01*
X370752678Y-24852380D01*
X370562202Y-24852380D01*
X370466964Y-24900000D01*
X370419345Y-24947619D01*
X370371726Y-25042857D01*
X370371726Y-25090476D01*
X370419345Y-25185714D01*
X370466964Y-25233333D01*
X370562202Y-25280952D01*
X370752678Y-25280952D01*
X370847916Y-25328571D01*
X370895535Y-25376190D01*
X370943154Y-25471428D01*
X370943154Y-25661904D01*
X370895535Y-25757142D01*
X370847916Y-25804761D01*
X370752678Y-25852380D01*
X370562202Y-25852380D01*
X370466964Y-25804761D01*
X370419345Y-25757142D01*
X370371726Y-25661904D01*
X370371726Y-25471428D01*
X370419345Y-25376190D01*
X370466964Y-25328571D01*
X370562202Y-25280952D01*
X369514583Y-24852380D02*
X369705059Y-24852380D01*
X369800297Y-24900000D01*
X369847916Y-24947619D01*
X369943154Y-25090476D01*
X369990773Y-25280952D01*
X369990773Y-25661904D01*
X369943154Y-25757142D01*
X369895535Y-25804761D01*
X369800297Y-25852380D01*
X369609821Y-25852380D01*
X369514583Y-25804761D01*
X369466964Y-25757142D01*
X369419345Y-25661904D01*
X369419345Y-25423809D01*
X369466964Y-25328571D01*
X369514583Y-25280952D01*
X369609821Y-25233333D01*
X369800297Y-25233333D01*
X369895535Y-25280952D01*
X369943154Y-25328571D01*
X369990773Y-25423809D01*
%TO.C,D85*%
X354083630Y-65460714D02*
X353083630Y-65460714D01*
X353083630Y-65698809D01*
X353131250Y-65841666D01*
X353226488Y-65936904D01*
X353321726Y-65984523D01*
X353512202Y-66032142D01*
X353655059Y-66032142D01*
X353845535Y-65984523D01*
X353940773Y-65936904D01*
X354036011Y-65841666D01*
X354083630Y-65698809D01*
X354083630Y-65460714D01*
X353512202Y-66603571D02*
X353464583Y-66508333D01*
X353416964Y-66460714D01*
X353321726Y-66413095D01*
X353274107Y-66413095D01*
X353178869Y-66460714D01*
X353131250Y-66508333D01*
X353083630Y-66603571D01*
X353083630Y-66794047D01*
X353131250Y-66889285D01*
X353178869Y-66936904D01*
X353274107Y-66984523D01*
X353321726Y-66984523D01*
X353416964Y-66936904D01*
X353464583Y-66889285D01*
X353512202Y-66794047D01*
X353512202Y-66603571D01*
X353559821Y-66508333D01*
X353607440Y-66460714D01*
X353702678Y-66413095D01*
X353893154Y-66413095D01*
X353988392Y-66460714D01*
X354036011Y-66508333D01*
X354083630Y-66603571D01*
X354083630Y-66794047D01*
X354036011Y-66889285D01*
X353988392Y-66936904D01*
X353893154Y-66984523D01*
X353702678Y-66984523D01*
X353607440Y-66936904D01*
X353559821Y-66889285D01*
X353512202Y-66794047D01*
X353083630Y-67889285D02*
X353083630Y-67413095D01*
X353559821Y-67365476D01*
X353512202Y-67413095D01*
X353464583Y-67508333D01*
X353464583Y-67746428D01*
X353512202Y-67841666D01*
X353559821Y-67889285D01*
X353655059Y-67936904D01*
X353893154Y-67936904D01*
X353988392Y-67889285D01*
X354036011Y-67841666D01*
X354083630Y-67746428D01*
X354083630Y-67508333D01*
X354036011Y-67413095D01*
X353988392Y-67365476D01*
%TO.C,D84*%
X354083630Y-46410714D02*
X353083630Y-46410714D01*
X353083630Y-46648809D01*
X353131250Y-46791666D01*
X353226488Y-46886904D01*
X353321726Y-46934523D01*
X353512202Y-46982142D01*
X353655059Y-46982142D01*
X353845535Y-46934523D01*
X353940773Y-46886904D01*
X354036011Y-46791666D01*
X354083630Y-46648809D01*
X354083630Y-46410714D01*
X353512202Y-47553571D02*
X353464583Y-47458333D01*
X353416964Y-47410714D01*
X353321726Y-47363095D01*
X353274107Y-47363095D01*
X353178869Y-47410714D01*
X353131250Y-47458333D01*
X353083630Y-47553571D01*
X353083630Y-47744047D01*
X353131250Y-47839285D01*
X353178869Y-47886904D01*
X353274107Y-47934523D01*
X353321726Y-47934523D01*
X353416964Y-47886904D01*
X353464583Y-47839285D01*
X353512202Y-47744047D01*
X353512202Y-47553571D01*
X353559821Y-47458333D01*
X353607440Y-47410714D01*
X353702678Y-47363095D01*
X353893154Y-47363095D01*
X353988392Y-47410714D01*
X354036011Y-47458333D01*
X354083630Y-47553571D01*
X354083630Y-47744047D01*
X354036011Y-47839285D01*
X353988392Y-47886904D01*
X353893154Y-47934523D01*
X353702678Y-47934523D01*
X353607440Y-47886904D01*
X353559821Y-47839285D01*
X353512202Y-47744047D01*
X353416964Y-48791666D02*
X354083630Y-48791666D01*
X353036011Y-48553571D02*
X353750297Y-48315476D01*
X353750297Y-48934523D01*
%TO.C,D83*%
X354083630Y-27360714D02*
X353083630Y-27360714D01*
X353083630Y-27598809D01*
X353131250Y-27741666D01*
X353226488Y-27836904D01*
X353321726Y-27884523D01*
X353512202Y-27932142D01*
X353655059Y-27932142D01*
X353845535Y-27884523D01*
X353940773Y-27836904D01*
X354036011Y-27741666D01*
X354083630Y-27598809D01*
X354083630Y-27360714D01*
X353512202Y-28503571D02*
X353464583Y-28408333D01*
X353416964Y-28360714D01*
X353321726Y-28313095D01*
X353274107Y-28313095D01*
X353178869Y-28360714D01*
X353131250Y-28408333D01*
X353083630Y-28503571D01*
X353083630Y-28694047D01*
X353131250Y-28789285D01*
X353178869Y-28836904D01*
X353274107Y-28884523D01*
X353321726Y-28884523D01*
X353416964Y-28836904D01*
X353464583Y-28789285D01*
X353512202Y-28694047D01*
X353512202Y-28503571D01*
X353559821Y-28408333D01*
X353607440Y-28360714D01*
X353702678Y-28313095D01*
X353893154Y-28313095D01*
X353988392Y-28360714D01*
X354036011Y-28408333D01*
X354083630Y-28503571D01*
X354083630Y-28694047D01*
X354036011Y-28789285D01*
X353988392Y-28836904D01*
X353893154Y-28884523D01*
X353702678Y-28884523D01*
X353607440Y-28836904D01*
X353559821Y-28789285D01*
X353512202Y-28694047D01*
X353083630Y-29217857D02*
X353083630Y-29836904D01*
X353464583Y-29503571D01*
X353464583Y-29646428D01*
X353512202Y-29741666D01*
X353559821Y-29789285D01*
X353655059Y-29836904D01*
X353893154Y-29836904D01*
X353988392Y-29789285D01*
X354036011Y-29741666D01*
X354083630Y-29646428D01*
X354083630Y-29360714D01*
X354036011Y-29265476D01*
X353988392Y-29217857D01*
%TO.C,D82*%
X335033630Y-103560714D02*
X334033630Y-103560714D01*
X334033630Y-103798809D01*
X334081250Y-103941666D01*
X334176488Y-104036904D01*
X334271726Y-104084523D01*
X334462202Y-104132142D01*
X334605059Y-104132142D01*
X334795535Y-104084523D01*
X334890773Y-104036904D01*
X334986011Y-103941666D01*
X335033630Y-103798809D01*
X335033630Y-103560714D01*
X334462202Y-104703571D02*
X334414583Y-104608333D01*
X334366964Y-104560714D01*
X334271726Y-104513095D01*
X334224107Y-104513095D01*
X334128869Y-104560714D01*
X334081250Y-104608333D01*
X334033630Y-104703571D01*
X334033630Y-104894047D01*
X334081250Y-104989285D01*
X334128869Y-105036904D01*
X334224107Y-105084523D01*
X334271726Y-105084523D01*
X334366964Y-105036904D01*
X334414583Y-104989285D01*
X334462202Y-104894047D01*
X334462202Y-104703571D01*
X334509821Y-104608333D01*
X334557440Y-104560714D01*
X334652678Y-104513095D01*
X334843154Y-104513095D01*
X334938392Y-104560714D01*
X334986011Y-104608333D01*
X335033630Y-104703571D01*
X335033630Y-104894047D01*
X334986011Y-104989285D01*
X334938392Y-105036904D01*
X334843154Y-105084523D01*
X334652678Y-105084523D01*
X334557440Y-105036904D01*
X334509821Y-104989285D01*
X334462202Y-104894047D01*
X334128869Y-105465476D02*
X334081250Y-105513095D01*
X334033630Y-105608333D01*
X334033630Y-105846428D01*
X334081250Y-105941666D01*
X334128869Y-105989285D01*
X334224107Y-106036904D01*
X334319345Y-106036904D01*
X334462202Y-105989285D01*
X335033630Y-105417857D01*
X335033630Y-106036904D01*
%TO.C,D81*%
X345352380Y-84510714D02*
X344352380Y-84510714D01*
X344352380Y-84748809D01*
X344400000Y-84891666D01*
X344495238Y-84986904D01*
X344590476Y-85034523D01*
X344780952Y-85082142D01*
X344923809Y-85082142D01*
X345114285Y-85034523D01*
X345209523Y-84986904D01*
X345304761Y-84891666D01*
X345352380Y-84748809D01*
X345352380Y-84510714D01*
X344780952Y-85653571D02*
X344733333Y-85558333D01*
X344685714Y-85510714D01*
X344590476Y-85463095D01*
X344542857Y-85463095D01*
X344447619Y-85510714D01*
X344400000Y-85558333D01*
X344352380Y-85653571D01*
X344352380Y-85844047D01*
X344400000Y-85939285D01*
X344447619Y-85986904D01*
X344542857Y-86034523D01*
X344590476Y-86034523D01*
X344685714Y-85986904D01*
X344733333Y-85939285D01*
X344780952Y-85844047D01*
X344780952Y-85653571D01*
X344828571Y-85558333D01*
X344876190Y-85510714D01*
X344971428Y-85463095D01*
X345161904Y-85463095D01*
X345257142Y-85510714D01*
X345304761Y-85558333D01*
X345352380Y-85653571D01*
X345352380Y-85844047D01*
X345304761Y-85939285D01*
X345257142Y-85986904D01*
X345161904Y-86034523D01*
X344971428Y-86034523D01*
X344876190Y-85986904D01*
X344828571Y-85939285D01*
X344780952Y-85844047D01*
X345352380Y-86986904D02*
X345352380Y-86415476D01*
X345352380Y-86701190D02*
X344352380Y-86701190D01*
X344495238Y-86605952D01*
X344590476Y-86510714D01*
X344638095Y-86415476D01*
%TO.C,D80*%
X335033630Y-65460714D02*
X334033630Y-65460714D01*
X334033630Y-65698809D01*
X334081250Y-65841666D01*
X334176488Y-65936904D01*
X334271726Y-65984523D01*
X334462202Y-66032142D01*
X334605059Y-66032142D01*
X334795535Y-65984523D01*
X334890773Y-65936904D01*
X334986011Y-65841666D01*
X335033630Y-65698809D01*
X335033630Y-65460714D01*
X334462202Y-66603571D02*
X334414583Y-66508333D01*
X334366964Y-66460714D01*
X334271726Y-66413095D01*
X334224107Y-66413095D01*
X334128869Y-66460714D01*
X334081250Y-66508333D01*
X334033630Y-66603571D01*
X334033630Y-66794047D01*
X334081250Y-66889285D01*
X334128869Y-66936904D01*
X334224107Y-66984523D01*
X334271726Y-66984523D01*
X334366964Y-66936904D01*
X334414583Y-66889285D01*
X334462202Y-66794047D01*
X334462202Y-66603571D01*
X334509821Y-66508333D01*
X334557440Y-66460714D01*
X334652678Y-66413095D01*
X334843154Y-66413095D01*
X334938392Y-66460714D01*
X334986011Y-66508333D01*
X335033630Y-66603571D01*
X335033630Y-66794047D01*
X334986011Y-66889285D01*
X334938392Y-66936904D01*
X334843154Y-66984523D01*
X334652678Y-66984523D01*
X334557440Y-66936904D01*
X334509821Y-66889285D01*
X334462202Y-66794047D01*
X334033630Y-67603571D02*
X334033630Y-67698809D01*
X334081250Y-67794047D01*
X334128869Y-67841666D01*
X334224107Y-67889285D01*
X334414583Y-67936904D01*
X334652678Y-67936904D01*
X334843154Y-67889285D01*
X334938392Y-67841666D01*
X334986011Y-67794047D01*
X335033630Y-67698809D01*
X335033630Y-67603571D01*
X334986011Y-67508333D01*
X334938392Y-67460714D01*
X334843154Y-67413095D01*
X334652678Y-67365476D01*
X334414583Y-67365476D01*
X334224107Y-67413095D01*
X334128869Y-67460714D01*
X334081250Y-67508333D01*
X334033630Y-67603571D01*
%TO.C,D79*%
X335033630Y-46410714D02*
X334033630Y-46410714D01*
X334033630Y-46648809D01*
X334081250Y-46791666D01*
X334176488Y-46886904D01*
X334271726Y-46934523D01*
X334462202Y-46982142D01*
X334605059Y-46982142D01*
X334795535Y-46934523D01*
X334890773Y-46886904D01*
X334986011Y-46791666D01*
X335033630Y-46648809D01*
X335033630Y-46410714D01*
X334033630Y-47315476D02*
X334033630Y-47982142D01*
X335033630Y-47553571D01*
X335033630Y-48410714D02*
X335033630Y-48601190D01*
X334986011Y-48696428D01*
X334938392Y-48744047D01*
X334795535Y-48839285D01*
X334605059Y-48886904D01*
X334224107Y-48886904D01*
X334128869Y-48839285D01*
X334081250Y-48791666D01*
X334033630Y-48696428D01*
X334033630Y-48505952D01*
X334081250Y-48410714D01*
X334128869Y-48363095D01*
X334224107Y-48315476D01*
X334462202Y-48315476D01*
X334557440Y-48363095D01*
X334605059Y-48410714D01*
X334652678Y-48505952D01*
X334652678Y-48696428D01*
X334605059Y-48791666D01*
X334557440Y-48839285D01*
X334462202Y-48886904D01*
%TO.C,D78*%
X335033630Y-27360714D02*
X334033630Y-27360714D01*
X334033630Y-27598809D01*
X334081250Y-27741666D01*
X334176488Y-27836904D01*
X334271726Y-27884523D01*
X334462202Y-27932142D01*
X334605059Y-27932142D01*
X334795535Y-27884523D01*
X334890773Y-27836904D01*
X334986011Y-27741666D01*
X335033630Y-27598809D01*
X335033630Y-27360714D01*
X334033630Y-28265476D02*
X334033630Y-28932142D01*
X335033630Y-28503571D01*
X334462202Y-29455952D02*
X334414583Y-29360714D01*
X334366964Y-29313095D01*
X334271726Y-29265476D01*
X334224107Y-29265476D01*
X334128869Y-29313095D01*
X334081250Y-29360714D01*
X334033630Y-29455952D01*
X334033630Y-29646428D01*
X334081250Y-29741666D01*
X334128869Y-29789285D01*
X334224107Y-29836904D01*
X334271726Y-29836904D01*
X334366964Y-29789285D01*
X334414583Y-29741666D01*
X334462202Y-29646428D01*
X334462202Y-29455952D01*
X334509821Y-29360714D01*
X334557440Y-29313095D01*
X334652678Y-29265476D01*
X334843154Y-29265476D01*
X334938392Y-29313095D01*
X334986011Y-29360714D01*
X335033630Y-29455952D01*
X335033630Y-29646428D01*
X334986011Y-29741666D01*
X334938392Y-29789285D01*
X334843154Y-29836904D01*
X334652678Y-29836904D01*
X334557440Y-29789285D01*
X334509821Y-29741666D01*
X334462202Y-29646428D01*
%TO.C,D77*%
X296933630Y-103560714D02*
X295933630Y-103560714D01*
X295933630Y-103798809D01*
X295981250Y-103941666D01*
X296076488Y-104036904D01*
X296171726Y-104084523D01*
X296362202Y-104132142D01*
X296505059Y-104132142D01*
X296695535Y-104084523D01*
X296790773Y-104036904D01*
X296886011Y-103941666D01*
X296933630Y-103798809D01*
X296933630Y-103560714D01*
X295933630Y-104465476D02*
X295933630Y-105132142D01*
X296933630Y-104703571D01*
X295933630Y-105417857D02*
X295933630Y-106084523D01*
X296933630Y-105655952D01*
%TO.C,D76*%
X306458630Y-84510714D02*
X305458630Y-84510714D01*
X305458630Y-84748809D01*
X305506250Y-84891666D01*
X305601488Y-84986904D01*
X305696726Y-85034523D01*
X305887202Y-85082142D01*
X306030059Y-85082142D01*
X306220535Y-85034523D01*
X306315773Y-84986904D01*
X306411011Y-84891666D01*
X306458630Y-84748809D01*
X306458630Y-84510714D01*
X305458630Y-85415476D02*
X305458630Y-86082142D01*
X306458630Y-85653571D01*
X305458630Y-86891666D02*
X305458630Y-86701190D01*
X305506250Y-86605952D01*
X305553869Y-86558333D01*
X305696726Y-86463095D01*
X305887202Y-86415476D01*
X306268154Y-86415476D01*
X306363392Y-86463095D01*
X306411011Y-86510714D01*
X306458630Y-86605952D01*
X306458630Y-86796428D01*
X306411011Y-86891666D01*
X306363392Y-86939285D01*
X306268154Y-86986904D01*
X306030059Y-86986904D01*
X305934821Y-86939285D01*
X305887202Y-86891666D01*
X305839583Y-86796428D01*
X305839583Y-86605952D01*
X305887202Y-86510714D01*
X305934821Y-86463095D01*
X306030059Y-86415476D01*
%TO.C,D75*%
X287408630Y-84510714D02*
X286408630Y-84510714D01*
X286408630Y-84748809D01*
X286456250Y-84891666D01*
X286551488Y-84986904D01*
X286646726Y-85034523D01*
X286837202Y-85082142D01*
X286980059Y-85082142D01*
X287170535Y-85034523D01*
X287265773Y-84986904D01*
X287361011Y-84891666D01*
X287408630Y-84748809D01*
X287408630Y-84510714D01*
X286408630Y-85415476D02*
X286408630Y-86082142D01*
X287408630Y-85653571D01*
X286408630Y-86939285D02*
X286408630Y-86463095D01*
X286884821Y-86415476D01*
X286837202Y-86463095D01*
X286789583Y-86558333D01*
X286789583Y-86796428D01*
X286837202Y-86891666D01*
X286884821Y-86939285D01*
X286980059Y-86986904D01*
X287218154Y-86986904D01*
X287313392Y-86939285D01*
X287361011Y-86891666D01*
X287408630Y-86796428D01*
X287408630Y-86558333D01*
X287361011Y-86463095D01*
X287313392Y-86415476D01*
%TO.C,D74*%
X297314880Y-65460714D02*
X296314880Y-65460714D01*
X296314880Y-65698809D01*
X296362500Y-65841666D01*
X296457738Y-65936904D01*
X296552976Y-65984523D01*
X296743452Y-66032142D01*
X296886309Y-66032142D01*
X297076785Y-65984523D01*
X297172023Y-65936904D01*
X297267261Y-65841666D01*
X297314880Y-65698809D01*
X297314880Y-65460714D01*
X296314880Y-66365476D02*
X296314880Y-67032142D01*
X297314880Y-66603571D01*
X296648214Y-67841666D02*
X297314880Y-67841666D01*
X296267261Y-67603571D02*
X296981547Y-67365476D01*
X296981547Y-67984523D01*
%TO.C,D73*%
X296933630Y-46410714D02*
X295933630Y-46410714D01*
X295933630Y-46648809D01*
X295981250Y-46791666D01*
X296076488Y-46886904D01*
X296171726Y-46934523D01*
X296362202Y-46982142D01*
X296505059Y-46982142D01*
X296695535Y-46934523D01*
X296790773Y-46886904D01*
X296886011Y-46791666D01*
X296933630Y-46648809D01*
X296933630Y-46410714D01*
X295933630Y-47315476D02*
X295933630Y-47982142D01*
X296933630Y-47553571D01*
X295933630Y-48267857D02*
X295933630Y-48886904D01*
X296314583Y-48553571D01*
X296314583Y-48696428D01*
X296362202Y-48791666D01*
X296409821Y-48839285D01*
X296505059Y-48886904D01*
X296743154Y-48886904D01*
X296838392Y-48839285D01*
X296886011Y-48791666D01*
X296933630Y-48696428D01*
X296933630Y-48410714D01*
X296886011Y-48315476D01*
X296838392Y-48267857D01*
%TO.C,D59*%
X251689880Y-103560714D02*
X250689880Y-103560714D01*
X250689880Y-103798809D01*
X250737500Y-103941666D01*
X250832738Y-104036904D01*
X250927976Y-104084523D01*
X251118452Y-104132142D01*
X251261309Y-104132142D01*
X251451785Y-104084523D01*
X251547023Y-104036904D01*
X251642261Y-103941666D01*
X251689880Y-103798809D01*
X251689880Y-103560714D01*
X250689880Y-105036904D02*
X250689880Y-104560714D01*
X251166071Y-104513095D01*
X251118452Y-104560714D01*
X251070833Y-104655952D01*
X251070833Y-104894047D01*
X251118452Y-104989285D01*
X251166071Y-105036904D01*
X251261309Y-105084523D01*
X251499404Y-105084523D01*
X251594642Y-105036904D01*
X251642261Y-104989285D01*
X251689880Y-104894047D01*
X251689880Y-104655952D01*
X251642261Y-104560714D01*
X251594642Y-104513095D01*
X251689880Y-105560714D02*
X251689880Y-105751190D01*
X251642261Y-105846428D01*
X251594642Y-105894047D01*
X251451785Y-105989285D01*
X251261309Y-106036904D01*
X250880357Y-106036904D01*
X250785119Y-105989285D01*
X250737500Y-105941666D01*
X250689880Y-105846428D01*
X250689880Y-105655952D01*
X250737500Y-105560714D01*
X250785119Y-105513095D01*
X250880357Y-105465476D01*
X251118452Y-105465476D01*
X251213690Y-105513095D01*
X251261309Y-105560714D01*
X251308928Y-105655952D01*
X251308928Y-105846428D01*
X251261309Y-105941666D01*
X251213690Y-105989285D01*
X251118452Y-106036904D01*
%TO.C,D64*%
X261214880Y-84510714D02*
X260214880Y-84510714D01*
X260214880Y-84748809D01*
X260262500Y-84891666D01*
X260357738Y-84986904D01*
X260452976Y-85034523D01*
X260643452Y-85082142D01*
X260786309Y-85082142D01*
X260976785Y-85034523D01*
X261072023Y-84986904D01*
X261167261Y-84891666D01*
X261214880Y-84748809D01*
X261214880Y-84510714D01*
X260214880Y-85939285D02*
X260214880Y-85748809D01*
X260262500Y-85653571D01*
X260310119Y-85605952D01*
X260452976Y-85510714D01*
X260643452Y-85463095D01*
X261024404Y-85463095D01*
X261119642Y-85510714D01*
X261167261Y-85558333D01*
X261214880Y-85653571D01*
X261214880Y-85844047D01*
X261167261Y-85939285D01*
X261119642Y-85986904D01*
X261024404Y-86034523D01*
X260786309Y-86034523D01*
X260691071Y-85986904D01*
X260643452Y-85939285D01*
X260595833Y-85844047D01*
X260595833Y-85653571D01*
X260643452Y-85558333D01*
X260691071Y-85510714D01*
X260786309Y-85463095D01*
X260548214Y-86891666D02*
X261214880Y-86891666D01*
X260167261Y-86653571D02*
X260881547Y-86415476D01*
X260881547Y-87034523D01*
%TO.C,D70*%
X277883630Y-55935714D02*
X276883630Y-55935714D01*
X276883630Y-56173809D01*
X276931250Y-56316666D01*
X277026488Y-56411904D01*
X277121726Y-56459523D01*
X277312202Y-56507142D01*
X277455059Y-56507142D01*
X277645535Y-56459523D01*
X277740773Y-56411904D01*
X277836011Y-56316666D01*
X277883630Y-56173809D01*
X277883630Y-55935714D01*
X276883630Y-56840476D02*
X276883630Y-57507142D01*
X277883630Y-57078571D01*
X276883630Y-58078571D02*
X276883630Y-58173809D01*
X276931250Y-58269047D01*
X276978869Y-58316666D01*
X277074107Y-58364285D01*
X277264583Y-58411904D01*
X277502678Y-58411904D01*
X277693154Y-58364285D01*
X277788392Y-58316666D01*
X277836011Y-58269047D01*
X277883630Y-58173809D01*
X277883630Y-58078571D01*
X277836011Y-57983333D01*
X277788392Y-57935714D01*
X277693154Y-57888095D01*
X277502678Y-57840476D01*
X277264583Y-57840476D01*
X277074107Y-57888095D01*
X276978869Y-57935714D01*
X276931250Y-57983333D01*
X276883630Y-58078571D01*
%TO.C,D72*%
X292171130Y-27360714D02*
X291171130Y-27360714D01*
X291171130Y-27598809D01*
X291218750Y-27741666D01*
X291313988Y-27836904D01*
X291409226Y-27884523D01*
X291599702Y-27932142D01*
X291742559Y-27932142D01*
X291933035Y-27884523D01*
X292028273Y-27836904D01*
X292123511Y-27741666D01*
X292171130Y-27598809D01*
X292171130Y-27360714D01*
X291171130Y-28265476D02*
X291171130Y-28932142D01*
X292171130Y-28503571D01*
X291266369Y-29265476D02*
X291218750Y-29313095D01*
X291171130Y-29408333D01*
X291171130Y-29646428D01*
X291218750Y-29741666D01*
X291266369Y-29789285D01*
X291361607Y-29836904D01*
X291456845Y-29836904D01*
X291599702Y-29789285D01*
X292171130Y-29217857D01*
X292171130Y-29836904D01*
%TO.C,D71*%
X296933630Y-8310714D02*
X295933630Y-8310714D01*
X295933630Y-8548809D01*
X295981250Y-8691666D01*
X296076488Y-8786904D01*
X296171726Y-8834523D01*
X296362202Y-8882142D01*
X296505059Y-8882142D01*
X296695535Y-8834523D01*
X296790773Y-8786904D01*
X296886011Y-8691666D01*
X296933630Y-8548809D01*
X296933630Y-8310714D01*
X295933630Y-9215476D02*
X295933630Y-9882142D01*
X296933630Y-9453571D01*
X296933630Y-10786904D02*
X296933630Y-10215476D01*
X296933630Y-10501190D02*
X295933630Y-10501190D01*
X296076488Y-10405952D01*
X296171726Y-10310714D01*
X296219345Y-10215476D01*
%TO.C,D53*%
X227877380Y-103560714D02*
X226877380Y-103560714D01*
X226877380Y-103798809D01*
X226925000Y-103941666D01*
X227020238Y-104036904D01*
X227115476Y-104084523D01*
X227305952Y-104132142D01*
X227448809Y-104132142D01*
X227639285Y-104084523D01*
X227734523Y-104036904D01*
X227829761Y-103941666D01*
X227877380Y-103798809D01*
X227877380Y-103560714D01*
X226877380Y-105036904D02*
X226877380Y-104560714D01*
X227353571Y-104513095D01*
X227305952Y-104560714D01*
X227258333Y-104655952D01*
X227258333Y-104894047D01*
X227305952Y-104989285D01*
X227353571Y-105036904D01*
X227448809Y-105084523D01*
X227686904Y-105084523D01*
X227782142Y-105036904D01*
X227829761Y-104989285D01*
X227877380Y-104894047D01*
X227877380Y-104655952D01*
X227829761Y-104560714D01*
X227782142Y-104513095D01*
X226877380Y-105417857D02*
X226877380Y-106036904D01*
X227258333Y-105703571D01*
X227258333Y-105846428D01*
X227305952Y-105941666D01*
X227353571Y-105989285D01*
X227448809Y-106036904D01*
X227686904Y-106036904D01*
X227782142Y-105989285D01*
X227829761Y-105941666D01*
X227877380Y-105846428D01*
X227877380Y-105560714D01*
X227829761Y-105465476D01*
X227782142Y-105417857D01*
%TO.C,D58*%
X235021130Y-84510714D02*
X234021130Y-84510714D01*
X234021130Y-84748809D01*
X234068750Y-84891666D01*
X234163988Y-84986904D01*
X234259226Y-85034523D01*
X234449702Y-85082142D01*
X234592559Y-85082142D01*
X234783035Y-85034523D01*
X234878273Y-84986904D01*
X234973511Y-84891666D01*
X235021130Y-84748809D01*
X235021130Y-84510714D01*
X234021130Y-85986904D02*
X234021130Y-85510714D01*
X234497321Y-85463095D01*
X234449702Y-85510714D01*
X234402083Y-85605952D01*
X234402083Y-85844047D01*
X234449702Y-85939285D01*
X234497321Y-85986904D01*
X234592559Y-86034523D01*
X234830654Y-86034523D01*
X234925892Y-85986904D01*
X234973511Y-85939285D01*
X235021130Y-85844047D01*
X235021130Y-85605952D01*
X234973511Y-85510714D01*
X234925892Y-85463095D01*
X234449702Y-86605952D02*
X234402083Y-86510714D01*
X234354464Y-86463095D01*
X234259226Y-86415476D01*
X234211607Y-86415476D01*
X234116369Y-86463095D01*
X234068750Y-86510714D01*
X234021130Y-86605952D01*
X234021130Y-86796428D01*
X234068750Y-86891666D01*
X234116369Y-86939285D01*
X234211607Y-86986904D01*
X234259226Y-86986904D01*
X234354464Y-86939285D01*
X234402083Y-86891666D01*
X234449702Y-86796428D01*
X234449702Y-86605952D01*
X234497321Y-86510714D01*
X234544940Y-86463095D01*
X234640178Y-86415476D01*
X234830654Y-86415476D01*
X234925892Y-86463095D01*
X234973511Y-86510714D01*
X235021130Y-86605952D01*
X235021130Y-86796428D01*
X234973511Y-86891666D01*
X234925892Y-86939285D01*
X234830654Y-86986904D01*
X234640178Y-86986904D01*
X234544940Y-86939285D01*
X234497321Y-86891666D01*
X234449702Y-86796428D01*
%TO.C,D63*%
X244546130Y-65460714D02*
X243546130Y-65460714D01*
X243546130Y-65698809D01*
X243593750Y-65841666D01*
X243688988Y-65936904D01*
X243784226Y-65984523D01*
X243974702Y-66032142D01*
X244117559Y-66032142D01*
X244308035Y-65984523D01*
X244403273Y-65936904D01*
X244498511Y-65841666D01*
X244546130Y-65698809D01*
X244546130Y-65460714D01*
X243546130Y-66889285D02*
X243546130Y-66698809D01*
X243593750Y-66603571D01*
X243641369Y-66555952D01*
X243784226Y-66460714D01*
X243974702Y-66413095D01*
X244355654Y-66413095D01*
X244450892Y-66460714D01*
X244498511Y-66508333D01*
X244546130Y-66603571D01*
X244546130Y-66794047D01*
X244498511Y-66889285D01*
X244450892Y-66936904D01*
X244355654Y-66984523D01*
X244117559Y-66984523D01*
X244022321Y-66936904D01*
X243974702Y-66889285D01*
X243927083Y-66794047D01*
X243927083Y-66603571D01*
X243974702Y-66508333D01*
X244022321Y-66460714D01*
X244117559Y-66413095D01*
X243546130Y-67317857D02*
X243546130Y-67936904D01*
X243927083Y-67603571D01*
X243927083Y-67746428D01*
X243974702Y-67841666D01*
X244022321Y-67889285D01*
X244117559Y-67936904D01*
X244355654Y-67936904D01*
X244450892Y-67889285D01*
X244498511Y-67841666D01*
X244546130Y-67746428D01*
X244546130Y-67460714D01*
X244498511Y-67365476D01*
X244450892Y-67317857D01*
%TO.C,D67*%
X258897380Y-55935714D02*
X257897380Y-55935714D01*
X257897380Y-56173809D01*
X257945000Y-56316666D01*
X258040238Y-56411904D01*
X258135476Y-56459523D01*
X258325952Y-56507142D01*
X258468809Y-56507142D01*
X258659285Y-56459523D01*
X258754523Y-56411904D01*
X258849761Y-56316666D01*
X258897380Y-56173809D01*
X258897380Y-55935714D01*
X257897380Y-57364285D02*
X257897380Y-57173809D01*
X257945000Y-57078571D01*
X257992619Y-57030952D01*
X258135476Y-56935714D01*
X258325952Y-56888095D01*
X258706904Y-56888095D01*
X258802142Y-56935714D01*
X258849761Y-56983333D01*
X258897380Y-57078571D01*
X258897380Y-57269047D01*
X258849761Y-57364285D01*
X258802142Y-57411904D01*
X258706904Y-57459523D01*
X258468809Y-57459523D01*
X258373571Y-57411904D01*
X258325952Y-57364285D01*
X258278333Y-57269047D01*
X258278333Y-57078571D01*
X258325952Y-56983333D01*
X258373571Y-56935714D01*
X258468809Y-56888095D01*
X257897380Y-57792857D02*
X257897380Y-58459523D01*
X258897380Y-58030952D01*
%TO.C,D69*%
X268358630Y-27360714D02*
X267358630Y-27360714D01*
X267358630Y-27598809D01*
X267406250Y-27741666D01*
X267501488Y-27836904D01*
X267596726Y-27884523D01*
X267787202Y-27932142D01*
X267930059Y-27932142D01*
X268120535Y-27884523D01*
X268215773Y-27836904D01*
X268311011Y-27741666D01*
X268358630Y-27598809D01*
X268358630Y-27360714D01*
X267358630Y-28789285D02*
X267358630Y-28598809D01*
X267406250Y-28503571D01*
X267453869Y-28455952D01*
X267596726Y-28360714D01*
X267787202Y-28313095D01*
X268168154Y-28313095D01*
X268263392Y-28360714D01*
X268311011Y-28408333D01*
X268358630Y-28503571D01*
X268358630Y-28694047D01*
X268311011Y-28789285D01*
X268263392Y-28836904D01*
X268168154Y-28884523D01*
X267930059Y-28884523D01*
X267834821Y-28836904D01*
X267787202Y-28789285D01*
X267739583Y-28694047D01*
X267739583Y-28503571D01*
X267787202Y-28408333D01*
X267834821Y-28360714D01*
X267930059Y-28313095D01*
X268358630Y-29360714D02*
X268358630Y-29551190D01*
X268311011Y-29646428D01*
X268263392Y-29694047D01*
X268120535Y-29789285D01*
X267930059Y-29836904D01*
X267549107Y-29836904D01*
X267453869Y-29789285D01*
X267406250Y-29741666D01*
X267358630Y-29646428D01*
X267358630Y-29455952D01*
X267406250Y-29360714D01*
X267453869Y-29313095D01*
X267549107Y-29265476D01*
X267787202Y-29265476D01*
X267882440Y-29313095D01*
X267930059Y-29360714D01*
X267977678Y-29455952D01*
X267977678Y-29646428D01*
X267930059Y-29741666D01*
X267882440Y-29789285D01*
X267787202Y-29836904D01*
%TO.C,D68*%
X268358630Y-8310714D02*
X267358630Y-8310714D01*
X267358630Y-8548809D01*
X267406250Y-8691666D01*
X267501488Y-8786904D01*
X267596726Y-8834523D01*
X267787202Y-8882142D01*
X267930059Y-8882142D01*
X268120535Y-8834523D01*
X268215773Y-8786904D01*
X268311011Y-8691666D01*
X268358630Y-8548809D01*
X268358630Y-8310714D01*
X267358630Y-9739285D02*
X267358630Y-9548809D01*
X267406250Y-9453571D01*
X267453869Y-9405952D01*
X267596726Y-9310714D01*
X267787202Y-9263095D01*
X268168154Y-9263095D01*
X268263392Y-9310714D01*
X268311011Y-9358333D01*
X268358630Y-9453571D01*
X268358630Y-9644047D01*
X268311011Y-9739285D01*
X268263392Y-9786904D01*
X268168154Y-9834523D01*
X267930059Y-9834523D01*
X267834821Y-9786904D01*
X267787202Y-9739285D01*
X267739583Y-9644047D01*
X267739583Y-9453571D01*
X267787202Y-9358333D01*
X267834821Y-9310714D01*
X267930059Y-9263095D01*
X267787202Y-10405952D02*
X267739583Y-10310714D01*
X267691964Y-10263095D01*
X267596726Y-10215476D01*
X267549107Y-10215476D01*
X267453869Y-10263095D01*
X267406250Y-10310714D01*
X267358630Y-10405952D01*
X267358630Y-10596428D01*
X267406250Y-10691666D01*
X267453869Y-10739285D01*
X267549107Y-10786904D01*
X267596726Y-10786904D01*
X267691964Y-10739285D01*
X267739583Y-10691666D01*
X267787202Y-10596428D01*
X267787202Y-10405952D01*
X267834821Y-10310714D01*
X267882440Y-10263095D01*
X267977678Y-10215476D01*
X268168154Y-10215476D01*
X268263392Y-10263095D01*
X268311011Y-10310714D01*
X268358630Y-10405952D01*
X268358630Y-10596428D01*
X268311011Y-10691666D01*
X268263392Y-10739285D01*
X268168154Y-10786904D01*
X267977678Y-10786904D01*
X267882440Y-10739285D01*
X267834821Y-10691666D01*
X267787202Y-10596428D01*
%TO.C,D52*%
X215971130Y-84510714D02*
X214971130Y-84510714D01*
X214971130Y-84748809D01*
X215018750Y-84891666D01*
X215113988Y-84986904D01*
X215209226Y-85034523D01*
X215399702Y-85082142D01*
X215542559Y-85082142D01*
X215733035Y-85034523D01*
X215828273Y-84986904D01*
X215923511Y-84891666D01*
X215971130Y-84748809D01*
X215971130Y-84510714D01*
X214971130Y-85986904D02*
X214971130Y-85510714D01*
X215447321Y-85463095D01*
X215399702Y-85510714D01*
X215352083Y-85605952D01*
X215352083Y-85844047D01*
X215399702Y-85939285D01*
X215447321Y-85986904D01*
X215542559Y-86034523D01*
X215780654Y-86034523D01*
X215875892Y-85986904D01*
X215923511Y-85939285D01*
X215971130Y-85844047D01*
X215971130Y-85605952D01*
X215923511Y-85510714D01*
X215875892Y-85463095D01*
X215066369Y-86415476D02*
X215018750Y-86463095D01*
X214971130Y-86558333D01*
X214971130Y-86796428D01*
X215018750Y-86891666D01*
X215066369Y-86939285D01*
X215161607Y-86986904D01*
X215256845Y-86986904D01*
X215399702Y-86939285D01*
X215971130Y-86367857D01*
X215971130Y-86986904D01*
%TO.C,D57*%
X225496130Y-65460714D02*
X224496130Y-65460714D01*
X224496130Y-65698809D01*
X224543750Y-65841666D01*
X224638988Y-65936904D01*
X224734226Y-65984523D01*
X224924702Y-66032142D01*
X225067559Y-66032142D01*
X225258035Y-65984523D01*
X225353273Y-65936904D01*
X225448511Y-65841666D01*
X225496130Y-65698809D01*
X225496130Y-65460714D01*
X224496130Y-66936904D02*
X224496130Y-66460714D01*
X224972321Y-66413095D01*
X224924702Y-66460714D01*
X224877083Y-66555952D01*
X224877083Y-66794047D01*
X224924702Y-66889285D01*
X224972321Y-66936904D01*
X225067559Y-66984523D01*
X225305654Y-66984523D01*
X225400892Y-66936904D01*
X225448511Y-66889285D01*
X225496130Y-66794047D01*
X225496130Y-66555952D01*
X225448511Y-66460714D01*
X225400892Y-66413095D01*
X224496130Y-67317857D02*
X224496130Y-67984523D01*
X225496130Y-67555952D01*
%TO.C,D62*%
X239783630Y-46410714D02*
X238783630Y-46410714D01*
X238783630Y-46648809D01*
X238831250Y-46791666D01*
X238926488Y-46886904D01*
X239021726Y-46934523D01*
X239212202Y-46982142D01*
X239355059Y-46982142D01*
X239545535Y-46934523D01*
X239640773Y-46886904D01*
X239736011Y-46791666D01*
X239783630Y-46648809D01*
X239783630Y-46410714D01*
X238783630Y-47839285D02*
X238783630Y-47648809D01*
X238831250Y-47553571D01*
X238878869Y-47505952D01*
X239021726Y-47410714D01*
X239212202Y-47363095D01*
X239593154Y-47363095D01*
X239688392Y-47410714D01*
X239736011Y-47458333D01*
X239783630Y-47553571D01*
X239783630Y-47744047D01*
X239736011Y-47839285D01*
X239688392Y-47886904D01*
X239593154Y-47934523D01*
X239355059Y-47934523D01*
X239259821Y-47886904D01*
X239212202Y-47839285D01*
X239164583Y-47744047D01*
X239164583Y-47553571D01*
X239212202Y-47458333D01*
X239259821Y-47410714D01*
X239355059Y-47363095D01*
X238878869Y-48315476D02*
X238831250Y-48363095D01*
X238783630Y-48458333D01*
X238783630Y-48696428D01*
X238831250Y-48791666D01*
X238878869Y-48839285D01*
X238974107Y-48886904D01*
X239069345Y-48886904D01*
X239212202Y-48839285D01*
X239783630Y-48267857D01*
X239783630Y-48886904D01*
%TO.C,D66*%
X249308630Y-27360714D02*
X248308630Y-27360714D01*
X248308630Y-27598809D01*
X248356250Y-27741666D01*
X248451488Y-27836904D01*
X248546726Y-27884523D01*
X248737202Y-27932142D01*
X248880059Y-27932142D01*
X249070535Y-27884523D01*
X249165773Y-27836904D01*
X249261011Y-27741666D01*
X249308630Y-27598809D01*
X249308630Y-27360714D01*
X248308630Y-28789285D02*
X248308630Y-28598809D01*
X248356250Y-28503571D01*
X248403869Y-28455952D01*
X248546726Y-28360714D01*
X248737202Y-28313095D01*
X249118154Y-28313095D01*
X249213392Y-28360714D01*
X249261011Y-28408333D01*
X249308630Y-28503571D01*
X249308630Y-28694047D01*
X249261011Y-28789285D01*
X249213392Y-28836904D01*
X249118154Y-28884523D01*
X248880059Y-28884523D01*
X248784821Y-28836904D01*
X248737202Y-28789285D01*
X248689583Y-28694047D01*
X248689583Y-28503571D01*
X248737202Y-28408333D01*
X248784821Y-28360714D01*
X248880059Y-28313095D01*
X248308630Y-29741666D02*
X248308630Y-29551190D01*
X248356250Y-29455952D01*
X248403869Y-29408333D01*
X248546726Y-29313095D01*
X248737202Y-29265476D01*
X249118154Y-29265476D01*
X249213392Y-29313095D01*
X249261011Y-29360714D01*
X249308630Y-29455952D01*
X249308630Y-29646428D01*
X249261011Y-29741666D01*
X249213392Y-29789285D01*
X249118154Y-29836904D01*
X248880059Y-29836904D01*
X248784821Y-29789285D01*
X248737202Y-29741666D01*
X248689583Y-29646428D01*
X248689583Y-29455952D01*
X248737202Y-29360714D01*
X248784821Y-29313095D01*
X248880059Y-29265476D01*
%TO.C,D65*%
X249308630Y-8310714D02*
X248308630Y-8310714D01*
X248308630Y-8548809D01*
X248356250Y-8691666D01*
X248451488Y-8786904D01*
X248546726Y-8834523D01*
X248737202Y-8882142D01*
X248880059Y-8882142D01*
X249070535Y-8834523D01*
X249165773Y-8786904D01*
X249261011Y-8691666D01*
X249308630Y-8548809D01*
X249308630Y-8310714D01*
X248308630Y-9739285D02*
X248308630Y-9548809D01*
X248356250Y-9453571D01*
X248403869Y-9405952D01*
X248546726Y-9310714D01*
X248737202Y-9263095D01*
X249118154Y-9263095D01*
X249213392Y-9310714D01*
X249261011Y-9358333D01*
X249308630Y-9453571D01*
X249308630Y-9644047D01*
X249261011Y-9739285D01*
X249213392Y-9786904D01*
X249118154Y-9834523D01*
X248880059Y-9834523D01*
X248784821Y-9786904D01*
X248737202Y-9739285D01*
X248689583Y-9644047D01*
X248689583Y-9453571D01*
X248737202Y-9358333D01*
X248784821Y-9310714D01*
X248880059Y-9263095D01*
X248308630Y-10739285D02*
X248308630Y-10263095D01*
X248784821Y-10215476D01*
X248737202Y-10263095D01*
X248689583Y-10358333D01*
X248689583Y-10596428D01*
X248737202Y-10691666D01*
X248784821Y-10739285D01*
X248880059Y-10786904D01*
X249118154Y-10786904D01*
X249213392Y-10739285D01*
X249261011Y-10691666D01*
X249308630Y-10596428D01*
X249308630Y-10358333D01*
X249261011Y-10263095D01*
X249213392Y-10215476D01*
%TO.C,D47*%
X196921130Y-84510714D02*
X195921130Y-84510714D01*
X195921130Y-84748809D01*
X195968750Y-84891666D01*
X196063988Y-84986904D01*
X196159226Y-85034523D01*
X196349702Y-85082142D01*
X196492559Y-85082142D01*
X196683035Y-85034523D01*
X196778273Y-84986904D01*
X196873511Y-84891666D01*
X196921130Y-84748809D01*
X196921130Y-84510714D01*
X196254464Y-85939285D02*
X196921130Y-85939285D01*
X195873511Y-85701190D02*
X196587797Y-85463095D01*
X196587797Y-86082142D01*
X195921130Y-86367857D02*
X195921130Y-87034523D01*
X196921130Y-86605952D01*
%TO.C,D51*%
X206446130Y-65460714D02*
X205446130Y-65460714D01*
X205446130Y-65698809D01*
X205493750Y-65841666D01*
X205588988Y-65936904D01*
X205684226Y-65984523D01*
X205874702Y-66032142D01*
X206017559Y-66032142D01*
X206208035Y-65984523D01*
X206303273Y-65936904D01*
X206398511Y-65841666D01*
X206446130Y-65698809D01*
X206446130Y-65460714D01*
X205446130Y-66936904D02*
X205446130Y-66460714D01*
X205922321Y-66413095D01*
X205874702Y-66460714D01*
X205827083Y-66555952D01*
X205827083Y-66794047D01*
X205874702Y-66889285D01*
X205922321Y-66936904D01*
X206017559Y-66984523D01*
X206255654Y-66984523D01*
X206350892Y-66936904D01*
X206398511Y-66889285D01*
X206446130Y-66794047D01*
X206446130Y-66555952D01*
X206398511Y-66460714D01*
X206350892Y-66413095D01*
X206446130Y-67936904D02*
X206446130Y-67365476D01*
X206446130Y-67651190D02*
X205446130Y-67651190D01*
X205588988Y-67555952D01*
X205684226Y-67460714D01*
X205731845Y-67365476D01*
%TO.C,D56*%
X220733630Y-46410714D02*
X219733630Y-46410714D01*
X219733630Y-46648809D01*
X219781250Y-46791666D01*
X219876488Y-46886904D01*
X219971726Y-46934523D01*
X220162202Y-46982142D01*
X220305059Y-46982142D01*
X220495535Y-46934523D01*
X220590773Y-46886904D01*
X220686011Y-46791666D01*
X220733630Y-46648809D01*
X220733630Y-46410714D01*
X219733630Y-47886904D02*
X219733630Y-47410714D01*
X220209821Y-47363095D01*
X220162202Y-47410714D01*
X220114583Y-47505952D01*
X220114583Y-47744047D01*
X220162202Y-47839285D01*
X220209821Y-47886904D01*
X220305059Y-47934523D01*
X220543154Y-47934523D01*
X220638392Y-47886904D01*
X220686011Y-47839285D01*
X220733630Y-47744047D01*
X220733630Y-47505952D01*
X220686011Y-47410714D01*
X220638392Y-47363095D01*
X219733630Y-48791666D02*
X219733630Y-48601190D01*
X219781250Y-48505952D01*
X219828869Y-48458333D01*
X219971726Y-48363095D01*
X220162202Y-48315476D01*
X220543154Y-48315476D01*
X220638392Y-48363095D01*
X220686011Y-48410714D01*
X220733630Y-48505952D01*
X220733630Y-48696428D01*
X220686011Y-48791666D01*
X220638392Y-48839285D01*
X220543154Y-48886904D01*
X220305059Y-48886904D01*
X220209821Y-48839285D01*
X220162202Y-48791666D01*
X220114583Y-48696428D01*
X220114583Y-48505952D01*
X220162202Y-48410714D01*
X220209821Y-48363095D01*
X220305059Y-48315476D01*
%TO.C,D61*%
X230258630Y-27360714D02*
X229258630Y-27360714D01*
X229258630Y-27598809D01*
X229306250Y-27741666D01*
X229401488Y-27836904D01*
X229496726Y-27884523D01*
X229687202Y-27932142D01*
X229830059Y-27932142D01*
X230020535Y-27884523D01*
X230115773Y-27836904D01*
X230211011Y-27741666D01*
X230258630Y-27598809D01*
X230258630Y-27360714D01*
X229258630Y-28789285D02*
X229258630Y-28598809D01*
X229306250Y-28503571D01*
X229353869Y-28455952D01*
X229496726Y-28360714D01*
X229687202Y-28313095D01*
X230068154Y-28313095D01*
X230163392Y-28360714D01*
X230211011Y-28408333D01*
X230258630Y-28503571D01*
X230258630Y-28694047D01*
X230211011Y-28789285D01*
X230163392Y-28836904D01*
X230068154Y-28884523D01*
X229830059Y-28884523D01*
X229734821Y-28836904D01*
X229687202Y-28789285D01*
X229639583Y-28694047D01*
X229639583Y-28503571D01*
X229687202Y-28408333D01*
X229734821Y-28360714D01*
X229830059Y-28313095D01*
X230258630Y-29836904D02*
X230258630Y-29265476D01*
X230258630Y-29551190D02*
X229258630Y-29551190D01*
X229401488Y-29455952D01*
X229496726Y-29360714D01*
X229544345Y-29265476D01*
%TO.C,D60*%
X230258630Y-8310714D02*
X229258630Y-8310714D01*
X229258630Y-8548809D01*
X229306250Y-8691666D01*
X229401488Y-8786904D01*
X229496726Y-8834523D01*
X229687202Y-8882142D01*
X229830059Y-8882142D01*
X230020535Y-8834523D01*
X230115773Y-8786904D01*
X230211011Y-8691666D01*
X230258630Y-8548809D01*
X230258630Y-8310714D01*
X229258630Y-9739285D02*
X229258630Y-9548809D01*
X229306250Y-9453571D01*
X229353869Y-9405952D01*
X229496726Y-9310714D01*
X229687202Y-9263095D01*
X230068154Y-9263095D01*
X230163392Y-9310714D01*
X230211011Y-9358333D01*
X230258630Y-9453571D01*
X230258630Y-9644047D01*
X230211011Y-9739285D01*
X230163392Y-9786904D01*
X230068154Y-9834523D01*
X229830059Y-9834523D01*
X229734821Y-9786904D01*
X229687202Y-9739285D01*
X229639583Y-9644047D01*
X229639583Y-9453571D01*
X229687202Y-9358333D01*
X229734821Y-9310714D01*
X229830059Y-9263095D01*
X229258630Y-10453571D02*
X229258630Y-10548809D01*
X229306250Y-10644047D01*
X229353869Y-10691666D01*
X229449107Y-10739285D01*
X229639583Y-10786904D01*
X229877678Y-10786904D01*
X230068154Y-10739285D01*
X230163392Y-10691666D01*
X230211011Y-10644047D01*
X230258630Y-10548809D01*
X230258630Y-10453571D01*
X230211011Y-10358333D01*
X230163392Y-10310714D01*
X230068154Y-10263095D01*
X229877678Y-10215476D01*
X229639583Y-10215476D01*
X229449107Y-10263095D01*
X229353869Y-10310714D01*
X229306250Y-10358333D01*
X229258630Y-10453571D01*
%TO.C,D42*%
X177871130Y-84510714D02*
X176871130Y-84510714D01*
X176871130Y-84748809D01*
X176918750Y-84891666D01*
X177013988Y-84986904D01*
X177109226Y-85034523D01*
X177299702Y-85082142D01*
X177442559Y-85082142D01*
X177633035Y-85034523D01*
X177728273Y-84986904D01*
X177823511Y-84891666D01*
X177871130Y-84748809D01*
X177871130Y-84510714D01*
X177204464Y-85939285D02*
X177871130Y-85939285D01*
X176823511Y-85701190D02*
X177537797Y-85463095D01*
X177537797Y-86082142D01*
X176966369Y-86415476D02*
X176918750Y-86463095D01*
X176871130Y-86558333D01*
X176871130Y-86796428D01*
X176918750Y-86891666D01*
X176966369Y-86939285D01*
X177061607Y-86986904D01*
X177156845Y-86986904D01*
X177299702Y-86939285D01*
X177871130Y-86367857D01*
X177871130Y-86986904D01*
%TO.C,D46*%
X187396130Y-65460714D02*
X186396130Y-65460714D01*
X186396130Y-65698809D01*
X186443750Y-65841666D01*
X186538988Y-65936904D01*
X186634226Y-65984523D01*
X186824702Y-66032142D01*
X186967559Y-66032142D01*
X187158035Y-65984523D01*
X187253273Y-65936904D01*
X187348511Y-65841666D01*
X187396130Y-65698809D01*
X187396130Y-65460714D01*
X186729464Y-66889285D02*
X187396130Y-66889285D01*
X186348511Y-66651190D02*
X187062797Y-66413095D01*
X187062797Y-67032142D01*
X186396130Y-67841666D02*
X186396130Y-67651190D01*
X186443750Y-67555952D01*
X186491369Y-67508333D01*
X186634226Y-67413095D01*
X186824702Y-67365476D01*
X187205654Y-67365476D01*
X187300892Y-67413095D01*
X187348511Y-67460714D01*
X187396130Y-67555952D01*
X187396130Y-67746428D01*
X187348511Y-67841666D01*
X187300892Y-67889285D01*
X187205654Y-67936904D01*
X186967559Y-67936904D01*
X186872321Y-67889285D01*
X186824702Y-67841666D01*
X186777083Y-67746428D01*
X186777083Y-67555952D01*
X186824702Y-67460714D01*
X186872321Y-67413095D01*
X186967559Y-67365476D01*
%TO.C,D50*%
X201683630Y-46410714D02*
X200683630Y-46410714D01*
X200683630Y-46648809D01*
X200731250Y-46791666D01*
X200826488Y-46886904D01*
X200921726Y-46934523D01*
X201112202Y-46982142D01*
X201255059Y-46982142D01*
X201445535Y-46934523D01*
X201540773Y-46886904D01*
X201636011Y-46791666D01*
X201683630Y-46648809D01*
X201683630Y-46410714D01*
X200683630Y-47886904D02*
X200683630Y-47410714D01*
X201159821Y-47363095D01*
X201112202Y-47410714D01*
X201064583Y-47505952D01*
X201064583Y-47744047D01*
X201112202Y-47839285D01*
X201159821Y-47886904D01*
X201255059Y-47934523D01*
X201493154Y-47934523D01*
X201588392Y-47886904D01*
X201636011Y-47839285D01*
X201683630Y-47744047D01*
X201683630Y-47505952D01*
X201636011Y-47410714D01*
X201588392Y-47363095D01*
X200683630Y-48553571D02*
X200683630Y-48648809D01*
X200731250Y-48744047D01*
X200778869Y-48791666D01*
X200874107Y-48839285D01*
X201064583Y-48886904D01*
X201302678Y-48886904D01*
X201493154Y-48839285D01*
X201588392Y-48791666D01*
X201636011Y-48744047D01*
X201683630Y-48648809D01*
X201683630Y-48553571D01*
X201636011Y-48458333D01*
X201588392Y-48410714D01*
X201493154Y-48363095D01*
X201302678Y-48315476D01*
X201064583Y-48315476D01*
X200874107Y-48363095D01*
X200778869Y-48410714D01*
X200731250Y-48458333D01*
X200683630Y-48553571D01*
%TO.C,D55*%
X211208630Y-27360714D02*
X210208630Y-27360714D01*
X210208630Y-27598809D01*
X210256250Y-27741666D01*
X210351488Y-27836904D01*
X210446726Y-27884523D01*
X210637202Y-27932142D01*
X210780059Y-27932142D01*
X210970535Y-27884523D01*
X211065773Y-27836904D01*
X211161011Y-27741666D01*
X211208630Y-27598809D01*
X211208630Y-27360714D01*
X210208630Y-28836904D02*
X210208630Y-28360714D01*
X210684821Y-28313095D01*
X210637202Y-28360714D01*
X210589583Y-28455952D01*
X210589583Y-28694047D01*
X210637202Y-28789285D01*
X210684821Y-28836904D01*
X210780059Y-28884523D01*
X211018154Y-28884523D01*
X211113392Y-28836904D01*
X211161011Y-28789285D01*
X211208630Y-28694047D01*
X211208630Y-28455952D01*
X211161011Y-28360714D01*
X211113392Y-28313095D01*
X210208630Y-29789285D02*
X210208630Y-29313095D01*
X210684821Y-29265476D01*
X210637202Y-29313095D01*
X210589583Y-29408333D01*
X210589583Y-29646428D01*
X210637202Y-29741666D01*
X210684821Y-29789285D01*
X210780059Y-29836904D01*
X211018154Y-29836904D01*
X211113392Y-29789285D01*
X211161011Y-29741666D01*
X211208630Y-29646428D01*
X211208630Y-29408333D01*
X211161011Y-29313095D01*
X211113392Y-29265476D01*
%TO.C,D54*%
X211208630Y-8310714D02*
X210208630Y-8310714D01*
X210208630Y-8548809D01*
X210256250Y-8691666D01*
X210351488Y-8786904D01*
X210446726Y-8834523D01*
X210637202Y-8882142D01*
X210780059Y-8882142D01*
X210970535Y-8834523D01*
X211065773Y-8786904D01*
X211161011Y-8691666D01*
X211208630Y-8548809D01*
X211208630Y-8310714D01*
X210208630Y-9786904D02*
X210208630Y-9310714D01*
X210684821Y-9263095D01*
X210637202Y-9310714D01*
X210589583Y-9405952D01*
X210589583Y-9644047D01*
X210637202Y-9739285D01*
X210684821Y-9786904D01*
X210780059Y-9834523D01*
X211018154Y-9834523D01*
X211113392Y-9786904D01*
X211161011Y-9739285D01*
X211208630Y-9644047D01*
X211208630Y-9405952D01*
X211161011Y-9310714D01*
X211113392Y-9263095D01*
X210541964Y-10691666D02*
X211208630Y-10691666D01*
X210161011Y-10453571D02*
X210875297Y-10215476D01*
X210875297Y-10834523D01*
%TO.C,D45*%
X182633630Y-46410714D02*
X181633630Y-46410714D01*
X181633630Y-46648809D01*
X181681250Y-46791666D01*
X181776488Y-46886904D01*
X181871726Y-46934523D01*
X182062202Y-46982142D01*
X182205059Y-46982142D01*
X182395535Y-46934523D01*
X182490773Y-46886904D01*
X182586011Y-46791666D01*
X182633630Y-46648809D01*
X182633630Y-46410714D01*
X181966964Y-47839285D02*
X182633630Y-47839285D01*
X181586011Y-47601190D02*
X182300297Y-47363095D01*
X182300297Y-47982142D01*
X181633630Y-48839285D02*
X181633630Y-48363095D01*
X182109821Y-48315476D01*
X182062202Y-48363095D01*
X182014583Y-48458333D01*
X182014583Y-48696428D01*
X182062202Y-48791666D01*
X182109821Y-48839285D01*
X182205059Y-48886904D01*
X182443154Y-48886904D01*
X182538392Y-48839285D01*
X182586011Y-48791666D01*
X182633630Y-48696428D01*
X182633630Y-48458333D01*
X182586011Y-48363095D01*
X182538392Y-48315476D01*
%TO.C,D49*%
X192158630Y-27360714D02*
X191158630Y-27360714D01*
X191158630Y-27598809D01*
X191206250Y-27741666D01*
X191301488Y-27836904D01*
X191396726Y-27884523D01*
X191587202Y-27932142D01*
X191730059Y-27932142D01*
X191920535Y-27884523D01*
X192015773Y-27836904D01*
X192111011Y-27741666D01*
X192158630Y-27598809D01*
X192158630Y-27360714D01*
X191491964Y-28789285D02*
X192158630Y-28789285D01*
X191111011Y-28551190D02*
X191825297Y-28313095D01*
X191825297Y-28932142D01*
X192158630Y-29360714D02*
X192158630Y-29551190D01*
X192111011Y-29646428D01*
X192063392Y-29694047D01*
X191920535Y-29789285D01*
X191730059Y-29836904D01*
X191349107Y-29836904D01*
X191253869Y-29789285D01*
X191206250Y-29741666D01*
X191158630Y-29646428D01*
X191158630Y-29455952D01*
X191206250Y-29360714D01*
X191253869Y-29313095D01*
X191349107Y-29265476D01*
X191587202Y-29265476D01*
X191682440Y-29313095D01*
X191730059Y-29360714D01*
X191777678Y-29455952D01*
X191777678Y-29646428D01*
X191730059Y-29741666D01*
X191682440Y-29789285D01*
X191587202Y-29836904D01*
%TO.C,D48*%
X192158630Y-8310714D02*
X191158630Y-8310714D01*
X191158630Y-8548809D01*
X191206250Y-8691666D01*
X191301488Y-8786904D01*
X191396726Y-8834523D01*
X191587202Y-8882142D01*
X191730059Y-8882142D01*
X191920535Y-8834523D01*
X192015773Y-8786904D01*
X192111011Y-8691666D01*
X192158630Y-8548809D01*
X192158630Y-8310714D01*
X191491964Y-9739285D02*
X192158630Y-9739285D01*
X191111011Y-9501190D02*
X191825297Y-9263095D01*
X191825297Y-9882142D01*
X191587202Y-10405952D02*
X191539583Y-10310714D01*
X191491964Y-10263095D01*
X191396726Y-10215476D01*
X191349107Y-10215476D01*
X191253869Y-10263095D01*
X191206250Y-10310714D01*
X191158630Y-10405952D01*
X191158630Y-10596428D01*
X191206250Y-10691666D01*
X191253869Y-10739285D01*
X191349107Y-10786904D01*
X191396726Y-10786904D01*
X191491964Y-10739285D01*
X191539583Y-10691666D01*
X191587202Y-10596428D01*
X191587202Y-10405952D01*
X191634821Y-10310714D01*
X191682440Y-10263095D01*
X191777678Y-10215476D01*
X191968154Y-10215476D01*
X192063392Y-10263095D01*
X192111011Y-10310714D01*
X192158630Y-10405952D01*
X192158630Y-10596428D01*
X192111011Y-10691666D01*
X192063392Y-10739285D01*
X191968154Y-10786904D01*
X191777678Y-10786904D01*
X191682440Y-10739285D01*
X191634821Y-10691666D01*
X191587202Y-10596428D01*
%TO.C,D44*%
X173108630Y-27360714D02*
X172108630Y-27360714D01*
X172108630Y-27598809D01*
X172156250Y-27741666D01*
X172251488Y-27836904D01*
X172346726Y-27884523D01*
X172537202Y-27932142D01*
X172680059Y-27932142D01*
X172870535Y-27884523D01*
X172965773Y-27836904D01*
X173061011Y-27741666D01*
X173108630Y-27598809D01*
X173108630Y-27360714D01*
X172441964Y-28789285D02*
X173108630Y-28789285D01*
X172061011Y-28551190D02*
X172775297Y-28313095D01*
X172775297Y-28932142D01*
X172441964Y-29741666D02*
X173108630Y-29741666D01*
X172061011Y-29503571D02*
X172775297Y-29265476D01*
X172775297Y-29884523D01*
%TO.C,D43*%
X173108630Y-8310714D02*
X172108630Y-8310714D01*
X172108630Y-8548809D01*
X172156250Y-8691666D01*
X172251488Y-8786904D01*
X172346726Y-8834523D01*
X172537202Y-8882142D01*
X172680059Y-8882142D01*
X172870535Y-8834523D01*
X172965773Y-8786904D01*
X173061011Y-8691666D01*
X173108630Y-8548809D01*
X173108630Y-8310714D01*
X172441964Y-9739285D02*
X173108630Y-9739285D01*
X172061011Y-9501190D02*
X172775297Y-9263095D01*
X172775297Y-9882142D01*
X172108630Y-10167857D02*
X172108630Y-10786904D01*
X172489583Y-10453571D01*
X172489583Y-10596428D01*
X172537202Y-10691666D01*
X172584821Y-10739285D01*
X172680059Y-10786904D01*
X172918154Y-10786904D01*
X173013392Y-10739285D01*
X173061011Y-10691666D01*
X173108630Y-10596428D01*
X173108630Y-10310714D01*
X173061011Y-10215476D01*
X173013392Y-10167857D01*
%TO.C,D41*%
X168346130Y-65523214D02*
X167346130Y-65523214D01*
X167346130Y-65761309D01*
X167393750Y-65904166D01*
X167488988Y-65999404D01*
X167584226Y-66047023D01*
X167774702Y-66094642D01*
X167917559Y-66094642D01*
X168108035Y-66047023D01*
X168203273Y-65999404D01*
X168298511Y-65904166D01*
X168346130Y-65761309D01*
X168346130Y-65523214D01*
X167679464Y-66951785D02*
X168346130Y-66951785D01*
X167298511Y-66713690D02*
X168012797Y-66475595D01*
X168012797Y-67094642D01*
X168346130Y-67999404D02*
X168346130Y-67427976D01*
X168346130Y-67713690D02*
X167346130Y-67713690D01*
X167488988Y-67618452D01*
X167584226Y-67523214D01*
X167631845Y-67427976D01*
%TO.C,D40*%
X163583630Y-46410714D02*
X162583630Y-46410714D01*
X162583630Y-46648809D01*
X162631250Y-46791666D01*
X162726488Y-46886904D01*
X162821726Y-46934523D01*
X163012202Y-46982142D01*
X163155059Y-46982142D01*
X163345535Y-46934523D01*
X163440773Y-46886904D01*
X163536011Y-46791666D01*
X163583630Y-46648809D01*
X163583630Y-46410714D01*
X162916964Y-47839285D02*
X163583630Y-47839285D01*
X162536011Y-47601190D02*
X163250297Y-47363095D01*
X163250297Y-47982142D01*
X162583630Y-48553571D02*
X162583630Y-48648809D01*
X162631250Y-48744047D01*
X162678869Y-48791666D01*
X162774107Y-48839285D01*
X162964583Y-48886904D01*
X163202678Y-48886904D01*
X163393154Y-48839285D01*
X163488392Y-48791666D01*
X163536011Y-48744047D01*
X163583630Y-48648809D01*
X163583630Y-48553571D01*
X163536011Y-48458333D01*
X163488392Y-48410714D01*
X163393154Y-48363095D01*
X163202678Y-48315476D01*
X162964583Y-48315476D01*
X162774107Y-48363095D01*
X162678869Y-48410714D01*
X162631250Y-48458333D01*
X162583630Y-48553571D01*
%TO.C,D39*%
X154058630Y-27360714D02*
X153058630Y-27360714D01*
X153058630Y-27598809D01*
X153106250Y-27741666D01*
X153201488Y-27836904D01*
X153296726Y-27884523D01*
X153487202Y-27932142D01*
X153630059Y-27932142D01*
X153820535Y-27884523D01*
X153915773Y-27836904D01*
X154011011Y-27741666D01*
X154058630Y-27598809D01*
X154058630Y-27360714D01*
X153058630Y-28265476D02*
X153058630Y-28884523D01*
X153439583Y-28551190D01*
X153439583Y-28694047D01*
X153487202Y-28789285D01*
X153534821Y-28836904D01*
X153630059Y-28884523D01*
X153868154Y-28884523D01*
X153963392Y-28836904D01*
X154011011Y-28789285D01*
X154058630Y-28694047D01*
X154058630Y-28408333D01*
X154011011Y-28313095D01*
X153963392Y-28265476D01*
X154058630Y-29360714D02*
X154058630Y-29551190D01*
X154011011Y-29646428D01*
X153963392Y-29694047D01*
X153820535Y-29789285D01*
X153630059Y-29836904D01*
X153249107Y-29836904D01*
X153153869Y-29789285D01*
X153106250Y-29741666D01*
X153058630Y-29646428D01*
X153058630Y-29455952D01*
X153106250Y-29360714D01*
X153153869Y-29313095D01*
X153249107Y-29265476D01*
X153487202Y-29265476D01*
X153582440Y-29313095D01*
X153630059Y-29360714D01*
X153677678Y-29455952D01*
X153677678Y-29646428D01*
X153630059Y-29741666D01*
X153582440Y-29789285D01*
X153487202Y-29836904D01*
%TO.C,D38*%
X144533630Y-8310714D02*
X143533630Y-8310714D01*
X143533630Y-8548809D01*
X143581250Y-8691666D01*
X143676488Y-8786904D01*
X143771726Y-8834523D01*
X143962202Y-8882142D01*
X144105059Y-8882142D01*
X144295535Y-8834523D01*
X144390773Y-8786904D01*
X144486011Y-8691666D01*
X144533630Y-8548809D01*
X144533630Y-8310714D01*
X143533630Y-9215476D02*
X143533630Y-9834523D01*
X143914583Y-9501190D01*
X143914583Y-9644047D01*
X143962202Y-9739285D01*
X144009821Y-9786904D01*
X144105059Y-9834523D01*
X144343154Y-9834523D01*
X144438392Y-9786904D01*
X144486011Y-9739285D01*
X144533630Y-9644047D01*
X144533630Y-9358333D01*
X144486011Y-9263095D01*
X144438392Y-9215476D01*
X143962202Y-10405952D02*
X143914583Y-10310714D01*
X143866964Y-10263095D01*
X143771726Y-10215476D01*
X143724107Y-10215476D01*
X143628869Y-10263095D01*
X143581250Y-10310714D01*
X143533630Y-10405952D01*
X143533630Y-10596428D01*
X143581250Y-10691666D01*
X143628869Y-10739285D01*
X143724107Y-10786904D01*
X143771726Y-10786904D01*
X143866964Y-10739285D01*
X143914583Y-10691666D01*
X143962202Y-10596428D01*
X143962202Y-10405952D01*
X144009821Y-10310714D01*
X144057440Y-10263095D01*
X144152678Y-10215476D01*
X144343154Y-10215476D01*
X144438392Y-10263095D01*
X144486011Y-10310714D01*
X144533630Y-10405952D01*
X144533630Y-10596428D01*
X144486011Y-10691666D01*
X144438392Y-10739285D01*
X144343154Y-10786904D01*
X144152678Y-10786904D01*
X144057440Y-10739285D01*
X144009821Y-10691666D01*
X143962202Y-10596428D01*
%TO.C,D37*%
X158821130Y-84510714D02*
X157821130Y-84510714D01*
X157821130Y-84748809D01*
X157868750Y-84891666D01*
X157963988Y-84986904D01*
X158059226Y-85034523D01*
X158249702Y-85082142D01*
X158392559Y-85082142D01*
X158583035Y-85034523D01*
X158678273Y-84986904D01*
X158773511Y-84891666D01*
X158821130Y-84748809D01*
X158821130Y-84510714D01*
X157821130Y-85415476D02*
X157821130Y-86034523D01*
X158202083Y-85701190D01*
X158202083Y-85844047D01*
X158249702Y-85939285D01*
X158297321Y-85986904D01*
X158392559Y-86034523D01*
X158630654Y-86034523D01*
X158725892Y-85986904D01*
X158773511Y-85939285D01*
X158821130Y-85844047D01*
X158821130Y-85558333D01*
X158773511Y-85463095D01*
X158725892Y-85415476D01*
X157821130Y-86367857D02*
X157821130Y-87034523D01*
X158821130Y-86605952D01*
%TO.C,D36*%
X149296130Y-65460714D02*
X148296130Y-65460714D01*
X148296130Y-65698809D01*
X148343750Y-65841666D01*
X148438988Y-65936904D01*
X148534226Y-65984523D01*
X148724702Y-66032142D01*
X148867559Y-66032142D01*
X149058035Y-65984523D01*
X149153273Y-65936904D01*
X149248511Y-65841666D01*
X149296130Y-65698809D01*
X149296130Y-65460714D01*
X148296130Y-66365476D02*
X148296130Y-66984523D01*
X148677083Y-66651190D01*
X148677083Y-66794047D01*
X148724702Y-66889285D01*
X148772321Y-66936904D01*
X148867559Y-66984523D01*
X149105654Y-66984523D01*
X149200892Y-66936904D01*
X149248511Y-66889285D01*
X149296130Y-66794047D01*
X149296130Y-66508333D01*
X149248511Y-66413095D01*
X149200892Y-66365476D01*
X148296130Y-67841666D02*
X148296130Y-67651190D01*
X148343750Y-67555952D01*
X148391369Y-67508333D01*
X148534226Y-67413095D01*
X148724702Y-67365476D01*
X149105654Y-67365476D01*
X149200892Y-67413095D01*
X149248511Y-67460714D01*
X149296130Y-67555952D01*
X149296130Y-67746428D01*
X149248511Y-67841666D01*
X149200892Y-67889285D01*
X149105654Y-67936904D01*
X148867559Y-67936904D01*
X148772321Y-67889285D01*
X148724702Y-67841666D01*
X148677083Y-67746428D01*
X148677083Y-67555952D01*
X148724702Y-67460714D01*
X148772321Y-67413095D01*
X148867559Y-67365476D01*
%TO.C,D35*%
X144533630Y-46410714D02*
X143533630Y-46410714D01*
X143533630Y-46648809D01*
X143581250Y-46791666D01*
X143676488Y-46886904D01*
X143771726Y-46934523D01*
X143962202Y-46982142D01*
X144105059Y-46982142D01*
X144295535Y-46934523D01*
X144390773Y-46886904D01*
X144486011Y-46791666D01*
X144533630Y-46648809D01*
X144533630Y-46410714D01*
X143533630Y-47315476D02*
X143533630Y-47934523D01*
X143914583Y-47601190D01*
X143914583Y-47744047D01*
X143962202Y-47839285D01*
X144009821Y-47886904D01*
X144105059Y-47934523D01*
X144343154Y-47934523D01*
X144438392Y-47886904D01*
X144486011Y-47839285D01*
X144533630Y-47744047D01*
X144533630Y-47458333D01*
X144486011Y-47363095D01*
X144438392Y-47315476D01*
X143533630Y-48839285D02*
X143533630Y-48363095D01*
X144009821Y-48315476D01*
X143962202Y-48363095D01*
X143914583Y-48458333D01*
X143914583Y-48696428D01*
X143962202Y-48791666D01*
X144009821Y-48839285D01*
X144105059Y-48886904D01*
X144343154Y-48886904D01*
X144438392Y-48839285D01*
X144486011Y-48791666D01*
X144533630Y-48696428D01*
X144533630Y-48458333D01*
X144486011Y-48363095D01*
X144438392Y-48315476D01*
%TO.C,D34*%
X135008630Y-27360714D02*
X134008630Y-27360714D01*
X134008630Y-27598809D01*
X134056250Y-27741666D01*
X134151488Y-27836904D01*
X134246726Y-27884523D01*
X134437202Y-27932142D01*
X134580059Y-27932142D01*
X134770535Y-27884523D01*
X134865773Y-27836904D01*
X134961011Y-27741666D01*
X135008630Y-27598809D01*
X135008630Y-27360714D01*
X134008630Y-28265476D02*
X134008630Y-28884523D01*
X134389583Y-28551190D01*
X134389583Y-28694047D01*
X134437202Y-28789285D01*
X134484821Y-28836904D01*
X134580059Y-28884523D01*
X134818154Y-28884523D01*
X134913392Y-28836904D01*
X134961011Y-28789285D01*
X135008630Y-28694047D01*
X135008630Y-28408333D01*
X134961011Y-28313095D01*
X134913392Y-28265476D01*
X134341964Y-29741666D02*
X135008630Y-29741666D01*
X133961011Y-29503571D02*
X134675297Y-29265476D01*
X134675297Y-29884523D01*
%TO.C,D33*%
X125483630Y-8310714D02*
X124483630Y-8310714D01*
X124483630Y-8548809D01*
X124531250Y-8691666D01*
X124626488Y-8786904D01*
X124721726Y-8834523D01*
X124912202Y-8882142D01*
X125055059Y-8882142D01*
X125245535Y-8834523D01*
X125340773Y-8786904D01*
X125436011Y-8691666D01*
X125483630Y-8548809D01*
X125483630Y-8310714D01*
X124483630Y-9215476D02*
X124483630Y-9834523D01*
X124864583Y-9501190D01*
X124864583Y-9644047D01*
X124912202Y-9739285D01*
X124959821Y-9786904D01*
X125055059Y-9834523D01*
X125293154Y-9834523D01*
X125388392Y-9786904D01*
X125436011Y-9739285D01*
X125483630Y-9644047D01*
X125483630Y-9358333D01*
X125436011Y-9263095D01*
X125388392Y-9215476D01*
X124483630Y-10167857D02*
X124483630Y-10786904D01*
X124864583Y-10453571D01*
X124864583Y-10596428D01*
X124912202Y-10691666D01*
X124959821Y-10739285D01*
X125055059Y-10786904D01*
X125293154Y-10786904D01*
X125388392Y-10739285D01*
X125436011Y-10691666D01*
X125483630Y-10596428D01*
X125483630Y-10310714D01*
X125436011Y-10215476D01*
X125388392Y-10167857D01*
%TO.C,D32*%
X150089880Y-103560714D02*
X149089880Y-103560714D01*
X149089880Y-103798809D01*
X149137500Y-103941666D01*
X149232738Y-104036904D01*
X149327976Y-104084523D01*
X149518452Y-104132142D01*
X149661309Y-104132142D01*
X149851785Y-104084523D01*
X149947023Y-104036904D01*
X150042261Y-103941666D01*
X150089880Y-103798809D01*
X150089880Y-103560714D01*
X149089880Y-104465476D02*
X149089880Y-105084523D01*
X149470833Y-104751190D01*
X149470833Y-104894047D01*
X149518452Y-104989285D01*
X149566071Y-105036904D01*
X149661309Y-105084523D01*
X149899404Y-105084523D01*
X149994642Y-105036904D01*
X150042261Y-104989285D01*
X150089880Y-104894047D01*
X150089880Y-104608333D01*
X150042261Y-104513095D01*
X149994642Y-104465476D01*
X149185119Y-105465476D02*
X149137500Y-105513095D01*
X149089880Y-105608333D01*
X149089880Y-105846428D01*
X149137500Y-105941666D01*
X149185119Y-105989285D01*
X149280357Y-106036904D01*
X149375595Y-106036904D01*
X149518452Y-105989285D01*
X150089880Y-105417857D01*
X150089880Y-106036904D01*
%TO.C,D31*%
X139771130Y-84510714D02*
X138771130Y-84510714D01*
X138771130Y-84748809D01*
X138818750Y-84891666D01*
X138913988Y-84986904D01*
X139009226Y-85034523D01*
X139199702Y-85082142D01*
X139342559Y-85082142D01*
X139533035Y-85034523D01*
X139628273Y-84986904D01*
X139723511Y-84891666D01*
X139771130Y-84748809D01*
X139771130Y-84510714D01*
X138771130Y-85415476D02*
X138771130Y-86034523D01*
X139152083Y-85701190D01*
X139152083Y-85844047D01*
X139199702Y-85939285D01*
X139247321Y-85986904D01*
X139342559Y-86034523D01*
X139580654Y-86034523D01*
X139675892Y-85986904D01*
X139723511Y-85939285D01*
X139771130Y-85844047D01*
X139771130Y-85558333D01*
X139723511Y-85463095D01*
X139675892Y-85415476D01*
X139771130Y-86986904D02*
X139771130Y-86415476D01*
X139771130Y-86701190D02*
X138771130Y-86701190D01*
X138913988Y-86605952D01*
X139009226Y-86510714D01*
X139056845Y-86415476D01*
%TO.C,D30*%
X130246130Y-65460714D02*
X129246130Y-65460714D01*
X129246130Y-65698809D01*
X129293750Y-65841666D01*
X129388988Y-65936904D01*
X129484226Y-65984523D01*
X129674702Y-66032142D01*
X129817559Y-66032142D01*
X130008035Y-65984523D01*
X130103273Y-65936904D01*
X130198511Y-65841666D01*
X130246130Y-65698809D01*
X130246130Y-65460714D01*
X129246130Y-66365476D02*
X129246130Y-66984523D01*
X129627083Y-66651190D01*
X129627083Y-66794047D01*
X129674702Y-66889285D01*
X129722321Y-66936904D01*
X129817559Y-66984523D01*
X130055654Y-66984523D01*
X130150892Y-66936904D01*
X130198511Y-66889285D01*
X130246130Y-66794047D01*
X130246130Y-66508333D01*
X130198511Y-66413095D01*
X130150892Y-66365476D01*
X129246130Y-67603571D02*
X129246130Y-67698809D01*
X129293750Y-67794047D01*
X129341369Y-67841666D01*
X129436607Y-67889285D01*
X129627083Y-67936904D01*
X129865178Y-67936904D01*
X130055654Y-67889285D01*
X130150892Y-67841666D01*
X130198511Y-67794047D01*
X130246130Y-67698809D01*
X130246130Y-67603571D01*
X130198511Y-67508333D01*
X130150892Y-67460714D01*
X130055654Y-67413095D01*
X129865178Y-67365476D01*
X129627083Y-67365476D01*
X129436607Y-67413095D01*
X129341369Y-67460714D01*
X129293750Y-67508333D01*
X129246130Y-67603571D01*
%TO.C,D29*%
X125483630Y-46410714D02*
X124483630Y-46410714D01*
X124483630Y-46648809D01*
X124531250Y-46791666D01*
X124626488Y-46886904D01*
X124721726Y-46934523D01*
X124912202Y-46982142D01*
X125055059Y-46982142D01*
X125245535Y-46934523D01*
X125340773Y-46886904D01*
X125436011Y-46791666D01*
X125483630Y-46648809D01*
X125483630Y-46410714D01*
X124578869Y-47363095D02*
X124531250Y-47410714D01*
X124483630Y-47505952D01*
X124483630Y-47744047D01*
X124531250Y-47839285D01*
X124578869Y-47886904D01*
X124674107Y-47934523D01*
X124769345Y-47934523D01*
X124912202Y-47886904D01*
X125483630Y-47315476D01*
X125483630Y-47934523D01*
X125483630Y-48410714D02*
X125483630Y-48601190D01*
X125436011Y-48696428D01*
X125388392Y-48744047D01*
X125245535Y-48839285D01*
X125055059Y-48886904D01*
X124674107Y-48886904D01*
X124578869Y-48839285D01*
X124531250Y-48791666D01*
X124483630Y-48696428D01*
X124483630Y-48505952D01*
X124531250Y-48410714D01*
X124578869Y-48363095D01*
X124674107Y-48315476D01*
X124912202Y-48315476D01*
X125007440Y-48363095D01*
X125055059Y-48410714D01*
X125102678Y-48505952D01*
X125102678Y-48696428D01*
X125055059Y-48791666D01*
X125007440Y-48839285D01*
X124912202Y-48886904D01*
%TO.C,D28*%
X115958630Y-27360714D02*
X114958630Y-27360714D01*
X114958630Y-27598809D01*
X115006250Y-27741666D01*
X115101488Y-27836904D01*
X115196726Y-27884523D01*
X115387202Y-27932142D01*
X115530059Y-27932142D01*
X115720535Y-27884523D01*
X115815773Y-27836904D01*
X115911011Y-27741666D01*
X115958630Y-27598809D01*
X115958630Y-27360714D01*
X115053869Y-28313095D02*
X115006250Y-28360714D01*
X114958630Y-28455952D01*
X114958630Y-28694047D01*
X115006250Y-28789285D01*
X115053869Y-28836904D01*
X115149107Y-28884523D01*
X115244345Y-28884523D01*
X115387202Y-28836904D01*
X115958630Y-28265476D01*
X115958630Y-28884523D01*
X115387202Y-29455952D02*
X115339583Y-29360714D01*
X115291964Y-29313095D01*
X115196726Y-29265476D01*
X115149107Y-29265476D01*
X115053869Y-29313095D01*
X115006250Y-29360714D01*
X114958630Y-29455952D01*
X114958630Y-29646428D01*
X115006250Y-29741666D01*
X115053869Y-29789285D01*
X115149107Y-29836904D01*
X115196726Y-29836904D01*
X115291964Y-29789285D01*
X115339583Y-29741666D01*
X115387202Y-29646428D01*
X115387202Y-29455952D01*
X115434821Y-29360714D01*
X115482440Y-29313095D01*
X115577678Y-29265476D01*
X115768154Y-29265476D01*
X115863392Y-29313095D01*
X115911011Y-29360714D01*
X115958630Y-29455952D01*
X115958630Y-29646428D01*
X115911011Y-29741666D01*
X115863392Y-29789285D01*
X115768154Y-29836904D01*
X115577678Y-29836904D01*
X115482440Y-29789285D01*
X115434821Y-29741666D01*
X115387202Y-29646428D01*
%TO.C,D27*%
X106433630Y-8310714D02*
X105433630Y-8310714D01*
X105433630Y-8548809D01*
X105481250Y-8691666D01*
X105576488Y-8786904D01*
X105671726Y-8834523D01*
X105862202Y-8882142D01*
X106005059Y-8882142D01*
X106195535Y-8834523D01*
X106290773Y-8786904D01*
X106386011Y-8691666D01*
X106433630Y-8548809D01*
X106433630Y-8310714D01*
X105528869Y-9263095D02*
X105481250Y-9310714D01*
X105433630Y-9405952D01*
X105433630Y-9644047D01*
X105481250Y-9739285D01*
X105528869Y-9786904D01*
X105624107Y-9834523D01*
X105719345Y-9834523D01*
X105862202Y-9786904D01*
X106433630Y-9215476D01*
X106433630Y-9834523D01*
X105433630Y-10167857D02*
X105433630Y-10834523D01*
X106433630Y-10405952D01*
%TO.C,D26*%
X120721130Y-84510714D02*
X119721130Y-84510714D01*
X119721130Y-84748809D01*
X119768750Y-84891666D01*
X119863988Y-84986904D01*
X119959226Y-85034523D01*
X120149702Y-85082142D01*
X120292559Y-85082142D01*
X120483035Y-85034523D01*
X120578273Y-84986904D01*
X120673511Y-84891666D01*
X120721130Y-84748809D01*
X120721130Y-84510714D01*
X119816369Y-85463095D02*
X119768750Y-85510714D01*
X119721130Y-85605952D01*
X119721130Y-85844047D01*
X119768750Y-85939285D01*
X119816369Y-85986904D01*
X119911607Y-86034523D01*
X120006845Y-86034523D01*
X120149702Y-85986904D01*
X120721130Y-85415476D01*
X120721130Y-86034523D01*
X119721130Y-86891666D02*
X119721130Y-86701190D01*
X119768750Y-86605952D01*
X119816369Y-86558333D01*
X119959226Y-86463095D01*
X120149702Y-86415476D01*
X120530654Y-86415476D01*
X120625892Y-86463095D01*
X120673511Y-86510714D01*
X120721130Y-86605952D01*
X120721130Y-86796428D01*
X120673511Y-86891666D01*
X120625892Y-86939285D01*
X120530654Y-86986904D01*
X120292559Y-86986904D01*
X120197321Y-86939285D01*
X120149702Y-86891666D01*
X120102083Y-86796428D01*
X120102083Y-86605952D01*
X120149702Y-86510714D01*
X120197321Y-86463095D01*
X120292559Y-86415476D01*
%TO.C,D25*%
X111196130Y-65460714D02*
X110196130Y-65460714D01*
X110196130Y-65698809D01*
X110243750Y-65841666D01*
X110338988Y-65936904D01*
X110434226Y-65984523D01*
X110624702Y-66032142D01*
X110767559Y-66032142D01*
X110958035Y-65984523D01*
X111053273Y-65936904D01*
X111148511Y-65841666D01*
X111196130Y-65698809D01*
X111196130Y-65460714D01*
X110291369Y-66413095D02*
X110243750Y-66460714D01*
X110196130Y-66555952D01*
X110196130Y-66794047D01*
X110243750Y-66889285D01*
X110291369Y-66936904D01*
X110386607Y-66984523D01*
X110481845Y-66984523D01*
X110624702Y-66936904D01*
X111196130Y-66365476D01*
X111196130Y-66984523D01*
X110196130Y-67889285D02*
X110196130Y-67413095D01*
X110672321Y-67365476D01*
X110624702Y-67413095D01*
X110577083Y-67508333D01*
X110577083Y-67746428D01*
X110624702Y-67841666D01*
X110672321Y-67889285D01*
X110767559Y-67936904D01*
X111005654Y-67936904D01*
X111100892Y-67889285D01*
X111148511Y-67841666D01*
X111196130Y-67746428D01*
X111196130Y-67508333D01*
X111148511Y-67413095D01*
X111100892Y-67365476D01*
%TO.C,D24*%
X106433630Y-46410714D02*
X105433630Y-46410714D01*
X105433630Y-46648809D01*
X105481250Y-46791666D01*
X105576488Y-46886904D01*
X105671726Y-46934523D01*
X105862202Y-46982142D01*
X106005059Y-46982142D01*
X106195535Y-46934523D01*
X106290773Y-46886904D01*
X106386011Y-46791666D01*
X106433630Y-46648809D01*
X106433630Y-46410714D01*
X105528869Y-47363095D02*
X105481250Y-47410714D01*
X105433630Y-47505952D01*
X105433630Y-47744047D01*
X105481250Y-47839285D01*
X105528869Y-47886904D01*
X105624107Y-47934523D01*
X105719345Y-47934523D01*
X105862202Y-47886904D01*
X106433630Y-47315476D01*
X106433630Y-47934523D01*
X105766964Y-48791666D02*
X106433630Y-48791666D01*
X105386011Y-48553571D02*
X106100297Y-48315476D01*
X106100297Y-48934523D01*
%TO.C,D23*%
X96908630Y-27360714D02*
X95908630Y-27360714D01*
X95908630Y-27598809D01*
X95956250Y-27741666D01*
X96051488Y-27836904D01*
X96146726Y-27884523D01*
X96337202Y-27932142D01*
X96480059Y-27932142D01*
X96670535Y-27884523D01*
X96765773Y-27836904D01*
X96861011Y-27741666D01*
X96908630Y-27598809D01*
X96908630Y-27360714D01*
X96003869Y-28313095D02*
X95956250Y-28360714D01*
X95908630Y-28455952D01*
X95908630Y-28694047D01*
X95956250Y-28789285D01*
X96003869Y-28836904D01*
X96099107Y-28884523D01*
X96194345Y-28884523D01*
X96337202Y-28836904D01*
X96908630Y-28265476D01*
X96908630Y-28884523D01*
X95908630Y-29217857D02*
X95908630Y-29836904D01*
X96289583Y-29503571D01*
X96289583Y-29646428D01*
X96337202Y-29741666D01*
X96384821Y-29789285D01*
X96480059Y-29836904D01*
X96718154Y-29836904D01*
X96813392Y-29789285D01*
X96861011Y-29741666D01*
X96908630Y-29646428D01*
X96908630Y-29360714D01*
X96861011Y-29265476D01*
X96813392Y-29217857D01*
%TO.C,D22*%
X87383630Y-8310714D02*
X86383630Y-8310714D01*
X86383630Y-8548809D01*
X86431250Y-8691666D01*
X86526488Y-8786904D01*
X86621726Y-8834523D01*
X86812202Y-8882142D01*
X86955059Y-8882142D01*
X87145535Y-8834523D01*
X87240773Y-8786904D01*
X87336011Y-8691666D01*
X87383630Y-8548809D01*
X87383630Y-8310714D01*
X86478869Y-9263095D02*
X86431250Y-9310714D01*
X86383630Y-9405952D01*
X86383630Y-9644047D01*
X86431250Y-9739285D01*
X86478869Y-9786904D01*
X86574107Y-9834523D01*
X86669345Y-9834523D01*
X86812202Y-9786904D01*
X87383630Y-9215476D01*
X87383630Y-9834523D01*
X86478869Y-10215476D02*
X86431250Y-10263095D01*
X86383630Y-10358333D01*
X86383630Y-10596428D01*
X86431250Y-10691666D01*
X86478869Y-10739285D01*
X86574107Y-10786904D01*
X86669345Y-10786904D01*
X86812202Y-10739285D01*
X87383630Y-10167857D01*
X87383630Y-10786904D01*
%TO.C,D21*%
X101671130Y-84510714D02*
X100671130Y-84510714D01*
X100671130Y-84748809D01*
X100718750Y-84891666D01*
X100813988Y-84986904D01*
X100909226Y-85034523D01*
X101099702Y-85082142D01*
X101242559Y-85082142D01*
X101433035Y-85034523D01*
X101528273Y-84986904D01*
X101623511Y-84891666D01*
X101671130Y-84748809D01*
X101671130Y-84510714D01*
X100766369Y-85463095D02*
X100718750Y-85510714D01*
X100671130Y-85605952D01*
X100671130Y-85844047D01*
X100718750Y-85939285D01*
X100766369Y-85986904D01*
X100861607Y-86034523D01*
X100956845Y-86034523D01*
X101099702Y-85986904D01*
X101671130Y-85415476D01*
X101671130Y-86034523D01*
X101671130Y-86986904D02*
X101671130Y-86415476D01*
X101671130Y-86701190D02*
X100671130Y-86701190D01*
X100813988Y-86605952D01*
X100909226Y-86510714D01*
X100956845Y-86415476D01*
%TO.C,D20*%
X92146130Y-65460714D02*
X91146130Y-65460714D01*
X91146130Y-65698809D01*
X91193750Y-65841666D01*
X91288988Y-65936904D01*
X91384226Y-65984523D01*
X91574702Y-66032142D01*
X91717559Y-66032142D01*
X91908035Y-65984523D01*
X92003273Y-65936904D01*
X92098511Y-65841666D01*
X92146130Y-65698809D01*
X92146130Y-65460714D01*
X91241369Y-66413095D02*
X91193750Y-66460714D01*
X91146130Y-66555952D01*
X91146130Y-66794047D01*
X91193750Y-66889285D01*
X91241369Y-66936904D01*
X91336607Y-66984523D01*
X91431845Y-66984523D01*
X91574702Y-66936904D01*
X92146130Y-66365476D01*
X92146130Y-66984523D01*
X91146130Y-67603571D02*
X91146130Y-67698809D01*
X91193750Y-67794047D01*
X91241369Y-67841666D01*
X91336607Y-67889285D01*
X91527083Y-67936904D01*
X91765178Y-67936904D01*
X91955654Y-67889285D01*
X92050892Y-67841666D01*
X92098511Y-67794047D01*
X92146130Y-67698809D01*
X92146130Y-67603571D01*
X92098511Y-67508333D01*
X92050892Y-67460714D01*
X91955654Y-67413095D01*
X91765178Y-67365476D01*
X91527083Y-67365476D01*
X91336607Y-67413095D01*
X91241369Y-67460714D01*
X91193750Y-67508333D01*
X91146130Y-67603571D01*
%TO.C,D19*%
X87383630Y-46410714D02*
X86383630Y-46410714D01*
X86383630Y-46648809D01*
X86431250Y-46791666D01*
X86526488Y-46886904D01*
X86621726Y-46934523D01*
X86812202Y-46982142D01*
X86955059Y-46982142D01*
X87145535Y-46934523D01*
X87240773Y-46886904D01*
X87336011Y-46791666D01*
X87383630Y-46648809D01*
X87383630Y-46410714D01*
X87383630Y-47934523D02*
X87383630Y-47363095D01*
X87383630Y-47648809D02*
X86383630Y-47648809D01*
X86526488Y-47553571D01*
X86621726Y-47458333D01*
X86669345Y-47363095D01*
X87383630Y-48410714D02*
X87383630Y-48601190D01*
X87336011Y-48696428D01*
X87288392Y-48744047D01*
X87145535Y-48839285D01*
X86955059Y-48886904D01*
X86574107Y-48886904D01*
X86478869Y-48839285D01*
X86431250Y-48791666D01*
X86383630Y-48696428D01*
X86383630Y-48505952D01*
X86431250Y-48410714D01*
X86478869Y-48363095D01*
X86574107Y-48315476D01*
X86812202Y-48315476D01*
X86907440Y-48363095D01*
X86955059Y-48410714D01*
X87002678Y-48505952D01*
X87002678Y-48696428D01*
X86955059Y-48791666D01*
X86907440Y-48839285D01*
X86812202Y-48886904D01*
%TO.C,D18*%
X77858630Y-27360714D02*
X76858630Y-27360714D01*
X76858630Y-27598809D01*
X76906250Y-27741666D01*
X77001488Y-27836904D01*
X77096726Y-27884523D01*
X77287202Y-27932142D01*
X77430059Y-27932142D01*
X77620535Y-27884523D01*
X77715773Y-27836904D01*
X77811011Y-27741666D01*
X77858630Y-27598809D01*
X77858630Y-27360714D01*
X77858630Y-28884523D02*
X77858630Y-28313095D01*
X77858630Y-28598809D02*
X76858630Y-28598809D01*
X77001488Y-28503571D01*
X77096726Y-28408333D01*
X77144345Y-28313095D01*
X77287202Y-29455952D02*
X77239583Y-29360714D01*
X77191964Y-29313095D01*
X77096726Y-29265476D01*
X77049107Y-29265476D01*
X76953869Y-29313095D01*
X76906250Y-29360714D01*
X76858630Y-29455952D01*
X76858630Y-29646428D01*
X76906250Y-29741666D01*
X76953869Y-29789285D01*
X77049107Y-29836904D01*
X77096726Y-29836904D01*
X77191964Y-29789285D01*
X77239583Y-29741666D01*
X77287202Y-29646428D01*
X77287202Y-29455952D01*
X77334821Y-29360714D01*
X77382440Y-29313095D01*
X77477678Y-29265476D01*
X77668154Y-29265476D01*
X77763392Y-29313095D01*
X77811011Y-29360714D01*
X77858630Y-29455952D01*
X77858630Y-29646428D01*
X77811011Y-29741666D01*
X77763392Y-29789285D01*
X77668154Y-29836904D01*
X77477678Y-29836904D01*
X77382440Y-29789285D01*
X77334821Y-29741666D01*
X77287202Y-29646428D01*
%TO.C,D17*%
X68333630Y-8310714D02*
X67333630Y-8310714D01*
X67333630Y-8548809D01*
X67381250Y-8691666D01*
X67476488Y-8786904D01*
X67571726Y-8834523D01*
X67762202Y-8882142D01*
X67905059Y-8882142D01*
X68095535Y-8834523D01*
X68190773Y-8786904D01*
X68286011Y-8691666D01*
X68333630Y-8548809D01*
X68333630Y-8310714D01*
X68333630Y-9834523D02*
X68333630Y-9263095D01*
X68333630Y-9548809D02*
X67333630Y-9548809D01*
X67476488Y-9453571D01*
X67571726Y-9358333D01*
X67619345Y-9263095D01*
X67333630Y-10167857D02*
X67333630Y-10834523D01*
X68333630Y-10405952D01*
%TO.C,D16*%
X82621130Y-84510714D02*
X81621130Y-84510714D01*
X81621130Y-84748809D01*
X81668750Y-84891666D01*
X81763988Y-84986904D01*
X81859226Y-85034523D01*
X82049702Y-85082142D01*
X82192559Y-85082142D01*
X82383035Y-85034523D01*
X82478273Y-84986904D01*
X82573511Y-84891666D01*
X82621130Y-84748809D01*
X82621130Y-84510714D01*
X82621130Y-86034523D02*
X82621130Y-85463095D01*
X82621130Y-85748809D02*
X81621130Y-85748809D01*
X81763988Y-85653571D01*
X81859226Y-85558333D01*
X81906845Y-85463095D01*
X81621130Y-86891666D02*
X81621130Y-86701190D01*
X81668750Y-86605952D01*
X81716369Y-86558333D01*
X81859226Y-86463095D01*
X82049702Y-86415476D01*
X82430654Y-86415476D01*
X82525892Y-86463095D01*
X82573511Y-86510714D01*
X82621130Y-86605952D01*
X82621130Y-86796428D01*
X82573511Y-86891666D01*
X82525892Y-86939285D01*
X82430654Y-86986904D01*
X82192559Y-86986904D01*
X82097321Y-86939285D01*
X82049702Y-86891666D01*
X82002083Y-86796428D01*
X82002083Y-86605952D01*
X82049702Y-86510714D01*
X82097321Y-86463095D01*
X82192559Y-86415476D01*
%TO.C,D15*%
X73096130Y-65460714D02*
X72096130Y-65460714D01*
X72096130Y-65698809D01*
X72143750Y-65841666D01*
X72238988Y-65936904D01*
X72334226Y-65984523D01*
X72524702Y-66032142D01*
X72667559Y-66032142D01*
X72858035Y-65984523D01*
X72953273Y-65936904D01*
X73048511Y-65841666D01*
X73096130Y-65698809D01*
X73096130Y-65460714D01*
X73096130Y-66984523D02*
X73096130Y-66413095D01*
X73096130Y-66698809D02*
X72096130Y-66698809D01*
X72238988Y-66603571D01*
X72334226Y-66508333D01*
X72381845Y-66413095D01*
X72096130Y-67889285D02*
X72096130Y-67413095D01*
X72572321Y-67365476D01*
X72524702Y-67413095D01*
X72477083Y-67508333D01*
X72477083Y-67746428D01*
X72524702Y-67841666D01*
X72572321Y-67889285D01*
X72667559Y-67936904D01*
X72905654Y-67936904D01*
X73000892Y-67889285D01*
X73048511Y-67841666D01*
X73096130Y-67746428D01*
X73096130Y-67508333D01*
X73048511Y-67413095D01*
X73000892Y-67365476D01*
%TO.C,D14*%
X68333630Y-46410714D02*
X67333630Y-46410714D01*
X67333630Y-46648809D01*
X67381250Y-46791666D01*
X67476488Y-46886904D01*
X67571726Y-46934523D01*
X67762202Y-46982142D01*
X67905059Y-46982142D01*
X68095535Y-46934523D01*
X68190773Y-46886904D01*
X68286011Y-46791666D01*
X68333630Y-46648809D01*
X68333630Y-46410714D01*
X68333630Y-47934523D02*
X68333630Y-47363095D01*
X68333630Y-47648809D02*
X67333630Y-47648809D01*
X67476488Y-47553571D01*
X67571726Y-47458333D01*
X67619345Y-47363095D01*
X67666964Y-48791666D02*
X68333630Y-48791666D01*
X67286011Y-48553571D02*
X68000297Y-48315476D01*
X68000297Y-48934523D01*
%TO.C,D13*%
X58808630Y-27360714D02*
X57808630Y-27360714D01*
X57808630Y-27598809D01*
X57856250Y-27741666D01*
X57951488Y-27836904D01*
X58046726Y-27884523D01*
X58237202Y-27932142D01*
X58380059Y-27932142D01*
X58570535Y-27884523D01*
X58665773Y-27836904D01*
X58761011Y-27741666D01*
X58808630Y-27598809D01*
X58808630Y-27360714D01*
X58808630Y-28884523D02*
X58808630Y-28313095D01*
X58808630Y-28598809D02*
X57808630Y-28598809D01*
X57951488Y-28503571D01*
X58046726Y-28408333D01*
X58094345Y-28313095D01*
X57808630Y-29217857D02*
X57808630Y-29836904D01*
X58189583Y-29503571D01*
X58189583Y-29646428D01*
X58237202Y-29741666D01*
X58284821Y-29789285D01*
X58380059Y-29836904D01*
X58618154Y-29836904D01*
X58713392Y-29789285D01*
X58761011Y-29741666D01*
X58808630Y-29646428D01*
X58808630Y-29360714D01*
X58761011Y-29265476D01*
X58713392Y-29217857D01*
%TO.C,D12*%
X49283630Y-8310714D02*
X48283630Y-8310714D01*
X48283630Y-8548809D01*
X48331250Y-8691666D01*
X48426488Y-8786904D01*
X48521726Y-8834523D01*
X48712202Y-8882142D01*
X48855059Y-8882142D01*
X49045535Y-8834523D01*
X49140773Y-8786904D01*
X49236011Y-8691666D01*
X49283630Y-8548809D01*
X49283630Y-8310714D01*
X49283630Y-9834523D02*
X49283630Y-9263095D01*
X49283630Y-9548809D02*
X48283630Y-9548809D01*
X48426488Y-9453571D01*
X48521726Y-9358333D01*
X48569345Y-9263095D01*
X48378869Y-10215476D02*
X48331250Y-10263095D01*
X48283630Y-10358333D01*
X48283630Y-10596428D01*
X48331250Y-10691666D01*
X48378869Y-10739285D01*
X48474107Y-10786904D01*
X48569345Y-10786904D01*
X48712202Y-10739285D01*
X49283630Y-10167857D01*
X49283630Y-10786904D01*
%TO.C,D11*%
X70714880Y-103560714D02*
X69714880Y-103560714D01*
X69714880Y-103798809D01*
X69762500Y-103941666D01*
X69857738Y-104036904D01*
X69952976Y-104084523D01*
X70143452Y-104132142D01*
X70286309Y-104132142D01*
X70476785Y-104084523D01*
X70572023Y-104036904D01*
X70667261Y-103941666D01*
X70714880Y-103798809D01*
X70714880Y-103560714D01*
X70714880Y-105084523D02*
X70714880Y-104513095D01*
X70714880Y-104798809D02*
X69714880Y-104798809D01*
X69857738Y-104703571D01*
X69952976Y-104608333D01*
X70000595Y-104513095D01*
X70714880Y-106036904D02*
X70714880Y-105465476D01*
X70714880Y-105751190D02*
X69714880Y-105751190D01*
X69857738Y-105655952D01*
X69952976Y-105560714D01*
X70000595Y-105465476D01*
%TO.C,D10*%
X63571130Y-84510714D02*
X62571130Y-84510714D01*
X62571130Y-84748809D01*
X62618750Y-84891666D01*
X62713988Y-84986904D01*
X62809226Y-85034523D01*
X62999702Y-85082142D01*
X63142559Y-85082142D01*
X63333035Y-85034523D01*
X63428273Y-84986904D01*
X63523511Y-84891666D01*
X63571130Y-84748809D01*
X63571130Y-84510714D01*
X63571130Y-86034523D02*
X63571130Y-85463095D01*
X63571130Y-85748809D02*
X62571130Y-85748809D01*
X62713988Y-85653571D01*
X62809226Y-85558333D01*
X62856845Y-85463095D01*
X62571130Y-86653571D02*
X62571130Y-86748809D01*
X62618750Y-86844047D01*
X62666369Y-86891666D01*
X62761607Y-86939285D01*
X62952083Y-86986904D01*
X63190178Y-86986904D01*
X63380654Y-86939285D01*
X63475892Y-86891666D01*
X63523511Y-86844047D01*
X63571130Y-86748809D01*
X63571130Y-86653571D01*
X63523511Y-86558333D01*
X63475892Y-86510714D01*
X63380654Y-86463095D01*
X63190178Y-86415476D01*
X62952083Y-86415476D01*
X62761607Y-86463095D01*
X62666369Y-86510714D01*
X62618750Y-86558333D01*
X62571130Y-86653571D01*
%TO.C,D9*%
X54046130Y-65936904D02*
X53046130Y-65936904D01*
X53046130Y-66175000D01*
X53093750Y-66317857D01*
X53188988Y-66413095D01*
X53284226Y-66460714D01*
X53474702Y-66508333D01*
X53617559Y-66508333D01*
X53808035Y-66460714D01*
X53903273Y-66413095D01*
X53998511Y-66317857D01*
X54046130Y-66175000D01*
X54046130Y-65936904D01*
X54046130Y-66984523D02*
X54046130Y-67175000D01*
X53998511Y-67270238D01*
X53950892Y-67317857D01*
X53808035Y-67413095D01*
X53617559Y-67460714D01*
X53236607Y-67460714D01*
X53141369Y-67413095D01*
X53093750Y-67365476D01*
X53046130Y-67270238D01*
X53046130Y-67079761D01*
X53093750Y-66984523D01*
X53141369Y-66936904D01*
X53236607Y-66889285D01*
X53474702Y-66889285D01*
X53569940Y-66936904D01*
X53617559Y-66984523D01*
X53665178Y-67079761D01*
X53665178Y-67270238D01*
X53617559Y-67365476D01*
X53569940Y-67413095D01*
X53474702Y-67460714D01*
%TO.C,D8*%
X49283630Y-46886904D02*
X48283630Y-46886904D01*
X48283630Y-47125000D01*
X48331250Y-47267857D01*
X48426488Y-47363095D01*
X48521726Y-47410714D01*
X48712202Y-47458333D01*
X48855059Y-47458333D01*
X49045535Y-47410714D01*
X49140773Y-47363095D01*
X49236011Y-47267857D01*
X49283630Y-47125000D01*
X49283630Y-46886904D01*
X48712202Y-48029761D02*
X48664583Y-47934523D01*
X48616964Y-47886904D01*
X48521726Y-47839285D01*
X48474107Y-47839285D01*
X48378869Y-47886904D01*
X48331250Y-47934523D01*
X48283630Y-48029761D01*
X48283630Y-48220238D01*
X48331250Y-48315476D01*
X48378869Y-48363095D01*
X48474107Y-48410714D01*
X48521726Y-48410714D01*
X48616964Y-48363095D01*
X48664583Y-48315476D01*
X48712202Y-48220238D01*
X48712202Y-48029761D01*
X48759821Y-47934523D01*
X48807440Y-47886904D01*
X48902678Y-47839285D01*
X49093154Y-47839285D01*
X49188392Y-47886904D01*
X49236011Y-47934523D01*
X49283630Y-48029761D01*
X49283630Y-48220238D01*
X49236011Y-48315476D01*
X49188392Y-48363095D01*
X49093154Y-48410714D01*
X48902678Y-48410714D01*
X48807440Y-48363095D01*
X48759821Y-48315476D01*
X48712202Y-48220238D01*
%TO.C,D7*%
X39758630Y-27836904D02*
X38758630Y-27836904D01*
X38758630Y-28075000D01*
X38806250Y-28217857D01*
X38901488Y-28313095D01*
X38996726Y-28360714D01*
X39187202Y-28408333D01*
X39330059Y-28408333D01*
X39520535Y-28360714D01*
X39615773Y-28313095D01*
X39711011Y-28217857D01*
X39758630Y-28075000D01*
X39758630Y-27836904D01*
X38758630Y-28741666D02*
X38758630Y-29408333D01*
X39758630Y-28979761D01*
%TO.C,D6*%
X46902380Y-104036904D02*
X45902380Y-104036904D01*
X45902380Y-104275000D01*
X45950000Y-104417857D01*
X46045238Y-104513095D01*
X46140476Y-104560714D01*
X46330952Y-104608333D01*
X46473809Y-104608333D01*
X46664285Y-104560714D01*
X46759523Y-104513095D01*
X46854761Y-104417857D01*
X46902380Y-104275000D01*
X46902380Y-104036904D01*
X45902380Y-105465476D02*
X45902380Y-105275000D01*
X45950000Y-105179761D01*
X45997619Y-105132142D01*
X46140476Y-105036904D01*
X46330952Y-104989285D01*
X46711904Y-104989285D01*
X46807142Y-105036904D01*
X46854761Y-105084523D01*
X46902380Y-105179761D01*
X46902380Y-105370238D01*
X46854761Y-105465476D01*
X46807142Y-105513095D01*
X46711904Y-105560714D01*
X46473809Y-105560714D01*
X46378571Y-105513095D01*
X46330952Y-105465476D01*
X46283333Y-105370238D01*
X46283333Y-105179761D01*
X46330952Y-105084523D01*
X46378571Y-105036904D01*
X46473809Y-104989285D01*
%TO.C,D5*%
X32614880Y-84986904D02*
X31614880Y-84986904D01*
X31614880Y-85225000D01*
X31662500Y-85367857D01*
X31757738Y-85463095D01*
X31852976Y-85510714D01*
X32043452Y-85558333D01*
X32186309Y-85558333D01*
X32376785Y-85510714D01*
X32472023Y-85463095D01*
X32567261Y-85367857D01*
X32614880Y-85225000D01*
X32614880Y-84986904D01*
X31614880Y-86463095D02*
X31614880Y-85986904D01*
X32091071Y-85939285D01*
X32043452Y-85986904D01*
X31995833Y-86082142D01*
X31995833Y-86320238D01*
X32043452Y-86415476D01*
X32091071Y-86463095D01*
X32186309Y-86510714D01*
X32424404Y-86510714D01*
X32519642Y-86463095D01*
X32567261Y-86415476D01*
X32614880Y-86320238D01*
X32614880Y-86082142D01*
X32567261Y-85986904D01*
X32519642Y-85939285D01*
%TO.C,D4*%
X27852380Y-65936904D02*
X26852380Y-65936904D01*
X26852380Y-66175000D01*
X26900000Y-66317857D01*
X26995238Y-66413095D01*
X27090476Y-66460714D01*
X27280952Y-66508333D01*
X27423809Y-66508333D01*
X27614285Y-66460714D01*
X27709523Y-66413095D01*
X27804761Y-66317857D01*
X27852380Y-66175000D01*
X27852380Y-65936904D01*
X27185714Y-67365476D02*
X27852380Y-67365476D01*
X26804761Y-67127380D02*
X27519047Y-66889285D01*
X27519047Y-67508333D01*
%TO.C,D3*%
X25471130Y-46886904D02*
X24471130Y-46886904D01*
X24471130Y-47125000D01*
X24518750Y-47267857D01*
X24613988Y-47363095D01*
X24709226Y-47410714D01*
X24899702Y-47458333D01*
X25042559Y-47458333D01*
X25233035Y-47410714D01*
X25328273Y-47363095D01*
X25423511Y-47267857D01*
X25471130Y-47125000D01*
X25471130Y-46886904D01*
X24471130Y-47791666D02*
X24471130Y-48410714D01*
X24852083Y-48077380D01*
X24852083Y-48220238D01*
X24899702Y-48315476D01*
X24947321Y-48363095D01*
X25042559Y-48410714D01*
X25280654Y-48410714D01*
X25375892Y-48363095D01*
X25423511Y-48315476D01*
X25471130Y-48220238D01*
X25471130Y-47934523D01*
X25423511Y-47839285D01*
X25375892Y-47791666D01*
%TO.C,D2*%
X20708630Y-27836904D02*
X19708630Y-27836904D01*
X19708630Y-28075000D01*
X19756250Y-28217857D01*
X19851488Y-28313095D01*
X19946726Y-28360714D01*
X20137202Y-28408333D01*
X20280059Y-28408333D01*
X20470535Y-28360714D01*
X20565773Y-28313095D01*
X20661011Y-28217857D01*
X20708630Y-28075000D01*
X20708630Y-27836904D01*
X19803869Y-28789285D02*
X19756250Y-28836904D01*
X19708630Y-28932142D01*
X19708630Y-29170238D01*
X19756250Y-29265476D01*
X19803869Y-29313095D01*
X19899107Y-29360714D01*
X19994345Y-29360714D01*
X20137202Y-29313095D01*
X20708630Y-28741666D01*
X20708630Y-29360714D01*
%TO.C,D1*%
X20708630Y-8786904D02*
X19708630Y-8786904D01*
X19708630Y-9025000D01*
X19756250Y-9167857D01*
X19851488Y-9263095D01*
X19946726Y-9310714D01*
X20137202Y-9358333D01*
X20280059Y-9358333D01*
X20470535Y-9310714D01*
X20565773Y-9263095D01*
X20661011Y-9167857D01*
X20708630Y-9025000D01*
X20708630Y-8786904D01*
X20708630Y-10310714D02*
X20708630Y-9739285D01*
X20708630Y-10025000D02*
X19708630Y-10025000D01*
X19851488Y-9929761D01*
X19946726Y-9834523D01*
X19994345Y-9739285D01*
%TO.C,C8*%
X302553356Y5551566D02*
X302553356Y5484223D01*
X302620700Y5349536D01*
X302688044Y5282192D01*
X302822731Y5214849D01*
X302957418Y5214849D01*
X303058433Y5248520D01*
X303226792Y5349536D01*
X303327807Y5450551D01*
X303428822Y5618910D01*
X303462494Y5719925D01*
X303462494Y5854612D01*
X303395150Y5989299D01*
X303327807Y6056643D01*
X303193120Y6123986D01*
X303125776Y6123986D01*
X302486013Y6292345D02*
X302587028Y6258673D01*
X302654372Y6258673D01*
X302755387Y6292345D01*
X302789059Y6326017D01*
X302822731Y6427032D01*
X302822731Y6494375D01*
X302789059Y6595391D01*
X302654372Y6730078D01*
X302553356Y6763749D01*
X302486013Y6763749D01*
X302384998Y6730078D01*
X302351326Y6696406D01*
X302317654Y6595391D01*
X302317654Y6528047D01*
X302351326Y6427032D01*
X302486013Y6292345D01*
X302519685Y6191330D01*
X302519685Y6123986D01*
X302486013Y6022971D01*
X302351326Y5888284D01*
X302250311Y5854612D01*
X302182967Y5854612D01*
X302081952Y5888284D01*
X301947265Y6022971D01*
X301913593Y6123986D01*
X301913593Y6191330D01*
X301947265Y6292345D01*
X302081952Y6427032D01*
X302182967Y6460704D01*
X302250311Y6460704D01*
X302351326Y6427032D01*
%TO.C,C7*%
X301378916Y-1785892D02*
X301426535Y-1833511D01*
X301569392Y-1881130D01*
X301664630Y-1881130D01*
X301807488Y-1833511D01*
X301902726Y-1738273D01*
X301950345Y-1643035D01*
X301997964Y-1452559D01*
X301997964Y-1309702D01*
X301950345Y-1119226D01*
X301902726Y-1023988D01*
X301807488Y-928750D01*
X301664630Y-881130D01*
X301569392Y-881130D01*
X301426535Y-928750D01*
X301378916Y-976369D01*
X301045583Y-881130D02*
X300378916Y-881130D01*
X300807488Y-1881130D01*
%TO.C,C6*%
X301378916Y-10167892D02*
X301426535Y-10215511D01*
X301569392Y-10263130D01*
X301664630Y-10263130D01*
X301807488Y-10215511D01*
X301902726Y-10120273D01*
X301950345Y-10025035D01*
X301997964Y-9834559D01*
X301997964Y-9691702D01*
X301950345Y-9501226D01*
X301902726Y-9405988D01*
X301807488Y-9310750D01*
X301664630Y-9263130D01*
X301569392Y-9263130D01*
X301426535Y-9310750D01*
X301378916Y-9358369D01*
X300521773Y-9263130D02*
X300712250Y-9263130D01*
X300807488Y-9310750D01*
X300855107Y-9358369D01*
X300950345Y-9501226D01*
X300997964Y-9691702D01*
X300997964Y-10072654D01*
X300950345Y-10167892D01*
X300902726Y-10215511D01*
X300807488Y-10263130D01*
X300617011Y-10263130D01*
X300521773Y-10215511D01*
X300474154Y-10167892D01*
X300426535Y-10072654D01*
X300426535Y-9834559D01*
X300474154Y-9739321D01*
X300521773Y-9691702D01*
X300617011Y-9644083D01*
X300807488Y-9644083D01*
X300902726Y-9691702D01*
X300950345Y-9739321D01*
X300997964Y-9834559D01*
%TO.C,C5*%
X319158916Y-14739892D02*
X319206535Y-14787511D01*
X319349392Y-14835130D01*
X319444630Y-14835130D01*
X319587488Y-14787511D01*
X319682726Y-14692273D01*
X319730345Y-14597035D01*
X319777964Y-14406559D01*
X319777964Y-14263702D01*
X319730345Y-14073226D01*
X319682726Y-13977988D01*
X319587488Y-13882750D01*
X319444630Y-13835130D01*
X319349392Y-13835130D01*
X319206535Y-13882750D01*
X319158916Y-13930369D01*
X318254154Y-13835130D02*
X318730345Y-13835130D01*
X318777964Y-14311321D01*
X318730345Y-14263702D01*
X318635107Y-14216083D01*
X318397011Y-14216083D01*
X318301773Y-14263702D01*
X318254154Y-14311321D01*
X318206535Y-14406559D01*
X318206535Y-14644654D01*
X318254154Y-14739892D01*
X318301773Y-14787511D01*
X318397011Y-14835130D01*
X318635107Y-14835130D01*
X318730345Y-14787511D01*
X318777964Y-14739892D01*
%TO.C,C4*%
X316523666Y7866107D02*
X316571285Y7818488D01*
X316714142Y7770869D01*
X316809380Y7770869D01*
X316952238Y7818488D01*
X317047476Y7913726D01*
X317095095Y8008964D01*
X317142714Y8199440D01*
X317142714Y8342297D01*
X317095095Y8532773D01*
X317047476Y8628011D01*
X316952238Y8723250D01*
X316809380Y8770869D01*
X316714142Y8770869D01*
X316571285Y8723250D01*
X316523666Y8675630D01*
X315666523Y8437535D02*
X315666523Y7770869D01*
X315904619Y8818488D02*
X316142714Y8104202D01*
X315523666Y8104202D01*
%TO.C,C3*%
X330017416Y-5627642D02*
X330065035Y-5675261D01*
X330207892Y-5722880D01*
X330303130Y-5722880D01*
X330445988Y-5675261D01*
X330541226Y-5580023D01*
X330588845Y-5484785D01*
X330636464Y-5294309D01*
X330636464Y-5151452D01*
X330588845Y-4960976D01*
X330541226Y-4865738D01*
X330445988Y-4770500D01*
X330303130Y-4722880D01*
X330207892Y-4722880D01*
X330065035Y-4770500D01*
X330017416Y-4818119D01*
X329684083Y-4722880D02*
X329065035Y-4722880D01*
X329398369Y-5103833D01*
X329255511Y-5103833D01*
X329160273Y-5151452D01*
X329112654Y-5199071D01*
X329065035Y-5294309D01*
X329065035Y-5532404D01*
X329112654Y-5627642D01*
X329160273Y-5675261D01*
X329255511Y-5722880D01*
X329541226Y-5722880D01*
X329636464Y-5675261D01*
X329684083Y-5627642D01*
%TO.C,C2*%
X329985666Y-7786642D02*
X330033285Y-7834261D01*
X330176142Y-7881880D01*
X330271380Y-7881880D01*
X330414238Y-7834261D01*
X330509476Y-7739023D01*
X330557095Y-7643785D01*
X330604714Y-7453309D01*
X330604714Y-7310452D01*
X330557095Y-7119976D01*
X330509476Y-7024738D01*
X330414238Y-6929500D01*
X330271380Y-6881880D01*
X330176142Y-6881880D01*
X330033285Y-6929500D01*
X329985666Y-6977119D01*
X329604714Y-6977119D02*
X329557095Y-6929500D01*
X329461857Y-6881880D01*
X329223761Y-6881880D01*
X329128523Y-6929500D01*
X329080904Y-6977119D01*
X329033285Y-7072357D01*
X329033285Y-7167595D01*
X329080904Y-7310452D01*
X329652333Y-7881880D01*
X329033285Y-7881880D01*
%TO.C,C1*%
X314364666Y7866107D02*
X314412285Y7818488D01*
X314555142Y7770869D01*
X314650380Y7770869D01*
X314793238Y7818488D01*
X314888476Y7913726D01*
X314936095Y8008964D01*
X314983714Y8199440D01*
X314983714Y8342297D01*
X314936095Y8532773D01*
X314888476Y8628011D01*
X314793238Y8723250D01*
X314650380Y8770869D01*
X314555142Y8770869D01*
X314412285Y8723250D01*
X314364666Y8675630D01*
X313412285Y7770869D02*
X313983714Y7770869D01*
X313698000Y7770869D02*
X313698000Y8770869D01*
X313793238Y8628011D01*
X313888476Y8532773D01*
X313983714Y8485154D01*
%TD*%
M02*
