%TF.GenerationSoftware,KiCad,Pcbnew,5.1.9*%
%TF.CreationDate,2022-11-22T14:36:07-05:00*%
%TF.ProjectId,EKS1000-V4,454b5331-3030-4302-9d56-342e6b696361,rev?*%
%TF.SameCoordinates,Original*%
%TF.FileFunction,Copper,L2,Bot*%
%TF.FilePolarity,Positive*%
%FSLAX46Y46*%
G04 Gerber Fmt 4.6, Leading zero omitted, Abs format (unit mm)*
G04 Created by KiCad (PCBNEW 5.1.9) date 2022-11-22 14:36:07*
%MOMM*%
%LPD*%
G01*
G04 APERTURE LIST*
%TA.AperFunction,ComponentPad*%
%ADD10C,2.250000*%
%TD*%
%TA.AperFunction,ComponentPad*%
%ADD11O,1.000000X1.600000*%
%TD*%
%TA.AperFunction,ComponentPad*%
%ADD12O,1.000000X2.100000*%
%TD*%
%TA.AperFunction,SMDPad,CuDef*%
%ADD13R,0.300000X1.450000*%
%TD*%
%TA.AperFunction,SMDPad,CuDef*%
%ADD14R,0.600000X1.450000*%
%TD*%
%TA.AperFunction,ComponentPad*%
%ADD15R,1.905000X1.905000*%
%TD*%
%TA.AperFunction,ComponentPad*%
%ADD16C,1.905000*%
%TD*%
%TA.AperFunction,SMDPad,CuDef*%
%ADD17R,0.700000X1.000000*%
%TD*%
%TA.AperFunction,SMDPad,CuDef*%
%ADD18R,0.700000X0.600000*%
%TD*%
%TA.AperFunction,SMDPad,CuDef*%
%ADD19R,1.200000X1.400000*%
%TD*%
%TA.AperFunction,SMDPad,CuDef*%
%ADD20R,1.500000X0.550000*%
%TD*%
%TA.AperFunction,SMDPad,CuDef*%
%ADD21R,0.550000X1.500000*%
%TD*%
%TA.AperFunction,SMDPad,CuDef*%
%ADD22R,1.100000X1.800000*%
%TD*%
%TA.AperFunction,SMDPad,CuDef*%
%ADD23R,1.200000X0.900000*%
%TD*%
%TA.AperFunction,ViaPad*%
%ADD24C,0.800000*%
%TD*%
%TA.AperFunction,Conductor*%
%ADD25C,0.254000*%
%TD*%
%TA.AperFunction,Conductor*%
%ADD26C,0.381000*%
%TD*%
%TA.AperFunction,Conductor*%
%ADD27C,0.250000*%
%TD*%
%TA.AperFunction,Conductor*%
%ADD28C,0.200000*%
%TD*%
%TA.AperFunction,Conductor*%
%ADD29C,0.100000*%
%TD*%
G04 APERTURE END LIST*
D10*
%TO.P,MX78,2*%
%TO.N,Net-(D78-Pad2)*%
X326390000Y-23495000D03*
%TO.P,MX78,1*%
%TO.N,COL8*%
X320040000Y-26035000D03*
%TD*%
D11*
%TO.P,J1,S1*%
%TO.N,GND*%
X314260198Y20417500D03*
X305620198Y20417500D03*
D12*
X305620198Y16237500D03*
X314260198Y16237500D03*
D13*
%TO.P,J1,A6*%
%TO.N,/DP*%
X309690198Y15322500D03*
%TO.P,J1,B5*%
%TO.N,Net-(J1-PadB5)*%
X311690198Y15322500D03*
%TO.P,J1,A8*%
%TO.N,Net-(J1-PadA8)*%
X311190198Y15322500D03*
%TO.P,J1,B6*%
%TO.N,/DP*%
X310690198Y15322500D03*
%TO.P,J1,A7*%
%TO.N,/DN*%
X310190198Y15322500D03*
%TO.P,J1,B7*%
X309190198Y15322500D03*
%TO.P,J1,A5*%
%TO.N,Net-(J1-PadA5)*%
X308690198Y15322500D03*
%TO.P,J1,B8*%
%TO.N,Net-(J1-PadB8)*%
X308190198Y15322500D03*
D14*
%TO.P,J1,A12*%
%TO.N,GND*%
X313190198Y15322500D03*
%TO.P,J1,B4*%
%TO.N,VCC*%
X312390198Y15322500D03*
%TO.P,J1,A4*%
X307490198Y15322500D03*
%TO.P,J1,A1*%
%TO.N,GND*%
X306690198Y15322500D03*
%TO.P,J1,B12*%
X306690198Y15322500D03*
%TO.P,J1,B9*%
%TO.N,VCC*%
X307490198Y15322500D03*
%TO.P,J1,A9*%
X312390198Y15322500D03*
%TO.P,J1,B1*%
%TO.N,GND*%
X313190198Y15322500D03*
%TD*%
%TO.P,R1,2*%
%TO.N,Net-(R1-Pad2)*%
%TA.AperFunction,SMDPad,CuDef*%
G36*
G01*
X322712502Y-266750D02*
X321812498Y-266750D01*
G75*
G02*
X321562500Y-16752I0J249998D01*
G01*
X321562500Y508252D01*
G75*
G02*
X321812498Y758250I249998J0D01*
G01*
X322712502Y758250D01*
G75*
G02*
X322962500Y508252I0J-249998D01*
G01*
X322962500Y-16752D01*
G75*
G02*
X322712502Y-266750I-249998J0D01*
G01*
G37*
%TD.AperFunction*%
%TO.P,R1,1*%
%TO.N,+5V*%
%TA.AperFunction,SMDPad,CuDef*%
G36*
G01*
X322712502Y-2091750D02*
X321812498Y-2091750D01*
G75*
G02*
X321562500Y-1841752I0J249998D01*
G01*
X321562500Y-1316748D01*
G75*
G02*
X321812498Y-1066750I249998J0D01*
G01*
X322712502Y-1066750D01*
G75*
G02*
X322962500Y-1316748I0J-249998D01*
G01*
X322962500Y-1841752D01*
G75*
G02*
X322712502Y-2091750I-249998J0D01*
G01*
G37*
%TD.AperFunction*%
%TD*%
D15*
%TO.P,MX4,4*%
%TO.N,CAPSGND*%
X21748750Y-65405000D03*
D16*
%TO.P,MX4,3*%
%TO.N,CAPSLED*%
X21748750Y-67945000D03*
D10*
%TO.P,MX4,1*%
%TO.N,COL0*%
X14128750Y-70485000D03*
%TO.P,MX4,2*%
%TO.N,Net-(D4-Pad2)*%
X11588750Y-64135000D03*
%TD*%
%TO.P,MX73,2*%
%TO.N,Net-(D73-Pad2)*%
X288290000Y-42545000D03*
%TO.P,MX73,1*%
%TO.N,COL7*%
X281940000Y-45085000D03*
%TD*%
%TO.P,MX70,1*%
%TO.N,COL6*%
X262890000Y-54610000D03*
%TO.P,MX70,2*%
%TO.N,Net-(D70-Pad2)*%
X269240000Y-52070000D03*
%TD*%
%TO.P,MX41,2*%
%TO.N,Net-(D41-Pad2)*%
X159702500Y-61595000D03*
%TO.P,MX41,1*%
%TO.N,COL3*%
X153352500Y-64135000D03*
%TD*%
D17*
%TO.P,U2,1*%
%TO.N,GND*%
X310945250Y12211750D03*
D18*
%TO.P,U2,4*%
%TO.N,VCC*%
X308945250Y12411750D03*
%TO.P,U2,2*%
%TO.N,/DP*%
X310945250Y10511750D03*
%TO.P,U2,3*%
%TO.N,/DN*%
X308945250Y10511750D03*
%TD*%
D10*
%TO.P,MX6,2*%
%TO.N,Net-(D6-Pad2)*%
X38258750Y-99695000D03*
%TO.P,MX6,1*%
%TO.N,COL0*%
X31908750Y-102235000D03*
%TD*%
D19*
%TO.P,Y1,4*%
%TO.N,GND*%
X323906250Y-7450000D03*
%TO.P,Y1,3*%
%TO.N,Net-(C3-Pad1)*%
X323906250Y-5250000D03*
%TO.P,Y1,2*%
%TO.N,GND*%
X322206250Y-5250000D03*
%TO.P,Y1,1*%
%TO.N,Net-(C2-Pad1)*%
X322206250Y-7450000D03*
%TD*%
D20*
%TO.P,U1,44*%
%TO.N,+5V*%
X306243750Y-1556250D03*
%TO.P,U1,43*%
%TO.N,GND*%
X306243750Y-2356250D03*
%TO.P,U1,42*%
%TO.N,Net-(U1-Pad42)*%
X306243750Y-3156250D03*
%TO.P,U1,41*%
%TO.N,COL0*%
X306243750Y-3956250D03*
%TO.P,U1,40*%
%TO.N,COL1*%
X306243750Y-4756250D03*
%TO.P,U1,39*%
%TO.N,COL2*%
X306243750Y-5556250D03*
%TO.P,U1,38*%
%TO.N,COL3*%
X306243750Y-6356250D03*
%TO.P,U1,37*%
%TO.N,COL4*%
X306243750Y-7156250D03*
%TO.P,U1,36*%
%TO.N,COL5*%
X306243750Y-7956250D03*
%TO.P,U1,35*%
%TO.N,GND*%
X306243750Y-8756250D03*
%TO.P,U1,34*%
%TO.N,+5V*%
X306243750Y-9556250D03*
D21*
%TO.P,U1,33*%
%TO.N,Net-(R4-Pad2)*%
X307943750Y-11256250D03*
%TO.P,U1,32*%
%TO.N,COL6*%
X308743750Y-11256250D03*
%TO.P,U1,31*%
%TO.N,COL7*%
X309543750Y-11256250D03*
%TO.P,U1,30*%
%TO.N,ROW0*%
X310343750Y-11256250D03*
%TO.P,U1,29*%
%TO.N,ROW1*%
X311143750Y-11256250D03*
%TO.P,U1,28*%
%TO.N,ROW2*%
X311943750Y-11256250D03*
%TO.P,U1,27*%
%TO.N,ROW3*%
X312743750Y-11256250D03*
%TO.P,U1,26*%
%TO.N,ROW4*%
X313543750Y-11256250D03*
%TO.P,U1,25*%
%TO.N,ROW5*%
X314343750Y-11256250D03*
%TO.P,U1,24*%
%TO.N,+5V*%
X315143750Y-11256250D03*
%TO.P,U1,23*%
%TO.N,GND*%
X315943750Y-11256250D03*
D20*
%TO.P,U1,22*%
%TO.N,ROW6*%
X317643750Y-9556250D03*
%TO.P,U1,21*%
%TO.N,ROW7*%
X317643750Y-8756250D03*
%TO.P,U1,20*%
%TO.N,CAPSLED*%
X317643750Y-7956250D03*
%TO.P,U1,19*%
%TO.N,ROW8*%
X317643750Y-7156250D03*
%TO.P,U1,18*%
%TO.N,ROW9*%
X317643750Y-6356250D03*
%TO.P,U1,17*%
%TO.N,Net-(C2-Pad1)*%
X317643750Y-5556250D03*
%TO.P,U1,16*%
%TO.N,Net-(C3-Pad1)*%
X317643750Y-4756250D03*
%TO.P,U1,15*%
%TO.N,GND*%
X317643750Y-3956250D03*
%TO.P,U1,14*%
%TO.N,+5V*%
X317643750Y-3156250D03*
%TO.P,U1,13*%
%TO.N,Net-(R1-Pad2)*%
X317643750Y-2356250D03*
%TO.P,U1,12*%
%TO.N,Net-(U1-Pad12)*%
X317643750Y-1556250D03*
D21*
%TO.P,U1,11*%
%TO.N,ROW10*%
X315943750Y143750D03*
%TO.P,U1,10*%
%TO.N,COL8*%
X315143750Y143750D03*
%TO.P,U1,9*%
%TO.N,COL9*%
X314343750Y143750D03*
%TO.P,U1,8*%
%TO.N,Net-(U1-Pad8)*%
X313543750Y143750D03*
%TO.P,U1,7*%
%TO.N,+5V*%
X312743750Y143750D03*
%TO.P,U1,6*%
%TO.N,Net-(C1-Pad1)*%
X311943750Y143750D03*
%TO.P,U1,5*%
%TO.N,GND*%
X311143750Y143750D03*
%TO.P,U1,4*%
%TO.N,Net-(R2-Pad1)*%
X310343750Y143750D03*
%TO.P,U1,3*%
%TO.N,Net-(R3-Pad1)*%
X309543750Y143750D03*
%TO.P,U1,2*%
%TO.N,+5V*%
X308743750Y143750D03*
%TO.P,U1,1*%
%TO.N,Net-(U1-Pad1)*%
X307943750Y143750D03*
%TD*%
D22*
%TO.P,SW1,4*%
%TO.N,N/C*%
X324889250Y75000D03*
%TO.P,SW1,3*%
X328589250Y6275000D03*
%TO.P,SW1,2*%
%TO.N,Net-(R1-Pad2)*%
X328589250Y75000D03*
%TO.P,SW1,1*%
%TO.N,GND*%
X324889250Y6275000D03*
%TD*%
%TO.P,R6,2*%
%TO.N,GND*%
%TA.AperFunction,SMDPad,CuDef*%
G36*
G01*
X302254498Y14332000D02*
X303154502Y14332000D01*
G75*
G02*
X303404500Y14082002I0J-249998D01*
G01*
X303404500Y13556998D01*
G75*
G02*
X303154502Y13307000I-249998J0D01*
G01*
X302254498Y13307000D01*
G75*
G02*
X302004500Y13556998I0J249998D01*
G01*
X302004500Y14082002D01*
G75*
G02*
X302254498Y14332000I249998J0D01*
G01*
G37*
%TD.AperFunction*%
%TO.P,R6,1*%
%TO.N,Net-(J1-PadA5)*%
%TA.AperFunction,SMDPad,CuDef*%
G36*
G01*
X302254498Y16157000D02*
X303154502Y16157000D01*
G75*
G02*
X303404500Y15907002I0J-249998D01*
G01*
X303404500Y15381998D01*
G75*
G02*
X303154502Y15132000I-249998J0D01*
G01*
X302254498Y15132000D01*
G75*
G02*
X302004500Y15381998I0J249998D01*
G01*
X302004500Y15907002D01*
G75*
G02*
X302254498Y16157000I249998J0D01*
G01*
G37*
%TD.AperFunction*%
%TD*%
%TO.P,R5,2*%
%TO.N,GND*%
%TA.AperFunction,SMDPad,CuDef*%
G36*
G01*
X316700748Y14332000D02*
X317600752Y14332000D01*
G75*
G02*
X317850750Y14082002I0J-249998D01*
G01*
X317850750Y13556998D01*
G75*
G02*
X317600752Y13307000I-249998J0D01*
G01*
X316700748Y13307000D01*
G75*
G02*
X316450750Y13556998I0J249998D01*
G01*
X316450750Y14082002D01*
G75*
G02*
X316700748Y14332000I249998J0D01*
G01*
G37*
%TD.AperFunction*%
%TO.P,R5,1*%
%TO.N,Net-(J1-PadB5)*%
%TA.AperFunction,SMDPad,CuDef*%
G36*
G01*
X316700748Y16157000D02*
X317600752Y16157000D01*
G75*
G02*
X317850750Y15907002I0J-249998D01*
G01*
X317850750Y15381998D01*
G75*
G02*
X317600752Y15132000I-249998J0D01*
G01*
X316700748Y15132000D01*
G75*
G02*
X316450750Y15381998I0J249998D01*
G01*
X316450750Y15907002D01*
G75*
G02*
X316700748Y16157000I249998J0D01*
G01*
G37*
%TD.AperFunction*%
%TD*%
%TO.P,R4,2*%
%TO.N,Net-(R4-Pad2)*%
%TA.AperFunction,SMDPad,CuDef*%
G36*
G01*
X303177144Y-15872793D02*
X303813543Y-15236394D01*
G75*
G02*
X304167093Y-15236394I176775J-176775D01*
G01*
X304538326Y-15607627D01*
G75*
G02*
X304538326Y-15961177I-176775J-176775D01*
G01*
X303901927Y-16597576D01*
G75*
G02*
X303548377Y-16597576I-176775J176775D01*
G01*
X303177144Y-16226343D01*
G75*
G02*
X303177144Y-15872793I176775J176775D01*
G01*
G37*
%TD.AperFunction*%
%TO.P,R4,1*%
%TO.N,GND*%
%TA.AperFunction,SMDPad,CuDef*%
G36*
G01*
X301886674Y-14582323D02*
X302523073Y-13945924D01*
G75*
G02*
X302876623Y-13945924I176775J-176775D01*
G01*
X303247856Y-14317157D01*
G75*
G02*
X303247856Y-14670707I-176775J-176775D01*
G01*
X302611457Y-15307106D01*
G75*
G02*
X302257907Y-15307106I-176775J176775D01*
G01*
X301886674Y-14935873D01*
G75*
G02*
X301886674Y-14582323I176775J176775D01*
G01*
G37*
%TD.AperFunction*%
%TD*%
%TO.P,R3,2*%
%TO.N,/DN*%
%TA.AperFunction,SMDPad,CuDef*%
G36*
G01*
X309095252Y6253966D02*
X308195248Y6253966D01*
G75*
G02*
X307945250Y6503964I0J249998D01*
G01*
X307945250Y7028968D01*
G75*
G02*
X308195248Y7278966I249998J0D01*
G01*
X309095252Y7278966D01*
G75*
G02*
X309345250Y7028968I0J-249998D01*
G01*
X309345250Y6503964D01*
G75*
G02*
X309095252Y6253966I-249998J0D01*
G01*
G37*
%TD.AperFunction*%
%TO.P,R3,1*%
%TO.N,Net-(R3-Pad1)*%
%TA.AperFunction,SMDPad,CuDef*%
G36*
G01*
X309095252Y4428966D02*
X308195248Y4428966D01*
G75*
G02*
X307945250Y4678964I0J249998D01*
G01*
X307945250Y5203968D01*
G75*
G02*
X308195248Y5453966I249998J0D01*
G01*
X309095252Y5453966D01*
G75*
G02*
X309345250Y5203968I0J-249998D01*
G01*
X309345250Y4678964D01*
G75*
G02*
X309095252Y4428966I-249998J0D01*
G01*
G37*
%TD.AperFunction*%
%TD*%
%TO.P,R2,2*%
%TO.N,/DP*%
%TA.AperFunction,SMDPad,CuDef*%
G36*
G01*
X311627502Y6253966D02*
X310727498Y6253966D01*
G75*
G02*
X310477500Y6503964I0J249998D01*
G01*
X310477500Y7028968D01*
G75*
G02*
X310727498Y7278966I249998J0D01*
G01*
X311627502Y7278966D01*
G75*
G02*
X311877500Y7028968I0J-249998D01*
G01*
X311877500Y6503964D01*
G75*
G02*
X311627502Y6253966I-249998J0D01*
G01*
G37*
%TD.AperFunction*%
%TO.P,R2,1*%
%TO.N,Net-(R2-Pad1)*%
%TA.AperFunction,SMDPad,CuDef*%
G36*
G01*
X311627502Y4428966D02*
X310727498Y4428966D01*
G75*
G02*
X310477500Y4678964I0J249998D01*
G01*
X310477500Y5203968D01*
G75*
G02*
X310727498Y5453966I249998J0D01*
G01*
X311627502Y5453966D01*
G75*
G02*
X311877500Y5203968I0J-249998D01*
G01*
X311877500Y4678964D01*
G75*
G02*
X311627502Y4428966I-249998J0D01*
G01*
G37*
%TD.AperFunction*%
%TD*%
D10*
%TO.P,MX90,2*%
%TO.N,Net-(D90-Pad2)*%
X354965000Y-99695000D03*
%TO.P,MX90,1*%
%TO.N,COL9*%
X348615000Y-102235000D03*
%TD*%
%TO.P,MX89,2*%
%TO.N,Net-(D89-Pad2)*%
X364490000Y-80645000D03*
%TO.P,MX89,1*%
%TO.N,COL9*%
X358140000Y-83185000D03*
%TD*%
%TO.P,MX88,2*%
%TO.N,Net-(D88-Pad2)*%
X364490000Y-61595000D03*
%TO.P,MX88,1*%
%TO.N,COL9*%
X358140000Y-64135000D03*
%TD*%
%TO.P,MX87,2*%
%TO.N,Net-(D87-Pad2)*%
X364490000Y-42545000D03*
%TO.P,MX87,1*%
%TO.N,COL9*%
X358140000Y-45085000D03*
%TD*%
%TO.P,MX86,2*%
%TO.N,Net-(D86-Pad2)*%
X364490000Y-23495000D03*
%TO.P,MX86,1*%
%TO.N,COL9*%
X358140000Y-26035000D03*
%TD*%
%TO.P,MX85,2*%
%TO.N,Net-(D85-Pad2)*%
X345440000Y-61595000D03*
%TO.P,MX85,1*%
%TO.N,COL8*%
X339090000Y-64135000D03*
%TD*%
%TO.P,MX84,2*%
%TO.N,Net-(D84-Pad2)*%
X345440000Y-42545000D03*
%TO.P,MX84,1*%
%TO.N,COL8*%
X339090000Y-45085000D03*
%TD*%
%TO.P,MX83,2*%
%TO.N,Net-(D83-Pad2)*%
X345440000Y-23495000D03*
%TO.P,MX83,1*%
%TO.N,COL8*%
X339090000Y-26035000D03*
%TD*%
%TO.P,MX82,2*%
%TO.N,Net-(D82-Pad2)*%
X326390000Y-99695000D03*
%TO.P,MX82,1*%
%TO.N,COL8*%
X320040000Y-102235000D03*
%TD*%
%TO.P,MX81,2*%
%TO.N,Net-(D81-Pad2)*%
X335915000Y-80645000D03*
%TO.P,MX81,1*%
%TO.N,COL8*%
X329565000Y-83185000D03*
%TD*%
%TO.P,MX80,2*%
%TO.N,Net-(D80-Pad2)*%
X326390000Y-61595000D03*
%TO.P,MX80,1*%
%TO.N,COL8*%
X320040000Y-64135000D03*
%TD*%
%TO.P,MX79,2*%
%TO.N,Net-(D79-Pad2)*%
X326390000Y-42545000D03*
%TO.P,MX79,1*%
%TO.N,COL8*%
X320040000Y-45085000D03*
%TD*%
%TO.P,MX77,2*%
%TO.N,Net-(D77-Pad2)*%
X288290000Y-99695000D03*
%TO.P,MX77,1*%
%TO.N,COL7*%
X281940000Y-102235000D03*
%TD*%
%TO.P,MX76,2*%
%TO.N,Net-(D76-Pad2)*%
X297815000Y-80645000D03*
%TO.P,MX76,1*%
%TO.N,COL7*%
X291465000Y-83185000D03*
%TD*%
%TO.P,MX75,2*%
%TO.N,Net-(D75-Pad2)*%
X278765000Y-80645000D03*
%TO.P,MX75,1*%
%TO.N,COL6*%
X272415000Y-83185000D03*
%TD*%
%TO.P,MX74,2*%
%TO.N,Net-(D74-Pad2)*%
X288290000Y-61595000D03*
%TO.P,MX74,1*%
%TO.N,COL7*%
X281940000Y-64135000D03*
%TD*%
%TO.P,MX59,2*%
%TO.N,Net-(D59-Pad2)*%
X243046250Y-99695000D03*
%TO.P,MX59,1*%
%TO.N,COL5*%
X236696250Y-102235000D03*
%TD*%
%TO.P,MX64,2*%
%TO.N,Net-(D64-Pad2)*%
X252571250Y-80645000D03*
%TO.P,MX64,1*%
%TO.N,COL5*%
X246221250Y-83185000D03*
%TD*%
%TO.P,MX72,2*%
%TO.N,Net-(D72-Pad2)*%
X283527500Y-23495000D03*
%TO.P,MX72,1*%
%TO.N,COL7*%
X277177500Y-26035000D03*
%TD*%
%TO.P,MX71,2*%
%TO.N,Net-(D71-Pad2)*%
X288290000Y-4445000D03*
%TO.P,MX71,1*%
%TO.N,COL7*%
X281940000Y-6985000D03*
%TD*%
%TO.P,MX53,2*%
%TO.N,Net-(D53-Pad2)*%
X219233750Y-99695000D03*
%TO.P,MX53,1*%
%TO.N,COL4*%
X212883750Y-102235000D03*
%TD*%
%TO.P,MX58,2*%
%TO.N,Net-(D58-Pad2)*%
X226377500Y-80645000D03*
%TO.P,MX58,1*%
%TO.N,COL5*%
X220027500Y-83185000D03*
%TD*%
%TO.P,MX63,2*%
%TO.N,Net-(D63-Pad2)*%
X235902500Y-61595000D03*
%TO.P,MX63,1*%
%TO.N,COL5*%
X229552500Y-64135000D03*
%TD*%
%TO.P,MX67,2*%
%TO.N,Net-(D67-Pad2)*%
X250190000Y-42545000D03*
%TO.P,MX67,1*%
%TO.N,COL6*%
X243840000Y-45085000D03*
%TD*%
%TO.P,MX69,2*%
%TO.N,Net-(D69-Pad2)*%
X259715000Y-23495000D03*
%TO.P,MX69,1*%
%TO.N,COL6*%
X253365000Y-26035000D03*
%TD*%
%TO.P,MX68,2*%
%TO.N,Net-(D68-Pad2)*%
X259715000Y-4445000D03*
%TO.P,MX68,1*%
%TO.N,COL6*%
X253365000Y-6985000D03*
%TD*%
%TO.P,MX52,2*%
%TO.N,Net-(D52-Pad2)*%
X207327500Y-80645000D03*
%TO.P,MX52,1*%
%TO.N,COL4*%
X200977500Y-83185000D03*
%TD*%
%TO.P,MX57,2*%
%TO.N,Net-(D57-Pad2)*%
X216852500Y-61595000D03*
%TO.P,MX57,1*%
%TO.N,COL5*%
X210502500Y-64135000D03*
%TD*%
%TO.P,MX62,2*%
%TO.N,Net-(D62-Pad2)*%
X231140000Y-42545000D03*
%TO.P,MX62,1*%
%TO.N,COL5*%
X224790000Y-45085000D03*
%TD*%
%TO.P,MX66,2*%
%TO.N,Net-(D66-Pad2)*%
X240665000Y-23495000D03*
%TO.P,MX66,1*%
%TO.N,COL6*%
X234315000Y-26035000D03*
%TD*%
%TO.P,MX65,2*%
%TO.N,Net-(D65-Pad2)*%
X240665000Y-4445000D03*
%TO.P,MX65,1*%
%TO.N,COL6*%
X234315000Y-6985000D03*
%TD*%
%TO.P,MX47,2*%
%TO.N,Net-(D47-Pad2)*%
X188277500Y-80645000D03*
%TO.P,MX47,1*%
%TO.N,COL4*%
X181927500Y-83185000D03*
%TD*%
%TO.P,MX51,2*%
%TO.N,Net-(D51-Pad2)*%
X197802500Y-61595000D03*
%TO.P,MX51,1*%
%TO.N,COL4*%
X191452500Y-64135000D03*
%TD*%
%TO.P,MX56,2*%
%TO.N,Net-(D56-Pad2)*%
X212090000Y-42545000D03*
%TO.P,MX56,1*%
%TO.N,COL5*%
X205740000Y-45085000D03*
%TD*%
%TO.P,MX61,2*%
%TO.N,Net-(D61-Pad2)*%
X221615000Y-23495000D03*
%TO.P,MX61,1*%
%TO.N,COL5*%
X215265000Y-26035000D03*
%TD*%
%TO.P,MX60,2*%
%TO.N,Net-(D60-Pad2)*%
X221615000Y-4445000D03*
%TO.P,MX60,1*%
%TO.N,COL5*%
X215265000Y-6985000D03*
%TD*%
%TO.P,MX42,2*%
%TO.N,Net-(D42-Pad2)*%
X169227500Y-80645000D03*
%TO.P,MX42,1*%
%TO.N,COL3*%
X162877500Y-83185000D03*
%TD*%
%TO.P,MX46,2*%
%TO.N,Net-(D46-Pad2)*%
X178752500Y-61595000D03*
%TO.P,MX46,1*%
%TO.N,COL4*%
X172402500Y-64135000D03*
%TD*%
%TO.P,MX50,2*%
%TO.N,Net-(D50-Pad2)*%
X193040000Y-42545000D03*
%TO.P,MX50,1*%
%TO.N,COL4*%
X186690000Y-45085000D03*
%TD*%
%TO.P,MX55,2*%
%TO.N,Net-(D55-Pad2)*%
X202565000Y-23495000D03*
%TO.P,MX55,1*%
%TO.N,COL5*%
X196215000Y-26035000D03*
%TD*%
%TO.P,MX54,2*%
%TO.N,Net-(D54-Pad2)*%
X202565000Y-4445000D03*
%TO.P,MX54,1*%
%TO.N,COL5*%
X196215000Y-6985000D03*
%TD*%
%TO.P,MX45,2*%
%TO.N,Net-(D45-Pad2)*%
X173990000Y-42545000D03*
%TO.P,MX45,1*%
%TO.N,COL4*%
X167640000Y-45085000D03*
%TD*%
%TO.P,MX49,2*%
%TO.N,Net-(D49-Pad2)*%
X183515000Y-23495000D03*
%TO.P,MX49,1*%
%TO.N,COL4*%
X177165000Y-26035000D03*
%TD*%
%TO.P,MX48,2*%
%TO.N,Net-(D48-Pad2)*%
X183515000Y-4445000D03*
%TO.P,MX48,1*%
%TO.N,COL4*%
X177165000Y-6985000D03*
%TD*%
%TO.P,MX44,2*%
%TO.N,Net-(D44-Pad2)*%
X164465000Y-23495000D03*
%TO.P,MX44,1*%
%TO.N,COL4*%
X158115000Y-26035000D03*
%TD*%
%TO.P,MX43,2*%
%TO.N,Net-(D43-Pad2)*%
X164465000Y-4445000D03*
%TO.P,MX43,1*%
%TO.N,COL4*%
X158115000Y-6985000D03*
%TD*%
%TO.P,MX40,2*%
%TO.N,Net-(D40-Pad2)*%
X154940000Y-42545000D03*
%TO.P,MX40,1*%
%TO.N,COL3*%
X148590000Y-45085000D03*
%TD*%
%TO.P,MX39,2*%
%TO.N,Net-(D39-Pad2)*%
X145415000Y-23495000D03*
%TO.P,MX39,1*%
%TO.N,COL3*%
X139065000Y-26035000D03*
%TD*%
%TO.P,MX38,2*%
%TO.N,Net-(D38-Pad2)*%
X135890000Y-4445000D03*
%TO.P,MX38,1*%
%TO.N,COL3*%
X129540000Y-6985000D03*
%TD*%
%TO.P,MX37,2*%
%TO.N,Net-(D37-Pad2)*%
X150177500Y-80645000D03*
%TO.P,MX37,1*%
%TO.N,COL3*%
X143827500Y-83185000D03*
%TD*%
%TO.P,MX36,2*%
%TO.N,Net-(D36-Pad2)*%
X140652500Y-61595000D03*
%TO.P,MX36,1*%
%TO.N,COL3*%
X134302500Y-64135000D03*
%TD*%
%TO.P,MX35,2*%
%TO.N,Net-(D35-Pad2)*%
X135890000Y-42545000D03*
%TO.P,MX35,1*%
%TO.N,COL3*%
X129540000Y-45085000D03*
%TD*%
%TO.P,MX34,2*%
%TO.N,Net-(D34-Pad2)*%
X126365000Y-23495000D03*
%TO.P,MX34,1*%
%TO.N,COL3*%
X120015000Y-26035000D03*
%TD*%
%TO.P,MX33,2*%
%TO.N,Net-(D33-Pad2)*%
X116840000Y-4445000D03*
%TO.P,MX33,1*%
%TO.N,COL3*%
X110490000Y-6985000D03*
%TD*%
%TO.P,MX32,2*%
%TO.N,Net-(D32-Pad2)*%
X140652500Y-99695000D03*
%TO.P,MX32,1*%
%TO.N,COL3*%
X134302500Y-102235000D03*
%TD*%
%TO.P,MX31,2*%
%TO.N,Net-(D31-Pad2)*%
X131127500Y-80645000D03*
%TO.P,MX31,1*%
%TO.N,COL2*%
X124777500Y-83185000D03*
%TD*%
%TO.P,MX30,2*%
%TO.N,Net-(D30-Pad2)*%
X121602500Y-61595000D03*
%TO.P,MX30,1*%
%TO.N,COL2*%
X115252500Y-64135000D03*
%TD*%
%TO.P,MX29,2*%
%TO.N,Net-(D29-Pad2)*%
X116840000Y-42545000D03*
%TO.P,MX29,1*%
%TO.N,COL2*%
X110490000Y-45085000D03*
%TD*%
%TO.P,MX28,2*%
%TO.N,Net-(D28-Pad2)*%
X107315000Y-23495000D03*
%TO.P,MX28,1*%
%TO.N,COL2*%
X100965000Y-26035000D03*
%TD*%
%TO.P,MX27,2*%
%TO.N,Net-(D27-Pad2)*%
X97790000Y-4445000D03*
%TO.P,MX27,1*%
%TO.N,COL2*%
X91440000Y-6985000D03*
%TD*%
%TO.P,MX26,2*%
%TO.N,Net-(D26-Pad2)*%
X112077500Y-80645000D03*
%TO.P,MX26,1*%
%TO.N,COL2*%
X105727500Y-83185000D03*
%TD*%
%TO.P,MX25,2*%
%TO.N,Net-(D25-Pad2)*%
X102552500Y-61595000D03*
%TO.P,MX25,1*%
%TO.N,COL2*%
X96202500Y-64135000D03*
%TD*%
%TO.P,MX24,2*%
%TO.N,Net-(D24-Pad2)*%
X97790000Y-42545000D03*
%TO.P,MX24,1*%
%TO.N,COL2*%
X91440000Y-45085000D03*
%TD*%
%TO.P,MX23,2*%
%TO.N,Net-(D23-Pad2)*%
X88265000Y-23495000D03*
%TO.P,MX23,1*%
%TO.N,COL2*%
X81915000Y-26035000D03*
%TD*%
%TO.P,MX22,2*%
%TO.N,Net-(D22-Pad2)*%
X78740000Y-4445000D03*
%TO.P,MX22,1*%
%TO.N,COL2*%
X72390000Y-6985000D03*
%TD*%
%TO.P,MX21,2*%
%TO.N,Net-(D21-Pad2)*%
X93027500Y-80645000D03*
%TO.P,MX21,1*%
%TO.N,COL1*%
X86677500Y-83185000D03*
%TD*%
%TO.P,MX20,2*%
%TO.N,Net-(D20-Pad2)*%
X83502500Y-61595000D03*
%TO.P,MX20,1*%
%TO.N,COL1*%
X77152500Y-64135000D03*
%TD*%
%TO.P,MX19,2*%
%TO.N,Net-(D19-Pad2)*%
X78740000Y-42545000D03*
%TO.P,MX19,1*%
%TO.N,COL1*%
X72390000Y-45085000D03*
%TD*%
%TO.P,MX18,2*%
%TO.N,Net-(D18-Pad2)*%
X69215000Y-23495000D03*
%TO.P,MX18,1*%
%TO.N,COL1*%
X62865000Y-26035000D03*
%TD*%
%TO.P,MX17,2*%
%TO.N,Net-(D17-Pad2)*%
X59690000Y-4445000D03*
%TO.P,MX17,1*%
%TO.N,COL1*%
X53340000Y-6985000D03*
%TD*%
%TO.P,MX16,2*%
%TO.N,Net-(D16-Pad2)*%
X73977500Y-80645000D03*
%TO.P,MX16,1*%
%TO.N,COL1*%
X67627500Y-83185000D03*
%TD*%
%TO.P,MX15,2*%
%TO.N,Net-(D15-Pad2)*%
X64452500Y-61595000D03*
%TO.P,MX15,1*%
%TO.N,COL1*%
X58102500Y-64135000D03*
%TD*%
%TO.P,MX14,2*%
%TO.N,Net-(D14-Pad2)*%
X59690000Y-42545000D03*
%TO.P,MX14,1*%
%TO.N,COL1*%
X53340000Y-45085000D03*
%TD*%
%TO.P,MX13,2*%
%TO.N,Net-(D13-Pad2)*%
X50165000Y-23495000D03*
%TO.P,MX13,1*%
%TO.N,COL1*%
X43815000Y-26035000D03*
%TD*%
%TO.P,MX12,2*%
%TO.N,Net-(D12-Pad2)*%
X40640000Y-4445000D03*
%TO.P,MX12,1*%
%TO.N,COL1*%
X34290000Y-6985000D03*
%TD*%
%TO.P,MX11,2*%
%TO.N,Net-(D11-Pad2)*%
X62071250Y-99695000D03*
%TO.P,MX11,1*%
%TO.N,COL1*%
X55721250Y-102235000D03*
%TD*%
%TO.P,MX10,2*%
%TO.N,Net-(D10-Pad2)*%
X54927500Y-80645000D03*
%TO.P,MX10,1*%
%TO.N,COL0*%
X48577500Y-83185000D03*
%TD*%
%TO.P,MX9,2*%
%TO.N,Net-(D9-Pad2)*%
X45402500Y-61595000D03*
%TO.P,MX9,1*%
%TO.N,COL0*%
X39052500Y-64135000D03*
%TD*%
%TO.P,MX8,2*%
%TO.N,Net-(D8-Pad2)*%
X40640000Y-42545000D03*
%TO.P,MX8,1*%
%TO.N,COL0*%
X34290000Y-45085000D03*
%TD*%
%TO.P,MX7,2*%
%TO.N,Net-(D7-Pad2)*%
X31115000Y-23495000D03*
%TO.P,MX7,1*%
%TO.N,COL0*%
X24765000Y-26035000D03*
%TD*%
%TO.P,MX5,2*%
%TO.N,Net-(D5-Pad2)*%
X23971250Y-80645000D03*
%TO.P,MX5,1*%
%TO.N,COL0*%
X17621250Y-83185000D03*
%TD*%
%TO.P,MX3,2*%
%TO.N,Net-(D3-Pad2)*%
X16827500Y-42545000D03*
%TO.P,MX3,1*%
%TO.N,COL0*%
X10477500Y-45085000D03*
%TD*%
%TO.P,MX2,2*%
%TO.N,Net-(D2-Pad2)*%
X12065000Y-23495000D03*
%TO.P,MX2,1*%
%TO.N,COL0*%
X5715000Y-26035000D03*
%TD*%
%TO.P,MX1,2*%
%TO.N,Net-(D1-Pad2)*%
X12065000Y-4445000D03*
%TO.P,MX1,1*%
%TO.N,COL0*%
X5715000Y-6985000D03*
%TD*%
%TO.P,F1,1*%
%TO.N,+5V*%
%TA.AperFunction,SMDPad,CuDef*%
G36*
G01*
X306218750Y5912500D02*
X304968750Y5912500D01*
G75*
G02*
X304718750Y6162500I0J250000D01*
G01*
X304718750Y6912500D01*
G75*
G02*
X304968750Y7162500I250000J0D01*
G01*
X306218750Y7162500D01*
G75*
G02*
X306468750Y6912500I0J-250000D01*
G01*
X306468750Y6162500D01*
G75*
G02*
X306218750Y5912500I-250000J0D01*
G01*
G37*
%TD.AperFunction*%
%TO.P,F1,2*%
%TO.N,VCC*%
%TA.AperFunction,SMDPad,CuDef*%
G36*
G01*
X306218750Y8712500D02*
X304968750Y8712500D01*
G75*
G02*
X304718750Y8962500I0J250000D01*
G01*
X304718750Y9712500D01*
G75*
G02*
X304968750Y9962500I250000J0D01*
G01*
X306218750Y9962500D01*
G75*
G02*
X306468750Y9712500I0J-250000D01*
G01*
X306468750Y8962500D01*
G75*
G02*
X306218750Y8712500I-250000J0D01*
G01*
G37*
%TD.AperFunction*%
%TD*%
D23*
%TO.P,D90,2*%
%TO.N,Net-(D90-Pad2)*%
X361156250Y-103125000D03*
%TO.P,D90,1*%
%TO.N,ROW10*%
X361156250Y-106425000D03*
%TD*%
%TO.P,D89,2*%
%TO.N,Net-(D89-Pad2)*%
X370681250Y-84075000D03*
%TO.P,D89,1*%
%TO.N,ROW9*%
X370681250Y-87375000D03*
%TD*%
%TO.P,D88,2*%
%TO.N,Net-(D88-Pad2)*%
X370681250Y-65025000D03*
%TO.P,D88,1*%
%TO.N,ROW7*%
X370681250Y-68325000D03*
%TD*%
%TO.P,D87,2*%
%TO.N,Net-(D87-Pad2)*%
X370681250Y-45975000D03*
%TO.P,D87,1*%
%TO.N,ROW5*%
X370681250Y-49275000D03*
%TD*%
%TO.P,D86,2*%
%TO.N,Net-(D86-Pad2)*%
X370681250Y-26925000D03*
%TO.P,D86,1*%
%TO.N,ROW3*%
X370681250Y-30225000D03*
%TD*%
%TO.P,D85,2*%
%TO.N,Net-(D85-Pad2)*%
X351631250Y-65025000D03*
%TO.P,D85,1*%
%TO.N,ROW6*%
X351631250Y-68325000D03*
%TD*%
%TO.P,D84,2*%
%TO.N,Net-(D84-Pad2)*%
X351631250Y-45975000D03*
%TO.P,D84,1*%
%TO.N,ROW4*%
X351631250Y-49275000D03*
%TD*%
%TO.P,D83,2*%
%TO.N,Net-(D83-Pad2)*%
X351631250Y-26925000D03*
%TO.P,D83,1*%
%TO.N,ROW2*%
X351631250Y-30225000D03*
%TD*%
%TO.P,D82,2*%
%TO.N,Net-(D82-Pad2)*%
X332581250Y-103125000D03*
%TO.P,D82,1*%
%TO.N,ROW10*%
X332581250Y-106425000D03*
%TD*%
%TO.P,D81,2*%
%TO.N,Net-(D81-Pad2)*%
X342900000Y-84075000D03*
%TO.P,D81,1*%
%TO.N,ROW9*%
X342900000Y-87375000D03*
%TD*%
%TO.P,D80,2*%
%TO.N,Net-(D80-Pad2)*%
X332581250Y-65025000D03*
%TO.P,D80,1*%
%TO.N,ROW7*%
X332581250Y-68325000D03*
%TD*%
%TO.P,D79,2*%
%TO.N,Net-(D79-Pad2)*%
X332581250Y-45975000D03*
%TO.P,D79,1*%
%TO.N,ROW5*%
X332581250Y-49275000D03*
%TD*%
%TO.P,D78,2*%
%TO.N,Net-(D78-Pad2)*%
X332581250Y-26925000D03*
%TO.P,D78,1*%
%TO.N,ROW3*%
X332581250Y-30225000D03*
%TD*%
%TO.P,D77,2*%
%TO.N,Net-(D77-Pad2)*%
X294481250Y-103125000D03*
%TO.P,D77,1*%
%TO.N,ROW10*%
X294481250Y-106425000D03*
%TD*%
%TO.P,D76,2*%
%TO.N,Net-(D76-Pad2)*%
X304006250Y-84075000D03*
%TO.P,D76,1*%
%TO.N,ROW8*%
X304006250Y-87375000D03*
%TD*%
%TO.P,D75,2*%
%TO.N,Net-(D75-Pad2)*%
X284956250Y-84075000D03*
%TO.P,D75,1*%
%TO.N,ROW9*%
X284956250Y-87375000D03*
%TD*%
%TO.P,D74,2*%
%TO.N,Net-(D74-Pad2)*%
X294481250Y-65025000D03*
%TO.P,D74,1*%
%TO.N,ROW6*%
X294481250Y-68325000D03*
%TD*%
%TO.P,D73,2*%
%TO.N,Net-(D73-Pad2)*%
X294481250Y-45975000D03*
%TO.P,D73,1*%
%TO.N,ROW4*%
X294481250Y-49275000D03*
%TD*%
%TO.P,D59,2*%
%TO.N,Net-(D59-Pad2)*%
X249237500Y-103125000D03*
%TO.P,D59,1*%
%TO.N,ROW10*%
X249237500Y-106425000D03*
%TD*%
%TO.P,D64,2*%
%TO.N,Net-(D64-Pad2)*%
X258762500Y-84075000D03*
%TO.P,D64,1*%
%TO.N,ROW9*%
X258762500Y-87375000D03*
%TD*%
%TO.P,D70,2*%
%TO.N,Net-(D70-Pad2)*%
X275431250Y-55500000D03*
%TO.P,D70,1*%
%TO.N,ROW5*%
X275431250Y-58800000D03*
%TD*%
%TO.P,D72,2*%
%TO.N,Net-(D72-Pad2)*%
X289718750Y-26925000D03*
%TO.P,D72,1*%
%TO.N,ROW2*%
X289718750Y-30225000D03*
%TD*%
%TO.P,D71,2*%
%TO.N,Net-(D71-Pad2)*%
X294481250Y-7875000D03*
%TO.P,D71,1*%
%TO.N,ROW0*%
X294481250Y-11175000D03*
%TD*%
%TO.P,D53,2*%
%TO.N,Net-(D53-Pad2)*%
X225425000Y-103125000D03*
%TO.P,D53,1*%
%TO.N,ROW10*%
X225425000Y-106425000D03*
%TD*%
%TO.P,D58,2*%
%TO.N,Net-(D58-Pad2)*%
X232568750Y-84075000D03*
%TO.P,D58,1*%
%TO.N,ROW8*%
X232568750Y-87375000D03*
%TD*%
%TO.P,D63,2*%
%TO.N,Net-(D63-Pad2)*%
X242093750Y-65025000D03*
%TO.P,D63,1*%
%TO.N,ROW7*%
X242093750Y-68325000D03*
%TD*%
%TO.P,D67,2*%
%TO.N,Net-(D67-Pad2)*%
X256381250Y-55500000D03*
%TO.P,D67,1*%
%TO.N,ROW4*%
X256381250Y-58800000D03*
%TD*%
%TO.P,D69,2*%
%TO.N,Net-(D69-Pad2)*%
X265906250Y-26925000D03*
%TO.P,D69,1*%
%TO.N,ROW3*%
X265906250Y-30225000D03*
%TD*%
%TO.P,D68,2*%
%TO.N,Net-(D68-Pad2)*%
X265906250Y-7875000D03*
%TO.P,D68,1*%
%TO.N,ROW1*%
X265906250Y-11175000D03*
%TD*%
%TO.P,D52,2*%
%TO.N,Net-(D52-Pad2)*%
X213518750Y-84075000D03*
%TO.P,D52,1*%
%TO.N,ROW9*%
X213518750Y-87375000D03*
%TD*%
%TO.P,D57,2*%
%TO.N,Net-(D57-Pad2)*%
X223043750Y-65025000D03*
%TO.P,D57,1*%
%TO.N,ROW6*%
X223043750Y-68325000D03*
%TD*%
%TO.P,D62,2*%
%TO.N,Net-(D62-Pad2)*%
X237331250Y-45975000D03*
%TO.P,D62,1*%
%TO.N,ROW5*%
X237331250Y-49275000D03*
%TD*%
%TO.P,D66,2*%
%TO.N,Net-(D66-Pad2)*%
X246856250Y-26925000D03*
%TO.P,D66,1*%
%TO.N,ROW2*%
X246856250Y-30225000D03*
%TD*%
%TO.P,D65,2*%
%TO.N,Net-(D65-Pad2)*%
X246856250Y-7875000D03*
%TO.P,D65,1*%
%TO.N,ROW0*%
X246856250Y-11175000D03*
%TD*%
%TO.P,D47,2*%
%TO.N,Net-(D47-Pad2)*%
X194468750Y-84075000D03*
%TO.P,D47,1*%
%TO.N,ROW8*%
X194468750Y-87375000D03*
%TD*%
%TO.P,D51,2*%
%TO.N,Net-(D51-Pad2)*%
X203993750Y-65025000D03*
%TO.P,D51,1*%
%TO.N,ROW7*%
X203993750Y-68325000D03*
%TD*%
%TO.P,D56,2*%
%TO.N,Net-(D56-Pad2)*%
X218281250Y-45975000D03*
%TO.P,D56,1*%
%TO.N,ROW4*%
X218281250Y-49275000D03*
%TD*%
%TO.P,D61,2*%
%TO.N,Net-(D61-Pad2)*%
X227806250Y-26925000D03*
%TO.P,D61,1*%
%TO.N,ROW3*%
X227806250Y-30225000D03*
%TD*%
%TO.P,D60,2*%
%TO.N,Net-(D60-Pad2)*%
X227806250Y-7875000D03*
%TO.P,D60,1*%
%TO.N,ROW1*%
X227806250Y-11175000D03*
%TD*%
%TO.P,D42,2*%
%TO.N,Net-(D42-Pad2)*%
X175418750Y-84075000D03*
%TO.P,D42,1*%
%TO.N,ROW9*%
X175418750Y-87375000D03*
%TD*%
%TO.P,D46,2*%
%TO.N,Net-(D46-Pad2)*%
X184943750Y-65025000D03*
%TO.P,D46,1*%
%TO.N,ROW6*%
X184943750Y-68325000D03*
%TD*%
%TO.P,D50,2*%
%TO.N,Net-(D50-Pad2)*%
X199231250Y-45975000D03*
%TO.P,D50,1*%
%TO.N,ROW5*%
X199231250Y-49275000D03*
%TD*%
%TO.P,D55,2*%
%TO.N,Net-(D55-Pad2)*%
X208756250Y-26925000D03*
%TO.P,D55,1*%
%TO.N,ROW2*%
X208756250Y-30225000D03*
%TD*%
%TO.P,D54,2*%
%TO.N,Net-(D54-Pad2)*%
X208756250Y-7875000D03*
%TO.P,D54,1*%
%TO.N,ROW0*%
X208756250Y-11175000D03*
%TD*%
%TO.P,D45,2*%
%TO.N,Net-(D45-Pad2)*%
X180181250Y-45975000D03*
%TO.P,D45,1*%
%TO.N,ROW4*%
X180181250Y-49275000D03*
%TD*%
%TO.P,D49,2*%
%TO.N,Net-(D49-Pad2)*%
X189706250Y-26925000D03*
%TO.P,D49,1*%
%TO.N,ROW3*%
X189706250Y-30225000D03*
%TD*%
%TO.P,D48,2*%
%TO.N,Net-(D48-Pad2)*%
X189706250Y-7875000D03*
%TO.P,D48,1*%
%TO.N,ROW1*%
X189706250Y-11175000D03*
%TD*%
%TO.P,D44,2*%
%TO.N,Net-(D44-Pad2)*%
X170656250Y-26925000D03*
%TO.P,D44,1*%
%TO.N,ROW2*%
X170656250Y-30225000D03*
%TD*%
%TO.P,D43,2*%
%TO.N,Net-(D43-Pad2)*%
X170656250Y-7875000D03*
%TO.P,D43,1*%
%TO.N,ROW0*%
X170656250Y-11175000D03*
%TD*%
%TO.P,D41,2*%
%TO.N,Net-(D41-Pad2)*%
X165893750Y-65087500D03*
%TO.P,D41,1*%
%TO.N,ROW7*%
X165893750Y-68387500D03*
%TD*%
%TO.P,D40,2*%
%TO.N,Net-(D40-Pad2)*%
X161131250Y-45975000D03*
%TO.P,D40,1*%
%TO.N,ROW5*%
X161131250Y-49275000D03*
%TD*%
%TO.P,D39,2*%
%TO.N,Net-(D39-Pad2)*%
X151606250Y-26925000D03*
%TO.P,D39,1*%
%TO.N,ROW3*%
X151606250Y-30225000D03*
%TD*%
%TO.P,D38,2*%
%TO.N,Net-(D38-Pad2)*%
X142081250Y-7875000D03*
%TO.P,D38,1*%
%TO.N,ROW1*%
X142081250Y-11175000D03*
%TD*%
%TO.P,D37,2*%
%TO.N,Net-(D37-Pad2)*%
X156368750Y-84075000D03*
%TO.P,D37,1*%
%TO.N,ROW8*%
X156368750Y-87375000D03*
%TD*%
%TO.P,D36,2*%
%TO.N,Net-(D36-Pad2)*%
X146843750Y-65025000D03*
%TO.P,D36,1*%
%TO.N,ROW6*%
X146843750Y-68325000D03*
%TD*%
%TO.P,D35,2*%
%TO.N,Net-(D35-Pad2)*%
X142081250Y-45975000D03*
%TO.P,D35,1*%
%TO.N,ROW4*%
X142081250Y-49275000D03*
%TD*%
%TO.P,D34,2*%
%TO.N,Net-(D34-Pad2)*%
X132556250Y-26925000D03*
%TO.P,D34,1*%
%TO.N,ROW2*%
X132556250Y-30225000D03*
%TD*%
%TO.P,D33,2*%
%TO.N,Net-(D33-Pad2)*%
X123031250Y-7875000D03*
%TO.P,D33,1*%
%TO.N,ROW0*%
X123031250Y-11175000D03*
%TD*%
%TO.P,D32,2*%
%TO.N,Net-(D32-Pad2)*%
X147637500Y-103125000D03*
%TO.P,D32,1*%
%TO.N,ROW10*%
X147637500Y-106425000D03*
%TD*%
%TO.P,D31,2*%
%TO.N,Net-(D31-Pad2)*%
X137318750Y-84075000D03*
%TO.P,D31,1*%
%TO.N,ROW9*%
X137318750Y-87375000D03*
%TD*%
%TO.P,D30,2*%
%TO.N,Net-(D30-Pad2)*%
X127793750Y-65025000D03*
%TO.P,D30,1*%
%TO.N,ROW7*%
X127793750Y-68325000D03*
%TD*%
%TO.P,D29,2*%
%TO.N,Net-(D29-Pad2)*%
X123031250Y-45975000D03*
%TO.P,D29,1*%
%TO.N,ROW5*%
X123031250Y-49275000D03*
%TD*%
%TO.P,D28,2*%
%TO.N,Net-(D28-Pad2)*%
X113506250Y-26925000D03*
%TO.P,D28,1*%
%TO.N,ROW3*%
X113506250Y-30225000D03*
%TD*%
%TO.P,D27,2*%
%TO.N,Net-(D27-Pad2)*%
X103981250Y-7875000D03*
%TO.P,D27,1*%
%TO.N,ROW1*%
X103981250Y-11175000D03*
%TD*%
%TO.P,D26,2*%
%TO.N,Net-(D26-Pad2)*%
X118268750Y-84075000D03*
%TO.P,D26,1*%
%TO.N,ROW8*%
X118268750Y-87375000D03*
%TD*%
%TO.P,D25,2*%
%TO.N,Net-(D25-Pad2)*%
X108743750Y-65025000D03*
%TO.P,D25,1*%
%TO.N,ROW6*%
X108743750Y-68325000D03*
%TD*%
%TO.P,D24,2*%
%TO.N,Net-(D24-Pad2)*%
X103981250Y-45975000D03*
%TO.P,D24,1*%
%TO.N,ROW4*%
X103981250Y-49275000D03*
%TD*%
%TO.P,D23,2*%
%TO.N,Net-(D23-Pad2)*%
X94456250Y-26925000D03*
%TO.P,D23,1*%
%TO.N,ROW2*%
X94456250Y-30225000D03*
%TD*%
%TO.P,D22,2*%
%TO.N,Net-(D22-Pad2)*%
X84931250Y-7875000D03*
%TO.P,D22,1*%
%TO.N,ROW0*%
X84931250Y-11175000D03*
%TD*%
%TO.P,D21,2*%
%TO.N,Net-(D21-Pad2)*%
X99218750Y-84075000D03*
%TO.P,D21,1*%
%TO.N,ROW9*%
X99218750Y-87375000D03*
%TD*%
%TO.P,D20,2*%
%TO.N,Net-(D20-Pad2)*%
X89693750Y-65025000D03*
%TO.P,D20,1*%
%TO.N,ROW7*%
X89693750Y-68325000D03*
%TD*%
%TO.P,D19,2*%
%TO.N,Net-(D19-Pad2)*%
X84931250Y-45975000D03*
%TO.P,D19,1*%
%TO.N,ROW5*%
X84931250Y-49275000D03*
%TD*%
%TO.P,D18,2*%
%TO.N,Net-(D18-Pad2)*%
X75406250Y-26925000D03*
%TO.P,D18,1*%
%TO.N,ROW3*%
X75406250Y-30225000D03*
%TD*%
%TO.P,D17,2*%
%TO.N,Net-(D17-Pad2)*%
X65881250Y-7875000D03*
%TO.P,D17,1*%
%TO.N,ROW1*%
X65881250Y-11175000D03*
%TD*%
%TO.P,D16,2*%
%TO.N,Net-(D16-Pad2)*%
X80168750Y-84075000D03*
%TO.P,D16,1*%
%TO.N,ROW8*%
X80168750Y-87375000D03*
%TD*%
%TO.P,D15,2*%
%TO.N,Net-(D15-Pad2)*%
X70643750Y-65025000D03*
%TO.P,D15,1*%
%TO.N,ROW6*%
X70643750Y-68325000D03*
%TD*%
%TO.P,D14,2*%
%TO.N,Net-(D14-Pad2)*%
X65881250Y-45975000D03*
%TO.P,D14,1*%
%TO.N,ROW4*%
X65881250Y-49275000D03*
%TD*%
%TO.P,D13,2*%
%TO.N,Net-(D13-Pad2)*%
X56356250Y-26925000D03*
%TO.P,D13,1*%
%TO.N,ROW2*%
X56356250Y-30225000D03*
%TD*%
%TO.P,D12,2*%
%TO.N,Net-(D12-Pad2)*%
X46831250Y-7875000D03*
%TO.P,D12,1*%
%TO.N,ROW0*%
X46831250Y-11175000D03*
%TD*%
%TO.P,D11,2*%
%TO.N,Net-(D11-Pad2)*%
X68262500Y-103125000D03*
%TO.P,D11,1*%
%TO.N,ROW10*%
X68262500Y-106425000D03*
%TD*%
%TO.P,D10,2*%
%TO.N,Net-(D10-Pad2)*%
X61118750Y-84075000D03*
%TO.P,D10,1*%
%TO.N,ROW9*%
X61118750Y-87375000D03*
%TD*%
%TO.P,D9,2*%
%TO.N,Net-(D9-Pad2)*%
X51593750Y-65025000D03*
%TO.P,D9,1*%
%TO.N,ROW7*%
X51593750Y-68325000D03*
%TD*%
%TO.P,D8,2*%
%TO.N,Net-(D8-Pad2)*%
X46831250Y-45975000D03*
%TO.P,D8,1*%
%TO.N,ROW5*%
X46831250Y-49275000D03*
%TD*%
%TO.P,D7,2*%
%TO.N,Net-(D7-Pad2)*%
X37306250Y-26925000D03*
%TO.P,D7,1*%
%TO.N,ROW3*%
X37306250Y-30225000D03*
%TD*%
%TO.P,D6,2*%
%TO.N,Net-(D6-Pad2)*%
X44450000Y-103125000D03*
%TO.P,D6,1*%
%TO.N,ROW10*%
X44450000Y-106425000D03*
%TD*%
%TO.P,D5,2*%
%TO.N,Net-(D5-Pad2)*%
X30162500Y-84075000D03*
%TO.P,D5,1*%
%TO.N,ROW8*%
X30162500Y-87375000D03*
%TD*%
%TO.P,D4,2*%
%TO.N,Net-(D4-Pad2)*%
X25400000Y-65025000D03*
%TO.P,D4,1*%
%TO.N,ROW6*%
X25400000Y-68325000D03*
%TD*%
%TO.P,D3,2*%
%TO.N,Net-(D3-Pad2)*%
X23018750Y-45975000D03*
%TO.P,D3,1*%
%TO.N,ROW4*%
X23018750Y-49275000D03*
%TD*%
%TO.P,D2,2*%
%TO.N,Net-(D2-Pad2)*%
X18256250Y-26925000D03*
%TO.P,D2,1*%
%TO.N,ROW2*%
X18256250Y-30225000D03*
%TD*%
%TO.P,D1,2*%
%TO.N,Net-(D1-Pad2)*%
X18256250Y-7875000D03*
%TO.P,D1,1*%
%TO.N,ROW0*%
X18256250Y-11175000D03*
%TD*%
%TO.P,C8,2*%
%TO.N,GND*%
%TA.AperFunction,SMDPad,CuDef*%
G36*
G01*
X304191250Y4443750D02*
X304191250Y3493750D01*
G75*
G02*
X303941250Y3243750I-250000J0D01*
G01*
X303441250Y3243750D01*
G75*
G02*
X303191250Y3493750I0J250000D01*
G01*
X303191250Y4443750D01*
G75*
G02*
X303441250Y4693750I250000J0D01*
G01*
X303941250Y4693750D01*
G75*
G02*
X304191250Y4443750I0J-250000D01*
G01*
G37*
%TD.AperFunction*%
%TO.P,C8,1*%
%TO.N,+5V*%
%TA.AperFunction,SMDPad,CuDef*%
G36*
G01*
X306091250Y4443750D02*
X306091250Y3493750D01*
G75*
G02*
X305841250Y3243750I-250000J0D01*
G01*
X305341250Y3243750D01*
G75*
G02*
X305091250Y3493750I0J250000D01*
G01*
X305091250Y4443750D01*
G75*
G02*
X305341250Y4693750I250000J0D01*
G01*
X305841250Y4693750D01*
G75*
G02*
X306091250Y4443750I0J-250000D01*
G01*
G37*
%TD.AperFunction*%
%TD*%
%TO.P,C7,1*%
%TO.N,+5V*%
%TA.AperFunction,SMDPad,CuDef*%
G36*
G01*
X302737500Y21250D02*
X303687500Y21250D01*
G75*
G02*
X303937500Y-228750I0J-250000D01*
G01*
X303937500Y-728750D01*
G75*
G02*
X303687500Y-978750I-250000J0D01*
G01*
X302737500Y-978750D01*
G75*
G02*
X302487500Y-728750I0J250000D01*
G01*
X302487500Y-228750D01*
G75*
G02*
X302737500Y21250I250000J0D01*
G01*
G37*
%TD.AperFunction*%
%TO.P,C7,2*%
%TO.N,GND*%
%TA.AperFunction,SMDPad,CuDef*%
G36*
G01*
X302737500Y-1878750D02*
X303687500Y-1878750D01*
G75*
G02*
X303937500Y-2128750I0J-250000D01*
G01*
X303937500Y-2628750D01*
G75*
G02*
X303687500Y-2878750I-250000J0D01*
G01*
X302737500Y-2878750D01*
G75*
G02*
X302487500Y-2628750I0J250000D01*
G01*
X302487500Y-2128750D01*
G75*
G02*
X302737500Y-1878750I250000J0D01*
G01*
G37*
%TD.AperFunction*%
%TD*%
%TO.P,C6,2*%
%TO.N,GND*%
%TA.AperFunction,SMDPad,CuDef*%
G36*
G01*
X303687500Y-9360750D02*
X302737500Y-9360750D01*
G75*
G02*
X302487500Y-9110750I0J250000D01*
G01*
X302487500Y-8610750D01*
G75*
G02*
X302737500Y-8360750I250000J0D01*
G01*
X303687500Y-8360750D01*
G75*
G02*
X303937500Y-8610750I0J-250000D01*
G01*
X303937500Y-9110750D01*
G75*
G02*
X303687500Y-9360750I-250000J0D01*
G01*
G37*
%TD.AperFunction*%
%TO.P,C6,1*%
%TO.N,+5V*%
%TA.AperFunction,SMDPad,CuDef*%
G36*
G01*
X303687500Y-11260750D02*
X302737500Y-11260750D01*
G75*
G02*
X302487500Y-11010750I0J250000D01*
G01*
X302487500Y-10510750D01*
G75*
G02*
X302737500Y-10260750I250000J0D01*
G01*
X303687500Y-10260750D01*
G75*
G02*
X303937500Y-10510750I0J-250000D01*
G01*
X303937500Y-11010750D01*
G75*
G02*
X303687500Y-11260750I-250000J0D01*
G01*
G37*
%TD.AperFunction*%
%TD*%
%TO.P,C5,2*%
%TO.N,GND*%
%TA.AperFunction,SMDPad,CuDef*%
G36*
G01*
X316648250Y-14857750D02*
X316648250Y-13907750D01*
G75*
G02*
X316898250Y-13657750I250000J0D01*
G01*
X317398250Y-13657750D01*
G75*
G02*
X317648250Y-13907750I0J-250000D01*
G01*
X317648250Y-14857750D01*
G75*
G02*
X317398250Y-15107750I-250000J0D01*
G01*
X316898250Y-15107750D01*
G75*
G02*
X316648250Y-14857750I0J250000D01*
G01*
G37*
%TD.AperFunction*%
%TO.P,C5,1*%
%TO.N,+5V*%
%TA.AperFunction,SMDPad,CuDef*%
G36*
G01*
X314748250Y-14857750D02*
X314748250Y-13907750D01*
G75*
G02*
X314998250Y-13657750I250000J0D01*
G01*
X315498250Y-13657750D01*
G75*
G02*
X315748250Y-13907750I0J-250000D01*
G01*
X315748250Y-14857750D01*
G75*
G02*
X315498250Y-15107750I-250000J0D01*
G01*
X314998250Y-15107750D01*
G75*
G02*
X314748250Y-14857750I0J250000D01*
G01*
G37*
%TD.AperFunction*%
%TD*%
%TO.P,C4,2*%
%TO.N,GND*%
%TA.AperFunction,SMDPad,CuDef*%
G36*
G01*
X316832000Y6292000D02*
X315882000Y6292000D01*
G75*
G02*
X315632000Y6542000I0J250000D01*
G01*
X315632000Y7042000D01*
G75*
G02*
X315882000Y7292000I250000J0D01*
G01*
X316832000Y7292000D01*
G75*
G02*
X317082000Y7042000I0J-250000D01*
G01*
X317082000Y6542000D01*
G75*
G02*
X316832000Y6292000I-250000J0D01*
G01*
G37*
%TD.AperFunction*%
%TO.P,C4,1*%
%TO.N,+5V*%
%TA.AperFunction,SMDPad,CuDef*%
G36*
G01*
X316832000Y4392000D02*
X315882000Y4392000D01*
G75*
G02*
X315632000Y4642000I0J250000D01*
G01*
X315632000Y5142000D01*
G75*
G02*
X315882000Y5392000I250000J0D01*
G01*
X316832000Y5392000D01*
G75*
G02*
X317082000Y5142000I0J-250000D01*
G01*
X317082000Y4642000D01*
G75*
G02*
X316832000Y4392000I-250000J0D01*
G01*
G37*
%TD.AperFunction*%
%TD*%
%TO.P,C3,2*%
%TO.N,GND*%
%TA.AperFunction,SMDPad,CuDef*%
G36*
G01*
X327475000Y-5745500D02*
X327475000Y-4795500D01*
G75*
G02*
X327725000Y-4545500I250000J0D01*
G01*
X328225000Y-4545500D01*
G75*
G02*
X328475000Y-4795500I0J-250000D01*
G01*
X328475000Y-5745500D01*
G75*
G02*
X328225000Y-5995500I-250000J0D01*
G01*
X327725000Y-5995500D01*
G75*
G02*
X327475000Y-5745500I0J250000D01*
G01*
G37*
%TD.AperFunction*%
%TO.P,C3,1*%
%TO.N,Net-(C3-Pad1)*%
%TA.AperFunction,SMDPad,CuDef*%
G36*
G01*
X325575000Y-5745500D02*
X325575000Y-4795500D01*
G75*
G02*
X325825000Y-4545500I250000J0D01*
G01*
X326325000Y-4545500D01*
G75*
G02*
X326575000Y-4795500I0J-250000D01*
G01*
X326575000Y-5745500D01*
G75*
G02*
X326325000Y-5995500I-250000J0D01*
G01*
X325825000Y-5995500D01*
G75*
G02*
X325575000Y-5745500I0J250000D01*
G01*
G37*
%TD.AperFunction*%
%TD*%
%TO.P,C2,2*%
%TO.N,GND*%
%TA.AperFunction,SMDPad,CuDef*%
G36*
G01*
X326575000Y-6954500D02*
X326575000Y-7904500D01*
G75*
G02*
X326325000Y-8154500I-250000J0D01*
G01*
X325825000Y-8154500D01*
G75*
G02*
X325575000Y-7904500I0J250000D01*
G01*
X325575000Y-6954500D01*
G75*
G02*
X325825000Y-6704500I250000J0D01*
G01*
X326325000Y-6704500D01*
G75*
G02*
X326575000Y-6954500I0J-250000D01*
G01*
G37*
%TD.AperFunction*%
%TO.P,C2,1*%
%TO.N,Net-(C2-Pad1)*%
%TA.AperFunction,SMDPad,CuDef*%
G36*
G01*
X328475000Y-6954500D02*
X328475000Y-7904500D01*
G75*
G02*
X328225000Y-8154500I-250000J0D01*
G01*
X327725000Y-8154500D01*
G75*
G02*
X327475000Y-7904500I0J250000D01*
G01*
X327475000Y-6954500D01*
G75*
G02*
X327725000Y-6704500I250000J0D01*
G01*
X328225000Y-6704500D01*
G75*
G02*
X328475000Y-6954500I0J-250000D01*
G01*
G37*
%TD.AperFunction*%
%TD*%
%TO.P,C1,2*%
%TO.N,GND*%
%TA.AperFunction,SMDPad,CuDef*%
G36*
G01*
X314673000Y6292000D02*
X313723000Y6292000D01*
G75*
G02*
X313473000Y6542000I0J250000D01*
G01*
X313473000Y7042000D01*
G75*
G02*
X313723000Y7292000I250000J0D01*
G01*
X314673000Y7292000D01*
G75*
G02*
X314923000Y7042000I0J-250000D01*
G01*
X314923000Y6542000D01*
G75*
G02*
X314673000Y6292000I-250000J0D01*
G01*
G37*
%TD.AperFunction*%
%TO.P,C1,1*%
%TO.N,Net-(C1-Pad1)*%
%TA.AperFunction,SMDPad,CuDef*%
G36*
G01*
X314673000Y4392000D02*
X313723000Y4392000D01*
G75*
G02*
X313473000Y4642000I0J250000D01*
G01*
X313473000Y5142000D01*
G75*
G02*
X313723000Y5392000I250000J0D01*
G01*
X314673000Y5392000D01*
G75*
G02*
X314923000Y5142000I0J-250000D01*
G01*
X314923000Y4642000D01*
G75*
G02*
X314673000Y4392000I-250000J0D01*
G01*
G37*
%TD.AperFunction*%
%TD*%
D24*
%TO.N,GND*%
X40481250Y3968750D03*
%TO.N,+5V*%
X329406250Y4762500D03*
X323850000Y-1587500D03*
X303212500Y1587500D03*
X303212500Y-12700000D03*
X314325000Y-16668750D03*
%TO.N,ROW4*%
X308768750Y-48418750D03*
X308768750Y-27781250D03*
%TO.N,ROW6*%
X310356250Y-65881250D03*
X310356250Y-27781250D03*
%TO.N,ROW3*%
X307975000Y-31750000D03*
X307975000Y-28575000D03*
%TO.N,ROW5*%
X309562500Y-50800000D03*
X309562500Y-28575000D03*
%TO.N,VCC*%
X308419500Y17780000D03*
X311594500Y17780000D03*
%TO.N,COL0*%
X41275000Y3175000D03*
%TO.N,CAPSLED*%
X311943750Y-70643750D03*
X311943750Y-27781250D03*
%TO.N,ROW8*%
X312737500Y-84931250D03*
X312737500Y-28575000D03*
%TO.N,ROW10*%
X314325000Y-105568750D03*
X314325000Y-28575000D03*
%TO.N,ROW7*%
X311150000Y-68262500D03*
X311150000Y-28575000D03*
%TO.N,ROW9*%
X313531250Y-87312500D03*
X313531250Y-27781250D03*
%TD*%
D25*
%TO.N,GND*%
X322206250Y-5447098D02*
X323906250Y-7147098D01*
D26*
X323906250Y-7147098D02*
X323906250Y-7450000D01*
X322206250Y-5250000D02*
X322206250Y-5447098D01*
X326054500Y-7450000D02*
X326075000Y-7429500D01*
X323906250Y-7450000D02*
X326054500Y-7450000D01*
X326075000Y-7170500D02*
X327975000Y-5270500D01*
X326075000Y-7429500D02*
X326075000Y-7170500D01*
X327975000Y-5270500D02*
X327975000Y-4918750D01*
X327975000Y-4918750D02*
X326231250Y-3175000D01*
X326231250Y-3175000D02*
X321468750Y-3175000D01*
X307374750Y-8756250D02*
X311143750Y-4987250D01*
X306243750Y-8756250D02*
X307374750Y-8756250D01*
X315943750Y-11256250D02*
X315943750Y-5584152D01*
X311143750Y-800000D02*
X311143750Y143750D01*
X311159598Y-800000D02*
X311143750Y-800000D01*
X311143750Y-4987250D02*
X311143750Y-800000D01*
X314337500Y-3956250D02*
X314326674Y-3967076D01*
X317643750Y-3956250D02*
X314337500Y-3956250D01*
X314326674Y-3967076D02*
X311159598Y-800000D01*
X315943750Y-5584152D02*
X314326674Y-3967076D01*
X311159598Y-971402D02*
X311159598Y-800000D01*
X309774750Y-2356250D02*
X311159598Y-971402D01*
X306243750Y-2356250D02*
X309774750Y-2356250D01*
X303235000Y-2356250D02*
X303212500Y-2378750D01*
X306243750Y-2356250D02*
X303235000Y-2356250D01*
X303212500Y-2378750D02*
X302416250Y-2378750D01*
X302416250Y-2378750D02*
X301625000Y-1587500D01*
X301625000Y-1587500D02*
X301625000Y2444750D01*
X303317000Y-8756250D02*
X303212500Y-8860750D01*
X306243750Y-8756250D02*
X303317000Y-8756250D01*
X301625000Y-13684250D02*
X302567265Y-14626515D01*
X301625000Y-9525000D02*
X301625000Y-13684250D01*
X302289250Y-8860750D02*
X301625000Y-9525000D01*
X303212500Y-8860750D02*
X302289250Y-8860750D01*
X315943750Y-11256250D02*
X315943750Y-12731250D01*
X317148250Y-13935750D02*
X317148250Y-14382750D01*
X315943750Y-12731250D02*
X317148250Y-13935750D01*
X314198000Y6792000D02*
X316357000Y6792000D01*
X320687500Y-3956250D02*
X321468750Y-3175000D01*
X317643750Y-3956250D02*
X320687500Y-3956250D01*
X324814250Y6350000D02*
X324889250Y6275000D01*
X306535198Y15322500D02*
X305620198Y16237500D01*
X306690198Y15322500D02*
X306535198Y15322500D01*
X313345198Y15322500D02*
X314260198Y16237500D01*
X313190198Y15398750D02*
X313345198Y15398750D01*
X313190198Y14596802D02*
X313190198Y15322500D01*
X317159000Y13811250D02*
X317150750Y13819500D01*
X317150750Y13819500D02*
X313984000Y13819500D01*
X313206698Y14596802D02*
X313190198Y14596802D01*
X313984000Y13819500D02*
X313206698Y14596802D01*
X302704500Y13819500D02*
X306030000Y13819500D01*
X306690198Y14479698D02*
X306690198Y15322500D01*
X306030000Y13819500D02*
X306690198Y14479698D01*
X314260198Y16237500D02*
X314260198Y20417500D01*
X305620198Y16237500D02*
X305620198Y20417500D01*
X311143750Y143750D02*
X311143750Y2375000D01*
X311143750Y2375000D02*
X312737500Y3968750D01*
X313190198Y13725698D02*
X313190198Y13946448D01*
X310945250Y12211750D02*
X311676250Y12211750D01*
X313190198Y13946448D02*
X313190198Y15322500D01*
X312737500Y13273000D02*
X312847875Y13383375D01*
X312847875Y13383375D02*
X313190198Y13725698D01*
X311676250Y12211750D02*
X312847875Y13383375D01*
X303149000Y3968750D02*
X301625000Y2444750D01*
X303691250Y3968750D02*
X303149000Y3968750D01*
X40481250Y3968750D02*
X292893750Y3968750D01*
X314198000Y6792000D02*
X313089250Y6792000D01*
X313089250Y6792000D02*
X312737500Y7143750D01*
X312737500Y7143750D02*
X312737500Y13273000D01*
X312737500Y3968750D02*
X312737500Y7143750D01*
X292893750Y4008750D02*
X302704500Y13819500D01*
X292893750Y3968750D02*
X292893750Y4008750D01*
X324695250Y6275000D02*
X317150750Y13819500D01*
X324889250Y6275000D02*
X324695250Y6275000D01*
D27*
%TO.N,Net-(C1-Pad1)*%
X314198000Y3841750D02*
X311943750Y1587500D01*
X314198000Y4892000D02*
X314198000Y3841750D01*
X311943750Y143750D02*
X311943750Y1587500D01*
%TO.N,Net-(C2-Pad1)*%
X322206250Y-7450000D02*
X322206250Y-7881250D01*
X322206250Y-7881250D02*
X323056250Y-8731250D01*
X327975000Y-7429500D02*
X327975000Y-7781250D01*
X327975000Y-7781250D02*
X327025000Y-8731250D01*
X323056250Y-8731250D02*
X327025000Y-8731250D01*
X320312500Y-5556250D02*
X322206250Y-7450000D01*
X317643750Y-5556250D02*
X320312500Y-5556250D01*
%TO.N,Net-(C3-Pad1)*%
X323906250Y-5064998D02*
X323906250Y-5250000D01*
X322810002Y-3968750D02*
X323906250Y-5064998D01*
X321468750Y-3968750D02*
X322810002Y-3968750D01*
X326054500Y-5250000D02*
X326075000Y-5270500D01*
X323906250Y-5250000D02*
X326054500Y-5250000D01*
X320681250Y-4756250D02*
X321468750Y-3968750D01*
X317643750Y-4756250D02*
X320681250Y-4756250D01*
D26*
%TO.N,+5V*%
X306243750Y-1556250D02*
X304768750Y-1556250D01*
X303691250Y-478750D02*
X303212500Y-478750D01*
X304768750Y-1556250D02*
X303691250Y-478750D01*
X303212500Y-478750D02*
X303212500Y1587500D01*
X306243750Y-9556250D02*
X304768750Y-9556250D01*
X303564250Y-10760750D02*
X303212500Y-10760750D01*
X304768750Y-9556250D02*
X303564250Y-10760750D01*
X303212500Y-10760750D02*
X303212500Y-12700000D01*
X315143750Y-14278250D02*
X315248250Y-14382750D01*
X315143750Y-11256250D02*
X315143750Y-14278250D01*
X315248250Y-14382750D02*
X315248250Y-15745500D01*
X315248250Y-15745500D02*
X314325000Y-16668750D01*
X317643750Y-3156250D02*
X319900000Y-3156250D01*
X321477000Y-1579250D02*
X322262500Y-1579250D01*
X319900000Y-3156250D02*
X321477000Y-1579250D01*
X323841750Y-1579250D02*
X323850000Y-1587500D01*
X322262500Y-1579250D02*
X323841750Y-1579250D01*
X316486500Y4762500D02*
X316357000Y4892000D01*
X329406250Y4762500D02*
X316486500Y4762500D01*
X316357000Y4888000D02*
X316357000Y4892000D01*
X312743750Y1274750D02*
X316357000Y4888000D01*
X312743750Y143750D02*
X312743750Y1274750D01*
X308743750Y1071652D02*
X308743750Y143750D01*
X305591250Y6535000D02*
X305593750Y6537500D01*
X305591250Y3968750D02*
X305591250Y6535000D01*
X303212500Y1590000D02*
X305591250Y3968750D01*
X303212500Y1587500D02*
X303212500Y1590000D01*
X305846652Y3968750D02*
X308743750Y1071652D01*
X305591250Y3968750D02*
X305846652Y3968750D01*
D27*
%TO.N,Net-(D1-Pad2)*%
X18256250Y-7875000D02*
X18193750Y-7875000D01*
X14763750Y-4445000D02*
X12065000Y-4445000D01*
X18193750Y-7875000D02*
X14763750Y-4445000D01*
%TO.N,ROW0*%
X46831250Y-11175000D02*
X47687500Y-11175000D01*
X47687500Y-11175000D02*
X49212500Y-12700000D01*
X49212500Y-12700000D02*
X61912500Y-12700000D01*
X61912500Y-12700000D02*
X65087500Y-9525000D01*
X65087500Y-9525000D02*
X66675000Y-9525000D01*
X66675000Y-9525000D02*
X69850000Y-12700000D01*
X69850000Y-12700000D02*
X82550000Y-12700000D01*
X84075000Y-11175000D02*
X82550000Y-12700000D01*
X84931250Y-11175000D02*
X84075000Y-11175000D01*
X84931250Y-11175000D02*
X85787500Y-11175000D01*
X85787500Y-11175000D02*
X87312500Y-12700000D01*
X87312500Y-12700000D02*
X100012500Y-12700000D01*
X100012500Y-12700000D02*
X103187500Y-9525000D01*
X103187500Y-9525000D02*
X104775000Y-9525000D01*
X104775000Y-9525000D02*
X107950000Y-12700000D01*
X107950000Y-12700000D02*
X120650000Y-12700000D01*
X122175000Y-11175000D02*
X120650000Y-12700000D01*
X123031250Y-11175000D02*
X122175000Y-11175000D01*
X123887500Y-11175000D02*
X123031250Y-11175000D01*
X125412500Y-12700000D02*
X123887500Y-11175000D01*
X142875000Y-9525000D02*
X141287500Y-9525000D01*
X141287500Y-9525000D02*
X138112500Y-12700000D01*
X146050000Y-12700000D02*
X142875000Y-9525000D01*
X168275000Y-12700000D02*
X146050000Y-12700000D01*
X138112500Y-12700000D02*
X125412500Y-12700000D01*
X169800000Y-11175000D02*
X168275000Y-12700000D01*
X170656250Y-11175000D02*
X169800000Y-11175000D01*
X170656250Y-11175000D02*
X171512500Y-11175000D01*
X171512500Y-11175000D02*
X173037500Y-12700000D01*
X173037500Y-12700000D02*
X185737500Y-12700000D01*
X185737500Y-12700000D02*
X188912500Y-9525000D01*
X188912500Y-9525000D02*
X190500000Y-9525000D01*
X190500000Y-9525000D02*
X190631251Y-9656251D01*
X190631251Y-9656251D02*
X193675000Y-12700000D01*
X193675000Y-12700000D02*
X206375000Y-12700000D01*
X208756250Y-11175000D02*
X207900000Y-11175000D01*
X207900000Y-11175000D02*
X206375000Y-12700000D01*
X208756250Y-11175000D02*
X209612500Y-11175000D01*
X209612500Y-11175000D02*
X211137500Y-12700000D01*
X211137500Y-12700000D02*
X223837500Y-12700000D01*
X223837500Y-12700000D02*
X227012500Y-9525000D01*
X227012500Y-9525000D02*
X228600000Y-9525000D01*
X228600000Y-9525000D02*
X231775000Y-12700000D01*
X231775000Y-12700000D02*
X244475000Y-12700000D01*
X246000000Y-11175000D02*
X244475000Y-12700000D01*
X246856250Y-11175000D02*
X246000000Y-11175000D01*
X246856250Y-11175000D02*
X247712500Y-11175000D01*
X247712500Y-11175000D02*
X249237500Y-12700000D01*
X249237500Y-12700000D02*
X261937500Y-12700000D01*
X261937500Y-12700000D02*
X265112500Y-9525000D01*
X265112500Y-9525000D02*
X266700000Y-9525000D01*
X266700000Y-9525000D02*
X269875000Y-12700000D01*
X269875000Y-12700000D02*
X292100000Y-12700000D01*
X294481250Y-11175000D02*
X293625000Y-11175000D01*
X293625000Y-11175000D02*
X292100000Y-12700000D01*
X45975000Y-11175000D02*
X46831250Y-11175000D01*
X43656250Y-13493750D02*
X45975000Y-11175000D01*
X21431250Y-13493750D02*
X43656250Y-13493750D01*
X19112500Y-11175000D02*
X21431250Y-13493750D01*
X18256250Y-11175000D02*
X19112500Y-11175000D01*
X310343750Y-15093750D02*
X310343750Y-11256250D01*
X294481250Y-11175000D02*
X295337500Y-11175000D01*
X310343750Y-15093750D02*
X306387500Y-19050000D01*
X306387500Y-19050000D02*
X303212500Y-19050000D01*
X303212500Y-19050000D02*
X295337500Y-11175000D01*
%TO.N,Net-(D2-Pad2)*%
X18256250Y-26925000D02*
X18193750Y-26925000D01*
X14763750Y-23495000D02*
X12065000Y-23495000D01*
X18193750Y-26925000D02*
X14763750Y-23495000D01*
%TO.N,ROW2*%
X18256250Y-30225000D02*
X19112500Y-30225000D01*
X19112500Y-30225000D02*
X20637500Y-31750000D01*
X20637500Y-31750000D02*
X33337500Y-31750000D01*
X33337500Y-31750000D02*
X36512500Y-28575000D01*
X36512500Y-28575000D02*
X38100000Y-28575000D01*
X38100000Y-28575000D02*
X41275000Y-31750000D01*
X41275000Y-31750000D02*
X53975000Y-31750000D01*
X55500000Y-30225000D02*
X53975000Y-31750000D01*
X56356250Y-30225000D02*
X55500000Y-30225000D01*
X56356250Y-30225000D02*
X57212500Y-30225000D01*
X57212500Y-30225000D02*
X58737500Y-31750000D01*
X58737500Y-31750000D02*
X71437500Y-31750000D01*
X71437500Y-31750000D02*
X74612500Y-28575000D01*
X74612500Y-28575000D02*
X76200000Y-28575000D01*
X76200000Y-28575000D02*
X79375000Y-31750000D01*
X79375000Y-31750000D02*
X92075000Y-31750000D01*
X93600000Y-30225000D02*
X92075000Y-31750000D01*
X94456250Y-30225000D02*
X93600000Y-30225000D01*
X94456250Y-30225000D02*
X95312500Y-30225000D01*
X95312500Y-30225000D02*
X96837500Y-31750000D01*
X96837500Y-31750000D02*
X109537500Y-31750000D01*
X109537500Y-31750000D02*
X112712500Y-28575000D01*
X112712500Y-28575000D02*
X114300000Y-28575000D01*
X114300000Y-28575000D02*
X117475000Y-31750000D01*
X117475000Y-31750000D02*
X130175000Y-31750000D01*
X131700000Y-30225000D02*
X130175000Y-31750000D01*
X132556250Y-30225000D02*
X131700000Y-30225000D01*
X132556250Y-30225000D02*
X133412500Y-30225000D01*
X133412500Y-30225000D02*
X134937500Y-31750000D01*
X134937500Y-31750000D02*
X147637500Y-31750000D01*
X147637500Y-31750000D02*
X150812500Y-28575000D01*
X150812500Y-28575000D02*
X152400000Y-28575000D01*
X152400000Y-28575000D02*
X155575000Y-31750000D01*
X155575000Y-31750000D02*
X168275000Y-31750000D01*
X170656250Y-30225000D02*
X169800000Y-30225000D01*
X169800000Y-30225000D02*
X168275000Y-31750000D01*
X170656250Y-30225000D02*
X171512500Y-30225000D01*
X171512500Y-30225000D02*
X173037500Y-31750000D01*
X173037500Y-31750000D02*
X185737500Y-31750000D01*
X185737500Y-31750000D02*
X188912500Y-28575000D01*
X188912500Y-28575000D02*
X190500000Y-28575000D01*
X190500000Y-28575000D02*
X193675000Y-31750000D01*
X193675000Y-31750000D02*
X206375000Y-31750000D01*
X207900000Y-30225000D02*
X206375000Y-31750000D01*
X208756250Y-30225000D02*
X207900000Y-30225000D01*
X208756250Y-30225000D02*
X209612500Y-30225000D01*
X209612500Y-30225000D02*
X211137500Y-31750000D01*
X211137500Y-31750000D02*
X223837500Y-31750000D01*
X223837500Y-31750000D02*
X227012500Y-28575000D01*
X227012500Y-28575000D02*
X228600000Y-28575000D01*
X228600000Y-28575000D02*
X231775000Y-31750000D01*
X231775000Y-31750000D02*
X244475000Y-31750000D01*
X246000000Y-30225000D02*
X244475000Y-31750000D01*
X246856250Y-30225000D02*
X246000000Y-30225000D01*
X246856250Y-30225000D02*
X247712500Y-30225000D01*
X247712500Y-30225000D02*
X249237500Y-31750000D01*
X249237500Y-31750000D02*
X261937500Y-31750000D01*
X261937500Y-31750000D02*
X265112500Y-28575000D01*
X265112500Y-28575000D02*
X266700000Y-28575000D01*
X266700000Y-28575000D02*
X269875000Y-31750000D01*
X269875000Y-31750000D02*
X287337500Y-31750000D01*
X288862500Y-30225000D02*
X287337500Y-31750000D01*
X289718750Y-30225000D02*
X288862500Y-30225000D01*
X290575000Y-30225000D02*
X289718750Y-30225000D01*
X304800000Y-31750000D02*
X292100000Y-31750000D01*
X307181250Y-29368750D02*
X304800000Y-31750000D01*
X309562500Y-31750000D02*
X307181250Y-29368750D01*
X292100000Y-31750000D02*
X290575000Y-30225000D01*
X328612500Y-31750000D02*
X309562500Y-31750000D01*
X331787500Y-28575000D02*
X328612500Y-31750000D01*
X333375000Y-28575000D02*
X331787500Y-28575000D01*
X336550000Y-31750000D02*
X333375000Y-28575000D01*
X349250000Y-31750000D02*
X336550000Y-31750000D01*
X350775000Y-30225000D02*
X349250000Y-31750000D01*
X351631250Y-30225000D02*
X350775000Y-30225000D01*
X311943750Y-15081250D02*
X311943750Y-11256250D01*
X307181250Y-19843750D02*
X311943750Y-15081250D01*
X307181250Y-29368750D02*
X307181250Y-19843750D01*
%TO.N,Net-(D3-Pad2)*%
X23018750Y-45975000D02*
X22956250Y-45975000D01*
X19526250Y-42545000D02*
X16827500Y-42545000D01*
X22956250Y-45975000D02*
X19526250Y-42545000D01*
%TO.N,ROW4*%
X23018750Y-49275000D02*
X23875000Y-49275000D01*
X23875000Y-49275000D02*
X25400000Y-50800000D01*
X25400000Y-50800000D02*
X42862500Y-50800000D01*
X42862500Y-50800000D02*
X46037500Y-47625000D01*
X46037500Y-47625000D02*
X47625000Y-47625000D01*
X47625000Y-47625000D02*
X50800000Y-50800000D01*
X50800000Y-50800000D02*
X63500000Y-50800000D01*
X65025000Y-49275000D02*
X63500000Y-50800000D01*
X65881250Y-49275000D02*
X65025000Y-49275000D01*
X65881250Y-49275000D02*
X66737500Y-49275000D01*
X66737500Y-49275000D02*
X68262500Y-50800000D01*
X68262500Y-50800000D02*
X80962500Y-50800000D01*
X80962500Y-50800000D02*
X84137500Y-47625000D01*
X84137500Y-47625000D02*
X85725000Y-47625000D01*
X85725000Y-47625000D02*
X88900000Y-50800000D01*
X88900000Y-50800000D02*
X101600000Y-50800000D01*
X103125000Y-49275000D02*
X101600000Y-50800000D01*
X103981250Y-49275000D02*
X103125000Y-49275000D01*
X103981250Y-49275000D02*
X104837500Y-49275000D01*
X104837500Y-49275000D02*
X106362500Y-50800000D01*
X106362500Y-50800000D02*
X119062500Y-50800000D01*
X119062500Y-50800000D02*
X122237500Y-47625000D01*
X122237500Y-47625000D02*
X123825000Y-47625000D01*
X123825000Y-47625000D02*
X127000000Y-50800000D01*
X127000000Y-50800000D02*
X139700000Y-50800000D01*
X141225000Y-49275000D02*
X139700000Y-50800000D01*
X142081250Y-49275000D02*
X141225000Y-49275000D01*
X142081250Y-49275000D02*
X142937500Y-49275000D01*
X142937500Y-49275000D02*
X144462500Y-50800000D01*
X144462500Y-50800000D02*
X157162500Y-50800000D01*
X157162500Y-50800000D02*
X160337500Y-47625000D01*
X160337500Y-47625000D02*
X161925000Y-47625000D01*
X161925000Y-47625000D02*
X165100000Y-50800000D01*
X165100000Y-50800000D02*
X177800000Y-50800000D01*
X179325000Y-49275000D02*
X177800000Y-50800000D01*
X180181250Y-49275000D02*
X179325000Y-49275000D01*
X180181250Y-49275000D02*
X181037500Y-49275000D01*
X181037500Y-49275000D02*
X182562500Y-50800000D01*
X182562500Y-50800000D02*
X195262500Y-50800000D01*
X195262500Y-50800000D02*
X198437500Y-47625000D01*
X198437500Y-47625000D02*
X200025000Y-47625000D01*
X200025000Y-47625000D02*
X203200000Y-50800000D01*
X203200000Y-50800000D02*
X215900000Y-50800000D01*
X217425000Y-49275000D02*
X215900000Y-50800000D01*
X218281250Y-49275000D02*
X217425000Y-49275000D01*
X249300000Y-58800000D02*
X256381250Y-58800000D01*
X236537500Y-47625000D02*
X238125000Y-47625000D01*
X233362500Y-50800000D02*
X236537500Y-47625000D01*
X238125000Y-47625000D02*
X249300000Y-58800000D01*
X220662500Y-50800000D02*
X233362500Y-50800000D01*
X219137500Y-49275000D02*
X220662500Y-50800000D01*
X218281250Y-49275000D02*
X219137500Y-49275000D01*
X256381250Y-58800000D02*
X257237500Y-58800000D01*
X257237500Y-58800000D02*
X258762500Y-60325000D01*
X258762500Y-60325000D02*
X271462500Y-60325000D01*
X271462500Y-60325000D02*
X274637500Y-57150000D01*
X274637500Y-57150000D02*
X285750000Y-57150000D01*
X293625000Y-49275000D02*
X285750000Y-57150000D01*
X294481250Y-49275000D02*
X293625000Y-49275000D01*
X294481250Y-49275000D02*
X295337500Y-49275000D01*
X295337500Y-49275000D02*
X296862500Y-50800000D01*
X328612500Y-50800000D02*
X331787500Y-47625000D01*
X331787500Y-47625000D02*
X333375000Y-47625000D01*
X333375000Y-47625000D02*
X336550000Y-50800000D01*
X336550000Y-50800000D02*
X349250000Y-50800000D01*
X351631250Y-49275000D02*
X350775000Y-49275000D01*
X350775000Y-49275000D02*
X349250000Y-50800000D01*
X311150000Y-50800000D02*
X308768750Y-48418750D01*
X311150000Y-50800000D02*
X328612500Y-50800000D01*
X308768750Y-48418750D02*
X306387500Y-50800000D01*
X308768750Y-48418750D02*
X308768750Y-48418750D01*
X296862500Y-50800000D02*
X306387500Y-50800000D01*
X313543750Y-15068750D02*
X313543750Y-11256250D01*
X308768750Y-19843750D02*
X313543750Y-15068750D01*
X308768750Y-27781250D02*
X308768750Y-19843750D01*
%TO.N,Net-(D4-Pad2)*%
X25400000Y-65025000D02*
X25337500Y-65025000D01*
X25337500Y-65025000D02*
X23812500Y-63500000D01*
X12223750Y-63500000D02*
X11588750Y-64135000D01*
X23812500Y-63500000D02*
X12223750Y-63500000D01*
%TO.N,ROW6*%
X25400000Y-68325000D02*
X26256250Y-68325000D01*
X26256250Y-68325000D02*
X27781250Y-69850000D01*
X27781250Y-69850000D02*
X47625000Y-69850000D01*
X47625000Y-69850000D02*
X50800000Y-66675000D01*
X50800000Y-66675000D02*
X52387500Y-66675000D01*
X52387500Y-66675000D02*
X55562500Y-69850000D01*
X55562500Y-69850000D02*
X68262500Y-69850000D01*
X70643750Y-68325000D02*
X69787500Y-68325000D01*
X69787500Y-68325000D02*
X68262500Y-69850000D01*
X70643750Y-68325000D02*
X71500000Y-68325000D01*
X71500000Y-68325000D02*
X73025000Y-69850000D01*
X73025000Y-69850000D02*
X85725000Y-69850000D01*
X85725000Y-69850000D02*
X88900000Y-66675000D01*
X88900000Y-66675000D02*
X90487500Y-66675000D01*
X90487500Y-66675000D02*
X93662500Y-69850000D01*
X93662500Y-69850000D02*
X106362500Y-69850000D01*
X108743750Y-68325000D02*
X107887500Y-68325000D01*
X107887500Y-68325000D02*
X106362500Y-69850000D01*
X108743750Y-68325000D02*
X109600000Y-68325000D01*
X109600000Y-68325000D02*
X111125000Y-69850000D01*
X111125000Y-69850000D02*
X123825000Y-69850000D01*
X123825000Y-69850000D02*
X127000000Y-66675000D01*
X127000000Y-66675000D02*
X128587500Y-66675000D01*
X128587500Y-66675000D02*
X131762500Y-69850000D01*
X131762500Y-69850000D02*
X144462500Y-69850000D01*
X145987500Y-68325000D02*
X144462500Y-69850000D01*
X146843750Y-68325000D02*
X145987500Y-68325000D01*
X146843750Y-68325000D02*
X147700000Y-68325000D01*
X147700000Y-68325000D02*
X149225000Y-69850000D01*
X149225000Y-69850000D02*
X161925000Y-69850000D01*
X161925000Y-69850000D02*
X165100000Y-66675000D01*
X165100000Y-66675000D02*
X166687500Y-66675000D01*
X166687500Y-66675000D02*
X169862500Y-69850000D01*
X169862500Y-69850000D02*
X182562500Y-69850000D01*
X184087500Y-68325000D02*
X182562500Y-69850000D01*
X184943750Y-68325000D02*
X184087500Y-68325000D01*
X184943750Y-68325000D02*
X185800000Y-68325000D01*
X185800000Y-68325000D02*
X187325000Y-69850000D01*
X187325000Y-69850000D02*
X200025000Y-69850000D01*
X200025000Y-69850000D02*
X203200000Y-66675000D01*
X203200000Y-66675000D02*
X204787500Y-66675000D01*
X204787500Y-66675000D02*
X207962500Y-69850000D01*
X207962500Y-69850000D02*
X220662500Y-69850000D01*
X222187500Y-68325000D02*
X220662500Y-69850000D01*
X223043750Y-68325000D02*
X222187500Y-68325000D01*
X223043750Y-68325000D02*
X223900000Y-68325000D01*
X223900000Y-68325000D02*
X225425000Y-69850000D01*
X225425000Y-69850000D02*
X238125000Y-69850000D01*
X238125000Y-69850000D02*
X241300000Y-66675000D01*
X241300000Y-66675000D02*
X242887500Y-66675000D01*
X242887500Y-66675000D02*
X248443750Y-72231250D01*
X248443750Y-72231250D02*
X289718750Y-72231250D01*
X293625000Y-68325000D02*
X289718750Y-72231250D01*
X294481250Y-68325000D02*
X293625000Y-68325000D01*
X294481250Y-68325000D02*
X295337500Y-68325000D01*
X295337500Y-68325000D02*
X296862500Y-69850000D01*
X328612500Y-69850000D02*
X331787500Y-66675000D01*
X331787500Y-66675000D02*
X333375000Y-66675000D01*
X333375000Y-66675000D02*
X336550000Y-69850000D01*
X336550000Y-69850000D02*
X349250000Y-69850000D01*
X350775000Y-68325000D02*
X349250000Y-69850000D01*
X351631250Y-68325000D02*
X350775000Y-68325000D01*
X314325000Y-69850000D02*
X310356250Y-65881250D01*
X314325000Y-69850000D02*
X328612500Y-69850000D01*
X310356250Y-65881250D02*
X306387500Y-69850000D01*
X296862500Y-69850000D02*
X306387500Y-69850000D01*
X310356250Y-65881250D02*
X310356250Y-65881250D01*
X318325000Y-9556250D02*
X317643750Y-9556250D01*
X319881250Y-11112500D02*
X318325000Y-9556250D01*
X319881250Y-15081250D02*
X319881250Y-11112500D01*
X310356250Y-24606250D02*
X319881250Y-15081250D01*
X310356250Y-27781250D02*
X310356250Y-24606250D01*
%TO.N,Net-(D5-Pad2)*%
X30162500Y-84075000D02*
X30100000Y-84075000D01*
X26670000Y-80645000D02*
X23971250Y-80645000D01*
X30100000Y-84075000D02*
X26670000Y-80645000D01*
%TO.N,Net-(D6-Pad2)*%
X44450000Y-103125000D02*
X44387500Y-103125000D01*
X40957500Y-99695000D02*
X38258750Y-99695000D01*
X44387500Y-103125000D02*
X40957500Y-99695000D01*
%TO.N,Net-(D7-Pad2)*%
X37306250Y-26925000D02*
X37243750Y-26925000D01*
X33813750Y-23495000D02*
X31115000Y-23495000D01*
X37243750Y-26925000D02*
X33813750Y-23495000D01*
%TO.N,ROW3*%
X370681250Y-30225000D02*
X370681250Y-30956250D01*
X370681250Y-30956250D02*
X369093750Y-32543750D01*
X369093750Y-32543750D02*
X335756250Y-32543750D01*
X333437500Y-30225000D02*
X335756250Y-32543750D01*
X332581250Y-30225000D02*
X333437500Y-30225000D01*
X332581250Y-30225000D02*
X331725000Y-30225000D01*
X331725000Y-30225000D02*
X329406250Y-32543750D01*
X37306250Y-30225000D02*
X38162500Y-30225000D01*
X38162500Y-30225000D02*
X40481250Y-32543750D01*
X40481250Y-32543750D02*
X72231250Y-32543750D01*
X74550000Y-30225000D02*
X72231250Y-32543750D01*
X75406250Y-30225000D02*
X74550000Y-30225000D01*
X75406250Y-30225000D02*
X76262500Y-30225000D01*
X76262500Y-30225000D02*
X78581250Y-32543750D01*
X78581250Y-32543750D02*
X110331250Y-32543750D01*
X112650000Y-30225000D02*
X110331250Y-32543750D01*
X113506250Y-30225000D02*
X112650000Y-30225000D01*
X113506250Y-30225000D02*
X114362500Y-30225000D01*
X114362500Y-30225000D02*
X116681250Y-32543750D01*
X116681250Y-32543750D02*
X148431250Y-32543750D01*
X150750000Y-30225000D02*
X148431250Y-32543750D01*
X151606250Y-30225000D02*
X150750000Y-30225000D01*
X151606250Y-30225000D02*
X152462500Y-30225000D01*
X152462500Y-30225000D02*
X154781250Y-32543750D01*
X154781250Y-32543750D02*
X186531250Y-32543750D01*
X188850000Y-30225000D02*
X186531250Y-32543750D01*
X189706250Y-30225000D02*
X188850000Y-30225000D01*
X189706250Y-30225000D02*
X190562500Y-30225000D01*
X190562500Y-30225000D02*
X192881250Y-32543750D01*
X192881250Y-32543750D02*
X224631250Y-32543750D01*
X226950000Y-30225000D02*
X224631250Y-32543750D01*
X227806250Y-30225000D02*
X226950000Y-30225000D01*
X227806250Y-30225000D02*
X228662500Y-30225000D01*
X228662500Y-30225000D02*
X230981250Y-32543750D01*
X230981250Y-32543750D02*
X262731250Y-32543750D01*
X265050000Y-30225000D02*
X262731250Y-32543750D01*
X265906250Y-30225000D02*
X265050000Y-30225000D01*
X265906250Y-30225000D02*
X266762500Y-30225000D01*
X266762500Y-30225000D02*
X269081250Y-32543750D01*
X307181250Y-32543750D02*
X307975000Y-31750000D01*
X269081250Y-32543750D02*
X307181250Y-32543750D01*
X308768750Y-32543750D02*
X307975000Y-31750000D01*
X308768750Y-32543750D02*
X329406250Y-32543750D01*
X312743750Y-15075000D02*
X312743750Y-11256250D01*
X307975000Y-19843750D02*
X312743750Y-15075000D01*
X307975000Y-28575000D02*
X307975000Y-19843750D01*
%TO.N,Net-(D8-Pad2)*%
X46831250Y-45975000D02*
X46768750Y-45975000D01*
X43338750Y-42545000D02*
X40640000Y-42545000D01*
X46768750Y-45975000D02*
X43338750Y-42545000D01*
%TO.N,ROW5*%
X370681250Y-50006250D02*
X370681250Y-49275000D01*
X369093750Y-51593750D02*
X370681250Y-50006250D01*
X335756250Y-51593750D02*
X369093750Y-51593750D01*
X333437500Y-49275000D02*
X335756250Y-51593750D01*
X332581250Y-49275000D02*
X333437500Y-49275000D01*
X46831250Y-49275000D02*
X47687500Y-49275000D01*
X47687500Y-49275000D02*
X50006250Y-51593750D01*
X50006250Y-51593750D02*
X81756250Y-51593750D01*
X84075000Y-49275000D02*
X81756250Y-51593750D01*
X84931250Y-49275000D02*
X84075000Y-49275000D01*
X84931250Y-49275000D02*
X85787500Y-49275000D01*
X85787500Y-49275000D02*
X88106250Y-51593750D01*
X88106250Y-51593750D02*
X119856250Y-51593750D01*
X122175000Y-49275000D02*
X119856250Y-51593750D01*
X123031250Y-49275000D02*
X122175000Y-49275000D01*
X123031250Y-49275000D02*
X123887500Y-49275000D01*
X123887500Y-49275000D02*
X126206250Y-51593750D01*
X126206250Y-51593750D02*
X157956250Y-51593750D01*
X160275000Y-49275000D02*
X157956250Y-51593750D01*
X161131250Y-49275000D02*
X160275000Y-49275000D01*
X161131250Y-49275000D02*
X161987500Y-49275000D01*
X161987500Y-49275000D02*
X164306250Y-51593750D01*
X164306250Y-51593750D02*
X196056250Y-51593750D01*
X199231250Y-49275000D02*
X198375000Y-49275000D01*
X198375000Y-49275000D02*
X196056250Y-51593750D01*
X199231250Y-49275000D02*
X200087500Y-49275000D01*
X200087500Y-49275000D02*
X202406250Y-51593750D01*
X202406250Y-51593750D02*
X234156250Y-51593750D01*
X236475000Y-49275000D02*
X234156250Y-51593750D01*
X237331250Y-49275000D02*
X236475000Y-49275000D01*
X237331250Y-49275000D02*
X238187500Y-49275000D01*
X238187500Y-49275000D02*
X250031250Y-61118750D01*
X250031250Y-61118750D02*
X272256250Y-61118750D01*
X275431250Y-58800000D02*
X274575000Y-58800000D01*
X274575000Y-58800000D02*
X272256250Y-61118750D01*
X285750000Y-58737500D02*
X275493750Y-58737500D01*
X292893750Y-51593750D02*
X285750000Y-58737500D01*
X331725000Y-49275000D02*
X329406250Y-51593750D01*
X275493750Y-58737500D02*
X275431250Y-58800000D01*
X332581250Y-49275000D02*
X331725000Y-49275000D01*
X310356250Y-51593750D02*
X309562500Y-50800000D01*
X329406250Y-51593750D02*
X310356250Y-51593750D01*
X309562500Y-50800000D02*
X308768750Y-51593750D01*
X308768750Y-51593750D02*
X292893750Y-51593750D01*
X309562500Y-50800000D02*
X309562500Y-50800000D01*
X314343750Y-15062500D02*
X314343750Y-11256250D01*
X309562500Y-19843750D02*
X314343750Y-15062500D01*
X309562500Y-28575000D02*
X309562500Y-19843750D01*
%TO.N,Net-(D9-Pad2)*%
X51593750Y-65025000D02*
X51531250Y-65025000D01*
X48101250Y-61595000D02*
X45402500Y-61595000D01*
X51531250Y-65025000D02*
X48101250Y-61595000D01*
%TO.N,Net-(D10-Pad2)*%
X61118750Y-84075000D02*
X61056250Y-84075000D01*
X57626250Y-80645000D02*
X54927500Y-80645000D01*
X61056250Y-84075000D02*
X57626250Y-80645000D01*
%TO.N,Net-(D11-Pad2)*%
X68262500Y-103125000D02*
X68200000Y-103125000D01*
X64770000Y-99695000D02*
X62071250Y-99695000D01*
X68200000Y-103125000D02*
X64770000Y-99695000D01*
%TO.N,Net-(D12-Pad2)*%
X46831250Y-7875000D02*
X46768750Y-7875000D01*
X43338750Y-4445000D02*
X40640000Y-4445000D01*
X46768750Y-7875000D02*
X43338750Y-4445000D01*
%TO.N,Net-(D13-Pad2)*%
X56356250Y-26925000D02*
X56293750Y-26925000D01*
X52863750Y-23495000D02*
X50165000Y-23495000D01*
X56293750Y-26925000D02*
X52863750Y-23495000D01*
%TO.N,Net-(D14-Pad2)*%
X65881250Y-45975000D02*
X65818750Y-45975000D01*
X62388750Y-42545000D02*
X59690000Y-42545000D01*
X65818750Y-45975000D02*
X62388750Y-42545000D01*
%TO.N,Net-(D15-Pad2)*%
X70643750Y-65025000D02*
X70581250Y-65025000D01*
X67151250Y-61595000D02*
X64452500Y-61595000D01*
X70581250Y-65025000D02*
X67151250Y-61595000D01*
%TO.N,Net-(D16-Pad2)*%
X80168750Y-84075000D02*
X80106250Y-84075000D01*
X76676250Y-80645000D02*
X73977500Y-80645000D01*
X80106250Y-84075000D02*
X76676250Y-80645000D01*
%TO.N,Net-(D17-Pad2)*%
X65881250Y-7875000D02*
X65818750Y-7875000D01*
X62388750Y-4445000D02*
X59690000Y-4445000D01*
X65818750Y-7875000D02*
X62388750Y-4445000D01*
%TO.N,ROW1*%
X65881250Y-11175000D02*
X66737500Y-11175000D01*
X66737500Y-11175000D02*
X69056250Y-13493750D01*
X69056250Y-13493750D02*
X100806250Y-13493750D01*
X103125000Y-11175000D02*
X100806250Y-13493750D01*
X103981250Y-11175000D02*
X103125000Y-11175000D01*
X103981250Y-11175000D02*
X104837500Y-11175000D01*
X104837500Y-11175000D02*
X107156250Y-13493750D01*
X107156250Y-13493750D02*
X138906250Y-13493750D01*
X141225000Y-11175000D02*
X138906250Y-13493750D01*
X142081250Y-11175000D02*
X141225000Y-11175000D01*
X142081250Y-11175000D02*
X142937500Y-11175000D01*
X142937500Y-11175000D02*
X145256250Y-13493750D01*
X145256250Y-13493750D02*
X186531250Y-13493750D01*
X188850000Y-11175000D02*
X186531250Y-13493750D01*
X189706250Y-11175000D02*
X188850000Y-11175000D01*
X189706250Y-11175000D02*
X190562500Y-11175000D01*
X190562500Y-11175000D02*
X192881250Y-13493750D01*
X192881250Y-13493750D02*
X224631250Y-13493750D01*
X226950000Y-11175000D02*
X224631250Y-13493750D01*
X227806250Y-11175000D02*
X226950000Y-11175000D01*
X227806250Y-11175000D02*
X228662500Y-11175000D01*
X228662500Y-11175000D02*
X230981250Y-13493750D01*
X230981250Y-13493750D02*
X262731250Y-13493750D01*
X265906250Y-11175000D02*
X265050000Y-11175000D01*
X265050000Y-11175000D02*
X262731250Y-13493750D01*
X311143750Y-11256250D02*
X311143750Y-15087500D01*
X265906250Y-11175000D02*
X266762500Y-11175000D01*
X266762500Y-11175000D02*
X269081250Y-13493750D01*
X269081250Y-13493750D02*
X296862500Y-13493750D01*
X311143750Y-15087500D02*
X306387500Y-19843750D01*
X306387500Y-19843750D02*
X303212500Y-19843750D01*
X303212500Y-19843750D02*
X296862500Y-13493750D01*
%TO.N,Net-(D18-Pad2)*%
X75406250Y-26925000D02*
X75343750Y-26925000D01*
X71913750Y-23495000D02*
X69215000Y-23495000D01*
X75343750Y-26925000D02*
X71913750Y-23495000D01*
%TO.N,Net-(D19-Pad2)*%
X84931250Y-45975000D02*
X84868750Y-45975000D01*
X81438750Y-42545000D02*
X78740000Y-42545000D01*
X84868750Y-45975000D02*
X81438750Y-42545000D01*
%TO.N,Net-(D20-Pad2)*%
X89693750Y-65025000D02*
X89631250Y-65025000D01*
X86201250Y-61595000D02*
X83502500Y-61595000D01*
X89631250Y-65025000D02*
X86201250Y-61595000D01*
%TO.N,Net-(D21-Pad2)*%
X99218750Y-84075000D02*
X99156250Y-84075000D01*
X95726250Y-80645000D02*
X93027500Y-80645000D01*
X99156250Y-84075000D02*
X95726250Y-80645000D01*
%TO.N,Net-(D22-Pad2)*%
X84931250Y-7875000D02*
X84868750Y-7875000D01*
X81438750Y-4445000D02*
X78740000Y-4445000D01*
X84868750Y-7875000D02*
X81438750Y-4445000D01*
%TO.N,Net-(D23-Pad2)*%
X94456250Y-26925000D02*
X94393750Y-26925000D01*
X90963750Y-23495000D02*
X88265000Y-23495000D01*
X94393750Y-26925000D02*
X90963750Y-23495000D01*
%TO.N,Net-(D24-Pad2)*%
X103981250Y-45975000D02*
X103918750Y-45975000D01*
X100488750Y-42545000D02*
X97790000Y-42545000D01*
X103918750Y-45975000D02*
X100488750Y-42545000D01*
%TO.N,Net-(D25-Pad2)*%
X108743750Y-65025000D02*
X108681250Y-65025000D01*
X105251250Y-61595000D02*
X102552500Y-61595000D01*
X108681250Y-65025000D02*
X105251250Y-61595000D01*
%TO.N,Net-(D26-Pad2)*%
X118268750Y-84075000D02*
X118206250Y-84075000D01*
X114776250Y-80645000D02*
X112077500Y-80645000D01*
X118206250Y-84075000D02*
X114776250Y-80645000D01*
%TO.N,Net-(D27-Pad2)*%
X103981250Y-7875000D02*
X103918750Y-7875000D01*
X100488750Y-4445000D02*
X97790000Y-4445000D01*
X103918750Y-7875000D02*
X100488750Y-4445000D01*
%TO.N,Net-(D28-Pad2)*%
X113506250Y-26925000D02*
X113443750Y-26925000D01*
X110013750Y-23495000D02*
X107315000Y-23495000D01*
X113443750Y-26925000D02*
X110013750Y-23495000D01*
%TO.N,Net-(D29-Pad2)*%
X123031250Y-45975000D02*
X122968750Y-45975000D01*
X119538750Y-42545000D02*
X116840000Y-42545000D01*
X122968750Y-45975000D02*
X119538750Y-42545000D01*
%TO.N,Net-(D30-Pad2)*%
X127793750Y-65025000D02*
X127731250Y-65025000D01*
X124301250Y-61595000D02*
X121602500Y-61595000D01*
X127731250Y-65025000D02*
X124301250Y-61595000D01*
%TO.N,Net-(D31-Pad2)*%
X137318750Y-84075000D02*
X137256250Y-84075000D01*
X133826250Y-80645000D02*
X131127500Y-80645000D01*
X137256250Y-84075000D02*
X133826250Y-80645000D01*
%TO.N,Net-(D32-Pad2)*%
X147637500Y-103125000D02*
X147575000Y-103125000D01*
X144145000Y-99695000D02*
X140652500Y-99695000D01*
X147575000Y-103125000D02*
X144145000Y-99695000D01*
%TO.N,Net-(D33-Pad2)*%
X123031250Y-7875000D02*
X122968750Y-7875000D01*
X119538750Y-4445000D02*
X116840000Y-4445000D01*
X122968750Y-7875000D02*
X119538750Y-4445000D01*
%TO.N,Net-(D34-Pad2)*%
X132556250Y-26925000D02*
X132493750Y-26925000D01*
X129063750Y-23495000D02*
X126365000Y-23495000D01*
X132493750Y-26925000D02*
X129063750Y-23495000D01*
%TO.N,Net-(D35-Pad2)*%
X142081250Y-45975000D02*
X142018750Y-45975000D01*
X138588750Y-42545000D02*
X135890000Y-42545000D01*
X142018750Y-45975000D02*
X138588750Y-42545000D01*
%TO.N,Net-(D36-Pad2)*%
X146843750Y-65025000D02*
X146781250Y-65025000D01*
X143351250Y-61595000D02*
X140652500Y-61595000D01*
X146781250Y-65025000D02*
X143351250Y-61595000D01*
%TO.N,Net-(D37-Pad2)*%
X156368750Y-84075000D02*
X156306250Y-84075000D01*
X152876250Y-80645000D02*
X150177500Y-80645000D01*
X156306250Y-84075000D02*
X152876250Y-80645000D01*
%TO.N,Net-(D38-Pad2)*%
X142081250Y-7875000D02*
X142018750Y-7875000D01*
X138588750Y-4445000D02*
X135890000Y-4445000D01*
X142018750Y-7875000D02*
X138588750Y-4445000D01*
%TO.N,Net-(D39-Pad2)*%
X151606250Y-26925000D02*
X151543750Y-26925000D01*
X148113750Y-23495000D02*
X145415000Y-23495000D01*
X151543750Y-26925000D02*
X148113750Y-23495000D01*
%TO.N,Net-(D40-Pad2)*%
X161131250Y-45975000D02*
X161068750Y-45975000D01*
X157638750Y-42545000D02*
X154940000Y-42545000D01*
X161068750Y-45975000D02*
X157638750Y-42545000D01*
%TO.N,Net-(D41-Pad2)*%
X162401250Y-61595000D02*
X159702500Y-61595000D01*
X165893750Y-65087500D02*
X162401250Y-61595000D01*
%TO.N,Net-(D42-Pad2)*%
X175418750Y-84075000D02*
X175356250Y-84075000D01*
X171926250Y-80645000D02*
X169227500Y-80645000D01*
X175356250Y-84075000D02*
X171926250Y-80645000D01*
%TO.N,Net-(D43-Pad2)*%
X170656250Y-7875000D02*
X170593750Y-7875000D01*
X167163750Y-4445000D02*
X164465000Y-4445000D01*
X170593750Y-7875000D02*
X167163750Y-4445000D01*
%TO.N,Net-(D44-Pad2)*%
X170656250Y-26925000D02*
X170593750Y-26925000D01*
X167163750Y-23495000D02*
X164465000Y-23495000D01*
X170593750Y-26925000D02*
X167163750Y-23495000D01*
%TO.N,Net-(D45-Pad2)*%
X180181250Y-45975000D02*
X180118750Y-45975000D01*
X176688750Y-42545000D02*
X173990000Y-42545000D01*
X180118750Y-45975000D02*
X176688750Y-42545000D01*
%TO.N,Net-(D46-Pad2)*%
X184943750Y-65025000D02*
X184881250Y-65025000D01*
X181451250Y-61595000D02*
X178752500Y-61595000D01*
X184881250Y-65025000D02*
X181451250Y-61595000D01*
%TO.N,Net-(D47-Pad2)*%
X194468750Y-84075000D02*
X194406250Y-84075000D01*
X190976250Y-80645000D02*
X188277500Y-80645000D01*
X194406250Y-84075000D02*
X190976250Y-80645000D01*
%TO.N,Net-(D48-Pad2)*%
X189706250Y-7875000D02*
X189643750Y-7875000D01*
X186213750Y-4445000D02*
X183515000Y-4445000D01*
X189643750Y-7875000D02*
X186213750Y-4445000D01*
%TO.N,Net-(D49-Pad2)*%
X189706250Y-26925000D02*
X189643750Y-26925000D01*
X186213750Y-23495000D02*
X183515000Y-23495000D01*
X189643750Y-26925000D02*
X186213750Y-23495000D01*
%TO.N,Net-(D50-Pad2)*%
X199231250Y-45975000D02*
X199168750Y-45975000D01*
X195738750Y-42545000D02*
X193040000Y-42545000D01*
X199168750Y-45975000D02*
X195738750Y-42545000D01*
%TO.N,Net-(D51-Pad2)*%
X203993750Y-65025000D02*
X203931250Y-65025000D01*
X200501250Y-61595000D02*
X197802500Y-61595000D01*
X203931250Y-65025000D02*
X200501250Y-61595000D01*
%TO.N,Net-(D52-Pad2)*%
X213518750Y-84075000D02*
X213456250Y-84075000D01*
X210026250Y-80645000D02*
X207327500Y-80645000D01*
X213456250Y-84075000D02*
X210026250Y-80645000D01*
%TO.N,Net-(D53-Pad2)*%
X225425000Y-103125000D02*
X225362500Y-103125000D01*
X221932500Y-99695000D02*
X219233750Y-99695000D01*
X225362500Y-103125000D02*
X221932500Y-99695000D01*
%TO.N,Net-(D54-Pad2)*%
X208756250Y-7875000D02*
X208693750Y-7875000D01*
X205263750Y-4445000D02*
X202565000Y-4445000D01*
X208693750Y-7875000D02*
X205263750Y-4445000D01*
%TO.N,Net-(D55-Pad2)*%
X208756250Y-26925000D02*
X208693750Y-26925000D01*
X205263750Y-23495000D02*
X202565000Y-23495000D01*
X208693750Y-26925000D02*
X205263750Y-23495000D01*
%TO.N,Net-(D56-Pad2)*%
X218281250Y-45975000D02*
X218218750Y-45975000D01*
X214788750Y-42545000D02*
X212090000Y-42545000D01*
X218218750Y-45975000D02*
X214788750Y-42545000D01*
%TO.N,Net-(D57-Pad2)*%
X223043750Y-65025000D02*
X222981250Y-65025000D01*
X219551250Y-61595000D02*
X216852500Y-61595000D01*
X222981250Y-65025000D02*
X219551250Y-61595000D01*
%TO.N,Net-(D58-Pad2)*%
X232568750Y-84075000D02*
X232506250Y-84075000D01*
X229076250Y-80645000D02*
X226377500Y-80645000D01*
X232506250Y-84075000D02*
X229076250Y-80645000D01*
%TO.N,Net-(D59-Pad2)*%
X249237500Y-103125000D02*
X249175000Y-103125000D01*
X245745000Y-99695000D02*
X243046250Y-99695000D01*
X249175000Y-103125000D02*
X245745000Y-99695000D01*
%TO.N,Net-(D60-Pad2)*%
X227806250Y-7875000D02*
X227743750Y-7875000D01*
X224313750Y-4445000D02*
X221615000Y-4445000D01*
X227743750Y-7875000D02*
X224313750Y-4445000D01*
%TO.N,Net-(D61-Pad2)*%
X227806250Y-26925000D02*
X227743750Y-26925000D01*
X224313750Y-23495000D02*
X221615000Y-23495000D01*
X227743750Y-26925000D02*
X224313750Y-23495000D01*
%TO.N,Net-(D62-Pad2)*%
X237331250Y-45975000D02*
X237268750Y-45975000D01*
X233838750Y-42545000D02*
X231140000Y-42545000D01*
X237268750Y-45975000D02*
X233838750Y-42545000D01*
%TO.N,Net-(D63-Pad2)*%
X242093750Y-65025000D02*
X242031250Y-65025000D01*
X238601250Y-61595000D02*
X235902500Y-61595000D01*
X242031250Y-65025000D02*
X238601250Y-61595000D01*
%TO.N,Net-(D64-Pad2)*%
X258762500Y-84075000D02*
X258700000Y-84075000D01*
X255270000Y-80645000D02*
X252571250Y-80645000D01*
X258700000Y-84075000D02*
X255270000Y-80645000D01*
%TO.N,Net-(D65-Pad2)*%
X246856250Y-7875000D02*
X246793750Y-7875000D01*
X243363750Y-4445000D02*
X240665000Y-4445000D01*
X246793750Y-7875000D02*
X243363750Y-4445000D01*
%TO.N,Net-(D66-Pad2)*%
X246856250Y-26925000D02*
X246793750Y-26925000D01*
X243363750Y-23495000D02*
X240665000Y-23495000D01*
X246793750Y-26925000D02*
X243363750Y-23495000D01*
%TO.N,Net-(D67-Pad2)*%
X256381250Y-55500000D02*
X256318750Y-55500000D01*
X256318750Y-55500000D02*
X250825000Y-50006250D01*
X250825000Y-43180000D02*
X250190000Y-42545000D01*
X250825000Y-50006250D02*
X250825000Y-43180000D01*
%TO.N,Net-(D68-Pad2)*%
X265906250Y-7875000D02*
X265843750Y-7875000D01*
X262413750Y-4445000D02*
X259715000Y-4445000D01*
X265843750Y-7875000D02*
X262413750Y-4445000D01*
%TO.N,Net-(D69-Pad2)*%
X265906250Y-26925000D02*
X265843750Y-26925000D01*
X262413750Y-23495000D02*
X259715000Y-23495000D01*
X265843750Y-26925000D02*
X262413750Y-23495000D01*
%TO.N,Net-(D70-Pad2)*%
X275431250Y-55500000D02*
X275368750Y-55500000D01*
X271938750Y-52070000D02*
X269240000Y-52070000D01*
X275368750Y-55500000D02*
X271938750Y-52070000D01*
%TO.N,Net-(D71-Pad2)*%
X294481250Y-7875000D02*
X294418750Y-7875000D01*
X290988750Y-4445000D02*
X288290000Y-4445000D01*
X294418750Y-7875000D02*
X290988750Y-4445000D01*
%TO.N,Net-(D72-Pad2)*%
X289718750Y-26925000D02*
X289656250Y-26925000D01*
X286226250Y-23495000D02*
X283527500Y-23495000D01*
X289656250Y-26925000D02*
X286226250Y-23495000D01*
%TO.N,Net-(D73-Pad2)*%
X294481250Y-45975000D02*
X294418750Y-45975000D01*
X290988750Y-42545000D02*
X288290000Y-42545000D01*
X294418750Y-45975000D02*
X290988750Y-42545000D01*
%TO.N,Net-(D74-Pad2)*%
X294481250Y-65025000D02*
X294418750Y-65025000D01*
X290988750Y-61595000D02*
X288290000Y-61595000D01*
X294418750Y-65025000D02*
X290988750Y-61595000D01*
%TO.N,Net-(D75-Pad2)*%
X284956250Y-84075000D02*
X284893750Y-84075000D01*
X281463750Y-80645000D02*
X278765000Y-80645000D01*
X284893750Y-84075000D02*
X281463750Y-80645000D01*
%TO.N,Net-(D76-Pad2)*%
X304006250Y-84075000D02*
X303943750Y-84075000D01*
X300513750Y-80645000D02*
X297815000Y-80645000D01*
X303943750Y-84075000D02*
X300513750Y-80645000D01*
%TO.N,Net-(D77-Pad2)*%
X294481250Y-103125000D02*
X294418750Y-103125000D01*
X290988750Y-99695000D02*
X288290000Y-99695000D01*
X294418750Y-103125000D02*
X290988750Y-99695000D01*
%TO.N,Net-(D78-Pad2)*%
X332581250Y-26925000D02*
X332518750Y-26925000D01*
X329088750Y-23495000D02*
X326390000Y-23495000D01*
X332518750Y-26925000D02*
X329088750Y-23495000D01*
%TO.N,Net-(D79-Pad2)*%
X332581250Y-45975000D02*
X332518750Y-45975000D01*
X329088750Y-42545000D02*
X326390000Y-42545000D01*
X332518750Y-45975000D02*
X329088750Y-42545000D01*
%TO.N,Net-(D80-Pad2)*%
X332581250Y-65025000D02*
X332518750Y-65025000D01*
X329088750Y-61595000D02*
X326390000Y-61595000D01*
X332518750Y-65025000D02*
X329088750Y-61595000D01*
%TO.N,Net-(D81-Pad2)*%
X342900000Y-84075000D02*
X342837500Y-84075000D01*
X339407500Y-80645000D02*
X335915000Y-80645000D01*
X342837500Y-84075000D02*
X339407500Y-80645000D01*
%TO.N,Net-(D82-Pad2)*%
X332581250Y-103125000D02*
X332518750Y-103125000D01*
X329088750Y-99695000D02*
X326390000Y-99695000D01*
X332518750Y-103125000D02*
X329088750Y-99695000D01*
%TO.N,Net-(D83-Pad2)*%
X351631250Y-26925000D02*
X351568750Y-26925000D01*
X348138750Y-23495000D02*
X345440000Y-23495000D01*
X351568750Y-26925000D02*
X348138750Y-23495000D01*
%TO.N,Net-(D84-Pad2)*%
X351631250Y-45975000D02*
X351568750Y-45975000D01*
X348138750Y-42545000D02*
X345440000Y-42545000D01*
X351568750Y-45975000D02*
X348138750Y-42545000D01*
%TO.N,Net-(D85-Pad2)*%
X351631250Y-65025000D02*
X351568750Y-65025000D01*
X348138750Y-61595000D02*
X345440000Y-61595000D01*
X351568750Y-65025000D02*
X348138750Y-61595000D01*
%TO.N,Net-(D86-Pad2)*%
X370681250Y-26925000D02*
X370618750Y-26925000D01*
X367188750Y-23495000D02*
X364490000Y-23495000D01*
X370618750Y-26925000D02*
X367188750Y-23495000D01*
%TO.N,Net-(D87-Pad2)*%
X370681250Y-45975000D02*
X370618750Y-45975000D01*
X367188750Y-42545000D02*
X364490000Y-42545000D01*
X370618750Y-45975000D02*
X367188750Y-42545000D01*
%TO.N,Net-(D88-Pad2)*%
X370681250Y-65025000D02*
X370618750Y-65025000D01*
X367188750Y-61595000D02*
X364490000Y-61595000D01*
X370618750Y-65025000D02*
X367188750Y-61595000D01*
%TO.N,Net-(D89-Pad2)*%
X370681250Y-84075000D02*
X370618750Y-84075000D01*
X367188750Y-80645000D02*
X364490000Y-80645000D01*
X370618750Y-84075000D02*
X367188750Y-80645000D01*
%TO.N,Net-(D90-Pad2)*%
X361156250Y-103125000D02*
X361093750Y-103125000D01*
X357663750Y-99695000D02*
X354965000Y-99695000D01*
X361093750Y-103125000D02*
X357663750Y-99695000D01*
D26*
%TO.N,VCC*%
X307490198Y13866802D02*
X308945250Y12411750D01*
X307490198Y15322500D02*
X307490198Y13866802D01*
X308945250Y12411750D02*
X308945250Y12082750D01*
X306200000Y9337500D02*
X305593750Y9337500D01*
X308945250Y12082750D02*
X306200000Y9337500D01*
X307490198Y16161498D02*
X307490198Y15322500D01*
X308419500Y17090800D02*
X307490198Y16161498D01*
X308419500Y17780000D02*
X308419500Y17090800D01*
D27*
X312390198Y15322500D02*
X312390198Y16224608D01*
X311594500Y17020306D02*
X311594500Y17780000D01*
X312390198Y16224608D02*
X311594500Y17020306D01*
%TO.N,Net-(J1-PadA5)*%
X308690198Y16463198D02*
X308690198Y15322500D01*
X309213250Y16986250D02*
X308690198Y16463198D01*
X309213250Y20161250D02*
X309213250Y16986250D01*
X307625750Y21748750D02*
X309213250Y20161250D01*
X304450750Y21748750D02*
X307625750Y21748750D01*
X302704500Y20002500D02*
X304450750Y21748750D01*
X302704500Y15644500D02*
X302704500Y20002500D01*
%TO.N,Net-(J1-PadB5)*%
X311690198Y16288198D02*
X311690198Y15322500D01*
X310800750Y17177646D02*
X311690198Y16288198D01*
X312388250Y21748750D02*
X310800750Y20161250D01*
X315563250Y21748750D02*
X312388250Y21748750D01*
X310800750Y20161250D02*
X310800750Y17177646D01*
X317150750Y20161250D02*
X315563250Y21748750D01*
X317150750Y15644500D02*
X317150750Y20161250D01*
%TO.N,COL0*%
X305606250Y-3956250D02*
X305593750Y-3968750D01*
X306243750Y-3956250D02*
X305606250Y-3956250D01*
X15875000Y3175000D02*
X292893750Y3175000D01*
X5715000Y-6985000D02*
X15875000Y3175000D01*
X292893750Y3175000D02*
X300037500Y-3968750D01*
X300037500Y-3968750D02*
X306387500Y-3968750D01*
%TO.N,CAPSLED*%
X244475000Y-71437500D02*
X25241250Y-71437500D01*
X246856250Y-73818750D02*
X244475000Y-71437500D01*
X291306250Y-73818750D02*
X246856250Y-73818750D01*
X293687500Y-71437500D02*
X291306250Y-73818750D01*
X21748750Y-67945000D02*
X25241250Y-71437500D01*
X311150000Y-71437500D02*
X311943750Y-70643750D01*
X293687500Y-71437500D02*
X311150000Y-71437500D01*
X318643750Y-7956250D02*
X317643750Y-7956250D01*
X321468750Y-10781250D02*
X318643750Y-7956250D01*
X321468750Y-15081250D02*
X321468750Y-10781250D01*
X311943750Y-24606250D02*
X321468750Y-15081250D01*
X311943750Y-27781250D02*
X311943750Y-24606250D01*
%TO.N,COL1*%
X53340000Y-6985000D02*
X62706250Y2381250D01*
X34290000Y-6985000D02*
X43656250Y2381250D01*
X43656250Y2381250D02*
X62706250Y2381250D01*
X306243750Y-4756250D02*
X305600000Y-4756250D01*
X305600000Y-4756250D02*
X305593750Y-4762500D01*
X62706250Y2381250D02*
X292893750Y2381250D01*
X300031250Y-4756250D02*
X306243750Y-4756250D01*
X292893750Y2381250D02*
X300031250Y-4756250D01*
%TO.N,COL2*%
X91440000Y-6985000D02*
X100012500Y1587500D01*
X72390000Y-6985000D02*
X80962500Y1587500D01*
X80962500Y1587500D02*
X100012500Y1587500D01*
X306243750Y-5556250D02*
X305593750Y-5556250D01*
X100012500Y1587500D02*
X292893750Y1587500D01*
X292893750Y1587500D02*
X300037500Y-5556250D01*
X300037500Y-5556250D02*
X306387500Y-5556250D01*
%TO.N,COL3*%
X129540000Y-6985000D02*
X137318750Y793750D01*
X110490000Y-6985000D02*
X118268750Y793750D01*
X118268750Y793750D02*
X137318750Y793750D01*
X305600000Y-6356250D02*
X305593750Y-6350000D01*
X306243750Y-6356250D02*
X305600000Y-6356250D01*
X300043750Y-6356250D02*
X306243750Y-6356250D01*
X292893750Y793750D02*
X300043750Y-6356250D01*
X137318750Y793750D02*
X292893750Y793750D01*
%TO.N,COL4*%
X177165000Y-6985000D02*
X184150000Y0D01*
X158115000Y-6985000D02*
X165100000Y0D01*
X165100000Y0D02*
X184150000Y0D01*
X305606250Y-7156250D02*
X305593750Y-7143750D01*
X306243750Y-7156250D02*
X305606250Y-7156250D01*
X300050000Y-7156250D02*
X306243750Y-7156250D01*
X292893750Y0D02*
X300050000Y-7156250D01*
X184150000Y0D02*
X292893750Y0D01*
%TO.N,COL5*%
X215265000Y-6985000D02*
X221456250Y-793750D01*
X196215000Y-6985000D02*
X202406250Y-793750D01*
X202406250Y-793750D02*
X221456250Y-793750D01*
X305612500Y-7956250D02*
X306243750Y-7956250D01*
X305593750Y-7937500D02*
X305612500Y-7956250D01*
X300056250Y-7956250D02*
X306243750Y-7956250D01*
X292893750Y-793750D02*
X300056250Y-7956250D01*
X221456250Y-793750D02*
X292893750Y-793750D01*
%TO.N,COL6*%
X253365000Y-6985000D02*
X258762500Y-1587500D01*
X234315000Y-6985000D02*
X239712500Y-1587500D01*
X239712500Y-1587500D02*
X258762500Y-1587500D01*
X308743750Y-15106250D02*
X308743750Y-11256250D01*
X306387500Y-17462500D02*
X308743750Y-15106250D01*
X303212500Y-17462500D02*
X306387500Y-17462500D01*
X296862500Y-11112500D02*
X303212500Y-17462500D01*
X296862500Y-5556250D02*
X296862500Y-11112500D01*
X292893750Y-1587500D02*
X296862500Y-5556250D01*
X258762500Y-1587500D02*
X292893750Y-1587500D01*
%TO.N,COL7*%
X286543750Y-2381250D02*
X281940000Y-6985000D01*
X292893750Y-2381250D02*
X286543750Y-2381250D01*
X309543750Y-11256250D02*
X309543750Y-15100000D01*
X292893750Y-2381250D02*
X296068750Y-5556250D01*
X296068750Y-5556250D02*
X296068750Y-11112500D01*
X296068750Y-11112500D02*
X303212500Y-18256250D01*
X303212500Y-18256250D02*
X306387500Y-18256250D01*
X306387500Y-18256250D02*
X309543750Y-15100000D01*
%TO.N,COL8*%
X320040000Y-26035000D02*
X320675000Y-25400000D01*
X320040000Y-19685000D02*
X320040000Y-26035000D01*
X332581250Y-7143750D02*
X320040000Y-19685000D01*
X332581250Y0D02*
X332581250Y-7143750D01*
X329406250Y3175000D02*
X332581250Y0D01*
X317175000Y3175000D02*
X329406250Y3175000D01*
X315143750Y1143750D02*
X317175000Y3175000D01*
X315143750Y143750D02*
X315143750Y1143750D01*
X339090000Y-13652500D02*
X339090000Y-26035000D01*
X332581250Y-7143750D02*
X339090000Y-13652500D01*
%TO.N,Net-(R1-Pad2)*%
X322508250Y245750D02*
X323850000Y1587500D01*
X322262500Y245750D02*
X322508250Y245750D01*
X327076750Y1587500D02*
X328589250Y75000D01*
X323850000Y1587500D02*
X327076750Y1587500D01*
X322262500Y245750D02*
X321714500Y245750D01*
X319112500Y-2356250D02*
X317643750Y-2356250D01*
X321714500Y245750D02*
X319112500Y-2356250D01*
%TO.N,Net-(R4-Pad2)*%
X307943750Y-11256250D02*
X307943750Y-15112500D01*
X303857735Y-15916985D02*
X304609500Y-16668750D01*
X304609500Y-16668750D02*
X306387500Y-16668750D01*
X307943750Y-15112500D02*
X306387500Y-16668750D01*
%TO.N,COL9*%
X357822500Y-26035000D02*
X358140000Y-26035000D01*
X329406250Y3968750D02*
X358140000Y-24765000D01*
X358140000Y-24765000D02*
X358140000Y-26035000D01*
X317168750Y3968750D02*
X329406250Y3968750D01*
X314343750Y1143750D02*
X317168750Y3968750D01*
X314343750Y143750D02*
X314343750Y1143750D01*
%TO.N,ROW8*%
X30162500Y-87375000D02*
X31018750Y-87375000D01*
X31018750Y-87375000D02*
X32543750Y-88900000D01*
X32543750Y-88900000D02*
X57150000Y-88900000D01*
X57150000Y-88900000D02*
X60325000Y-85725000D01*
X60325000Y-85725000D02*
X61912500Y-85725000D01*
X61912500Y-85725000D02*
X65087500Y-88900000D01*
X65087500Y-88900000D02*
X77787500Y-88900000D01*
X79312500Y-87375000D02*
X77787500Y-88900000D01*
X80168750Y-87375000D02*
X79312500Y-87375000D01*
X80168750Y-87375000D02*
X81025000Y-87375000D01*
X81025000Y-87375000D02*
X82550000Y-88900000D01*
X82550000Y-88900000D02*
X95250000Y-88900000D01*
X95250000Y-88900000D02*
X98425000Y-85725000D01*
X98425000Y-85725000D02*
X100012500Y-85725000D01*
X100012500Y-85725000D02*
X103187500Y-88900000D01*
X103187500Y-88900000D02*
X115887500Y-88900000D01*
X117412500Y-87375000D02*
X115887500Y-88900000D01*
X118268750Y-87375000D02*
X117412500Y-87375000D01*
X118268750Y-87375000D02*
X119125000Y-87375000D01*
X119125000Y-87375000D02*
X120650000Y-88900000D01*
X120650000Y-88900000D02*
X133350000Y-88900000D01*
X133350000Y-88900000D02*
X136525000Y-85725000D01*
X136525000Y-85725000D02*
X138112500Y-85725000D01*
X138112500Y-85725000D02*
X141287500Y-88900000D01*
X141287500Y-88900000D02*
X153987500Y-88900000D01*
X156368750Y-87375000D02*
X155512500Y-87375000D01*
X155512500Y-87375000D02*
X153987500Y-88900000D01*
X156368750Y-87375000D02*
X157225000Y-87375000D01*
X157225000Y-87375000D02*
X158750000Y-88900000D01*
X158750000Y-88900000D02*
X171450000Y-88900000D01*
X171450000Y-88900000D02*
X174625000Y-85725000D01*
X174625000Y-85725000D02*
X176212500Y-85725000D01*
X176212500Y-85725000D02*
X179387500Y-88900000D01*
X179387500Y-88900000D02*
X192087500Y-88900000D01*
X193612500Y-87375000D02*
X192087500Y-88900000D01*
X194468750Y-87375000D02*
X193612500Y-87375000D01*
X194468750Y-87375000D02*
X195325000Y-87375000D01*
X195325000Y-87375000D02*
X196850000Y-88900000D01*
X196850000Y-88900000D02*
X209550000Y-88900000D01*
X209550000Y-88900000D02*
X212725000Y-85725000D01*
X212725000Y-85725000D02*
X214312500Y-85725000D01*
X214312500Y-85725000D02*
X217487500Y-88900000D01*
X217487500Y-88900000D02*
X230187500Y-88900000D01*
X232568750Y-87375000D02*
X231712500Y-87375000D01*
X231712500Y-87375000D02*
X230187500Y-88900000D01*
X232568750Y-87375000D02*
X233425000Y-87375000D01*
X233425000Y-87375000D02*
X234950000Y-88900000D01*
X234950000Y-88900000D02*
X254793750Y-88900000D01*
X254793750Y-88900000D02*
X257968750Y-85725000D01*
X257968750Y-85725000D02*
X259556250Y-85725000D01*
X259556250Y-85725000D02*
X262731250Y-88900000D01*
X262731250Y-88900000D02*
X280987500Y-88900000D01*
X280987500Y-88900000D02*
X284162500Y-85725000D01*
X284162500Y-85725000D02*
X285750000Y-85725000D01*
X285750000Y-85725000D02*
X288925000Y-88900000D01*
X288925000Y-88900000D02*
X301625000Y-88900000D01*
X303150000Y-87375000D02*
X301625000Y-88900000D01*
X304006250Y-87375000D02*
X303150000Y-87375000D01*
X304068750Y-87312500D02*
X304006250Y-87375000D01*
X312737500Y-84931250D02*
X310356250Y-87312500D01*
X310356250Y-87312500D02*
X304068750Y-87312500D01*
X318643750Y-7156250D02*
X317643750Y-7156250D01*
X322262500Y-10775000D02*
X318643750Y-7156250D01*
X322262500Y-15081250D02*
X322262500Y-10775000D01*
X312737500Y-24606250D02*
X322262500Y-15081250D01*
X312737500Y-28575000D02*
X312737500Y-24606250D01*
%TO.N,ROW10*%
X44450000Y-106425000D02*
X45306250Y-106425000D01*
X45306250Y-106425000D02*
X46831250Y-107950000D01*
X46831250Y-107950000D02*
X65881250Y-107950000D01*
X67406250Y-106425000D02*
X65881250Y-107950000D01*
X68262500Y-106425000D02*
X67406250Y-106425000D01*
X68262500Y-106425000D02*
X69118750Y-106425000D01*
X69118750Y-106425000D02*
X70643750Y-107950000D01*
X70643750Y-107950000D02*
X145256250Y-107950000D01*
X146781250Y-106425000D02*
X145256250Y-107950000D01*
X147637500Y-106425000D02*
X146781250Y-106425000D01*
X147637500Y-106425000D02*
X148493750Y-106425000D01*
X148493750Y-106425000D02*
X150018750Y-107950000D01*
X150018750Y-107950000D02*
X223043750Y-107950000D01*
X225425000Y-106425000D02*
X224568750Y-106425000D01*
X224568750Y-106425000D02*
X223043750Y-107950000D01*
X225425000Y-106425000D02*
X226281250Y-106425000D01*
X226281250Y-106425000D02*
X227806250Y-107950000D01*
X227806250Y-107950000D02*
X246856250Y-107950000D01*
X248381250Y-106425000D02*
X246856250Y-107950000D01*
X249237500Y-106425000D02*
X248381250Y-106425000D01*
X249237500Y-106425000D02*
X250093750Y-106425000D01*
X250093750Y-106425000D02*
X251618750Y-107950000D01*
X251618750Y-107950000D02*
X292100000Y-107950000D01*
X293625000Y-106425000D02*
X292100000Y-107950000D01*
X294481250Y-106425000D02*
X293625000Y-106425000D01*
X294481250Y-106425000D02*
X295337500Y-106425000D01*
X295337500Y-106425000D02*
X296862500Y-107950000D01*
X332581250Y-106425000D02*
X331725000Y-106425000D01*
X331725000Y-106425000D02*
X330200000Y-107950000D01*
X361156250Y-106425000D02*
X361156250Y-107156250D01*
X361156250Y-107156250D02*
X360362500Y-107950000D01*
X360362500Y-107950000D02*
X334962500Y-107950000D01*
X333437500Y-106425000D02*
X334962500Y-107950000D01*
X332581250Y-106425000D02*
X333437500Y-106425000D01*
X316706250Y-107950000D02*
X314325000Y-105568750D01*
X316706250Y-107950000D02*
X330200000Y-107950000D01*
X314325000Y-105568750D02*
X311943750Y-107950000D01*
X296862500Y-107950000D02*
X311943750Y-107950000D01*
X314325000Y-105568750D02*
X314325000Y-105568750D01*
X314325000Y-24606250D02*
X314325000Y-28575000D01*
X331787500Y-7143750D02*
X314325000Y-24606250D01*
X331787500Y0D02*
X331787500Y-7143750D01*
X329406250Y2381250D02*
X331787500Y0D01*
X317500000Y2381250D02*
X329406250Y2381250D01*
X315943750Y825000D02*
X317500000Y2381250D01*
X315943750Y143750D02*
X315943750Y825000D01*
%TO.N,ROW7*%
X51593750Y-68325000D02*
X52450000Y-68325000D01*
X52450000Y-68325000D02*
X54768750Y-70643750D01*
X54768750Y-70643750D02*
X86518750Y-70643750D01*
X88837500Y-68325000D02*
X86518750Y-70643750D01*
X89693750Y-68325000D02*
X88837500Y-68325000D01*
X89693750Y-68325000D02*
X90550000Y-68325000D01*
X90550000Y-68325000D02*
X92868750Y-70643750D01*
X92868750Y-70643750D02*
X124618750Y-70643750D01*
X127793750Y-68325000D02*
X126937500Y-68325000D01*
X126937500Y-68325000D02*
X124618750Y-70643750D01*
X127793750Y-68325000D02*
X128650000Y-68325000D01*
X128650000Y-68325000D02*
X130968750Y-70643750D01*
X130968750Y-70643750D02*
X162718750Y-70643750D01*
X164975000Y-68387500D02*
X162718750Y-70643750D01*
X165893750Y-68387500D02*
X164975000Y-68387500D01*
X165893750Y-68387500D02*
X166812500Y-68387500D01*
X166812500Y-68387500D02*
X169068750Y-70643750D01*
X169068750Y-70643750D02*
X200818750Y-70643750D01*
X203993750Y-68325000D02*
X203137500Y-68325000D01*
X203137500Y-68325000D02*
X200818750Y-70643750D01*
X203993750Y-68325000D02*
X204850000Y-68325000D01*
X204850000Y-68325000D02*
X207168750Y-70643750D01*
X207168750Y-70643750D02*
X238918750Y-70643750D01*
X241237500Y-68325000D02*
X238918750Y-70643750D01*
X242093750Y-68325000D02*
X241237500Y-68325000D01*
X242093750Y-68325000D02*
X242950000Y-68325000D01*
X242950000Y-68325000D02*
X247650000Y-73025000D01*
X247650000Y-73025000D02*
X290512500Y-73025000D01*
X370681250Y-68325000D02*
X370681250Y-69056250D01*
X370681250Y-69056250D02*
X369093750Y-70643750D01*
X369093750Y-70643750D02*
X335756250Y-70643750D01*
X333437500Y-68325000D02*
X335756250Y-70643750D01*
X332581250Y-68325000D02*
X333437500Y-68325000D01*
X332581250Y-68325000D02*
X331725000Y-68325000D01*
X331725000Y-68325000D02*
X329406250Y-70643750D01*
X290512500Y-73025000D02*
X292893750Y-70643750D01*
X313531250Y-70643750D02*
X311150000Y-68262500D01*
X313531250Y-70643750D02*
X329406250Y-70643750D01*
X311150000Y-68262500D02*
X308768750Y-70643750D01*
X292893750Y-70643750D02*
X308768750Y-70643750D01*
X311150000Y-68262500D02*
X311150000Y-68262500D01*
X318643750Y-8756250D02*
X317643750Y-8756250D01*
X320675000Y-10787500D02*
X318643750Y-8756250D01*
X320675000Y-15081250D02*
X320675000Y-10787500D01*
X311150000Y-24606250D02*
X320675000Y-15081250D01*
X311150000Y-28575000D02*
X311150000Y-24606250D01*
%TO.N,ROW9*%
X61118750Y-87375000D02*
X61975000Y-87375000D01*
X61975000Y-87375000D02*
X64293750Y-89693750D01*
X64293750Y-89693750D02*
X96043750Y-89693750D01*
X98362500Y-87375000D02*
X96043750Y-89693750D01*
X99218750Y-87375000D02*
X98362500Y-87375000D01*
X99218750Y-87375000D02*
X100075000Y-87375000D01*
X100075000Y-87375000D02*
X102393750Y-89693750D01*
X102393750Y-89693750D02*
X134143750Y-89693750D01*
X137318750Y-87375000D02*
X136462500Y-87375000D01*
X136462500Y-87375000D02*
X134143750Y-89693750D01*
X137318750Y-87375000D02*
X138175000Y-87375000D01*
X138175000Y-87375000D02*
X140493750Y-89693750D01*
X140493750Y-89693750D02*
X172243750Y-89693750D01*
X174562500Y-87375000D02*
X172243750Y-89693750D01*
X175418750Y-87375000D02*
X174562500Y-87375000D01*
X175418750Y-87375000D02*
X176275000Y-87375000D01*
X176275000Y-87375000D02*
X178593750Y-89693750D01*
X178593750Y-89693750D02*
X210343750Y-89693750D01*
X213518750Y-87375000D02*
X212662500Y-87375000D01*
X212662500Y-87375000D02*
X210343750Y-89693750D01*
X213518750Y-87375000D02*
X214375000Y-87375000D01*
X214375000Y-87375000D02*
X216693750Y-89693750D01*
X216693750Y-89693750D02*
X255587500Y-89693750D01*
X257906250Y-87375000D02*
X255587500Y-89693750D01*
X258762500Y-87375000D02*
X257906250Y-87375000D01*
X258762500Y-87375000D02*
X259618750Y-87375000D01*
X259618750Y-87375000D02*
X261937500Y-89693750D01*
X261937500Y-89693750D02*
X281781250Y-89693750D01*
X284100000Y-87375000D02*
X281781250Y-89693750D01*
X284956250Y-87375000D02*
X284100000Y-87375000D01*
X284956250Y-87375000D02*
X285812500Y-87375000D01*
X285812500Y-87375000D02*
X288131250Y-89693750D01*
X342900000Y-87375000D02*
X342043750Y-87375000D01*
X342043750Y-87375000D02*
X339725000Y-89693750D01*
X370681250Y-87375000D02*
X370681250Y-88106250D01*
X370681250Y-88106250D02*
X369093750Y-89693750D01*
X369093750Y-89693750D02*
X346075000Y-89693750D01*
X343756250Y-87375000D02*
X346075000Y-89693750D01*
X342900000Y-87375000D02*
X343756250Y-87375000D01*
X313531250Y-87312500D02*
X313531250Y-87312500D01*
X313531250Y-87312500D02*
X311150000Y-89693750D01*
X288131250Y-89693750D02*
X311150000Y-89693750D01*
X313531250Y-87312500D02*
X315912500Y-89693750D01*
X315912500Y-89693750D02*
X339725000Y-89693750D01*
X318643750Y-6356250D02*
X317643750Y-6356250D01*
X323056250Y-10768750D02*
X318643750Y-6356250D01*
X323056250Y-15081250D02*
X323056250Y-10768750D01*
X313531250Y-24606250D02*
X323056250Y-15081250D01*
X313531250Y-27781250D02*
X313531250Y-24606250D01*
D28*
%TO.N,/DP*%
X310168750Y9732500D02*
X310945250Y10511750D01*
X310881500Y10511750D02*
X310861750Y10511750D01*
X310168750Y7839966D02*
X310168750Y9732500D01*
X310168750Y7841716D02*
X311241250Y6766466D01*
X310168750Y11270000D02*
X310945250Y10511750D01*
X310168750Y13652500D02*
X310168750Y11270000D01*
X310690198Y14173948D02*
X310168750Y13652500D01*
X310690198Y15322500D02*
X310690198Y14173948D01*
X310690198Y15322500D02*
X310690198Y16247500D01*
X309690198Y15322500D02*
X309690198Y16247500D01*
X309690198Y16247500D02*
X310047948Y16605250D01*
X310332448Y16605250D02*
X310690198Y16247500D01*
X310047948Y16605250D02*
X310332448Y16605250D01*
%TO.N,/DN*%
X309717750Y9738250D02*
X308945250Y10511750D01*
X308898250Y10511750D02*
X308881500Y10511750D01*
X309717750Y11270000D02*
X308945250Y10511750D01*
X309717750Y7839966D02*
X309717750Y9732500D01*
X309717750Y7839966D02*
X308645250Y6766466D01*
X310190198Y14397500D02*
X310190198Y15322500D01*
X309717750Y13925052D02*
X310190198Y14397500D01*
X309717750Y11270000D02*
X309717750Y13925052D01*
X309190198Y14452604D02*
X309190198Y15322500D01*
X309717750Y13925052D02*
X309190198Y14452604D01*
%TO.N,Net-(R2-Pad1)*%
X310343750Y143750D02*
X310343750Y618750D01*
X310343750Y1268751D02*
X310343750Y143750D01*
X310168750Y1443751D02*
X310343750Y1268751D01*
X311241250Y4941466D02*
X310168750Y3868966D01*
X310168750Y1443751D02*
X310168750Y3868966D01*
%TO.N,Net-(R3-Pad1)*%
X309543750Y143750D02*
X309543750Y618750D01*
X309543750Y1268751D02*
X309718750Y1443751D01*
X309543750Y143750D02*
X309543750Y1268751D01*
X309717750Y3868966D02*
X308645250Y4941466D01*
X309718750Y1443751D02*
X309718750Y3867966D01*
%TD*%
D25*
%TO.N,GND*%
X311217565Y-1057435D02*
X311314256Y-1136787D01*
X311337417Y-1149167D01*
X311429500Y-1241250D01*
X311543087Y-1231704D01*
X311544268Y-1232062D01*
X311668750Y-1244322D01*
X312218750Y-1244322D01*
X312343232Y-1232062D01*
X312343750Y-1231905D01*
X312344268Y-1232062D01*
X312468750Y-1244322D01*
X313018750Y-1244322D01*
X313143232Y-1232062D01*
X313143750Y-1231905D01*
X313144268Y-1232062D01*
X313268750Y-1244322D01*
X313818750Y-1244322D01*
X313943232Y-1232062D01*
X313943750Y-1231905D01*
X313944268Y-1232062D01*
X314068750Y-1244322D01*
X314618750Y-1244322D01*
X314743232Y-1232062D01*
X314743750Y-1231905D01*
X314744268Y-1232062D01*
X314868750Y-1244322D01*
X315418750Y-1244322D01*
X315543232Y-1232062D01*
X315543750Y-1231905D01*
X315544268Y-1232062D01*
X315668750Y-1244322D01*
X316218750Y-1244322D01*
X316259712Y-1240288D01*
X316255678Y-1281250D01*
X316255678Y-1831250D01*
X316267938Y-1955732D01*
X316268095Y-1956250D01*
X316267938Y-1956768D01*
X316255678Y-2081250D01*
X316255678Y-2631250D01*
X316267938Y-2755732D01*
X316268095Y-2756250D01*
X316267938Y-2756768D01*
X316255678Y-2881250D01*
X316255678Y-3431250D01*
X316267938Y-3555732D01*
X316268296Y-3556913D01*
X316258750Y-3670500D01*
X316350833Y-3762583D01*
X316363213Y-3785744D01*
X316442565Y-3882435D01*
X316532509Y-3956250D01*
X316442565Y-4030065D01*
X316363213Y-4126756D01*
X316350833Y-4149917D01*
X316258750Y-4242000D01*
X316268296Y-4355587D01*
X316267938Y-4356768D01*
X316255678Y-4481250D01*
X316255678Y-5031250D01*
X316267938Y-5155732D01*
X316268095Y-5156250D01*
X316267938Y-5156768D01*
X316255678Y-5281250D01*
X316255678Y-5831250D01*
X316267938Y-5955732D01*
X316268095Y-5956250D01*
X316267938Y-5956768D01*
X316255678Y-6081250D01*
X316255678Y-6631250D01*
X316267938Y-6755732D01*
X316268095Y-6756250D01*
X316267938Y-6756768D01*
X316255678Y-6881250D01*
X316255678Y-7431250D01*
X316267938Y-7555732D01*
X316268095Y-7556250D01*
X316267938Y-7556768D01*
X316255678Y-7681250D01*
X316255678Y-8231250D01*
X316267938Y-8355732D01*
X316268095Y-8356250D01*
X316267938Y-8356768D01*
X316255678Y-8481250D01*
X316255678Y-9031250D01*
X316267938Y-9155732D01*
X316268095Y-9156250D01*
X316267938Y-9156768D01*
X316255678Y-9281250D01*
X316255678Y-9831250D01*
X316259869Y-9873802D01*
X316229500Y-9871250D01*
X316070750Y-10030000D01*
X316070750Y-11129250D01*
X316695000Y-11129250D01*
X316853750Y-10970500D01*
X316856814Y-10509463D01*
X316852686Y-10465278D01*
X316893750Y-10469322D01*
X318163271Y-10469322D01*
X319121251Y-11427303D01*
X319121250Y-14766448D01*
X316552198Y-17335500D01*
X315121961Y-17335500D01*
X315128937Y-17328524D01*
X315242205Y-17159006D01*
X315320226Y-16970648D01*
X315352428Y-16808755D01*
X315803294Y-16357889D01*
X315834791Y-16332041D01*
X315860639Y-16300545D01*
X315860642Y-16300542D01*
X315937949Y-16206343D01*
X316014603Y-16062934D01*
X316061806Y-15907326D01*
X316073750Y-15786053D01*
X316073750Y-15786051D01*
X316077744Y-15745500D01*
X316073750Y-15704950D01*
X316073750Y-15528766D01*
X316126212Y-15485712D01*
X316131592Y-15479156D01*
X316197065Y-15558935D01*
X316293756Y-15638287D01*
X316404070Y-15697252D01*
X316523768Y-15733562D01*
X316648250Y-15745822D01*
X316862500Y-15742750D01*
X317021250Y-15584000D01*
X317021250Y-14509750D01*
X317275250Y-14509750D01*
X317275250Y-15584000D01*
X317434000Y-15742750D01*
X317648250Y-15745822D01*
X317772732Y-15733562D01*
X317892430Y-15697252D01*
X318002744Y-15638287D01*
X318099435Y-15558935D01*
X318178787Y-15462244D01*
X318237752Y-15351930D01*
X318274062Y-15232232D01*
X318286322Y-15107750D01*
X318283250Y-14668500D01*
X318124500Y-14509750D01*
X317275250Y-14509750D01*
X317021250Y-14509750D01*
X317001250Y-14509750D01*
X317001250Y-14255750D01*
X317021250Y-14255750D01*
X317021250Y-13181500D01*
X317275250Y-13181500D01*
X317275250Y-14255750D01*
X318124500Y-14255750D01*
X318283250Y-14097000D01*
X318286322Y-13657750D01*
X318274062Y-13533268D01*
X318237752Y-13413570D01*
X318178787Y-13303256D01*
X318099435Y-13206565D01*
X318002744Y-13127213D01*
X317892430Y-13068248D01*
X317772732Y-13031938D01*
X317648250Y-13019678D01*
X317434000Y-13022750D01*
X317275250Y-13181500D01*
X317021250Y-13181500D01*
X316862500Y-13022750D01*
X316648250Y-13019678D01*
X316523768Y-13031938D01*
X316404070Y-13068248D01*
X316293756Y-13127213D01*
X316197065Y-13206565D01*
X316131592Y-13286344D01*
X316126212Y-13279788D01*
X315991636Y-13169345D01*
X315969250Y-13157379D01*
X315969250Y-12641250D01*
X316070752Y-12641250D01*
X316070752Y-12482502D01*
X316229500Y-12641250D01*
X316346381Y-12631427D01*
X316465895Y-12594515D01*
X316575911Y-12534996D01*
X316672201Y-12455158D01*
X316751066Y-12358068D01*
X316809474Y-12247458D01*
X316845180Y-12127579D01*
X316856814Y-12003037D01*
X316853750Y-11542000D01*
X316695000Y-11383250D01*
X316070750Y-11383250D01*
X316070750Y-11403250D01*
X316056822Y-11403250D01*
X316056822Y-10506250D01*
X316044562Y-10381768D01*
X316008252Y-10262070D01*
X315949287Y-10151756D01*
X315869935Y-10055065D01*
X315773244Y-9975713D01*
X315750083Y-9963333D01*
X315658000Y-9871250D01*
X315544413Y-9880796D01*
X315543232Y-9880438D01*
X315418750Y-9868178D01*
X314868750Y-9868178D01*
X314744268Y-9880438D01*
X314743750Y-9880595D01*
X314743232Y-9880438D01*
X314618750Y-9868178D01*
X314068750Y-9868178D01*
X313944268Y-9880438D01*
X313943750Y-9880595D01*
X313943232Y-9880438D01*
X313818750Y-9868178D01*
X313268750Y-9868178D01*
X313144268Y-9880438D01*
X313143750Y-9880595D01*
X313143232Y-9880438D01*
X313018750Y-9868178D01*
X312468750Y-9868178D01*
X312344268Y-9880438D01*
X312343750Y-9880595D01*
X312343232Y-9880438D01*
X312218750Y-9868178D01*
X311668750Y-9868178D01*
X311544268Y-9880438D01*
X311543750Y-9880595D01*
X311543232Y-9880438D01*
X311418750Y-9868178D01*
X310868750Y-9868178D01*
X310744268Y-9880438D01*
X310743750Y-9880595D01*
X310743232Y-9880438D01*
X310618750Y-9868178D01*
X310068750Y-9868178D01*
X309944268Y-9880438D01*
X309943750Y-9880595D01*
X309943232Y-9880438D01*
X309818750Y-9868178D01*
X309268750Y-9868178D01*
X309144268Y-9880438D01*
X309143750Y-9880595D01*
X309143232Y-9880438D01*
X309018750Y-9868178D01*
X308468750Y-9868178D01*
X308344268Y-9880438D01*
X308343750Y-9880595D01*
X308343232Y-9880438D01*
X308218750Y-9868178D01*
X307668750Y-9868178D01*
X307627788Y-9872212D01*
X307631822Y-9831250D01*
X307631822Y-9281250D01*
X307619562Y-9156768D01*
X307619204Y-9155587D01*
X307628750Y-9042000D01*
X307536667Y-8949917D01*
X307524287Y-8926756D01*
X307444935Y-8830065D01*
X307354991Y-8756250D01*
X307444935Y-8682435D01*
X307524287Y-8585744D01*
X307536667Y-8562583D01*
X307628750Y-8470500D01*
X307619204Y-8356913D01*
X307619562Y-8355732D01*
X307631822Y-8231250D01*
X307631822Y-7681250D01*
X307619562Y-7556768D01*
X307619405Y-7556250D01*
X307619562Y-7555732D01*
X307631822Y-7431250D01*
X307631822Y-6881250D01*
X307619562Y-6756768D01*
X307619405Y-6756250D01*
X307619562Y-6755732D01*
X307631822Y-6631250D01*
X307631822Y-6081250D01*
X307619562Y-5956768D01*
X307619405Y-5956250D01*
X307619562Y-5955732D01*
X307631822Y-5831250D01*
X307631822Y-5281250D01*
X307619562Y-5156768D01*
X307619405Y-5156250D01*
X307619562Y-5155732D01*
X307631822Y-5031250D01*
X307631822Y-4481250D01*
X307619562Y-4356768D01*
X307619405Y-4356250D01*
X307619562Y-4355732D01*
X307631822Y-4231250D01*
X307631822Y-3681250D01*
X307619562Y-3556768D01*
X307619405Y-3556250D01*
X307619562Y-3555732D01*
X307631822Y-3431250D01*
X307631822Y-2881250D01*
X307619562Y-2756768D01*
X307619204Y-2755587D01*
X307628750Y-2642000D01*
X307536667Y-2549917D01*
X307524287Y-2526756D01*
X307444935Y-2430065D01*
X307354991Y-2356250D01*
X307444935Y-2282435D01*
X307524287Y-2185744D01*
X307536667Y-2162583D01*
X307628750Y-2070500D01*
X307619204Y-1956913D01*
X307619562Y-1955732D01*
X307631822Y-1831250D01*
X307631822Y-1281250D01*
X307627788Y-1240288D01*
X307668750Y-1244322D01*
X308218750Y-1244322D01*
X308343232Y-1232062D01*
X308343750Y-1231905D01*
X308344268Y-1232062D01*
X308468750Y-1244322D01*
X309018750Y-1244322D01*
X309143232Y-1232062D01*
X309143750Y-1231905D01*
X309144268Y-1232062D01*
X309268750Y-1244322D01*
X309818750Y-1244322D01*
X309943232Y-1232062D01*
X309943750Y-1231905D01*
X309944268Y-1232062D01*
X310068750Y-1244322D01*
X310618750Y-1244322D01*
X310743232Y-1232062D01*
X310744413Y-1231704D01*
X310858000Y-1241250D01*
X310950083Y-1149167D01*
X310973244Y-1136787D01*
X311069935Y-1057435D01*
X311143750Y-967491D01*
X311217565Y-1057435D01*
%TA.AperFunction,Conductor*%
D29*
G36*
X311217565Y-1057435D02*
G01*
X311314256Y-1136787D01*
X311337417Y-1149167D01*
X311429500Y-1241250D01*
X311543087Y-1231704D01*
X311544268Y-1232062D01*
X311668750Y-1244322D01*
X312218750Y-1244322D01*
X312343232Y-1232062D01*
X312343750Y-1231905D01*
X312344268Y-1232062D01*
X312468750Y-1244322D01*
X313018750Y-1244322D01*
X313143232Y-1232062D01*
X313143750Y-1231905D01*
X313144268Y-1232062D01*
X313268750Y-1244322D01*
X313818750Y-1244322D01*
X313943232Y-1232062D01*
X313943750Y-1231905D01*
X313944268Y-1232062D01*
X314068750Y-1244322D01*
X314618750Y-1244322D01*
X314743232Y-1232062D01*
X314743750Y-1231905D01*
X314744268Y-1232062D01*
X314868750Y-1244322D01*
X315418750Y-1244322D01*
X315543232Y-1232062D01*
X315543750Y-1231905D01*
X315544268Y-1232062D01*
X315668750Y-1244322D01*
X316218750Y-1244322D01*
X316259712Y-1240288D01*
X316255678Y-1281250D01*
X316255678Y-1831250D01*
X316267938Y-1955732D01*
X316268095Y-1956250D01*
X316267938Y-1956768D01*
X316255678Y-2081250D01*
X316255678Y-2631250D01*
X316267938Y-2755732D01*
X316268095Y-2756250D01*
X316267938Y-2756768D01*
X316255678Y-2881250D01*
X316255678Y-3431250D01*
X316267938Y-3555732D01*
X316268296Y-3556913D01*
X316258750Y-3670500D01*
X316350833Y-3762583D01*
X316363213Y-3785744D01*
X316442565Y-3882435D01*
X316532509Y-3956250D01*
X316442565Y-4030065D01*
X316363213Y-4126756D01*
X316350833Y-4149917D01*
X316258750Y-4242000D01*
X316268296Y-4355587D01*
X316267938Y-4356768D01*
X316255678Y-4481250D01*
X316255678Y-5031250D01*
X316267938Y-5155732D01*
X316268095Y-5156250D01*
X316267938Y-5156768D01*
X316255678Y-5281250D01*
X316255678Y-5831250D01*
X316267938Y-5955732D01*
X316268095Y-5956250D01*
X316267938Y-5956768D01*
X316255678Y-6081250D01*
X316255678Y-6631250D01*
X316267938Y-6755732D01*
X316268095Y-6756250D01*
X316267938Y-6756768D01*
X316255678Y-6881250D01*
X316255678Y-7431250D01*
X316267938Y-7555732D01*
X316268095Y-7556250D01*
X316267938Y-7556768D01*
X316255678Y-7681250D01*
X316255678Y-8231250D01*
X316267938Y-8355732D01*
X316268095Y-8356250D01*
X316267938Y-8356768D01*
X316255678Y-8481250D01*
X316255678Y-9031250D01*
X316267938Y-9155732D01*
X316268095Y-9156250D01*
X316267938Y-9156768D01*
X316255678Y-9281250D01*
X316255678Y-9831250D01*
X316259869Y-9873802D01*
X316229500Y-9871250D01*
X316070750Y-10030000D01*
X316070750Y-11129250D01*
X316695000Y-11129250D01*
X316853750Y-10970500D01*
X316856814Y-10509463D01*
X316852686Y-10465278D01*
X316893750Y-10469322D01*
X318163271Y-10469322D01*
X319121251Y-11427303D01*
X319121250Y-14766448D01*
X316552198Y-17335500D01*
X315121961Y-17335500D01*
X315128937Y-17328524D01*
X315242205Y-17159006D01*
X315320226Y-16970648D01*
X315352428Y-16808755D01*
X315803294Y-16357889D01*
X315834791Y-16332041D01*
X315860639Y-16300545D01*
X315860642Y-16300542D01*
X315937949Y-16206343D01*
X316014603Y-16062934D01*
X316061806Y-15907326D01*
X316073750Y-15786053D01*
X316073750Y-15786051D01*
X316077744Y-15745500D01*
X316073750Y-15704950D01*
X316073750Y-15528766D01*
X316126212Y-15485712D01*
X316131592Y-15479156D01*
X316197065Y-15558935D01*
X316293756Y-15638287D01*
X316404070Y-15697252D01*
X316523768Y-15733562D01*
X316648250Y-15745822D01*
X316862500Y-15742750D01*
X317021250Y-15584000D01*
X317021250Y-14509750D01*
X317275250Y-14509750D01*
X317275250Y-15584000D01*
X317434000Y-15742750D01*
X317648250Y-15745822D01*
X317772732Y-15733562D01*
X317892430Y-15697252D01*
X318002744Y-15638287D01*
X318099435Y-15558935D01*
X318178787Y-15462244D01*
X318237752Y-15351930D01*
X318274062Y-15232232D01*
X318286322Y-15107750D01*
X318283250Y-14668500D01*
X318124500Y-14509750D01*
X317275250Y-14509750D01*
X317021250Y-14509750D01*
X317001250Y-14509750D01*
X317001250Y-14255750D01*
X317021250Y-14255750D01*
X317021250Y-13181500D01*
X317275250Y-13181500D01*
X317275250Y-14255750D01*
X318124500Y-14255750D01*
X318283250Y-14097000D01*
X318286322Y-13657750D01*
X318274062Y-13533268D01*
X318237752Y-13413570D01*
X318178787Y-13303256D01*
X318099435Y-13206565D01*
X318002744Y-13127213D01*
X317892430Y-13068248D01*
X317772732Y-13031938D01*
X317648250Y-13019678D01*
X317434000Y-13022750D01*
X317275250Y-13181500D01*
X317021250Y-13181500D01*
X316862500Y-13022750D01*
X316648250Y-13019678D01*
X316523768Y-13031938D01*
X316404070Y-13068248D01*
X316293756Y-13127213D01*
X316197065Y-13206565D01*
X316131592Y-13286344D01*
X316126212Y-13279788D01*
X315991636Y-13169345D01*
X315969250Y-13157379D01*
X315969250Y-12641250D01*
X316070752Y-12641250D01*
X316070752Y-12482502D01*
X316229500Y-12641250D01*
X316346381Y-12631427D01*
X316465895Y-12594515D01*
X316575911Y-12534996D01*
X316672201Y-12455158D01*
X316751066Y-12358068D01*
X316809474Y-12247458D01*
X316845180Y-12127579D01*
X316856814Y-12003037D01*
X316853750Y-11542000D01*
X316695000Y-11383250D01*
X316070750Y-11383250D01*
X316070750Y-11403250D01*
X316056822Y-11403250D01*
X316056822Y-10506250D01*
X316044562Y-10381768D01*
X316008252Y-10262070D01*
X315949287Y-10151756D01*
X315869935Y-10055065D01*
X315773244Y-9975713D01*
X315750083Y-9963333D01*
X315658000Y-9871250D01*
X315544413Y-9880796D01*
X315543232Y-9880438D01*
X315418750Y-9868178D01*
X314868750Y-9868178D01*
X314744268Y-9880438D01*
X314743750Y-9880595D01*
X314743232Y-9880438D01*
X314618750Y-9868178D01*
X314068750Y-9868178D01*
X313944268Y-9880438D01*
X313943750Y-9880595D01*
X313943232Y-9880438D01*
X313818750Y-9868178D01*
X313268750Y-9868178D01*
X313144268Y-9880438D01*
X313143750Y-9880595D01*
X313143232Y-9880438D01*
X313018750Y-9868178D01*
X312468750Y-9868178D01*
X312344268Y-9880438D01*
X312343750Y-9880595D01*
X312343232Y-9880438D01*
X312218750Y-9868178D01*
X311668750Y-9868178D01*
X311544268Y-9880438D01*
X311543750Y-9880595D01*
X311543232Y-9880438D01*
X311418750Y-9868178D01*
X310868750Y-9868178D01*
X310744268Y-9880438D01*
X310743750Y-9880595D01*
X310743232Y-9880438D01*
X310618750Y-9868178D01*
X310068750Y-9868178D01*
X309944268Y-9880438D01*
X309943750Y-9880595D01*
X309943232Y-9880438D01*
X309818750Y-9868178D01*
X309268750Y-9868178D01*
X309144268Y-9880438D01*
X309143750Y-9880595D01*
X309143232Y-9880438D01*
X309018750Y-9868178D01*
X308468750Y-9868178D01*
X308344268Y-9880438D01*
X308343750Y-9880595D01*
X308343232Y-9880438D01*
X308218750Y-9868178D01*
X307668750Y-9868178D01*
X307627788Y-9872212D01*
X307631822Y-9831250D01*
X307631822Y-9281250D01*
X307619562Y-9156768D01*
X307619204Y-9155587D01*
X307628750Y-9042000D01*
X307536667Y-8949917D01*
X307524287Y-8926756D01*
X307444935Y-8830065D01*
X307354991Y-8756250D01*
X307444935Y-8682435D01*
X307524287Y-8585744D01*
X307536667Y-8562583D01*
X307628750Y-8470500D01*
X307619204Y-8356913D01*
X307619562Y-8355732D01*
X307631822Y-8231250D01*
X307631822Y-7681250D01*
X307619562Y-7556768D01*
X307619405Y-7556250D01*
X307619562Y-7555732D01*
X307631822Y-7431250D01*
X307631822Y-6881250D01*
X307619562Y-6756768D01*
X307619405Y-6756250D01*
X307619562Y-6755732D01*
X307631822Y-6631250D01*
X307631822Y-6081250D01*
X307619562Y-5956768D01*
X307619405Y-5956250D01*
X307619562Y-5955732D01*
X307631822Y-5831250D01*
X307631822Y-5281250D01*
X307619562Y-5156768D01*
X307619405Y-5156250D01*
X307619562Y-5155732D01*
X307631822Y-5031250D01*
X307631822Y-4481250D01*
X307619562Y-4356768D01*
X307619405Y-4356250D01*
X307619562Y-4355732D01*
X307631822Y-4231250D01*
X307631822Y-3681250D01*
X307619562Y-3556768D01*
X307619405Y-3556250D01*
X307619562Y-3555732D01*
X307631822Y-3431250D01*
X307631822Y-2881250D01*
X307619562Y-2756768D01*
X307619204Y-2755587D01*
X307628750Y-2642000D01*
X307536667Y-2549917D01*
X307524287Y-2526756D01*
X307444935Y-2430065D01*
X307354991Y-2356250D01*
X307444935Y-2282435D01*
X307524287Y-2185744D01*
X307536667Y-2162583D01*
X307628750Y-2070500D01*
X307619204Y-1956913D01*
X307619562Y-1955732D01*
X307631822Y-1831250D01*
X307631822Y-1281250D01*
X307627788Y-1240288D01*
X307668750Y-1244322D01*
X308218750Y-1244322D01*
X308343232Y-1232062D01*
X308343750Y-1231905D01*
X308344268Y-1232062D01*
X308468750Y-1244322D01*
X309018750Y-1244322D01*
X309143232Y-1232062D01*
X309143750Y-1231905D01*
X309144268Y-1232062D01*
X309268750Y-1244322D01*
X309818750Y-1244322D01*
X309943232Y-1232062D01*
X309943750Y-1231905D01*
X309944268Y-1232062D01*
X310068750Y-1244322D01*
X310618750Y-1244322D01*
X310743232Y-1232062D01*
X310744413Y-1231704D01*
X310858000Y-1241250D01*
X310950083Y-1149167D01*
X310973244Y-1136787D01*
X311069935Y-1057435D01*
X311143750Y-967491D01*
X311217565Y-1057435D01*
G37*
%TD.AperFunction*%
D25*
X299492450Y-8467252D02*
X299516249Y-8496251D01*
X299631974Y-8591224D01*
X299764003Y-8661796D01*
X299907264Y-8705253D01*
X300018917Y-8716250D01*
X300018925Y-8716250D01*
X300056250Y-8719926D01*
X300093575Y-8716250D01*
X301993750Y-8716250D01*
X302011250Y-8733750D01*
X303085500Y-8733750D01*
X303085500Y-8716250D01*
X303339500Y-8716250D01*
X303339500Y-8733750D01*
X303359500Y-8733750D01*
X303359500Y-8987750D01*
X303339500Y-8987750D01*
X303339500Y-9007750D01*
X303085500Y-9007750D01*
X303085500Y-8987750D01*
X302011250Y-8987750D01*
X301852500Y-9146500D01*
X301849428Y-9360750D01*
X301861688Y-9485232D01*
X301897998Y-9604930D01*
X301956963Y-9715244D01*
X302036315Y-9811935D01*
X302116094Y-9877408D01*
X302109538Y-9882788D01*
X301999095Y-10017364D01*
X301917028Y-10170900D01*
X301866492Y-10337496D01*
X301849428Y-10510750D01*
X301849428Y-11010750D01*
X301866492Y-11184004D01*
X301917028Y-11350600D01*
X301999095Y-11504136D01*
X302109538Y-11638712D01*
X302244114Y-11749155D01*
X302387001Y-11825530D01*
X302387001Y-12072496D01*
X302295295Y-12209744D01*
X302217274Y-12398102D01*
X302177500Y-12598061D01*
X302177500Y-12801939D01*
X302217274Y-13001898D01*
X302295295Y-13190256D01*
X302333890Y-13248018D01*
X302248662Y-13317963D01*
X301957916Y-13613054D01*
X301957916Y-13837561D01*
X302567265Y-14446910D01*
X302581408Y-14432768D01*
X302761013Y-14612373D01*
X302746870Y-14626515D01*
X302761013Y-14640658D01*
X302581408Y-14820263D01*
X302567265Y-14806120D01*
X302553123Y-14820263D01*
X302373518Y-14640658D01*
X302387660Y-14626515D01*
X301778311Y-14017166D01*
X301553804Y-14017166D01*
X301258713Y-14307912D01*
X301201918Y-14377117D01*
X297622500Y-10797699D01*
X297622500Y-6597302D01*
X299492450Y-8467252D01*
%TA.AperFunction,Conductor*%
D29*
G36*
X299492450Y-8467252D02*
G01*
X299516249Y-8496251D01*
X299631974Y-8591224D01*
X299764003Y-8661796D01*
X299907264Y-8705253D01*
X300018917Y-8716250D01*
X300018925Y-8716250D01*
X300056250Y-8719926D01*
X300093575Y-8716250D01*
X301993750Y-8716250D01*
X302011250Y-8733750D01*
X303085500Y-8733750D01*
X303085500Y-8716250D01*
X303339500Y-8716250D01*
X303339500Y-8733750D01*
X303359500Y-8733750D01*
X303359500Y-8987750D01*
X303339500Y-8987750D01*
X303339500Y-9007750D01*
X303085500Y-9007750D01*
X303085500Y-8987750D01*
X302011250Y-8987750D01*
X301852500Y-9146500D01*
X301849428Y-9360750D01*
X301861688Y-9485232D01*
X301897998Y-9604930D01*
X301956963Y-9715244D01*
X302036315Y-9811935D01*
X302116094Y-9877408D01*
X302109538Y-9882788D01*
X301999095Y-10017364D01*
X301917028Y-10170900D01*
X301866492Y-10337496D01*
X301849428Y-10510750D01*
X301849428Y-11010750D01*
X301866492Y-11184004D01*
X301917028Y-11350600D01*
X301999095Y-11504136D01*
X302109538Y-11638712D01*
X302244114Y-11749155D01*
X302387001Y-11825530D01*
X302387001Y-12072496D01*
X302295295Y-12209744D01*
X302217274Y-12398102D01*
X302177500Y-12598061D01*
X302177500Y-12801939D01*
X302217274Y-13001898D01*
X302295295Y-13190256D01*
X302333890Y-13248018D01*
X302248662Y-13317963D01*
X301957916Y-13613054D01*
X301957916Y-13837561D01*
X302567265Y-14446910D01*
X302581408Y-14432768D01*
X302761013Y-14612373D01*
X302746870Y-14626515D01*
X302761013Y-14640658D01*
X302581408Y-14820263D01*
X302567265Y-14806120D01*
X302553123Y-14820263D01*
X302373518Y-14640658D01*
X302387660Y-14626515D01*
X301778311Y-14017166D01*
X301553804Y-14017166D01*
X301258713Y-14307912D01*
X301201918Y-14377117D01*
X297622500Y-10797699D01*
X297622500Y-6597302D01*
X299492450Y-8467252D01*
G37*
%TD.AperFunction*%
D25*
X331027500Y-314802D02*
X331027501Y-6828947D01*
X323816250Y-14040198D01*
X323816250Y-10806072D01*
X323819926Y-10768749D01*
X323816250Y-10731426D01*
X323816250Y-10731417D01*
X323805253Y-10619764D01*
X323761796Y-10476503D01*
X323691224Y-10344474D01*
X323596251Y-10228749D01*
X323567253Y-10204951D01*
X322814379Y-9452077D01*
X322907264Y-9480253D01*
X323056250Y-9494927D01*
X323093583Y-9491250D01*
X326987678Y-9491250D01*
X327025000Y-9494926D01*
X327062322Y-9491250D01*
X327062333Y-9491250D01*
X327173986Y-9480253D01*
X327317247Y-9436796D01*
X327449276Y-9366224D01*
X327565001Y-9271251D01*
X327588804Y-9242248D01*
X328038480Y-8792572D01*
X328225000Y-8792572D01*
X328398254Y-8775508D01*
X328564850Y-8724972D01*
X328718386Y-8642905D01*
X328852962Y-8532462D01*
X328963405Y-8397886D01*
X329045472Y-8244350D01*
X329096008Y-8077754D01*
X329113072Y-7904500D01*
X329113072Y-6954500D01*
X329096008Y-6781246D01*
X329045472Y-6614650D01*
X328963405Y-6461114D01*
X328938874Y-6431223D01*
X329005537Y-6349994D01*
X329064502Y-6239680D01*
X329100812Y-6119982D01*
X329113072Y-5995500D01*
X329110000Y-5556250D01*
X328951250Y-5397500D01*
X328102000Y-5397500D01*
X328102000Y-5417500D01*
X327848000Y-5417500D01*
X327848000Y-5397500D01*
X327828000Y-5397500D01*
X327828000Y-5143500D01*
X327848000Y-5143500D01*
X327848000Y-4069250D01*
X328102000Y-4069250D01*
X328102000Y-5143500D01*
X328951250Y-5143500D01*
X329110000Y-4984750D01*
X329113072Y-4545500D01*
X329100812Y-4421018D01*
X329064502Y-4301320D01*
X329005537Y-4191006D01*
X328926185Y-4094315D01*
X328829494Y-4014963D01*
X328719180Y-3955998D01*
X328599482Y-3919688D01*
X328475000Y-3907428D01*
X328260750Y-3910500D01*
X328102000Y-4069250D01*
X327848000Y-4069250D01*
X327689250Y-3910500D01*
X327475000Y-3907428D01*
X327350518Y-3919688D01*
X327230820Y-3955998D01*
X327120506Y-4014963D01*
X327023815Y-4094315D01*
X326958342Y-4174094D01*
X326952962Y-4167538D01*
X326818386Y-4057095D01*
X326664850Y-3975028D01*
X326498254Y-3924492D01*
X326325000Y-3907428D01*
X325825000Y-3907428D01*
X325651746Y-3924492D01*
X325485150Y-3975028D01*
X325331614Y-4057095D01*
X325197038Y-4167538D01*
X325090941Y-4296819D01*
X325036787Y-4195506D01*
X324957435Y-4098815D01*
X324860744Y-4019463D01*
X324750430Y-3960498D01*
X324630732Y-3924188D01*
X324506250Y-3911928D01*
X323827981Y-3911928D01*
X323373806Y-3457752D01*
X323350003Y-3428749D01*
X323234278Y-3333776D01*
X323102249Y-3263204D01*
X322958988Y-3219747D01*
X322847335Y-3208750D01*
X322847324Y-3208750D01*
X322810002Y-3205074D01*
X322772680Y-3208750D01*
X321506072Y-3208750D01*
X321468749Y-3205074D01*
X321431426Y-3208750D01*
X321431417Y-3208750D01*
X321319764Y-3219747D01*
X321176503Y-3263204D01*
X321044474Y-3333776D01*
X320928749Y-3428749D01*
X320904951Y-3457747D01*
X320366449Y-3996250D01*
X319028750Y-3996250D01*
X319028750Y-3981750D01*
X319859450Y-3981750D01*
X319900000Y-3985744D01*
X319940550Y-3981750D01*
X319940553Y-3981750D01*
X320061826Y-3969806D01*
X320217434Y-3922603D01*
X320360842Y-3845949D01*
X320486541Y-3742791D01*
X320512398Y-3711284D01*
X321540791Y-2682893D01*
X321639244Y-2712758D01*
X321812498Y-2729822D01*
X322712502Y-2729822D01*
X322885756Y-2712758D01*
X323052352Y-2662222D01*
X323205887Y-2580155D01*
X323325612Y-2481899D01*
X323359744Y-2504705D01*
X323548102Y-2582726D01*
X323748061Y-2622500D01*
X323951939Y-2622500D01*
X324151898Y-2582726D01*
X324340256Y-2504705D01*
X324509774Y-2391437D01*
X324653937Y-2247274D01*
X324767205Y-2077756D01*
X324845226Y-1889398D01*
X324885000Y-1689439D01*
X324885000Y-1485561D01*
X324880527Y-1463072D01*
X325439250Y-1463072D01*
X325563732Y-1450812D01*
X325683430Y-1414502D01*
X325793744Y-1355537D01*
X325890435Y-1276185D01*
X325969787Y-1179494D01*
X326028752Y-1069180D01*
X326065062Y-949482D01*
X326077322Y-825000D01*
X326077322Y827500D01*
X326761949Y827500D01*
X327401178Y188270D01*
X327401178Y-825000D01*
X327413438Y-949482D01*
X327449748Y-1069180D01*
X327508713Y-1179494D01*
X327588065Y-1276185D01*
X327684756Y-1355537D01*
X327795070Y-1414502D01*
X327914768Y-1450812D01*
X328039250Y-1463072D01*
X329139250Y-1463072D01*
X329263732Y-1450812D01*
X329383430Y-1414502D01*
X329493744Y-1355537D01*
X329590435Y-1276185D01*
X329669787Y-1179494D01*
X329728752Y-1069180D01*
X329765062Y-949482D01*
X329777322Y-825000D01*
X329777322Y935377D01*
X331027500Y-314802D01*
%TA.AperFunction,Conductor*%
D29*
G36*
X331027500Y-314802D02*
G01*
X331027501Y-6828947D01*
X323816250Y-14040198D01*
X323816250Y-10806072D01*
X323819926Y-10768749D01*
X323816250Y-10731426D01*
X323816250Y-10731417D01*
X323805253Y-10619764D01*
X323761796Y-10476503D01*
X323691224Y-10344474D01*
X323596251Y-10228749D01*
X323567253Y-10204951D01*
X322814379Y-9452077D01*
X322907264Y-9480253D01*
X323056250Y-9494927D01*
X323093583Y-9491250D01*
X326987678Y-9491250D01*
X327025000Y-9494926D01*
X327062322Y-9491250D01*
X327062333Y-9491250D01*
X327173986Y-9480253D01*
X327317247Y-9436796D01*
X327449276Y-9366224D01*
X327565001Y-9271251D01*
X327588804Y-9242248D01*
X328038480Y-8792572D01*
X328225000Y-8792572D01*
X328398254Y-8775508D01*
X328564850Y-8724972D01*
X328718386Y-8642905D01*
X328852962Y-8532462D01*
X328963405Y-8397886D01*
X329045472Y-8244350D01*
X329096008Y-8077754D01*
X329113072Y-7904500D01*
X329113072Y-6954500D01*
X329096008Y-6781246D01*
X329045472Y-6614650D01*
X328963405Y-6461114D01*
X328938874Y-6431223D01*
X329005537Y-6349994D01*
X329064502Y-6239680D01*
X329100812Y-6119982D01*
X329113072Y-5995500D01*
X329110000Y-5556250D01*
X328951250Y-5397500D01*
X328102000Y-5397500D01*
X328102000Y-5417500D01*
X327848000Y-5417500D01*
X327848000Y-5397500D01*
X327828000Y-5397500D01*
X327828000Y-5143500D01*
X327848000Y-5143500D01*
X327848000Y-4069250D01*
X328102000Y-4069250D01*
X328102000Y-5143500D01*
X328951250Y-5143500D01*
X329110000Y-4984750D01*
X329113072Y-4545500D01*
X329100812Y-4421018D01*
X329064502Y-4301320D01*
X329005537Y-4191006D01*
X328926185Y-4094315D01*
X328829494Y-4014963D01*
X328719180Y-3955998D01*
X328599482Y-3919688D01*
X328475000Y-3907428D01*
X328260750Y-3910500D01*
X328102000Y-4069250D01*
X327848000Y-4069250D01*
X327689250Y-3910500D01*
X327475000Y-3907428D01*
X327350518Y-3919688D01*
X327230820Y-3955998D01*
X327120506Y-4014963D01*
X327023815Y-4094315D01*
X326958342Y-4174094D01*
X326952962Y-4167538D01*
X326818386Y-4057095D01*
X326664850Y-3975028D01*
X326498254Y-3924492D01*
X326325000Y-3907428D01*
X325825000Y-3907428D01*
X325651746Y-3924492D01*
X325485150Y-3975028D01*
X325331614Y-4057095D01*
X325197038Y-4167538D01*
X325090941Y-4296819D01*
X325036787Y-4195506D01*
X324957435Y-4098815D01*
X324860744Y-4019463D01*
X324750430Y-3960498D01*
X324630732Y-3924188D01*
X324506250Y-3911928D01*
X323827981Y-3911928D01*
X323373806Y-3457752D01*
X323350003Y-3428749D01*
X323234278Y-3333776D01*
X323102249Y-3263204D01*
X322958988Y-3219747D01*
X322847335Y-3208750D01*
X322847324Y-3208750D01*
X322810002Y-3205074D01*
X322772680Y-3208750D01*
X321506072Y-3208750D01*
X321468749Y-3205074D01*
X321431426Y-3208750D01*
X321431417Y-3208750D01*
X321319764Y-3219747D01*
X321176503Y-3263204D01*
X321044474Y-3333776D01*
X320928749Y-3428749D01*
X320904951Y-3457747D01*
X320366449Y-3996250D01*
X319028750Y-3996250D01*
X319028750Y-3981750D01*
X319859450Y-3981750D01*
X319900000Y-3985744D01*
X319940550Y-3981750D01*
X319940553Y-3981750D01*
X320061826Y-3969806D01*
X320217434Y-3922603D01*
X320360842Y-3845949D01*
X320486541Y-3742791D01*
X320512398Y-3711284D01*
X321540791Y-2682893D01*
X321639244Y-2712758D01*
X321812498Y-2729822D01*
X322712502Y-2729822D01*
X322885756Y-2712758D01*
X323052352Y-2662222D01*
X323205887Y-2580155D01*
X323325612Y-2481899D01*
X323359744Y-2504705D01*
X323548102Y-2582726D01*
X323748061Y-2622500D01*
X323951939Y-2622500D01*
X324151898Y-2582726D01*
X324340256Y-2504705D01*
X324509774Y-2391437D01*
X324653937Y-2247274D01*
X324767205Y-2077756D01*
X324845226Y-1889398D01*
X324885000Y-1689439D01*
X324885000Y-1485561D01*
X324880527Y-1463072D01*
X325439250Y-1463072D01*
X325563732Y-1450812D01*
X325683430Y-1414502D01*
X325793744Y-1355537D01*
X325890435Y-1276185D01*
X325969787Y-1179494D01*
X326028752Y-1069180D01*
X326065062Y-949482D01*
X326077322Y-825000D01*
X326077322Y827500D01*
X326761949Y827500D01*
X327401178Y188270D01*
X327401178Y-825000D01*
X327413438Y-949482D01*
X327449748Y-1069180D01*
X327508713Y-1179494D01*
X327588065Y-1276185D01*
X327684756Y-1355537D01*
X327795070Y-1414502D01*
X327914768Y-1450812D01*
X328039250Y-1463072D01*
X329139250Y-1463072D01*
X329263732Y-1450812D01*
X329383430Y-1414502D01*
X329493744Y-1355537D01*
X329590435Y-1276185D01*
X329669787Y-1179494D01*
X329728752Y-1069180D01*
X329765062Y-949482D01*
X329777322Y-825000D01*
X329777322Y935377D01*
X331027500Y-314802D01*
G37*
%TD.AperFunction*%
D25*
X325098750Y-7302500D02*
X325948000Y-7302500D01*
X325948000Y-7282500D01*
X326202000Y-7282500D01*
X326202000Y-7302500D01*
X326222000Y-7302500D01*
X326222000Y-7556500D01*
X326202000Y-7556500D01*
X326202000Y-7576500D01*
X325948000Y-7576500D01*
X325948000Y-7556500D01*
X325098750Y-7556500D01*
X325030375Y-7624875D01*
X324982500Y-7577000D01*
X324033250Y-7577000D01*
X324033250Y-7597000D01*
X323779250Y-7597000D01*
X323779250Y-7577000D01*
X323759250Y-7577000D01*
X323759250Y-7323000D01*
X323779250Y-7323000D01*
X323779250Y-7303000D01*
X324033250Y-7303000D01*
X324033250Y-7323000D01*
X324982500Y-7323000D01*
X325050875Y-7254625D01*
X325098750Y-7302500D01*
%TA.AperFunction,Conductor*%
D29*
G36*
X325098750Y-7302500D02*
G01*
X325948000Y-7302500D01*
X325948000Y-7282500D01*
X326202000Y-7282500D01*
X326202000Y-7302500D01*
X326222000Y-7302500D01*
X326222000Y-7556500D01*
X326202000Y-7556500D01*
X326202000Y-7576500D01*
X325948000Y-7576500D01*
X325948000Y-7556500D01*
X325098750Y-7556500D01*
X325030375Y-7624875D01*
X324982500Y-7577000D01*
X324033250Y-7577000D01*
X324033250Y-7597000D01*
X323779250Y-7597000D01*
X323779250Y-7577000D01*
X323759250Y-7577000D01*
X323759250Y-7323000D01*
X323779250Y-7323000D01*
X323779250Y-7303000D01*
X324033250Y-7303000D01*
X324033250Y-7323000D01*
X324982500Y-7323000D01*
X325050875Y-7254625D01*
X325098750Y-7302500D01*
G37*
%TD.AperFunction*%
D25*
X322333250Y-5123000D02*
X322353250Y-5123000D01*
X322353250Y-5377000D01*
X322333250Y-5377000D01*
X322333250Y-5397000D01*
X322079250Y-5397000D01*
X322079250Y-5377000D01*
X322059250Y-5377000D01*
X322059250Y-5123000D01*
X322079250Y-5123000D01*
X322079250Y-5103000D01*
X322333250Y-5103000D01*
X322333250Y-5123000D01*
%TA.AperFunction,Conductor*%
D29*
G36*
X322333250Y-5123000D02*
G01*
X322353250Y-5123000D01*
X322353250Y-5377000D01*
X322333250Y-5377000D01*
X322333250Y-5397000D01*
X322079250Y-5397000D01*
X322079250Y-5377000D01*
X322059250Y-5377000D01*
X322059250Y-5123000D01*
X322079250Y-5123000D01*
X322079250Y-5103000D01*
X322333250Y-5103000D01*
X322333250Y-5123000D01*
G37*
%TD.AperFunction*%
D25*
X308453250Y19846448D02*
X308453250Y18815000D01*
X308317561Y18815000D01*
X308117602Y18775226D01*
X307929244Y18697205D01*
X307759726Y18583937D01*
X307615563Y18439774D01*
X307502295Y18270256D01*
X307424274Y18081898D01*
X307384500Y17881939D01*
X307384500Y17678061D01*
X307386654Y17667232D01*
X307330220Y17690608D01*
X307144750Y17727500D01*
X306955646Y17727500D01*
X306770176Y17690608D01*
X306595467Y17618241D01*
X306477314Y17539294D01*
X306332962Y17679869D01*
X306145174Y17801776D01*
X305922072Y17881619D01*
X305747198Y17755454D01*
X305747198Y16364500D01*
X305767198Y16364500D01*
X305767198Y16181252D01*
X305764386Y16171982D01*
X305758331Y16110500D01*
X305747198Y16110500D01*
X305747198Y14719546D01*
X305752951Y14715396D01*
X305752126Y14597500D01*
X305764386Y14473018D01*
X305800696Y14353320D01*
X305859661Y14243006D01*
X305939013Y14146315D01*
X306035704Y14066963D01*
X306146018Y14007998D01*
X306265716Y13971688D01*
X306390198Y13959428D01*
X306404448Y13962500D01*
X306563196Y14121248D01*
X306563196Y13962500D01*
X306664699Y13962500D01*
X306664699Y13907362D01*
X306660704Y13866802D01*
X306676643Y13704976D01*
X306723845Y13549369D01*
X306800499Y13405960D01*
X306862061Y13330948D01*
X306903658Y13280261D01*
X306935159Y13254409D01*
X307942317Y12247250D01*
X306288746Y10593678D01*
X306218750Y10600572D01*
X304968750Y10600572D01*
X304795496Y10583508D01*
X304628900Y10532972D01*
X304475364Y10450905D01*
X304340788Y10340462D01*
X304230345Y10205886D01*
X304148278Y10052350D01*
X304097742Y9885754D01*
X304080678Y9712500D01*
X304080678Y8962500D01*
X304097742Y8789246D01*
X304148278Y8622650D01*
X304230345Y8469114D01*
X304340788Y8334538D01*
X304475364Y8224095D01*
X304628900Y8142028D01*
X304795496Y8091492D01*
X304968750Y8074428D01*
X306218750Y8074428D01*
X306392004Y8091492D01*
X306558600Y8142028D01*
X306712136Y8224095D01*
X306846712Y8334538D01*
X306957155Y8469114D01*
X307039222Y8622650D01*
X307089758Y8789246D01*
X307106822Y8962500D01*
X307106822Y9076890D01*
X308003829Y9973896D01*
X308005748Y9967570D01*
X308064713Y9857256D01*
X308144065Y9760565D01*
X308240756Y9681213D01*
X308351070Y9622248D01*
X308470768Y9585938D01*
X308595250Y9573678D01*
X308843334Y9573678D01*
X308982751Y9434081D01*
X308982750Y8144213D01*
X308755787Y7917038D01*
X308195248Y7917038D01*
X308021994Y7899974D01*
X307855398Y7849438D01*
X307701863Y7767371D01*
X307567288Y7656928D01*
X307456845Y7522353D01*
X307374778Y7368818D01*
X307324242Y7202222D01*
X307307178Y7028968D01*
X307307178Y6503964D01*
X307324242Y6330710D01*
X307374778Y6164114D01*
X307456845Y6010579D01*
X307567288Y5876004D01*
X307594141Y5853966D01*
X307567288Y5831928D01*
X307456845Y5697353D01*
X307374778Y5543818D01*
X307324242Y5377222D01*
X307307178Y5203968D01*
X307307178Y4678964D01*
X307324242Y4505710D01*
X307374778Y4339114D01*
X307456845Y4185579D01*
X307567288Y4051004D01*
X307701863Y3940561D01*
X307855398Y3858494D01*
X308021994Y3807958D01*
X308195248Y3790894D01*
X308756375Y3790894D01*
X308983751Y3563518D01*
X308983750Y1999085D01*
X306729322Y4253512D01*
X306729322Y4443750D01*
X306712258Y4617004D01*
X306661722Y4783600D01*
X306579655Y4937136D01*
X306469212Y5071712D01*
X306416750Y5114766D01*
X306416750Y5298999D01*
X306558600Y5342028D01*
X306712136Y5424095D01*
X306846712Y5534538D01*
X306957155Y5669114D01*
X307039222Y5822650D01*
X307089758Y5989246D01*
X307106822Y6162500D01*
X307106822Y6912500D01*
X307089758Y7085754D01*
X307039222Y7252350D01*
X306957155Y7405886D01*
X306846712Y7540462D01*
X306712136Y7650905D01*
X306558600Y7732972D01*
X306392004Y7783508D01*
X306218750Y7800572D01*
X304968750Y7800572D01*
X304795496Y7783508D01*
X304628900Y7732972D01*
X304475364Y7650905D01*
X304340788Y7540462D01*
X304230345Y7405886D01*
X304148278Y7252350D01*
X304097742Y7085754D01*
X304080678Y6912500D01*
X304080678Y6162500D01*
X304097742Y5989246D01*
X304148278Y5822650D01*
X304230345Y5669114D01*
X304340788Y5534538D01*
X304475364Y5424095D01*
X304628900Y5342028D01*
X304765751Y5300515D01*
X304765750Y5114767D01*
X304713288Y5071712D01*
X304707908Y5065156D01*
X304642435Y5144935D01*
X304545744Y5224287D01*
X304435430Y5283252D01*
X304315732Y5319562D01*
X304191250Y5331822D01*
X303977000Y5328750D01*
X303818250Y5170000D01*
X303818250Y4095750D01*
X303838250Y4095750D01*
X303838250Y3841750D01*
X303818250Y3841750D01*
X303818250Y3821750D01*
X303564250Y3821750D01*
X303564250Y3841750D01*
X302715000Y3841750D01*
X302556250Y3683000D01*
X302553178Y3243750D01*
X302565438Y3119268D01*
X302601748Y2999570D01*
X302660713Y2889256D01*
X302740065Y2792565D01*
X302836756Y2713213D01*
X302947070Y2654248D01*
X303066768Y2617938D01*
X303072446Y2617379D01*
X303069375Y2614308D01*
X302910602Y2582726D01*
X302722244Y2504705D01*
X302552726Y2391437D01*
X302408563Y2247274D01*
X302295295Y2077756D01*
X302217274Y1889398D01*
X302177500Y1689439D01*
X302177500Y1485561D01*
X302217274Y1285602D01*
X302295295Y1097244D01*
X302387001Y959996D01*
X302387001Y586030D01*
X302244114Y509655D01*
X302109538Y399212D01*
X301999095Y264636D01*
X301917028Y111100D01*
X301866492Y-55496D01*
X301849428Y-228750D01*
X301849428Y-728750D01*
X301866492Y-902004D01*
X301917028Y-1068600D01*
X301999095Y-1222136D01*
X302109538Y-1356712D01*
X302116094Y-1362092D01*
X302036315Y-1427565D01*
X301956963Y-1524256D01*
X301897998Y-1634570D01*
X301861688Y-1754268D01*
X301849428Y-1878750D01*
X301852500Y-2093000D01*
X302011250Y-2251750D01*
X303085500Y-2251750D01*
X303085500Y-2231750D01*
X303339500Y-2231750D01*
X303339500Y-2251750D01*
X304318760Y-2251750D01*
X304393591Y-2291748D01*
X304451316Y-2322603D01*
X304606924Y-2369806D01*
X304728197Y-2381750D01*
X304728199Y-2381750D01*
X304768749Y-2385744D01*
X304809300Y-2381750D01*
X304858750Y-2381750D01*
X304858750Y-2483252D01*
X304998916Y-2483252D01*
X304963213Y-2526756D01*
X304950833Y-2549917D01*
X304858750Y-2642000D01*
X304868296Y-2755587D01*
X304867938Y-2756768D01*
X304855678Y-2881250D01*
X304855678Y-3208750D01*
X304481130Y-3208750D01*
X304527002Y-3122930D01*
X304563312Y-3003232D01*
X304575572Y-2878750D01*
X304572500Y-2664500D01*
X304413750Y-2505750D01*
X303339500Y-2505750D01*
X303339500Y-2525750D01*
X303085500Y-2525750D01*
X303085500Y-2505750D01*
X302011250Y-2505750D01*
X301852500Y-2664500D01*
X301849428Y-2878750D01*
X301861688Y-3003232D01*
X301897998Y-3122930D01*
X301943870Y-3208750D01*
X300352302Y-3208750D01*
X293457554Y3685997D01*
X293433751Y3715001D01*
X293318026Y3809974D01*
X293185997Y3880546D01*
X293042736Y3924003D01*
X293029876Y3925270D01*
X293798356Y4693750D01*
X302553178Y4693750D01*
X302556250Y4254500D01*
X302715000Y4095750D01*
X303564250Y4095750D01*
X303564250Y5170000D01*
X303405500Y5328750D01*
X303191250Y5331822D01*
X303066768Y5319562D01*
X302947070Y5283252D01*
X302836756Y5224287D01*
X302740065Y5144935D01*
X302660713Y5048244D01*
X302601748Y4937930D01*
X302565438Y4818232D01*
X302553178Y4693750D01*
X293798356Y4693750D01*
X301807724Y12703118D01*
X301880018Y12681188D01*
X302004500Y12668928D01*
X302418750Y12672000D01*
X302577500Y12830750D01*
X302577500Y13692500D01*
X302831500Y13692500D01*
X302831500Y12830750D01*
X302990250Y12672000D01*
X303404500Y12668928D01*
X303528982Y12681188D01*
X303648680Y12717498D01*
X303758994Y12776463D01*
X303855685Y12855815D01*
X303935037Y12952506D01*
X303994002Y13062820D01*
X304030312Y13182518D01*
X304042572Y13307000D01*
X304039500Y13533750D01*
X303880750Y13692500D01*
X302831500Y13692500D01*
X302577500Y13692500D01*
X302557500Y13692500D01*
X302557500Y13946500D01*
X302577500Y13946500D01*
X302577500Y13966500D01*
X302831500Y13966500D01*
X302831500Y13946500D01*
X303880750Y13946500D01*
X304039500Y14105250D01*
X304042572Y14332000D01*
X304030312Y14456482D01*
X303994002Y14576180D01*
X303935037Y14686494D01*
X303855685Y14783185D01*
X303826224Y14807363D01*
X303892905Y14888613D01*
X303974972Y15042148D01*
X304025508Y15208744D01*
X304042572Y15381998D01*
X304042572Y15907002D01*
X304025508Y16080256D01*
X304016334Y16110500D01*
X304485198Y16110500D01*
X304485198Y15560500D01*
X304531783Y15341513D01*
X304620195Y15135822D01*
X304747037Y14951331D01*
X304907434Y14795131D01*
X305095222Y14673224D01*
X305318324Y14593381D01*
X305493198Y14719546D01*
X305493198Y16110500D01*
X304485198Y16110500D01*
X304016334Y16110500D01*
X303974972Y16246852D01*
X303892905Y16400387D01*
X303782462Y16534962D01*
X303647887Y16645405D01*
X303494352Y16727472D01*
X303464500Y16736527D01*
X303464500Y16914500D01*
X304485198Y16914500D01*
X304485198Y16364500D01*
X305493198Y16364500D01*
X305493198Y17755454D01*
X305318324Y17881619D01*
X305095222Y17801776D01*
X304907434Y17679869D01*
X304747037Y17523669D01*
X304620195Y17339178D01*
X304531783Y17133487D01*
X304485198Y16914500D01*
X303464500Y16914500D01*
X303464500Y19687699D01*
X304067301Y20290500D01*
X304485198Y20290500D01*
X304485198Y19990500D01*
X304531783Y19771513D01*
X304620195Y19565822D01*
X304747037Y19381331D01*
X304907434Y19225131D01*
X305095222Y19103224D01*
X305318324Y19023381D01*
X305493198Y19149546D01*
X305493198Y20290500D01*
X305747198Y20290500D01*
X305747198Y19149546D01*
X305922072Y19023381D01*
X306145174Y19103224D01*
X306332962Y19225131D01*
X306493359Y19381331D01*
X306620201Y19565822D01*
X306708613Y19771513D01*
X306755198Y19990500D01*
X306755198Y20290500D01*
X305747198Y20290500D01*
X305493198Y20290500D01*
X304485198Y20290500D01*
X304067301Y20290500D01*
X304485198Y20708396D01*
X304485198Y20544500D01*
X305493198Y20544500D01*
X305493198Y20564500D01*
X305747198Y20564500D01*
X305747198Y20544500D01*
X306755198Y20544500D01*
X306755198Y20844500D01*
X306724512Y20988750D01*
X307310949Y20988750D01*
X308453250Y19846448D01*
%TA.AperFunction,Conductor*%
D29*
G36*
X308453250Y19846448D02*
G01*
X308453250Y18815000D01*
X308317561Y18815000D01*
X308117602Y18775226D01*
X307929244Y18697205D01*
X307759726Y18583937D01*
X307615563Y18439774D01*
X307502295Y18270256D01*
X307424274Y18081898D01*
X307384500Y17881939D01*
X307384500Y17678061D01*
X307386654Y17667232D01*
X307330220Y17690608D01*
X307144750Y17727500D01*
X306955646Y17727500D01*
X306770176Y17690608D01*
X306595467Y17618241D01*
X306477314Y17539294D01*
X306332962Y17679869D01*
X306145174Y17801776D01*
X305922072Y17881619D01*
X305747198Y17755454D01*
X305747198Y16364500D01*
X305767198Y16364500D01*
X305767198Y16181252D01*
X305764386Y16171982D01*
X305758331Y16110500D01*
X305747198Y16110500D01*
X305747198Y14719546D01*
X305752951Y14715396D01*
X305752126Y14597500D01*
X305764386Y14473018D01*
X305800696Y14353320D01*
X305859661Y14243006D01*
X305939013Y14146315D01*
X306035704Y14066963D01*
X306146018Y14007998D01*
X306265716Y13971688D01*
X306390198Y13959428D01*
X306404448Y13962500D01*
X306563196Y14121248D01*
X306563196Y13962500D01*
X306664699Y13962500D01*
X306664699Y13907362D01*
X306660704Y13866802D01*
X306676643Y13704976D01*
X306723845Y13549369D01*
X306800499Y13405960D01*
X306862061Y13330948D01*
X306903658Y13280261D01*
X306935159Y13254409D01*
X307942317Y12247250D01*
X306288746Y10593678D01*
X306218750Y10600572D01*
X304968750Y10600572D01*
X304795496Y10583508D01*
X304628900Y10532972D01*
X304475364Y10450905D01*
X304340788Y10340462D01*
X304230345Y10205886D01*
X304148278Y10052350D01*
X304097742Y9885754D01*
X304080678Y9712500D01*
X304080678Y8962500D01*
X304097742Y8789246D01*
X304148278Y8622650D01*
X304230345Y8469114D01*
X304340788Y8334538D01*
X304475364Y8224095D01*
X304628900Y8142028D01*
X304795496Y8091492D01*
X304968750Y8074428D01*
X306218750Y8074428D01*
X306392004Y8091492D01*
X306558600Y8142028D01*
X306712136Y8224095D01*
X306846712Y8334538D01*
X306957155Y8469114D01*
X307039222Y8622650D01*
X307089758Y8789246D01*
X307106822Y8962500D01*
X307106822Y9076890D01*
X308003829Y9973896D01*
X308005748Y9967570D01*
X308064713Y9857256D01*
X308144065Y9760565D01*
X308240756Y9681213D01*
X308351070Y9622248D01*
X308470768Y9585938D01*
X308595250Y9573678D01*
X308843334Y9573678D01*
X308982751Y9434081D01*
X308982750Y8144213D01*
X308755787Y7917038D01*
X308195248Y7917038D01*
X308021994Y7899974D01*
X307855398Y7849438D01*
X307701863Y7767371D01*
X307567288Y7656928D01*
X307456845Y7522353D01*
X307374778Y7368818D01*
X307324242Y7202222D01*
X307307178Y7028968D01*
X307307178Y6503964D01*
X307324242Y6330710D01*
X307374778Y6164114D01*
X307456845Y6010579D01*
X307567288Y5876004D01*
X307594141Y5853966D01*
X307567288Y5831928D01*
X307456845Y5697353D01*
X307374778Y5543818D01*
X307324242Y5377222D01*
X307307178Y5203968D01*
X307307178Y4678964D01*
X307324242Y4505710D01*
X307374778Y4339114D01*
X307456845Y4185579D01*
X307567288Y4051004D01*
X307701863Y3940561D01*
X307855398Y3858494D01*
X308021994Y3807958D01*
X308195248Y3790894D01*
X308756375Y3790894D01*
X308983751Y3563518D01*
X308983750Y1999085D01*
X306729322Y4253512D01*
X306729322Y4443750D01*
X306712258Y4617004D01*
X306661722Y4783600D01*
X306579655Y4937136D01*
X306469212Y5071712D01*
X306416750Y5114766D01*
X306416750Y5298999D01*
X306558600Y5342028D01*
X306712136Y5424095D01*
X306846712Y5534538D01*
X306957155Y5669114D01*
X307039222Y5822650D01*
X307089758Y5989246D01*
X307106822Y6162500D01*
X307106822Y6912500D01*
X307089758Y7085754D01*
X307039222Y7252350D01*
X306957155Y7405886D01*
X306846712Y7540462D01*
X306712136Y7650905D01*
X306558600Y7732972D01*
X306392004Y7783508D01*
X306218750Y7800572D01*
X304968750Y7800572D01*
X304795496Y7783508D01*
X304628900Y7732972D01*
X304475364Y7650905D01*
X304340788Y7540462D01*
X304230345Y7405886D01*
X304148278Y7252350D01*
X304097742Y7085754D01*
X304080678Y6912500D01*
X304080678Y6162500D01*
X304097742Y5989246D01*
X304148278Y5822650D01*
X304230345Y5669114D01*
X304340788Y5534538D01*
X304475364Y5424095D01*
X304628900Y5342028D01*
X304765751Y5300515D01*
X304765750Y5114767D01*
X304713288Y5071712D01*
X304707908Y5065156D01*
X304642435Y5144935D01*
X304545744Y5224287D01*
X304435430Y5283252D01*
X304315732Y5319562D01*
X304191250Y5331822D01*
X303977000Y5328750D01*
X303818250Y5170000D01*
X303818250Y4095750D01*
X303838250Y4095750D01*
X303838250Y3841750D01*
X303818250Y3841750D01*
X303818250Y3821750D01*
X303564250Y3821750D01*
X303564250Y3841750D01*
X302715000Y3841750D01*
X302556250Y3683000D01*
X302553178Y3243750D01*
X302565438Y3119268D01*
X302601748Y2999570D01*
X302660713Y2889256D01*
X302740065Y2792565D01*
X302836756Y2713213D01*
X302947070Y2654248D01*
X303066768Y2617938D01*
X303072446Y2617379D01*
X303069375Y2614308D01*
X302910602Y2582726D01*
X302722244Y2504705D01*
X302552726Y2391437D01*
X302408563Y2247274D01*
X302295295Y2077756D01*
X302217274Y1889398D01*
X302177500Y1689439D01*
X302177500Y1485561D01*
X302217274Y1285602D01*
X302295295Y1097244D01*
X302387001Y959996D01*
X302387001Y586030D01*
X302244114Y509655D01*
X302109538Y399212D01*
X301999095Y264636D01*
X301917028Y111100D01*
X301866492Y-55496D01*
X301849428Y-228750D01*
X301849428Y-728750D01*
X301866492Y-902004D01*
X301917028Y-1068600D01*
X301999095Y-1222136D01*
X302109538Y-1356712D01*
X302116094Y-1362092D01*
X302036315Y-1427565D01*
X301956963Y-1524256D01*
X301897998Y-1634570D01*
X301861688Y-1754268D01*
X301849428Y-1878750D01*
X301852500Y-2093000D01*
X302011250Y-2251750D01*
X303085500Y-2251750D01*
X303085500Y-2231750D01*
X303339500Y-2231750D01*
X303339500Y-2251750D01*
X304318760Y-2251750D01*
X304393591Y-2291748D01*
X304451316Y-2322603D01*
X304606924Y-2369806D01*
X304728197Y-2381750D01*
X304728199Y-2381750D01*
X304768749Y-2385744D01*
X304809300Y-2381750D01*
X304858750Y-2381750D01*
X304858750Y-2483252D01*
X304998916Y-2483252D01*
X304963213Y-2526756D01*
X304950833Y-2549917D01*
X304858750Y-2642000D01*
X304868296Y-2755587D01*
X304867938Y-2756768D01*
X304855678Y-2881250D01*
X304855678Y-3208750D01*
X304481130Y-3208750D01*
X304527002Y-3122930D01*
X304563312Y-3003232D01*
X304575572Y-2878750D01*
X304572500Y-2664500D01*
X304413750Y-2505750D01*
X303339500Y-2505750D01*
X303339500Y-2525750D01*
X303085500Y-2525750D01*
X303085500Y-2505750D01*
X302011250Y-2505750D01*
X301852500Y-2664500D01*
X301849428Y-2878750D01*
X301861688Y-3003232D01*
X301897998Y-3122930D01*
X301943870Y-3208750D01*
X300352302Y-3208750D01*
X293457554Y3685997D01*
X293433751Y3715001D01*
X293318026Y3809974D01*
X293185997Y3880546D01*
X293042736Y3924003D01*
X293029876Y3925270D01*
X293798356Y4693750D01*
X302553178Y4693750D01*
X302556250Y4254500D01*
X302715000Y4095750D01*
X303564250Y4095750D01*
X303564250Y5170000D01*
X303405500Y5328750D01*
X303191250Y5331822D01*
X303066768Y5319562D01*
X302947070Y5283252D01*
X302836756Y5224287D01*
X302740065Y5144935D01*
X302660713Y5048244D01*
X302601748Y4937930D01*
X302565438Y4818232D01*
X302553178Y4693750D01*
X293798356Y4693750D01*
X301807724Y12703118D01*
X301880018Y12681188D01*
X302004500Y12668928D01*
X302418750Y12672000D01*
X302577500Y12830750D01*
X302577500Y13692500D01*
X302831500Y13692500D01*
X302831500Y12830750D01*
X302990250Y12672000D01*
X303404500Y12668928D01*
X303528982Y12681188D01*
X303648680Y12717498D01*
X303758994Y12776463D01*
X303855685Y12855815D01*
X303935037Y12952506D01*
X303994002Y13062820D01*
X304030312Y13182518D01*
X304042572Y13307000D01*
X304039500Y13533750D01*
X303880750Y13692500D01*
X302831500Y13692500D01*
X302577500Y13692500D01*
X302557500Y13692500D01*
X302557500Y13946500D01*
X302577500Y13946500D01*
X302577500Y13966500D01*
X302831500Y13966500D01*
X302831500Y13946500D01*
X303880750Y13946500D01*
X304039500Y14105250D01*
X304042572Y14332000D01*
X304030312Y14456482D01*
X303994002Y14576180D01*
X303935037Y14686494D01*
X303855685Y14783185D01*
X303826224Y14807363D01*
X303892905Y14888613D01*
X303974972Y15042148D01*
X304025508Y15208744D01*
X304042572Y15381998D01*
X304042572Y15907002D01*
X304025508Y16080256D01*
X304016334Y16110500D01*
X304485198Y16110500D01*
X304485198Y15560500D01*
X304531783Y15341513D01*
X304620195Y15135822D01*
X304747037Y14951331D01*
X304907434Y14795131D01*
X305095222Y14673224D01*
X305318324Y14593381D01*
X305493198Y14719546D01*
X305493198Y16110500D01*
X304485198Y16110500D01*
X304016334Y16110500D01*
X303974972Y16246852D01*
X303892905Y16400387D01*
X303782462Y16534962D01*
X303647887Y16645405D01*
X303494352Y16727472D01*
X303464500Y16736527D01*
X303464500Y16914500D01*
X304485198Y16914500D01*
X304485198Y16364500D01*
X305493198Y16364500D01*
X305493198Y17755454D01*
X305318324Y17881619D01*
X305095222Y17801776D01*
X304907434Y17679869D01*
X304747037Y17523669D01*
X304620195Y17339178D01*
X304531783Y17133487D01*
X304485198Y16914500D01*
X303464500Y16914500D01*
X303464500Y19687699D01*
X304067301Y20290500D01*
X304485198Y20290500D01*
X304485198Y19990500D01*
X304531783Y19771513D01*
X304620195Y19565822D01*
X304747037Y19381331D01*
X304907434Y19225131D01*
X305095222Y19103224D01*
X305318324Y19023381D01*
X305493198Y19149546D01*
X305493198Y20290500D01*
X305747198Y20290500D01*
X305747198Y19149546D01*
X305922072Y19023381D01*
X306145174Y19103224D01*
X306332962Y19225131D01*
X306493359Y19381331D01*
X306620201Y19565822D01*
X306708613Y19771513D01*
X306755198Y19990500D01*
X306755198Y20290500D01*
X305747198Y20290500D01*
X305493198Y20290500D01*
X304485198Y20290500D01*
X304067301Y20290500D01*
X304485198Y20708396D01*
X304485198Y20544500D01*
X305493198Y20544500D01*
X305493198Y20564500D01*
X305747198Y20564500D01*
X305747198Y20544500D01*
X306755198Y20544500D01*
X306755198Y20844500D01*
X306724512Y20988750D01*
X307310949Y20988750D01*
X308453250Y19846448D01*
G37*
%TD.AperFunction*%
D25*
X313125198Y20844500D02*
X313125198Y20544500D01*
X314133198Y20544500D01*
X314133198Y20564500D01*
X314387198Y20564500D01*
X314387198Y20544500D01*
X315395198Y20544500D01*
X315395198Y20842001D01*
X316390751Y19846447D01*
X316390750Y16736528D01*
X316360898Y16727472D01*
X316207363Y16645405D01*
X316072788Y16534962D01*
X315962345Y16400387D01*
X315880278Y16246852D01*
X315829742Y16080256D01*
X315812678Y15907002D01*
X315812678Y15381998D01*
X315829742Y15208744D01*
X315880278Y15042148D01*
X315962345Y14888613D01*
X316029026Y14807363D01*
X315999565Y14783185D01*
X315920213Y14686494D01*
X315861248Y14576180D01*
X315824938Y14456482D01*
X315812678Y14332000D01*
X315815750Y14105250D01*
X315974500Y13946500D01*
X317023750Y13946500D01*
X317023750Y13966500D01*
X317277750Y13966500D01*
X317277750Y13946500D01*
X317297750Y13946500D01*
X317297750Y13692500D01*
X317277750Y13692500D01*
X317277750Y12830750D01*
X317436500Y12672000D01*
X317850750Y12668928D01*
X317975232Y12681188D01*
X318094930Y12717498D01*
X318096048Y12718096D01*
X323701490Y7112654D01*
X323704250Y6560750D01*
X323863000Y6402000D01*
X324762250Y6402000D01*
X324762250Y6422000D01*
X325016250Y6422000D01*
X325016250Y6402000D01*
X325915500Y6402000D01*
X326074250Y6560750D01*
X326076531Y7016750D01*
X326972394Y7016750D01*
X327401178Y6587966D01*
X327401178Y5588000D01*
X326076257Y5588000D01*
X326074250Y5989250D01*
X325915500Y6148000D01*
X325016250Y6148000D01*
X325016250Y6128000D01*
X324762250Y6128000D01*
X324762250Y6148000D01*
X323863000Y6148000D01*
X323704250Y5989250D01*
X323702243Y5588000D01*
X317595733Y5588000D01*
X317570405Y5635386D01*
X317459962Y5769962D01*
X317453406Y5775342D01*
X317533185Y5840815D01*
X317612537Y5937506D01*
X317671502Y6047820D01*
X317707812Y6167518D01*
X317720072Y6292000D01*
X317717000Y6506250D01*
X317558250Y6665000D01*
X316484000Y6665000D01*
X316484000Y6645000D01*
X316230000Y6645000D01*
X316230000Y6665000D01*
X314325000Y6665000D01*
X314325000Y6645000D01*
X314071000Y6645000D01*
X314071000Y6665000D01*
X312996750Y6665000D01*
X312838000Y6506250D01*
X312834928Y6292000D01*
X312847188Y6167518D01*
X312883498Y6047820D01*
X312942463Y5937506D01*
X313021815Y5840815D01*
X313101594Y5775342D01*
X313095038Y5769962D01*
X312984595Y5635386D01*
X312902528Y5481850D01*
X312851992Y5315254D01*
X312834928Y5142000D01*
X312834928Y4642000D01*
X312851992Y4468746D01*
X312902528Y4302150D01*
X312984595Y4148614D01*
X313095038Y4014038D01*
X313205134Y3923685D01*
X311432748Y2151299D01*
X311403750Y2127501D01*
X311379952Y2098503D01*
X311379951Y2098502D01*
X311308776Y2011776D01*
X311238204Y1879746D01*
X311194748Y1736485D01*
X311180074Y1587500D01*
X311183751Y1550168D01*
X311183751Y1303732D01*
X311143750Y1254991D01*
X311075466Y1338195D01*
X311068115Y1412836D01*
X311026087Y1551384D01*
X310957837Y1679071D01*
X310903750Y1744975D01*
X310903750Y3564520D01*
X311130124Y3790894D01*
X311627502Y3790894D01*
X311800756Y3807958D01*
X311967352Y3858494D01*
X312120887Y3940561D01*
X312255462Y4051004D01*
X312365905Y4185579D01*
X312447972Y4339114D01*
X312498508Y4505710D01*
X312515572Y4678964D01*
X312515572Y5203968D01*
X312498508Y5377222D01*
X312447972Y5543818D01*
X312365905Y5697353D01*
X312255462Y5831928D01*
X312228609Y5853966D01*
X312255462Y5876004D01*
X312365905Y6010579D01*
X312447972Y6164114D01*
X312498508Y6330710D01*
X312515572Y6503964D01*
X312515572Y7028968D01*
X312498508Y7202222D01*
X312471275Y7292000D01*
X312834928Y7292000D01*
X312838000Y7077750D01*
X312996750Y6919000D01*
X314071000Y6919000D01*
X314071000Y7768250D01*
X314325000Y7768250D01*
X314325000Y6919000D01*
X316230000Y6919000D01*
X316230000Y7768250D01*
X316484000Y7768250D01*
X316484000Y6919000D01*
X317558250Y6919000D01*
X317717000Y7077750D01*
X317720072Y7292000D01*
X317707812Y7416482D01*
X317671502Y7536180D01*
X317612537Y7646494D01*
X317533185Y7743185D01*
X317436494Y7822537D01*
X317326180Y7881502D01*
X317206482Y7917812D01*
X317082000Y7930072D01*
X316642750Y7927000D01*
X316484000Y7768250D01*
X316230000Y7768250D01*
X316071250Y7927000D01*
X315632000Y7930072D01*
X315507518Y7917812D01*
X315387820Y7881502D01*
X315277506Y7822537D01*
X315277500Y7822532D01*
X315277494Y7822537D01*
X315167180Y7881502D01*
X315047482Y7917812D01*
X314923000Y7930072D01*
X314483750Y7927000D01*
X314325000Y7768250D01*
X314071000Y7768250D01*
X313912250Y7927000D01*
X313473000Y7930072D01*
X313348518Y7917812D01*
X313228820Y7881502D01*
X313118506Y7822537D01*
X313021815Y7743185D01*
X312942463Y7646494D01*
X312883498Y7536180D01*
X312847188Y7416482D01*
X312834928Y7292000D01*
X312471275Y7292000D01*
X312447972Y7368818D01*
X312365905Y7522353D01*
X312255462Y7656928D01*
X312120887Y7767371D01*
X311967352Y7849438D01*
X311800756Y7899974D01*
X311627502Y7917038D01*
X311131739Y7917038D01*
X310903750Y8145611D01*
X310903750Y9428814D01*
X311048103Y9573678D01*
X311295250Y9573678D01*
X311419732Y9585938D01*
X311539430Y9622248D01*
X311649744Y9681213D01*
X311746435Y9760565D01*
X311825787Y9857256D01*
X311884752Y9967570D01*
X311921062Y10087268D01*
X311933322Y10211750D01*
X311933322Y10811750D01*
X311921062Y10936232D01*
X311884752Y11055930D01*
X311825787Y11166244D01*
X311747408Y11261750D01*
X311825787Y11357256D01*
X311884752Y11467570D01*
X311921062Y11587268D01*
X311933322Y11711750D01*
X311930250Y11926000D01*
X311771500Y12084750D01*
X311072250Y12084750D01*
X311072250Y12064750D01*
X310903750Y12064750D01*
X310903750Y13188000D01*
X311072250Y13188000D01*
X311072250Y12338750D01*
X311771500Y12338750D01*
X311930250Y12497500D01*
X311933322Y12711750D01*
X311921062Y12836232D01*
X311884752Y12955930D01*
X311825787Y13066244D01*
X311746435Y13162935D01*
X311649744Y13242287D01*
X311539430Y13301252D01*
X311520482Y13307000D01*
X315812678Y13307000D01*
X315824938Y13182518D01*
X315861248Y13062820D01*
X315920213Y12952506D01*
X315999565Y12855815D01*
X316096256Y12776463D01*
X316206570Y12717498D01*
X316326268Y12681188D01*
X316450750Y12668928D01*
X316865000Y12672000D01*
X317023750Y12830750D01*
X317023750Y13692500D01*
X315974500Y13692500D01*
X315815750Y13533750D01*
X315812678Y13307000D01*
X311520482Y13307000D01*
X311419732Y13337562D01*
X311295250Y13349822D01*
X311231000Y13346750D01*
X311072250Y13188000D01*
X310903750Y13188000D01*
X310903750Y13348054D01*
X311184390Y13628694D01*
X311212436Y13651710D01*
X311304285Y13763628D01*
X311372535Y13891315D01*
X311394829Y13964809D01*
X311440198Y13969277D01*
X311540198Y13959428D01*
X311840198Y13959428D01*
X311964680Y13971688D01*
X311965198Y13971845D01*
X311965716Y13971688D01*
X312090198Y13959428D01*
X312690198Y13959428D01*
X312790198Y13969277D01*
X312890198Y13959428D01*
X312904448Y13962500D01*
X312967823Y14025875D01*
X313044692Y14066963D01*
X313141383Y14146315D01*
X313220735Y14243006D01*
X313279700Y14353320D01*
X313316010Y14473018D01*
X313317198Y14485080D01*
X313317198Y14121250D01*
X313475948Y13962500D01*
X313490198Y13959428D01*
X313614680Y13971688D01*
X313734378Y14007998D01*
X313844692Y14066963D01*
X313941383Y14146315D01*
X314020735Y14243006D01*
X314079700Y14353320D01*
X314116010Y14473018D01*
X314128270Y14597500D01*
X314127445Y14715396D01*
X314133198Y14719546D01*
X314133198Y16110500D01*
X314387198Y16110500D01*
X314387198Y14719546D01*
X314562072Y14593381D01*
X314785174Y14673224D01*
X314972962Y14795131D01*
X315133359Y14951331D01*
X315260201Y15135822D01*
X315348613Y15341513D01*
X315395198Y15560500D01*
X315395198Y16110500D01*
X314387198Y16110500D01*
X314133198Y16110500D01*
X314122065Y16110500D01*
X314116010Y16171982D01*
X314113198Y16181252D01*
X314113198Y16364500D01*
X314133198Y16364500D01*
X314133198Y17755454D01*
X314387198Y17755454D01*
X314387198Y16364500D01*
X315395198Y16364500D01*
X315395198Y16914500D01*
X315348613Y17133487D01*
X315260201Y17339178D01*
X315133359Y17523669D01*
X314972962Y17679869D01*
X314785174Y17801776D01*
X314562072Y17881619D01*
X314387198Y17755454D01*
X314133198Y17755454D01*
X313958324Y17881619D01*
X313735222Y17801776D01*
X313547434Y17679869D01*
X313403082Y17539294D01*
X313284929Y17618241D01*
X313110220Y17690608D01*
X312924750Y17727500D01*
X312735646Y17727500D01*
X312629500Y17706386D01*
X312629500Y17881939D01*
X312589726Y18081898D01*
X312511705Y18270256D01*
X312398437Y18439774D01*
X312254274Y18583937D01*
X312084756Y18697205D01*
X311896398Y18775226D01*
X311696439Y18815000D01*
X311560750Y18815000D01*
X311560750Y19846449D01*
X312004801Y20290500D01*
X313125198Y20290500D01*
X313125198Y19990500D01*
X313171783Y19771513D01*
X313260195Y19565822D01*
X313387037Y19381331D01*
X313547434Y19225131D01*
X313735222Y19103224D01*
X313958324Y19023381D01*
X314133198Y19149546D01*
X314133198Y20290500D01*
X314387198Y20290500D01*
X314387198Y19149546D01*
X314562072Y19023381D01*
X314785174Y19103224D01*
X314972962Y19225131D01*
X315133359Y19381331D01*
X315260201Y19565822D01*
X315348613Y19771513D01*
X315395198Y19990500D01*
X315395198Y20290500D01*
X314387198Y20290500D01*
X314133198Y20290500D01*
X313125198Y20290500D01*
X312004801Y20290500D01*
X312703052Y20988750D01*
X313155884Y20988750D01*
X313125198Y20844500D01*
%TA.AperFunction,Conductor*%
D29*
G36*
X313125198Y20844500D02*
G01*
X313125198Y20544500D01*
X314133198Y20544500D01*
X314133198Y20564500D01*
X314387198Y20564500D01*
X314387198Y20544500D01*
X315395198Y20544500D01*
X315395198Y20842001D01*
X316390751Y19846447D01*
X316390750Y16736528D01*
X316360898Y16727472D01*
X316207363Y16645405D01*
X316072788Y16534962D01*
X315962345Y16400387D01*
X315880278Y16246852D01*
X315829742Y16080256D01*
X315812678Y15907002D01*
X315812678Y15381998D01*
X315829742Y15208744D01*
X315880278Y15042148D01*
X315962345Y14888613D01*
X316029026Y14807363D01*
X315999565Y14783185D01*
X315920213Y14686494D01*
X315861248Y14576180D01*
X315824938Y14456482D01*
X315812678Y14332000D01*
X315815750Y14105250D01*
X315974500Y13946500D01*
X317023750Y13946500D01*
X317023750Y13966500D01*
X317277750Y13966500D01*
X317277750Y13946500D01*
X317297750Y13946500D01*
X317297750Y13692500D01*
X317277750Y13692500D01*
X317277750Y12830750D01*
X317436500Y12672000D01*
X317850750Y12668928D01*
X317975232Y12681188D01*
X318094930Y12717498D01*
X318096048Y12718096D01*
X323701490Y7112654D01*
X323704250Y6560750D01*
X323863000Y6402000D01*
X324762250Y6402000D01*
X324762250Y6422000D01*
X325016250Y6422000D01*
X325016250Y6402000D01*
X325915500Y6402000D01*
X326074250Y6560750D01*
X326076531Y7016750D01*
X326972394Y7016750D01*
X327401178Y6587966D01*
X327401178Y5588000D01*
X326076257Y5588000D01*
X326074250Y5989250D01*
X325915500Y6148000D01*
X325016250Y6148000D01*
X325016250Y6128000D01*
X324762250Y6128000D01*
X324762250Y6148000D01*
X323863000Y6148000D01*
X323704250Y5989250D01*
X323702243Y5588000D01*
X317595733Y5588000D01*
X317570405Y5635386D01*
X317459962Y5769962D01*
X317453406Y5775342D01*
X317533185Y5840815D01*
X317612537Y5937506D01*
X317671502Y6047820D01*
X317707812Y6167518D01*
X317720072Y6292000D01*
X317717000Y6506250D01*
X317558250Y6665000D01*
X316484000Y6665000D01*
X316484000Y6645000D01*
X316230000Y6645000D01*
X316230000Y6665000D01*
X314325000Y6665000D01*
X314325000Y6645000D01*
X314071000Y6645000D01*
X314071000Y6665000D01*
X312996750Y6665000D01*
X312838000Y6506250D01*
X312834928Y6292000D01*
X312847188Y6167518D01*
X312883498Y6047820D01*
X312942463Y5937506D01*
X313021815Y5840815D01*
X313101594Y5775342D01*
X313095038Y5769962D01*
X312984595Y5635386D01*
X312902528Y5481850D01*
X312851992Y5315254D01*
X312834928Y5142000D01*
X312834928Y4642000D01*
X312851992Y4468746D01*
X312902528Y4302150D01*
X312984595Y4148614D01*
X313095038Y4014038D01*
X313205134Y3923685D01*
X311432748Y2151299D01*
X311403750Y2127501D01*
X311379952Y2098503D01*
X311379951Y2098502D01*
X311308776Y2011776D01*
X311238204Y1879746D01*
X311194748Y1736485D01*
X311180074Y1587500D01*
X311183751Y1550168D01*
X311183751Y1303732D01*
X311143750Y1254991D01*
X311075466Y1338195D01*
X311068115Y1412836D01*
X311026087Y1551384D01*
X310957837Y1679071D01*
X310903750Y1744975D01*
X310903750Y3564520D01*
X311130124Y3790894D01*
X311627502Y3790894D01*
X311800756Y3807958D01*
X311967352Y3858494D01*
X312120887Y3940561D01*
X312255462Y4051004D01*
X312365905Y4185579D01*
X312447972Y4339114D01*
X312498508Y4505710D01*
X312515572Y4678964D01*
X312515572Y5203968D01*
X312498508Y5377222D01*
X312447972Y5543818D01*
X312365905Y5697353D01*
X312255462Y5831928D01*
X312228609Y5853966D01*
X312255462Y5876004D01*
X312365905Y6010579D01*
X312447972Y6164114D01*
X312498508Y6330710D01*
X312515572Y6503964D01*
X312515572Y7028968D01*
X312498508Y7202222D01*
X312471275Y7292000D01*
X312834928Y7292000D01*
X312838000Y7077750D01*
X312996750Y6919000D01*
X314071000Y6919000D01*
X314071000Y7768250D01*
X314325000Y7768250D01*
X314325000Y6919000D01*
X316230000Y6919000D01*
X316230000Y7768250D01*
X316484000Y7768250D01*
X316484000Y6919000D01*
X317558250Y6919000D01*
X317717000Y7077750D01*
X317720072Y7292000D01*
X317707812Y7416482D01*
X317671502Y7536180D01*
X317612537Y7646494D01*
X317533185Y7743185D01*
X317436494Y7822537D01*
X317326180Y7881502D01*
X317206482Y7917812D01*
X317082000Y7930072D01*
X316642750Y7927000D01*
X316484000Y7768250D01*
X316230000Y7768250D01*
X316071250Y7927000D01*
X315632000Y7930072D01*
X315507518Y7917812D01*
X315387820Y7881502D01*
X315277506Y7822537D01*
X315277500Y7822532D01*
X315277494Y7822537D01*
X315167180Y7881502D01*
X315047482Y7917812D01*
X314923000Y7930072D01*
X314483750Y7927000D01*
X314325000Y7768250D01*
X314071000Y7768250D01*
X313912250Y7927000D01*
X313473000Y7930072D01*
X313348518Y7917812D01*
X313228820Y7881502D01*
X313118506Y7822537D01*
X313021815Y7743185D01*
X312942463Y7646494D01*
X312883498Y7536180D01*
X312847188Y7416482D01*
X312834928Y7292000D01*
X312471275Y7292000D01*
X312447972Y7368818D01*
X312365905Y7522353D01*
X312255462Y7656928D01*
X312120887Y7767371D01*
X311967352Y7849438D01*
X311800756Y7899974D01*
X311627502Y7917038D01*
X311131739Y7917038D01*
X310903750Y8145611D01*
X310903750Y9428814D01*
X311048103Y9573678D01*
X311295250Y9573678D01*
X311419732Y9585938D01*
X311539430Y9622248D01*
X311649744Y9681213D01*
X311746435Y9760565D01*
X311825787Y9857256D01*
X311884752Y9967570D01*
X311921062Y10087268D01*
X311933322Y10211750D01*
X311933322Y10811750D01*
X311921062Y10936232D01*
X311884752Y11055930D01*
X311825787Y11166244D01*
X311747408Y11261750D01*
X311825787Y11357256D01*
X311884752Y11467570D01*
X311921062Y11587268D01*
X311933322Y11711750D01*
X311930250Y11926000D01*
X311771500Y12084750D01*
X311072250Y12084750D01*
X311072250Y12064750D01*
X310903750Y12064750D01*
X310903750Y13188000D01*
X311072250Y13188000D01*
X311072250Y12338750D01*
X311771500Y12338750D01*
X311930250Y12497500D01*
X311933322Y12711750D01*
X311921062Y12836232D01*
X311884752Y12955930D01*
X311825787Y13066244D01*
X311746435Y13162935D01*
X311649744Y13242287D01*
X311539430Y13301252D01*
X311520482Y13307000D01*
X315812678Y13307000D01*
X315824938Y13182518D01*
X315861248Y13062820D01*
X315920213Y12952506D01*
X315999565Y12855815D01*
X316096256Y12776463D01*
X316206570Y12717498D01*
X316326268Y12681188D01*
X316450750Y12668928D01*
X316865000Y12672000D01*
X317023750Y12830750D01*
X317023750Y13692500D01*
X315974500Y13692500D01*
X315815750Y13533750D01*
X315812678Y13307000D01*
X311520482Y13307000D01*
X311419732Y13337562D01*
X311295250Y13349822D01*
X311231000Y13346750D01*
X311072250Y13188000D01*
X310903750Y13188000D01*
X310903750Y13348054D01*
X311184390Y13628694D01*
X311212436Y13651710D01*
X311304285Y13763628D01*
X311372535Y13891315D01*
X311394829Y13964809D01*
X311440198Y13969277D01*
X311540198Y13959428D01*
X311840198Y13959428D01*
X311964680Y13971688D01*
X311965198Y13971845D01*
X311965716Y13971688D01*
X312090198Y13959428D01*
X312690198Y13959428D01*
X312790198Y13969277D01*
X312890198Y13959428D01*
X312904448Y13962500D01*
X312967823Y14025875D01*
X313044692Y14066963D01*
X313141383Y14146315D01*
X313220735Y14243006D01*
X313279700Y14353320D01*
X313316010Y14473018D01*
X313317198Y14485080D01*
X313317198Y14121250D01*
X313475948Y13962500D01*
X313490198Y13959428D01*
X313614680Y13971688D01*
X313734378Y14007998D01*
X313844692Y14066963D01*
X313941383Y14146315D01*
X314020735Y14243006D01*
X314079700Y14353320D01*
X314116010Y14473018D01*
X314128270Y14597500D01*
X314127445Y14715396D01*
X314133198Y14719546D01*
X314133198Y16110500D01*
X314387198Y16110500D01*
X314387198Y14719546D01*
X314562072Y14593381D01*
X314785174Y14673224D01*
X314972962Y14795131D01*
X315133359Y14951331D01*
X315260201Y15135822D01*
X315348613Y15341513D01*
X315395198Y15560500D01*
X315395198Y16110500D01*
X314387198Y16110500D01*
X314133198Y16110500D01*
X314122065Y16110500D01*
X314116010Y16171982D01*
X314113198Y16181252D01*
X314113198Y16364500D01*
X314133198Y16364500D01*
X314133198Y17755454D01*
X314387198Y17755454D01*
X314387198Y16364500D01*
X315395198Y16364500D01*
X315395198Y16914500D01*
X315348613Y17133487D01*
X315260201Y17339178D01*
X315133359Y17523669D01*
X314972962Y17679869D01*
X314785174Y17801776D01*
X314562072Y17881619D01*
X314387198Y17755454D01*
X314133198Y17755454D01*
X313958324Y17881619D01*
X313735222Y17801776D01*
X313547434Y17679869D01*
X313403082Y17539294D01*
X313284929Y17618241D01*
X313110220Y17690608D01*
X312924750Y17727500D01*
X312735646Y17727500D01*
X312629500Y17706386D01*
X312629500Y17881939D01*
X312589726Y18081898D01*
X312511705Y18270256D01*
X312398437Y18439774D01*
X312254274Y18583937D01*
X312084756Y18697205D01*
X311896398Y18775226D01*
X311696439Y18815000D01*
X311560750Y18815000D01*
X311560750Y19846449D01*
X312004801Y20290500D01*
X313125198Y20290500D01*
X313125198Y19990500D01*
X313171783Y19771513D01*
X313260195Y19565822D01*
X313387037Y19381331D01*
X313547434Y19225131D01*
X313735222Y19103224D01*
X313958324Y19023381D01*
X314133198Y19149546D01*
X314133198Y20290500D01*
X314387198Y20290500D01*
X314387198Y19149546D01*
X314562072Y19023381D01*
X314785174Y19103224D01*
X314972962Y19225131D01*
X315133359Y19381331D01*
X315260201Y19565822D01*
X315348613Y19771513D01*
X315395198Y19990500D01*
X315395198Y20290500D01*
X314387198Y20290500D01*
X314133198Y20290500D01*
X313125198Y20290500D01*
X312004801Y20290500D01*
X312703052Y20988750D01*
X313155884Y20988750D01*
X313125198Y20844500D01*
G37*
%TD.AperFunction*%
%TD*%
M02*
