%TF.GenerationSoftware,KiCad,Pcbnew,5.1.9*%
%TF.CreationDate,2022-11-22T14:36:07-05:00*%
%TF.ProjectId,EKS1000-V4,454b5331-3030-4302-9d56-342e6b696361,rev?*%
%TF.SameCoordinates,Original*%
%TF.FileFunction,Copper,L1,Top*%
%TF.FilePolarity,Positive*%
%FSLAX46Y46*%
G04 Gerber Fmt 4.6, Leading zero omitted, Abs format (unit mm)*
G04 Created by KiCad (PCBNEW 5.1.9) date 2022-11-22 14:36:07*
%MOMM*%
%LPD*%
G01*
G04 APERTURE LIST*
%TA.AperFunction,ComponentPad*%
%ADD10C,2.250000*%
%TD*%
%TA.AperFunction,ComponentPad*%
%ADD11O,1.000000X1.600000*%
%TD*%
%TA.AperFunction,ComponentPad*%
%ADD12O,1.000000X2.100000*%
%TD*%
%TA.AperFunction,ComponentPad*%
%ADD13R,1.905000X1.905000*%
%TD*%
%TA.AperFunction,ComponentPad*%
%ADD14C,1.905000*%
%TD*%
%TA.AperFunction,ViaPad*%
%ADD15C,0.800000*%
%TD*%
%TA.AperFunction,Conductor*%
%ADD16C,0.381000*%
%TD*%
%TA.AperFunction,Conductor*%
%ADD17C,0.250000*%
%TD*%
G04 APERTURE END LIST*
D10*
%TO.P,MX78,2*%
%TO.N,Net-(D78-Pad2)*%
X326390000Y-23495000D03*
%TO.P,MX78,1*%
%TO.N,COL8*%
X320040000Y-26035000D03*
%TD*%
D11*
%TO.P,J1,S1*%
%TO.N,GND*%
X314260198Y20417500D03*
X305620198Y20417500D03*
D12*
X305620198Y16237500D03*
X314260198Y16237500D03*
%TD*%
D13*
%TO.P,MX4,4*%
%TO.N,CAPSGND*%
X21748750Y-65405000D03*
D14*
%TO.P,MX4,3*%
%TO.N,CAPSLED*%
X21748750Y-67945000D03*
D10*
%TO.P,MX4,1*%
%TO.N,COL0*%
X14128750Y-70485000D03*
%TO.P,MX4,2*%
%TO.N,Net-(D4-Pad2)*%
X11588750Y-64135000D03*
%TD*%
%TO.P,MX73,2*%
%TO.N,Net-(D73-Pad2)*%
X288290000Y-42545000D03*
%TO.P,MX73,1*%
%TO.N,COL7*%
X281940000Y-45085000D03*
%TD*%
%TO.P,MX70,1*%
%TO.N,COL6*%
X262890000Y-54610000D03*
%TO.P,MX70,2*%
%TO.N,Net-(D70-Pad2)*%
X269240000Y-52070000D03*
%TD*%
%TO.P,MX41,2*%
%TO.N,Net-(D41-Pad2)*%
X159702500Y-61595000D03*
%TO.P,MX41,1*%
%TO.N,COL3*%
X153352500Y-64135000D03*
%TD*%
%TO.P,MX6,2*%
%TO.N,Net-(D6-Pad2)*%
X38258750Y-99695000D03*
%TO.P,MX6,1*%
%TO.N,COL0*%
X31908750Y-102235000D03*
%TD*%
%TO.P,R8,2*%
%TO.N,CAPSGND*%
%TA.AperFunction,SMDPad,CuDef*%
G36*
G01*
X21266998Y-57550000D02*
X22167002Y-57550000D01*
G75*
G02*
X22417000Y-57799998I0J-249998D01*
G01*
X22417000Y-58325002D01*
G75*
G02*
X22167002Y-58575000I-249998J0D01*
G01*
X21266998Y-58575000D01*
G75*
G02*
X21017000Y-58325002I0J249998D01*
G01*
X21017000Y-57799998D01*
G75*
G02*
X21266998Y-57550000I249998J0D01*
G01*
G37*
%TD.AperFunction*%
%TO.P,R8,1*%
%TO.N,GND*%
%TA.AperFunction,SMDPad,CuDef*%
G36*
G01*
X21266998Y-55725000D02*
X22167002Y-55725000D01*
G75*
G02*
X22417000Y-55974998I0J-249998D01*
G01*
X22417000Y-56500002D01*
G75*
G02*
X22167002Y-56750000I-249998J0D01*
G01*
X21266998Y-56750000D01*
G75*
G02*
X21017000Y-56500002I0J249998D01*
G01*
X21017000Y-55974998D01*
G75*
G02*
X21266998Y-55725000I249998J0D01*
G01*
G37*
%TD.AperFunction*%
%TD*%
%TO.P,MX90,2*%
%TO.N,Net-(D90-Pad2)*%
X354965000Y-99695000D03*
%TO.P,MX90,1*%
%TO.N,COL9*%
X348615000Y-102235000D03*
%TD*%
%TO.P,MX89,2*%
%TO.N,Net-(D89-Pad2)*%
X364490000Y-80645000D03*
%TO.P,MX89,1*%
%TO.N,COL9*%
X358140000Y-83185000D03*
%TD*%
%TO.P,MX88,2*%
%TO.N,Net-(D88-Pad2)*%
X364490000Y-61595000D03*
%TO.P,MX88,1*%
%TO.N,COL9*%
X358140000Y-64135000D03*
%TD*%
%TO.P,MX87,2*%
%TO.N,Net-(D87-Pad2)*%
X364490000Y-42545000D03*
%TO.P,MX87,1*%
%TO.N,COL9*%
X358140000Y-45085000D03*
%TD*%
%TO.P,MX86,2*%
%TO.N,Net-(D86-Pad2)*%
X364490000Y-23495000D03*
%TO.P,MX86,1*%
%TO.N,COL9*%
X358140000Y-26035000D03*
%TD*%
%TO.P,MX85,2*%
%TO.N,Net-(D85-Pad2)*%
X345440000Y-61595000D03*
%TO.P,MX85,1*%
%TO.N,COL8*%
X339090000Y-64135000D03*
%TD*%
%TO.P,MX84,2*%
%TO.N,Net-(D84-Pad2)*%
X345440000Y-42545000D03*
%TO.P,MX84,1*%
%TO.N,COL8*%
X339090000Y-45085000D03*
%TD*%
%TO.P,MX83,2*%
%TO.N,Net-(D83-Pad2)*%
X345440000Y-23495000D03*
%TO.P,MX83,1*%
%TO.N,COL8*%
X339090000Y-26035000D03*
%TD*%
%TO.P,MX82,2*%
%TO.N,Net-(D82-Pad2)*%
X326390000Y-99695000D03*
%TO.P,MX82,1*%
%TO.N,COL8*%
X320040000Y-102235000D03*
%TD*%
%TO.P,MX81,2*%
%TO.N,Net-(D81-Pad2)*%
X335915000Y-80645000D03*
%TO.P,MX81,1*%
%TO.N,COL8*%
X329565000Y-83185000D03*
%TD*%
%TO.P,MX80,2*%
%TO.N,Net-(D80-Pad2)*%
X326390000Y-61595000D03*
%TO.P,MX80,1*%
%TO.N,COL8*%
X320040000Y-64135000D03*
%TD*%
%TO.P,MX79,2*%
%TO.N,Net-(D79-Pad2)*%
X326390000Y-42545000D03*
%TO.P,MX79,1*%
%TO.N,COL8*%
X320040000Y-45085000D03*
%TD*%
%TO.P,MX77,2*%
%TO.N,Net-(D77-Pad2)*%
X288290000Y-99695000D03*
%TO.P,MX77,1*%
%TO.N,COL7*%
X281940000Y-102235000D03*
%TD*%
%TO.P,MX76,2*%
%TO.N,Net-(D76-Pad2)*%
X297815000Y-80645000D03*
%TO.P,MX76,1*%
%TO.N,COL7*%
X291465000Y-83185000D03*
%TD*%
%TO.P,MX75,2*%
%TO.N,Net-(D75-Pad2)*%
X278765000Y-80645000D03*
%TO.P,MX75,1*%
%TO.N,COL6*%
X272415000Y-83185000D03*
%TD*%
%TO.P,MX74,2*%
%TO.N,Net-(D74-Pad2)*%
X288290000Y-61595000D03*
%TO.P,MX74,1*%
%TO.N,COL7*%
X281940000Y-64135000D03*
%TD*%
%TO.P,MX59,2*%
%TO.N,Net-(D59-Pad2)*%
X243046250Y-99695000D03*
%TO.P,MX59,1*%
%TO.N,COL5*%
X236696250Y-102235000D03*
%TD*%
%TO.P,MX64,2*%
%TO.N,Net-(D64-Pad2)*%
X252571250Y-80645000D03*
%TO.P,MX64,1*%
%TO.N,COL5*%
X246221250Y-83185000D03*
%TD*%
%TO.P,MX72,2*%
%TO.N,Net-(D72-Pad2)*%
X283527500Y-23495000D03*
%TO.P,MX72,1*%
%TO.N,COL7*%
X277177500Y-26035000D03*
%TD*%
%TO.P,MX71,2*%
%TO.N,Net-(D71-Pad2)*%
X288290000Y-4445000D03*
%TO.P,MX71,1*%
%TO.N,COL7*%
X281940000Y-6985000D03*
%TD*%
%TO.P,MX53,2*%
%TO.N,Net-(D53-Pad2)*%
X219233750Y-99695000D03*
%TO.P,MX53,1*%
%TO.N,COL4*%
X212883750Y-102235000D03*
%TD*%
%TO.P,MX58,2*%
%TO.N,Net-(D58-Pad2)*%
X226377500Y-80645000D03*
%TO.P,MX58,1*%
%TO.N,COL5*%
X220027500Y-83185000D03*
%TD*%
%TO.P,MX63,2*%
%TO.N,Net-(D63-Pad2)*%
X235902500Y-61595000D03*
%TO.P,MX63,1*%
%TO.N,COL5*%
X229552500Y-64135000D03*
%TD*%
%TO.P,MX67,2*%
%TO.N,Net-(D67-Pad2)*%
X250190000Y-42545000D03*
%TO.P,MX67,1*%
%TO.N,COL6*%
X243840000Y-45085000D03*
%TD*%
%TO.P,MX69,2*%
%TO.N,Net-(D69-Pad2)*%
X259715000Y-23495000D03*
%TO.P,MX69,1*%
%TO.N,COL6*%
X253365000Y-26035000D03*
%TD*%
%TO.P,MX68,2*%
%TO.N,Net-(D68-Pad2)*%
X259715000Y-4445000D03*
%TO.P,MX68,1*%
%TO.N,COL6*%
X253365000Y-6985000D03*
%TD*%
%TO.P,MX52,2*%
%TO.N,Net-(D52-Pad2)*%
X207327500Y-80645000D03*
%TO.P,MX52,1*%
%TO.N,COL4*%
X200977500Y-83185000D03*
%TD*%
%TO.P,MX57,2*%
%TO.N,Net-(D57-Pad2)*%
X216852500Y-61595000D03*
%TO.P,MX57,1*%
%TO.N,COL5*%
X210502500Y-64135000D03*
%TD*%
%TO.P,MX62,2*%
%TO.N,Net-(D62-Pad2)*%
X231140000Y-42545000D03*
%TO.P,MX62,1*%
%TO.N,COL5*%
X224790000Y-45085000D03*
%TD*%
%TO.P,MX66,2*%
%TO.N,Net-(D66-Pad2)*%
X240665000Y-23495000D03*
%TO.P,MX66,1*%
%TO.N,COL6*%
X234315000Y-26035000D03*
%TD*%
%TO.P,MX65,2*%
%TO.N,Net-(D65-Pad2)*%
X240665000Y-4445000D03*
%TO.P,MX65,1*%
%TO.N,COL6*%
X234315000Y-6985000D03*
%TD*%
%TO.P,MX47,2*%
%TO.N,Net-(D47-Pad2)*%
X188277500Y-80645000D03*
%TO.P,MX47,1*%
%TO.N,COL4*%
X181927500Y-83185000D03*
%TD*%
%TO.P,MX51,2*%
%TO.N,Net-(D51-Pad2)*%
X197802500Y-61595000D03*
%TO.P,MX51,1*%
%TO.N,COL4*%
X191452500Y-64135000D03*
%TD*%
%TO.P,MX56,2*%
%TO.N,Net-(D56-Pad2)*%
X212090000Y-42545000D03*
%TO.P,MX56,1*%
%TO.N,COL5*%
X205740000Y-45085000D03*
%TD*%
%TO.P,MX61,2*%
%TO.N,Net-(D61-Pad2)*%
X221615000Y-23495000D03*
%TO.P,MX61,1*%
%TO.N,COL5*%
X215265000Y-26035000D03*
%TD*%
%TO.P,MX60,2*%
%TO.N,Net-(D60-Pad2)*%
X221615000Y-4445000D03*
%TO.P,MX60,1*%
%TO.N,COL5*%
X215265000Y-6985000D03*
%TD*%
%TO.P,MX42,2*%
%TO.N,Net-(D42-Pad2)*%
X169227500Y-80645000D03*
%TO.P,MX42,1*%
%TO.N,COL3*%
X162877500Y-83185000D03*
%TD*%
%TO.P,MX46,2*%
%TO.N,Net-(D46-Pad2)*%
X178752500Y-61595000D03*
%TO.P,MX46,1*%
%TO.N,COL4*%
X172402500Y-64135000D03*
%TD*%
%TO.P,MX50,2*%
%TO.N,Net-(D50-Pad2)*%
X193040000Y-42545000D03*
%TO.P,MX50,1*%
%TO.N,COL4*%
X186690000Y-45085000D03*
%TD*%
%TO.P,MX55,2*%
%TO.N,Net-(D55-Pad2)*%
X202565000Y-23495000D03*
%TO.P,MX55,1*%
%TO.N,COL5*%
X196215000Y-26035000D03*
%TD*%
%TO.P,MX54,2*%
%TO.N,Net-(D54-Pad2)*%
X202565000Y-4445000D03*
%TO.P,MX54,1*%
%TO.N,COL5*%
X196215000Y-6985000D03*
%TD*%
%TO.P,MX45,2*%
%TO.N,Net-(D45-Pad2)*%
X173990000Y-42545000D03*
%TO.P,MX45,1*%
%TO.N,COL4*%
X167640000Y-45085000D03*
%TD*%
%TO.P,MX49,2*%
%TO.N,Net-(D49-Pad2)*%
X183515000Y-23495000D03*
%TO.P,MX49,1*%
%TO.N,COL4*%
X177165000Y-26035000D03*
%TD*%
%TO.P,MX48,2*%
%TO.N,Net-(D48-Pad2)*%
X183515000Y-4445000D03*
%TO.P,MX48,1*%
%TO.N,COL4*%
X177165000Y-6985000D03*
%TD*%
%TO.P,MX44,2*%
%TO.N,Net-(D44-Pad2)*%
X164465000Y-23495000D03*
%TO.P,MX44,1*%
%TO.N,COL4*%
X158115000Y-26035000D03*
%TD*%
%TO.P,MX43,2*%
%TO.N,Net-(D43-Pad2)*%
X164465000Y-4445000D03*
%TO.P,MX43,1*%
%TO.N,COL4*%
X158115000Y-6985000D03*
%TD*%
%TO.P,MX40,2*%
%TO.N,Net-(D40-Pad2)*%
X154940000Y-42545000D03*
%TO.P,MX40,1*%
%TO.N,COL3*%
X148590000Y-45085000D03*
%TD*%
%TO.P,MX39,2*%
%TO.N,Net-(D39-Pad2)*%
X145415000Y-23495000D03*
%TO.P,MX39,1*%
%TO.N,COL3*%
X139065000Y-26035000D03*
%TD*%
%TO.P,MX38,2*%
%TO.N,Net-(D38-Pad2)*%
X135890000Y-4445000D03*
%TO.P,MX38,1*%
%TO.N,COL3*%
X129540000Y-6985000D03*
%TD*%
%TO.P,MX37,2*%
%TO.N,Net-(D37-Pad2)*%
X150177500Y-80645000D03*
%TO.P,MX37,1*%
%TO.N,COL3*%
X143827500Y-83185000D03*
%TD*%
%TO.P,MX36,2*%
%TO.N,Net-(D36-Pad2)*%
X140652500Y-61595000D03*
%TO.P,MX36,1*%
%TO.N,COL3*%
X134302500Y-64135000D03*
%TD*%
%TO.P,MX35,2*%
%TO.N,Net-(D35-Pad2)*%
X135890000Y-42545000D03*
%TO.P,MX35,1*%
%TO.N,COL3*%
X129540000Y-45085000D03*
%TD*%
%TO.P,MX34,2*%
%TO.N,Net-(D34-Pad2)*%
X126365000Y-23495000D03*
%TO.P,MX34,1*%
%TO.N,COL3*%
X120015000Y-26035000D03*
%TD*%
%TO.P,MX33,2*%
%TO.N,Net-(D33-Pad2)*%
X116840000Y-4445000D03*
%TO.P,MX33,1*%
%TO.N,COL3*%
X110490000Y-6985000D03*
%TD*%
%TO.P,MX32,2*%
%TO.N,Net-(D32-Pad2)*%
X140652500Y-99695000D03*
%TO.P,MX32,1*%
%TO.N,COL3*%
X134302500Y-102235000D03*
%TD*%
%TO.P,MX31,2*%
%TO.N,Net-(D31-Pad2)*%
X131127500Y-80645000D03*
%TO.P,MX31,1*%
%TO.N,COL2*%
X124777500Y-83185000D03*
%TD*%
%TO.P,MX30,2*%
%TO.N,Net-(D30-Pad2)*%
X121602500Y-61595000D03*
%TO.P,MX30,1*%
%TO.N,COL2*%
X115252500Y-64135000D03*
%TD*%
%TO.P,MX29,2*%
%TO.N,Net-(D29-Pad2)*%
X116840000Y-42545000D03*
%TO.P,MX29,1*%
%TO.N,COL2*%
X110490000Y-45085000D03*
%TD*%
%TO.P,MX28,2*%
%TO.N,Net-(D28-Pad2)*%
X107315000Y-23495000D03*
%TO.P,MX28,1*%
%TO.N,COL2*%
X100965000Y-26035000D03*
%TD*%
%TO.P,MX27,2*%
%TO.N,Net-(D27-Pad2)*%
X97790000Y-4445000D03*
%TO.P,MX27,1*%
%TO.N,COL2*%
X91440000Y-6985000D03*
%TD*%
%TO.P,MX26,2*%
%TO.N,Net-(D26-Pad2)*%
X112077500Y-80645000D03*
%TO.P,MX26,1*%
%TO.N,COL2*%
X105727500Y-83185000D03*
%TD*%
%TO.P,MX25,2*%
%TO.N,Net-(D25-Pad2)*%
X102552500Y-61595000D03*
%TO.P,MX25,1*%
%TO.N,COL2*%
X96202500Y-64135000D03*
%TD*%
%TO.P,MX24,2*%
%TO.N,Net-(D24-Pad2)*%
X97790000Y-42545000D03*
%TO.P,MX24,1*%
%TO.N,COL2*%
X91440000Y-45085000D03*
%TD*%
%TO.P,MX23,2*%
%TO.N,Net-(D23-Pad2)*%
X88265000Y-23495000D03*
%TO.P,MX23,1*%
%TO.N,COL2*%
X81915000Y-26035000D03*
%TD*%
%TO.P,MX22,2*%
%TO.N,Net-(D22-Pad2)*%
X78740000Y-4445000D03*
%TO.P,MX22,1*%
%TO.N,COL2*%
X72390000Y-6985000D03*
%TD*%
%TO.P,MX21,2*%
%TO.N,Net-(D21-Pad2)*%
X93027500Y-80645000D03*
%TO.P,MX21,1*%
%TO.N,COL1*%
X86677500Y-83185000D03*
%TD*%
%TO.P,MX20,2*%
%TO.N,Net-(D20-Pad2)*%
X83502500Y-61595000D03*
%TO.P,MX20,1*%
%TO.N,COL1*%
X77152500Y-64135000D03*
%TD*%
%TO.P,MX19,2*%
%TO.N,Net-(D19-Pad2)*%
X78740000Y-42545000D03*
%TO.P,MX19,1*%
%TO.N,COL1*%
X72390000Y-45085000D03*
%TD*%
%TO.P,MX18,2*%
%TO.N,Net-(D18-Pad2)*%
X69215000Y-23495000D03*
%TO.P,MX18,1*%
%TO.N,COL1*%
X62865000Y-26035000D03*
%TD*%
%TO.P,MX17,2*%
%TO.N,Net-(D17-Pad2)*%
X59690000Y-4445000D03*
%TO.P,MX17,1*%
%TO.N,COL1*%
X53340000Y-6985000D03*
%TD*%
%TO.P,MX16,2*%
%TO.N,Net-(D16-Pad2)*%
X73977500Y-80645000D03*
%TO.P,MX16,1*%
%TO.N,COL1*%
X67627500Y-83185000D03*
%TD*%
%TO.P,MX15,2*%
%TO.N,Net-(D15-Pad2)*%
X64452500Y-61595000D03*
%TO.P,MX15,1*%
%TO.N,COL1*%
X58102500Y-64135000D03*
%TD*%
%TO.P,MX14,2*%
%TO.N,Net-(D14-Pad2)*%
X59690000Y-42545000D03*
%TO.P,MX14,1*%
%TO.N,COL1*%
X53340000Y-45085000D03*
%TD*%
%TO.P,MX13,2*%
%TO.N,Net-(D13-Pad2)*%
X50165000Y-23495000D03*
%TO.P,MX13,1*%
%TO.N,COL1*%
X43815000Y-26035000D03*
%TD*%
%TO.P,MX12,2*%
%TO.N,Net-(D12-Pad2)*%
X40640000Y-4445000D03*
%TO.P,MX12,1*%
%TO.N,COL1*%
X34290000Y-6985000D03*
%TD*%
%TO.P,MX11,2*%
%TO.N,Net-(D11-Pad2)*%
X62071250Y-99695000D03*
%TO.P,MX11,1*%
%TO.N,COL1*%
X55721250Y-102235000D03*
%TD*%
%TO.P,MX10,2*%
%TO.N,Net-(D10-Pad2)*%
X54927500Y-80645000D03*
%TO.P,MX10,1*%
%TO.N,COL0*%
X48577500Y-83185000D03*
%TD*%
%TO.P,MX9,2*%
%TO.N,Net-(D9-Pad2)*%
X45402500Y-61595000D03*
%TO.P,MX9,1*%
%TO.N,COL0*%
X39052500Y-64135000D03*
%TD*%
%TO.P,MX8,2*%
%TO.N,Net-(D8-Pad2)*%
X40640000Y-42545000D03*
%TO.P,MX8,1*%
%TO.N,COL0*%
X34290000Y-45085000D03*
%TD*%
%TO.P,MX7,2*%
%TO.N,Net-(D7-Pad2)*%
X31115000Y-23495000D03*
%TO.P,MX7,1*%
%TO.N,COL0*%
X24765000Y-26035000D03*
%TD*%
%TO.P,MX5,2*%
%TO.N,Net-(D5-Pad2)*%
X23971250Y-80645000D03*
%TO.P,MX5,1*%
%TO.N,COL0*%
X17621250Y-83185000D03*
%TD*%
%TO.P,MX3,2*%
%TO.N,Net-(D3-Pad2)*%
X16827500Y-42545000D03*
%TO.P,MX3,1*%
%TO.N,COL0*%
X10477500Y-45085000D03*
%TD*%
%TO.P,MX2,2*%
%TO.N,Net-(D2-Pad2)*%
X12065000Y-23495000D03*
%TO.P,MX2,1*%
%TO.N,COL0*%
X5715000Y-26035000D03*
%TD*%
%TO.P,MX1,2*%
%TO.N,Net-(D1-Pad2)*%
X12065000Y-4445000D03*
%TO.P,MX1,1*%
%TO.N,COL0*%
X5715000Y-6985000D03*
%TD*%
D15*
%TO.N,GND*%
X40481250Y3968750D03*
%TO.N,+5V*%
X329406250Y4762500D03*
X323850000Y-1587500D03*
X303212500Y1587500D03*
X303212500Y-12700000D03*
X314325000Y-16668750D03*
%TO.N,ROW4*%
X308768750Y-48418750D03*
X308768750Y-27781250D03*
%TO.N,ROW6*%
X310356250Y-65881250D03*
X310356250Y-27781250D03*
%TO.N,ROW3*%
X307975000Y-31750000D03*
X307975000Y-28575000D03*
%TO.N,ROW5*%
X309562500Y-50800000D03*
X309562500Y-28575000D03*
%TO.N,VCC*%
X308419500Y17780000D03*
X311594500Y17780000D03*
%TO.N,COL0*%
X41275000Y3175000D03*
%TO.N,CAPSLED*%
X311943750Y-70643750D03*
X311943750Y-27781250D03*
%TO.N,ROW8*%
X312737500Y-84931250D03*
X312737500Y-28575000D03*
%TO.N,ROW10*%
X314325000Y-105568750D03*
X314325000Y-28575000D03*
%TO.N,ROW7*%
X311150000Y-68262500D03*
X311150000Y-28575000D03*
%TO.N,ROW9*%
X313531250Y-87312500D03*
X313531250Y-27781250D03*
%TD*%
D16*
%TO.N,GND*%
X305620198Y20417500D02*
X314260198Y20417500D01*
X21717000Y-56237500D02*
X21717000Y-14795500D01*
X21717000Y-14795500D02*
X40481250Y3968750D01*
%TO.N,+5V*%
X303212500Y-12700000D02*
X300831250Y-10318750D01*
X300831250Y-793750D02*
X300831250Y-10318750D01*
X300831250Y-793750D02*
X303212500Y1587500D01*
X314325000Y-16668750D02*
X307181250Y-16668750D01*
X303212500Y-12700000D02*
X307181250Y-16668750D01*
X330993750Y3175000D02*
X329406250Y4762500D01*
X330993750Y-3175000D02*
X330993750Y3175000D01*
X329406250Y-1587500D02*
X330993750Y-3175000D01*
X323850000Y-1587500D02*
X329406250Y-1587500D01*
X330993750Y-8731250D02*
X323056250Y-16668750D01*
X314325000Y-16668750D02*
X323056250Y-16668750D01*
X330993750Y-8731250D02*
X330993750Y-3175000D01*
D17*
%TO.N,ROW4*%
X308768750Y-48418750D02*
X308768750Y-27781250D01*
%TO.N,ROW6*%
X310356250Y-65881250D02*
X310356250Y-27781250D01*
%TO.N,ROW3*%
X307975000Y-31750000D02*
X307975000Y-28575000D01*
%TO.N,ROW5*%
X309562500Y-50800000D02*
X309562500Y-28575000D01*
D16*
%TO.N,VCC*%
X308419500Y17780000D02*
X311594500Y17780000D01*
D17*
%TO.N,COL0*%
X5715000Y-6985000D02*
X5715000Y-7302500D01*
X5715000Y-7302500D02*
X6350000Y-7937500D01*
X6350000Y-25400000D02*
X5715000Y-26035000D01*
X6350000Y-7937500D02*
X6350000Y-25400000D01*
X5715000Y-26035000D02*
X5715000Y-26352500D01*
X5715000Y-26352500D02*
X6350000Y-26987500D01*
X6350000Y-40957500D02*
X10477500Y-45085000D01*
X6350000Y-26987500D02*
X6350000Y-40957500D01*
X10477500Y-45085000D02*
X10477500Y-45402500D01*
X10477500Y-45402500D02*
X11112500Y-46037500D01*
X17621250Y-83185000D02*
X17621250Y-83502500D01*
X17621250Y-83502500D02*
X18256250Y-84137500D01*
X18256250Y-88582500D02*
X31908750Y-102235000D01*
X18256250Y-84137500D02*
X18256250Y-88582500D01*
X24765000Y-26035000D02*
X24765000Y-26352500D01*
X24765000Y-26352500D02*
X25400000Y-26987500D01*
X25400000Y-36195000D02*
X34290000Y-45085000D01*
X25400000Y-26987500D02*
X25400000Y-36195000D01*
X34290000Y-45085000D02*
X34290000Y-45402500D01*
X34290000Y-45402500D02*
X34925000Y-46037500D01*
X34925000Y-60007500D02*
X39052500Y-64135000D01*
X34925000Y-46037500D02*
X34925000Y-60007500D01*
X39052500Y-64135000D02*
X39052500Y-64452500D01*
X39052500Y-64452500D02*
X39687500Y-65087500D01*
X39687500Y-74295000D02*
X48577500Y-83185000D01*
X39687500Y-65087500D02*
X39687500Y-74295000D01*
X11112500Y-46037500D02*
X11112500Y-60325000D01*
X11112500Y-60325000D02*
X13493750Y-62706250D01*
X13493750Y-69850000D02*
X14128750Y-70485000D01*
X13493750Y-62706250D02*
X13493750Y-69850000D01*
X15081250Y-80645000D02*
X17621250Y-83185000D01*
X15081250Y-71437500D02*
X15081250Y-80645000D01*
X14128750Y-70485000D02*
X15081250Y-71437500D01*
X24765000Y-26035000D02*
X25400000Y-25400000D01*
X25400000Y-25400000D02*
X25400000Y-12700000D01*
X41275000Y3175000D02*
X25400000Y-12700000D01*
D16*
%TO.N,CAPSGND*%
X21748750Y-58094250D02*
X21717000Y-58062500D01*
X21748750Y-65405000D02*
X21748750Y-58094250D01*
D17*
%TO.N,CAPSLED*%
X311943750Y-70643750D02*
X311943750Y-27781250D01*
%TO.N,COL1*%
X34290000Y-6985000D02*
X34290000Y-7302500D01*
X34290000Y-7302500D02*
X34925000Y-7937500D01*
X34925000Y-17145000D02*
X43815000Y-26035000D01*
X34925000Y-7937500D02*
X34925000Y-17145000D01*
X53340000Y-6985000D02*
X53340000Y-7302500D01*
X53340000Y-7302500D02*
X53975000Y-7937500D01*
X53975000Y-17145000D02*
X62865000Y-26035000D01*
X53975000Y-7937500D02*
X53975000Y-17145000D01*
X43815000Y-26035000D02*
X43815000Y-26352500D01*
X43815000Y-26352500D02*
X44450000Y-26987500D01*
X44450000Y-36195000D02*
X53340000Y-45085000D01*
X44450000Y-26987500D02*
X44450000Y-36195000D01*
X62865000Y-26035000D02*
X62865000Y-26352500D01*
X62865000Y-26352500D02*
X63500000Y-26987500D01*
X63500000Y-36195000D02*
X72390000Y-45085000D01*
X63500000Y-26987500D02*
X63500000Y-36195000D01*
X53340000Y-45085000D02*
X53340000Y-45402500D01*
X53340000Y-45402500D02*
X53975000Y-46037500D01*
X53975000Y-60007500D02*
X58102500Y-64135000D01*
X53975000Y-46037500D02*
X53975000Y-60007500D01*
X72390000Y-45085000D02*
X72390000Y-45402500D01*
X72390000Y-45402500D02*
X73025000Y-46037500D01*
X73025000Y-60007500D02*
X77152500Y-64135000D01*
X73025000Y-46037500D02*
X73025000Y-60007500D01*
X58102500Y-64135000D02*
X58102500Y-64452500D01*
X58102500Y-64452500D02*
X58737500Y-65087500D01*
X58737500Y-74295000D02*
X67627500Y-83185000D01*
X58737500Y-65087500D02*
X58737500Y-74295000D01*
X77152500Y-64135000D02*
X77152500Y-64452500D01*
X77152500Y-64452500D02*
X77787500Y-65087500D01*
X77787500Y-74295000D02*
X86677500Y-83185000D01*
X77787500Y-65087500D02*
X77787500Y-74295000D01*
X68262500Y-89693750D02*
X55721250Y-102235000D01*
X68262500Y-83820000D02*
X68262500Y-89693750D01*
X67627500Y-83185000D02*
X68262500Y-83820000D01*
%TO.N,COL2*%
X72390000Y-6985000D02*
X72390000Y-7302500D01*
X72390000Y-7302500D02*
X73025000Y-7937500D01*
X73025000Y-17145000D02*
X81915000Y-26035000D01*
X73025000Y-7937500D02*
X73025000Y-17145000D01*
X91440000Y-6985000D02*
X91440000Y-7302500D01*
X91440000Y-7302500D02*
X92075000Y-7937500D01*
X92075000Y-17145000D02*
X100965000Y-26035000D01*
X92075000Y-7937500D02*
X92075000Y-17145000D01*
X81915000Y-26035000D02*
X81915000Y-26352500D01*
X81915000Y-26352500D02*
X82550000Y-26987500D01*
X82550000Y-36195000D02*
X91440000Y-45085000D01*
X82550000Y-26987500D02*
X82550000Y-36195000D01*
X100965000Y-26035000D02*
X100965000Y-26352500D01*
X100965000Y-26352500D02*
X101600000Y-26987500D01*
X101600000Y-36195000D02*
X110490000Y-45085000D01*
X101600000Y-26987500D02*
X101600000Y-36195000D01*
X91440000Y-45085000D02*
X91440000Y-45402500D01*
X91440000Y-45402500D02*
X92075000Y-46037500D01*
X92075000Y-60007500D02*
X96202500Y-64135000D01*
X92075000Y-46037500D02*
X92075000Y-60007500D01*
X110490000Y-45085000D02*
X110490000Y-45402500D01*
X110490000Y-45402500D02*
X111125000Y-46037500D01*
X111125000Y-60007500D02*
X115252500Y-64135000D01*
X111125000Y-46037500D02*
X111125000Y-60007500D01*
X96202500Y-64135000D02*
X96202500Y-64452500D01*
X96202500Y-64452500D02*
X96837500Y-65087500D01*
X96837500Y-74295000D02*
X105727500Y-83185000D01*
X96837500Y-65087500D02*
X96837500Y-74295000D01*
X115252500Y-64135000D02*
X115252500Y-64452500D01*
X115252500Y-64452500D02*
X115887500Y-65087500D01*
X115887500Y-74295000D02*
X124777500Y-83185000D01*
X115887500Y-65087500D02*
X115887500Y-74295000D01*
%TO.N,COL3*%
X110490000Y-6985000D02*
X110490000Y-7302500D01*
X110490000Y-7302500D02*
X111125000Y-7937500D01*
X111125000Y-17145000D02*
X120015000Y-26035000D01*
X111125000Y-7937500D02*
X111125000Y-17145000D01*
X129540000Y-6985000D02*
X129540000Y-7302500D01*
X129540000Y-7302500D02*
X130175000Y-7937500D01*
X130175000Y-17145000D02*
X139065000Y-26035000D01*
X130175000Y-7937500D02*
X130175000Y-17145000D01*
X120015000Y-26035000D02*
X120015000Y-26352500D01*
X120015000Y-26352500D02*
X120650000Y-26987500D01*
X120650000Y-36195000D02*
X129540000Y-45085000D01*
X120650000Y-26987500D02*
X120650000Y-36195000D01*
X139065000Y-26035000D02*
X139065000Y-26352500D01*
X139065000Y-26352500D02*
X139700000Y-26987500D01*
X139700000Y-36195000D02*
X148590000Y-45085000D01*
X139700000Y-26987500D02*
X139700000Y-36195000D01*
X129540000Y-45085000D02*
X129540000Y-45402500D01*
X129540000Y-45402500D02*
X130175000Y-46037500D01*
X130175000Y-60007500D02*
X134302500Y-64135000D01*
X130175000Y-46037500D02*
X130175000Y-60007500D01*
X148590000Y-45085000D02*
X148590000Y-45402500D01*
X148590000Y-45402500D02*
X149225000Y-46037500D01*
X149225000Y-60007500D02*
X153352500Y-64135000D01*
X149225000Y-46037500D02*
X149225000Y-60007500D01*
X134302500Y-64135000D02*
X134302500Y-64452500D01*
X134302500Y-64452500D02*
X134937500Y-65087500D01*
X134937500Y-74295000D02*
X143827500Y-83185000D01*
X134937500Y-65087500D02*
X134937500Y-74295000D01*
X153352500Y-64135000D02*
X153352500Y-64452500D01*
X153352500Y-64452500D02*
X153987500Y-65087500D01*
X153987500Y-74295000D02*
X162877500Y-83185000D01*
X153987500Y-65087500D02*
X153987500Y-74295000D01*
X144462500Y-92075000D02*
X134302500Y-102235000D01*
X144462500Y-83820000D02*
X144462500Y-92075000D01*
X143827500Y-83185000D02*
X144462500Y-83820000D01*
%TO.N,COL4*%
X158115000Y-6985000D02*
X158115000Y-7302500D01*
X158115000Y-7302500D02*
X158750000Y-7937500D01*
X158750000Y-25400000D02*
X158115000Y-26035000D01*
X158750000Y-7937500D02*
X158750000Y-25400000D01*
X177165000Y-6985000D02*
X177165000Y-7302500D01*
X177165000Y-7302500D02*
X177800000Y-7937500D01*
X177800000Y-25400000D02*
X177165000Y-26035000D01*
X177800000Y-7937500D02*
X177800000Y-25400000D01*
X158115000Y-26035000D02*
X158115000Y-26352500D01*
X158115000Y-26352500D02*
X158750000Y-26987500D01*
X158750000Y-36195000D02*
X167640000Y-45085000D01*
X158750000Y-26987500D02*
X158750000Y-36195000D01*
X177165000Y-26035000D02*
X177165000Y-26352500D01*
X177165000Y-26352500D02*
X177800000Y-26987500D01*
X177800000Y-36195000D02*
X186690000Y-45085000D01*
X177800000Y-26987500D02*
X177800000Y-36195000D01*
X167640000Y-45085000D02*
X167640000Y-45402500D01*
X167640000Y-45402500D02*
X168275000Y-46037500D01*
X168275000Y-60007500D02*
X172402500Y-64135000D01*
X168275000Y-46037500D02*
X168275000Y-60007500D01*
X186690000Y-45085000D02*
X186690000Y-45402500D01*
X186690000Y-45402500D02*
X187325000Y-46037500D01*
X187325000Y-60007500D02*
X191452500Y-64135000D01*
X187325000Y-46037500D02*
X187325000Y-60007500D01*
X172402500Y-64135000D02*
X172402500Y-64452500D01*
X172402500Y-64452500D02*
X173037500Y-65087500D01*
X173037500Y-74295000D02*
X181927500Y-83185000D01*
X173037500Y-65087500D02*
X173037500Y-74295000D01*
X191452500Y-64135000D02*
X191452500Y-64452500D01*
X191452500Y-64452500D02*
X192087500Y-65087500D01*
X192087500Y-74295000D02*
X200977500Y-83185000D01*
X192087500Y-65087500D02*
X192087500Y-74295000D01*
X200977500Y-83185000D02*
X200977500Y-83502500D01*
X200977500Y-83502500D02*
X201612500Y-84137500D01*
X201612500Y-90963750D02*
X212883750Y-102235000D01*
X201612500Y-84137500D02*
X201612500Y-90963750D01*
%TO.N,COL5*%
X196215000Y-6985000D02*
X196215000Y-7302500D01*
X196215000Y-7302500D02*
X196850000Y-7937500D01*
X196850000Y-25400000D02*
X196215000Y-26035000D01*
X196850000Y-7937500D02*
X196850000Y-25400000D01*
X215265000Y-6985000D02*
X215265000Y-7302500D01*
X215265000Y-7302500D02*
X215900000Y-7937500D01*
X215900000Y-25400000D02*
X215265000Y-26035000D01*
X215900000Y-7937500D02*
X215900000Y-25400000D01*
X196215000Y-26035000D02*
X196215000Y-26352500D01*
X196215000Y-26352500D02*
X196850000Y-26987500D01*
X196850000Y-36195000D02*
X205740000Y-45085000D01*
X196850000Y-26987500D02*
X196850000Y-36195000D01*
X215265000Y-26035000D02*
X215265000Y-26352500D01*
X215265000Y-26352500D02*
X215900000Y-26987500D01*
X215900000Y-36195000D02*
X224790000Y-45085000D01*
X215900000Y-26987500D02*
X215900000Y-36195000D01*
X205740000Y-45085000D02*
X205740000Y-45402500D01*
X205740000Y-45402500D02*
X206375000Y-46037500D01*
X206375000Y-60007500D02*
X210502500Y-64135000D01*
X206375000Y-46037500D02*
X206375000Y-60007500D01*
X210502500Y-64135000D02*
X210502500Y-64452500D01*
X210502500Y-64452500D02*
X211137500Y-65087500D01*
X211137500Y-74295000D02*
X220027500Y-83185000D01*
X211137500Y-65087500D02*
X211137500Y-74295000D01*
X224790000Y-45085000D02*
X224790000Y-45402500D01*
X224790000Y-45402500D02*
X225425000Y-46037500D01*
X225425000Y-60007500D02*
X229552500Y-64135000D01*
X225425000Y-46037500D02*
X225425000Y-60007500D01*
X244316250Y-83185000D02*
X246221250Y-83185000D01*
X230187500Y-69056250D02*
X244316250Y-83185000D01*
X230187500Y-65087500D02*
X230187500Y-69056250D01*
X229552500Y-64452500D02*
X230187500Y-65087500D01*
X229552500Y-64135000D02*
X229552500Y-64452500D01*
X220662500Y-88106250D02*
X234791250Y-102235000D01*
X234791250Y-102235000D02*
X236696250Y-102235000D01*
X220662500Y-84137500D02*
X220662500Y-88106250D01*
X220027500Y-83502500D02*
X220662500Y-84137500D01*
X220027500Y-83185000D02*
X220027500Y-83502500D01*
%TO.N,COL6*%
X234315000Y-6985000D02*
X234315000Y-7302500D01*
X234315000Y-7302500D02*
X234950000Y-7937500D01*
X234950000Y-25400000D02*
X234315000Y-26035000D01*
X234950000Y-7937500D02*
X234950000Y-25400000D01*
X253365000Y-6985000D02*
X253365000Y-7302500D01*
X253365000Y-7302500D02*
X254000000Y-7937500D01*
X254000000Y-25400000D02*
X253365000Y-26035000D01*
X254000000Y-7937500D02*
X254000000Y-25400000D01*
X234315000Y-26035000D02*
X234315000Y-26352500D01*
X234315000Y-26352500D02*
X234950000Y-26987500D01*
X253365000Y-26035000D02*
X253365000Y-26352500D01*
X253365000Y-26352500D02*
X254000000Y-26987500D01*
X262890000Y-54610000D02*
X262890000Y-54927500D01*
X262890000Y-54927500D02*
X263525000Y-55562500D01*
X263525000Y-74295000D02*
X272415000Y-83185000D01*
X263525000Y-55562500D02*
X263525000Y-74295000D01*
X254000000Y-26987500D02*
X254000000Y-45720000D01*
X254000000Y-45720000D02*
X262890000Y-54610000D01*
X234950000Y-26987500D02*
X234950000Y-36195000D01*
X234950000Y-36195000D02*
X243840000Y-45085000D01*
%TO.N,COL7*%
X281940000Y-6985000D02*
X281940000Y-7302500D01*
X281940000Y-7302500D02*
X282575000Y-7937500D01*
X282575000Y-20637500D02*
X277177500Y-26035000D01*
X282575000Y-7937500D02*
X282575000Y-20637500D01*
X277177500Y-26035000D02*
X277177500Y-26352500D01*
X277177500Y-26352500D02*
X277812500Y-26987500D01*
X277812500Y-40957500D02*
X281940000Y-45085000D01*
X277812500Y-26987500D02*
X277812500Y-40957500D01*
X281940000Y-45085000D02*
X281940000Y-45402500D01*
X281940000Y-45402500D02*
X282575000Y-46037500D01*
X282575000Y-63500000D02*
X281940000Y-64135000D01*
X282575000Y-46037500D02*
X282575000Y-63500000D01*
X281940000Y-64135000D02*
X281940000Y-64452500D01*
X281940000Y-64452500D02*
X282575000Y-65087500D01*
X282575000Y-74295000D02*
X291465000Y-83185000D01*
X282575000Y-65087500D02*
X282575000Y-74295000D01*
X291465000Y-83185000D02*
X291465000Y-83502500D01*
X291465000Y-83502500D02*
X292100000Y-84137500D01*
X292100000Y-92075000D02*
X281940000Y-102235000D01*
X292100000Y-84137500D02*
X292100000Y-92075000D01*
%TO.N,COL8*%
X320040000Y-26035000D02*
X320040000Y-26352500D01*
X320040000Y-26352500D02*
X320675000Y-26987500D01*
X320675000Y-44450000D02*
X320040000Y-45085000D01*
X320675000Y-26987500D02*
X320675000Y-44450000D01*
X320040000Y-45085000D02*
X320040000Y-45402500D01*
X320040000Y-45402500D02*
X320675000Y-46037500D01*
X320675000Y-63500000D02*
X320040000Y-64135000D01*
X320675000Y-46037500D02*
X320675000Y-63500000D01*
X339090000Y-26035000D02*
X339090000Y-26352500D01*
X339090000Y-26352500D02*
X339725000Y-26987500D01*
X339725000Y-44450000D02*
X339090000Y-45085000D01*
X339725000Y-26987500D02*
X339725000Y-44450000D01*
X339090000Y-45085000D02*
X339090000Y-45402500D01*
X339090000Y-45402500D02*
X339725000Y-46037500D01*
X339725000Y-63500000D02*
X339090000Y-64135000D01*
X339725000Y-46037500D02*
X339725000Y-63500000D01*
X329565000Y-83185000D02*
X329565000Y-83502500D01*
X329565000Y-83502500D02*
X330200000Y-84137500D01*
X330200000Y-92075000D02*
X320040000Y-102235000D01*
X330200000Y-84137500D02*
X330200000Y-92075000D01*
X320040000Y-64135000D02*
X320040000Y-64452500D01*
X320040000Y-64452500D02*
X320675000Y-65087500D01*
X320675000Y-74295000D02*
X329565000Y-83185000D01*
X320675000Y-65087500D02*
X320675000Y-74295000D01*
%TO.N,COL9*%
X358140000Y-26035000D02*
X358140000Y-26352500D01*
X358140000Y-26352500D02*
X358775000Y-26987500D01*
X358775000Y-44450000D02*
X358140000Y-45085000D01*
X358775000Y-26987500D02*
X358775000Y-44450000D01*
X358140000Y-45085000D02*
X358140000Y-45402500D01*
X358140000Y-45402500D02*
X358775000Y-46037500D01*
X358775000Y-63500000D02*
X358140000Y-64135000D01*
X358775000Y-46037500D02*
X358775000Y-63500000D01*
X358140000Y-64135000D02*
X358140000Y-64452500D01*
X358140000Y-64452500D02*
X358775000Y-65087500D01*
X358775000Y-82550000D02*
X358140000Y-83185000D01*
X358775000Y-65087500D02*
X358775000Y-82550000D01*
X358775000Y-92075000D02*
X348615000Y-102235000D01*
X358140000Y-83185000D02*
X358140000Y-83502500D01*
X358140000Y-83502500D02*
X358775000Y-84137500D01*
X358775000Y-84137500D02*
X358775000Y-92075000D01*
%TO.N,ROW8*%
X312737500Y-84931250D02*
X312737500Y-28575000D01*
%TO.N,ROW10*%
X314325000Y-105568750D02*
X314325000Y-28575000D01*
%TO.N,ROW7*%
X311150000Y-68262500D02*
X311150000Y-28575000D01*
%TO.N,ROW9*%
X313531250Y-87312500D02*
X313531250Y-27781250D01*
%TD*%
M02*
