%TF.GenerationSoftware,KiCad,Pcbnew,5.1.9*%
%TF.CreationDate,2022-11-23T09:59:22-05:00*%
%TF.ProjectId,EKS1000-V4,454b5331-3030-4302-9d56-342e6b696361,rev?*%
%TF.SameCoordinates,Original*%
%TF.FileFunction,Soldermask,Bot*%
%TF.FilePolarity,Negative*%
%FSLAX46Y46*%
G04 Gerber Fmt 4.6, Leading zero omitted, Abs format (unit mm)*
G04 Created by KiCad (PCBNEW 5.1.9) date 2022-11-23 09:59:22*
%MOMM*%
%LPD*%
G01*
G04 APERTURE LIST*
%ADD10C,2.250000*%
%ADD11C,3.987800*%
%ADD12C,1.750000*%
%ADD13C,3.200000*%
%ADD14O,1.000000X1.600000*%
%ADD15C,0.650000*%
%ADD16O,1.000000X2.100000*%
%ADD17R,0.300000X1.450000*%
%ADD18R,0.600000X1.450000*%
%ADD19R,1.905000X1.905000*%
%ADD20C,1.905000*%
%ADD21C,3.048000*%
%ADD22R,0.700000X1.000000*%
%ADD23R,0.700000X0.600000*%
%ADD24R,1.200000X1.400000*%
%ADD25R,1.500000X0.550000*%
%ADD26R,0.550000X1.500000*%
%ADD27R,1.100000X1.800000*%
%ADD28R,1.200000X0.900000*%
G04 APERTURE END LIST*
D10*
%TO.C,MX78*%
X326390000Y-23495000D03*
D11*
X323850000Y-28575000D03*
D10*
X320040000Y-26035000D03*
D12*
X318770000Y-28575000D03*
X328930000Y-28575000D03*
%TD*%
D13*
%TO.C,M10*%
X352425000Y-112712500D03*
%TD*%
%TO.C,M3*%
X85725000Y-57150000D03*
%TD*%
%TO.C,M5*%
X352425000Y-38100000D03*
%TD*%
%TO.C,M2*%
X147637500Y-7143750D03*
%TD*%
%TO.C,M8*%
X210343750Y-57150000D03*
%TD*%
%TO.C,M7*%
X127793750Y-102393750D03*
%TD*%
%TO.C,M9*%
X271462500Y-102393750D03*
%TD*%
%TO.C,M6*%
X23812500Y-102393750D03*
%TD*%
D14*
%TO.C,J1*%
X314260198Y20417500D03*
D15*
X312830198Y16767500D03*
D14*
X305620198Y20417500D03*
D15*
X307050198Y16767500D03*
D16*
X305620198Y16237500D03*
X314260198Y16237500D03*
D17*
X309690198Y15322500D03*
X311690198Y15322500D03*
X311190198Y15322500D03*
X310690198Y15322500D03*
X310190198Y15322500D03*
X309190198Y15322500D03*
X308690198Y15322500D03*
X308190198Y15322500D03*
D18*
X313190198Y15322500D03*
X312390198Y15322500D03*
X307490198Y15322500D03*
X306690198Y15322500D03*
X306690198Y15322500D03*
X307490198Y15322500D03*
X312390198Y15322500D03*
X313190198Y15322500D03*
%TD*%
%TO.C,R1*%
G36*
G01*
X322712502Y-266750D02*
X321812498Y-266750D01*
G75*
G02*
X321562500Y-16752I0J249998D01*
G01*
X321562500Y508252D01*
G75*
G02*
X321812498Y758250I249998J0D01*
G01*
X322712502Y758250D01*
G75*
G02*
X322962500Y508252I0J-249998D01*
G01*
X322962500Y-16752D01*
G75*
G02*
X322712502Y-266750I-249998J0D01*
G01*
G37*
G36*
G01*
X322712502Y-2091750D02*
X321812498Y-2091750D01*
G75*
G02*
X321562500Y-1841752I0J249998D01*
G01*
X321562500Y-1316748D01*
G75*
G02*
X321812498Y-1066750I249998J0D01*
G01*
X322712502Y-1066750D01*
G75*
G02*
X322962500Y-1316748I0J-249998D01*
G01*
X322962500Y-1841752D01*
G75*
G02*
X322712502Y-2091750I-249998J0D01*
G01*
G37*
%TD*%
D12*
%TO.C,MX4*%
X16668750Y-61595000D03*
X16668750Y-71755000D03*
D19*
X21748750Y-65405000D03*
D20*
X21748750Y-67945000D03*
D10*
X14128750Y-70485000D03*
D11*
X16668750Y-66675000D03*
D10*
X11588750Y-64135000D03*
%TD*%
D13*
%TO.C,M4*%
X271462500Y-7143750D03*
%TD*%
%TO.C,M1*%
X23812500Y-7143750D03*
%TD*%
D10*
%TO.C,MX73*%
X288290000Y-42545000D03*
D11*
X285750000Y-47625000D03*
D10*
X281940000Y-45085000D03*
D12*
X280670000Y-47625000D03*
X290830000Y-47625000D03*
%TD*%
D11*
%TO.C,MX70*%
X258445000Y-69056250D03*
X258445000Y-45243750D03*
D21*
X273685000Y-69056250D03*
X273685000Y-45243750D03*
D12*
X271780000Y-57150000D03*
X261620000Y-57150000D03*
D10*
X262890000Y-54610000D03*
D11*
X266700000Y-57150000D03*
D10*
X269240000Y-52070000D03*
%TD*%
%TO.C,MX41*%
X159702500Y-61595000D03*
D11*
X157162500Y-66675000D03*
D10*
X153352500Y-64135000D03*
D12*
X152082500Y-66675000D03*
X162242500Y-66675000D03*
%TD*%
D22*
%TO.C,U2*%
X310945250Y11164000D03*
D23*
X308945250Y11364000D03*
X310945250Y9464000D03*
X308945250Y9464000D03*
%TD*%
D10*
%TO.C,MX6*%
X38258750Y-99695000D03*
D11*
X35718750Y-104775000D03*
D10*
X31908750Y-102235000D03*
D12*
X30638750Y-104775000D03*
X40798750Y-104775000D03*
%TD*%
D24*
%TO.C,Y1*%
X323906250Y-7450000D03*
X323906250Y-5250000D03*
X322206250Y-5250000D03*
X322206250Y-7450000D03*
%TD*%
D25*
%TO.C,U1*%
X306243750Y-1556250D03*
X306243750Y-2356250D03*
X306243750Y-3156250D03*
X306243750Y-3956250D03*
X306243750Y-4756250D03*
X306243750Y-5556250D03*
X306243750Y-6356250D03*
X306243750Y-7156250D03*
X306243750Y-7956250D03*
X306243750Y-8756250D03*
X306243750Y-9556250D03*
D26*
X307943750Y-11256250D03*
X308743750Y-11256250D03*
X309543750Y-11256250D03*
X310343750Y-11256250D03*
X311143750Y-11256250D03*
X311943750Y-11256250D03*
X312743750Y-11256250D03*
X313543750Y-11256250D03*
X314343750Y-11256250D03*
X315143750Y-11256250D03*
X315943750Y-11256250D03*
D25*
X317643750Y-9556250D03*
X317643750Y-8756250D03*
X317643750Y-7956250D03*
X317643750Y-7156250D03*
X317643750Y-6356250D03*
X317643750Y-5556250D03*
X317643750Y-4756250D03*
X317643750Y-3956250D03*
X317643750Y-3156250D03*
X317643750Y-2356250D03*
X317643750Y-1556250D03*
D26*
X315943750Y143750D03*
X315143750Y143750D03*
X314343750Y143750D03*
X313543750Y143750D03*
X312743750Y143750D03*
X311943750Y143750D03*
X311143750Y143750D03*
X310343750Y143750D03*
X309543750Y143750D03*
X308743750Y143750D03*
X307943750Y143750D03*
%TD*%
D27*
%TO.C,SW1*%
X324889250Y75000D03*
X328589250Y6275000D03*
X328589250Y75000D03*
X324889250Y6275000D03*
%TD*%
%TO.C,R6*%
G36*
G01*
X302254498Y14332000D02*
X303154502Y14332000D01*
G75*
G02*
X303404500Y14082002I0J-249998D01*
G01*
X303404500Y13556998D01*
G75*
G02*
X303154502Y13307000I-249998J0D01*
G01*
X302254498Y13307000D01*
G75*
G02*
X302004500Y13556998I0J249998D01*
G01*
X302004500Y14082002D01*
G75*
G02*
X302254498Y14332000I249998J0D01*
G01*
G37*
G36*
G01*
X302254498Y16157000D02*
X303154502Y16157000D01*
G75*
G02*
X303404500Y15907002I0J-249998D01*
G01*
X303404500Y15381998D01*
G75*
G02*
X303154502Y15132000I-249998J0D01*
G01*
X302254498Y15132000D01*
G75*
G02*
X302004500Y15381998I0J249998D01*
G01*
X302004500Y15907002D01*
G75*
G02*
X302254498Y16157000I249998J0D01*
G01*
G37*
%TD*%
%TO.C,R5*%
G36*
G01*
X316700748Y14332000D02*
X317600752Y14332000D01*
G75*
G02*
X317850750Y14082002I0J-249998D01*
G01*
X317850750Y13556998D01*
G75*
G02*
X317600752Y13307000I-249998J0D01*
G01*
X316700748Y13307000D01*
G75*
G02*
X316450750Y13556998I0J249998D01*
G01*
X316450750Y14082002D01*
G75*
G02*
X316700748Y14332000I249998J0D01*
G01*
G37*
G36*
G01*
X316700748Y16157000D02*
X317600752Y16157000D01*
G75*
G02*
X317850750Y15907002I0J-249998D01*
G01*
X317850750Y15381998D01*
G75*
G02*
X317600752Y15132000I-249998J0D01*
G01*
X316700748Y15132000D01*
G75*
G02*
X316450750Y15381998I0J249998D01*
G01*
X316450750Y15907002D01*
G75*
G02*
X316700748Y16157000I249998J0D01*
G01*
G37*
%TD*%
%TO.C,R4*%
G36*
G01*
X303177144Y-15872793D02*
X303813543Y-15236394D01*
G75*
G02*
X304167093Y-15236394I176775J-176775D01*
G01*
X304538326Y-15607627D01*
G75*
G02*
X304538326Y-15961177I-176775J-176775D01*
G01*
X303901927Y-16597576D01*
G75*
G02*
X303548377Y-16597576I-176775J176775D01*
G01*
X303177144Y-16226343D01*
G75*
G02*
X303177144Y-15872793I176775J176775D01*
G01*
G37*
G36*
G01*
X301886674Y-14582323D02*
X302523073Y-13945924D01*
G75*
G02*
X302876623Y-13945924I176775J-176775D01*
G01*
X303247856Y-14317157D01*
G75*
G02*
X303247856Y-14670707I-176775J-176775D01*
G01*
X302611457Y-15307106D01*
G75*
G02*
X302257907Y-15307106I-176775J176775D01*
G01*
X301886674Y-14935873D01*
G75*
G02*
X301886674Y-14582323I176775J176775D01*
G01*
G37*
%TD*%
%TO.C,R3*%
G36*
G01*
X309095252Y6253966D02*
X308195248Y6253966D01*
G75*
G02*
X307945250Y6503964I0J249998D01*
G01*
X307945250Y7028968D01*
G75*
G02*
X308195248Y7278966I249998J0D01*
G01*
X309095252Y7278966D01*
G75*
G02*
X309345250Y7028968I0J-249998D01*
G01*
X309345250Y6503964D01*
G75*
G02*
X309095252Y6253966I-249998J0D01*
G01*
G37*
G36*
G01*
X309095252Y4428966D02*
X308195248Y4428966D01*
G75*
G02*
X307945250Y4678964I0J249998D01*
G01*
X307945250Y5203968D01*
G75*
G02*
X308195248Y5453966I249998J0D01*
G01*
X309095252Y5453966D01*
G75*
G02*
X309345250Y5203968I0J-249998D01*
G01*
X309345250Y4678964D01*
G75*
G02*
X309095252Y4428966I-249998J0D01*
G01*
G37*
%TD*%
%TO.C,R2*%
G36*
G01*
X311627502Y6253966D02*
X310727498Y6253966D01*
G75*
G02*
X310477500Y6503964I0J249998D01*
G01*
X310477500Y7028968D01*
G75*
G02*
X310727498Y7278966I249998J0D01*
G01*
X311627502Y7278966D01*
G75*
G02*
X311877500Y7028968I0J-249998D01*
G01*
X311877500Y6503964D01*
G75*
G02*
X311627502Y6253966I-249998J0D01*
G01*
G37*
G36*
G01*
X311627502Y4428966D02*
X310727498Y4428966D01*
G75*
G02*
X310477500Y4678964I0J249998D01*
G01*
X310477500Y5203968D01*
G75*
G02*
X310727498Y5453966I249998J0D01*
G01*
X311627502Y5453966D01*
G75*
G02*
X311877500Y5203968I0J-249998D01*
G01*
X311877500Y4678964D01*
G75*
G02*
X311627502Y4428966I-249998J0D01*
G01*
G37*
%TD*%
D10*
%TO.C,MX90*%
X354965000Y-99695000D03*
D11*
X352425000Y-104775000D03*
D10*
X348615000Y-102235000D03*
D12*
X347345000Y-104775000D03*
X357505000Y-104775000D03*
D21*
X340518750Y-97790000D03*
X364331250Y-97790000D03*
D11*
X340518750Y-113030000D03*
X364331250Y-113030000D03*
%TD*%
D10*
%TO.C,MX89*%
X364490000Y-80645000D03*
D11*
X361950000Y-85725000D03*
D10*
X358140000Y-83185000D03*
D12*
X356870000Y-85725000D03*
X367030000Y-85725000D03*
%TD*%
D10*
%TO.C,MX88*%
X364490000Y-61595000D03*
D11*
X361950000Y-66675000D03*
D10*
X358140000Y-64135000D03*
D12*
X356870000Y-66675000D03*
X367030000Y-66675000D03*
%TD*%
D10*
%TO.C,MX87*%
X364490000Y-42545000D03*
D11*
X361950000Y-47625000D03*
D10*
X358140000Y-45085000D03*
D12*
X356870000Y-47625000D03*
X367030000Y-47625000D03*
%TD*%
D10*
%TO.C,MX86*%
X364490000Y-23495000D03*
D11*
X361950000Y-28575000D03*
D10*
X358140000Y-26035000D03*
D12*
X356870000Y-28575000D03*
X367030000Y-28575000D03*
%TD*%
D10*
%TO.C,MX85*%
X345440000Y-61595000D03*
D11*
X342900000Y-66675000D03*
D10*
X339090000Y-64135000D03*
D12*
X337820000Y-66675000D03*
X347980000Y-66675000D03*
%TD*%
D10*
%TO.C,MX84*%
X345440000Y-42545000D03*
D11*
X342900000Y-47625000D03*
D10*
X339090000Y-45085000D03*
D12*
X337820000Y-47625000D03*
X347980000Y-47625000D03*
%TD*%
D10*
%TO.C,MX83*%
X345440000Y-23495000D03*
D11*
X342900000Y-28575000D03*
D10*
X339090000Y-26035000D03*
D12*
X337820000Y-28575000D03*
X347980000Y-28575000D03*
%TD*%
D10*
%TO.C,MX82*%
X326390000Y-99695000D03*
D11*
X323850000Y-104775000D03*
D10*
X320040000Y-102235000D03*
D12*
X318770000Y-104775000D03*
X328930000Y-104775000D03*
%TD*%
D10*
%TO.C,MX81*%
X335915000Y-80645000D03*
D11*
X333375000Y-85725000D03*
D10*
X329565000Y-83185000D03*
D12*
X328295000Y-85725000D03*
X338455000Y-85725000D03*
D21*
X321468750Y-78740000D03*
X345281250Y-78740000D03*
D11*
X321468750Y-93980000D03*
X345281250Y-93980000D03*
%TD*%
D10*
%TO.C,MX80*%
X326390000Y-61595000D03*
D11*
X323850000Y-66675000D03*
D10*
X320040000Y-64135000D03*
D12*
X318770000Y-66675000D03*
X328930000Y-66675000D03*
%TD*%
D10*
%TO.C,MX79*%
X326390000Y-42545000D03*
D11*
X323850000Y-47625000D03*
D10*
X320040000Y-45085000D03*
D12*
X318770000Y-47625000D03*
X328930000Y-47625000D03*
%TD*%
D10*
%TO.C,MX77*%
X288290000Y-99695000D03*
D11*
X285750000Y-104775000D03*
D10*
X281940000Y-102235000D03*
D12*
X280670000Y-104775000D03*
X290830000Y-104775000D03*
%TD*%
D10*
%TO.C,MX76*%
X297815000Y-80645000D03*
D11*
X295275000Y-85725000D03*
D10*
X291465000Y-83185000D03*
D12*
X290195000Y-85725000D03*
X300355000Y-85725000D03*
%TD*%
D10*
%TO.C,MX75*%
X278765000Y-80645000D03*
D11*
X276225000Y-85725000D03*
D10*
X272415000Y-83185000D03*
D12*
X271145000Y-85725000D03*
X281305000Y-85725000D03*
%TD*%
D10*
%TO.C,MX74*%
X288290000Y-61595000D03*
D11*
X285750000Y-66675000D03*
D10*
X281940000Y-64135000D03*
D12*
X280670000Y-66675000D03*
X290830000Y-66675000D03*
%TD*%
D10*
%TO.C,MX59*%
X243046250Y-99695000D03*
D11*
X240506250Y-104775000D03*
D10*
X236696250Y-102235000D03*
D12*
X235426250Y-104775000D03*
X245586250Y-104775000D03*
%TD*%
D10*
%TO.C,MX64*%
X252571250Y-80645000D03*
D11*
X250031250Y-85725000D03*
D10*
X246221250Y-83185000D03*
D12*
X244951250Y-85725000D03*
X255111250Y-85725000D03*
%TD*%
D10*
%TO.C,MX72*%
X283527500Y-23495000D03*
D11*
X280987500Y-28575000D03*
D10*
X277177500Y-26035000D03*
D12*
X275907500Y-28575000D03*
X286067500Y-28575000D03*
%TD*%
D10*
%TO.C,MX71*%
X288290000Y-4445000D03*
D11*
X285750000Y-9525000D03*
D10*
X281940000Y-6985000D03*
D12*
X280670000Y-9525000D03*
X290830000Y-9525000D03*
%TD*%
D10*
%TO.C,MX53*%
X219233750Y-99695000D03*
D11*
X216693750Y-104775000D03*
D10*
X212883750Y-102235000D03*
D12*
X211613750Y-104775000D03*
X221773750Y-104775000D03*
%TD*%
D10*
%TO.C,MX58*%
X226377500Y-80645000D03*
D11*
X223837500Y-85725000D03*
D10*
X220027500Y-83185000D03*
D12*
X218757500Y-85725000D03*
X228917500Y-85725000D03*
%TD*%
D10*
%TO.C,MX63*%
X235902500Y-61595000D03*
D11*
X233362500Y-66675000D03*
D10*
X229552500Y-64135000D03*
D12*
X228282500Y-66675000D03*
X238442500Y-66675000D03*
%TD*%
D10*
%TO.C,MX67*%
X250190000Y-42545000D03*
D11*
X247650000Y-47625000D03*
D10*
X243840000Y-45085000D03*
D12*
X242570000Y-47625000D03*
X252730000Y-47625000D03*
%TD*%
D10*
%TO.C,MX69*%
X259715000Y-23495000D03*
D11*
X257175000Y-28575000D03*
D10*
X253365000Y-26035000D03*
D12*
X252095000Y-28575000D03*
X262255000Y-28575000D03*
%TD*%
D10*
%TO.C,MX68*%
X259715000Y-4445000D03*
D11*
X257175000Y-9525000D03*
D10*
X253365000Y-6985000D03*
D12*
X252095000Y-9525000D03*
X262255000Y-9525000D03*
%TD*%
D10*
%TO.C,MX52*%
X207327500Y-80645000D03*
D11*
X204787500Y-85725000D03*
D10*
X200977500Y-83185000D03*
D12*
X199707500Y-85725000D03*
X209867500Y-85725000D03*
%TD*%
D10*
%TO.C,MX57*%
X216852500Y-61595000D03*
D11*
X214312500Y-66675000D03*
D10*
X210502500Y-64135000D03*
D12*
X209232500Y-66675000D03*
X219392500Y-66675000D03*
%TD*%
D10*
%TO.C,MX62*%
X231140000Y-42545000D03*
D11*
X228600000Y-47625000D03*
D10*
X224790000Y-45085000D03*
D12*
X223520000Y-47625000D03*
X233680000Y-47625000D03*
%TD*%
D10*
%TO.C,MX66*%
X240665000Y-23495000D03*
D11*
X238125000Y-28575000D03*
D10*
X234315000Y-26035000D03*
D12*
X233045000Y-28575000D03*
X243205000Y-28575000D03*
%TD*%
D10*
%TO.C,MX65*%
X240665000Y-4445000D03*
D11*
X238125000Y-9525000D03*
D10*
X234315000Y-6985000D03*
D12*
X233045000Y-9525000D03*
X243205000Y-9525000D03*
%TD*%
D10*
%TO.C,MX47*%
X188277500Y-80645000D03*
D11*
X185737500Y-85725000D03*
D10*
X181927500Y-83185000D03*
D12*
X180657500Y-85725000D03*
X190817500Y-85725000D03*
%TD*%
D10*
%TO.C,MX51*%
X197802500Y-61595000D03*
D11*
X195262500Y-66675000D03*
D10*
X191452500Y-64135000D03*
D12*
X190182500Y-66675000D03*
X200342500Y-66675000D03*
%TD*%
D10*
%TO.C,MX56*%
X212090000Y-42545000D03*
D11*
X209550000Y-47625000D03*
D10*
X205740000Y-45085000D03*
D12*
X204470000Y-47625000D03*
X214630000Y-47625000D03*
%TD*%
D10*
%TO.C,MX61*%
X221615000Y-23495000D03*
D11*
X219075000Y-28575000D03*
D10*
X215265000Y-26035000D03*
D12*
X213995000Y-28575000D03*
X224155000Y-28575000D03*
%TD*%
D10*
%TO.C,MX60*%
X221615000Y-4445000D03*
D11*
X219075000Y-9525000D03*
D10*
X215265000Y-6985000D03*
D12*
X213995000Y-9525000D03*
X224155000Y-9525000D03*
%TD*%
D10*
%TO.C,MX42*%
X169227500Y-80645000D03*
D11*
X166687500Y-85725000D03*
D10*
X162877500Y-83185000D03*
D12*
X161607500Y-85725000D03*
X171767500Y-85725000D03*
%TD*%
D10*
%TO.C,MX46*%
X178752500Y-61595000D03*
D11*
X176212500Y-66675000D03*
D10*
X172402500Y-64135000D03*
D12*
X171132500Y-66675000D03*
X181292500Y-66675000D03*
%TD*%
D10*
%TO.C,MX50*%
X193040000Y-42545000D03*
D11*
X190500000Y-47625000D03*
D10*
X186690000Y-45085000D03*
D12*
X185420000Y-47625000D03*
X195580000Y-47625000D03*
%TD*%
D10*
%TO.C,MX55*%
X202565000Y-23495000D03*
D11*
X200025000Y-28575000D03*
D10*
X196215000Y-26035000D03*
D12*
X194945000Y-28575000D03*
X205105000Y-28575000D03*
%TD*%
D10*
%TO.C,MX54*%
X202565000Y-4445000D03*
D11*
X200025000Y-9525000D03*
D10*
X196215000Y-6985000D03*
D12*
X194945000Y-9525000D03*
X205105000Y-9525000D03*
%TD*%
D10*
%TO.C,MX45*%
X173990000Y-42545000D03*
D11*
X171450000Y-47625000D03*
D10*
X167640000Y-45085000D03*
D12*
X166370000Y-47625000D03*
X176530000Y-47625000D03*
%TD*%
D10*
%TO.C,MX49*%
X183515000Y-23495000D03*
D11*
X180975000Y-28575000D03*
D10*
X177165000Y-26035000D03*
D12*
X175895000Y-28575000D03*
X186055000Y-28575000D03*
%TD*%
D10*
%TO.C,MX48*%
X183515000Y-4445000D03*
D11*
X180975000Y-9525000D03*
D10*
X177165000Y-6985000D03*
D12*
X175895000Y-9525000D03*
X186055000Y-9525000D03*
%TD*%
D10*
%TO.C,MX44*%
X164465000Y-23495000D03*
D11*
X161925000Y-28575000D03*
D10*
X158115000Y-26035000D03*
D12*
X156845000Y-28575000D03*
X167005000Y-28575000D03*
%TD*%
D10*
%TO.C,MX43*%
X164465000Y-4445000D03*
D11*
X161925000Y-9525000D03*
D10*
X158115000Y-6985000D03*
D12*
X156845000Y-9525000D03*
X167005000Y-9525000D03*
%TD*%
D10*
%TO.C,MX40*%
X154940000Y-42545000D03*
D11*
X152400000Y-47625000D03*
D10*
X148590000Y-45085000D03*
D12*
X147320000Y-47625000D03*
X157480000Y-47625000D03*
%TD*%
D10*
%TO.C,MX39*%
X145415000Y-23495000D03*
D11*
X142875000Y-28575000D03*
D10*
X139065000Y-26035000D03*
D12*
X137795000Y-28575000D03*
X147955000Y-28575000D03*
%TD*%
D10*
%TO.C,MX38*%
X135890000Y-4445000D03*
D11*
X133350000Y-9525000D03*
D10*
X129540000Y-6985000D03*
D12*
X128270000Y-9525000D03*
X138430000Y-9525000D03*
%TD*%
D10*
%TO.C,MX37*%
X150177500Y-80645000D03*
D11*
X147637500Y-85725000D03*
D10*
X143827500Y-83185000D03*
D12*
X142557500Y-85725000D03*
X152717500Y-85725000D03*
%TD*%
D10*
%TO.C,MX36*%
X140652500Y-61595000D03*
D11*
X138112500Y-66675000D03*
D10*
X134302500Y-64135000D03*
D12*
X133032500Y-66675000D03*
X143192500Y-66675000D03*
%TD*%
D10*
%TO.C,MX35*%
X135890000Y-42545000D03*
D11*
X133350000Y-47625000D03*
D10*
X129540000Y-45085000D03*
D12*
X128270000Y-47625000D03*
X138430000Y-47625000D03*
%TD*%
D10*
%TO.C,MX34*%
X126365000Y-23495000D03*
D11*
X123825000Y-28575000D03*
D10*
X120015000Y-26035000D03*
D12*
X118745000Y-28575000D03*
X128905000Y-28575000D03*
%TD*%
D10*
%TO.C,MX33*%
X116840000Y-4445000D03*
D11*
X114300000Y-9525000D03*
D10*
X110490000Y-6985000D03*
D12*
X109220000Y-9525000D03*
X119380000Y-9525000D03*
%TD*%
D10*
%TO.C,MX32*%
X140652500Y-99695000D03*
D11*
X138112500Y-104775000D03*
D10*
X134302500Y-102235000D03*
D12*
X133032500Y-104775000D03*
X143192500Y-104775000D03*
D21*
X80962500Y-97790000D03*
X195262500Y-97790000D03*
D11*
X80962500Y-113030000D03*
X195262500Y-113030000D03*
%TD*%
D10*
%TO.C,MX31*%
X131127500Y-80645000D03*
D11*
X128587500Y-85725000D03*
D10*
X124777500Y-83185000D03*
D12*
X123507500Y-85725000D03*
X133667500Y-85725000D03*
%TD*%
D10*
%TO.C,MX30*%
X121602500Y-61595000D03*
D11*
X119062500Y-66675000D03*
D10*
X115252500Y-64135000D03*
D12*
X113982500Y-66675000D03*
X124142500Y-66675000D03*
%TD*%
D10*
%TO.C,MX29*%
X116840000Y-42545000D03*
D11*
X114300000Y-47625000D03*
D10*
X110490000Y-45085000D03*
D12*
X109220000Y-47625000D03*
X119380000Y-47625000D03*
%TD*%
D10*
%TO.C,MX28*%
X107315000Y-23495000D03*
D11*
X104775000Y-28575000D03*
D10*
X100965000Y-26035000D03*
D12*
X99695000Y-28575000D03*
X109855000Y-28575000D03*
%TD*%
D10*
%TO.C,MX27*%
X97790000Y-4445000D03*
D11*
X95250000Y-9525000D03*
D10*
X91440000Y-6985000D03*
D12*
X90170000Y-9525000D03*
X100330000Y-9525000D03*
%TD*%
D10*
%TO.C,MX26*%
X112077500Y-80645000D03*
D11*
X109537500Y-85725000D03*
D10*
X105727500Y-83185000D03*
D12*
X104457500Y-85725000D03*
X114617500Y-85725000D03*
%TD*%
D10*
%TO.C,MX25*%
X102552500Y-61595000D03*
D11*
X100012500Y-66675000D03*
D10*
X96202500Y-64135000D03*
D12*
X94932500Y-66675000D03*
X105092500Y-66675000D03*
%TD*%
D10*
%TO.C,MX24*%
X97790000Y-42545000D03*
D11*
X95250000Y-47625000D03*
D10*
X91440000Y-45085000D03*
D12*
X90170000Y-47625000D03*
X100330000Y-47625000D03*
%TD*%
D10*
%TO.C,MX23*%
X88265000Y-23495000D03*
D11*
X85725000Y-28575000D03*
D10*
X81915000Y-26035000D03*
D12*
X80645000Y-28575000D03*
X90805000Y-28575000D03*
%TD*%
D10*
%TO.C,MX22*%
X78740000Y-4445000D03*
D11*
X76200000Y-9525000D03*
D10*
X72390000Y-6985000D03*
D12*
X71120000Y-9525000D03*
X81280000Y-9525000D03*
%TD*%
D10*
%TO.C,MX21*%
X93027500Y-80645000D03*
D11*
X90487500Y-85725000D03*
D10*
X86677500Y-83185000D03*
D12*
X85407500Y-85725000D03*
X95567500Y-85725000D03*
%TD*%
D10*
%TO.C,MX20*%
X83502500Y-61595000D03*
D11*
X80962500Y-66675000D03*
D10*
X77152500Y-64135000D03*
D12*
X75882500Y-66675000D03*
X86042500Y-66675000D03*
%TD*%
D10*
%TO.C,MX19*%
X78740000Y-42545000D03*
D11*
X76200000Y-47625000D03*
D10*
X72390000Y-45085000D03*
D12*
X71120000Y-47625000D03*
X81280000Y-47625000D03*
%TD*%
D10*
%TO.C,MX18*%
X69215000Y-23495000D03*
D11*
X66675000Y-28575000D03*
D10*
X62865000Y-26035000D03*
D12*
X61595000Y-28575000D03*
X71755000Y-28575000D03*
%TD*%
D10*
%TO.C,MX17*%
X59690000Y-4445000D03*
D11*
X57150000Y-9525000D03*
D10*
X53340000Y-6985000D03*
D12*
X52070000Y-9525000D03*
X62230000Y-9525000D03*
%TD*%
D10*
%TO.C,MX16*%
X73977500Y-80645000D03*
D11*
X71437500Y-85725000D03*
D10*
X67627500Y-83185000D03*
D12*
X66357500Y-85725000D03*
X76517500Y-85725000D03*
%TD*%
D10*
%TO.C,MX15*%
X64452500Y-61595000D03*
D11*
X61912500Y-66675000D03*
D10*
X58102500Y-64135000D03*
D12*
X56832500Y-66675000D03*
X66992500Y-66675000D03*
%TD*%
D10*
%TO.C,MX14*%
X59690000Y-42545000D03*
D11*
X57150000Y-47625000D03*
D10*
X53340000Y-45085000D03*
D12*
X52070000Y-47625000D03*
X62230000Y-47625000D03*
%TD*%
D10*
%TO.C,MX13*%
X50165000Y-23495000D03*
D11*
X47625000Y-28575000D03*
D10*
X43815000Y-26035000D03*
D12*
X42545000Y-28575000D03*
X52705000Y-28575000D03*
%TD*%
D10*
%TO.C,MX12*%
X40640000Y-4445000D03*
D11*
X38100000Y-9525000D03*
D10*
X34290000Y-6985000D03*
D12*
X33020000Y-9525000D03*
X43180000Y-9525000D03*
%TD*%
D10*
%TO.C,MX11*%
X62071250Y-99695000D03*
D11*
X59531250Y-104775000D03*
D10*
X55721250Y-102235000D03*
D12*
X54451250Y-104775000D03*
X64611250Y-104775000D03*
%TD*%
D10*
%TO.C,MX10*%
X54927500Y-80645000D03*
D11*
X52387500Y-85725000D03*
D10*
X48577500Y-83185000D03*
D12*
X47307500Y-85725000D03*
X57467500Y-85725000D03*
%TD*%
D10*
%TO.C,MX9*%
X45402500Y-61595000D03*
D11*
X42862500Y-66675000D03*
D10*
X39052500Y-64135000D03*
D12*
X37782500Y-66675000D03*
X47942500Y-66675000D03*
%TD*%
D10*
%TO.C,MX8*%
X40640000Y-42545000D03*
D11*
X38100000Y-47625000D03*
D10*
X34290000Y-45085000D03*
D12*
X33020000Y-47625000D03*
X43180000Y-47625000D03*
%TD*%
D10*
%TO.C,MX7*%
X31115000Y-23495000D03*
D11*
X28575000Y-28575000D03*
D10*
X24765000Y-26035000D03*
D12*
X23495000Y-28575000D03*
X33655000Y-28575000D03*
%TD*%
D10*
%TO.C,MX5*%
X23971250Y-80645000D03*
D11*
X21431250Y-85725000D03*
D10*
X17621250Y-83185000D03*
D12*
X16351250Y-85725000D03*
X26511250Y-85725000D03*
D21*
X9525000Y-78740000D03*
X33337500Y-78740000D03*
D11*
X9525000Y-93980000D03*
X33337500Y-93980000D03*
%TD*%
D10*
%TO.C,MX3*%
X16827500Y-42545000D03*
D11*
X14287500Y-47625000D03*
D10*
X10477500Y-45085000D03*
D12*
X9207500Y-47625000D03*
X19367500Y-47625000D03*
%TD*%
D10*
%TO.C,MX2*%
X12065000Y-23495000D03*
D11*
X9525000Y-28575000D03*
D10*
X5715000Y-26035000D03*
D12*
X4445000Y-28575000D03*
X14605000Y-28575000D03*
%TD*%
D10*
%TO.C,MX1*%
X12065000Y-4445000D03*
D11*
X9525000Y-9525000D03*
D10*
X5715000Y-6985000D03*
D12*
X4445000Y-9525000D03*
X14605000Y-9525000D03*
%TD*%
%TO.C,F1*%
G36*
G01*
X306218750Y5912500D02*
X304968750Y5912500D01*
G75*
G02*
X304718750Y6162500I0J250000D01*
G01*
X304718750Y6912500D01*
G75*
G02*
X304968750Y7162500I250000J0D01*
G01*
X306218750Y7162500D01*
G75*
G02*
X306468750Y6912500I0J-250000D01*
G01*
X306468750Y6162500D01*
G75*
G02*
X306218750Y5912500I-250000J0D01*
G01*
G37*
G36*
G01*
X306218750Y8712500D02*
X304968750Y8712500D01*
G75*
G02*
X304718750Y8962500I0J250000D01*
G01*
X304718750Y9712500D01*
G75*
G02*
X304968750Y9962500I250000J0D01*
G01*
X306218750Y9962500D01*
G75*
G02*
X306468750Y9712500I0J-250000D01*
G01*
X306468750Y8962500D01*
G75*
G02*
X306218750Y8712500I-250000J0D01*
G01*
G37*
%TD*%
D28*
%TO.C,D90*%
X361156250Y-103125000D03*
X361156250Y-106425000D03*
%TD*%
%TO.C,D89*%
X370681250Y-84075000D03*
X370681250Y-87375000D03*
%TD*%
%TO.C,D88*%
X370681250Y-65025000D03*
X370681250Y-68325000D03*
%TD*%
%TO.C,D87*%
X370681250Y-45975000D03*
X370681250Y-49275000D03*
%TD*%
%TO.C,D86*%
X370681250Y-26925000D03*
X370681250Y-30225000D03*
%TD*%
%TO.C,D85*%
X351631250Y-65025000D03*
X351631250Y-68325000D03*
%TD*%
%TO.C,D84*%
X351631250Y-45975000D03*
X351631250Y-49275000D03*
%TD*%
%TO.C,D83*%
X351631250Y-26925000D03*
X351631250Y-30225000D03*
%TD*%
%TO.C,D82*%
X332581250Y-103125000D03*
X332581250Y-106425000D03*
%TD*%
%TO.C,D81*%
X342900000Y-84075000D03*
X342900000Y-87375000D03*
%TD*%
%TO.C,D80*%
X332581250Y-65025000D03*
X332581250Y-68325000D03*
%TD*%
%TO.C,D79*%
X332581250Y-45975000D03*
X332581250Y-49275000D03*
%TD*%
%TO.C,D78*%
X332581250Y-26925000D03*
X332581250Y-30225000D03*
%TD*%
%TO.C,D77*%
X294481250Y-103125000D03*
X294481250Y-106425000D03*
%TD*%
%TO.C,D76*%
X304006250Y-84075000D03*
X304006250Y-87375000D03*
%TD*%
%TO.C,D75*%
X284956250Y-84075000D03*
X284956250Y-87375000D03*
%TD*%
%TO.C,D74*%
X294481250Y-65025000D03*
X294481250Y-68325000D03*
%TD*%
%TO.C,D73*%
X294481250Y-45975000D03*
X294481250Y-49275000D03*
%TD*%
%TO.C,D59*%
X249237500Y-103125000D03*
X249237500Y-106425000D03*
%TD*%
%TO.C,D64*%
X258762500Y-84075000D03*
X258762500Y-87375000D03*
%TD*%
%TO.C,D70*%
X275431250Y-55500000D03*
X275431250Y-58800000D03*
%TD*%
%TO.C,D72*%
X289718750Y-26925000D03*
X289718750Y-30225000D03*
%TD*%
%TO.C,D71*%
X294481250Y-7875000D03*
X294481250Y-11175000D03*
%TD*%
%TO.C,D53*%
X225425000Y-103125000D03*
X225425000Y-106425000D03*
%TD*%
%TO.C,D58*%
X232568750Y-84075000D03*
X232568750Y-87375000D03*
%TD*%
%TO.C,D63*%
X242093750Y-65025000D03*
X242093750Y-68325000D03*
%TD*%
%TO.C,D67*%
X256381250Y-55500000D03*
X256381250Y-58800000D03*
%TD*%
%TO.C,D69*%
X265906250Y-26925000D03*
X265906250Y-30225000D03*
%TD*%
%TO.C,D68*%
X265906250Y-7875000D03*
X265906250Y-11175000D03*
%TD*%
%TO.C,D52*%
X213518750Y-84075000D03*
X213518750Y-87375000D03*
%TD*%
%TO.C,D57*%
X223043750Y-65025000D03*
X223043750Y-68325000D03*
%TD*%
%TO.C,D62*%
X237331250Y-45975000D03*
X237331250Y-49275000D03*
%TD*%
%TO.C,D66*%
X246856250Y-26925000D03*
X246856250Y-30225000D03*
%TD*%
%TO.C,D65*%
X246856250Y-7875000D03*
X246856250Y-11175000D03*
%TD*%
%TO.C,D47*%
X194468750Y-84075000D03*
X194468750Y-87375000D03*
%TD*%
%TO.C,D51*%
X203993750Y-65025000D03*
X203993750Y-68325000D03*
%TD*%
%TO.C,D56*%
X218281250Y-45975000D03*
X218281250Y-49275000D03*
%TD*%
%TO.C,D61*%
X227806250Y-26925000D03*
X227806250Y-30225000D03*
%TD*%
%TO.C,D60*%
X227806250Y-7875000D03*
X227806250Y-11175000D03*
%TD*%
%TO.C,D42*%
X175418750Y-84075000D03*
X175418750Y-87375000D03*
%TD*%
%TO.C,D46*%
X184943750Y-65025000D03*
X184943750Y-68325000D03*
%TD*%
%TO.C,D50*%
X199231250Y-45975000D03*
X199231250Y-49275000D03*
%TD*%
%TO.C,D55*%
X208756250Y-26925000D03*
X208756250Y-30225000D03*
%TD*%
%TO.C,D54*%
X208756250Y-7875000D03*
X208756250Y-11175000D03*
%TD*%
%TO.C,D45*%
X180181250Y-45975000D03*
X180181250Y-49275000D03*
%TD*%
%TO.C,D49*%
X189706250Y-26925000D03*
X189706250Y-30225000D03*
%TD*%
%TO.C,D48*%
X189706250Y-7875000D03*
X189706250Y-11175000D03*
%TD*%
%TO.C,D44*%
X170656250Y-26925000D03*
X170656250Y-30225000D03*
%TD*%
%TO.C,D43*%
X170656250Y-7875000D03*
X170656250Y-11175000D03*
%TD*%
%TO.C,D41*%
X165893750Y-65087500D03*
X165893750Y-68387500D03*
%TD*%
%TO.C,D40*%
X161131250Y-45975000D03*
X161131250Y-49275000D03*
%TD*%
%TO.C,D39*%
X151606250Y-26925000D03*
X151606250Y-30225000D03*
%TD*%
%TO.C,D38*%
X142081250Y-7875000D03*
X142081250Y-11175000D03*
%TD*%
%TO.C,D37*%
X156368750Y-84075000D03*
X156368750Y-87375000D03*
%TD*%
%TO.C,D36*%
X146843750Y-65025000D03*
X146843750Y-68325000D03*
%TD*%
%TO.C,D35*%
X142081250Y-45975000D03*
X142081250Y-49275000D03*
%TD*%
%TO.C,D34*%
X132556250Y-26925000D03*
X132556250Y-30225000D03*
%TD*%
%TO.C,D33*%
X123031250Y-7875000D03*
X123031250Y-11175000D03*
%TD*%
%TO.C,D32*%
X147637500Y-103125000D03*
X147637500Y-106425000D03*
%TD*%
%TO.C,D31*%
X137318750Y-84075000D03*
X137318750Y-87375000D03*
%TD*%
%TO.C,D30*%
X127793750Y-65025000D03*
X127793750Y-68325000D03*
%TD*%
%TO.C,D29*%
X123031250Y-45975000D03*
X123031250Y-49275000D03*
%TD*%
%TO.C,D28*%
X113506250Y-26925000D03*
X113506250Y-30225000D03*
%TD*%
%TO.C,D27*%
X103981250Y-7875000D03*
X103981250Y-11175000D03*
%TD*%
%TO.C,D26*%
X118268750Y-84075000D03*
X118268750Y-87375000D03*
%TD*%
%TO.C,D25*%
X108743750Y-65025000D03*
X108743750Y-68325000D03*
%TD*%
%TO.C,D24*%
X103981250Y-45975000D03*
X103981250Y-49275000D03*
%TD*%
%TO.C,D23*%
X94456250Y-26925000D03*
X94456250Y-30225000D03*
%TD*%
%TO.C,D22*%
X84931250Y-7875000D03*
X84931250Y-11175000D03*
%TD*%
%TO.C,D21*%
X99218750Y-84075000D03*
X99218750Y-87375000D03*
%TD*%
%TO.C,D20*%
X89693750Y-65025000D03*
X89693750Y-68325000D03*
%TD*%
%TO.C,D19*%
X84931250Y-45975000D03*
X84931250Y-49275000D03*
%TD*%
%TO.C,D18*%
X75406250Y-26925000D03*
X75406250Y-30225000D03*
%TD*%
%TO.C,D17*%
X65881250Y-7875000D03*
X65881250Y-11175000D03*
%TD*%
%TO.C,D16*%
X80168750Y-84075000D03*
X80168750Y-87375000D03*
%TD*%
%TO.C,D15*%
X70643750Y-65025000D03*
X70643750Y-68325000D03*
%TD*%
%TO.C,D14*%
X65881250Y-45975000D03*
X65881250Y-49275000D03*
%TD*%
%TO.C,D13*%
X56356250Y-26925000D03*
X56356250Y-30225000D03*
%TD*%
%TO.C,D12*%
X46831250Y-7875000D03*
X46831250Y-11175000D03*
%TD*%
%TO.C,D11*%
X68262500Y-103125000D03*
X68262500Y-106425000D03*
%TD*%
%TO.C,D10*%
X61118750Y-84075000D03*
X61118750Y-87375000D03*
%TD*%
%TO.C,D9*%
X51593750Y-65025000D03*
X51593750Y-68325000D03*
%TD*%
%TO.C,D8*%
X46831250Y-45975000D03*
X46831250Y-49275000D03*
%TD*%
%TO.C,D7*%
X37306250Y-26925000D03*
X37306250Y-30225000D03*
%TD*%
%TO.C,D6*%
X44450000Y-103125000D03*
X44450000Y-106425000D03*
%TD*%
%TO.C,D5*%
X30162500Y-84075000D03*
X30162500Y-87375000D03*
%TD*%
%TO.C,D4*%
X25400000Y-65025000D03*
X25400000Y-68325000D03*
%TD*%
%TO.C,D3*%
X23018750Y-45975000D03*
X23018750Y-49275000D03*
%TD*%
%TO.C,D2*%
X18256250Y-26925000D03*
X18256250Y-30225000D03*
%TD*%
%TO.C,D1*%
X18256250Y-7875000D03*
X18256250Y-11175000D03*
%TD*%
%TO.C,C8*%
G36*
G01*
X304191250Y4443750D02*
X304191250Y3493750D01*
G75*
G02*
X303941250Y3243750I-250000J0D01*
G01*
X303441250Y3243750D01*
G75*
G02*
X303191250Y3493750I0J250000D01*
G01*
X303191250Y4443750D01*
G75*
G02*
X303441250Y4693750I250000J0D01*
G01*
X303941250Y4693750D01*
G75*
G02*
X304191250Y4443750I0J-250000D01*
G01*
G37*
G36*
G01*
X306091250Y4443750D02*
X306091250Y3493750D01*
G75*
G02*
X305841250Y3243750I-250000J0D01*
G01*
X305341250Y3243750D01*
G75*
G02*
X305091250Y3493750I0J250000D01*
G01*
X305091250Y4443750D01*
G75*
G02*
X305341250Y4693750I250000J0D01*
G01*
X305841250Y4693750D01*
G75*
G02*
X306091250Y4443750I0J-250000D01*
G01*
G37*
%TD*%
%TO.C,C7*%
G36*
G01*
X302737500Y21250D02*
X303687500Y21250D01*
G75*
G02*
X303937500Y-228750I0J-250000D01*
G01*
X303937500Y-728750D01*
G75*
G02*
X303687500Y-978750I-250000J0D01*
G01*
X302737500Y-978750D01*
G75*
G02*
X302487500Y-728750I0J250000D01*
G01*
X302487500Y-228750D01*
G75*
G02*
X302737500Y21250I250000J0D01*
G01*
G37*
G36*
G01*
X302737500Y-1878750D02*
X303687500Y-1878750D01*
G75*
G02*
X303937500Y-2128750I0J-250000D01*
G01*
X303937500Y-2628750D01*
G75*
G02*
X303687500Y-2878750I-250000J0D01*
G01*
X302737500Y-2878750D01*
G75*
G02*
X302487500Y-2628750I0J250000D01*
G01*
X302487500Y-2128750D01*
G75*
G02*
X302737500Y-1878750I250000J0D01*
G01*
G37*
%TD*%
%TO.C,C6*%
G36*
G01*
X303687500Y-9360750D02*
X302737500Y-9360750D01*
G75*
G02*
X302487500Y-9110750I0J250000D01*
G01*
X302487500Y-8610750D01*
G75*
G02*
X302737500Y-8360750I250000J0D01*
G01*
X303687500Y-8360750D01*
G75*
G02*
X303937500Y-8610750I0J-250000D01*
G01*
X303937500Y-9110750D01*
G75*
G02*
X303687500Y-9360750I-250000J0D01*
G01*
G37*
G36*
G01*
X303687500Y-11260750D02*
X302737500Y-11260750D01*
G75*
G02*
X302487500Y-11010750I0J250000D01*
G01*
X302487500Y-10510750D01*
G75*
G02*
X302737500Y-10260750I250000J0D01*
G01*
X303687500Y-10260750D01*
G75*
G02*
X303937500Y-10510750I0J-250000D01*
G01*
X303937500Y-11010750D01*
G75*
G02*
X303687500Y-11260750I-250000J0D01*
G01*
G37*
%TD*%
%TO.C,C5*%
G36*
G01*
X316648250Y-14857750D02*
X316648250Y-13907750D01*
G75*
G02*
X316898250Y-13657750I250000J0D01*
G01*
X317398250Y-13657750D01*
G75*
G02*
X317648250Y-13907750I0J-250000D01*
G01*
X317648250Y-14857750D01*
G75*
G02*
X317398250Y-15107750I-250000J0D01*
G01*
X316898250Y-15107750D01*
G75*
G02*
X316648250Y-14857750I0J250000D01*
G01*
G37*
G36*
G01*
X314748250Y-14857750D02*
X314748250Y-13907750D01*
G75*
G02*
X314998250Y-13657750I250000J0D01*
G01*
X315498250Y-13657750D01*
G75*
G02*
X315748250Y-13907750I0J-250000D01*
G01*
X315748250Y-14857750D01*
G75*
G02*
X315498250Y-15107750I-250000J0D01*
G01*
X314998250Y-15107750D01*
G75*
G02*
X314748250Y-14857750I0J250000D01*
G01*
G37*
%TD*%
%TO.C,C4*%
G36*
G01*
X316832000Y6292000D02*
X315882000Y6292000D01*
G75*
G02*
X315632000Y6542000I0J250000D01*
G01*
X315632000Y7042000D01*
G75*
G02*
X315882000Y7292000I250000J0D01*
G01*
X316832000Y7292000D01*
G75*
G02*
X317082000Y7042000I0J-250000D01*
G01*
X317082000Y6542000D01*
G75*
G02*
X316832000Y6292000I-250000J0D01*
G01*
G37*
G36*
G01*
X316832000Y4392000D02*
X315882000Y4392000D01*
G75*
G02*
X315632000Y4642000I0J250000D01*
G01*
X315632000Y5142000D01*
G75*
G02*
X315882000Y5392000I250000J0D01*
G01*
X316832000Y5392000D01*
G75*
G02*
X317082000Y5142000I0J-250000D01*
G01*
X317082000Y4642000D01*
G75*
G02*
X316832000Y4392000I-250000J0D01*
G01*
G37*
%TD*%
%TO.C,C3*%
G36*
G01*
X327475000Y-5745500D02*
X327475000Y-4795500D01*
G75*
G02*
X327725000Y-4545500I250000J0D01*
G01*
X328225000Y-4545500D01*
G75*
G02*
X328475000Y-4795500I0J-250000D01*
G01*
X328475000Y-5745500D01*
G75*
G02*
X328225000Y-5995500I-250000J0D01*
G01*
X327725000Y-5995500D01*
G75*
G02*
X327475000Y-5745500I0J250000D01*
G01*
G37*
G36*
G01*
X325575000Y-5745500D02*
X325575000Y-4795500D01*
G75*
G02*
X325825000Y-4545500I250000J0D01*
G01*
X326325000Y-4545500D01*
G75*
G02*
X326575000Y-4795500I0J-250000D01*
G01*
X326575000Y-5745500D01*
G75*
G02*
X326325000Y-5995500I-250000J0D01*
G01*
X325825000Y-5995500D01*
G75*
G02*
X325575000Y-5745500I0J250000D01*
G01*
G37*
%TD*%
%TO.C,C2*%
G36*
G01*
X326575000Y-6954500D02*
X326575000Y-7904500D01*
G75*
G02*
X326325000Y-8154500I-250000J0D01*
G01*
X325825000Y-8154500D01*
G75*
G02*
X325575000Y-7904500I0J250000D01*
G01*
X325575000Y-6954500D01*
G75*
G02*
X325825000Y-6704500I250000J0D01*
G01*
X326325000Y-6704500D01*
G75*
G02*
X326575000Y-6954500I0J-250000D01*
G01*
G37*
G36*
G01*
X328475000Y-6954500D02*
X328475000Y-7904500D01*
G75*
G02*
X328225000Y-8154500I-250000J0D01*
G01*
X327725000Y-8154500D01*
G75*
G02*
X327475000Y-7904500I0J250000D01*
G01*
X327475000Y-6954500D01*
G75*
G02*
X327725000Y-6704500I250000J0D01*
G01*
X328225000Y-6704500D01*
G75*
G02*
X328475000Y-6954500I0J-250000D01*
G01*
G37*
%TD*%
%TO.C,C1*%
G36*
G01*
X314673000Y6292000D02*
X313723000Y6292000D01*
G75*
G02*
X313473000Y6542000I0J250000D01*
G01*
X313473000Y7042000D01*
G75*
G02*
X313723000Y7292000I250000J0D01*
G01*
X314673000Y7292000D01*
G75*
G02*
X314923000Y7042000I0J-250000D01*
G01*
X314923000Y6542000D01*
G75*
G02*
X314673000Y6292000I-250000J0D01*
G01*
G37*
G36*
G01*
X314673000Y4392000D02*
X313723000Y4392000D01*
G75*
G02*
X313473000Y4642000I0J250000D01*
G01*
X313473000Y5142000D01*
G75*
G02*
X313723000Y5392000I250000J0D01*
G01*
X314673000Y5392000D01*
G75*
G02*
X314923000Y5142000I0J-250000D01*
G01*
X314923000Y4642000D01*
G75*
G02*
X314673000Y4392000I-250000J0D01*
G01*
G37*
%TD*%
M02*
