%TF.GenerationSoftware,KiCad,Pcbnew,5.1.9*%
%TF.CreationDate,2022-11-22T14:36:07-05:00*%
%TF.ProjectId,EKS1000-V4,454b5331-3030-4302-9d56-342e6b696361,rev?*%
%TF.SameCoordinates,Original*%
%TF.FileFunction,Paste,Bot*%
%TF.FilePolarity,Positive*%
%FSLAX46Y46*%
G04 Gerber Fmt 4.6, Leading zero omitted, Abs format (unit mm)*
G04 Created by KiCad (PCBNEW 5.1.9) date 2022-11-22 14:36:07*
%MOMM*%
%LPD*%
G01*
G04 APERTURE LIST*
%ADD10R,0.300000X1.450000*%
%ADD11R,0.600000X1.450000*%
%ADD12R,0.700000X1.000000*%
%ADD13R,0.700000X0.600000*%
%ADD14R,1.200000X1.400000*%
%ADD15R,1.500000X0.550000*%
%ADD16R,0.550000X1.500000*%
%ADD17R,1.100000X1.800000*%
%ADD18R,1.200000X0.900000*%
G04 APERTURE END LIST*
D10*
%TO.C,J1*%
X309690198Y15322500D03*
X311690198Y15322500D03*
X311190198Y15322500D03*
X310690198Y15322500D03*
X310190198Y15322500D03*
X309190198Y15322500D03*
X308690198Y15322500D03*
X308190198Y15322500D03*
D11*
X313190198Y15322500D03*
X312390198Y15322500D03*
X307490198Y15322500D03*
X306690198Y15322500D03*
X306690198Y15322500D03*
X307490198Y15322500D03*
X312390198Y15322500D03*
X313190198Y15322500D03*
%TD*%
%TO.C,R1*%
G36*
G01*
X322712502Y-266750D02*
X321812498Y-266750D01*
G75*
G02*
X321562500Y-16752I0J249998D01*
G01*
X321562500Y508252D01*
G75*
G02*
X321812498Y758250I249998J0D01*
G01*
X322712502Y758250D01*
G75*
G02*
X322962500Y508252I0J-249998D01*
G01*
X322962500Y-16752D01*
G75*
G02*
X322712502Y-266750I-249998J0D01*
G01*
G37*
G36*
G01*
X322712502Y-2091750D02*
X321812498Y-2091750D01*
G75*
G02*
X321562500Y-1841752I0J249998D01*
G01*
X321562500Y-1316748D01*
G75*
G02*
X321812498Y-1066750I249998J0D01*
G01*
X322712502Y-1066750D01*
G75*
G02*
X322962500Y-1316748I0J-249998D01*
G01*
X322962500Y-1841752D01*
G75*
G02*
X322712502Y-2091750I-249998J0D01*
G01*
G37*
%TD*%
D12*
%TO.C,U2*%
X310945250Y12211750D03*
D13*
X308945250Y12411750D03*
X310945250Y10511750D03*
X308945250Y10511750D03*
%TD*%
D14*
%TO.C,Y1*%
X323906250Y-7450000D03*
X323906250Y-5250000D03*
X322206250Y-5250000D03*
X322206250Y-7450000D03*
%TD*%
D15*
%TO.C,U1*%
X306243750Y-1556250D03*
X306243750Y-2356250D03*
X306243750Y-3156250D03*
X306243750Y-3956250D03*
X306243750Y-4756250D03*
X306243750Y-5556250D03*
X306243750Y-6356250D03*
X306243750Y-7156250D03*
X306243750Y-7956250D03*
X306243750Y-8756250D03*
X306243750Y-9556250D03*
D16*
X307943750Y-11256250D03*
X308743750Y-11256250D03*
X309543750Y-11256250D03*
X310343750Y-11256250D03*
X311143750Y-11256250D03*
X311943750Y-11256250D03*
X312743750Y-11256250D03*
X313543750Y-11256250D03*
X314343750Y-11256250D03*
X315143750Y-11256250D03*
X315943750Y-11256250D03*
D15*
X317643750Y-9556250D03*
X317643750Y-8756250D03*
X317643750Y-7956250D03*
X317643750Y-7156250D03*
X317643750Y-6356250D03*
X317643750Y-5556250D03*
X317643750Y-4756250D03*
X317643750Y-3956250D03*
X317643750Y-3156250D03*
X317643750Y-2356250D03*
X317643750Y-1556250D03*
D16*
X315943750Y143750D03*
X315143750Y143750D03*
X314343750Y143750D03*
X313543750Y143750D03*
X312743750Y143750D03*
X311943750Y143750D03*
X311143750Y143750D03*
X310343750Y143750D03*
X309543750Y143750D03*
X308743750Y143750D03*
X307943750Y143750D03*
%TD*%
D17*
%TO.C,SW1*%
X324889250Y75000D03*
X328589250Y6275000D03*
X328589250Y75000D03*
X324889250Y6275000D03*
%TD*%
%TO.C,R6*%
G36*
G01*
X302254498Y14332000D02*
X303154502Y14332000D01*
G75*
G02*
X303404500Y14082002I0J-249998D01*
G01*
X303404500Y13556998D01*
G75*
G02*
X303154502Y13307000I-249998J0D01*
G01*
X302254498Y13307000D01*
G75*
G02*
X302004500Y13556998I0J249998D01*
G01*
X302004500Y14082002D01*
G75*
G02*
X302254498Y14332000I249998J0D01*
G01*
G37*
G36*
G01*
X302254498Y16157000D02*
X303154502Y16157000D01*
G75*
G02*
X303404500Y15907002I0J-249998D01*
G01*
X303404500Y15381998D01*
G75*
G02*
X303154502Y15132000I-249998J0D01*
G01*
X302254498Y15132000D01*
G75*
G02*
X302004500Y15381998I0J249998D01*
G01*
X302004500Y15907002D01*
G75*
G02*
X302254498Y16157000I249998J0D01*
G01*
G37*
%TD*%
%TO.C,R5*%
G36*
G01*
X316700748Y14332000D02*
X317600752Y14332000D01*
G75*
G02*
X317850750Y14082002I0J-249998D01*
G01*
X317850750Y13556998D01*
G75*
G02*
X317600752Y13307000I-249998J0D01*
G01*
X316700748Y13307000D01*
G75*
G02*
X316450750Y13556998I0J249998D01*
G01*
X316450750Y14082002D01*
G75*
G02*
X316700748Y14332000I249998J0D01*
G01*
G37*
G36*
G01*
X316700748Y16157000D02*
X317600752Y16157000D01*
G75*
G02*
X317850750Y15907002I0J-249998D01*
G01*
X317850750Y15381998D01*
G75*
G02*
X317600752Y15132000I-249998J0D01*
G01*
X316700748Y15132000D01*
G75*
G02*
X316450750Y15381998I0J249998D01*
G01*
X316450750Y15907002D01*
G75*
G02*
X316700748Y16157000I249998J0D01*
G01*
G37*
%TD*%
%TO.C,R4*%
G36*
G01*
X303177144Y-15872793D02*
X303813543Y-15236394D01*
G75*
G02*
X304167093Y-15236394I176775J-176775D01*
G01*
X304538326Y-15607627D01*
G75*
G02*
X304538326Y-15961177I-176775J-176775D01*
G01*
X303901927Y-16597576D01*
G75*
G02*
X303548377Y-16597576I-176775J176775D01*
G01*
X303177144Y-16226343D01*
G75*
G02*
X303177144Y-15872793I176775J176775D01*
G01*
G37*
G36*
G01*
X301886674Y-14582323D02*
X302523073Y-13945924D01*
G75*
G02*
X302876623Y-13945924I176775J-176775D01*
G01*
X303247856Y-14317157D01*
G75*
G02*
X303247856Y-14670707I-176775J-176775D01*
G01*
X302611457Y-15307106D01*
G75*
G02*
X302257907Y-15307106I-176775J176775D01*
G01*
X301886674Y-14935873D01*
G75*
G02*
X301886674Y-14582323I176775J176775D01*
G01*
G37*
%TD*%
%TO.C,R3*%
G36*
G01*
X309095252Y6253966D02*
X308195248Y6253966D01*
G75*
G02*
X307945250Y6503964I0J249998D01*
G01*
X307945250Y7028968D01*
G75*
G02*
X308195248Y7278966I249998J0D01*
G01*
X309095252Y7278966D01*
G75*
G02*
X309345250Y7028968I0J-249998D01*
G01*
X309345250Y6503964D01*
G75*
G02*
X309095252Y6253966I-249998J0D01*
G01*
G37*
G36*
G01*
X309095252Y4428966D02*
X308195248Y4428966D01*
G75*
G02*
X307945250Y4678964I0J249998D01*
G01*
X307945250Y5203968D01*
G75*
G02*
X308195248Y5453966I249998J0D01*
G01*
X309095252Y5453966D01*
G75*
G02*
X309345250Y5203968I0J-249998D01*
G01*
X309345250Y4678964D01*
G75*
G02*
X309095252Y4428966I-249998J0D01*
G01*
G37*
%TD*%
%TO.C,R2*%
G36*
G01*
X311627502Y6253966D02*
X310727498Y6253966D01*
G75*
G02*
X310477500Y6503964I0J249998D01*
G01*
X310477500Y7028968D01*
G75*
G02*
X310727498Y7278966I249998J0D01*
G01*
X311627502Y7278966D01*
G75*
G02*
X311877500Y7028968I0J-249998D01*
G01*
X311877500Y6503964D01*
G75*
G02*
X311627502Y6253966I-249998J0D01*
G01*
G37*
G36*
G01*
X311627502Y4428966D02*
X310727498Y4428966D01*
G75*
G02*
X310477500Y4678964I0J249998D01*
G01*
X310477500Y5203968D01*
G75*
G02*
X310727498Y5453966I249998J0D01*
G01*
X311627502Y5453966D01*
G75*
G02*
X311877500Y5203968I0J-249998D01*
G01*
X311877500Y4678964D01*
G75*
G02*
X311627502Y4428966I-249998J0D01*
G01*
G37*
%TD*%
%TO.C,F1*%
G36*
G01*
X306218750Y5912500D02*
X304968750Y5912500D01*
G75*
G02*
X304718750Y6162500I0J250000D01*
G01*
X304718750Y6912500D01*
G75*
G02*
X304968750Y7162500I250000J0D01*
G01*
X306218750Y7162500D01*
G75*
G02*
X306468750Y6912500I0J-250000D01*
G01*
X306468750Y6162500D01*
G75*
G02*
X306218750Y5912500I-250000J0D01*
G01*
G37*
G36*
G01*
X306218750Y8712500D02*
X304968750Y8712500D01*
G75*
G02*
X304718750Y8962500I0J250000D01*
G01*
X304718750Y9712500D01*
G75*
G02*
X304968750Y9962500I250000J0D01*
G01*
X306218750Y9962500D01*
G75*
G02*
X306468750Y9712500I0J-250000D01*
G01*
X306468750Y8962500D01*
G75*
G02*
X306218750Y8712500I-250000J0D01*
G01*
G37*
%TD*%
D18*
%TO.C,D90*%
X361156250Y-103125000D03*
X361156250Y-106425000D03*
%TD*%
%TO.C,D89*%
X370681250Y-84075000D03*
X370681250Y-87375000D03*
%TD*%
%TO.C,D88*%
X370681250Y-65025000D03*
X370681250Y-68325000D03*
%TD*%
%TO.C,D87*%
X370681250Y-45975000D03*
X370681250Y-49275000D03*
%TD*%
%TO.C,D86*%
X370681250Y-26925000D03*
X370681250Y-30225000D03*
%TD*%
%TO.C,D85*%
X351631250Y-65025000D03*
X351631250Y-68325000D03*
%TD*%
%TO.C,D84*%
X351631250Y-45975000D03*
X351631250Y-49275000D03*
%TD*%
%TO.C,D83*%
X351631250Y-26925000D03*
X351631250Y-30225000D03*
%TD*%
%TO.C,D82*%
X332581250Y-103125000D03*
X332581250Y-106425000D03*
%TD*%
%TO.C,D81*%
X342900000Y-84075000D03*
X342900000Y-87375000D03*
%TD*%
%TO.C,D80*%
X332581250Y-65025000D03*
X332581250Y-68325000D03*
%TD*%
%TO.C,D79*%
X332581250Y-45975000D03*
X332581250Y-49275000D03*
%TD*%
%TO.C,D78*%
X332581250Y-26925000D03*
X332581250Y-30225000D03*
%TD*%
%TO.C,D77*%
X294481250Y-103125000D03*
X294481250Y-106425000D03*
%TD*%
%TO.C,D76*%
X304006250Y-84075000D03*
X304006250Y-87375000D03*
%TD*%
%TO.C,D75*%
X284956250Y-84075000D03*
X284956250Y-87375000D03*
%TD*%
%TO.C,D74*%
X294481250Y-65025000D03*
X294481250Y-68325000D03*
%TD*%
%TO.C,D73*%
X294481250Y-45975000D03*
X294481250Y-49275000D03*
%TD*%
%TO.C,D59*%
X249237500Y-103125000D03*
X249237500Y-106425000D03*
%TD*%
%TO.C,D64*%
X258762500Y-84075000D03*
X258762500Y-87375000D03*
%TD*%
%TO.C,D70*%
X275431250Y-55500000D03*
X275431250Y-58800000D03*
%TD*%
%TO.C,D72*%
X289718750Y-26925000D03*
X289718750Y-30225000D03*
%TD*%
%TO.C,D71*%
X294481250Y-7875000D03*
X294481250Y-11175000D03*
%TD*%
%TO.C,D53*%
X225425000Y-103125000D03*
X225425000Y-106425000D03*
%TD*%
%TO.C,D58*%
X232568750Y-84075000D03*
X232568750Y-87375000D03*
%TD*%
%TO.C,D63*%
X242093750Y-65025000D03*
X242093750Y-68325000D03*
%TD*%
%TO.C,D67*%
X256381250Y-55500000D03*
X256381250Y-58800000D03*
%TD*%
%TO.C,D69*%
X265906250Y-26925000D03*
X265906250Y-30225000D03*
%TD*%
%TO.C,D68*%
X265906250Y-7875000D03*
X265906250Y-11175000D03*
%TD*%
%TO.C,D52*%
X213518750Y-84075000D03*
X213518750Y-87375000D03*
%TD*%
%TO.C,D57*%
X223043750Y-65025000D03*
X223043750Y-68325000D03*
%TD*%
%TO.C,D62*%
X237331250Y-45975000D03*
X237331250Y-49275000D03*
%TD*%
%TO.C,D66*%
X246856250Y-26925000D03*
X246856250Y-30225000D03*
%TD*%
%TO.C,D65*%
X246856250Y-7875000D03*
X246856250Y-11175000D03*
%TD*%
%TO.C,D47*%
X194468750Y-84075000D03*
X194468750Y-87375000D03*
%TD*%
%TO.C,D51*%
X203993750Y-65025000D03*
X203993750Y-68325000D03*
%TD*%
%TO.C,D56*%
X218281250Y-45975000D03*
X218281250Y-49275000D03*
%TD*%
%TO.C,D61*%
X227806250Y-26925000D03*
X227806250Y-30225000D03*
%TD*%
%TO.C,D60*%
X227806250Y-7875000D03*
X227806250Y-11175000D03*
%TD*%
%TO.C,D42*%
X175418750Y-84075000D03*
X175418750Y-87375000D03*
%TD*%
%TO.C,D46*%
X184943750Y-65025000D03*
X184943750Y-68325000D03*
%TD*%
%TO.C,D50*%
X199231250Y-45975000D03*
X199231250Y-49275000D03*
%TD*%
%TO.C,D55*%
X208756250Y-26925000D03*
X208756250Y-30225000D03*
%TD*%
%TO.C,D54*%
X208756250Y-7875000D03*
X208756250Y-11175000D03*
%TD*%
%TO.C,D45*%
X180181250Y-45975000D03*
X180181250Y-49275000D03*
%TD*%
%TO.C,D49*%
X189706250Y-26925000D03*
X189706250Y-30225000D03*
%TD*%
%TO.C,D48*%
X189706250Y-7875000D03*
X189706250Y-11175000D03*
%TD*%
%TO.C,D44*%
X170656250Y-26925000D03*
X170656250Y-30225000D03*
%TD*%
%TO.C,D43*%
X170656250Y-7875000D03*
X170656250Y-11175000D03*
%TD*%
%TO.C,D41*%
X165893750Y-65087500D03*
X165893750Y-68387500D03*
%TD*%
%TO.C,D40*%
X161131250Y-45975000D03*
X161131250Y-49275000D03*
%TD*%
%TO.C,D39*%
X151606250Y-26925000D03*
X151606250Y-30225000D03*
%TD*%
%TO.C,D38*%
X142081250Y-7875000D03*
X142081250Y-11175000D03*
%TD*%
%TO.C,D37*%
X156368750Y-84075000D03*
X156368750Y-87375000D03*
%TD*%
%TO.C,D36*%
X146843750Y-65025000D03*
X146843750Y-68325000D03*
%TD*%
%TO.C,D35*%
X142081250Y-45975000D03*
X142081250Y-49275000D03*
%TD*%
%TO.C,D34*%
X132556250Y-26925000D03*
X132556250Y-30225000D03*
%TD*%
%TO.C,D33*%
X123031250Y-7875000D03*
X123031250Y-11175000D03*
%TD*%
%TO.C,D32*%
X147637500Y-103125000D03*
X147637500Y-106425000D03*
%TD*%
%TO.C,D31*%
X137318750Y-84075000D03*
X137318750Y-87375000D03*
%TD*%
%TO.C,D30*%
X127793750Y-65025000D03*
X127793750Y-68325000D03*
%TD*%
%TO.C,D29*%
X123031250Y-45975000D03*
X123031250Y-49275000D03*
%TD*%
%TO.C,D28*%
X113506250Y-26925000D03*
X113506250Y-30225000D03*
%TD*%
%TO.C,D27*%
X103981250Y-7875000D03*
X103981250Y-11175000D03*
%TD*%
%TO.C,D26*%
X118268750Y-84075000D03*
X118268750Y-87375000D03*
%TD*%
%TO.C,D25*%
X108743750Y-65025000D03*
X108743750Y-68325000D03*
%TD*%
%TO.C,D24*%
X103981250Y-45975000D03*
X103981250Y-49275000D03*
%TD*%
%TO.C,D23*%
X94456250Y-26925000D03*
X94456250Y-30225000D03*
%TD*%
%TO.C,D22*%
X84931250Y-7875000D03*
X84931250Y-11175000D03*
%TD*%
%TO.C,D21*%
X99218750Y-84075000D03*
X99218750Y-87375000D03*
%TD*%
%TO.C,D20*%
X89693750Y-65025000D03*
X89693750Y-68325000D03*
%TD*%
%TO.C,D19*%
X84931250Y-45975000D03*
X84931250Y-49275000D03*
%TD*%
%TO.C,D18*%
X75406250Y-26925000D03*
X75406250Y-30225000D03*
%TD*%
%TO.C,D17*%
X65881250Y-7875000D03*
X65881250Y-11175000D03*
%TD*%
%TO.C,D16*%
X80168750Y-84075000D03*
X80168750Y-87375000D03*
%TD*%
%TO.C,D15*%
X70643750Y-65025000D03*
X70643750Y-68325000D03*
%TD*%
%TO.C,D14*%
X65881250Y-45975000D03*
X65881250Y-49275000D03*
%TD*%
%TO.C,D13*%
X56356250Y-26925000D03*
X56356250Y-30225000D03*
%TD*%
%TO.C,D12*%
X46831250Y-7875000D03*
X46831250Y-11175000D03*
%TD*%
%TO.C,D11*%
X68262500Y-103125000D03*
X68262500Y-106425000D03*
%TD*%
%TO.C,D10*%
X61118750Y-84075000D03*
X61118750Y-87375000D03*
%TD*%
%TO.C,D9*%
X51593750Y-65025000D03*
X51593750Y-68325000D03*
%TD*%
%TO.C,D8*%
X46831250Y-45975000D03*
X46831250Y-49275000D03*
%TD*%
%TO.C,D7*%
X37306250Y-26925000D03*
X37306250Y-30225000D03*
%TD*%
%TO.C,D6*%
X44450000Y-103125000D03*
X44450000Y-106425000D03*
%TD*%
%TO.C,D5*%
X30162500Y-84075000D03*
X30162500Y-87375000D03*
%TD*%
%TO.C,D4*%
X25400000Y-65025000D03*
X25400000Y-68325000D03*
%TD*%
%TO.C,D3*%
X23018750Y-45975000D03*
X23018750Y-49275000D03*
%TD*%
%TO.C,D2*%
X18256250Y-26925000D03*
X18256250Y-30225000D03*
%TD*%
%TO.C,D1*%
X18256250Y-7875000D03*
X18256250Y-11175000D03*
%TD*%
%TO.C,C8*%
G36*
G01*
X304191250Y4443750D02*
X304191250Y3493750D01*
G75*
G02*
X303941250Y3243750I-250000J0D01*
G01*
X303441250Y3243750D01*
G75*
G02*
X303191250Y3493750I0J250000D01*
G01*
X303191250Y4443750D01*
G75*
G02*
X303441250Y4693750I250000J0D01*
G01*
X303941250Y4693750D01*
G75*
G02*
X304191250Y4443750I0J-250000D01*
G01*
G37*
G36*
G01*
X306091250Y4443750D02*
X306091250Y3493750D01*
G75*
G02*
X305841250Y3243750I-250000J0D01*
G01*
X305341250Y3243750D01*
G75*
G02*
X305091250Y3493750I0J250000D01*
G01*
X305091250Y4443750D01*
G75*
G02*
X305341250Y4693750I250000J0D01*
G01*
X305841250Y4693750D01*
G75*
G02*
X306091250Y4443750I0J-250000D01*
G01*
G37*
%TD*%
%TO.C,C7*%
G36*
G01*
X302737500Y21250D02*
X303687500Y21250D01*
G75*
G02*
X303937500Y-228750I0J-250000D01*
G01*
X303937500Y-728750D01*
G75*
G02*
X303687500Y-978750I-250000J0D01*
G01*
X302737500Y-978750D01*
G75*
G02*
X302487500Y-728750I0J250000D01*
G01*
X302487500Y-228750D01*
G75*
G02*
X302737500Y21250I250000J0D01*
G01*
G37*
G36*
G01*
X302737500Y-1878750D02*
X303687500Y-1878750D01*
G75*
G02*
X303937500Y-2128750I0J-250000D01*
G01*
X303937500Y-2628750D01*
G75*
G02*
X303687500Y-2878750I-250000J0D01*
G01*
X302737500Y-2878750D01*
G75*
G02*
X302487500Y-2628750I0J250000D01*
G01*
X302487500Y-2128750D01*
G75*
G02*
X302737500Y-1878750I250000J0D01*
G01*
G37*
%TD*%
%TO.C,C6*%
G36*
G01*
X303687500Y-9360750D02*
X302737500Y-9360750D01*
G75*
G02*
X302487500Y-9110750I0J250000D01*
G01*
X302487500Y-8610750D01*
G75*
G02*
X302737500Y-8360750I250000J0D01*
G01*
X303687500Y-8360750D01*
G75*
G02*
X303937500Y-8610750I0J-250000D01*
G01*
X303937500Y-9110750D01*
G75*
G02*
X303687500Y-9360750I-250000J0D01*
G01*
G37*
G36*
G01*
X303687500Y-11260750D02*
X302737500Y-11260750D01*
G75*
G02*
X302487500Y-11010750I0J250000D01*
G01*
X302487500Y-10510750D01*
G75*
G02*
X302737500Y-10260750I250000J0D01*
G01*
X303687500Y-10260750D01*
G75*
G02*
X303937500Y-10510750I0J-250000D01*
G01*
X303937500Y-11010750D01*
G75*
G02*
X303687500Y-11260750I-250000J0D01*
G01*
G37*
%TD*%
%TO.C,C5*%
G36*
G01*
X316648250Y-14857750D02*
X316648250Y-13907750D01*
G75*
G02*
X316898250Y-13657750I250000J0D01*
G01*
X317398250Y-13657750D01*
G75*
G02*
X317648250Y-13907750I0J-250000D01*
G01*
X317648250Y-14857750D01*
G75*
G02*
X317398250Y-15107750I-250000J0D01*
G01*
X316898250Y-15107750D01*
G75*
G02*
X316648250Y-14857750I0J250000D01*
G01*
G37*
G36*
G01*
X314748250Y-14857750D02*
X314748250Y-13907750D01*
G75*
G02*
X314998250Y-13657750I250000J0D01*
G01*
X315498250Y-13657750D01*
G75*
G02*
X315748250Y-13907750I0J-250000D01*
G01*
X315748250Y-14857750D01*
G75*
G02*
X315498250Y-15107750I-250000J0D01*
G01*
X314998250Y-15107750D01*
G75*
G02*
X314748250Y-14857750I0J250000D01*
G01*
G37*
%TD*%
%TO.C,C4*%
G36*
G01*
X316832000Y6292000D02*
X315882000Y6292000D01*
G75*
G02*
X315632000Y6542000I0J250000D01*
G01*
X315632000Y7042000D01*
G75*
G02*
X315882000Y7292000I250000J0D01*
G01*
X316832000Y7292000D01*
G75*
G02*
X317082000Y7042000I0J-250000D01*
G01*
X317082000Y6542000D01*
G75*
G02*
X316832000Y6292000I-250000J0D01*
G01*
G37*
G36*
G01*
X316832000Y4392000D02*
X315882000Y4392000D01*
G75*
G02*
X315632000Y4642000I0J250000D01*
G01*
X315632000Y5142000D01*
G75*
G02*
X315882000Y5392000I250000J0D01*
G01*
X316832000Y5392000D01*
G75*
G02*
X317082000Y5142000I0J-250000D01*
G01*
X317082000Y4642000D01*
G75*
G02*
X316832000Y4392000I-250000J0D01*
G01*
G37*
%TD*%
%TO.C,C3*%
G36*
G01*
X327475000Y-5745500D02*
X327475000Y-4795500D01*
G75*
G02*
X327725000Y-4545500I250000J0D01*
G01*
X328225000Y-4545500D01*
G75*
G02*
X328475000Y-4795500I0J-250000D01*
G01*
X328475000Y-5745500D01*
G75*
G02*
X328225000Y-5995500I-250000J0D01*
G01*
X327725000Y-5995500D01*
G75*
G02*
X327475000Y-5745500I0J250000D01*
G01*
G37*
G36*
G01*
X325575000Y-5745500D02*
X325575000Y-4795500D01*
G75*
G02*
X325825000Y-4545500I250000J0D01*
G01*
X326325000Y-4545500D01*
G75*
G02*
X326575000Y-4795500I0J-250000D01*
G01*
X326575000Y-5745500D01*
G75*
G02*
X326325000Y-5995500I-250000J0D01*
G01*
X325825000Y-5995500D01*
G75*
G02*
X325575000Y-5745500I0J250000D01*
G01*
G37*
%TD*%
%TO.C,C2*%
G36*
G01*
X326575000Y-6954500D02*
X326575000Y-7904500D01*
G75*
G02*
X326325000Y-8154500I-250000J0D01*
G01*
X325825000Y-8154500D01*
G75*
G02*
X325575000Y-7904500I0J250000D01*
G01*
X325575000Y-6954500D01*
G75*
G02*
X325825000Y-6704500I250000J0D01*
G01*
X326325000Y-6704500D01*
G75*
G02*
X326575000Y-6954500I0J-250000D01*
G01*
G37*
G36*
G01*
X328475000Y-6954500D02*
X328475000Y-7904500D01*
G75*
G02*
X328225000Y-8154500I-250000J0D01*
G01*
X327725000Y-8154500D01*
G75*
G02*
X327475000Y-7904500I0J250000D01*
G01*
X327475000Y-6954500D01*
G75*
G02*
X327725000Y-6704500I250000J0D01*
G01*
X328225000Y-6704500D01*
G75*
G02*
X328475000Y-6954500I0J-250000D01*
G01*
G37*
%TD*%
%TO.C,C1*%
G36*
G01*
X314673000Y6292000D02*
X313723000Y6292000D01*
G75*
G02*
X313473000Y6542000I0J250000D01*
G01*
X313473000Y7042000D01*
G75*
G02*
X313723000Y7292000I250000J0D01*
G01*
X314673000Y7292000D01*
G75*
G02*
X314923000Y7042000I0J-250000D01*
G01*
X314923000Y6542000D01*
G75*
G02*
X314673000Y6292000I-250000J0D01*
G01*
G37*
G36*
G01*
X314673000Y4392000D02*
X313723000Y4392000D01*
G75*
G02*
X313473000Y4642000I0J250000D01*
G01*
X313473000Y5142000D01*
G75*
G02*
X313723000Y5392000I250000J0D01*
G01*
X314673000Y5392000D01*
G75*
G02*
X314923000Y5142000I0J-250000D01*
G01*
X314923000Y4642000D01*
G75*
G02*
X314673000Y4392000I-250000J0D01*
G01*
G37*
%TD*%
M02*
