M48
; DRILL file {KiCad 5.1.9} date 11/23/22 09:59:31
; FORMAT={-:-/ absolute / inch / decimal}
; #@! TF.CreationDate,2022-11-23T09:59:31-05:00
; #@! TF.GenerationSoftware,Kicad,Pcbnew,5.1.9
; #@! TF.FileFunction,NonPlated,1,2,NPTH
FMAT,2
INCH
T1C0.0256
T2C0.0689
T3C0.1200
T4C0.1260
T5C0.1570
%
G90
G05
T1
X12.0886Y0.6601
X12.3161Y0.6601
T2
X0.175Y-0.375
X0.175Y-1.125
X0.3625Y-1.875
X0.575Y-0.375
X0.575Y-1.125
X0.6437Y-3.375
X0.6562Y-2.425
X0.6562Y-2.825
X0.7625Y-1.875
X0.925Y-1.125
X1.0437Y-3.375
X1.2063Y-4.125
X1.3Y-0.375
X1.3Y-1.875
X1.325Y-1.125
X1.4875Y-2.625
X1.6062Y-4.125
X1.675Y-1.125
X1.7Y-0.375
X1.7Y-1.875
X1.8625Y-3.375
X1.8875Y-2.625
X2.05Y-0.375
X2.05Y-1.875
X2.075Y-1.125
X2.1437Y-4.125
X2.2375Y-2.625
X2.2625Y-3.375
X2.425Y-1.125
X2.45Y-0.375
X2.45Y-1.875
X2.5437Y-4.125
X2.6125Y-3.375
X2.6375Y-2.625
X2.8Y-0.375
X2.8Y-1.875
X2.825Y-1.125
X2.9875Y-2.625
X3.0125Y-3.375
X3.175Y-1.125
X3.2Y-0.375
X3.2Y-1.875
X3.3625Y-3.375
X3.3875Y-2.625
X3.55Y-0.375
X3.55Y-1.875
X3.575Y-1.125
X3.7375Y-2.625
X3.7625Y-3.375
X3.925Y-1.125
X3.95Y-0.375
X3.95Y-1.875
X4.1125Y-3.375
X4.1375Y-2.625
X4.3Y-0.375
X4.3Y-1.875
X4.325Y-1.125
X4.4875Y-2.625
X4.5125Y-3.375
X4.675Y-1.125
X4.7Y-0.375
X4.7Y-1.875
X4.8625Y-3.375
X4.8875Y-2.625
X5.05Y-0.375
X5.05Y-1.875
X5.075Y-1.125
X5.2375Y-2.625
X5.2375Y-4.125
X5.2625Y-3.375
X5.425Y-1.125
X5.45Y-0.375
X5.45Y-1.875
X5.6125Y-3.375
X5.6375Y-2.625
X5.6375Y-4.125
X5.8Y-1.875
X5.825Y-1.125
X5.9875Y-2.625
X6.0125Y-3.375
X6.175Y-0.375
X6.175Y-1.125
X6.2Y-1.875
X6.3625Y-3.375
X6.3875Y-2.625
X6.55Y-1.875
X6.575Y-0.375
X6.575Y-1.125
X6.7375Y-2.625
X6.7625Y-3.375
X6.925Y-0.375
X6.925Y-1.125
X6.95Y-1.875
X7.1125Y-3.375
X7.1375Y-2.625
X7.3Y-1.875
X7.325Y-0.375
X7.325Y-1.125
X7.4875Y-2.625
X7.5125Y-3.375
X7.675Y-0.375
X7.675Y-1.125
X7.7Y-1.875
X7.8625Y-3.375
X7.8875Y-2.625
X8.05Y-1.875
X8.075Y-0.375
X8.075Y-1.125
X8.2375Y-2.625
X8.2625Y-3.375
X8.3312Y-4.125
X8.425Y-0.375
X8.425Y-1.125
X8.45Y-1.875
X8.6125Y-3.375
X8.6375Y-2.625
X8.7312Y-4.125
X8.8Y-1.875
X8.825Y-0.375
X8.825Y-1.125
X8.9875Y-2.625
X9.0125Y-3.375
X9.175Y-0.375
X9.175Y-1.125
X9.2Y-1.875
X9.2687Y-4.125
X9.3875Y-2.625
X9.55Y-1.875
X9.575Y-0.375
X9.575Y-1.125
X9.6437Y-3.375
X9.6687Y-4.125
X9.925Y-0.375
X9.925Y-1.125
X9.95Y-1.875
X10.0437Y-3.375
X10.3Y-2.25
X10.325Y-0.375
X10.325Y-1.125
X10.675Y-3.375
X10.7Y-2.25
X10.8625Y-1.125
X11.05Y-0.375
X11.05Y-1.875
X11.05Y-2.625
X11.05Y-4.125
X11.075Y-3.375
X11.2625Y-1.125
X11.425Y-3.375
X11.45Y-0.375
X11.45Y-1.875
X11.45Y-2.625
X11.45Y-4.125
X11.825Y-3.375
X12.55Y-1.125
X12.55Y-1.875
X12.55Y-2.625
X12.55Y-4.125
X12.925Y-3.375
X12.95Y-1.125
X12.95Y-1.875
X12.95Y-2.625
X12.95Y-4.125
X13.3Y-1.125
X13.3Y-1.875
X13.3Y-2.625
X13.325Y-3.375
X13.675Y-4.125
X13.7Y-1.125
X13.7Y-1.875
X13.7Y-2.625
X14.05Y-1.125
X14.05Y-1.875
X14.05Y-2.625
X14.05Y-3.375
X14.075Y-4.125
X14.45Y-1.125
X14.45Y-1.875
X14.45Y-2.625
X14.45Y-3.375
T3
X0.375Y-3.1
X1.3125Y-3.1
X3.1875Y-3.85
X7.6875Y-3.85
X10.775Y-1.7812
X10.775Y-2.7188
X12.6562Y-3.1
X13.4062Y-3.85
X13.5938Y-3.1
X14.3438Y-3.85
T4
X0.9375Y-0.2812
X0.9375Y-4.0312
X3.375Y-2.25
X5.0312Y-4.0312
X5.8125Y-0.2812
X8.2812Y-2.25
X10.6875Y-0.2812
X10.6875Y-4.0312
X13.875Y-1.5
X13.875Y-4.4375
T5
X0.375Y-0.375
X0.375Y-1.125
X0.375Y-3.7
X0.5625Y-1.875
X0.6562Y-2.625
X0.8438Y-3.375
X1.125Y-1.125
X1.3125Y-3.7
X1.4062Y-4.125
X1.5Y-0.375
X1.5Y-1.875
X1.6875Y-2.625
X1.875Y-1.125
X2.0625Y-3.375
X2.25Y-0.375
X2.25Y-1.875
X2.3438Y-4.125
X2.4375Y-2.625
X2.625Y-1.125
X2.8125Y-3.375
X3.0Y-0.375
X3.0Y-1.875
X3.1875Y-2.625
X3.1875Y-4.45
X3.375Y-1.125
X3.5625Y-3.375
X3.75Y-0.375
X3.75Y-1.875
X3.9375Y-2.625
X4.125Y-1.125
X4.3125Y-3.375
X4.5Y-0.375
X4.5Y-1.875
X4.6875Y-2.625
X4.875Y-1.125
X5.0625Y-3.375
X5.25Y-0.375
X5.25Y-1.875
X5.4375Y-2.625
X5.4375Y-4.125
X5.625Y-1.125
X5.8125Y-3.375
X6.0Y-1.875
X6.1875Y-2.625
X6.375Y-0.375
X6.375Y-1.125
X6.5625Y-3.375
X6.75Y-1.875
X6.9375Y-2.625
X7.125Y-0.375
X7.125Y-1.125
X7.3125Y-3.375
X7.5Y-1.875
X7.6875Y-2.625
X7.6875Y-4.45
X7.875Y-0.375
X7.875Y-1.125
X8.0625Y-3.375
X8.25Y-1.875
X8.4375Y-2.625
X8.5312Y-4.125
X8.625Y-0.375
X8.625Y-1.125
X8.8125Y-3.375
X9.0Y-1.875
X9.1875Y-2.625
X9.375Y-0.375
X9.375Y-1.125
X9.4688Y-4.125
X9.75Y-1.875
X9.8438Y-3.375
X10.125Y-0.375
X10.125Y-1.125
X10.175Y-1.7812
X10.175Y-2.7188
X10.5Y-2.25
X10.875Y-3.375
X11.0625Y-1.125
X11.25Y-0.375
X11.25Y-1.875
X11.25Y-2.625
X11.25Y-4.125
X11.625Y-3.375
X12.6562Y-3.7
X12.75Y-1.125
X12.75Y-1.875
X12.75Y-2.625
X12.75Y-4.125
X13.125Y-3.375
X13.4062Y-4.45
X13.5Y-1.125
X13.5Y-1.875
X13.5Y-2.625
X13.5938Y-3.7
X13.875Y-4.125
X14.25Y-1.125
X14.25Y-1.875
X14.25Y-2.625
X14.25Y-3.375
X14.3438Y-4.45
T0
M30
